*
*
G04 PADS9.1 Build Number: 384028 generated Gerber (RS-274-X) file*
G04 PC Version=2.1*
*
%IN "medulla.1.pcb"*%
*
%MOIN*%
*
%FSLAX35Y35*%
*
*
*
*
G04 PC Standard Apertures*
*
*
G04 Thermal Relief Aperture macro.*
%AMTER*
1,1,$1,0,0*
1,0,$1-$2,0,0*
21,0,$3,$4,0,0,45*
21,0,$3,$4,0,0,135*
%
*
*
G04 Annular Aperture macro.*
%AMANN*
1,1,$1,0,0*
1,0,$2,0,0*
%
*
*
G04 Odd Aperture macro.*
%AMODD*
1,1,$1,0,0*
1,0,$1-0.005,0,0*
%
*
*
G04 PC Custom Aperture Macros*
*
*
*
*
*
*
G04 PC Aperture Table*
*
%ADD034C,0.01181*%
%ADD038C,0.006*%
%ADD039C,0.01*%
%ADD041C,0.02*%
%ADD089C,0.007*%
%ADD091C,0.005*%
%ADD094C,0.001*%
*
*
*
*
G04 PC Circuitry*
G04 Layer Name medulla.1.pcb - circuitry*
%LPD*%
*
*
G04 PC Custom Flashes*
G04 Layer Name medulla.1.pcb - flashes*
%LPD*%
*
*
G04 PC Circuitry*
G04 Layer Name medulla.1.pcb - circuitry*
%LPD*%
*
G54D34*
G01X289126Y280449D02*
Y280843D01*
X304874*
Y280449*
Y261551D02*
Y261157D01*
X289126*
Y261551*
X304874Y280843D02*
Y283992D01*
X301724*
Y280843*
X304874*
X301724Y283205D02*
X304874D01*
Y282024D02*
X301724D01*
Y281630D02*
X304874D01*
G54D38*
X203068Y139844D02*
Y136300D01*
Y139844D02*
X201841D01*
X201432Y139675*
X201295Y139506*
X201159Y139169*
Y138663*
X201159D02*
X201295Y138325D01*
X201432Y138156*
X201841Y137988*
X201841D02*
X203068D01*
X199932Y139844D02*
Y136300D01*
X198023Y139844D02*
Y136300D01*
X199932Y138156D02*
X198023D01*
X196795Y139844D02*
X195705Y138156D01*
Y136300*
X194614Y139844D02*
X195705Y138156D01*
X192568Y139844D02*
X192977Y139675D01*
X193250Y139169*
X193386Y138325*
Y137819*
X193250Y136975*
X192977Y136469*
X192568Y136300*
X192295*
X191886Y136469*
X191614Y136975*
X191477Y137819*
Y138325*
X191614Y139169*
X191886Y139675*
X192295Y139844*
X192568*
X167455D02*
Y136300D01*
Y139844D02*
X166227D01*
X165818Y139675*
X165682Y139506*
X165545Y139169*
Y138663*
X165545D02*
X165682Y138325D01*
X165818Y138156*
X166227Y137988*
X166227D02*
X167455D01*
X164318Y139844D02*
Y136300D01*
X162409Y139844D02*
Y136300D01*
X164318Y138156D02*
X162409D01*
X161182Y139844D02*
X160091Y138156D01*
Y136300*
X159000Y139844D02*
X160091Y138156D01*
X157773Y139169D02*
X157500Y139338D01*
X157500D02*
X157091Y139844D01*
Y136300*
G54D39*
X378800Y225400D02*
Y223600D01*
X375200*
X378800Y228600D02*
Y230400D01*
X375200*
Y226600D02*
Y227400D01*
X295800Y160400D02*
Y158600D01*
X292200*
X295800Y163600D02*
Y165400D01*
X292200*
Y161600D02*
Y162400D01*
X260250Y312750D02*
X268250D01*
Y303250*
X260250*
X257750Y312750D02*
X249750D01*
Y303250*
X257750*
G54D41*
X100000Y100000D02*
X450000D01*
Y330000*
X100000*
Y100000*
G54D89*
X368000Y249500D02*
Y236500D01*
X374000*
Y249500*
X368000*
X349500Y244000D02*
X362500D01*
Y250000*
X349500*
Y244000*
Y231000D02*
X362500D01*
Y237000*
X349500*
Y231000*
Y211000D02*
X362500D01*
Y217000*
X349500*
Y211000*
X250500Y205000D02*
X263500D01*
Y211000*
X250500*
Y205000*
X378000Y202500D02*
Y215500D01*
X372000*
Y202500*
X378000*
X349500Y202000D02*
X362500D01*
Y208000*
X349500*
Y202000*
X396500Y208000D02*
X383500D01*
Y202000*
X396500*
Y208000*
Y219000D02*
X383500D01*
Y213000*
X396500*
Y219000*
Y238000D02*
X383500D01*
Y232000*
X396500*
Y238000*
X244500Y121000D02*
X257500D01*
Y127000*
X244500*
Y121000*
X257500Y133000D02*
X244500D01*
Y127000*
X257500*
Y133000*
X275000Y282500D02*
Y269500D01*
X281000*
Y282500*
X275000*
X383500Y238000D02*
X396500D01*
Y244000*
X383500*
Y238000*
X314000Y279500D02*
Y266500D01*
X320000*
Y279500*
X314000*
X250500Y169000D02*
X263500D01*
Y175000*
X250500*
Y169000*
X182000Y123843D02*
Y104157D01*
X188000*
Y123843*
X182000*
X249500Y157000D02*
X236500D01*
Y151000*
X249500*
Y157000*
X290000Y208500D02*
Y195500D01*
X296000*
Y208500*
X290000*
X308500Y229000D02*
X295500D01*
Y223000*
X308500*
Y229000*
X250500Y187000D02*
X263500D01*
Y193000*
X250500*
Y187000*
X249500Y199000D02*
X236500D01*
Y193000*
X249500*
Y199000*
Y175000D02*
X236500D01*
Y169000*
X249500*
Y175000*
Y169000D02*
X236500D01*
Y163000*
X249500*
Y169000*
X302000Y208500D02*
Y195500D01*
X308000*
Y208500*
X302000*
X296000D02*
Y195500D01*
X302000*
Y208500*
X296000*
X308000D02*
Y195500D01*
X314000*
Y208500*
X308000*
X236500Y187000D02*
X249500D01*
Y193000*
X236500*
Y187000*
X249500Y205000D02*
X236500D01*
Y199000*
X249500*
Y205000*
X236500Y175000D02*
X249500D01*
Y181000*
X236500*
Y175000*
X250500Y257000D02*
X263500D01*
Y263000*
X250500*
Y257000*
X249500Y269000D02*
X236500D01*
Y263000*
X249500*
Y269000*
Y245000D02*
X236500D01*
Y239000*
X249500*
Y245000*
Y239000D02*
X236500D01*
Y233000*
X249500*
Y239000*
X210000Y168500D02*
Y181500D01*
X204000*
Y168500*
X210000*
X204000Y194500D02*
Y181500D01*
X210000*
Y194500*
X204000*
X236500Y257000D02*
X249500D01*
Y263000*
X236500*
Y257000*
Y215000D02*
X249500D01*
Y221000*
X236500*
Y215000*
X249500Y275000D02*
X236500D01*
Y269000*
X249500*
Y275000*
X236500Y245000D02*
X249500D01*
Y251000*
X236500*
Y245000*
X250500Y275000D02*
X263500D01*
Y281000*
X250500*
Y275000*
Y239000D02*
X263500D01*
Y245000*
X250500*
Y239000*
X236500Y275000D02*
X249500D01*
Y281000*
X236500*
Y275000*
X263500Y239000D02*
X250500D01*
Y233000*
X263500*
Y239000*
Y233000D02*
X250500D01*
Y227000*
X263500*
Y233000*
Y227000D02*
X250500D01*
Y221000*
X263500*
Y227000*
Y221000D02*
X250500D01*
Y215000*
X263500*
Y221000*
Y275000D02*
X250500D01*
Y269000*
X263500*
Y275000*
Y269000D02*
X250500D01*
Y263000*
X263500*
Y269000*
Y257000D02*
X250500D01*
Y251000*
X263500*
Y257000*
Y251000D02*
X250500D01*
Y245000*
X263500*
Y251000*
X236500Y205000D02*
X249500D01*
Y211000*
X236500*
Y205000*
X263500Y169000D02*
X250500D01*
Y163000*
X263500*
Y169000*
Y163000D02*
X250500D01*
Y157000*
X263500*
Y163000*
Y157000D02*
X250500D01*
Y151000*
X263500*
Y157000*
Y151000D02*
X250500D01*
Y145000*
X263500*
Y151000*
Y205000D02*
X250500D01*
Y199000*
X263500*
Y205000*
X276000Y190500D02*
Y177500D01*
X282000*
Y190500*
X276000*
X263500Y199000D02*
X250500D01*
Y193000*
X263500*
Y199000*
X276000Y203500D02*
Y190500D01*
X282000*
Y203500*
X276000*
X263500Y187000D02*
X250500D01*
Y181000*
X263500*
Y187000*
X269500Y204000D02*
X282500D01*
Y210000*
X269500*
Y204000*
X263500Y181000D02*
X250500D01*
Y175000*
X263500*
Y181000*
X188000Y123843D02*
Y104157D01*
X194000*
Y123843*
X188000*
X194000D02*
Y104157D01*
X200000*
Y123843*
X194000*
X200000D02*
Y104157D01*
X206000*
Y123843*
X200000*
X206000D02*
Y104157D01*
X212000*
Y123843*
X206000*
X147000D02*
Y104157D01*
X153000*
Y123843*
X147000*
X153000D02*
Y104157D01*
X159000*
Y123843*
X153000*
X159000D02*
Y104157D01*
X165000*
Y123843*
X159000*
X165000D02*
Y104157D01*
X171000*
Y123843*
X165000*
X171000D02*
Y104157D01*
X177000*
Y123843*
X171000*
X301000Y190500D02*
Y177500D01*
X307000*
Y190500*
X301000*
Y177500D02*
Y190500D01*
X295000*
Y177500*
X301000*
X396500Y250000D02*
X383500D01*
Y244000*
X396500*
Y250000*
X210000Y245500D02*
Y258500D01*
X204000*
Y245500*
X210000*
X204000Y271500D02*
Y258500D01*
X210000*
Y271500*
X204000*
X249500Y227000D02*
X236500D01*
Y221000*
X249500*
Y227000*
X289000Y190500D02*
Y177500D01*
X295000*
Y190500*
X289000*
X236500Y145000D02*
X249500D01*
Y151000*
X236500*
Y145000*
X118500Y302000D02*
X105500D01*
Y296000*
X118500*
Y302000*
X125000Y289500D02*
Y302500D01*
X119000*
Y289500*
X125000*
X216000Y245500D02*
Y258500D01*
X210000*
Y245500*
X216000*
X210000Y155500D02*
Y168500D01*
X204000*
Y155500*
X210000*
X118500Y296000D02*
X105500D01*
Y290000*
X118500*
Y296000*
G54D91*
X371045Y254500D02*
X371159Y254781D01*
X371386Y255063*
X371386D02*
X371614Y255203D01*
X372068*
X372295Y255063*
X372295D02*
X372523Y254781D01*
X372636Y254500*
X372750Y254078*
Y253375*
X372636Y252953*
X372523Y252672*
X372295Y252391*
X372068Y252250*
X371614*
X371386Y252391*
X371159Y252672*
X371045Y252953*
X370023Y254641D02*
X369795Y254781D01*
X369455Y255203*
Y252250*
X346045Y249500D02*
X346159Y249781D01*
X346386Y250063*
X346386D02*
X346614Y250203D01*
X347068*
X347295Y250063*
X347295D02*
X347523Y249781D01*
X347636Y249500*
X347750Y249078*
Y248375*
X347636Y247953*
X347523Y247672*
X347295Y247391*
X347068Y247250*
X346614*
X346386Y247391*
X346159Y247672*
X346045Y247953*
X344909Y249500D02*
Y249641D01*
X344795Y249922*
X344682Y250063*
X344682D02*
X344455Y250203D01*
X344000*
X343773Y250063*
X343773D02*
X343659Y249922D01*
X343545Y249641*
Y249359*
X343659Y249078*
X343886Y248656*
X345023Y247250*
X343432*
X346045Y231500D02*
X346159Y231781D01*
X346386Y232063*
X346614Y232203*
X347068*
X347295Y232063*
X347523Y231781*
X347636Y231500*
X347750Y231078*
Y230375*
X347636Y229953*
X347523Y229672*
X347295Y229391*
X347068Y229250*
X346614*
X346386Y229391*
X346159Y229672*
X346045Y229953*
X344795Y232203D02*
X343545D01*
X344227Y231078*
X343886*
X343659Y230938*
X343545Y230797*
X343432Y230375*
Y230094*
X343545Y229672*
X343773Y229391*
X344114Y229250*
X344455*
X344795Y229391*
X344909Y229531*
X345023Y229813*
X357045Y221500D02*
X357159Y221781D01*
X357386Y222062*
X357386D02*
X357614Y222203D01*
X358068*
X358295Y222062*
X358295D02*
X358523Y221781D01*
X358636Y221500*
X358750Y221078*
Y220375*
X358636Y219953*
X358523Y219672*
X358295Y219391*
X358068Y219250*
X357614*
X357386Y219391*
X357159Y219672*
X357045Y219953*
X354886Y222203D02*
X356023Y220234D01*
X354318*
X354886Y222203D02*
Y219250D01*
X267500Y206955D02*
X267781Y206841D01*
X268063Y206614*
X268063D02*
X268203Y206386D01*
Y205932*
X268063Y205705*
X268063D02*
X267781Y205477D01*
X267500Y205364*
X267078Y205250*
X266375*
X265953Y205364*
X265672Y205477*
X265391Y205705*
X265250Y205932*
Y206386*
X265391Y206614*
X265672Y206841*
X265953Y206955*
X267500Y208091D02*
X267641D01*
X267922Y208205*
X268063Y208318*
X268063D02*
X268203Y208545D01*
Y209000*
X268063Y209227*
X268063D02*
X267922Y209341D01*
X267641Y209455*
X267359*
X267078Y209341*
X266656Y209114*
X265250Y207977*
Y209568*
X267781Y211955D02*
X268063Y211841D01*
X268063D02*
X268203Y211500D01*
Y211273*
X268063Y210932*
X268063D02*
X267641Y210705D01*
X266938Y210591*
X266938D02*
X266234D01*
X265672Y210705*
X265391Y210932*
X265250Y211273*
Y211386*
X265391Y211727*
X265672Y211955*
X266094Y212068*
X266234*
X266656Y211955*
X266938Y211727*
X266938D02*
X267078Y211386D01*
Y211273*
X266938Y210932*
X266938D02*
X266656Y210705D01*
X266234Y210591*
X371045Y200500D02*
X371159Y200781D01*
X371386Y201063*
X371386D02*
X371614Y201203D01*
X372068*
X372295Y201063*
X372295D02*
X372523Y200781D01*
X372636Y200500*
X372750Y200078*
Y199375*
X372636Y198953*
X372523Y198672*
X372295Y198391*
X372068Y198250*
X371614*
X371386Y198391*
X371159Y198672*
X371045Y198953*
X368659Y200781D02*
X368773Y201063D01*
X368773D02*
X369114Y201203D01*
X369341*
X369682Y201063*
X369682D02*
X369909Y200641D01*
X370023Y199938*
X370023D02*
Y199234D01*
X369909Y198672*
X369682Y198391*
X369341Y198250*
X369227*
X368886Y198391*
X368659Y198672*
X368545Y199094*
Y199234*
X368659Y199656*
X368886Y199938*
X368886D02*
X369227Y200078D01*
X369341*
X369682Y199938*
X369682D02*
X369909Y199656D01*
X370023Y199234*
X357045Y199500D02*
X357159Y199781D01*
X357386Y200063*
X357386D02*
X357614Y200203D01*
X358068*
X358295Y200063*
X358295D02*
X358523Y199781D01*
X358636Y199500*
X358750Y199078*
Y198375*
X358636Y197953*
X358523Y197672*
X358295Y197391*
X358068Y197250*
X357614*
X357386Y197391*
X357159Y197672*
X357045Y197953*
X354545Y200203D02*
X355682D01*
X355795Y198938*
X355795D02*
X355682Y199078D01*
X355341Y199219*
X355000*
X354659Y199078*
X354432Y198797*
X354318Y198375*
X354432Y198094*
X354545Y197672*
X354773Y197391*
X355114Y197250*
X355455*
X355795Y197391*
X355909Y197531*
X356023Y197813*
X390045Y199500D02*
X390159Y199781D01*
X390386Y200063*
X390386D02*
X390614Y200203D01*
X391068*
X391295Y200063*
X391295D02*
X391523Y199781D01*
X391636Y199500*
X391750Y199078*
Y198375*
X391636Y197953*
X391523Y197672*
X391295Y197391*
X391068Y197250*
X390614*
X390386Y197391*
X390159Y197672*
X390045Y197953*
X387432Y200203D02*
X388568Y197250D01*
X389023Y200203D02*
X387432D01*
X393045Y223500D02*
X393159Y223781D01*
X393386Y224063*
X393386D02*
X393614Y224203D01*
X394068*
X394295Y224063*
X394295D02*
X394523Y223781D01*
X394636Y223500*
X394750Y223078*
Y222375*
X394636Y221953*
X394523Y221672*
X394295Y221391*
X394068Y221250*
X393614*
X393386Y221391*
X393159Y221672*
X393045Y221953*
X391455Y224203D02*
X391795Y224063D01*
X391795D02*
X391909Y223781D01*
Y223500*
X391795Y223219*
X391568Y223078*
X391114Y222938*
X391114D02*
X390773Y222797D01*
X390545Y222516*
X390432Y222234*
Y221813*
X390432D02*
X390545Y221531D01*
X390659Y221391*
X391000Y221250*
X391455*
X391795Y221391*
X391909Y221531*
X392023Y221813*
X392023D02*
Y222234D01*
X391909Y222516*
X391682Y222797*
X391341Y222938*
X391341D02*
X390886Y223078D01*
X390659Y223219*
X390545Y223500*
Y223781*
X390659Y224063*
X390659D02*
X391000Y224203D01*
X391455*
X402045Y235500D02*
X402159Y235781D01*
X402386Y236063*
X402386D02*
X402614Y236203D01*
X403068*
X403295Y236063*
X403295D02*
X403523Y235781D01*
X403636Y235500*
X403750Y235078*
Y234375*
X403636Y233953*
X403523Y233672*
X403295Y233391*
X403068Y233250*
X402614*
X402386Y233391*
X402159Y233672*
X402045Y233953*
X401023Y235641D02*
X400795Y235781D01*
X400455Y236203*
Y233250*
X398750Y236203D02*
X399091Y236063D01*
X399091D02*
X399318Y235641D01*
X399432Y234938*
X399432D02*
Y234516D01*
X399318Y233813*
X399318D02*
X399091Y233391D01*
X398750Y233250*
X398523*
X398182Y233391*
X397955Y233813*
X397955D02*
X397841Y234516D01*
Y234938*
X397841D02*
X397955Y235641D01*
X398182Y236063*
X398182D02*
X398523Y236203D01*
X398750*
X242750Y125203D02*
Y122250D01*
Y125203D02*
X241727D01*
X241386Y125063*
X241273Y124922*
X241159Y124641*
Y124359*
X241273Y124078*
X241386Y123938*
X241727Y123797*
X242750*
X241955D02*
X241159Y122250D01*
X240136Y124641D02*
X239909Y124781D01*
X239568Y125203*
Y122250*
X241045Y130500D02*
X241159Y130781D01*
X241386Y131063*
X241386D02*
X241614Y131203D01*
X242068*
X242295Y131063*
X242295D02*
X242523Y130781D01*
X242636Y130500*
X242750Y130078*
Y129375*
X242636Y128953*
X242523Y128672*
X242295Y128391*
X242068Y128250*
X241614*
X241386Y128391*
X241159Y128672*
X241045Y128953*
X240023Y130641D02*
X239795Y130781D01*
X239455Y131203*
Y128250*
X238318Y130500D02*
Y130641D01*
X238205Y130922*
X238091Y131063*
X238091D02*
X237864Y131203D01*
X237409*
X237182Y131063*
X237182D02*
X237068Y130922D01*
X236955Y130641*
Y130359*
X237068Y130078*
X237295Y129656*
X238432Y128250*
X236841*
X279045Y267500D02*
X279159Y267781D01*
X279386Y268063*
X279386D02*
X279614Y268203D01*
X280068*
X280295Y268063*
X280295D02*
X280523Y267781D01*
X280636Y267500*
X280750Y267078*
Y266375*
X280636Y265953*
X280523Y265672*
X280295Y265391*
X280068Y265250*
X279614*
X279386Y265391*
X279159Y265672*
X279045Y265953*
X278023Y267641D02*
X277795Y267781D01*
X277455Y268203*
Y265250*
X275295Y268203D02*
X276432Y266234D01*
X274727*
X275295Y268203D02*
Y265250D01*
X403750Y242203D02*
Y239250D01*
X402386*
X401136Y242203D02*
X399886D01*
X400568Y241078*
X400227*
X400000Y240938*
X400000D02*
X399886Y240797D01*
X399773Y240375*
Y240094*
X399886Y239672*
X400114Y239391*
X400455Y239250*
X400795*
X401136Y239391*
X401250Y239531*
X401364Y239813*
X318045Y283500D02*
X318159Y283781D01*
X318386Y284063*
X318386D02*
X318614Y284203D01*
X319068*
X319295Y284063*
X319295D02*
X319523Y283781D01*
X319636Y283500*
X319750Y283078*
Y282375*
X319636Y281953*
X319523Y281672*
X319295Y281391*
X319068Y281250*
X318614*
X318386Y281391*
X318159Y281672*
X318045Y281953*
X317023Y283641D02*
X316795Y283781D01*
X316455Y284203*
Y281250*
X315205Y284203D02*
X313955D01*
X314636Y283078*
X314295*
X314068Y282938*
X314068D02*
X313955Y282797D01*
X313841Y282375*
Y282094*
X313955Y281672*
X314182Y281391*
X314523Y281250*
X314864*
X315205Y281391*
X315318Y281531*
X315432Y281813*
X270045Y172500D02*
X270159Y172781D01*
X270386Y173063*
X270386D02*
X270614Y173203D01*
X271068*
X271295Y173063*
X271295D02*
X271523Y172781D01*
X271636Y172500*
X271750Y172078*
Y171375*
X271636Y170953*
X271523Y170672*
X271295Y170391*
X271068Y170250*
X270614*
X270386Y170391*
X270159Y170672*
X270045Y170953*
X268909Y172500D02*
Y172641D01*
X268795Y172922*
X268682Y173063*
X268682D02*
X268455Y173203D01*
X268000*
X267773Y173063*
X267773D02*
X267659Y172922D01*
X267545Y172641*
Y172359*
X267659Y172078*
X267886Y171656*
X269023Y170250*
X267432*
X264818Y173203D02*
X265955Y170250D01*
X266409Y173203D02*
X264818D01*
X371068Y228203D02*
X371295Y228063D01*
X371523Y227781*
X371636Y227500*
X371750Y227078*
Y226375*
X371636Y225953*
X371523Y225672*
X371295Y225391*
X371068Y225250*
X370614*
X370386Y225391*
X370159Y225672*
X370045Y225953*
X369932Y226375*
Y227078*
X370045Y227500*
X370159Y227781*
X370386Y228063*
X370614Y228203*
X371068*
X370727Y225813D02*
X370045Y224969D01*
X368909Y227641D02*
X368682Y227781D01*
X368341Y228203*
Y225250*
X295068Y157203D02*
X295295Y157063D01*
X295295D02*
X295523Y156781D01*
X295636Y156500*
X295750Y156078*
Y155375*
X295636Y154953*
X295523Y154672*
X295295Y154391*
X295068Y154250*
X294614*
X294386Y154391*
X294159Y154672*
X294045Y154953*
X293932Y155375*
Y156078*
X294045Y156500*
X294159Y156781*
X294386Y157063*
X294386D02*
X294614Y157203D01*
X295068*
X294727Y154813D02*
X294045Y153969D01*
X292795Y156500D02*
Y156641D01*
X292682Y156922*
X292568Y157063*
X292568D02*
X292341Y157203D01*
X291886*
X291659Y157063*
X291659D02*
X291545Y156922D01*
X291432Y156641*
Y156359*
X291545Y156078*
X291773Y155656*
X292909Y154250*
X291318*
X232045Y154500D02*
X232159Y154781D01*
X232386Y155063*
X232386D02*
X232614Y155203D01*
X233068*
X233295Y155063*
X233295D02*
X233523Y154781D01*
X233636Y154500*
X233750Y154078*
Y153375*
X233636Y152953*
X233523Y152672*
X233295Y152391*
X233068Y152250*
X232614*
X232386Y152391*
X232159Y152672*
X232045Y152953*
X230795Y155203D02*
X229545D01*
X230227Y154078*
X229886*
X229659Y153938*
X229659D02*
X229545Y153797D01*
X229432Y153375*
Y153094*
X229545Y152672*
X229773Y152391*
X230114Y152250*
X230455*
X230795Y152391*
X230909Y152531*
X231023Y152813*
X228295Y154500D02*
Y154641D01*
X228182Y154922*
X228068Y155063*
X228068D02*
X227841Y155203D01*
X227386*
X227159Y155063*
X227159D02*
X227045Y154922D01*
X226932Y154641*
Y154359*
X227045Y154078*
X227273Y153656*
X228409Y152250*
X226818*
X293500Y211955D02*
X293781Y211841D01*
X294063Y211614*
X294203Y211386*
Y210932*
X294063Y210705*
X293781Y210477*
X293500Y210364*
X293078Y210250*
X292375*
X291953Y210364*
X291672Y210477*
X291391Y210705*
X291250Y210932*
Y211386*
X291391Y211614*
X291672Y211841*
X291953Y211955*
X294203Y213205D02*
Y214455D01*
X293078Y213773*
Y214114*
X292938Y214341*
X292797Y214455*
X292375Y214568*
X292094*
X291672Y214455*
X291391Y214227*
X291250Y213886*
Y213545*
X291391Y213205*
X291531Y213091*
X291813Y212977*
X294203Y217182D02*
X291250Y216045D01*
X294203Y215591D02*
Y217182D01*
X303045Y233500D02*
X303159Y233781D01*
X303386Y234063*
X303386D02*
X303614Y234203D01*
X304068*
X304295Y234063*
X304295D02*
X304523Y233781D01*
X304636Y233500*
X304750Y233078*
Y232375*
X304636Y231953*
X304523Y231672*
X304295Y231391*
X304068Y231250*
X303614*
X303386Y231391*
X303159Y231672*
X303045Y231953*
X301795Y234203D02*
X300545D01*
X301227Y233078*
X300886*
X300659Y232938*
X300659D02*
X300545Y232797D01*
X300432Y232375*
Y232094*
X300545Y231672*
X300773Y231391*
X301114Y231250*
X301455*
X301795Y231391*
X301909Y231531*
X302023Y231813*
X297932Y234203D02*
X299068D01*
X299182Y232938*
X299182D02*
X299068Y233078D01*
X298727Y233219*
X298386*
X298045Y233078*
X297818Y232797*
X297705Y232375*
X297818Y232094*
X297932Y231672*
X298159Y231391*
X298500Y231250*
X298841*
X299182Y231391*
X299295Y231531*
X299409Y231813*
X270045Y190500D02*
X270159Y190781D01*
X270386Y191063*
X270386D02*
X270614Y191203D01*
X271068*
X271295Y191063*
X271295D02*
X271523Y190781D01*
X271636Y190500*
X271750Y190078*
Y189375*
X271636Y188953*
X271523Y188672*
X271295Y188391*
X271068Y188250*
X270614*
X270386Y188391*
X270159Y188672*
X270045Y188953*
X268909Y190500D02*
Y190641D01*
X268795Y190922*
X268682Y191063*
X268682D02*
X268455Y191203D01*
X268000*
X267773Y191063*
X267773D02*
X267659Y190922D01*
X267545Y190641*
Y190359*
X267659Y190078*
X267886Y189656*
X269023Y188250*
X267432*
X265841Y191203D02*
X266182Y191063D01*
X266182D02*
X266295Y190781D01*
Y190500*
X266182Y190219*
X265955Y190078*
X265500Y189938*
X265500D02*
X265159Y189797D01*
X264932Y189516*
X264818Y189234*
Y188813*
X264818D02*
X264932Y188531D01*
X265045Y188391*
X265386Y188250*
X265841*
X266182Y188391*
X266295Y188531*
X266409Y188813*
X266409D02*
Y189234D01*
X266295Y189516*
X266068Y189797*
X265727Y189938*
X265727D02*
X265273Y190078D01*
X265045Y190219*
X264932Y190500*
Y190781*
X265045Y191063*
X265045D02*
X265386Y191203D01*
X265841*
X233045Y196500D02*
X233159Y196781D01*
X233386Y197063*
X233386D02*
X233614Y197203D01*
X234068*
X234295Y197063*
X234295D02*
X234523Y196781D01*
X234636Y196500*
X234750Y196078*
Y195375*
X234636Y194953*
X234523Y194672*
X234295Y194391*
X234068Y194250*
X233614*
X233386Y194391*
X233159Y194672*
X233045Y194953*
X231909Y196500D02*
Y196641D01*
X231795Y196922*
X231682Y197063*
X231682D02*
X231455Y197203D01*
X231000*
X230773Y197063*
X230773D02*
X230659Y196922D01*
X230545Y196641*
Y196359*
X230659Y196078*
X230886Y195656*
X232023Y194250*
X230432*
X227932Y196219D02*
X228045Y195797D01*
X228273Y195516*
X228614Y195375*
X228727*
X229068Y195516*
X229295Y195797*
X229409Y196219*
Y196359*
X229295Y196781*
X229068Y197063*
X229068D02*
X228727Y197203D01*
X228614*
X228273Y197063*
X228273D02*
X228045Y196781D01*
X227932Y196219*
Y195516*
X228045Y194813*
X228045D02*
X228273Y194391D01*
X228614Y194250*
X228841*
X229182Y194391*
X229295Y194672*
X233045Y172500D02*
X233159Y172781D01*
X233386Y173063*
X233386D02*
X233614Y173203D01*
X234068*
X234295Y173063*
X234295D02*
X234523Y172781D01*
X234636Y172500*
X234750Y172078*
Y171375*
X234636Y170953*
X234523Y170672*
X234295Y170391*
X234068Y170250*
X233614*
X233386Y170391*
X233159Y170672*
X233045Y170953*
X231795Y173203D02*
X230545D01*
X231227Y172078*
X230886*
X230659Y171938*
X230659D02*
X230545Y171797D01*
X230432Y171375*
Y171094*
X230545Y170672*
X230773Y170391*
X231114Y170250*
X231455*
X231795Y170391*
X231909Y170531*
X232023Y170813*
X228727Y173203D02*
X229068Y173063D01*
X229068D02*
X229295Y172641D01*
X229409Y171938*
X229409D02*
Y171516D01*
X229295Y170813*
X229295D02*
X229068Y170391D01*
X228727Y170250*
X228500*
X228159Y170391*
X227932Y170813*
X227932D02*
X227818Y171516D01*
Y171938*
X227818D02*
X227932Y172641D01*
X228159Y173063*
X228159D02*
X228500Y173203D01*
X228727*
X232045Y166500D02*
X232159Y166781D01*
X232386Y167063*
X232386D02*
X232614Y167203D01*
X233068*
X233295Y167063*
X233295D02*
X233523Y166781D01*
X233636Y166500*
X233750Y166078*
Y165375*
X233636Y164953*
X233523Y164672*
X233295Y164391*
X233068Y164250*
X232614*
X232386Y164391*
X232159Y164672*
X232045Y164953*
X230795Y167203D02*
X229545D01*
X230227Y166078*
X229886*
X229659Y165938*
X229659D02*
X229545Y165797D01*
X229432Y165375*
Y165094*
X229545Y164672*
X229773Y164391*
X230114Y164250*
X230455*
X230795Y164391*
X230909Y164531*
X231023Y164813*
X228409Y166641D02*
X228182Y166781D01*
X227841Y167203*
Y164250*
X305500Y211955D02*
X305781Y211841D01*
X306063Y211614*
X306203Y211386*
Y210932*
X306063Y210705*
X305781Y210477*
X305500Y210364*
X305078Y210250*
X304375*
X303953Y210364*
X303672Y210477*
X303391Y210705*
X303250Y210932*
Y211386*
X303391Y211614*
X303672Y211841*
X303953Y211955*
X306203Y213205D02*
Y214455D01*
X305078Y213773*
Y214114*
X304938Y214341*
X304797Y214455*
X304375Y214568*
X304094*
X303672Y214455*
X303391Y214227*
X303250Y213886*
Y213545*
X303391Y213205*
X303531Y213091*
X303813Y212977*
X305781Y216955D02*
X306063Y216841D01*
X306203Y216500*
Y216273*
X306063Y215932*
X305641Y215705*
X304938Y215591*
X304234*
X303672Y215705*
X303391Y215932*
X303250Y216273*
Y216386*
X303391Y216727*
X303672Y216955*
X304094Y217068*
X304234*
X304656Y216955*
X304938Y216727*
X305078Y216386*
Y216273*
X304938Y215932*
X304656Y215705*
X304234Y215591*
X298500Y211955D02*
X298781Y211841D01*
X299063Y211614*
X299203Y211386*
Y210932*
X299063Y210705*
X298781Y210477*
X298500Y210364*
X298078Y210250*
X297375*
X296953Y210364*
X296672Y210477*
X296391Y210705*
X296250Y210932*
Y211386*
X296391Y211614*
X296672Y211841*
X296953Y211955*
X299203Y213205D02*
Y214455D01*
X298078Y213773*
Y214114*
X297938Y214341*
X297797Y214455*
X297375Y214568*
X297094*
X296672Y214455*
X296391Y214227*
X296250Y213886*
Y213545*
X296391Y213205*
X296531Y213091*
X296813Y212977*
X299203Y216159D02*
X299063Y215818D01*
X298781Y215705*
X298500*
X298219Y215818*
X298078Y216045*
X297938Y216500*
X297797Y216841*
X297516Y217068*
X297234Y217182*
X296813*
X296531Y217068*
X296391Y216955*
X296250Y216614*
Y216159*
X296391Y215818*
X296531Y215705*
X296813Y215591*
X297234*
X297516Y215705*
X297797Y215932*
X297938Y216273*
X298078Y216727*
X298219Y216955*
X298500Y217068*
X298781*
X299063Y216955*
X299203Y216614*
Y216159*
X314500Y211955D02*
X314781Y211841D01*
X315063Y211614*
X315063D02*
X315203Y211386D01*
Y210932*
X315063Y210705*
X315063D02*
X314781Y210477D01*
X314500Y210364*
X314078Y210250*
X313375*
X312953Y210364*
X312672Y210477*
X312391Y210705*
X312250Y210932*
Y211386*
X312391Y211614*
X312672Y211841*
X312953Y211955*
X315203Y213205D02*
Y214455D01*
X314078Y213773*
Y214114*
X313938Y214341*
X313938D02*
X313797Y214455D01*
X313375Y214568*
X313094*
X312672Y214455*
X312391Y214227*
X312250Y213886*
Y213545*
X312391Y213205*
X312531Y213091*
X312813Y212977*
X314219Y217068D02*
X313797Y216955D01*
X313516Y216727*
X313375Y216386*
Y216273*
X313516Y215932*
X313797Y215705*
X314219Y215591*
X314359*
X314781Y215705*
X315063Y215932*
X315063D02*
X315203Y216273D01*
Y216386*
X315063Y216727*
X315063D02*
X314781Y216955D01*
X314219Y217068*
X313516*
X312813Y216955*
X312813D02*
X312391Y216727D01*
X312250Y216386*
Y216159*
X312391Y215818*
X312672Y215705*
X234750Y191203D02*
Y188250D01*
X233386*
X231227Y191203D02*
X232364Y189234D01*
X230659*
X231227Y191203D02*
Y188250D01*
X234750Y203203D02*
Y200250D01*
Y203203D02*
X233727D01*
X233386Y203063*
X233386D02*
X233273Y202922D01*
X233159Y202641*
Y202359*
X233273Y202078*
X233386Y201938*
X233386D02*
X233727Y201797D01*
X234750*
X233955D02*
X233159Y200250D01*
X231568Y203203D02*
X231909Y203063D01*
X231909D02*
X232023Y202781D01*
Y202500*
X231909Y202219*
X231682Y202078*
X231227Y201938*
X231227D02*
X230886Y201797D01*
X230659Y201516*
X230545Y201234*
Y200813*
X230545D02*
X230659Y200531D01*
X230773Y200391*
X231114Y200250*
X231568*
X231909Y200391*
X232023Y200531*
X232136Y200813*
X232136D02*
Y201234D01*
X232023Y201516*
X231795Y201797*
X231455Y201938*
X231455D02*
X231000Y202078D01*
X230773Y202219*
X230659Y202500*
Y202781*
X230773Y203063*
X230773D02*
X231114Y203203D01*
X231568*
X233750Y179203D02*
Y176250D01*
Y179203D02*
X232727D01*
X232386Y179063*
X232273Y178922*
X232159Y178641*
Y178359*
X232273Y178078*
X232386Y177938*
X232727Y177797*
X233750*
X232955D02*
X232159Y176250D01*
X229659Y178219D02*
X229773Y177797D01*
X230000Y177516*
X230341Y177375*
X230455*
X230795Y177516*
X231023Y177797*
X231136Y178219*
Y178359*
X231023Y178781*
X230795Y179063*
X230455Y179203*
X230341*
X230000Y179063*
X229773Y178781*
X229659Y178219*
Y177516*
X229773Y176813*
X230000Y176391*
X230341Y176250*
X230568*
X230909Y176391*
X231023Y176672*
X270045Y260500D02*
X270159Y260781D01*
X270386Y261063*
X270386D02*
X270614Y261203D01*
X271068*
X271295Y261063*
X271295D02*
X271523Y260781D01*
X271636Y260500*
X271750Y260078*
Y259375*
X271636Y258953*
X271523Y258672*
X271295Y258391*
X271068Y258250*
X270614*
X270386Y258391*
X270159Y258672*
X270045Y258953*
X267886Y261203D02*
X269023Y259234D01*
X267318*
X267886Y261203D02*
Y258250D01*
X266182Y260500D02*
Y260641D01*
X266068Y260922*
X265955Y261063*
X265955D02*
X265727Y261203D01*
X265273*
X265045Y261063*
X265045D02*
X264932Y260922D01*
X264818Y260641*
Y260359*
X264932Y260078*
X265159Y259656*
X266295Y258250*
X264705*
X232045Y266500D02*
X232159Y266781D01*
X232386Y267063*
X232386D02*
X232614Y267203D01*
X233068*
X233295Y267063*
X233295D02*
X233523Y266781D01*
X233636Y266500*
X233750Y266078*
Y265375*
X233636Y264953*
X233523Y264672*
X233295Y264391*
X233068Y264250*
X232614*
X232386Y264391*
X232159Y264672*
X232045Y264953*
X229886Y267203D02*
X231023Y265234D01*
X229318*
X229886Y267203D02*
Y264250D01*
X228068Y267203D02*
X226818D01*
X227500Y266078*
X227159*
X226932Y265938*
X226932D02*
X226818Y265797D01*
X226705Y265375*
Y265094*
X226818Y264672*
X227045Y264391*
X227386Y264250*
X227727*
X228068Y264391*
X228182Y264531*
X228295Y264813*
X232045Y242500D02*
X232159Y242781D01*
X232386Y243063*
X232386D02*
X232614Y243203D01*
X233068*
X233295Y243063*
X233295D02*
X233523Y242781D01*
X233636Y242500*
X233750Y242078*
Y241375*
X233636Y240953*
X233523Y240672*
X233295Y240391*
X233068Y240250*
X232614*
X232386Y240391*
X232159Y240672*
X232045Y240953*
X229886Y243203D02*
X231023Y241234D01*
X229318*
X229886Y243203D02*
Y240250D01*
X227159Y243203D02*
X228295Y241234D01*
X226591*
X227159Y243203D02*
Y240250D01*
X232045Y236500D02*
X232159Y236781D01*
X232386Y237063*
X232386D02*
X232614Y237203D01*
X233068*
X233295Y237063*
X233295D02*
X233523Y236781D01*
X233636Y236500*
X233750Y236078*
Y235375*
X233636Y234953*
X233523Y234672*
X233295Y234391*
X233068Y234250*
X232614*
X232386Y234391*
X232159Y234672*
X232045Y234953*
X229886Y237203D02*
X231023Y235234D01*
X229318*
X229886Y237203D02*
Y234250D01*
X226818Y237203D02*
X227955D01*
X228068Y235938*
X228068D02*
X227955Y236078D01*
X227614Y236219*
X227273*
X226932Y236078*
X226705Y235797*
X226591Y235375*
X226705Y235094*
X226818Y234672*
X227045Y234391*
X227386Y234250*
X227727*
X228068Y234391*
X228182Y234531*
X228295Y234813*
X214500Y172955D02*
X214781Y172841D01*
X215063Y172614*
X215063D02*
X215203Y172386D01*
Y171932*
X215063Y171705*
X215063D02*
X214781Y171477D01*
X214500Y171364*
X214078Y171250*
X213375*
X212953Y171364*
X212672Y171477*
X212391Y171705*
X212250Y171932*
Y172386*
X212391Y172614*
X212672Y172841*
X212953Y172955*
X215203Y175455D02*
Y174318D01*
X213938Y174205*
X213938D02*
X214078Y174318D01*
X214219Y174659*
Y175000*
X214078Y175341*
X213797Y175568*
X213375Y175682*
X213094Y175568*
X212672Y175455*
X212391Y175227*
X212250Y174886*
Y174545*
X212391Y174205*
X212531Y174091*
X212813Y173977*
X215203Y177386D02*
X215063Y177045D01*
X215063D02*
X214641Y176818D01*
X213938Y176705*
X213938D02*
X213516D01*
X212813Y176818*
X212813D02*
X212391Y177045D01*
X212250Y177386*
Y177614*
X212391Y177955*
X212813Y178182*
X212813D02*
X213516Y178295D01*
X213938*
X213938D02*
X214641Y178182D01*
X215063Y177955*
X215063D02*
X215203Y177614D01*
Y177386*
X214500Y185955D02*
X214781Y185841D01*
X215062Y185614*
X215062D02*
X215203Y185386D01*
Y184932*
X215062Y184705*
X215062D02*
X214781Y184477D01*
X214500Y184364*
X214078Y184250*
X213375*
X212953Y184364*
X212672Y184477*
X212391Y184705*
X212250Y184932*
Y185386*
X212391Y185614*
X212672Y185841*
X212953Y185955*
X215203Y188114D02*
X213234Y186977D01*
Y188682*
X215203Y188114D02*
X212250D01*
X214219Y191182D02*
X213797Y191068D01*
X213516Y190841*
X213375Y190500*
Y190386*
X213516Y190045*
X213797Y189818*
X214219Y189705*
X214359*
X214781Y189818*
X215062Y190045*
X215062D02*
X215203Y190386D01*
Y190500*
X215062Y190841*
X215062D02*
X214781Y191068D01*
X214219Y191182*
X213516*
X212812Y191068*
X212812D02*
X212391Y190841D01*
X212250Y190500*
Y190273*
X212391Y189932*
X212672Y189818*
X233750Y261203D02*
Y258250D01*
X232386*
X230000Y260781D02*
X230114Y261063D01*
X230455Y261203*
X230682*
X231023Y261063*
X231250Y260641*
X231364Y259938*
Y259234*
X231250Y258672*
X231023Y258391*
X230682Y258250*
X230568*
X230227Y258391*
X230000Y258672*
X229886Y259094*
Y259234*
X230000Y259656*
X230227Y259938*
X230568Y260078*
X230682*
X231023Y259938*
X231250Y259656*
X231364Y259234*
X233750Y220203D02*
Y217250D01*
X232386*
X229773Y220203D02*
X230909Y217250D01*
X231364Y220203D02*
X229773D01*
X233750Y273203D02*
Y270250D01*
Y273203D02*
X232727D01*
X232386Y273063*
X232386D02*
X232273Y272922D01*
X232159Y272641*
Y272359*
X232273Y272078*
X232386Y271938*
X232386D02*
X232727Y271797D01*
X233750*
X232955D02*
X232159Y270250D01*
X231136Y272641D02*
X230909Y272781D01*
X230568Y273203*
Y270250*
X228864Y273203D02*
X229205Y273063D01*
X229205D02*
X229432Y272641D01*
X229545Y271938*
X229545D02*
Y271516D01*
X229432Y270813*
X229432D02*
X229205Y270391D01*
X228864Y270250*
X228636*
X228295Y270391*
X228068Y270813*
X228068D02*
X227955Y271516D01*
Y271938*
X227955D02*
X228068Y272641D01*
X228295Y273063*
X228295D02*
X228636Y273203D01*
X228864*
X233750Y249203D02*
Y246250D01*
Y249203D02*
X232727D01*
X232386Y249063*
X232273Y248922*
X232159Y248641*
Y248359*
X232273Y248078*
X232386Y247938*
X232727Y247797*
X233750*
X232955D02*
X232159Y246250D01*
X231136Y248641D02*
X230909Y248781D01*
X230568Y249203*
Y246250*
X229545Y248641D02*
X229318Y248781D01*
X228977Y249203*
Y246250*
X270045Y278500D02*
X270159Y278781D01*
X270386Y279063*
X270386D02*
X270614Y279203D01*
X271068*
X271295Y279063*
X271295D02*
X271523Y278781D01*
X271636Y278500*
X271750Y278078*
Y277375*
X271636Y276953*
X271523Y276672*
X271295Y276391*
X271068Y276250*
X270614*
X270386Y276391*
X270159Y276672*
X270045Y276953*
X267886Y279203D02*
X269023Y277234D01*
X267318*
X267886Y279203D02*
Y276250D01*
X265614Y279203D02*
X265955Y279063D01*
X265955D02*
X266182Y278641D01*
X266295Y277938*
X266295D02*
Y277516D01*
X266182Y276813*
X266182D02*
X265955Y276391D01*
X265614Y276250*
X265386*
X265045Y276391*
X264818Y276813*
X264818D02*
X264705Y277516D01*
Y277938*
X264705D02*
X264818Y278641D01*
X265045Y279063*
X265045D02*
X265386Y279203D01*
X265614*
X270045Y242500D02*
X270159Y242781D01*
X270386Y243063*
X270386D02*
X270614Y243203D01*
X271068*
X271295Y243063*
X271295D02*
X271523Y242781D01*
X271636Y242500*
X271750Y242078*
Y241375*
X271636Y240953*
X271523Y240672*
X271295Y240391*
X271068Y240250*
X270614*
X270386Y240391*
X270159Y240672*
X270045Y240953*
X267886Y243203D02*
X269023Y241234D01*
X267318*
X267886Y243203D02*
Y240250D01*
X266295Y242641D02*
X266068Y242781D01*
X265727Y243203*
Y240250*
X233750Y279203D02*
Y276250D01*
Y279203D02*
X232727D01*
X232386Y279063*
X232273Y278922*
X232159Y278641*
Y278359*
X232273Y278078*
X232386Y277938*
X232727Y277797*
X233750*
X232955D02*
X232159Y276250D01*
X231023Y278500D02*
Y278641D01*
X230909Y278922*
X230795Y279063*
X230568Y279203*
X230114*
X229886Y279063*
X229773Y278922*
X229659Y278641*
Y278359*
X229773Y278078*
X230000Y277656*
X231136Y276250*
X229545*
X228409Y278500D02*
Y278641D01*
X228295Y278922*
X228182Y279063*
X227955Y279203*
X227500*
X227273Y279063*
X227159Y278922*
X227045Y278641*
Y278359*
X227159Y278078*
X227386Y277656*
X228523Y276250*
X226932*
X271750Y237203D02*
Y234250D01*
Y237203D02*
X270727D01*
X270386Y237063*
X270386D02*
X270273Y236922D01*
X270159Y236641*
Y236359*
X270273Y236078*
X270386Y235938*
X270386D02*
X270727Y235797D01*
X271750*
X270955D02*
X270159Y234250D01*
X269023Y236500D02*
Y236641D01*
X268909Y236922*
X268795Y237063*
X268795D02*
X268568Y237203D01*
X268114*
X267886Y237063*
X267886D02*
X267773Y236922D01*
X267659Y236641*
Y236359*
X267773Y236078*
X268000Y235656*
X269136Y234250*
X267545*
X266295Y237203D02*
X265045D01*
X265727Y236078*
X265386*
X265159Y235938*
X265159D02*
X265045Y235797D01*
X264932Y235375*
Y235094*
X265045Y234672*
X265273Y234391*
X265614Y234250*
X265955*
X266295Y234391*
X266409Y234531*
X266523Y234813*
X271750Y231203D02*
Y228250D01*
Y231203D02*
X270727D01*
X270386Y231063*
X270386D02*
X270273Y230922D01*
X270159Y230641*
Y230359*
X270273Y230078*
X270386Y229938*
X270386D02*
X270727Y229797D01*
X271750*
X270955D02*
X270159Y228250D01*
X269023Y230500D02*
Y230641D01*
X268909Y230922*
X268795Y231063*
X268795D02*
X268568Y231203D01*
X268114*
X267886Y231063*
X267886D02*
X267773Y230922D01*
X267659Y230641*
Y230359*
X267773Y230078*
X268000Y229656*
X269136Y228250*
X267545*
X265386Y231203D02*
X266523Y229234D01*
X264818*
X265386Y231203D02*
Y228250D01*
X271750Y225203D02*
Y222250D01*
Y225203D02*
X270727D01*
X270386Y225063*
X270386D02*
X270273Y224922D01*
X270159Y224641*
Y224359*
X270273Y224078*
X270386Y223938*
X270386D02*
X270727Y223797D01*
X271750*
X270955D02*
X270159Y222250D01*
X269023Y224500D02*
Y224641D01*
X268909Y224922*
X268795Y225063*
X268795D02*
X268568Y225203D01*
X268114*
X267886Y225063*
X267886D02*
X267773Y224922D01*
X267659Y224641*
Y224359*
X267773Y224078*
X268000Y223656*
X269136Y222250*
X267545*
X265045Y225203D02*
X266182D01*
X266295Y223938*
X266295D02*
X266182Y224078D01*
X265841Y224219*
X265500*
X265159Y224078*
X264932Y223797*
X264818Y223375*
X264932Y223094*
X265045Y222672*
X265273Y222391*
X265614Y222250*
X265955*
X266295Y222391*
X266409Y222531*
X266523Y222813*
X271750Y218203D02*
Y215250D01*
Y218203D02*
X270727D01*
X270386Y218063*
X270386D02*
X270273Y217922D01*
X270159Y217641*
Y217359*
X270273Y217078*
X270386Y216938*
X270386D02*
X270727Y216797D01*
X271750*
X270955D02*
X270159Y215250D01*
X269023Y217500D02*
Y217641D01*
X268909Y217922*
X268795Y218063*
X268795D02*
X268568Y218203D01*
X268114*
X267886Y218063*
X267886D02*
X267773Y217922D01*
X267659Y217641*
Y217359*
X267773Y217078*
X268000Y216656*
X269136Y215250*
X267545*
X265159Y217781D02*
X265273Y218063D01*
X265273D02*
X265614Y218203D01*
X265841*
X266182Y218063*
X266182D02*
X266409Y217641D01*
X266523Y216938*
X266523D02*
Y216234D01*
X266409Y215672*
X266182Y215391*
X265841Y215250*
X265727*
X265386Y215391*
X265159Y215672*
X265045Y216094*
Y216234*
X265159Y216656*
X265386Y216938*
X265386D02*
X265727Y217078D01*
X265841*
X266182Y216938*
X266182D02*
X266409Y216656D01*
X266523Y216234*
X271750Y273203D02*
Y270250D01*
Y273203D02*
X270727D01*
X270386Y273063*
X270386D02*
X270273Y272922D01*
X270159Y272641*
Y272359*
X270273Y272078*
X270386Y271938*
X270386D02*
X270727Y271797D01*
X271750*
X270955D02*
X270159Y270250D01*
X269023Y272500D02*
Y272641D01*
X268909Y272922*
X268795Y273063*
X268795D02*
X268568Y273203D01*
X268114*
X267886Y273063*
X267886D02*
X267773Y272922D01*
X267659Y272641*
Y272359*
X267773Y272078*
X268000Y271656*
X269136Y270250*
X267545*
X264932Y273203D02*
X266068Y270250D01*
X266523Y273203D02*
X264932D01*
X271750Y267203D02*
Y264250D01*
Y267203D02*
X270727D01*
X270386Y267063*
X270386D02*
X270273Y266922D01*
X270159Y266641*
Y266359*
X270273Y266078*
X270386Y265938*
X270386D02*
X270727Y265797D01*
X271750*
X270955D02*
X270159Y264250D01*
X269023Y266500D02*
Y266641D01*
X268909Y266922*
X268795Y267063*
X268795D02*
X268568Y267203D01*
X268114*
X267886Y267063*
X267886D02*
X267773Y266922D01*
X267659Y266641*
Y266359*
X267773Y266078*
X268000Y265656*
X269136Y264250*
X267545*
X265955Y267203D02*
X266295Y267063D01*
X266295D02*
X266409Y266781D01*
Y266500*
X266295Y266219*
X266068Y266078*
X265614Y265938*
X265614D02*
X265273Y265797D01*
X265045Y265516*
X264932Y265234*
Y264813*
X264932D02*
X265045Y264531D01*
X265159Y264391*
X265500Y264250*
X265955*
X266295Y264391*
X266409Y264531*
X266523Y264813*
X266523D02*
Y265234D01*
X266409Y265516*
X266182Y265797*
X265841Y265938*
X265841D02*
X265386Y266078D01*
X265159Y266219*
X265045Y266500*
Y266781*
X265159Y267063*
X265159D02*
X265500Y267203D01*
X265955*
X271750Y255203D02*
Y252250D01*
Y255203D02*
X270727D01*
X270386Y255063*
X270386D02*
X270273Y254922D01*
X270159Y254641*
Y254359*
X270273Y254078*
X270386Y253938*
X270386D02*
X270727Y253797D01*
X271750*
X270955D02*
X270159Y252250D01*
X269023Y254500D02*
Y254641D01*
X268909Y254922*
X268795Y255063*
X268795D02*
X268568Y255203D01*
X268114*
X267886Y255063*
X267886D02*
X267773Y254922D01*
X267659Y254641*
Y254359*
X267773Y254078*
X268000Y253656*
X269136Y252250*
X267545*
X265045Y254219D02*
X265159Y253797D01*
X265386Y253516*
X265727Y253375*
X265841*
X266182Y253516*
X266409Y253797*
X266523Y254219*
Y254359*
X266409Y254781*
X266182Y255063*
X266182D02*
X265841Y255203D01*
X265727*
X265386Y255063*
X265386D02*
X265159Y254781D01*
X265045Y254219*
Y253516*
X265159Y252813*
X265159D02*
X265386Y252391D01*
X265727Y252250*
X265955*
X266295Y252391*
X266409Y252672*
X271750Y249203D02*
Y246250D01*
Y249203D02*
X270727D01*
X270386Y249063*
X270386D02*
X270273Y248922D01*
X270159Y248641*
Y248359*
X270273Y248078*
X270386Y247938*
X270386D02*
X270727Y247797D01*
X271750*
X270955D02*
X270159Y246250D01*
X268909Y249203D02*
X267659D01*
X268341Y248078*
X268000*
X267773Y247938*
X267773D02*
X267659Y247797D01*
X267545Y247375*
Y247094*
X267659Y246672*
X267886Y246391*
X268227Y246250*
X268568*
X268909Y246391*
X269023Y246531*
X269136Y246813*
X265841Y249203D02*
X266182Y249063D01*
X266182D02*
X266409Y248641D01*
X266523Y247938*
X266523D02*
Y247516D01*
X266409Y246813*
X266409D02*
X266182Y246391D01*
X265841Y246250*
X265614*
X265273Y246391*
X265045Y246813*
X265045D02*
X264932Y247516D01*
Y247938*
X264932D02*
X265045Y248641D01*
X265273Y249063*
X265273D02*
X265614Y249203D01*
X265841*
X234750Y209203D02*
Y206250D01*
Y209203D02*
X233727D01*
X233386Y209063*
X233273Y208922*
X233159Y208641*
Y208359*
X233273Y208078*
X233386Y207938*
X233727Y207797*
X234750*
X233955D02*
X233159Y206250D01*
X231909Y209203D02*
X230659D01*
X231341Y208078*
X231000*
X230773Y207938*
X230659Y207797*
X230545Y207375*
Y207094*
X230659Y206672*
X230886Y206391*
X231227Y206250*
X231568*
X231909Y206391*
X232023Y206531*
X232136Y206813*
X229523Y208641D02*
X229295Y208781D01*
X228955Y209203*
Y206250*
X271750Y167203D02*
Y164250D01*
Y167203D02*
X270727D01*
X270386Y167063*
X270386D02*
X270273Y166922D01*
X270159Y166641*
Y166359*
X270273Y166078*
X270386Y165938*
X270386D02*
X270727Y165797D01*
X271750*
X270955D02*
X270159Y164250D01*
X268909Y167203D02*
X267659D01*
X268341Y166078*
X268000*
X267773Y165938*
X267773D02*
X267659Y165797D01*
X267545Y165375*
Y165094*
X267659Y164672*
X267886Y164391*
X268227Y164250*
X268568*
X268909Y164391*
X269023Y164531*
X269136Y164813*
X266409Y166500D02*
Y166641D01*
X266295Y166922*
X266182Y167063*
X266182D02*
X265955Y167203D01*
X265500*
X265273Y167063*
X265273D02*
X265159Y166922D01*
X265045Y166641*
Y166359*
X265159Y166078*
X265386Y165656*
X266523Y164250*
X264932*
X271750Y161203D02*
Y158250D01*
Y161203D02*
X270727D01*
X270386Y161063*
X270386D02*
X270273Y160922D01*
X270159Y160641*
Y160359*
X270273Y160078*
X270386Y159938*
X270386D02*
X270727Y159797D01*
X271750*
X270955D02*
X270159Y158250D01*
X268909Y161203D02*
X267659D01*
X268341Y160078*
X268000*
X267773Y159938*
X267773D02*
X267659Y159797D01*
X267545Y159375*
Y159094*
X267659Y158672*
X267886Y158391*
X268227Y158250*
X268568*
X268909Y158391*
X269023Y158531*
X269136Y158813*
X266295Y161203D02*
X265045D01*
X265727Y160078*
X265386*
X265159Y159938*
X265159D02*
X265045Y159797D01*
X264932Y159375*
Y159094*
X265045Y158672*
X265273Y158391*
X265614Y158250*
X265955*
X266295Y158391*
X266409Y158531*
X266523Y158813*
X271750Y155203D02*
Y152250D01*
Y155203D02*
X270727D01*
X270386Y155063*
X270386D02*
X270273Y154922D01*
X270159Y154641*
Y154359*
X270273Y154078*
X270386Y153938*
X270386D02*
X270727Y153797D01*
X271750*
X270955D02*
X270159Y152250D01*
X268909Y155203D02*
X267659D01*
X268341Y154078*
X268000*
X267773Y153938*
X267773D02*
X267659Y153797D01*
X267545Y153375*
Y153094*
X267659Y152672*
X267886Y152391*
X268227Y152250*
X268568*
X268909Y152391*
X269023Y152531*
X269136Y152813*
X265386Y155203D02*
X266523Y153234D01*
X264818*
X265386Y155203D02*
Y152250D01*
X271750Y149203D02*
Y146250D01*
Y149203D02*
X270727D01*
X270386Y149063*
X270386D02*
X270273Y148922D01*
X270159Y148641*
Y148359*
X270273Y148078*
X270386Y147938*
X270386D02*
X270727Y147797D01*
X271750*
X270955D02*
X270159Y146250D01*
X268909Y149203D02*
X267659D01*
X268341Y148078*
X268000*
X267773Y147938*
X267773D02*
X267659Y147797D01*
X267545Y147375*
Y147094*
X267659Y146672*
X267886Y146391*
X268227Y146250*
X268568*
X268909Y146391*
X269023Y146531*
X269136Y146813*
X265045Y149203D02*
X266182D01*
X266295Y147938*
X266295D02*
X266182Y148078D01*
X265841Y148219*
X265500*
X265159Y148078*
X264932Y147797*
X264818Y147375*
X264932Y147094*
X265045Y146672*
X265273Y146391*
X265614Y146250*
X265955*
X266295Y146391*
X266409Y146531*
X266523Y146813*
X271750Y202203D02*
Y199250D01*
Y202203D02*
X270727D01*
X270386Y202063*
X270386D02*
X270273Y201922D01*
X270159Y201641*
Y201359*
X270273Y201078*
X270386Y200938*
X270386D02*
X270727Y200797D01*
X271750*
X270955D02*
X270159Y199250D01*
X268909Y202203D02*
X267659D01*
X268341Y201078*
X268000*
X267773Y200938*
X267773D02*
X267659Y200797D01*
X267545Y200375*
Y200094*
X267659Y199672*
X267886Y199391*
X268227Y199250*
X268568*
X268909Y199391*
X269023Y199531*
X269136Y199813*
X265159Y201781D02*
X265273Y202063D01*
X265273D02*
X265614Y202203D01*
X265841*
X266182Y202063*
X266182D02*
X266409Y201641D01*
X266523Y200938*
X266523D02*
Y200234D01*
X266409Y199672*
X266182Y199391*
X265841Y199250*
X265727*
X265386Y199391*
X265159Y199672*
X265045Y200094*
Y200234*
X265159Y200656*
X265386Y200938*
X265386D02*
X265727Y201078D01*
X265841*
X266182Y200938*
X266182D02*
X266409Y200656D01*
X266523Y200234*
X286203Y178250D02*
X283250D01*
X286203D02*
Y179273D01*
X286062Y179614*
X286062D02*
X285922Y179727D01*
X285641Y179841*
X285359*
X285078Y179727*
X284937Y179614*
X284937D02*
X284797Y179273D01*
Y178250*
Y179045D02*
X283250Y179841D01*
X286203Y182000D02*
X284234Y180864D01*
Y182568*
X286203Y182000D02*
X283250D01*
X286203Y185182D02*
X283250Y184045D01*
X286203Y183591D02*
Y185182D01*
X271750Y197203D02*
Y194250D01*
Y197203D02*
X270727D01*
X270386Y197063*
X270386D02*
X270273Y196922D01*
X270159Y196641*
Y196359*
X270273Y196078*
X270386Y195938*
X270386D02*
X270727Y195797D01*
X271750*
X270955D02*
X270159Y194250D01*
X268909Y197203D02*
X267659D01*
X268341Y196078*
X268000*
X267773Y195938*
X267773D02*
X267659Y195797D01*
X267545Y195375*
Y195094*
X267659Y194672*
X267886Y194391*
X268227Y194250*
X268568*
X268909Y194391*
X269023Y194531*
X269136Y194813*
X264932Y197203D02*
X266068Y194250D01*
X266523Y197203D02*
X264932D01*
X286203Y193250D02*
X283250D01*
X286203D02*
Y194273D01*
X286062Y194614*
X286062D02*
X285922Y194727D01*
X285641Y194841*
X285359*
X285078Y194727*
X284937Y194614*
X284937D02*
X284797Y194273D01*
Y193250*
Y194045D02*
X283250Y194841D01*
X286203Y197000D02*
X284234Y195864D01*
Y197568*
X286203Y197000D02*
X283250D01*
X286203Y199159D02*
X286062Y198818D01*
X286062D02*
X285781Y198705D01*
X285500*
X285219Y198818*
X285078Y199045*
X284937Y199500*
X284937D02*
X284797Y199841D01*
X284516Y200068*
X284234Y200182*
X283812*
X283812D02*
X283531Y200068D01*
X283391Y199955*
X283250Y199614*
Y199159*
X283391Y198818*
X283531Y198705*
X283812Y198591*
X283812D02*
X284234D01*
X284516Y198705*
X284797Y198932*
X284937Y199273*
X284937D02*
X285078Y199727D01*
X285219Y199955*
X285500Y200068*
X285781*
X286062Y199955*
X286062D02*
X286203Y199614D01*
Y199159*
X271750Y185203D02*
Y182250D01*
Y185203D02*
X270727D01*
X270386Y185063*
X270386D02*
X270273Y184922D01*
X270159Y184641*
Y184359*
X270273Y184078*
X270386Y183938*
X270386D02*
X270727Y183797D01*
X271750*
X270955D02*
X270159Y182250D01*
X268909Y185203D02*
X267659D01*
X268341Y184078*
X268000*
X267773Y183938*
X267773D02*
X267659Y183797D01*
X267545Y183375*
Y183094*
X267659Y182672*
X267886Y182391*
X268227Y182250*
X268568*
X268909Y182391*
X269023Y182531*
X269136Y182813*
X265955Y185203D02*
X266295Y185063D01*
X266295D02*
X266409Y184781D01*
Y184500*
X266295Y184219*
X266068Y184078*
X265614Y183938*
X265614D02*
X265273Y183797D01*
X265045Y183516*
X264932Y183234*
Y182813*
X264932D02*
X265045Y182531D01*
X265159Y182391*
X265500Y182250*
X265955*
X266295Y182391*
X266409Y182531*
X266523Y182813*
X266523D02*
Y183234D01*
X266409Y183516*
X266182Y183797*
X265841Y183938*
X265841D02*
X265386Y184078D01*
X265159Y184219*
X265045Y184500*
Y184781*
X265159Y185063*
X265159D02*
X265500Y185203D01*
X265955*
X284750Y214203D02*
Y211250D01*
Y214203D02*
X283727D01*
X283386Y214062*
X283386D02*
X283273Y213922D01*
X283159Y213641*
Y213359*
X283273Y213078*
X283386Y212937*
X283386D02*
X283727Y212797D01*
X284750*
X283955D02*
X283159Y211250D01*
X281000Y214203D02*
X282136Y212234D01*
X280432*
X281000Y214203D02*
Y211250D01*
X277932Y213219D02*
X278045Y212797D01*
X278273Y212516*
X278614Y212375*
X278727*
X279068Y212516*
X279295Y212797*
X279409Y213219*
Y213359*
X279295Y213781*
X279068Y214062*
X279068D02*
X278727Y214203D01*
X278614*
X278273Y214062*
X278273D02*
X278045Y213781D01*
X277932Y213219*
Y212516*
X278045Y211812*
X278045D02*
X278273Y211391D01*
X278614Y211250*
X278841*
X279182Y211391*
X279295Y211672*
X271750Y179203D02*
Y176250D01*
Y179203D02*
X270727D01*
X270386Y179063*
X270386D02*
X270273Y178922D01*
X270159Y178641*
Y178359*
X270273Y178078*
X270386Y177938*
X270386D02*
X270727Y177797D01*
X271750*
X270955D02*
X270159Y176250D01*
X268909Y179203D02*
X267659D01*
X268341Y178078*
X268000*
X267773Y177938*
X267773D02*
X267659Y177797D01*
X267545Y177375*
Y177094*
X267659Y176672*
X267886Y176391*
X268227Y176250*
X268568*
X268909Y176391*
X269023Y176531*
X269136Y176813*
X265045Y178219D02*
X265159Y177797D01*
X265386Y177516*
X265727Y177375*
X265841*
X266182Y177516*
X266409Y177797*
X266523Y178219*
Y178359*
X266409Y178781*
X266182Y179063*
X266182D02*
X265841Y179203D01*
X265727*
X265386Y179063*
X265386D02*
X265159Y178781D01*
X265045Y178219*
Y177516*
X265159Y176813*
X265159D02*
X265386Y176391D01*
X265727Y176250*
X265955*
X266295Y176391*
X266409Y176672*
X312203Y180250D02*
X309250D01*
X312203D02*
Y181273D01*
X312062Y181614*
X312062D02*
X311922Y181727D01*
X311641Y181841*
X311359*
X311078Y181727*
X310937Y181614*
X310937D02*
X310797Y181273D01*
Y180250*
Y181045D02*
X309250Y181841D01*
X312203Y184341D02*
Y183205D01*
X310937Y183091*
X310937D02*
X311078Y183205D01*
X311219Y183545*
Y183886*
X311078Y184227*
X310797Y184455*
X310375Y184568*
X310094Y184455*
X309672Y184341*
X309391Y184114*
X309250Y183773*
Y183432*
X309391Y183091*
X309531Y182977*
X309812Y182864*
X312203Y186273D02*
X312062Y185932D01*
X312062D02*
X311641Y185705D01*
X310937Y185591*
X310937D02*
X310516D01*
X309812Y185705*
X309812D02*
X309391Y185932D01*
X309250Y186273*
Y186500*
X309391Y186841*
X309812Y187068*
X309812D02*
X310516Y187182D01*
X310937*
X310937D02*
X311641Y187068D01*
X312062Y186841*
X312062D02*
X312203Y186500D01*
Y186273*
X301203Y170250D02*
X298250D01*
X301203D02*
Y171273D01*
X301063Y171614*
X301063D02*
X300922Y171727D01*
X300641Y171841*
X300359*
X300078Y171727*
X299938Y171614*
X299938D02*
X299797Y171273D01*
Y170250*
Y171045D02*
X298250Y171841D01*
X301203Y174341D02*
Y173205D01*
X299938Y173091*
X299938D02*
X300078Y173205D01*
X300219Y173545*
Y173886*
X300078Y174227*
X299797Y174455*
X299375Y174568*
X299094Y174455*
X298672Y174341*
X298391Y174114*
X298250Y173773*
Y173432*
X298391Y173091*
X298531Y172977*
X298813Y172864*
X300641Y175591D02*
X300781Y175818D01*
X301203Y176159*
X298250*
X402045Y247500D02*
X402159Y247781D01*
X402386Y248063*
X402386D02*
X402614Y248203D01*
X403068*
X403295Y248063*
X403295D02*
X403523Y247781D01*
X403636Y247500*
X403750Y247078*
Y246375*
X403636Y245953*
X403523Y245672*
X403295Y245391*
X403068Y245250*
X402614*
X402386Y245391*
X402159Y245672*
X402045Y245953*
X399545Y247219D02*
X399659Y246797D01*
X399886Y246516*
X400227Y246375*
X400341*
X400682Y246516*
X400909Y246797*
X401023Y247219*
Y247359*
X400909Y247781*
X400682Y248063*
X400682D02*
X400341Y248203D01*
X400227*
X399886Y248063*
X399886D02*
X399659Y247781D01*
X399545Y247219*
Y246516*
X399659Y245813*
X399659D02*
X399886Y245391D01*
X400227Y245250*
X400455*
X400795Y245391*
X400909Y245672*
X201500Y247955D02*
X201781Y247841D01*
X202063Y247614*
X202063D02*
X202203Y247386D01*
Y246932*
X202063Y246705*
X202063D02*
X201781Y246477D01*
X201500Y246364*
X201078Y246250*
X200375*
X199953Y246364*
X199672Y246477*
X199391Y246705*
X199250Y246932*
Y247386*
X199391Y247614*
X199672Y247841*
X199953Y247955*
X202203Y250114D02*
X200234Y248977D01*
Y250682*
X202203Y250114D02*
X199250D01*
X202203Y252273D02*
X202063Y251932D01*
X202063D02*
X201781Y251818D01*
X201500*
X201219Y251932*
X201078Y252159*
X200938Y252614*
X200938D02*
X200797Y252955D01*
X200516Y253182*
X200234Y253295*
X199813*
X199813D02*
X199531Y253182D01*
X199391Y253068*
X199250Y252727*
Y252273*
X199391Y251932*
X199531Y251818*
X199813Y251705*
X199813D02*
X200234D01*
X200516Y251818*
X200797Y252045*
X200938Y252386*
X200938D02*
X201078Y252841D01*
X201219Y253068*
X201500Y253182*
X201781*
X202063Y253068*
X202063D02*
X202203Y252727D01*
Y252273*
X214500Y265955D02*
X214781Y265841D01*
X215063Y265614*
X215063D02*
X215203Y265386D01*
Y264932*
X215063Y264705*
X215063D02*
X214781Y264477D01*
X214500Y264364*
X214078Y264250*
X213375*
X212953Y264364*
X212672Y264477*
X212391Y264705*
X212250Y264932*
Y265386*
X212391Y265614*
X212672Y265841*
X212953Y265955*
X215203Y268114D02*
X213234Y266977D01*
Y268682*
X215203Y268114D02*
X212250D01*
X215203Y271295D02*
X212250Y270159D01*
X215203Y269705D02*
Y271295D01*
X232045Y224500D02*
X232159Y224781D01*
X232386Y225063*
X232386D02*
X232614Y225203D01*
X233068*
X233295Y225063*
X233295D02*
X233523Y224781D01*
X233636Y224500*
X233750Y224078*
Y223375*
X233636Y222953*
X233523Y222672*
X233295Y222391*
X233068Y222250*
X232614*
X232386Y222391*
X232159Y222672*
X232045Y222953*
X229886Y225203D02*
X231023Y223234D01*
X229318*
X229886Y225203D02*
Y222250D01*
X226932Y224781D02*
X227045Y225063D01*
X227045D02*
X227386Y225203D01*
X227614*
X227955Y225063*
X227955D02*
X228182Y224641D01*
X228295Y223938*
X228295D02*
Y223234D01*
X228182Y222672*
X227955Y222391*
X227614Y222250*
X227500*
X227159Y222391*
X226932Y222672*
X226818Y223094*
Y223234*
X226932Y223656*
X227159Y223938*
X227159D02*
X227500Y224078D01*
X227614*
X227955Y223938*
X227955D02*
X228182Y223656D01*
X228295Y223234*
X297750Y286203D02*
Y284094D01*
X297636Y283672*
X297409Y283391*
X297068Y283250*
X296841*
X296500Y283391*
X296273Y283672*
X296159Y284094*
Y286203*
X293659D02*
X294795D01*
X294909Y284938*
X294909D02*
X294795Y285078D01*
X294455Y285219*
X294114*
X293773Y285078*
X293545Y284797*
X293432Y284375*
X293545Y284094*
X293659Y283672*
X293886Y283391*
X294227Y283250*
X294568*
X294909Y283391*
X295023Y283531*
X295136Y283813*
X293750Y176203D02*
Y173250D01*
Y176203D02*
X292727D01*
X292386Y176063*
X292386D02*
X292273Y175922D01*
X292159Y175641*
Y175359*
X292273Y175078*
X292386Y174938*
X292386D02*
X292727Y174797D01*
X293750*
X292955D02*
X292159Y173250D01*
X290000Y176203D02*
X291136Y174234D01*
X289432*
X290000Y176203D02*
Y173250D01*
X287727Y176203D02*
X288068Y176063D01*
X288068D02*
X288295Y175641D01*
X288409Y174938*
X288409D02*
Y174516D01*
X288295Y173813*
X288295D02*
X288068Y173391D01*
X287727Y173250*
X287500*
X287159Y173391*
X286932Y173813*
X286932D02*
X286818Y174516D01*
Y174938*
X286818D02*
X286932Y175641D01*
X287159Y176063*
X287159D02*
X287500Y176203D01*
X287727*
X233750Y149203D02*
Y146250D01*
X232386*
X229886Y149203D02*
X231023D01*
X231136Y147938*
X231023Y148078*
X230682Y148219*
X230341*
X230000Y148078*
X229773Y147797*
X229659Y147375*
X229773Y147094*
X229886Y146672*
X230114Y146391*
X230455Y146250*
X230795*
X231136Y146391*
X231250Y146531*
X231364Y146813*
X105750Y306203D02*
Y303250D01*
Y306203D02*
X104727D01*
X104386Y306063*
X104386D02*
X104273Y305922D01*
X104159Y305641*
Y305359*
X104273Y305078*
X104386Y304938*
X104386D02*
X104727Y304797D01*
X105750*
X104955D02*
X104159Y303250D01*
X102909Y306203D02*
X101659D01*
X102341Y305078*
X102000*
X101773Y304938*
X101773D02*
X101659Y304797D01*
X101545Y304375*
Y304094*
X101659Y303672*
X101886Y303391*
X102227Y303250*
X102568*
X102909Y303391*
X103023Y303531*
X103136Y303813*
X130203Y290250D02*
X127250D01*
X130203D02*
Y291273D01*
X130062Y291614*
X130062D02*
X129922Y291727D01*
X129641Y291841*
X129359*
X129078Y291727*
X128937Y291614*
X128937D02*
X128797Y291273D01*
Y290250*
Y291045D02*
X127250Y291841D01*
X129500Y292977D02*
X129641D01*
X129922Y293091*
X130062Y293205*
X130062D02*
X130203Y293432D01*
Y293886*
X130062Y294114*
X130062D02*
X129922Y294227D01*
X129641Y294341*
X129359*
X129078Y294227*
X128656Y294000*
X127250Y292864*
Y294455*
X221203Y246250D02*
X218250D01*
X221203D02*
Y247273D01*
X221062Y247614*
X221062D02*
X220922Y247727D01*
X220641Y247841*
X220359*
X220078Y247727*
X219937Y247614*
X219937D02*
X219797Y247273D01*
Y246250*
Y247045D02*
X218250Y247841D01*
X220500Y248977D02*
X220641D01*
X220922Y249091*
X221062Y249205*
X221062D02*
X221203Y249432D01*
Y249886*
X221062Y250114*
X221062D02*
X220922Y250227D01*
X220641Y250341*
X220359*
X220078Y250227*
X219656Y250000*
X218250Y248864*
Y250455*
X221203Y252159D02*
X221062Y251818D01*
X221062D02*
X220641Y251591D01*
X219937Y251477*
X219937D02*
X219516D01*
X218812Y251591*
X218812D02*
X218391Y251818D01*
X218250Y252159*
Y252386*
X218391Y252727*
X218812Y252955*
X218812D02*
X219516Y253068D01*
X219937*
X219937D02*
X220641Y252955D01*
X221062Y252727*
X221062D02*
X221203Y252386D01*
Y252159*
X215203Y159250D02*
X212250D01*
X215203D02*
Y160273D01*
X215063Y160614*
X215063D02*
X214922Y160727D01*
X214641Y160841*
X214359*
X214078Y160727*
X213938Y160614*
X213938D02*
X213797Y160273D01*
Y159250*
Y160045D02*
X212250Y160841D01*
X214500Y161977D02*
X214641D01*
X214922Y162091*
X215063Y162205*
X215063D02*
X215203Y162432D01*
Y162886*
X215063Y163114*
X215063D02*
X214922Y163227D01*
X214641Y163341*
X214359*
X214078Y163227*
X213656Y163000*
X212250Y161864*
Y163455*
X214641Y164477D02*
X214781Y164705D01*
X215203Y165045*
X212250*
X109750Y286203D02*
Y283250D01*
Y286203D02*
X108727D01*
X108386Y286063*
X108386D02*
X108273Y285922D01*
X108159Y285641*
Y285359*
X108273Y285078*
X108386Y284938*
X108386D02*
X108727Y284797D01*
X109750*
X108955D02*
X108159Y283250D01*
X106000Y286203D02*
X107136Y284234D01*
X105432*
X106000Y286203D02*
Y283250D01*
X260045Y317500D02*
X260159Y317781D01*
X260386Y318063*
X260386D02*
X260614Y318203D01*
X261068*
X261295Y318063*
X261295D02*
X261523Y317781D01*
X261636Y317500*
X261750Y317078*
Y316375*
X261636Y315953*
X261523Y315672*
X261295Y315391*
X261068Y315250*
X260614*
X260386Y315391*
X260159Y315672*
X260045Y315953*
X259023Y317641D02*
X258795Y317781D01*
X258455Y318203*
Y315250*
X255955Y318203D02*
X257091D01*
X257205Y316938*
X257205D02*
X257091Y317078D01*
X256750Y317219*
X256409*
X256068Y317078*
X255841Y316797*
X255727Y316375*
X255841Y316094*
X255955Y315672*
X256182Y315391*
X256523Y315250*
X256864*
X257205Y315391*
X257318Y315531*
X257432Y315813*
X151841Y128203D02*
X152750Y125250D01*
X151841Y128203D02*
X150932Y125250D01*
X152409Y126234D02*
X151273D01*
X149909Y128203D02*
Y125250D01*
Y128203D02*
X149114D01*
X148773Y128063*
X148773D02*
X148545Y127781D01*
X148432Y127500*
X148318Y127078*
Y126375*
X148432Y125953*
X148545Y125672*
X148773Y125391*
X149114Y125250*
X149909*
X146614Y128203D02*
X146955Y128063D01*
X146955D02*
X147182Y127641D01*
X147295Y126938*
X147295D02*
Y126516D01*
X147182Y125813*
X147182D02*
X146955Y125391D01*
X146614Y125250*
X146386*
X146045Y125391*
X145818Y125813*
X145818D02*
X145705Y126516D01*
Y126938*
X145705D02*
X145818Y127641D01*
X146045Y128063*
X146045D02*
X146386Y128203D01*
X146614*
X144341Y109203D02*
X144682Y109063D01*
X144682D02*
X144909Y108641D01*
X145023Y107938*
X145023D02*
Y107516D01*
X144909Y106813*
X144909D02*
X144682Y106391D01*
X144341Y106250*
X144114*
X143773Y106391*
X143545Y106813*
X143545D02*
X143432Y107516D01*
Y107938*
X143432D02*
X143545Y108641D01*
X143773Y109063*
X143773D02*
X144114Y109203D01*
X144341*
X186841Y128203D02*
X187750Y125250D01*
X186841Y128203D02*
X185932Y125250D01*
X187409Y126234D02*
X186273D01*
X184909Y128203D02*
Y125250D01*
Y128203D02*
X184114D01*
X183773Y128063*
X183773D02*
X183545Y127781D01*
X183432Y127500*
X183318Y127078*
Y126375*
X183432Y125953*
X183545Y125672*
X183773Y125391*
X184114Y125250*
X184909*
X181614Y128203D02*
X181955Y128063D01*
X181955D02*
X182182Y127641D01*
X182295Y126938*
X182295D02*
Y126516D01*
X182182Y125813*
X182182D02*
X181955Y125391D01*
X181614Y125250*
X181386*
X181045Y125391*
X180818Y125813*
X180818D02*
X180705Y126516D01*
Y126938*
X180705D02*
X180818Y127641D01*
X181045Y128063*
X181045D02*
X181386Y128203D01*
X181614*
X144511Y121641D02*
X144284Y121781D01*
X143943Y122203*
Y119250*
X179511Y121641D02*
X179284Y121781D01*
X178943Y122203*
Y119250*
X179341Y109203D02*
X179682Y109063D01*
X179682D02*
X179909Y108641D01*
X180023Y107938*
X180023D02*
Y107516D01*
X179909Y106813*
X179909D02*
X179682Y106391D01*
X179341Y106250*
X179114*
X178773Y106391*
X178545Y106813*
X178545D02*
X178432Y107516D01*
Y107938*
X178432D02*
X178545Y108641D01*
X178773Y109063*
X178773D02*
X179114Y109203D01*
X179341*
X142000Y104000D02*
X177000D01*
Y142000*
X142000*
Y104000*
X177000D02*
X212000D01*
Y142000*
X177000*
Y104000*
G54D94*
X0Y0D02*
M02*
