*
*
G04 PADS9.1 Build Number: 384028 generated Gerber (RS-274-X) file*
G04 PC Version=2.1*
*
%IN "medulla.1.pcb"*%
*
%MOIN*%
*
%FSLAX35Y35*%
*
*
*
*
G04 PC Standard Apertures*
*
*
G04 Thermal Relief Aperture macro.*
%AMTER*
1,1,$1,0,0*
1,0,$1-$2,0,0*
21,0,$3,$4,0,0,45*
21,0,$3,$4,0,0,135*
%
*
*
G04 Annular Aperture macro.*
%AMANN*
1,1,$1,0,0*
1,0,$2,0,0*
%
*
*
G04 Odd Aperture macro.*
%AMODD*
1,1,$1,0,0*
1,0,$1-0.005,0,0*
%
*
*
G04 PC Custom Aperture Macros*
*
*
*
*
*
*
G04 PC Aperture Table*
*
%ADD034C,0.01181*%
%ADD038C,0.006*%
%ADD039C,0.01*%
%ADD041C,0.02*%
%ADD051C,0.015*%
%ADD088C,0.00787*%
%ADD089C,0.007*%
%ADD090C,0.012*%
%ADD091C,0.005*%
%ADD094C,0.001*%
*
*
*
*
G04 PC Circuitry*
G04 Layer Name medulla.1.pcb - circuitry*
%LPD*%
*
*
G04 PC Custom Flashes*
G04 Layer Name medulla.1.pcb - flashes*
%LPD*%
*
*
G04 PC Circuitry*
G04 Layer Name medulla.1.pcb - circuitry*
%LPD*%
*
G54D34*
G01X323094Y161142D02*
X321126D01*
Y163307*
X323094*
Y161142*
X321913D02*
Y163307D01*
X323094Y161142D02*
Y178858D01*
X334906*
Y161142*
X323094*
X228315Y317449D02*
Y327685D01*
X267685*
Y317449*
Y298551D02*
Y288315D01*
X228315*
Y298551*
X177315Y132449D02*
Y142685D01*
X216685*
Y132449*
Y113551D02*
Y103315D01*
X177315*
Y113551*
X285315Y234685D02*
X324685D01*
Y195315*
X285315*
Y234685*
X322323D02*
Y237047D01*
X324685*
Y234685*
X322323*
X303394Y178882D02*
X302606D01*
X303394Y189118D02*
X302606D01*
X296701Y183606D02*
Y184394D01*
X309299Y183606D02*
Y184394D01*
X311661Y189118D02*
Y191480D01*
X308906*
X219449Y292126D02*
X219843D01*
Y307874*
X219449*
X200551D02*
X200157D01*
Y292126*
X200551*
X219843Y307874D02*
X222992D01*
Y304724*
X219843*
Y307874*
X222205Y304724D02*
Y307874D01*
X221024D02*
Y304724D01*
X220630D02*
Y307874D01*
X167449Y109126D02*
X167843D01*
Y124874*
X167449*
X148551D02*
X148157D01*
Y109126*
X148551*
X167843Y124874D02*
X170992D01*
Y121724*
X167843*
Y124874*
X170205Y121724D02*
Y124874D01*
X169024D02*
Y121724D01*
X168630D02*
Y124874D01*
G54D38*
X376500Y144844D02*
Y141300D01*
Y144844D02*
X377727D01*
X378136Y144675*
X378273Y144506*
X378409Y144169*
Y143831*
X378273Y143494*
X378136Y143325*
X377727Y143156*
X376500*
X377455D02*
X378409Y141300D01*
X381545Y144338D02*
X381273Y144675D01*
X380864Y144844*
X380318*
X379909Y144675*
X379636Y144338*
X379636D02*
Y144000D01*
X379773Y143663*
X379773D02*
X379909Y143494D01*
X380182Y143325*
X381000Y142988*
X381000D02*
X381273Y142819D01*
X381409Y142650*
X381545Y142313*
X381545D02*
Y141806D01*
X381273Y141469*
X380864Y141300*
X380318*
X379909Y141469*
X379636Y141806*
X382909Y144000D02*
Y144169D01*
X383045Y144506*
X383182Y144675*
X383455Y144844*
X384000*
X384273Y144675*
X384409Y144506*
X384545Y144169*
Y143831*
X384409Y143494*
X384136Y142988*
X384136D02*
X382773Y141300D01*
X384682*
X386182Y144844D02*
X387682D01*
X386864Y143494*
X387273*
X387545Y143325*
X387682Y143156*
X387818Y142650*
Y142313*
X387818D02*
X387682Y141806D01*
X387409Y141469*
X387000Y141300*
X386591*
X386182Y141469*
X386045Y141638*
X386045D02*
X385909Y141975D01*
X389182Y144000D02*
Y144169D01*
X389318Y144506*
X389455Y144675*
X389727Y144844*
X390273*
X390545Y144675*
X390682Y144506*
X390818Y144169*
Y143831*
X390682Y143494*
X390409Y142988*
X390409D02*
X389045Y141300D01*
X390955*
X134844Y150182D02*
X131300D01*
X134844D02*
Y148409D01*
X133156Y150182D02*
Y149091D01*
X131300Y150182D02*
Y148409D01*
X134844Y146773D02*
X131975D01*
X131469Y146636*
X131300Y146364*
Y146091*
X133663Y147182D02*
Y146227D01*
X134844Y144864D02*
X131300D01*
X132988D02*
X133494Y144455D01*
X133663Y144182*
X133663D02*
Y143773D01*
X133663D02*
X133494Y143500D01*
X132988Y143364*
X132988D02*
X131300D01*
X132650Y142136D02*
Y140500D01*
X132988*
X132988D02*
X133325Y140636D01*
X133494Y140773*
X133663Y141045*
X133663D02*
Y141455D01*
X133663D02*
X133494Y141727D01*
X133156Y142000*
X132650Y142136*
X132313*
X132313D02*
X131806Y142000D01*
X131469Y141727*
X131300Y141455*
Y141045*
X131469Y140773*
X131806Y140500*
X133663Y139273D02*
X131300D01*
X132650D02*
X133156Y139136D01*
X133494Y138864*
X133663Y138591*
X133663D02*
Y138182D01*
X134000Y134909D02*
X134338Y135045D01*
X134338D02*
X134675Y135318D01*
X134844Y135591*
Y136136*
X134675Y136409*
X134338Y136682*
X134338D02*
X134000Y136818D01*
X133494Y136955*
X132650*
X132144Y136818*
X131806Y136682*
X131469Y136409*
X131300Y136136*
Y135591*
X131469Y135318*
X131806Y135045*
X132144Y134909*
X134844Y132591D02*
X131300Y133682D01*
X134844Y132591D02*
X131300Y131500D01*
X132481Y133273D02*
Y131909D01*
X134844Y129318D02*
X131300D01*
X134844Y130273D02*
Y128364D01*
X129500Y144614D02*
X125300D01*
X129500D02*
Y143182D01*
X129300Y142705*
X129100Y142545*
X128700Y142386*
X128300*
X127900Y142545*
X127700Y142705*
X127500Y143182*
Y144614*
Y143500D02*
X125300Y142386D01*
X128100Y140955D02*
X126100D01*
X125500Y140795*
X125300Y140477*
Y140000*
X125500Y139682*
X126100Y139205*
X128100D02*
X125300D01*
X128100Y137773D02*
X125300D01*
X127300D02*
X127900Y137295D01*
X128100Y136977*
Y136500*
X127900Y136182*
X127300Y136023*
X125300*
X122900Y146761D02*
X123300Y147080D01*
X123500Y147557*
Y148193*
X123300Y148670*
X122900Y148989*
X122500*
X122100Y148830*
X121900Y148670*
X121700Y148352*
X121300Y147398*
X121100Y147080*
X120900Y146920*
X120500Y146761*
X119900*
X119500Y147080*
X119300Y147557*
Y148193*
X119500Y148670*
X119900Y148989*
X123500Y144852D02*
X120100D01*
X119500Y144693*
X119300Y144375*
Y144057*
X122100Y145330D02*
Y144216D01*
Y140716D02*
X119300D01*
X121500D02*
X121900Y141034D01*
X122100Y141352*
Y141830*
X121900Y142148*
X121500Y142466*
X120900Y142625*
X120500*
X119900Y142466*
X119500Y142148*
X119300Y141830*
Y141352*
X119500Y141034*
X119900Y140716*
X123500Y138807D02*
X120100D01*
X119500Y138648*
X119300Y138330*
Y138011*
X122100Y139284D02*
Y138170D01*
Y136580D02*
X120100D01*
X119500Y136420*
X119300Y136102*
Y135625*
X119500Y135307*
X120100Y134830*
X122100D02*
X119300D01*
X121500Y131648D02*
X121900Y131807D01*
X122100Y132284*
Y132761*
X121900Y133239*
X121500Y133398*
X121100Y133239*
X120900Y132920*
X120700Y132125*
X120500Y131807*
X120100Y131648*
X119900*
X119500Y131807*
X119300Y132284*
Y132761*
X119500Y133239*
X119900Y133398*
X239000Y135000D02*
X263000D01*
Y111000*
X239000*
Y135000*
G54D39*
X275000Y315000D02*
X285000D01*
Y305000*
X275000*
Y315000*
Y325000D02*
X285000D01*
Y315000*
X275000*
Y325000*
X285000Y315000D02*
X295000D01*
Y305000*
X285000*
Y315000*
Y325000D02*
X295000D01*
Y315000*
X285000*
Y325000*
X295000Y315000D02*
X305000D01*
Y305000*
X295000*
Y315000*
Y325000D02*
X305000D01*
Y315000*
X295000*
Y325000*
X305000Y315000D02*
X315000D01*
Y305000*
X305000*
Y315000*
Y325000D02*
X315000D01*
Y315000*
X305000*
Y325000*
X325000Y315000D02*
X335000D01*
Y305000*
X325000*
Y315000*
Y325000D02*
X335000D01*
Y315000*
X325000*
Y325000*
X335000Y315000D02*
X345000D01*
Y305000*
X335000*
Y315000*
Y325000D02*
X345000D01*
Y315000*
X335000*
Y325000*
X345000Y315000D02*
X355000D01*
Y305000*
X345000*
Y315000*
Y325000D02*
X355000D01*
Y315000*
X345000*
Y325000*
X355000Y315000D02*
X365000D01*
Y305000*
X355000*
Y315000*
Y325000D02*
X365000D01*
Y315000*
X355000*
Y325000*
X435000D02*
Y315000D01*
X425000*
Y325000*
X435000*
X445000D02*
Y315000D01*
X435000*
Y325000*
X445000*
X435000Y315000D02*
Y305000D01*
X425000*
Y315000*
X435000*
X445000D02*
Y305000D01*
X435000*
Y315000*
X445000*
X435000Y305000D02*
Y295000D01*
X425000*
Y305000*
X435000*
X445000D02*
Y295000D01*
X435000*
Y305000*
X445000*
X265000Y148000D02*
X235000D01*
Y212000*
X265000*
Y148000*
Y144000*
X261000*
Y148000*
X265000*
Y145000D02*
X261000D01*
Y146000D02*
X265000D01*
Y147000D02*
X261000D01*
X254150Y120850D02*
X247850D01*
X251000D02*
Y121638D01*
X247850Y127150D02*
X254150D01*
X251000D02*
Y125575D01*
Y121638D02*
X248638Y124787D01*
X435000Y295000D02*
Y285000D01*
X425000*
Y295000*
X435000*
X445000D02*
Y285000D01*
X435000*
Y295000*
X445000*
X435000Y275000D02*
Y265000D01*
X425000*
Y275000*
X435000*
X445000D02*
Y265000D01*
X435000*
Y275000*
X445000*
X166000Y294000D02*
X161500D01*
Y322000*
X166000*
X182000D02*
X186500D01*
Y294000*
X182000*
X166500Y290000D02*
X182000D01*
X435000Y265000D02*
Y255000D01*
X425000*
Y265000*
X435000*
X265000Y218000D02*
X235000D01*
Y282000*
X265000*
Y218000*
Y214000*
X261000*
Y218000*
X265000*
Y215000D02*
X261000D01*
Y216000D02*
X265000D01*
Y217000D02*
X261000D01*
X445000Y265000D02*
Y255000D01*
X435000*
Y265000*
X445000*
X435000Y255000D02*
Y245000D01*
X425000*
Y255000*
X435000*
X445000D02*
Y245000D01*
X435000*
Y255000*
X445000*
X435000Y245000D02*
Y235000D01*
X425000*
Y245000*
X435000*
X445000D02*
Y235000D01*
X435000*
Y245000*
X445000*
X435000Y205000D02*
Y195000D01*
X425000*
Y205000*
X435000*
X445000D02*
Y195000D01*
X435000*
Y205000*
X445000*
X435000Y195000D02*
Y185000D01*
X425000*
Y195000*
X435000*
X445000D02*
Y185000D01*
X435000*
Y195000*
X445000*
X435000Y185000D02*
Y175000D01*
X425000*
Y185000*
X435000*
X445000D02*
Y175000D01*
X435000*
Y185000*
X445000*
X435000Y175000D02*
Y165000D01*
X425000*
Y175000*
X435000*
X445000D02*
Y165000D01*
X435000*
Y175000*
X445000*
X435000Y155000D02*
Y145000D01*
X425000*
Y155000*
X435000*
X445000D02*
Y145000D01*
X435000*
Y155000*
X445000*
X435000Y145000D02*
Y135000D01*
X425000*
Y145000*
X435000*
X445000D02*
Y135000D01*
X435000*
Y145000*
X445000*
X435000Y135000D02*
Y125000D01*
X425000*
Y135000*
X435000*
X445000D02*
Y125000D01*
X435000*
Y135000*
X445000*
X435000Y125000D02*
Y115000D01*
X425000*
Y125000*
X435000*
X445000D02*
Y115000D01*
X435000*
Y125000*
X445000*
X375000Y115000D02*
X365000D01*
Y125000*
X375000*
Y115000*
Y105000D02*
X365000D01*
Y115000*
X375000*
Y105000*
X365000Y115000D02*
X355000D01*
Y125000*
X365000*
Y115000*
Y105000D02*
X355000D01*
Y115000*
X365000*
Y105000*
X355000Y115000D02*
X345000D01*
Y125000*
X355000*
Y115000*
Y105000D02*
X345000D01*
Y115000*
X355000*
Y105000*
X345000Y115000D02*
X335000D01*
Y125000*
X345000*
Y115000*
Y105000D02*
X335000D01*
Y115000*
X345000*
Y105000*
X325000Y115000D02*
X315000D01*
Y125000*
X325000*
Y115000*
Y105000D02*
X315000D01*
Y115000*
X325000*
Y105000*
X315000Y115000D02*
X305000D01*
Y125000*
X315000*
Y115000*
Y105000D02*
X305000D01*
Y115000*
X315000*
Y105000*
X305000Y115000D02*
X295000D01*
Y125000*
X305000*
Y115000*
Y105000D02*
X295000D01*
Y115000*
X305000*
Y105000*
X295000Y115000D02*
X285000D01*
Y125000*
X295000*
Y115000*
Y105000D02*
X285000D01*
Y115000*
X295000*
Y105000*
X107500Y286000D02*
Y280000D01*
X114800Y286000D02*
X109500D01*
Y280000*
X114800*
X117200Y286000D02*
X122500D01*
Y280000*
X117200*
X107500Y302000D02*
Y296000D01*
X114800Y302000D02*
X109500D01*
Y296000*
X114800*
X117200Y302000D02*
X122500D01*
Y296000*
X117200*
X107500Y294000D02*
Y288000D01*
X114800Y294000D02*
X109500D01*
Y288000*
X114800*
X117200Y294000D02*
X122500D01*
Y288000*
X117200*
X103000Y132500D02*
X109000D01*
X103000Y139800D02*
Y134500D01*
X109000*
Y139800*
X103000Y142200D02*
Y147500D01*
X109000*
Y142200*
X301000Y167000D02*
X311000D01*
Y157000*
X301000*
Y167000*
Y157000D02*
X311000D01*
Y147000*
X301000*
Y157000*
X425000Y165000D02*
Y155000D01*
X415000*
Y165000*
X425000*
X435000D02*
Y155000D01*
X425000*
Y165000*
X435000*
X445000D02*
Y155000D01*
X435000*
Y165000*
X445000*
X415000Y115000D02*
X425000D01*
Y105000*
X415000*
Y115000*
X435000D02*
Y105000D01*
X425000*
Y115000*
X435000*
X445000D02*
Y105000D01*
X435000*
Y115000*
X445000*
X335000Y125000D02*
X325000D01*
Y135000*
X335000*
Y125000*
Y115000D02*
X325000D01*
Y125000*
X335000*
Y115000*
Y105000D02*
X325000D01*
Y115000*
X335000*
Y105000*
X285000Y125000D02*
X275000D01*
Y135000*
X285000*
Y125000*
Y115000D02*
X275000D01*
Y125000*
X285000*
Y115000*
Y105000D02*
X275000D01*
Y115000*
X285000*
Y105000*
X365000Y305000D02*
X375000D01*
Y295000*
X365000*
Y305000*
Y315000D02*
X375000D01*
Y305000*
X365000*
Y315000*
Y325000D02*
X375000D01*
Y315000*
X365000*
Y325000*
X425000Y285000D02*
Y275000D01*
X415000*
Y285000*
X425000*
X435000D02*
Y275000D01*
X425000*
Y285000*
X435000*
X445000D02*
Y275000D01*
X435000*
Y285000*
X445000*
X425000Y235000D02*
Y225000D01*
X415000*
Y235000*
X425000*
X435000D02*
Y225000D01*
X425000*
Y235000*
X435000*
X445000D02*
Y225000D01*
X435000*
Y235000*
X445000*
X315000Y305000D02*
X325000D01*
Y295000*
X315000*
Y305000*
Y315000D02*
X325000D01*
Y305000*
X315000*
Y315000*
Y325000D02*
X325000D01*
Y315000*
X315000*
Y325000*
X208250Y316250D02*
X216250D01*
Y325750*
X208250*
X205750Y316250D02*
X197750D01*
Y325750*
X205750*
X234750Y124250D02*
Y132250D01*
X225250*
Y124250*
X234750Y121750D02*
Y113750D01*
X225250*
Y121750*
X158250Y133250D02*
X166250D01*
Y142750*
X158250*
X155750Y133250D02*
X147750D01*
Y142750*
X155750*
X303364Y135094D02*
Y130500D01*
X305909Y135094D02*
X303364Y132031D01*
X304273Y133125D02*
X305909Y130500D01*
X355545Y135094D02*
Y131594D01*
X355364Y130938*
X355364D02*
X355182Y130719D01*
X354818Y130500*
X354455*
X354091Y130719*
X353909Y130938*
X353909D02*
X353727Y131594D01*
Y132031*
X414906Y133364D02*
X419500D01*
X414906Y135909D02*
X419500D01*
X417094Y133364D02*
Y135909D01*
X414906Y183455D02*
X419500D01*
X414906D02*
Y185818D01*
X417094Y183455D02*
Y184909D01*
X414906Y253364D02*
X419500D01*
X414906D02*
Y254636D01*
X415125Y255182*
X415562Y255545*
X415562D02*
X416000Y255727D01*
X416656Y255909*
X417750*
X418406Y255727*
X418844Y255545*
X419281Y255182*
X419500Y254636*
Y253364*
X415000Y306000D02*
X414562Y305818D01*
X414562D02*
X414125Y305455D01*
X413906Y305091*
Y304364*
X414125Y304000*
X414562Y303636*
X414562D02*
X415000Y303455D01*
X415656Y303273*
X416750*
X417406Y303455*
X417844Y303636*
X418281Y304000*
X418500Y304364*
Y305091*
X418281Y305455*
X417844Y305818*
X417406Y306000*
X346636Y294906D02*
Y299500D01*
Y294906D02*
X345000D01*
X344455Y295125*
X344273Y295344*
X344091Y295781*
Y296219*
X344273Y296656*
X344455Y296875*
X345000Y297094*
X346636D02*
X345000D01*
X344455Y297312*
X344455D02*
X344273Y297531D01*
X344091Y297969*
Y298625*
X344273Y299062*
X344273D02*
X344455Y299281D01*
X345000Y299500*
X346636*
X295364Y294906D02*
X296818Y299500D01*
X295364Y294906D02*
X293909Y299500D01*
X296273Y297969D02*
X294455D01*
X241182Y117094D02*
Y112500D01*
Y117094D02*
X242818D01*
X243364Y116875*
X243545Y116656*
X243727Y116219*
Y115781*
X243545Y115344*
X243364Y115125*
X242818Y114906*
X241182*
X242455D02*
X243727Y112500D01*
X245364Y117094D02*
Y112500D01*
Y117094D02*
X247727D01*
X245364Y114906D02*
X246818D01*
X245364Y112500D02*
X247727D01*
X251909Y116438D02*
X251545Y116875D01*
X251000Y117094*
X250273*
X249727Y116875*
X249364Y116438*
X249364D02*
Y116000D01*
X249545Y115563*
X249545D02*
X249727Y115344D01*
X250091Y115125*
X251182Y114688*
X251182D02*
X251545Y114469D01*
X251727Y114250*
X251909Y113813*
X251909D02*
Y113156D01*
X251545Y112719*
X251000Y112500*
X250273*
X249727Y112719*
X249364Y113156*
X253545Y117094D02*
Y112500D01*
Y117094D02*
X255909D01*
X253545Y114906D02*
X255000D01*
X253545Y112500D02*
X255909D01*
X258818Y117094D02*
Y112500D01*
X257545Y117094D02*
X260091D01*
X375906Y276455D02*
X380500D01*
X375906D02*
Y278091D01*
X376125Y278636*
X376344Y278818*
X376781Y279000*
X377437*
X377437D02*
X377875Y278818D01*
X378094Y278636*
X378312Y278091*
X378312D02*
Y276455D01*
X375906Y280636D02*
X380500D01*
X375906D02*
Y281909D01*
X376125Y282455*
X376562Y282818*
X376562D02*
X377000Y283000D01*
X377656Y283182*
X378750*
X379406Y283000*
X379844Y282818*
X380281Y282455*
X380500Y281909*
Y280636*
X375906Y284818D02*
X380500D01*
G54D41*
X100000Y100000D02*
X450000D01*
Y330000*
X100000*
Y100000*
G54D51*
X390000Y296000D02*
X383000D01*
Y289000*
X203000Y225000D02*
Y277000D01*
X164000*
X150000D02*
X102000D01*
Y153000*
X150000*
X164000D02*
X203000D01*
Y210000*
X102000Y215000D02*
X117000D01*
X149000D02*
X164000D01*
X184000D02*
X195000D01*
G54D88*
X347311Y251689D02*
Y200311D01*
X398689*
Y251689*
X347311*
X406071Y259071D02*
Y254346D01*
X401346*
Y259071*
X406071*
X405283D02*
Y254346D01*
X404496Y259071D02*
Y254346D01*
X403709Y259071D02*
Y254346D01*
X402921Y259071D02*
Y254346D01*
X402134Y259071D02*
Y254346D01*
X157795Y323307D02*
Y286693D01*
X147362*
X143425Y284331*
X132205*
Y290827*
X135551*
Y319173*
X132205*
Y325669*
X143425*
X147362Y323307*
X157795*
X347000Y180000D02*
Y162000D01*
X367000Y180000D02*
Y162000D01*
X345000Y164000D02*
X347000D01*
Y162000*
X345000*
Y164000*
X345500D02*
Y162000D01*
X346000Y164000D02*
Y162000D01*
X346500Y164000D02*
Y162000D01*
X322323Y236260D02*
X324685D01*
X322323Y235472D02*
X324685D01*
X400795Y181748D02*
Y150252D01*
X390362*
X386425Y146906*
X375205*
Y153402*
X378551*
Y178598*
X375205*
Y185094*
X386425*
X390362Y181748*
X400795*
X143937Y124024D02*
X136063D01*
X196937Y305024D02*
X189063D01*
G54D89*
X344000Y187500D02*
Y174500D01*
X338000*
Y187500*
X344000*
X313000Y160500D02*
Y173500D01*
X319000*
Y160500*
X313000*
X348000Y154500D02*
Y141500D01*
X342000*
Y154500*
X348000*
X366000D02*
Y141500D01*
X360000*
Y154500*
X366000*
X354000D02*
Y141500D01*
X348000*
Y154500*
X354000*
X210000Y149500D02*
Y162500D01*
X216000*
Y149500*
X210000*
Y219500D02*
Y232500D01*
X216000*
Y219500*
X210000*
X313000Y173500D02*
Y186500D01*
X319000*
Y173500*
X313000*
X288500Y145000D02*
X275500D01*
Y151000*
X288500*
Y145000*
X307000Y241500D02*
Y254500D01*
X313000*
Y241500*
X307000*
X308500Y169000D02*
X295500D01*
Y175000*
X308500*
Y169000*
X216000Y158500D02*
Y171500D01*
X222000*
Y158500*
X216000*
Y181500D02*
Y168500D01*
X210000*
Y181500*
X216000*
Y178500D02*
Y191500D01*
X222000*
Y178500*
X216000*
Y201500D02*
Y188500D01*
X210000*
Y201500*
X216000*
Y228500D02*
Y241500D01*
X222000*
Y228500*
X216000*
Y251500D02*
Y238500D01*
X210000*
Y251500*
X216000*
Y248500D02*
Y261500D01*
X222000*
Y248500*
X216000*
Y271500D02*
Y258500D01*
X210000*
Y271500*
X216000*
X301000Y254500D02*
Y241500D01*
X295000*
Y254500*
X301000*
X360000Y154500D02*
Y141500D01*
X354000*
Y154500*
X360000*
X301000Y241500D02*
Y254500D01*
X307000*
Y241500*
X301000*
X283000D02*
Y254500D01*
X289000*
Y241500*
X283000*
X289000D02*
Y254500D01*
X295000*
Y241500*
X289000*
X277000D02*
Y254500D01*
X283000*
Y241500*
X277000*
X313000D02*
Y254500D01*
X319000*
Y241500*
X313000*
X116000Y147500D02*
Y134500D01*
X110000*
Y147500*
X116000*
X275500Y157000D02*
X288500D01*
Y151000*
X275500*
Y157000*
X319000Y241500D02*
Y254500D01*
X325000*
Y241500*
X319000*
X154941Y228484D02*
Y225334D01*
X154782Y224744*
X154623Y224547*
X154305Y224350*
X153986*
X153668Y224547*
X153509Y224744*
X153350Y225334*
Y225728*
X156532Y227500D02*
Y227697D01*
X156691Y228091*
X156850Y228288*
X156850D02*
X157168Y228484D01*
X157805*
X158123Y228288*
X158123D02*
X158282Y228091D01*
X158441Y227697*
Y227303*
X158282Y226909*
X157964Y226319*
X156373Y224350*
X158600*
X147023Y284828D02*
Y281350D01*
Y284828D02*
X148250D01*
X148659Y284663*
X148659D02*
X148795Y284497D01*
X148932Y284166*
Y283669*
X148795Y283338*
X148795D02*
X148659Y283172D01*
X148250Y283006*
X147023*
X150977Y284828D02*
X150705Y284663D01*
X150705D02*
X150432Y284331D01*
X150295Y284000*
X150159Y283503*
Y282675*
X150295Y282178*
X150432Y281847*
X150705Y281516*
X150977Y281350*
X151523*
X151795Y281516*
X152068Y281847*
X152205Y282178*
X152341Y282675*
Y283503*
X152205Y284000*
X152068Y284331*
X151795Y284663*
X151795D02*
X151523Y284828D01*
X150977*
X153568D02*
X154250Y281350D01*
X154932Y284828D02*
X154250Y281350D01*
X154932Y284828D02*
X155614Y281350D01*
X156295Y284828D02*
X155614Y281350D01*
X157523Y284828D02*
Y281350D01*
Y284828D02*
X159295D01*
X157523Y283172D02*
X158614D01*
X157523Y281350D02*
X159295D01*
X160523Y284828D02*
Y281350D01*
Y284828D02*
X161750D01*
X162159Y284663*
X162159D02*
X162295Y284497D01*
X162432Y284166*
Y283834*
X162295Y283503*
X162159Y283338*
X162159D02*
X161750Y283172D01*
X160523*
X161477D02*
X162432Y281350D01*
G54D90*
X404000Y295000D02*
Y265000D01*
X384000*
Y292000*
X387000Y295000*
X404000*
X136063Y119299D02*
Y106701D01*
X143937Y119299D02*
Y106701D01*
X189063Y300299D02*
Y287701D01*
X196937Y300299D02*
Y287701D01*
G54D91*
X402250Y263203D02*
Y261094D01*
X402364Y260672*
X402591Y260391*
X402932Y260250*
X403159*
X403500Y260391*
X403727Y260672*
X403841Y261094*
Y263203*
X404864Y262641D02*
X405091Y262781D01*
X405432Y263203*
Y260250*
X138386Y323203D02*
Y320953D01*
X138273Y320531*
X138159Y320391*
X137932Y320250*
X137705*
X137477Y320391*
X137364Y320531*
X137250Y320953*
Y321234*
X139409Y322641D02*
X139636Y322781D01*
X139977Y323203*
Y320250*
X335955Y191500D02*
X335841Y191781D01*
X335614Y192062*
X335614D02*
X335386Y192203D01*
X334932*
X334705Y192062*
X334705D02*
X334477Y191781D01*
X334364Y191500*
X334250Y191078*
Y190375*
X334364Y189953*
X334477Y189672*
X334705Y189391*
X334932Y189250*
X335386*
X335614Y189391*
X335841Y189672*
X335955Y189953*
X336977Y191641D02*
X337205Y191781D01*
X337545Y192203*
Y189250*
X338568Y191641D02*
X338795Y191781D01*
X339136Y192203*
Y189250*
X326250Y155203D02*
Y153094D01*
X326364Y152672*
X326591Y152391*
X326932Y152250*
X327159*
X327500Y152391*
X327727Y152672*
X327841Y153094*
Y155203*
X330341Y154219D02*
X330227Y153797D01*
X330000Y153516*
X329659Y153375*
X329545*
X329205Y153516*
X328977Y153797*
X328864Y154219*
Y154359*
X328977Y154781*
X329205Y155063*
X329205D02*
X329545Y155203D01*
X329659*
X330000Y155063*
X330000D02*
X330227Y154781D01*
X330341Y154219*
Y153516*
X330227Y152813*
X330227D02*
X330000Y152391D01*
X329659Y152250*
X329432*
X329091Y152391*
X328977Y152672*
X341250Y169195D02*
Y167086D01*
X341364Y166664*
X341591Y166383*
X341932Y166242*
X342159*
X342500Y166383*
X342727Y166664*
X342841Y167086*
Y169195*
X343977Y168492D02*
Y168633D01*
X344091Y168914*
X344205Y169055*
X344432Y169195*
X344886*
X345114Y169055*
X345227Y168914*
X345341Y168633*
Y168352*
X345227Y168070*
X345000Y167648*
X343864Y166242*
X345455*
X255250Y146203D02*
Y144094D01*
X255364Y143672*
X255591Y143391*
X255932Y143250*
X256159*
X256500Y143391*
X256727Y143672*
X256841Y144094*
Y146203*
X259227Y145781D02*
X259114Y146063D01*
X259114D02*
X258773Y146203D01*
X258545*
X258205Y146063*
X258205D02*
X257977Y145641D01*
X257864Y144938*
X257864D02*
Y144234D01*
X257977Y143672*
X258205Y143391*
X258545Y143250*
X258659*
X259000Y143391*
X259227Y143672*
X259341Y144094*
Y144234*
X259227Y144656*
X259000Y144938*
X259000D02*
X258659Y145078D01*
X258545*
X258205Y144938*
X258205D02*
X257977Y144656D01*
X257864Y144234*
X250841Y132781D02*
X250614Y133063D01*
X250614D02*
X250273Y133203D01*
X249818*
X249477Y133063*
X249477D02*
X249250Y132781D01*
Y132500*
X249364Y132219*
X249477Y132078*
X249705Y131938*
X249705D02*
X250386Y131656D01*
X250614Y131516*
X250727Y131375*
X250841Y131094*
Y130672*
X250614Y130391*
X250273Y130250*
X249818*
X249477Y130391*
X249250Y130672*
X251864Y132641D02*
X252091Y132781D01*
X252432Y133203*
Y130250*
X270250Y292203D02*
Y289250D01*
X271614*
X272636Y291641D02*
X272864Y291781D01*
X273205Y292203*
Y289250*
X178250Y148203D02*
Y145250D01*
X179614*
X180750Y147500D02*
Y147641D01*
X180864Y147922*
X180977Y148063*
X180977D02*
X181205Y148203D01*
X181659*
X181886Y148063*
X181886D02*
X182000Y147922D01*
X182114Y147641*
Y147359*
X182000Y147078*
X181773Y146656*
X180636Y145250*
X182227*
X317500Y157045D02*
X317781Y157159D01*
X318063Y157386*
X318203Y157614*
Y158068*
X318063Y158295*
X317781Y158523*
X317500Y158636*
X317078Y158750*
X316375*
X315953Y158636*
X315672Y158523*
X315391Y158295*
X315250Y158068*
Y157614*
X315391Y157386*
X315672Y157159*
X315953Y157045*
X317641Y156023D02*
X317781Y155795D01*
X318203Y155455*
X315250*
X317219Y152955D02*
X316797Y153068D01*
X316516Y153295*
X316375Y153636*
Y153750*
X316516Y154091*
X316797Y154318*
X317219Y154432*
X317359*
X317781Y154318*
X318063Y154091*
X318203Y153750*
Y153636*
X318063Y153295*
X317781Y153068*
X317219Y152955*
X316516*
X315813Y153068*
X315391Y153295*
X315250Y153636*
Y153864*
X315391Y154205*
X315672Y154318*
X339500Y150045D02*
X339781Y150159D01*
X340063Y150386*
X340063D02*
X340203Y150614D01*
Y151068*
X340063Y151295*
X340063D02*
X339781Y151523D01*
X339500Y151636*
X339078Y151750*
X338375*
X337953Y151636*
X337672Y151523*
X337391Y151295*
X337250Y151068*
Y150614*
X337391Y150386*
X337672Y150159*
X337953Y150045*
X339500Y148909D02*
X339641D01*
X339922Y148795*
X340063Y148682*
X340063D02*
X340203Y148455D01*
Y148000*
X340063Y147773*
X340063D02*
X339922Y147659D01*
X339641Y147545*
X339359*
X339078Y147659*
X338656Y147886*
X337250Y149023*
Y147432*
X340203Y145727D02*
X340063Y146068D01*
X340063D02*
X339641Y146295D01*
X338938Y146409*
X338938D02*
X338516D01*
X337813Y146295*
X337813D02*
X337391Y146068D01*
X337250Y145727*
Y145500*
X337391Y145159*
X337813Y144932*
X337813D02*
X338516Y144818D01*
X338938*
X338938D02*
X339641Y144932D01*
X340063Y145159*
X340063D02*
X340203Y145500D01*
Y145727*
X369500Y152045D02*
X369781Y152159D01*
X370062Y152386*
X370062D02*
X370203Y152614D01*
Y153068*
X370062Y153295*
X370062D02*
X369781Y153523D01*
X369500Y153636*
X369078Y153750*
X368375*
X367953Y153636*
X367672Y153523*
X367391Y153295*
X367250Y153068*
Y152614*
X367391Y152386*
X367672Y152159*
X367953Y152045*
X369500Y150909D02*
X369641D01*
X369922Y150795*
X370062Y150682*
X370062D02*
X370203Y150455D01*
Y150000*
X370062Y149773*
X370062D02*
X369922Y149659D01*
X369641Y149545*
X369359*
X369078Y149659*
X368656Y149886*
X367250Y151023*
Y149432*
X369500Y148295D02*
X369641D01*
X369922Y148182*
X370062Y148068*
X370062D02*
X370203Y147841D01*
Y147386*
X370062Y147159*
X370062D02*
X369922Y147045D01*
X369641Y146932*
X369359*
X369078Y147045*
X368656Y147273*
X367250Y148409*
Y146818*
X347955Y139500D02*
X347841Y139781D01*
X347614Y140063*
X347614D02*
X347386Y140203D01*
X346932*
X346705Y140063*
X346705D02*
X346477Y139781D01*
X346364Y139500*
X346250Y139078*
Y138375*
X346364Y137953*
X346477Y137672*
X346705Y137391*
X346932Y137250*
X347386*
X347614Y137391*
X347841Y137672*
X347955Y137953*
X349091Y139500D02*
Y139641D01*
X349205Y139922*
X349318Y140063*
X349318D02*
X349545Y140203D01*
X350000*
X350227Y140063*
X350227D02*
X350341Y139922D01*
X350455Y139641*
Y139359*
X350341Y139078*
X350114Y138656*
X348977Y137250*
X350568*
X353068Y140203D02*
X351932D01*
X351818Y138938*
X351818D02*
X351932Y139078D01*
X352273Y139219*
X352614*
X352955Y139078*
X353182Y138797*
X353295Y138375*
X353182Y138094*
X353068Y137672*
X352841Y137391*
X352500Y137250*
X352159*
X351818Y137391*
X351705Y137531*
X351591Y137813*
X394386Y300203D02*
Y297953D01*
X394273Y297531*
X394159Y297391*
X393932Y297250*
X393705*
X393477Y297391*
X393364Y297531*
X393250Y297953*
Y298234*
X396545Y300203D02*
X395409Y298234D01*
X397114*
X396545Y300203D02*
Y297250D01*
X326250Y232203D02*
Y230094D01*
X326364Y229672*
X326591Y229391*
X326932Y229250*
X327159*
X327500Y229391*
X327727Y229672*
X327841Y230094*
Y232203*
X329432D02*
X329091Y232063D01*
X329091D02*
X328977Y231781D01*
Y231500*
X329091Y231219*
X329318Y231078*
X329773Y230938*
X329773D02*
X330114Y230797D01*
X330341Y230516*
X330455Y230234*
Y229813*
X330455D02*
X330341Y229531D01*
X330227Y229391*
X329886Y229250*
X329432*
X329091Y229391*
X328977Y229531*
X328864Y229813*
X328864D02*
Y230234D01*
X328977Y230516*
X329205Y230797*
X329545Y230938*
X329545D02*
X330000Y231078D01*
X330227Y231219*
X330341Y231500*
Y231781*
X330227Y232063*
X330227D02*
X329886Y232203D01*
X329432*
X174250Y287203D02*
Y284250D01*
Y287203D02*
X175045D01*
X175386Y287063*
X175386D02*
X175614Y286781D01*
X175727Y286500*
X175841Y286078*
Y285375*
X175727Y284953*
X175614Y284672*
X175386Y284391*
X175045Y284250*
X174250*
X176864Y286641D02*
X177091Y286781D01*
X177432Y287203*
Y284250*
X207500Y161045D02*
X207781Y161159D01*
X208063Y161386*
X208063D02*
X208203Y161614D01*
Y162068*
X208063Y162295*
X208063D02*
X207781Y162523D01*
X207500Y162636*
X207078Y162750*
X206375*
X205953Y162636*
X205672Y162523*
X205391Y162295*
X205250Y162068*
Y161614*
X205391Y161386*
X205672Y161159*
X205953Y161045*
X207500Y159909D02*
X207641D01*
X207922Y159795*
X208063Y159682*
X208063D02*
X208203Y159455D01*
Y159000*
X208063Y158773*
X208063D02*
X207922Y158659D01*
X207641Y158545*
X207359*
X207078Y158659*
X206656Y158886*
X205250Y160023*
Y158432*
X208203Y157182D02*
Y155932D01*
X207078Y156614*
Y156273*
X206938Y156045*
X206938D02*
X206797Y155932D01*
X206375Y155818*
X206094*
X205672Y155932*
X205391Y156159*
X205250Y156500*
Y156841*
X205391Y157182*
X205531Y157295*
X205813Y157409*
X207500Y231045D02*
X207781Y231159D01*
X208063Y231386*
X208063D02*
X208203Y231614D01*
Y232068*
X208063Y232295*
X208063D02*
X207781Y232523D01*
X207500Y232636*
X207078Y232750*
X206375*
X205953Y232636*
X205672Y232523*
X205391Y232295*
X205250Y232068*
Y231614*
X205391Y231386*
X205672Y231159*
X205953Y231045*
X207500Y229909D02*
X207641D01*
X207922Y229795*
X208063Y229682*
X208063D02*
X208203Y229455D01*
Y229000*
X208063Y228773*
X208063D02*
X207922Y228659D01*
X207641Y228545*
X207359*
X207078Y228659*
X206656Y228886*
X205250Y230023*
Y228432*
X208203Y226273D02*
X206234Y227409D01*
Y225705*
X208203Y226273D02*
X205250D01*
X315955Y190500D02*
X315841Y190781D01*
X315614Y191063*
X315614D02*
X315386Y191203D01*
X314932*
X314705Y191063*
X314705D02*
X314477Y190781D01*
X314364Y190500*
X314250Y190078*
Y189375*
X314364Y188953*
X314477Y188672*
X314705Y188391*
X314932Y188250*
X315386*
X315614Y188391*
X315841Y188672*
X315955Y188953*
X317205Y191203D02*
X318455D01*
X317773Y190078*
X318114*
X318341Y189938*
X318341D02*
X318455Y189797D01*
X318568Y189375*
Y189094*
X318455Y188672*
X318227Y188391*
X317886Y188250*
X317545*
X317205Y188391*
X317091Y188531*
X316977Y188813*
X319818Y191203D02*
X321068D01*
X320386Y190078*
X320727*
X320955Y189938*
X320955D02*
X321068Y189797D01*
X321182Y189375*
Y189094*
X321068Y188672*
X320841Y188391*
X320500Y188250*
X320159*
X319818Y188391*
X319705Y188531*
X319591Y188813*
X270250Y147203D02*
Y144250D01*
Y147203D02*
X271273D01*
X271614Y147063*
X271614D02*
X271727Y146922D01*
X271841Y146641*
Y146359*
X271727Y146078*
X271614Y145938*
X271614D02*
X271273Y145797D01*
X270250*
X271045D02*
X271841Y144250D01*
X274227Y146781D02*
X274114Y147063D01*
X274114D02*
X273773Y147203D01*
X273545*
X273205Y147063*
X273205D02*
X272977Y146641D01*
X272864Y145938*
X272864D02*
Y145234D01*
X272977Y144672*
X273205Y144391*
X273545Y144250*
X273659*
X274000Y144391*
X274227Y144672*
X274341Y145094*
Y145234*
X274227Y145656*
X274000Y145938*
X274000D02*
X273659Y146078D01*
X273545*
X273205Y145938*
X273205D02*
X272977Y145656D01*
X272864Y145234*
X311195Y264750D02*
X308242D01*
X311195D02*
Y263727D01*
X311055Y263386*
X310914Y263273*
X310633Y263159*
X310352*
X310070Y263273*
X309930Y263386*
X309789Y263727*
Y264750*
Y263955D02*
X308242Y263159D01*
X311195Y260545D02*
X308242Y261682D01*
X311195Y262136D02*
Y260545D01*
X288955Y172500D02*
X288841Y172781D01*
X288614Y173063*
X288614D02*
X288386Y173203D01*
X287932*
X287705Y173063*
X287705D02*
X287477Y172781D01*
X287364Y172500*
X287250Y172078*
Y171375*
X287364Y170953*
X287477Y170672*
X287705Y170391*
X287932Y170250*
X288386*
X288614Y170391*
X288841Y170672*
X288955Y170953*
X290205Y173203D02*
X291455D01*
X290773Y172078*
X291114*
X291341Y171938*
X291341D02*
X291455Y171797D01*
X291568Y171375*
Y171094*
X291455Y170672*
X291227Y170391*
X290886Y170250*
X290545*
X290205Y170391*
X290091Y170531*
X289977Y170813*
X293727Y173203D02*
X292591Y171234D01*
X294295*
X293727Y173203D02*
Y170250D01*
X290250Y182203D02*
X291159Y180797D01*
Y179250*
X292068Y182203D02*
X291159Y180797D01*
X293091Y181641D02*
X293318Y181781D01*
X293659Y182203*
Y179250*
X267250Y217203D02*
Y215094D01*
X267364Y214672*
X267591Y214391*
X267932Y214250*
X268159*
X268500Y214391*
X268727Y214672*
X268841Y215094*
Y217203*
X271455D02*
X270318Y214250D01*
X269864Y217203D02*
X271455D01*
X214250Y282203D02*
Y280094D01*
X214364Y279672*
X214591Y279391*
X214932Y279250*
X215159*
X215500Y279391*
X215727Y279672*
X215841Y280094*
Y282203*
X217091D02*
X218341D01*
X217659Y281078*
X218000*
X218227Y280938*
X218227D02*
X218341Y280797D01*
X218455Y280375*
Y280094*
X218341Y279672*
X218114Y279391*
X217773Y279250*
X217432*
X217091Y279391*
X216977Y279531*
X216864Y279813*
X226203Y170750D02*
X223250D01*
X226203D02*
Y169727D01*
X226062Y169386*
X226062D02*
X225922Y169273D01*
X225641Y169159*
X225359*
X225078Y169273*
X224937Y169386*
X224937D02*
X224797Y169727D01*
Y170750*
Y169955D02*
X223250Y169159D01*
X225641Y168136D02*
X225781Y167909D01*
X226203Y167568*
X223250*
X225500Y166432D02*
X225641D01*
X225922Y166318*
X226062Y166205*
X226062D02*
X226203Y165977D01*
Y165523*
X226062Y165295*
X226062D02*
X225922Y165182D01*
X225641Y165068*
X225359*
X225078Y165182*
X224656Y165409*
X223250Y166545*
Y164955*
X208203Y180750D02*
X205250D01*
X208203D02*
Y179727D01*
X208063Y179386*
X208063D02*
X207922Y179273D01*
X207641Y179159*
X207359*
X207078Y179273*
X206938Y179386*
X206938D02*
X206797Y179727D01*
Y180750*
Y179955D02*
X205250Y179159D01*
X207641Y178136D02*
X207781Y177909D01*
X208203Y177568*
X205250*
X208203Y176318D02*
Y175068D01*
X207078Y175750*
Y175409*
X206938Y175182*
X206938D02*
X206797Y175068D01*
X206375Y174955*
X206094*
X205672Y175068*
X205391Y175295*
X205250Y175636*
Y175977*
X205391Y176318*
X205531Y176432*
X205813Y176545*
X226203Y190750D02*
X223250D01*
X226203D02*
Y189727D01*
X226062Y189386*
X226062D02*
X225922Y189273D01*
X225641Y189159*
X225359*
X225078Y189273*
X224937Y189386*
X224937D02*
X224797Y189727D01*
Y190750*
Y189955D02*
X223250Y189159D01*
X225641Y188136D02*
X225781Y187909D01*
X226203Y187568*
X223250*
X226203Y185409D02*
X224234Y186545D01*
Y184841*
X226203Y185409D02*
X223250D01*
X220203Y201750D02*
X217250D01*
X220203D02*
Y200727D01*
X220062Y200386*
X220062D02*
X219922Y200273D01*
X219641Y200159*
X219359*
X219078Y200273*
X218937Y200386*
X218937D02*
X218797Y200727D01*
Y201750*
Y200955D02*
X217250Y200159D01*
X219641Y199136D02*
X219781Y198909D01*
X220203Y198568*
X217250*
X220203Y196068D02*
Y197205D01*
X218937Y197318*
X218937D02*
X219078Y197205D01*
X219219Y196864*
Y196523*
X219078Y196182*
X218797Y195955*
X218375Y195841*
X218094Y195955*
X217672Y196068*
X217391Y196295*
X217250Y196636*
Y196977*
X217391Y197318*
X217531Y197432*
X217812Y197545*
X226203Y241750D02*
X223250D01*
X226203D02*
Y240727D01*
X226062Y240386*
X226062D02*
X225922Y240273D01*
X225641Y240159*
X225359*
X225078Y240273*
X224937Y240386*
X224937D02*
X224797Y240727D01*
Y241750*
Y240955D02*
X223250Y240159D01*
X225641Y239136D02*
X225781Y238909D01*
X226203Y238568*
X223250*
X225781Y236182D02*
X226062Y236295D01*
X226062D02*
X226203Y236636D01*
Y236864*
X226062Y237205*
X226062D02*
X225641Y237432D01*
X224937Y237545*
X224937D02*
X224234D01*
X223672Y237432*
X223391Y237205*
X223250Y236864*
Y236750*
X223391Y236409*
X223672Y236182*
X224094Y236068*
X224234*
X224656Y236182*
X224937Y236409*
X224937D02*
X225078Y236750D01*
Y236864*
X224937Y237205*
X224937D02*
X224656Y237432D01*
X224234Y237545*
X208203Y251750D02*
X205250D01*
X208203D02*
Y250727D01*
X208063Y250386*
X208063D02*
X207922Y250273D01*
X207641Y250159*
X207359*
X207078Y250273*
X206938Y250386*
X206938D02*
X206797Y250727D01*
Y251750*
Y250955D02*
X205250Y250159D01*
X207641Y249136D02*
X207781Y248909D01*
X208203Y248568*
X205250*
X208203Y245955D02*
X205250Y247091D01*
X208203Y247545D02*
Y245955D01*
X226203Y261750D02*
X223250D01*
X226203D02*
Y260727D01*
X226062Y260386*
X226062D02*
X225922Y260273D01*
X225641Y260159*
X225359*
X225078Y260273*
X224937Y260386*
X224937D02*
X224797Y260727D01*
Y261750*
Y260955D02*
X223250Y260159D01*
X225641Y259136D02*
X225781Y258909D01*
X226203Y258568*
X223250*
X226203Y256977D02*
X226062Y257318D01*
X226062D02*
X225781Y257432D01*
X225500*
X225219Y257318*
X225078Y257091*
X224937Y256636*
X224937D02*
X224797Y256295D01*
X224516Y256068*
X224234Y255955*
X223812*
X223812D02*
X223531Y256068D01*
X223391Y256182*
X223250Y256523*
Y256977*
X223391Y257318*
X223531Y257432*
X223812Y257545*
X223812D02*
X224234D01*
X224516Y257432*
X224797Y257205*
X224937Y256864*
X224937D02*
X225078Y256409D01*
X225219Y256182*
X225500Y256068*
X225781*
X226062Y256182*
X226062D02*
X226203Y256523D01*
Y256977*
X220203Y271750D02*
X217250D01*
X220203D02*
Y270727D01*
X220062Y270386*
X220062D02*
X219922Y270273D01*
X219641Y270159*
X219359*
X219078Y270273*
X218937Y270386*
X218937D02*
X218797Y270727D01*
Y271750*
Y270955D02*
X217250Y270159D01*
X219641Y269136D02*
X219781Y268909D01*
X220203Y268568*
X217250*
X219219Y266068D02*
X218797Y266182D01*
X218516Y266409*
X218375Y266750*
Y266864*
X218516Y267205*
X218797Y267432*
X219219Y267545*
X219359*
X219781Y267432*
X220062Y267205*
X220062D02*
X220203Y266864D01*
Y266750*
X220062Y266409*
X220062D02*
X219781Y266182D01*
X219219Y266068*
X218516*
X217812Y266182*
X217812D02*
X217391Y266409D01*
X217250Y266750*
Y266977*
X217391Y267318*
X217672Y267432*
X299195Y264750D02*
X296242D01*
X299195D02*
Y263727D01*
X299055Y263386*
X298914Y263273*
X298633Y263159*
X298352*
X298070Y263273*
X297930Y263386*
X297789Y263727*
Y264750*
Y263955D02*
X296242Y263159D01*
X299195Y260659D02*
Y261795D01*
X297930Y261909*
X298070Y261795*
X298211Y261455*
Y261114*
X298070Y260773*
X297789Y260545*
X297367Y260432*
X297086Y260545*
X296664Y260659*
X296383Y260886*
X296242Y261227*
Y261568*
X296383Y261909*
X296523Y262023*
X296805Y262136*
X298492Y259295D02*
X298633D01*
X298914Y259182*
X299055Y259068*
X299195Y258841*
Y258386*
X299055Y258159*
X298914Y258045*
X298633Y257932*
X298352*
X298070Y258045*
X297648Y258273*
X296242Y259409*
Y257818*
X356955Y139500D02*
X356841Y139781D01*
X356614Y140063*
X356614D02*
X356386Y140203D01*
X355932*
X355705Y140063*
X355705D02*
X355477Y139781D01*
X355364Y139500*
X355250Y139078*
Y138375*
X355364Y137953*
X355477Y137672*
X355705Y137391*
X355932Y137250*
X356386*
X356614Y137391*
X356841Y137672*
X356955Y137953*
X358091Y139500D02*
Y139641D01*
X358205Y139922*
X358318Y140063*
X358318D02*
X358545Y140203D01*
X359000*
X359227Y140063*
X359227D02*
X359341Y139922D01*
X359455Y139641*
Y139359*
X359341Y139078*
X359114Y138656*
X357977Y137250*
X359568*
X360591Y139641D02*
X360818Y139781D01*
X361159Y140203*
Y137250*
X168250Y107203D02*
Y105094D01*
X168364Y104672*
X168591Y104391*
X168932Y104250*
X169159*
X169500Y104391*
X169727Y104672*
X169841Y105094*
Y107203*
X172000D02*
X170864Y105234D01*
X172568*
X172000Y107203D02*
Y104250D01*
X124250Y284203D02*
Y281250D01*
Y284203D02*
X125045D01*
X125386Y284063*
X125386D02*
X125614Y283781D01*
X125727Y283500*
X125841Y283078*
Y282375*
X125727Y281953*
X125614Y281672*
X125386Y281391*
X125045Y281250*
X124250*
X128000Y284203D02*
X126864Y282234D01*
X128568*
X128000Y284203D02*
Y281250D01*
X124250Y300203D02*
Y297250D01*
Y300203D02*
X125045D01*
X125386Y300063*
X125386D02*
X125614Y299781D01*
X125727Y299500*
X125841Y299078*
Y298375*
X125727Y297953*
X125614Y297672*
X125386Y297391*
X125045Y297250*
X124250*
X128227Y299781D02*
X128114Y300063D01*
X128114D02*
X127773Y300203D01*
X127545*
X127205Y300063*
X127205D02*
X126977Y299641D01*
X126864Y298938*
X126864D02*
Y298234D01*
X126977Y297672*
X127205Y297391*
X127545Y297250*
X127659*
X128000Y297391*
X128227Y297672*
X128341Y298094*
Y298234*
X128227Y298656*
X128000Y298938*
X128000D02*
X127659Y299078D01*
X127545*
X127205Y298938*
X127205D02*
X126977Y298656D01*
X126864Y298234*
X124250Y292203D02*
Y289250D01*
Y292203D02*
X125045D01*
X125386Y292063*
X125386D02*
X125614Y291781D01*
X125727Y291500*
X125841Y291078*
Y290375*
X125727Y289953*
X125614Y289672*
X125386Y289391*
X125045Y289250*
X124250*
X128455Y292203D02*
X127318Y289250D01*
X126864Y292203D02*
X128455D01*
X396386Y186203D02*
Y183953D01*
X396273Y183531*
X396159Y183391*
X395932Y183250*
X395705*
X395477Y183391*
X395364Y183531*
X395250Y183953*
Y184234*
X397636Y186203D02*
X398886D01*
X398205Y185078*
X398545*
X398773Y184938*
X398773D02*
X398886Y184797D01*
X399000Y184375*
Y184094*
X398886Y183672*
X398659Y183391*
X398318Y183250*
X397977*
X397636Y183391*
X397523Y183531*
X397409Y183813*
X305195Y264750D02*
X302242D01*
X305195D02*
Y263727D01*
X305055Y263386*
X304914Y263273*
X304633Y263159*
X304352*
X304070Y263273*
X303930Y263386*
X303789Y263727*
Y264750*
Y263955D02*
X302242Y263159D01*
X305195Y261000D02*
X303227Y262136D01*
Y260432*
X305195Y261000D02*
X302242D01*
X304633Y259409D02*
X304773Y259182D01*
X305195Y258841*
X302242*
X287195Y264750D02*
X284242D01*
X287195D02*
Y263727D01*
X287055Y263386*
X286914Y263273*
X286633Y263159*
X286352*
X286070Y263273*
X285930Y263386*
X285789Y263727*
Y264750*
Y263955D02*
X284242Y263159D01*
X287195Y261000D02*
X285227Y262136D01*
Y260432*
X287195Y261000D02*
X284242D01*
X286492Y259295D02*
X286633D01*
X286914Y259182*
X287055Y259068*
X287195Y258841*
Y258386*
X287055Y258159*
X286914Y258045*
X286633Y257932*
X286352*
X286070Y258045*
X285648Y258273*
X284242Y259409*
Y257818*
X293195Y264750D02*
X290242D01*
X293195D02*
Y263727D01*
X293055Y263386*
X292914Y263273*
X292633Y263159*
X292352*
X292070Y263273*
X291930Y263386*
X291789Y263727*
Y264750*
Y263955D02*
X290242Y263159D01*
X293195Y261000D02*
X291227Y262136D01*
Y260432*
X293195Y261000D02*
X290242D01*
X293195Y259182D02*
Y257932D01*
X292070Y258614*
Y258273*
X291930Y258045*
X291789Y257932*
X291367Y257818*
X291086*
X290664Y257932*
X290383Y258159*
X290242Y258500*
Y258841*
X290383Y259182*
X290523Y259295*
X290805Y259409*
X281195Y264750D02*
X278242D01*
X281195D02*
Y263727D01*
X281055Y263386*
X280914Y263273*
X280633Y263159*
X280352*
X280070Y263273*
X279930Y263386*
X279789Y263727*
Y264750*
Y263955D02*
X278242Y263159D01*
X281195Y261000D02*
X279227Y262136D01*
Y260432*
X281195Y261000D02*
X278242D01*
X281195Y258273D02*
X279227Y259409D01*
Y257705*
X281195Y258273D02*
X278242D01*
X317195Y264750D02*
X314242D01*
X317195D02*
Y263727D01*
X317055Y263386*
X316914Y263273*
X316633Y263159*
X316352*
X316070Y263273*
X315930Y263386*
X315789Y263727*
Y264750*
Y263955D02*
X314242Y263159D01*
X317195Y261000D02*
X315227Y262136D01*
Y260432*
X317195Y261000D02*
X314242D01*
X317195Y257932D02*
Y259068D01*
X315930Y259182*
X316070Y259068*
X316211Y258727*
Y258386*
X316070Y258045*
X315789Y257818*
X315367Y257705*
X315086Y257818*
X314664Y257932*
X314383Y258159*
X314242Y258500*
Y258841*
X314383Y259182*
X314523Y259295*
X314805Y259409*
X103250Y131203D02*
Y128250D01*
Y131203D02*
X104045D01*
X104386Y131063*
X104386D02*
X104614Y130781D01*
X104727Y130500*
X104841Y130078*
Y129375*
X104727Y128953*
X104614Y128672*
X104386Y128391*
X104045Y128250*
X103250*
X107341Y131203D02*
X106205D01*
X106091Y129938*
X106091D02*
X106205Y130078D01*
X106545Y130219*
X106886*
X107227Y130078*
X107455Y129797*
X107568Y129375*
X107455Y129094*
X107341Y128672*
X107114Y128391*
X106773Y128250*
X106432*
X106091Y128391*
X105977Y128531*
X105864Y128813*
X130250Y118203D02*
Y115250D01*
Y118203D02*
X131045D01*
X131386Y118062*
X131386D02*
X131614Y117781D01*
X131727Y117500*
X131841Y117078*
Y116375*
X131727Y115953*
X131614Y115672*
X131386Y115391*
X131045Y115250*
X130250*
X132977Y117500D02*
Y117641D01*
X133091Y117922*
X133205Y118062*
X133205D02*
X133432Y118203D01*
X133886*
X134114Y118062*
X134114D02*
X134227Y117922D01*
X134341Y117641*
Y117359*
X134227Y117078*
X134000Y116656*
X132864Y115250*
X134455*
X186250Y284203D02*
Y281250D01*
Y284203D02*
X187045D01*
X187386Y284063*
X187386D02*
X187614Y283781D01*
X187727Y283500*
X187841Y283078*
Y282375*
X187727Y281953*
X187614Y281672*
X187386Y281391*
X187045Y281250*
X186250*
X189091Y284203D02*
X190341D01*
X189659Y283078*
X190000*
X190227Y282938*
X190227D02*
X190341Y282797D01*
X190455Y282375*
Y282094*
X190341Y281672*
X190114Y281391*
X189773Y281250*
X189432*
X189091Y281391*
X188977Y281531*
X188864Y281813*
X110250Y132203D02*
Y129250D01*
Y132203D02*
X111273D01*
X111614Y132063*
X111614D02*
X111727Y131922D01*
X111841Y131641*
Y131359*
X111727Y131078*
X111614Y130938*
X111614D02*
X111273Y130797D01*
X110250*
X111045D02*
X111841Y129250D01*
X114341Y132203D02*
X113205D01*
X113091Y130938*
X113091D02*
X113205Y131078D01*
X113545Y131219*
X113886*
X114227Y131078*
X114455Y130797*
X114568Y130375*
X114455Y130094*
X114341Y129672*
X114114Y129391*
X113773Y129250*
X113432*
X113091Y129391*
X112977Y129531*
X112864Y129813*
X115818Y132203D02*
X117068D01*
X116386Y131078*
X116727*
X116955Y130938*
X116955D02*
X117068Y130797D01*
X117182Y130375*
Y130094*
X117068Y129672*
X116841Y129391*
X116500Y129250*
X116159*
X115818Y129391*
X115705Y129531*
X115591Y129813*
X278250Y161203D02*
Y158250D01*
Y161203D02*
X279273D01*
X279614Y161063*
X279614D02*
X279727Y160922D01*
X279841Y160641*
Y160359*
X279727Y160078*
X279614Y159938*
X279614D02*
X279273Y159797D01*
X278250*
X279045D02*
X279841Y158250D01*
X282000Y161203D02*
X280864Y159234D01*
X282568*
X282000Y161203D02*
Y158250D01*
X284955Y160781D02*
X284841Y161063D01*
X284841D02*
X284500Y161203D01*
X284273*
X283932Y161063*
X283932D02*
X283705Y160641D01*
X283591Y159938*
X283591D02*
Y159234D01*
X283705Y158672*
X283932Y158391*
X284273Y158250*
X284386*
X284727Y158391*
X284955Y158672*
X285068Y159094*
Y159234*
X284955Y159656*
X284727Y159938*
X284727D02*
X284386Y160078D01*
X284273*
X283932Y159938*
X283932D02*
X283705Y159656D01*
X283591Y159234*
X323195Y264750D02*
X320242D01*
X323195D02*
Y263727D01*
X323055Y263386*
X322914Y263273*
X322633Y263159*
X322352*
X322070Y263273*
X321930Y263386*
X321789Y263727*
Y264750*
Y263955D02*
X320242Y263159D01*
X323195Y260659D02*
Y261795D01*
X321930Y261909*
X322070Y261795*
X322211Y261455*
Y261114*
X322070Y260773*
X321789Y260545*
X321367Y260432*
X321086Y260545*
X320664Y260659*
X320383Y260886*
X320242Y261227*
Y261568*
X320383Y261909*
X320523Y262023*
X320805Y262136*
X192955Y313500D02*
X192841Y313781D01*
X192614Y314063*
X192614D02*
X192386Y314203D01*
X191932*
X191705Y314063*
X191705D02*
X191477Y313781D01*
X191364Y313500*
X191250Y313078*
Y312375*
X191364Y311953*
X191477Y311672*
X191705Y311391*
X191932Y311250*
X192386*
X192614Y311391*
X192841Y311672*
X192955Y311953*
X193977Y313641D02*
X194205Y313781D01*
X194545Y314203*
Y311250*
X196932Y313781D02*
X196818Y314063D01*
X196818D02*
X196477Y314203D01*
X196250*
X195909Y314063*
X195909D02*
X195682Y313641D01*
X195568Y312938*
X195568D02*
Y312234D01*
X195682Y311672*
X195909Y311391*
X196250Y311250*
X196364*
X196705Y311391*
X196932Y311672*
X197045Y312094*
Y312234*
X196932Y312656*
X196705Y312938*
X196705D02*
X196364Y313078D01*
X196250*
X195909Y312938*
X195909D02*
X195682Y312656D01*
X195568Y312234*
X228955Y139500D02*
X228841Y139781D01*
X228614Y140063*
X228614D02*
X228386Y140203D01*
X227932*
X227705Y140063*
X227705D02*
X227477Y139781D01*
X227364Y139500*
X227250Y139078*
Y138375*
X227364Y137953*
X227477Y137672*
X227705Y137391*
X227932Y137250*
X228386*
X228614Y137391*
X228841Y137672*
X228955Y137953*
X229977Y139641D02*
X230205Y139781D01*
X230545Y140203*
Y137250*
X233159Y140203D02*
X232023Y137250D01*
X231568Y140203D02*
X233159D01*
X155955Y147500D02*
X155841Y147781D01*
X155614Y148063*
X155614D02*
X155386Y148203D01*
X154932*
X154705Y148063*
X154705D02*
X154477Y147781D01*
X154364Y147500*
X154250Y147078*
Y146375*
X154364Y145953*
X154477Y145672*
X154705Y145391*
X154932Y145250*
X155386*
X155614Y145391*
X155841Y145672*
X155955Y145953*
X156977Y147641D02*
X157205Y147781D01*
X157545Y148203*
Y145250*
X159136Y148203D02*
X158795Y148063D01*
X158795D02*
X158682Y147781D01*
Y147500*
X158795Y147219*
X159023Y147078*
X159477Y146938*
X159477D02*
X159818Y146797D01*
X160045Y146516*
X160159Y146234*
Y145813*
X160159D02*
X160045Y145531D01*
X159932Y145391*
X159591Y145250*
X159136*
X158795Y145391*
X158682Y145531*
X158568Y145813*
X158568D02*
Y146234D01*
X158682Y146516*
X158909Y146797*
X159250Y146938*
X159250D02*
X159705Y147078D01*
X159932Y147219*
X160045Y147500*
Y147781*
X159932Y148063*
X159932D02*
X159591Y148203D01*
X159136*
X270682Y131195D02*
X269545D01*
X269432Y129930*
X269545Y130070*
X269886Y130211*
X270227*
X270568Y130070*
X270795Y129789*
X270909Y129367*
X270795Y129086*
X270682Y128664*
X270455Y128383*
X270114Y128242*
X269773*
X269432Y128383*
X269318Y128523*
X269205Y128805*
X271932Y130211D02*
X272614Y128242D01*
X273295Y130211D02*
X272614Y128242D01*
X319659Y130203D02*
X319318Y130063D01*
X319318D02*
X319091Y129641D01*
X318977Y128938*
X318977D02*
Y128516D01*
X319091Y127813*
X319091D02*
X319318Y127391D01*
X319659Y127250*
X319886*
X320227Y127391*
X320455Y127813*
X320455D02*
X320568Y128516D01*
Y128938*
X320568D02*
X320455Y129641D01*
X320227Y130063*
X320227D02*
X319886Y130203D01*
X319659*
X290398Y129781D02*
X290284Y130063D01*
X290284D02*
X289943Y130203D01*
X289716*
X289375Y130063*
X289375D02*
X289148Y129641D01*
X289034Y128938*
X289034D02*
Y128234D01*
X289148Y127672*
X289375Y127391*
X289716Y127250*
X289830*
X290170Y127391*
X290398Y127672*
X290511Y128094*
Y128234*
X290398Y128656*
X290170Y128938*
X290170D02*
X289830Y129078D01*
X289716*
X289375Y128938*
X289375D02*
X289148Y128656D01*
X289034Y128234*
X369659Y130203D02*
X369318Y130063D01*
X369318D02*
X369091Y129641D01*
X368977Y128938*
X368977D02*
Y128516D01*
X369091Y127813*
X369091D02*
X369318Y127391D01*
X369659Y127250*
X369886*
X370227Y127391*
X370455Y127813*
X370455D02*
X370568Y128516D01*
Y128938*
X370568D02*
X370455Y129641D01*
X370227Y130063*
X370227D02*
X369886Y130203D01*
X369659*
X340398Y129781D02*
X340284Y130063D01*
X340284D02*
X339943Y130203D01*
X339716*
X339375Y130063*
X339375D02*
X339148Y129641D01*
X339034Y128938*
X339034D02*
Y128234D01*
X339148Y127672*
X339375Y127391*
X339716Y127250*
X339830*
X340170Y127391*
X340398Y127672*
X340511Y128094*
Y128234*
X340398Y128656*
X340170Y128938*
X340170D02*
X339830Y129078D01*
X339716*
X339375Y128938*
X339375D02*
X339148Y128656D01*
X339034Y128234*
X419797Y149659D02*
X419937Y149318D01*
X419937D02*
X420359Y149091D01*
X421062Y148977*
X421062D02*
X421484D01*
X422187Y149091*
X422187D02*
X422609Y149318D01*
X422750Y149659*
Y149886*
X422609Y150227*
X422187Y150455*
X422187D02*
X421484Y150568D01*
X421062*
X421062D02*
X420359Y150455D01*
X419937Y150227*
X419937D02*
X419797Y149886D01*
Y149659*
X420219Y120398D02*
X419937Y120284D01*
X419937D02*
X419797Y119943D01*
Y119716*
X419937Y119375*
X419937D02*
X420359Y119148D01*
X421062Y119034*
X421062D02*
X421766D01*
X422328Y119148*
X422609Y119375*
X422750Y119716*
Y119830*
X422609Y120170*
X422328Y120398*
X421906Y120511*
X421766*
X421344Y120398*
X421062Y120170*
X421062D02*
X420922Y119830D01*
Y119716*
X421062Y119375*
X421062D02*
X421344Y119148D01*
X421766Y119034*
X420219Y170398D02*
X419937Y170284D01*
X419937D02*
X419797Y169943D01*
Y169716*
X419937Y169375*
X419937D02*
X420359Y169148D01*
X421062Y169034*
X421062D02*
X421766D01*
X422328Y169148*
X422609Y169375*
X422750Y169716*
Y169830*
X422609Y170170*
X422328Y170398*
X421906Y170511*
X421766*
X421344Y170398*
X421062Y170170*
X421062D02*
X420922Y169830D01*
Y169716*
X421062Y169375*
X421062D02*
X421344Y169148D01*
X421766Y169034*
X419797Y199659D02*
X419937Y199318D01*
X419937D02*
X420359Y199091D01*
X421062Y198977*
X421062D02*
X421484D01*
X422187Y199091*
X422187D02*
X422609Y199318D01*
X422750Y199659*
Y199886*
X422609Y200227*
X422187Y200455*
X422187D02*
X421484Y200568D01*
X421062*
X421062D02*
X420359Y200455D01*
X419937Y200227*
X419937D02*
X419797Y199886D01*
Y199659*
X420219Y240398D02*
X419937Y240284D01*
X419937D02*
X419797Y239943D01*
Y239716*
X419937Y239375*
X419937D02*
X420359Y239148D01*
X421062Y239034*
X421062D02*
X421766D01*
X422328Y239148*
X422609Y239375*
X422750Y239716*
Y239830*
X422609Y240170*
X422328Y240398*
X421906Y240511*
X421766*
X421344Y240398*
X421062Y240170*
X421062D02*
X420922Y239830D01*
Y239716*
X421062Y239375*
X421062D02*
X421344Y239148D01*
X421766Y239034*
X419797Y269659D02*
X419937Y269318D01*
X419937D02*
X420359Y269091D01*
X421062Y268977*
X421062D02*
X421484D01*
X422187Y269091*
X422187D02*
X422609Y269318D01*
X422750Y269659*
Y269886*
X422609Y270227*
X422187Y270455*
X422187D02*
X421484Y270568D01*
X421062*
X421062D02*
X420359Y270455D01*
X419937Y270227*
X419937D02*
X419797Y269886D01*
Y269659*
X420219Y290398D02*
X419937Y290284D01*
X419937D02*
X419797Y289943D01*
Y289716*
X419937Y289375*
X419937D02*
X420359Y289148D01*
X421062Y289034*
X421062D02*
X421766D01*
X422328Y289148*
X422609Y289375*
X422750Y289716*
Y289830*
X422609Y290170*
X422328Y290398*
X421906Y290511*
X421766*
X421344Y290398*
X421062Y290170*
X421062D02*
X420922Y289830D01*
Y289716*
X421062Y289375*
X421062D02*
X421344Y289148D01*
X421766Y289034*
X419797Y319659D02*
X419937Y319318D01*
X419937D02*
X420359Y319091D01*
X421062Y318977*
X421062D02*
X421484D01*
X422187Y319091*
X422187D02*
X422609Y319318D01*
X422750Y319659*
Y319886*
X422609Y320227*
X422187Y320455*
X422187D02*
X421484Y320568D01*
X421062*
X421062D02*
X420359Y320455D01*
X419937Y320227*
X419937D02*
X419797Y319886D01*
Y319659*
X359602Y300219D02*
X359716Y299937D01*
X359716D02*
X360057Y299797D01*
X360284*
X360625Y299937*
X360625D02*
X360852Y300359D01*
X360966Y301062*
X360966D02*
Y301766D01*
X360852Y302328*
X360625Y302609*
X360284Y302750*
X360170*
X359830Y302609*
X359602Y302328*
X359489Y301906*
Y301766*
X359602Y301344*
X359830Y301062*
X359830D02*
X360170Y300922D01*
X360284*
X360625Y301062*
X360625D02*
X360852Y301344D01*
X360966Y301766*
X330341Y299797D02*
X330682Y299937D01*
X330682D02*
X330909Y300359D01*
X331023Y301062*
X331023D02*
Y301484D01*
X330909Y302187*
X330909D02*
X330682Y302609D01*
X330341Y302750*
X330114*
X329773Y302609*
X329545Y302187*
X329545D02*
X329432Y301484D01*
Y301062*
X329432D02*
X329545Y300359D01*
X329773Y299937*
X329773D02*
X330114Y299797D01*
X330341*
X309602Y300219D02*
X309716Y299937D01*
X309716D02*
X310057Y299797D01*
X310284*
X310625Y299937*
X310625D02*
X310852Y300359D01*
X310966Y301062*
X310966D02*
Y301766D01*
X310852Y302328*
X310625Y302609*
X310284Y302750*
X310170*
X309830Y302609*
X309602Y302328*
X309489Y301906*
Y301766*
X309602Y301344*
X309830Y301062*
X309830D02*
X310170Y300922D01*
X310284*
X310625Y301062*
X310625D02*
X310852Y301344D01*
X310966Y301766*
X280341Y299797D02*
X280682Y299937D01*
X280682D02*
X280909Y300359D01*
X281023Y301062*
X281023D02*
Y301484D01*
X280909Y302187*
X280909D02*
X280682Y302609D01*
X280341Y302750*
X280114*
X279773Y302609*
X279545Y302187*
X279545D02*
X279432Y301484D01*
Y301062*
X279432D02*
X279545Y300359D01*
X279773Y299937*
X279773D02*
X280114Y299797D01*
X280341*
X309091Y129500D02*
Y129641D01*
X309205Y129922*
X309318Y130063*
X309318D02*
X309545Y130203D01*
X310000*
X310227Y130063*
X310227D02*
X310341Y129922D01*
X310455Y129641*
Y129359*
X310341Y129078*
X310114Y128656*
X308977Y127250*
X310568*
X300057Y130203D02*
X298920Y128234D01*
X300625*
X300057Y130203D02*
Y127250D01*
X359091Y129500D02*
Y129641D01*
X359205Y129922*
X359318Y130063*
X359318D02*
X359545Y130203D01*
X360000*
X360227Y130063*
X360227D02*
X360341Y129922D01*
X360455Y129641*
Y129359*
X360341Y129078*
X360114Y128656*
X358977Y127250*
X360568*
X350057Y130203D02*
X348920Y128234D01*
X350625*
X350057Y130203D02*
Y127250D01*
X420500Y139091D02*
X420359D01*
X420078Y139205*
X419937Y139318*
X419937D02*
X419797Y139545D01*
Y140000*
X419937Y140227*
X419937D02*
X420078Y140341D01*
X420359Y140455*
X420641*
X420922Y140341*
X421344Y140114*
X422750Y138977*
Y140568*
X419797Y130057D02*
X421766Y128920D01*
Y130625*
X419797Y130057D02*
X422750D01*
X420500Y189091D02*
X420359D01*
X420078Y189205*
X419937Y189318*
X419937D02*
X419797Y189545D01*
Y190000*
X419937Y190227*
X419937D02*
X420078Y190341D01*
X420359Y190455*
X420641*
X420922Y190341*
X421344Y190114*
X422750Y188977*
Y190568*
X419797Y180057D02*
X421766Y178920D01*
Y180625*
X419797Y180057D02*
X422750D01*
X420500Y259091D02*
X420359D01*
X420078Y259205*
X419937Y259318*
X419937D02*
X419797Y259545D01*
Y260000*
X419937Y260227*
X419937D02*
X420078Y260341D01*
X420359Y260455*
X420641*
X420922Y260341*
X421344Y260114*
X422750Y258977*
Y260568*
X419797Y250057D02*
X421766Y248920D01*
Y250625*
X419797Y250057D02*
X422750D01*
X419500Y309091D02*
X419359D01*
X419078Y309205*
X418937Y309318*
X418937D02*
X418797Y309545D01*
Y310000*
X418937Y310227*
X418937D02*
X419078Y310341D01*
X419359Y310455*
X419641*
X419922Y310341*
X420344Y310114*
X421750Y308977*
Y310568*
X418797Y300057D02*
X420766Y298920D01*
Y300625*
X418797Y300057D02*
X421750D01*
X340909Y300500D02*
Y300359D01*
X340795Y300078*
X340682Y299937*
X340682D02*
X340455Y299797D01*
X340000*
X339773Y299937*
X339773D02*
X339659Y300078D01*
X339545Y300359*
Y300641*
X339659Y300922*
X339886Y301344*
X341023Y302750*
X339432*
X349943Y299797D02*
X351080Y301766D01*
X349375*
X349943Y299797D02*
Y302750D01*
X299943Y299797D02*
X301080Y301766D01*
X299375*
X299943Y299797D02*
Y302750D01*
X290909Y300500D02*
Y300359D01*
X290795Y300078*
X290682Y299937*
X290682D02*
X290455Y299797D01*
X290000*
X289773Y299937*
X289773D02*
X289659Y300078D01*
X289545Y300359*
Y300641*
X289659Y300922*
X289886Y301344*
X291023Y302750*
X289432*
X265682Y121195D02*
X266932D01*
X266250Y120070*
X266591*
X266818Y119930*
X266932Y119789*
X267045Y119367*
Y119086*
X266932Y118664*
X266705Y118383*
X266364Y118242*
X266023*
X265682Y118383*
X265568Y118523*
X265455Y118805*
X268182Y118523D02*
X268068Y118383D01*
X268182Y118242*
X268295Y118383*
X268182Y118523*
X269545Y121195D02*
X270795D01*
X270114Y120070*
X270455*
X270682Y119930*
X270795Y119789*
X270909Y119367*
Y119086*
X270795Y118664*
X270568Y118383*
X270227Y118242*
X269886*
X269545Y118383*
X269432Y118523*
X269318Y118805*
X271932Y120211D02*
X272614Y118242D01*
X273295Y120211D02*
X272614Y118242D01*
X268068Y110492D02*
X267955Y110773D01*
X267727Y111055*
X267500Y111195*
X267045*
X266818Y111055*
X266591Y110773*
X266477Y110492*
X266364Y110070*
Y109367*
X266477Y108945*
X266591Y108664*
X266818Y108383*
X267045Y108242*
X267500*
X267727Y108383*
X267955Y108664*
X268068Y108945*
Y109367*
X267500D02*
X268068D01*
X269091Y111195D02*
Y108242D01*
Y111195D02*
X270682Y108242D01*
Y111195D02*
Y108242D01*
X271705Y111195D02*
Y108242D01*
Y111195D02*
X272500D01*
X272841Y111055*
X273068Y110773*
X273182Y110492*
X273295Y110070*
Y109367*
X273182Y108945*
X273068Y108664*
X272841Y108383*
X272500Y108242*
X271705*
X428805Y215682D02*
Y216932D01*
X429930Y216250*
Y216591*
X430070Y216818*
X430211Y216932*
X430633Y217045*
X430914*
X431336Y216932*
X431617Y216705*
X431758Y216364*
Y216023*
X431617Y215682*
X431477Y215568*
X431195Y215455*
X431477Y218182D02*
X431617Y218068D01*
X431758Y218182*
X431617Y218295*
X431477Y218182*
X428805Y219545D02*
Y220795D01*
X429930Y220114*
Y220455*
X430070Y220682*
X430211Y220795*
X430633Y220909*
X430914*
X431336Y220795*
X431617Y220568*
X431758Y220227*
Y219886*
X431617Y219545*
X431477Y219432*
X431195Y219318*
X429789Y221932D02*
X431758Y222614D01*
X429789Y223295D02*
X431758Y222614D01*
X439508Y218068D02*
X439227Y217955D01*
X438945Y217727*
X438805Y217500*
Y217045*
X438945Y216818*
X439227Y216591*
X439508Y216477*
X439930Y216364*
X440633*
X441055Y216477*
X441336Y216591*
X441617Y216818*
X441758Y217045*
Y217500*
X441617Y217727*
X441336Y217955*
X441055Y218068*
X440633*
Y217500D02*
Y218068D01*
X438805Y219091D02*
X441758D01*
X438805D02*
X441758Y220682D01*
X438805D02*
X441758D01*
X438805Y221705D02*
X441758D01*
X438805D02*
Y222500D01*
X438945Y222841*
X439227Y223068*
X439508Y223182*
X439930Y223295*
X440633*
X441055Y223182*
X441336Y223068*
X441617Y222841*
X441758Y222500*
Y221705*
X418805Y220682D02*
Y219545D01*
X420070Y219432*
X419930Y219545*
X419789Y219886*
Y220227*
X419930Y220568*
X420211Y220795*
X420633Y220909*
X420914Y220795*
X421336Y220682*
X421617Y220455*
X421758Y220114*
Y219773*
X421617Y219432*
X421477Y219318*
X421195Y219205*
X419789Y221932D02*
X421758Y222614D01*
X419789Y223295D02*
X421758Y222614D01*
X132273Y316773D02*
Y314242D01*
X131250Y315508D02*
X133295D01*
X131250Y308508D02*
X133295D01*
X132273Y302773D02*
Y300242D01*
X131250Y301508D02*
X133295D01*
X131250Y293508D02*
X133295D01*
X105203Y304920D02*
Y303670D01*
X104078Y304352*
Y304011*
X103938Y303784*
X103938D02*
X103797Y303670D01*
X103375Y303557*
X103094*
X102672Y303670*
X102391Y303898*
X102250Y304239*
Y304580*
X102391Y304920*
X102531Y305034*
X102813Y305148*
X102531Y302420D02*
X102391Y302534D01*
X102250Y302420*
X102391Y302307*
X102531Y302420*
X105203Y301057D02*
Y299807D01*
X104078Y300489*
Y300148*
X103938Y299920*
X103938D02*
X103797Y299807D01*
X103375Y299693*
X103094*
X102672Y299807*
X102391Y300034*
X102250Y300375*
Y300716*
X102391Y301057*
X102531Y301170*
X102813Y301284*
X104219Y298670D02*
X102250Y297989D01*
X104219Y297307D02*
X102250Y297989D01*
X105203Y292795D02*
Y293932D01*
X103938Y294045*
X103938D02*
X104078Y293932D01*
X104219Y293591*
Y293250*
X104078Y292909*
X103797Y292682*
X103375Y292568*
X103094Y292682*
X102672Y292795*
X102391Y293023*
X102250Y293364*
Y293705*
X102391Y294045*
X102531Y294159*
X102813Y294273*
X104219Y291545D02*
X102250Y290864D01*
X104219Y290182D02*
X102250Y290864D01*
X104500Y287091D02*
X104641D01*
X104922Y286977*
X105063Y286864*
X105063D02*
X105203Y286636D01*
Y286182*
X105063Y285955*
X105063D02*
X104922Y285841D01*
X104641Y285727*
X104359*
X104078Y285841*
X103656Y286068*
X102250Y287205*
Y285614*
X102531Y284477D02*
X102391Y284591D01*
X102250Y284477*
X102391Y284364*
X102531Y284477*
X105203Y281864D02*
Y283000D01*
X103938Y283114*
X103938D02*
X104078Y283000D01*
X104219Y282659*
Y282318*
X104078Y281977*
X103797Y281750*
X103375Y281636*
X103094Y281750*
X102672Y281864*
X102391Y282091*
X102250Y282432*
Y282773*
X102391Y283114*
X102531Y283227*
X102813Y283341*
X104219Y280614D02*
X102250Y279932D01*
X104219Y279250D02*
X102250Y279932D01*
G54D94*
X0Y0D02*
M02*
