*
*
G04 PADS9.1 Build Number: 384028 generated Gerber (RS-274-X) file*
G04 PC Version=2.1*
*
%IN "medulla.1.pcb"*%
*
%MOIN*%
*
%FSLAX35Y35*%
*
*
*
*
G04 PC Standard Apertures*
*
*
G04 Thermal Relief Aperture macro.*
%AMTER*
1,1,$1,0,0*
1,0,$1-$2,0,0*
21,0,$3,$4,0,0,45*
21,0,$3,$4,0,0,135*
%
*
*
G04 Annular Aperture macro.*
%AMANN*
1,1,$1,0,0*
1,0,$2,0,0*
%
*
*
G04 Odd Aperture macro.*
%AMODD*
1,1,$1,0,0*
1,0,$1-0.005,0,0*
%
*
*
G04 PC Custom Aperture Macros*
*
*
*
*
*
*
G04 PC Aperture Table*
*
%ADD039C,0.01*%
%ADD053R,0.05818X0.05818*%
%ADD054C,0.05818*%
%ADD060O,0.047X0.05*%
%ADD061O,0.05X0.047*%
%ADD062R,0.067X0.062*%
%ADD064R,0.067X0.067*%
%ADD065C,0.067*%
%ADD066R,0.072X0.072*%
%ADD067C,0.072*%
%ADD068C,0.177*%
%ADD069C,0.069*%
%ADD070C,0.097*%
%ADD074O,0.027X0.021*%
%ADD094C,0.001*%
%ADD118C,0.257*%
%ADD119O,0.06802X0.03062*%
*
*
*
*
G04 PC Circuitry*
G04 Layer Name medulla.1.pcb - circuitry*
%LPD*%
*
G54D94*
G01X286775Y293827D02*
X284506D01*
Y293752*
X284632*
X284644Y293750*
X284995Y293663*
X285024Y293642*
X285199Y293379*
X285199D02*
X285203Y293373D01*
X285290Y293198*
X285296Y293175*
Y290982*
X285270Y290939*
X285296Y290895*
Y288702*
X285293Y288686*
X285205Y288423*
X285193Y288403*
X285018Y288228*
X284995Y288215*
X284644Y288127*
X284632Y288125*
X284506*
Y288050*
X286775*
Y288125*
X286649*
X286637Y288127*
X286286Y288215*
X286276Y288218*
X286100Y288306*
X286075Y288335*
X285988Y288598*
X285985Y288614*
Y293175*
X285988Y293191*
X286075Y293454*
X286078Y293461*
X286166Y293636*
X286201Y293663*
X286639Y293751*
X286649Y293752*
X286775*
Y293827*
X285222Y290939D02*
X285210Y290947D01*
X285037Y291121*
X284600Y291470*
X284596Y291473*
X283193Y292877*
X283186Y292885*
X283011Y293148*
X283005Y293160*
X282917Y293423*
X282920Y293461*
X283008Y293636*
X283037Y293661*
X283300Y293749*
X283316Y293752*
X283441*
Y293827*
X281436*
Y293741*
X281749Y293663*
X281759Y293659*
X282110Y293483*
X282113Y293482*
X282727Y293131*
X282737Y293123*
X284579Y291281*
Y291210*
X282298Y289017*
X282295Y289014*
X281769Y288576*
X281767Y288574*
X281416Y288311*
X281398Y288302*
X280734Y288136*
Y288050*
X283266*
Y288136*
X282953Y288215*
X282920Y288241*
X282832Y288416*
X282827Y288439*
Y288614*
X282842Y288649*
X283193Y289000*
X283194Y289001*
X285211Y290931*
X285222Y290939*
X280371Y289927D02*
X280198Y290791D01*
X279857Y291473*
X279262Y291813*
X278576Y291984*
X277985Y291900*
X277564Y291562*
X277223Y291052*
X277145Y290506*
X279807*
X279857Y290451*
X279769Y289661*
X279761Y289639*
X279410Y289113*
X279404Y289105*
X278965Y288666*
X278937Y288652*
X278323Y288565*
X278316Y288564*
X277965*
X277937Y288572*
X277674Y288748*
X277672Y288749*
X277321Y289013*
X277304Y289034*
X277157Y289402*
X277145Y289390*
X277308Y288899*
X277650Y288387*
X278159Y288048*
X278668Y287963*
X279348Y288048*
X279858Y288473*
X280285Y289071*
X280371Y289927*
X279807Y290669D02*
X277965D01*
X277915Y290719*
Y291070*
X277920Y291093*
X278008Y291268*
X278017Y291281*
X278368Y291632*
X278385Y291643*
X278824Y291818*
X278854Y291820*
X279205Y291733*
X279221Y291726*
X279484Y291550*
X279496Y291539*
X279759Y291188*
X279768Y291168*
X279856Y290729*
X279807Y290669*
X276687Y291897D02*
X274945D01*
Y291822*
X274982*
X274998Y291819*
X275261Y291732*
X275290Y291707*
X275378Y291531*
X275382Y291499*
X275295Y291060*
X275291Y291049*
X274326Y288944*
X274234Y288946*
X273357Y291139*
X273354Y291148*
X273267Y291587*
X273266Y291596*
Y291684*
X273293Y291729*
X273469Y291817*
X273491Y291822*
X273704*
Y291897*
X272576*
Y291811*
X272889Y291733*
X272920Y291710*
X273183Y291271*
X273187Y291264*
X274490Y287962*
X274598*
X275989Y291265*
X275993Y291273*
X276169Y291537*
X276183Y291550*
X276446Y291726*
X276458Y291732*
X276687Y291808*
Y291897*
X272125Y288125D02*
X271912D01*
X271890Y288131*
X271714Y288218*
X271692Y288241*
X271517Y288592*
X271511Y288614*
Y291246*
X271517Y291268*
X271604Y291443*
X271627Y291466*
X271802Y291553*
X271840Y291556*
X272062Y291482*
X272106Y291570*
X271026Y291985*
X270910*
Y288614*
X270904Y288592*
X270817Y288416*
X270807Y288403*
X270544Y288140*
X270509Y288125*
X270296*
Y288050*
X272125*
Y288125*
X271679Y293618D02*
X271524Y293928D01*
X271214Y294083*
X270986Y293931*
X270830Y293618*
X270983Y293387*
X271214Y293233*
X271527Y293390*
X271679Y293618*
X269845Y288125D02*
X269544D01*
X269509Y288140*
X269333Y288316*
X269324Y288329*
X269236Y288504*
X269231Y288526*
Y291246*
X269236Y291268*
X269324Y291443*
X269346Y291466*
X269522Y291553*
X269522D02*
X269560Y291556D01*
X269782Y291482*
X269825Y291570*
X268745Y291985*
X268629*
Y291158*
X268540Y291127*
X268193Y291560*
X267855Y291814*
X267514Y291899*
X267511Y291900*
X267262Y291983*
X266675Y291815*
X266515Y291655*
X266345Y291316*
X266261Y290976*
Y288614*
X266258Y288598*
X266170Y288335*
X266145Y288306*
X265977Y288222*
X265895Y288140*
X265860Y288125*
X265646*
Y288050*
X267476*
Y288125*
X267439*
X267426Y288127*
X267076Y288215*
X267046Y288235*
X266871Y288499*
X266862Y288526*
Y290982*
X266871Y291010*
X267046Y291273*
X267052Y291281*
X267228Y291456*
X267247Y291468*
X267511Y291556*
X267542*
X268068Y291381*
X268080Y291375*
X268607Y291024*
X268629Y290982*
Y288526*
X268614Y288491*
X268532Y288409*
X268448Y288241*
X268426Y288218*
X268250Y288131*
X268228Y288125*
X268015*
Y288050*
X269845*
Y288125*
X263178Y293827D02*
X260910D01*
Y293752*
X261035*
X261047Y293750*
X261398Y293663*
X261428Y293642*
X261603Y293379*
X261606Y293373*
X261694Y293198*
X261699Y293175*
Y290982*
X261673Y290939*
X261699Y290895*
Y288702*
X261697Y288686*
X261609Y288423*
X261597Y288403*
X261421Y288228*
X261398Y288215*
X261047Y288127*
X261035Y288125*
X260910*
Y288050*
X263178*
Y288125*
X263053*
X263041Y288127*
X262690Y288215*
X262679Y288218*
X262504Y288306*
X262479Y288335*
X262391Y288598*
X262389Y288614*
Y293175*
X262391Y293191*
X262479Y293454*
X262482Y293461*
X262569Y293636*
X262604Y293663*
X263043Y293751*
X263053Y293752*
X263178*
Y293827*
X261625Y290939D02*
X261614Y290947D01*
X261440Y291121*
X261004Y291470*
X261000Y291473*
X259596Y292877*
X259590Y292885*
X259415Y293148*
X259409Y293160*
X259321Y293423*
X259324Y293461*
X259411Y293636*
X259440Y293661*
X259703Y293749*
X259719Y293752*
X259845*
Y293827*
X257839*
Y293741*
X258152Y293663*
X258163Y293659*
X258514Y293483*
X258516Y293482*
X259130Y293131*
X259141Y293123*
X260983Y291281*
X260982Y291210*
X258701Y289017*
X258699Y289014*
X258172Y288576*
X258170Y288574*
X257819Y288311*
X257802Y288302*
X257138Y288136*
Y288050*
X259669*
Y288136*
X259356Y288215*
X259324Y288241*
X259236Y288416*
X259231Y288439*
Y288614*
X259245Y288649*
X259596Y289000*
X259597Y289001*
X261615Y290931*
X261625Y290939*
X256774Y289927D02*
X256601Y290791D01*
X256260Y291473*
X255665Y291813*
X254980Y291984*
X254389Y291900*
X253967Y291562*
X253627Y291052*
X253549Y290506*
X256211*
X256260Y290451*
X256172Y289661*
X256172D02*
X256164Y289639D01*
X255814Y289113*
X255807Y289105*
X255369Y288666*
X255340Y288652*
X254726Y288565*
X254719Y288564*
X254368*
X254341Y288572*
X254078Y288748*
X254075Y288749*
X253724Y289013*
X253708Y289034*
X253561Y289402*
X253548Y289390*
X253712Y288899*
X254054Y288387*
X254563Y288048*
X255071Y287963*
X255751Y288048*
X256261Y288473*
X256688Y289071*
X256774Y289927*
X256211Y290669D02*
X254368D01*
X254318Y290719*
Y291070*
X254324Y291093*
X254411Y291268*
X254421Y291281*
X254772Y291632*
X254788Y291643*
X255227Y291818*
X255258Y291820*
X255609Y291733*
X255624Y291726*
X255887Y291550*
X255900Y291539*
X256163Y291188*
X256172Y291168*
X256260Y290729*
X256211Y290669*
X253090Y288125D02*
X252877D01*
X252842Y288140*
X252579Y288403*
X252569Y288416*
X252482Y288592*
X252476Y288614*
Y291246*
X252482Y291268*
X252569Y291443*
X252592Y291466*
X252767Y291553*
X252805Y291556*
X253027Y291482*
X253071Y291570*
X251991Y291985*
X251875*
Y291158*
X251789Y291123*
X251267Y291645*
X251267D02*
X250841Y291900D01*
X250424Y291983*
X250177Y291901*
X249841Y291733*
X249675Y291484*
X249501Y291136*
X249417Y291127*
X249070Y291560*
X248732Y291814*
X248140Y291983*
X247553Y291815*
X247392Y291655*
X247223Y291316*
X247138Y290976*
Y288614*
X247135Y288598*
X247047Y288335*
X247022Y288306*
X246847Y288218*
X246837Y288215*
X246524Y288136*
Y288050*
X248354*
Y288125*
X248316*
X248304Y288127*
X247953Y288215*
X247930Y288228*
X247754Y288403*
X247739Y288439*
Y290982*
X247742Y290998*
X247830Y291261*
X247849Y291287*
X248113Y291463*
X248125Y291468*
X248388Y291556*
X248412Y291558*
X248938Y291470*
X248965Y291456*
X249138Y291283*
X249486Y291022*
X249506Y290982*
Y288526*
X249501Y288504*
X249413Y288329*
X249404Y288316*
X249316Y288228*
X249291Y288214*
X248892Y288134*
Y288050*
X250722*
Y288125*
X250509*
X250486Y288131*
X250311Y288218*
X250298Y288228*
X250123Y288403*
X250108Y288439*
Y290982*
X250116Y291010*
X250292Y291273*
X250298Y291281*
X250473Y291456*
X250497Y291470*
X250848Y291557*
X250869Y291558*
X251308Y291470*
X251330Y291459*
X251857Y291021*
X251875Y290982*
Y288526*
X251869Y288504*
X251782Y288329*
X251772Y288316*
X251684Y288228*
X251671Y288218*
X251496Y288131*
X251474Y288125*
X251261*
Y288050*
X253090*
Y288125*
X246336Y286283D02*
X246298D01*
X246288Y286284*
X245850Y286372*
X245837Y286376*
X245662Y286464*
X245634Y286509*
Y291246*
X245639Y291268*
X245727Y291443*
X245756Y291468*
X246019Y291556*
X246057Y291553*
X246188Y291488*
X246229Y291570*
X245149Y291985*
X245032*
Y291070*
X244943Y291039*
X244593Y291478*
X244592Y291479*
X244339Y291815*
X244005Y291899*
X244002Y291900*
X243750Y291984*
X243249Y291900*
X242827Y291563*
X242399Y290878*
X242314Y290107*
X242486Y289246*
X242916Y288471*
X243425Y288047*
X244018Y287963*
X244612Y288048*
X244952Y288303*
X245032Y288263*
Y286684*
X245027Y286662*
X244939Y286486*
X244930Y286473*
X244842Y286386*
X244829Y286376*
X244654Y286289*
X244632Y286283*
X244418*
Y286208*
X246336*
Y286283*
X245032Y290895D02*
Y288789D01*
X245024Y288762*
X244849Y288499*
X244842Y288491*
X244667Y288316*
X244659Y288309*
X244396Y288134*
X244368Y288125*
X244018*
X244005Y288127*
X243655Y288215*
X243637Y288223*
X243286Y288486*
X243271Y288504*
X243008Y289030*
X243003Y289046*
X242915Y289748*
Y289761*
X243003Y290462*
X243009Y290481*
X243360Y291095*
X243368Y291106*
X243631Y291369*
X243655Y291382*
X244005Y291470*
X244027*
X244466Y291382*
X244491Y291369*
X244664Y291196*
X245012Y290935*
X245032Y290895*
X241686Y289927D02*
X241514Y290791D01*
X241173Y291473*
X240578Y291813*
X239892Y291984*
X239301Y291900*
X238879Y291562*
X238539Y291052*
X238461Y290506*
X241123*
X241172Y290451*
X241172D02*
X241085Y289661D01*
X241077Y289639*
X240726Y289113*
X240720Y289105*
X240281Y288666*
X240253Y288652*
X239639Y288565*
X239632Y288564*
X239281*
X239253Y288572*
X238990Y288748*
X238988Y288749*
X238637Y289013*
X238620Y289034*
X238473Y289402*
X238461Y289390*
X238624Y288899*
X238966Y288387*
X239475Y288048*
X239983Y287963*
X240663Y288048*
X241174Y288473*
X241601Y289071*
X241686Y289927*
X241123Y290669D02*
X239281D01*
X239231Y290719*
Y291070*
X239236Y291093*
X239324Y291268*
X239333Y291281*
X239684Y291632*
X239701Y291643*
X240139Y291818*
X240170Y291820*
X240521Y291733*
X240537Y291726*
X240800Y291550*
X240812Y291539*
X241075Y291188*
X241084Y291168*
X241172Y290729*
X241123Y290669*
X238003Y291562D02*
X236903Y291985D01*
X236787*
Y291070*
X236694Y291044*
X236431Y291482*
X236262Y291736*
X236013Y291902*
X235776Y291981*
X235458Y291822*
X235299Y291503*
X235375Y291197*
X235605Y291120*
X235664*
X235664D02*
X235824Y291281D01*
X235837Y291290*
X236188Y291466*
X236246Y291456*
X236597Y291106*
X236606Y291093*
X236782Y290742*
X236787Y290719*
Y288614*
X236782Y288592*
X236694Y288416*
X236684Y288403*
X236509Y288228*
X236483Y288214*
X236085Y288134*
Y288050*
X238003*
Y288134*
X237604Y288214*
X237579Y288228*
X237403Y288403*
X237389Y288439*
Y291246*
X237394Y291268*
X237482Y291443*
X237504Y291466*
X237679Y291553*
X237714Y291557*
X238003Y291485*
Y291562*
X235300Y291497D02*
Y291506D01*
X235400Y291188D02*
Y291706D01*
X235500Y291155D02*
Y291843D01*
X235600Y291122D02*
Y291893D01*
X235700Y291157D02*
Y291943D01*
X235800Y291257D02*
Y291973D01*
X235900Y291322D02*
Y291940D01*
X236000Y291372D02*
Y291906D01*
X236100Y288050D02*
Y288137D01*
Y291422D02*
Y291844D01*
X236200Y288050D02*
Y288157D01*
Y291470D02*
Y291777D01*
X236300Y288050D02*
Y288177D01*
Y291402D02*
Y291679D01*
X236400Y288050D02*
Y288197D01*
Y291302D02*
Y291529D01*
X236500Y288050D02*
Y288221D01*
Y291202D02*
Y291368D01*
X236600Y288050D02*
Y288319D01*
Y291102D02*
Y291201D01*
X236700Y288050D02*
Y288429D01*
Y290905D02*
Y291036D01*
X236800Y288050D02*
Y291985D01*
X236900Y288050D02*
Y291985D01*
X237000Y288050D02*
Y291948D01*
X237100Y288050D02*
Y291909D01*
X237200Y288050D02*
Y291871D01*
X237300Y288050D02*
Y291832D01*
X237400Y288050D02*
Y288407D01*
Y291280D02*
Y291794D01*
X237500Y288050D02*
Y288306D01*
Y291464D02*
Y291755D01*
X237600Y288050D02*
Y288215D01*
Y291514D02*
Y291717D01*
X237700Y288050D02*
Y288195D01*
Y291559D02*
Y291679D01*
X237800Y288050D02*
Y288175D01*
Y291536D02*
Y291640D01*
X237900Y288050D02*
Y288155D01*
Y291511D02*
Y291602D01*
X238000Y288050D02*
Y288135D01*
Y291486D02*
Y291563D01*
X238500Y289272D02*
Y289335D01*
Y290506D02*
Y290778D01*
X238600Y288972D02*
Y289085D01*
Y290506D02*
Y291143D01*
X238700Y288786D02*
Y288965D01*
Y290506D02*
Y291293D01*
X238800Y288636D02*
Y288890D01*
Y290506D02*
Y291443D01*
X238900Y288486D02*
Y288815D01*
Y290506D02*
Y291579D01*
X239000Y288364D02*
Y288741D01*
Y290506D02*
Y291659D01*
X239100Y288298D02*
Y288674D01*
Y290506D02*
Y291739D01*
X239200Y288231D02*
Y288608D01*
Y290506D02*
Y291819D01*
X239300Y288164D02*
Y288564D01*
Y290506D02*
Y290669D01*
Y291221D02*
Y291899D01*
X239400Y288098D02*
Y288564D01*
Y290506D02*
Y290669D01*
Y291348D02*
Y291914D01*
X239500Y288043D02*
Y288564D01*
Y290506D02*
Y290669D01*
Y291448D02*
Y291928D01*
X239600Y288027D02*
Y288564D01*
Y290506D02*
Y290669D01*
Y291548D02*
Y291942D01*
X239700Y288010D02*
Y288573D01*
Y290506D02*
Y290669D01*
Y291643D02*
Y291957D01*
X239800Y287993D02*
Y288588D01*
Y290506D02*
Y290669D01*
Y291683D02*
Y291971D01*
X239900Y287977D02*
Y288602D01*
Y290506D02*
Y290669D01*
Y291723D02*
Y291982D01*
X240000Y287965D02*
Y288616D01*
Y290506D02*
Y290669D01*
Y291763D02*
Y291957D01*
X240100Y287977D02*
Y288630D01*
Y290506D02*
Y290669D01*
Y291803D02*
Y291932D01*
X240200Y287990D02*
Y288645D01*
Y290506D02*
Y290669D01*
Y291813D02*
Y291907D01*
X240300Y288002D02*
Y288685D01*
Y290506D02*
Y290669D01*
Y291788D02*
Y291882D01*
X240400Y288015D02*
Y288785D01*
Y290506D02*
Y290669D01*
Y291763D02*
Y291857D01*
X240500Y288027D02*
Y288885D01*
Y290506D02*
Y290669D01*
Y291738D02*
Y291832D01*
X240600Y288040D02*
Y288985D01*
Y290506D02*
Y290669D01*
Y291683D02*
Y291800D01*
X240700Y288078D02*
Y289085D01*
Y290506D02*
Y290669D01*
Y291617D02*
Y291743D01*
X240800Y288162D02*
Y289224D01*
Y290506D02*
Y290669D01*
Y291550D02*
Y291686D01*
X240900Y288245D02*
Y289374D01*
Y290506D02*
Y290669D01*
Y291421D02*
Y291629D01*
X241000Y288328D02*
Y289524D01*
Y290506D02*
Y290669D01*
Y291288D02*
Y291571D01*
X241100Y288412D02*
Y289798D01*
Y290506D02*
Y290669D01*
Y291088D02*
Y291514D01*
X241200Y288510D02*
Y291418D01*
X241300Y288650D02*
Y291218D01*
X241400Y288790D02*
Y291018D01*
X241500Y288930D02*
Y290818D01*
X241600Y289070D02*
Y290359D01*
X242400Y289676D02*
Y290879D01*
X242500Y289221D02*
Y291039D01*
X242600Y289041D02*
Y291199D01*
X242700Y288861D02*
Y291359D01*
X242800Y288681D02*
Y291519D01*
X242900Y288501D02*
Y291621D01*
X243000Y288401D02*
Y289071D01*
Y290438D02*
Y291701D01*
X243100Y288318D02*
Y288846D01*
Y290640D02*
Y291781D01*
X243200Y288235D02*
Y288646D01*
Y290815D02*
Y291861D01*
X243300Y288151D02*
Y288476D01*
Y290990D02*
Y291909D01*
X243400Y288068D02*
Y288401D01*
Y291137D02*
Y291925D01*
X243500Y288037D02*
Y288326D01*
Y291237D02*
Y291942D01*
X243600Y288022D02*
Y288251D01*
Y291337D02*
Y291959D01*
X243700Y288008D02*
Y288203D01*
Y291393D02*
Y291975D01*
X243800Y287994D02*
Y288178D01*
Y291418D02*
Y291967D01*
X243900Y287980D02*
Y288153D01*
Y291443D02*
Y291934D01*
X244000Y287965D02*
Y288128D01*
Y291468D02*
Y291901D01*
X244100Y287975D02*
Y288125D01*
Y291456D02*
Y291875D01*
X244200Y287989D02*
Y288125D01*
Y291436D02*
Y291850D01*
X244300Y288003D02*
Y288125D01*
Y291416D02*
Y291825D01*
X244400Y288017D02*
Y288136D01*
Y291396D02*
Y291734D01*
X244500Y286208D02*
Y286283D01*
Y288032D02*
Y288203D01*
Y291360D02*
Y291601D01*
X244600Y286208D02*
Y286283D01*
Y288046D02*
Y288270D01*
Y291260D02*
Y291468D01*
X244700Y286208D02*
Y286312D01*
Y288114D02*
Y288349D01*
Y291169D02*
Y291343D01*
X244800Y286208D02*
Y286362D01*
Y288189D02*
Y288449D01*
Y291094D02*
Y291218D01*
X244900Y286208D02*
Y286443D01*
Y288264D02*
Y288576D01*
Y291019D02*
Y291093D01*
X245000Y286208D02*
Y286607D01*
Y288310D02*
Y288726D01*
Y290944D02*
Y291023D01*
X245100Y286208D02*
Y291985D01*
X245200Y286208D02*
Y291965D01*
X245300Y286208D02*
Y291927D01*
X245400Y286208D02*
Y291888D01*
X245500Y286208D02*
Y291850D01*
X245600Y286208D02*
Y291811D01*
X245700Y286208D02*
Y286445D01*
Y291389D02*
Y291773D01*
X245800Y286208D02*
Y286395D01*
Y291483D02*
Y291735D01*
X245900Y286208D02*
Y286362D01*
Y291516D02*
Y291696D01*
X246000Y286208D02*
Y286342D01*
Y291550D02*
Y291658D01*
X246100Y286208D02*
Y286322D01*
Y291532D02*
Y291619D01*
X246200Y286208D02*
Y286302D01*
Y291512D02*
Y291581D01*
X246300Y286208D02*
Y286283D01*
X246600Y288050D02*
Y288155D01*
X246700Y288050D02*
Y288180D01*
X246800Y288050D02*
Y288205D01*
X246900Y288050D02*
Y288245D01*
X247000Y288050D02*
Y288295D01*
X247100Y288050D02*
Y288493D01*
X247200Y288050D02*
Y291225D01*
X247300Y288050D02*
Y291471D01*
X247400Y288050D02*
Y291663D01*
X247500Y288050D02*
Y291763D01*
X247600Y288050D02*
Y291829D01*
X247700Y288050D02*
Y291857D01*
X247800Y288050D02*
Y288357D01*
Y291172D02*
Y291886D01*
X247900Y288050D02*
Y288257D01*
Y291321D02*
Y291914D01*
X248000Y288050D02*
Y288203D01*
Y291388D02*
Y291943D01*
X248100Y288050D02*
Y288178D01*
Y291454D02*
Y291972D01*
X248200Y288050D02*
Y288153D01*
Y291494D02*
Y291966D01*
X248300Y288050D02*
Y288128D01*
Y291527D02*
Y291937D01*
X248400Y291559D02*
Y291909D01*
X248500Y291543D02*
Y291880D01*
X248600Y291527D02*
Y291852D01*
X248700Y291510D02*
Y291823D01*
X248800Y291493D02*
Y291763D01*
X248900Y288050D02*
Y288136D01*
Y291477D02*
Y291688D01*
X249000Y288050D02*
Y288156D01*
Y291422D02*
Y291613D01*
X249100Y288050D02*
Y288176D01*
Y291322D02*
Y291523D01*
X249200Y288050D02*
Y288196D01*
Y291237D02*
Y291398D01*
X249300Y288050D02*
Y288217D01*
Y291162D02*
Y291273D01*
X249400Y288050D02*
Y288312D01*
Y291087D02*
Y291148D01*
X249500Y288050D02*
Y288502D01*
Y291006D02*
Y291134D01*
X249600Y288050D02*
Y291334D01*
X249700Y288050D02*
Y291521D01*
X249800Y288050D02*
Y291671D01*
X249900Y288050D02*
Y291763D01*
X250000Y288050D02*
Y291813D01*
X250100Y288050D02*
Y291863D01*
X250200Y288050D02*
Y288326D01*
Y291136D02*
Y291909D01*
X250300Y288050D02*
Y288226D01*
Y291283D02*
Y291942D01*
X250400Y288050D02*
Y288174D01*
Y291383D02*
Y291975D01*
X250500Y288050D02*
Y288126D01*
Y291470D02*
Y291968D01*
X250600Y288050D02*
Y288125D01*
Y291495D02*
Y291948D01*
X250700Y288050D02*
Y288125D01*
Y291520D02*
Y291928D01*
X250800Y291545D02*
Y291908D01*
X250900Y291552D02*
Y291865D01*
X251000Y291532D02*
Y291805D01*
X251100Y291512D02*
Y291745D01*
X251200Y291492D02*
Y291685D01*
X251300Y288050D02*
Y288125D01*
Y291472D02*
Y291612D01*
X251400Y288050D02*
Y288125D01*
Y291401D02*
Y291512D01*
X251500Y288050D02*
Y288133D01*
Y291318D02*
Y291412D01*
X251600Y288050D02*
Y288183D01*
Y291235D02*
Y291312D01*
X251700Y288050D02*
Y288243D01*
Y291151D02*
Y291212D01*
X251800Y288050D02*
Y288365D01*
Y291068D02*
Y291114D01*
X251900Y288050D02*
Y291985D01*
X252000Y288050D02*
Y291982D01*
X252100Y288050D02*
Y291943D01*
X252200Y288050D02*
Y291905D01*
X252300Y288050D02*
Y291866D01*
X252400Y288050D02*
Y291828D01*
X252500Y288050D02*
Y288555D01*
Y291305D02*
Y291789D01*
X252600Y288050D02*
Y288382D01*
Y291470D02*
Y291751D01*
X252700Y288050D02*
Y288282D01*
Y291520D02*
Y291712D01*
X252800Y288050D02*
Y288182D01*
Y291558D02*
Y291674D01*
X252900Y288050D02*
Y288125D01*
Y291525D02*
Y291635D01*
X253000Y288050D02*
Y288125D01*
Y291491D02*
Y291597D01*
X253600Y289235D02*
Y289304D01*
Y290506D02*
Y290864D01*
X253700Y288935D02*
Y289054D01*
Y290506D02*
Y291162D01*
X253800Y288767D02*
Y288956D01*
Y290506D02*
Y291312D01*
X253900Y288617D02*
Y288881D01*
Y290506D02*
Y291462D01*
X254000Y288467D02*
Y288806D01*
Y290506D02*
Y291589D01*
X254100Y288356D02*
Y288733D01*
Y290506D02*
Y291669D01*
X254200Y288289D02*
Y288666D01*
Y290506D02*
Y291749D01*
X254300Y288223D02*
Y288600D01*
Y290506D02*
Y291829D01*
X254400Y288156D02*
Y288564D01*
Y290506D02*
Y290669D01*
Y291245D02*
Y291901D01*
X254500Y288089D02*
Y288564D01*
Y290506D02*
Y290669D01*
Y291360D02*
Y291916D01*
X254600Y288041D02*
Y288564D01*
Y290506D02*
Y290669D01*
Y291460D02*
Y291930D01*
X254700Y288025D02*
Y288564D01*
Y290506D02*
Y290669D01*
Y291560D02*
Y291944D01*
X254800Y288008D02*
Y288575D01*
Y290506D02*
Y290669D01*
Y291648D02*
Y291959D01*
X254900Y287991D02*
Y288589D01*
Y290506D02*
Y290669D01*
Y291688D02*
Y291973D01*
X255000Y287975D02*
Y288604D01*
Y290506D02*
Y290669D01*
Y291728D02*
Y291979D01*
X255100Y287966D02*
Y288618D01*
Y290506D02*
Y290669D01*
Y291768D02*
Y291954D01*
X255200Y287979D02*
Y288632D01*
Y290506D02*
Y290669D01*
Y291808D02*
Y291929D01*
X255300Y287991D02*
Y288646D01*
Y290506D02*
Y290669D01*
Y291810D02*
Y291904D01*
X255400Y288004D02*
Y288698D01*
Y290506D02*
Y290669D01*
Y291785D02*
Y291879D01*
X255500Y288016D02*
Y288798D01*
Y290506D02*
Y290669D01*
Y291760D02*
Y291854D01*
X255600Y288029D02*
Y288898D01*
Y290506D02*
Y290669D01*
Y291735D02*
Y291829D01*
X255700Y288041D02*
Y288998D01*
Y290506D02*
Y290669D01*
Y291675D02*
Y291793D01*
X255800Y288088D02*
Y289098D01*
Y290506D02*
Y290669D01*
Y291609D02*
Y291736D01*
X255900Y288172D02*
Y289242D01*
Y290506D02*
Y290669D01*
Y291538D02*
Y291679D01*
X256000Y288255D02*
Y289392D01*
Y290506D02*
Y290669D01*
Y291405D02*
Y291622D01*
X256100Y288338D02*
Y289542D01*
Y290506D02*
Y290669D01*
Y291272D02*
Y291564D01*
X256200Y288422D02*
Y289909D01*
Y290506D02*
Y290669D01*
Y291027D02*
Y291507D01*
X256300Y288527D02*
Y291393D01*
X256400Y288667D02*
Y291193D01*
X256500Y288807D02*
Y290993D01*
X256600Y288947D02*
Y290793D01*
X256700Y289187D02*
Y290298D01*
X257200Y288050D02*
Y288152D01*
X257300Y288050D02*
Y288177D01*
X257400Y288050D02*
Y288202D01*
X257500Y288050D02*
Y288227D01*
X257600Y288050D02*
Y288252D01*
X257700Y288050D02*
Y288277D01*
X257800Y288050D02*
Y288302D01*
X257900Y288050D02*
Y288371D01*
Y293726D02*
Y293827D01*
X258000Y288050D02*
Y288446D01*
Y293701D02*
Y293827D01*
X258100Y288050D02*
Y288521D01*
Y293676D02*
Y293827D01*
X258200Y288050D02*
Y288599D01*
Y293640D02*
Y293827D01*
X258300Y288050D02*
Y288682D01*
Y293590D02*
Y293827D01*
X258400Y288050D02*
Y288765D01*
Y293540D02*
Y293827D01*
X258500Y288050D02*
Y288849D01*
Y293490D02*
Y293827D01*
X258600Y288050D02*
Y288932D01*
Y293434D02*
Y293827D01*
X258700Y288050D02*
Y289015D01*
Y293377D02*
Y293827D01*
X258800Y288050D02*
Y289111D01*
Y293320D02*
Y293827D01*
X258900Y288050D02*
Y289208D01*
Y293263D02*
Y293827D01*
X259000Y288050D02*
Y289304D01*
Y293205D02*
Y293827D01*
X259100Y288050D02*
Y289400D01*
Y293148D02*
Y293827D01*
X259200Y288050D02*
Y289496D01*
Y293064D02*
Y293827D01*
X259300Y288050D02*
Y288288D01*
Y288704D02*
Y289592D01*
Y292964D02*
Y293827D01*
X259400Y288050D02*
Y288204D01*
Y288804D02*
Y289688D01*
Y292864D02*
Y293186D01*
Y293614D02*
Y293827D01*
X259500Y288050D02*
Y288179D01*
Y288904D02*
Y289785D01*
Y292764D02*
Y293020D01*
Y293681D02*
Y293827D01*
X259600Y288050D02*
Y288154D01*
Y289004D02*
Y289881D01*
Y292664D02*
Y292873D01*
Y293715D02*
Y293827D01*
X259700Y289100D02*
Y289977D01*
Y292564D02*
Y292773D01*
Y293748D02*
Y293827D01*
X259800Y289195D02*
Y290073D01*
Y292464D02*
Y292673D01*
Y293752D02*
Y293827D01*
X259900Y289291D02*
Y290169D01*
Y292364D02*
Y292573D01*
X260000Y289387D02*
Y290265D01*
Y292264D02*
Y292473D01*
X260100Y289482D02*
Y290361D01*
Y292164D02*
Y292373D01*
X260200Y289578D02*
Y290458D01*
Y292064D02*
Y292273D01*
X260300Y289673D02*
Y290554D01*
Y291964D02*
Y292173D01*
X260400Y289769D02*
Y290650D01*
Y291864D02*
Y292073D01*
X260500Y289865D02*
Y290746D01*
Y291764D02*
Y291973D01*
X260600Y289960D02*
Y290842D01*
Y291664D02*
Y291873D01*
X260700Y290056D02*
Y290938D01*
Y291564D02*
Y291773D01*
X260800Y290152D02*
Y291035D01*
Y291464D02*
Y291673D01*
X260900Y290247D02*
Y291131D01*
Y291364D02*
Y291573D01*
X261000Y288050D02*
Y288125D01*
Y290343D02*
Y291473D01*
Y293752D02*
Y293827D01*
X261100Y288050D02*
Y288140D01*
Y290439D02*
Y291393D01*
Y293737D02*
Y293827D01*
X261200Y288050D02*
Y288165D01*
Y290534D02*
Y291313D01*
Y293712D02*
Y293827D01*
X261300Y288050D02*
Y288190D01*
Y290630D02*
Y291233D01*
Y293687D02*
Y293827D01*
X261400Y288050D02*
Y288215D01*
Y290726D02*
Y291153D01*
Y293662D02*
Y293827D01*
X261500Y288050D02*
Y288306D01*
Y290821D02*
Y291061D01*
Y293533D02*
Y293827D01*
X261600Y288050D02*
Y288407D01*
Y290917D02*
Y290961D01*
Y293383D02*
Y293827D01*
X261700Y288050D02*
Y293827D01*
X261800Y288050D02*
Y293827D01*
X261900Y288050D02*
Y293827D01*
X262000Y288050D02*
Y293827D01*
X262100Y288050D02*
Y293827D01*
X262200Y288050D02*
Y293827D01*
X262300Y288050D02*
Y293827D01*
X262400Y288050D02*
Y288572D01*
Y293218D02*
Y293827D01*
X262500Y288050D02*
Y288308D01*
Y293498D02*
Y293827D01*
X262600Y288050D02*
Y288258D01*
Y293662D02*
Y293827D01*
X262700Y288050D02*
Y288212D01*
Y293682D02*
Y293827D01*
X262800Y288050D02*
Y288187D01*
Y293702D02*
Y293827D01*
X262900Y288050D02*
Y288162D01*
Y293722D02*
Y293827D01*
X263000Y288050D02*
Y288137D01*
Y293742D02*
Y293827D01*
X263100Y288050D02*
Y288125D01*
Y293752D02*
Y293827D01*
X265700Y288050D02*
Y288125D01*
X265800Y288050D02*
Y288125D01*
X265900Y288050D02*
Y288145D01*
X266000Y288050D02*
Y288234D01*
X266100Y288050D02*
Y288284D01*
X266200Y288050D02*
Y288424D01*
X266300Y288050D02*
Y291134D01*
X266400Y288050D02*
Y291425D01*
X266500Y288050D02*
Y291625D01*
X266600Y288050D02*
Y291740D01*
X266700Y288050D02*
Y291822D01*
X266800Y288050D02*
Y291851D01*
X266900Y288050D02*
Y288455D01*
Y291054D02*
Y291879D01*
X267000Y288050D02*
Y288305D01*
Y291204D02*
Y291908D01*
X267100Y288050D02*
Y288209D01*
Y291329D02*
Y291936D01*
X267200Y288050D02*
Y288184D01*
Y291429D02*
Y291965D01*
X267300Y288050D02*
Y288159D01*
Y291486D02*
Y291970D01*
X267400Y288050D02*
Y288134D01*
Y291519D02*
Y291937D01*
X267500Y291553D02*
Y291903D01*
X267600Y291537D02*
Y291877D01*
X267700Y291504D02*
Y291852D01*
X267800Y291470D02*
Y291827D01*
X267900Y291437D02*
Y291780D01*
X268000Y291404D02*
Y291705D01*
X268100Y288050D02*
Y288125D01*
Y291362D02*
Y291630D01*
X268200Y288050D02*
Y288125D01*
Y291295D02*
Y291552D01*
X268300Y288050D02*
Y288156D01*
Y291229D02*
Y291427D01*
X268400Y288050D02*
Y288206D01*
Y291162D02*
Y291302D01*
X268500Y288050D02*
Y288344D01*
Y291095D02*
Y291177D01*
X268600Y288050D02*
Y288477D01*
Y291029D02*
Y291113D01*
X268700Y288050D02*
Y291985D01*
X268800Y288050D02*
Y291964D01*
X268900Y288050D02*
Y291926D01*
X269000Y288050D02*
Y291887D01*
X269100Y288050D02*
Y291849D01*
X269200Y288050D02*
Y291810D01*
X269300Y288050D02*
Y288376D01*
Y291396D02*
Y291772D01*
X269400Y288050D02*
Y288249D01*
Y291493D02*
Y291733D01*
X269500Y288050D02*
Y288149D01*
Y291543D02*
Y291695D01*
X269600Y288050D02*
Y288125D01*
Y291543D02*
Y291656D01*
X269700Y288050D02*
Y288125D01*
Y291509D02*
Y291618D01*
X269800Y288050D02*
Y288125D01*
Y291519D02*
Y291579D01*
X270300Y288050D02*
Y288125D01*
X270400Y288050D02*
Y288125D01*
X270500Y288050D02*
Y288125D01*
X270600Y288050D02*
Y288196D01*
X270700Y288050D02*
Y288296D01*
X270800Y288050D02*
Y288396D01*
X270900Y288050D02*
Y288583D01*
Y293512D02*
Y293758D01*
X271000Y288050D02*
Y291985D01*
Y293376D02*
Y293940D01*
X271100Y288050D02*
Y291957D01*
Y293309D02*
Y294007D01*
X271200Y288050D02*
Y291918D01*
Y293243D02*
Y294073D01*
X271300Y288050D02*
Y291880D01*
Y293276D02*
Y294040D01*
X271400Y288050D02*
Y291841D01*
Y293326D02*
Y293990D01*
X271500Y288050D02*
Y291803D01*
Y293376D02*
Y293940D01*
X271600Y288050D02*
Y288425D01*
Y291435D02*
Y291764D01*
Y293499D02*
Y293776D01*
X271700Y288050D02*
Y288229D01*
Y291502D02*
Y291726D01*
X271800Y288050D02*
Y288176D01*
Y291552D02*
Y291687D01*
X271900Y288050D02*
Y288127D01*
Y291536D02*
Y291649D01*
X272000Y288050D02*
Y288125D01*
Y291503D02*
Y291610D01*
X272100Y288050D02*
Y288125D01*
Y291557D02*
Y291572D01*
X272600Y291805D02*
Y291897D01*
X272700Y291780D02*
Y291897D01*
X272800Y291755D02*
Y291897D01*
X272900Y291729D02*
Y291897D01*
X273000Y291577D02*
Y291897D01*
X273100Y291410D02*
Y291897D01*
X273200Y291231D02*
Y291897D01*
X273300Y290977D02*
Y291420D01*
Y291732D02*
Y291897D01*
X273400Y290724D02*
Y291032D01*
Y291782D02*
Y291897D01*
X273500Y290471D02*
Y290782D01*
Y291822D02*
Y291897D01*
X273600Y290217D02*
Y290532D01*
Y291822D02*
Y291897D01*
X273700Y289964D02*
Y290282D01*
Y291822D02*
Y291897D01*
X273800Y289711D02*
Y290032D01*
X273900Y289457D02*
Y289782D01*
X274000Y289204D02*
Y289532D01*
X274100Y288951D02*
Y289282D01*
X274200Y288697D02*
Y289032D01*
X274300Y288444D02*
Y288919D01*
X274400Y288191D02*
Y289105D01*
X274500Y287962D02*
Y289323D01*
X274600Y287966D02*
Y289542D01*
X274700Y288204D02*
Y289760D01*
X274800Y288441D02*
Y289978D01*
X274900Y288679D02*
Y290196D01*
X275000Y288916D02*
Y290414D01*
Y291819D02*
Y291897D01*
X275100Y289154D02*
Y290632D01*
Y291785D02*
Y291897D01*
X275200Y289391D02*
Y290851D01*
Y291752D02*
Y291897D01*
X275300Y289629D02*
Y291087D01*
Y291687D02*
Y291897D01*
X275400Y289866D02*
Y291897D01*
X275500Y290104D02*
Y291897D01*
X275600Y290341D02*
Y291897D01*
X275700Y290579D02*
Y291897D01*
X275800Y290816D02*
Y291897D01*
X275900Y291054D02*
Y291897D01*
X276000Y291283D02*
Y291897D01*
X276100Y291433D02*
Y291897D01*
X276200Y291562D02*
Y291897D01*
X276300Y291629D02*
Y291897D01*
X276400Y291695D02*
Y291897D01*
X276500Y291746D02*
Y291897D01*
X276600Y291779D02*
Y291897D01*
X277200Y289225D02*
Y289295D01*
Y290506D02*
Y290889D01*
X277300Y288925D02*
Y289045D01*
Y290506D02*
Y291167D01*
X277400Y288762D02*
Y288953D01*
Y290506D02*
Y291317D01*
X277500Y288612D02*
Y288878D01*
Y290506D02*
Y291467D01*
X277600Y288462D02*
Y288803D01*
Y290506D02*
Y291591D01*
X277700Y288354D02*
Y288731D01*
Y290506D02*
Y291671D01*
X277800Y288287D02*
Y288664D01*
Y290506D02*
Y291751D01*
X277900Y288220D02*
Y288597D01*
Y290506D02*
Y291831D01*
X278000Y288154D02*
Y288564D01*
Y290506D02*
Y290669D01*
Y291252D02*
Y291902D01*
X278100Y288087D02*
Y288564D01*
Y290506D02*
Y290669D01*
Y291364D02*
Y291916D01*
X278200Y288041D02*
Y288564D01*
Y290506D02*
Y290669D01*
Y291464D02*
Y291930D01*
X278300Y288024D02*
Y288564D01*
Y290506D02*
Y290669D01*
Y291564D02*
Y291945D01*
X278400Y288007D02*
Y288576D01*
Y290506D02*
Y290669D01*
Y291649D02*
Y291959D01*
X278500Y287991D02*
Y288590D01*
Y290506D02*
Y290669D01*
Y291689D02*
Y291973D01*
X278600Y287974D02*
Y288604D01*
Y290506D02*
Y290669D01*
Y291729D02*
Y291978D01*
X278700Y287967D02*
Y288618D01*
Y290506D02*
Y290669D01*
Y291769D02*
Y291953D01*
X278800Y287979D02*
Y288633D01*
Y290506D02*
Y290669D01*
Y291809D02*
Y291928D01*
X278900Y287992D02*
Y288647D01*
Y290506D02*
Y290669D01*
Y291809D02*
Y291903D01*
X279000Y288004D02*
Y288701D01*
Y290506D02*
Y290669D01*
Y291784D02*
Y291878D01*
X279100Y288017D02*
Y288801D01*
Y290506D02*
Y290669D01*
Y291759D02*
Y291853D01*
X279200Y288029D02*
Y288901D01*
Y290506D02*
Y290669D01*
Y291734D02*
Y291828D01*
X279300Y288042D02*
Y289001D01*
Y290506D02*
Y290669D01*
Y291673D02*
Y291791D01*
X279400Y288091D02*
Y289101D01*
Y290506D02*
Y290669D01*
Y291606D02*
Y291734D01*
X279500Y288175D02*
Y289248D01*
Y290506D02*
Y290669D01*
Y291534D02*
Y291677D01*
X279600Y288258D02*
Y289398D01*
Y290506D02*
Y290669D01*
Y291400D02*
Y291620D01*
X279700Y288341D02*
Y289548D01*
Y290506D02*
Y290669D01*
Y291267D02*
Y291562D01*
X279800Y288425D02*
Y289940D01*
Y290506D02*
Y290669D01*
Y291009D02*
Y291505D01*
X279900Y288532D02*
Y291386D01*
X280000Y288672D02*
Y291186D01*
X280100Y288812D02*
Y290986D01*
X280200Y288952D02*
Y290780D01*
X280300Y289222D02*
Y290280D01*
X280800Y288050D02*
Y288153D01*
X280900Y288050D02*
Y288178D01*
X281000Y288050D02*
Y288203D01*
X281100Y288050D02*
Y288228D01*
X281200Y288050D02*
Y288253D01*
X281300Y288050D02*
Y288278D01*
X281400Y288050D02*
Y288303D01*
X281500Y288050D02*
Y288374D01*
Y293725D02*
Y293827D01*
X281600Y288050D02*
Y288449D01*
Y293700D02*
Y293827D01*
X281700Y288050D02*
Y288524D01*
Y293675D02*
Y293827D01*
X281800Y288050D02*
Y288602D01*
Y293638D02*
Y293827D01*
X281900Y288050D02*
Y288685D01*
Y293588D02*
Y293827D01*
X282000Y288050D02*
Y288768D01*
Y293538D02*
Y293827D01*
X282100Y288050D02*
Y288852D01*
Y293488D02*
Y293827D01*
X282200Y288050D02*
Y288935D01*
Y293432D02*
Y293827D01*
X282300Y288050D02*
Y289019D01*
Y293375D02*
Y293827D01*
X282400Y288050D02*
Y289115D01*
Y293318D02*
Y293827D01*
X282500Y288050D02*
Y289211D01*
Y293261D02*
Y293827D01*
X282600Y288050D02*
Y289307D01*
Y293203D02*
Y293827D01*
X282700Y288050D02*
Y289403D01*
Y293146D02*
Y293827D01*
X282800Y288050D02*
Y289499D01*
Y293060D02*
Y293827D01*
X282900Y288050D02*
Y288281D01*
Y288708D02*
Y289596D01*
Y292960D02*
Y293827D01*
X283000Y288050D02*
Y288203D01*
Y288808D02*
Y289692D01*
Y292860D02*
Y293175D01*
Y293621D02*
Y293827D01*
X283100Y288050D02*
Y288178D01*
Y288908D02*
Y289788D01*
Y292760D02*
Y293014D01*
Y293683D02*
Y293827D01*
X283200Y288050D02*
Y288153D01*
Y289007D02*
Y289884D01*
Y292660D02*
Y292870D01*
Y293716D02*
Y293827D01*
X283300Y289103D02*
Y289980D01*
Y292560D02*
Y292770D01*
Y293749D02*
Y293827D01*
X283400Y289199D02*
Y290076D01*
Y292460D02*
Y292670D01*
Y293752D02*
Y293827D01*
X283500Y289294D02*
Y290173D01*
Y292360D02*
Y292570D01*
X283600Y289390D02*
Y290269D01*
Y292260D02*
Y292470D01*
X283700Y289486D02*
Y290365D01*
Y292160D02*
Y292370D01*
X283800Y289581D02*
Y290461D01*
Y292060D02*
Y292270D01*
X283900Y289677D02*
Y290557D01*
Y291960D02*
Y292170D01*
X284000Y289772D02*
Y290653D01*
Y291860D02*
Y292070D01*
X284100Y289868D02*
Y290749D01*
Y291760D02*
Y291970D01*
X284200Y289964D02*
Y290846D01*
Y291660D02*
Y291870D01*
X284300Y290059D02*
Y290942D01*
Y291560D02*
Y291770D01*
X284400Y290155D02*
Y291038D01*
Y291460D02*
Y291670D01*
X284500Y290251D02*
Y291134D01*
Y291360D02*
Y291570D01*
X284600Y288050D02*
Y288125D01*
Y290346D02*
Y291470D01*
Y293752D02*
Y293827D01*
X284700Y288050D02*
Y288141D01*
Y290442D02*
Y291390D01*
Y293736D02*
Y293827D01*
X284800Y288050D02*
Y288166D01*
Y290538D02*
Y291310D01*
Y293711D02*
Y293827D01*
X284900Y288050D02*
Y288191D01*
Y290633D02*
Y291230D01*
Y293686D02*
Y293827D01*
X285000Y288050D02*
Y288216D01*
Y290729D02*
Y291150D01*
Y293661D02*
Y293827D01*
X285100Y288050D02*
Y288310D01*
Y290825D02*
Y291057D01*
Y293528D02*
Y293827D01*
X285200Y288050D02*
Y288412D01*
Y290920D02*
Y290957D01*
Y293378D02*
Y293827D01*
X285300Y288050D02*
Y293827D01*
X285400Y288050D02*
Y293827D01*
X285500Y288050D02*
Y293827D01*
X285600Y288050D02*
Y293827D01*
X285700Y288050D02*
Y293827D01*
X285800Y288050D02*
Y293827D01*
X285900Y288050D02*
Y293827D01*
X286000Y288050D02*
Y288561D01*
Y293228D02*
Y293827D01*
X286100Y288050D02*
Y288306D01*
Y293505D02*
Y293827D01*
X286200Y288050D02*
Y288256D01*
Y293663D02*
Y293827D01*
X286300Y288050D02*
Y288211D01*
Y293683D02*
Y293827D01*
X286400Y288050D02*
Y288186D01*
Y293703D02*
Y293827D01*
X286500Y288050D02*
Y288161D01*
Y293723D02*
Y293827D01*
X286600Y288050D02*
Y288136D01*
Y293743D02*
Y293827D01*
X286700Y288050D02*
Y288125D01*
Y293752D02*
Y293827D01*
*
G04 PC Custom Flashes*
G04 Layer Name medulla.1.pcb - flashes*
%LPD*%
*
*
G04 PC Circuitry*
G04 Layer Name medulla.1.pcb - circuitry*
%LPD*%
*
G54D39*
G54D53*
X145000Y316811D03*
X388000Y173874D03*
G54D54*
X145000Y308937D03*
Y301063D03*
Y293189D03*
X388000Y166000D03*
Y158126D03*
G54D60*
X371000Y246350D03*
Y239650D03*
X375000Y205650D03*
Y212350D03*
X278000Y279350D03*
Y272650D03*
X317000Y276350D03*
Y269650D03*
X185000Y120700D03*
Y114000D03*
Y107300D03*
X293000Y205350D03*
Y198650D03*
X305000Y205350D03*
Y198650D03*
X299000Y205350D03*
Y198650D03*
X311000Y205350D03*
Y198650D03*
X207000Y171650D03*
Y178350D03*
Y191350D03*
Y184650D03*
X279000Y187350D03*
Y180650D03*
Y200350D03*
Y193650D03*
X191000Y120700D03*
Y114000D03*
Y107300D03*
X197000Y120700D03*
Y114000D03*
Y107300D03*
X203000Y120700D03*
Y114000D03*
Y107300D03*
X209000Y120700D03*
Y114000D03*
Y107300D03*
X150000Y120700D03*
Y114000D03*
Y107300D03*
X156000Y120700D03*
Y114000D03*
Y107300D03*
X162000Y120700D03*
Y114000D03*
Y107300D03*
X168000Y120700D03*
Y114000D03*
Y107300D03*
X174000Y120700D03*
Y114000D03*
Y107300D03*
X304000Y187350D03*
Y180650D03*
X298000D03*
Y187350D03*
X207000Y248650D03*
Y255350D03*
Y268350D03*
Y261650D03*
X292000Y187350D03*
Y180650D03*
X122000Y292650D03*
Y299350D03*
X213000Y248650D03*
Y255350D03*
X207000Y158650D03*
Y165350D03*
G54D61*
X352650Y247000D03*
X359350D03*
X352650Y234000D03*
X359350D03*
X352650Y214000D03*
X359350D03*
X253650Y208000D03*
X260350D03*
X352650Y205000D03*
X359350D03*
X393350D03*
X386650D03*
X393350Y216000D03*
X386650D03*
X393350Y235000D03*
X386650D03*
X247650Y124000D03*
X254350D03*
Y130000D03*
X247650D03*
X386650Y241000D03*
X393350D03*
X253650Y172000D03*
X260350D03*
X246350Y154000D03*
X239650D03*
X305350Y226000D03*
X298650D03*
X253650Y190000D03*
X260350D03*
X246350Y196000D03*
X239650D03*
X246350Y172000D03*
X239650D03*
X246350Y166000D03*
X239650D03*
Y190000D03*
X246350D03*
Y202000D03*
X239650D03*
Y178000D03*
X246350D03*
X253650Y260000D03*
X260350D03*
X246350Y266000D03*
X239650D03*
X246350Y242000D03*
X239650D03*
X246350Y236000D03*
X239650D03*
Y260000D03*
X246350D03*
X239650Y218000D03*
X246350D03*
Y272000D03*
X239650D03*
Y248000D03*
X246350D03*
X253650Y278000D03*
X260350D03*
X253650Y242000D03*
X260350D03*
X239650Y278000D03*
X246350D03*
X260350Y236000D03*
X253650D03*
X260350Y230000D03*
X253650D03*
X260350Y224000D03*
X253650D03*
X260350Y218000D03*
X253650D03*
X260350Y272000D03*
X253650D03*
X260350Y266000D03*
X253650D03*
X260350Y254000D03*
X253650D03*
X260350Y248000D03*
X253650D03*
X239650Y208000D03*
X246350D03*
X260350Y166000D03*
X253650D03*
X260350Y160000D03*
X253650D03*
X260350Y154000D03*
X253650D03*
X260350Y148000D03*
X253650D03*
X260350Y202000D03*
X253650D03*
X260350Y196000D03*
X253650D03*
X260350Y184000D03*
X253650D03*
X272650Y207000D03*
X279350D03*
X260350Y178000D03*
X253650D03*
X393350Y247000D03*
X386650D03*
X246350Y224000D03*
X239650D03*
Y148000D03*
X246350D03*
X115350Y299000D03*
X108650D03*
X115350Y293000D03*
X108650D03*
G54D62*
X263250Y308000D03*
X254750D03*
G54D64*
X389000Y290000D03*
G54D65*
X280000Y310000D03*
Y320000D03*
X290000Y310000D03*
Y320000D03*
X300000Y310000D03*
Y320000D03*
X310000Y310000D03*
Y320000D03*
X330000Y310000D03*
Y320000D03*
X340000Y310000D03*
Y320000D03*
X350000Y310000D03*
Y320000D03*
X360000Y310000D03*
Y320000D03*
X430000D03*
X440000D03*
X430000Y310000D03*
X440000D03*
X430000Y300000D03*
X440000D03*
X399000Y290000D03*
X389000Y280000D03*
X399000D03*
X389000Y270000D03*
X399000D03*
X430000Y290000D03*
X440000D03*
X430000Y270000D03*
X440000D03*
X430000Y260000D03*
X440000D03*
X430000Y250000D03*
X440000D03*
X430000Y240000D03*
X440000D03*
X430000Y200000D03*
X440000D03*
X430000Y190000D03*
X440000D03*
X430000Y180000D03*
X440000D03*
X430000Y170000D03*
X440000D03*
X430000Y150000D03*
X440000D03*
X430000Y140000D03*
X440000D03*
X430000Y130000D03*
X440000D03*
X430000Y120000D03*
X440000D03*
X370000D03*
Y110000D03*
X360000Y120000D03*
Y110000D03*
X350000Y120000D03*
Y110000D03*
X340000Y120000D03*
Y110000D03*
X320000Y120000D03*
Y110000D03*
X310000Y120000D03*
Y110000D03*
X300000Y120000D03*
Y110000D03*
X290000Y120000D03*
Y110000D03*
X306000Y162000D03*
Y152000D03*
X420000Y160000D03*
X430000D03*
X440000D03*
X420000Y110000D03*
X430000D03*
X440000D03*
X330000Y130000D03*
Y120000D03*
Y110000D03*
X280000Y130000D03*
Y120000D03*
Y110000D03*
X370000Y300000D03*
Y310000D03*
Y320000D03*
X420000Y280000D03*
X430000D03*
X440000D03*
X420000Y230000D03*
X430000D03*
X440000D03*
X320000Y300000D03*
Y310000D03*
Y320000D03*
G54D66*
X170000Y220000D03*
Y165000D03*
G54D67*
X180000Y225000D03*
X170000Y240000D03*
X180000Y245000D03*
X170000Y250000D03*
X180000Y255000D03*
X170000Y260000D03*
X180000Y265000D03*
Y170000D03*
X170000Y175000D03*
X180000Y180000D03*
X170000Y185000D03*
X180000Y190000D03*
X170000Y205000D03*
X180000Y210000D03*
G54D68*
X145000Y265000D03*
Y165000D03*
G54D69*
X130000Y269200D03*
X123000D03*
X130000Y216700D03*
X123000D03*
X143900Y213300D03*
X136900D03*
X130000Y160800D03*
X123000D03*
G54D70*
X157000Y276000D03*
X202000Y217500D03*
X157000Y154000D03*
G54D74*
X374450Y225050D03*
Y228950D03*
X379550Y227000D03*
X291450Y160050D03*
Y163950D03*
X296550Y162000D03*
G54D94*
G54D118*
X115000Y115000D03*
Y315000D03*
X390000D03*
Y115000D03*
G54D119*
X307630Y278500D03*
Y273500D03*
Y268500D03*
Y263500D03*
X286370D03*
Y268500D03*
Y273500D03*
Y278500D03*
X0Y0D02*
M02*
