%
T1C.015F095S3
X0147Y01414
X01642Y01447
X0191Y01259
X02281Y0127
X0234Y01272
X024Y01272
X02439Y01475
X02459Y01272
X0252Y01273
X02545Y01125
X02781Y01286
X02841Y01274
X02864Y01481
X02899Y01271
X02958Y01268
X03019Y0127
X0302Y0105
X0342Y0136
X0397Y01355
X03995Y0149
X0402Y0146
X041Y0139
X0452Y01355
X05336Y01198
X05339Y0125
X05388Y01447
X0549Y0132
X0545Y0165
X05388Y01797
X05335Y0155
X05325Y0179
X05323Y01953
X05302Y01629
X0527Y0202
X0526Y01652
X05242Y01748
X05199Y01825
X05155Y018
X05104Y01946
X0452Y01805
X0451Y0187
X0402Y01865
X0397Y01805
X03897Y02039
X0383Y0182
X0365Y0189
X0342Y01805
X03196Y01874
X02783Y01806
X02435Y01879
X0208Y0175
X01637Y01894
X0146Y0192
X01984Y02053
X0204Y02235
X02048Y02166
X02104Y02054
X02215Y02078
X02244Y02054
X02279Y02055
X0231Y0227
X02343Y0222
X0235Y0205
X02434Y02194
X02445Y02051
X0258Y02055
X02609Y02134
X02666Y02194
X02695Y02052
X02746Y02195
X0276Y0206
X02814Y02054
X02911Y02068
X02917Y02121
X02954Y0205
X02992Y02057
X0305Y02215
X03051Y0205
X03116Y02052
X03136Y02194
X0317Y02055
X0329Y02055
X03315Y0213
X03377Y02193
X0345Y02225
X03802Y02233
X039Y02115
X03935Y0209
X03965Y02255
X0452Y02255
X05152Y022
X05242Y02148
X05245Y0223
X05248Y02273
X05299Y02074
X05338Y02149
X05388Y02254
X05425Y0215
X05393Y0236
X05336Y02378
X0531Y0232
X05305Y02365
X05248Y02344
X0479Y0251
X04645Y02441
X0459Y02406
X04551Y02482
X041Y02516
X04067Y02513
X0402Y02314
X03965Y02315
X03959Y02435
X03873Y02412
X0386Y02545
X0372Y02525
X0349Y02425
X0345Y0232
X0338Y0246
X03349Y02455
X03319Y02331
X0326Y0233
X03244Y02443
X03189Y02349
X03153Y02348
X03138Y02518
X03115Y02346
X03088Y02432
X03035Y02454
X02984Y02344
X02967Y02454
X02941Y02431
X029Y0234
X0284Y0233
X0281Y02537
X02809Y02344
X02769Y02341
X0273Y02435
X02699Y02436
X02695Y02346
X02635Y0249
X02635Y02435
X02582Y02348
X02531Y02524
X02509Y02344
X02471Y02351
X0243Y02335
X02403Y02431
X02398Y02464
X02397Y0235
X02332Y02431
X02283Y02454
X02281Y02345
X02261Y02431
X02184Y02345
X02145Y02514
X02128Y02343
X02094Y02344
X0206Y02345
X02049Y02477
X01985Y02347
X01548Y02391
X0146Y0237
X01919Y027
X02029Y02676
X02046Y02775
X0219Y02569
X02208Y02699
X02401Y02771
X02608Y0279
X02651Y02786
X02731Y02585
X03108Y02783
X0319Y0256
X03273Y02728
X03305Y02595
X0358Y02667
X03667Y02782
X0368Y02635
X0369Y0274
X03798Y02769
X03818Y02621
X04105Y02675
X04177Y02785
X04185Y02754
X0482Y02655
X05204Y02583
X05245Y02745
X05245Y02645
X05306Y02636
X0533Y02735
X05339Y02642
X05395Y0272
X0542Y0285
X05384Y0285
X05338Y02949
X05314Y02986
X05303Y02956
X05192Y02823
X05109Y02821
X0428Y0292
X04215Y03047
X0418Y0289
X0415Y03039
X04099Y03034
X0389Y03005
X0383Y02889
X03774Y0302
X03698Y02888
X03665Y02915
X0348Y0295
X03455Y0301
X03453Y02979
X0339Y02937
X03364Y03003
X03276Y02987
X03215Y02985
X03145Y02988
X03065Y0294
X0292Y02895
X02684Y02886
X0268Y02855
X02672Y02809
X02649Y02885
X02631Y02821
X02613Y02892
X02601Y0284
X02579Y02891
X02575Y02818
X02407Y02855
X02241Y02802
X02239Y0285
X02165Y0288
X0213Y0297
X02014Y02925
X01627Y0284
X0146Y0282
X0112Y03235
X0118Y031
X0133Y0324
X014Y0318
X01431Y03145
X01575Y03255
X0164Y03155
X01752Y03209
X0177Y03055
X01775Y03235
X01917Y03245
X01925Y03153
X02027Y03139
X02184Y0318
X02385Y03075
X0251Y0306
X02546Y03207
X0272Y03145
X0275Y0312
X02775Y03275
X02793Y03163
X0282Y0309
X03025Y0316
X0322Y0326
X03275Y03175
X0353Y03285
X0353Y0309
X0359Y0326
X03644Y03289
X0369Y03195
X03815Y0312
X03866Y03298
X0419Y0312
X042Y0309
X0539Y0339
X053Y0339
X0522Y034
X0513Y0347
X0512Y0341
X0503Y0342
X0493Y0341
X0487Y0347
X0434Y0341
X0406Y0354
X03865Y034
X03838Y03383
X038Y03406
X0377Y0342
X0366Y03445
X036Y03494
X036Y03463
X03593Y03423
X0357Y0348
X0357Y03307
X0355Y03544
X03543Y03397
X03504Y03395
X03462Y0342
X0345Y03475
X03435Y034
X03416Y03307
X03388Y03541
X03309Y03504
X0328Y03535
X0323Y0351
X02975Y0353
X02965Y03465
X02943Y0335
X02925Y0347
X02825Y0348
X02785Y03515
X02645Y03525
X02575Y0337
X02385Y03319
X02295Y033
X0228Y0338
X0217Y03515
X0207Y0343
X0201Y0346
X01562Y03437
X01425Y03545
X01245Y03365
X01176Y03489
X0112Y03635
X01575Y03655
X01765Y03605
X02009Y03635
X02014Y03577
X02074Y03589
X02237Y03645
X02544Y03714
X02598Y03633
X02695Y03745
X0275Y03632
X0296Y0364
X03Y0377
X0301Y0374
X03058Y03582
X0323Y03691
X0323Y03557
X0328Y03625
X03314Y03744
X03385Y0371
X03405Y03595
X0341Y0379
X03494Y0373
X03799Y03578
X03834Y03726
X0388Y037
X03914Y03631
X03989Y03643
X04006Y03611
X04102Y03689
X04146Y03672
X04167Y0364
X04322Y0367
X0434Y0363
X0434Y0355
X0492Y0373
X0497Y0373
X0502Y0373
X0507Y0373
X05435Y0398
X0539Y0382
X053Y0382
X0521Y0382
X0513Y0392
X0508Y0386
X0503Y0386
X0493Y0386
X0485Y0392
X04355Y03805
X0435Y0399
X0434Y0386
X0412Y0396
X0383Y03892
X03823Y03991
X0375Y038
X03726Y03901
X0358Y0385
X0352Y0389
X03495Y04025
X03455Y04
X03453Y03822
X03413Y03906
X0338Y0395
X03305Y03925
X0328Y03865
X03265Y03909
X03075Y03865
X03001Y04014
X02958Y03906
X02918Y03985
X02887Y03927
X02866Y038
X02831Y03881
X0282Y03952
X027Y0401
X0263Y04005
X02379Y03977
X01916Y03805
X01425Y03945
X01177Y03896
X0112Y04035
X0136Y0442
X01455Y04343
X01456Y04063
X01528Y04157
X01575Y04055
X0161Y04475
X01698Y04524
X02283Y0422
X0251Y0416
X02545Y0442
X026Y04125
X02637Y0445
X02975Y04115
X03045Y04455
X0312Y04145
X0323Y0431
X0354Y04065
X03697Y04053
X03775Y0408
X03885Y0438
X0402Y0408
X0403Y04275
X0414Y0447
X0423Y0444
X04261Y04309
X04265Y04465
X0435Y0408
X0492Y0418
X0497Y0418
X0503Y0408
X0508Y0408
X0445Y046
X04355Y04625
X04355Y04725
X04275Y0473
X0415Y04595
X0405Y0476
X03955Y04725
X039Y0463
X0384Y04555
X0366Y0478
X0325Y04725
X03156Y04616
X0313Y04775
X03107Y04687
X03082Y04577
X02763Y04605
X02756Y04728
X0272Y0463
X02665Y04727
X02664Y04686
X0172Y04611
X017Y0458
X01477Y04672
X0143Y04787
X02549Y04875
X03045Y04875
X03796Y04913
X03835Y0485
X04245Y04875
X0558Y0488
X05582Y04816
X056Y0485
X0573Y0488
X0573Y0481
X0575Y0485
X0588Y0488
X059Y0485
T2C.0315F197S55
X011031Y012
X011818Y012
X012606Y012
X013393Y012
X014181Y012
X014968Y012
X036Y011106
X036Y011893
X0415Y011106
X0415Y011893
X047Y011106
X047Y011893
X056818Y0115
X056818Y015
X057606Y015
X057606Y0115
X058393Y015
X058393Y0115
X059181Y0115
X059181Y015
X059181Y0185
X058393Y0185
X057606Y0185
X056818Y0185
X047Y015606
X047Y016393
X047Y020106
X0415Y015606
X0415Y016393
X0415Y020106
X036Y015606
X036Y016393
X036Y020106
X014968Y0165
X014181Y0165
X013393Y0165
X012606Y0165
X011818Y0165
X011031Y0165
X011031Y021
X011818Y021
X012606Y021
X013393Y021
X014181Y021
X014968Y021
X036Y020893
X0415Y020893
X047Y020893
X0475Y024606
X0475Y025393
X056818Y022
X057606Y022
X058393Y022
X059181Y022
X059181Y0255
X059181Y029
X058393Y0255
X058393Y029
X057606Y0255
X057606Y029
X056818Y0255
X056818Y029
X0475Y027856
X0475Y028643
X016755Y03
X015968Y03
X015181Y03
X014968Y0255
X014393Y03
X014181Y0255
X013606Y03
X013393Y0255
X012818Y03
X012606Y0255
X012031Y03
X011818Y0255
X011244Y03
X011031Y0255
X011244Y034
X012031Y034
X012818Y034
X013606Y034
X014393Y034
X015181Y034
X015968Y034
X016755Y034
X0475Y031893
X0475Y031106
X057212Y0325
X058Y0325
X058787Y0325
X058787Y036
X058Y036
X057212Y036
X016755Y038
X015968Y038
X015181Y038
X014393Y038
X013606Y038
X012818Y038
X012031Y038
X011244Y038
X011244Y042
X012031Y042
X012818Y042
X013606Y042
X014393Y042
X015181Y042
X015968Y042
X016755Y042
X021Y045031
X025Y045031
X029Y045031
X033Y045031
X037Y045031
X041Y045031
X045Y045031
X049Y045031
X049Y047393
X049Y046606
X049Y045818
X045Y047393
X045Y046606
X045Y045818
X041Y047393
X041Y046606
X041Y045818
X037Y046606
X037Y045818
X037Y047393
X033Y047393
X033Y046606
X033Y045818
X029Y047393
X029Y046606
X029Y045818
X025Y045818
X025Y046606
X025Y047393
X021Y046606
X021Y045818
X021Y047393
X0115Y047212
X0115Y048787
X0115Y048
X021Y048181
X021Y048968
X025Y048968
X025Y048181
X029Y048968
X029Y048181
X033Y048968
X033Y048181
X037Y048968
X037Y048181
X041Y048968
X041Y048181
X045Y048968
X045Y048181
X049Y048968
X049Y048181
X052318Y04875
X053106Y04875
X053893Y04875
X054681Y04875
T3C.035F197S55
X0165Y011
X0165Y012
X0165Y013
X0165Y0155
X0165Y0165
X0165Y0175
X036Y0138
X037Y0138
X0415Y0138
X0425Y0138
X047Y0138
X048Y0138
X048Y0183
X048Y0228
X047Y0228
X047Y0183
X0425Y0183
X0425Y0228
X0415Y0183
X0415Y0228
X037Y0183
X037Y0228
X036Y0183
X036Y0228
X0165Y021
X0165Y02
X0165Y022
X0165Y0245
X0165Y0255
X0165Y0265
X0185Y029
X0185Y03
X0185Y031
X05425Y04275
X0185Y034
X0185Y035
X0185Y037
X0185Y038
X0185Y039
X0185Y0405
X0185Y0415
X0185Y0425
X0185Y033
X02Y0435
X021Y0435
X022Y0435
X024Y0435
X025Y0435
X026Y0435
X028Y0435
X029Y0435
X03Y0435
X032Y0435
X033Y0435
X034Y0435
X036Y0435
X037Y0435
X038Y0435
X04Y0435
X041Y0435
X042Y0435
X044Y0435
X045Y0435
X046Y0435
X048Y0435
X049Y0435
X05Y0435
X05425Y04375
T4C.037F197S55
X0334Y0284
X0344Y0284
X0435Y03
X0435Y029
X0435Y028
X0435Y031
X0415Y032
X0415Y033
X0415Y034
X0415Y035
X0245Y034
X0245Y031
X0245Y032
X0245Y035
X0245Y033
X0245Y037
X0245Y036
X0245Y039
X0245Y038
X0245Y04
X0245Y041
X0255Y042
X0265Y042
X0275Y042
X0285Y042
X0295Y042
X0305Y042
X0315Y042
X0325Y042
X0335Y042
X0345Y042
X0355Y042
X0365Y042
X0375Y042
X0385Y042
X0395Y042
X0405Y042
X0415Y042
X0425Y042
X0435Y042
X055Y039
X055Y038
X055Y04
X05575Y042
X05675Y042
X058Y042
X059Y042
X059Y045
X059Y044
X059Y043
X059Y046
X058Y045
X058Y043
X058Y044
X058Y046
X05675Y043
X05675Y044
X05675Y045
X05675Y046
X05575Y043
X05575Y044
X05575Y045
X05575Y046
T5C.042F139S55
X02108Y012
X02108Y0113
X0215Y017
X022Y016
X0225Y017
X023Y016
X0235Y017
X024Y016
X0255Y017
X026Y016
X02633Y012
X02633Y0113
X02667Y01339
X02667Y01269
X027Y017
X0275Y016
X029Y017
X0295Y016
X03Y017
X0305Y016
X031Y017
X0315Y016
X03192Y012
X03192Y0113
T6C.062F089S55
X0204Y0147
X02625Y0192
X0326Y0147
T7C.125F035S794
X01825Y0155
X052Y014
X052Y0455
X01825Y0445
T8C.126F035S794
X0215Y0135
X0315Y0135
M30
