*
*
G04 PADS Layout (Build Number 2005.103.1) generated Gerber (RS-274-X) file*
G04 PC Version=2.1*
*
%IN "medulla.0.pcb"*%
*
%MOIN*%
*
%FSLAX24Y24*%
*
*
*
*
G04 PC Standard Apertures*
*
*
G04 Thermal Relief Aperture macro.*
%AMTER*
1,1,$1,0,0*
1,0,$1-$2,0,0*
21,0,$3,$4,0,0,45*
21,0,$3,$4,0,0,135*
%
*
*
G04 Annular Aperture macro.*
%AMANN*
1,1,$1,0,0*
1,0,$2,0,0*
%
*
*
G04 Odd Aperture macro.*
%AMODD*
1,1,$1,0,0*
1,0,$1-0.005,0,0*
%
*
*
G04 PC Custom Aperture Macros*
*
*
*
*
*
*
G04 PC Aperture Table*
*
%ADD034C,0.01181*%
%ADD039C,0.01*%
%ADD051C,0.015*%
%ADD088C,0.00787*%
%ADD089C,0.007*%
%ADD091C,0.005*%
*
*
*
*
G04 PC Custom Flashes*
G04 Layer Name medulla.0.pcb - flashes*
%LPD*%
*
*
G04 PC Circuitry*
G04 Layer Name medulla.0.pcb - circuitry*
%LPD*%
*
G54D34*
G01X012212Y028523D02*
X013787D01*
X012212Y026476D02*
X013787D01*
Y028523D02*
Y028838D01*
X013787D02*
X014102D01*
X014102D02*
Y028523D01*
X014102D02*
X013787D01*
X013866Y028838D02*
Y028523D01*
X013944Y028838D02*
Y028523D01*
X014023Y028838D02*
Y028523D01*
X012212Y024023D02*
X013787D01*
X012212Y021976D02*
X013787D01*
Y024023D02*
Y024338D01*
X013787D02*
X014102D01*
X014102D02*
Y024023D01*
X014102D02*
X013787D01*
X013866Y024338D02*
Y024023D01*
X013944Y024338D02*
Y024023D01*
X014023Y024338D02*
Y024023D01*
X012212Y019523D02*
X013787D01*
X012212Y017476D02*
X013787D01*
Y019523D02*
Y019838D01*
X013787D02*
X014102D01*
X014102D02*
Y019523D01*
X014102D02*
X013787D01*
X013866Y019838D02*
Y019523D01*
X013944Y019838D02*
Y019523D01*
X014023Y019838D02*
Y019523D01*
X012212Y015023D02*
X013787D01*
X012212Y012976D02*
X013787D01*
Y015023D02*
Y015338D01*
X013787D02*
X014102D01*
X014102D02*
Y015023D01*
X014102D02*
X013787D01*
X013866Y015338D02*
Y015023D01*
X013944Y015338D02*
Y015023D01*
X014023Y015338D02*
Y015023D01*
X012070Y035212D02*
X012031D01*
X012031D02*
Y036787D01*
X012070*
X015929Y035212D02*
X015968D01*
X015968D02*
Y036787D01*
X015968D02*
X015929D01*
X012031D02*
X011716D01*
X011716D02*
Y036472D01*
X011716D02*
X012031D01*
Y036787*
X011795Y036472D02*
Y036787D01*
X011874D02*
Y036472D01*
X011952D02*
Y036787D01*
X012070Y031212D02*
X012031D01*
X012031D02*
Y032787D01*
X012070*
X015929Y031212D02*
X015968D01*
X015968D02*
Y032787D01*
X015968D02*
X015929D01*
X012031D02*
X011716D01*
X011716D02*
Y032472D01*
X011716D02*
X012031D01*
Y032787*
X011795Y032472D02*
Y032787D01*
X011874D02*
Y032472D01*
X011952D02*
Y032787D01*
X012070Y039212D02*
X012031D01*
X012031D02*
Y040787D01*
X012070*
X015929Y039212D02*
X015968D01*
X015968D02*
Y040787D01*
X015968D02*
X015929D01*
X012031D02*
X011716D01*
X011716D02*
Y040472D01*
X011716D02*
X012031D01*
Y040787*
X011795Y040472D02*
Y040787D01*
X011874D02*
Y040472D01*
X011952D02*
Y040787D01*
X033901Y039334D02*
X033665D01*
X033665D02*
Y039098D01*
Y033901D02*
Y033665D01*
X033901*
X039098D02*
X039334D01*
X039334D02*
Y033901D01*
X039098Y039334D02*
X039334D01*
X039334D02*
Y039098D01*
X033665Y039334D02*
Y039649D01*
X033665D02*
X033350D01*
X033350D02*
Y039334D01*
X033350D02*
X033665D01*
X020003Y034508D02*
X020279D01*
X020003Y034587D02*
X020279D01*
X020003Y025708D02*
X020279D01*
X020003Y025787D02*
X020279D01*
X051996Y018885D02*
Y017114D01*
X054003*
X054003D02*
Y018885D01*
X054003D02*
X051996D01*
X052000Y018900D02*
X051800D01*
Y019100*
X052000*
Y018900*
X051800Y019000D02*
X052000D01*
X051996Y023885D02*
Y022114D01*
X054003*
X054003D02*
Y023885D01*
X054003D02*
X051996D01*
X052000Y023900D02*
X051800D01*
Y024100*
X052000*
Y023900*
X051800Y024000D02*
X052000D01*
X051996Y028885D02*
Y027114D01*
X054003*
X054003D02*
Y028885D01*
X054003D02*
X051996D01*
X052000Y028900D02*
X051800D01*
Y029100*
X052000*
Y028900*
X051800Y029000D02*
X052000D01*
X037805Y019962D02*
X037765D01*
X037765D02*
Y021537D01*
X037765D02*
X037805D01*
X039694D02*
X039734D01*
Y019962*
X039734D02*
X039694D01*
X037765Y021537D02*
X037450D01*
X037450D02*
Y021222D01*
X037450D02*
X037765D01*
X037765D02*
Y021537D01*
X037529Y021222D02*
Y021537D01*
X037647D02*
Y021222D01*
X037687D02*
Y021537D01*
G54D39*
X043800Y045000D02*
X042200D01*
X043800Y049000D02*
X042200D01*
Y045000D02*
Y044700D01*
X041900*
Y045000*
X042200*
X042100Y044700D02*
Y045000D01*
X042000Y044700D02*
Y045000D01*
X031800D02*
X030200D01*
X031800Y049000D02*
X030200D01*
Y045000D02*
Y044700D01*
X029900*
Y045000*
X030200*
X030100Y044700D02*
Y045000D01*
X030000Y044700D02*
Y045000D01*
X039800D02*
X038200D01*
X039800Y049000D02*
X038200D01*
Y045000D02*
Y044700D01*
X037900*
Y045000*
X038200*
X038100Y044700D02*
Y045000D01*
X038000Y044700D02*
Y045000D01*
X027800D02*
X026200D01*
X027800Y049000D02*
X026200D01*
Y045000D02*
Y044700D01*
X025900*
Y045000*
X026200*
X026100Y044700D02*
Y045000D01*
X026000Y044700D02*
Y045000D01*
X037220Y027760D02*
Y027940D01*
X037580*
X037220Y027440D02*
Y027260D01*
X037580*
Y027640D02*
Y027560D01*
X034220Y024760D02*
Y024940D01*
X034580*
X034220Y024440D02*
Y024260D01*
X034580*
Y024640D02*
Y024560D01*
X030500Y035500D02*
X030600D01*
Y032500*
X030500*
X030600D02*
X031000D01*
Y032900*
X030600*
Y032500*
X030900D02*
Y032900D01*
X030800Y032500D02*
Y032900D01*
X030700D02*
Y032500D01*
X025500D02*
X025400D01*
Y035500*
X025500*
X031700Y030100D02*
X031800D01*
Y027100*
X031700*
X031800D02*
X032200D01*
Y027500*
X031800*
Y027100*
X032100D02*
Y027500D01*
X032000Y027100D02*
Y027500D01*
X031900D02*
Y027100D01*
X026700D02*
X026600D01*
Y030100*
X026700*
X030500Y040250D02*
X030600D01*
Y037250*
X030500*
X030600D02*
X031000D01*
Y037650*
X030600*
Y037250*
X030900D02*
Y037650D01*
X030800Y037250D02*
Y037650D01*
X030700D02*
Y037250D01*
X025500D02*
X025400D01*
Y040250*
X025500*
X049300Y038100D02*
X049750D01*
Y040900*
X049300*
X047700D02*
X047250D01*
Y038100*
X047700*
X049250Y037700D02*
X047700D01*
X010000Y010000D02*
X060000D01*
Y050000*
X010000*
Y010000*
G54D51*
X022996Y034862D02*
Y034705D01*
X022996D02*
X020003D01*
X020003D02*
Y034862D01*
X022996Y042737D02*
Y042894D01*
X020003*
X020003D02*
Y042737D01*
Y034705D02*
Y034429D01*
X020003D02*
X020279D01*
X020279D02*
Y034705D01*
X020279D02*
X020003D01*
X022996Y026062D02*
Y025905D01*
X022996D02*
X020003D01*
X020003D02*
Y026062D01*
X022996Y033937D02*
Y034094D01*
X020003*
X020003D02*
Y033937D01*
Y025905D02*
Y025629D01*
X020003D02*
X020279D01*
X020279D02*
Y025905D01*
X020279D02*
X020003D01*
G54D88*
X033429Y039649D02*
Y039334D01*
X033507Y039649D02*
Y039334D01*
X033586Y039649D02*
Y039334D01*
X016300Y044400D02*
X014500D01*
X016300Y046400D02*
X014500D01*
X014700Y044200D02*
Y044400D01*
X014500*
Y044200*
X014700*
Y044250D02*
X014500D01*
X014700Y044300D02*
X014500D01*
X014700Y044350D02*
X014500D01*
G54D89*
X041300Y025350D02*
Y026650D01*
X040700*
Y025350*
X041300*
X037150Y028100D02*
X038450D01*
Y028700*
X037150*
Y028100*
X010900Y040250D02*
Y038950D01*
X011500*
Y040250*
X010900*
X017850Y035700D02*
X019150D01*
Y036300*
X017850*
Y035700*
X010900Y036250D02*
Y034950D01*
X011500*
Y036250*
X010900*
Y032250D02*
Y030950D01*
X011500*
Y032250*
X010900*
X041450Y028100D02*
X040150D01*
Y027500*
X041450*
Y028100*
X033450Y029900D02*
X032150D01*
Y029300*
X033450*
Y029900*
X014850Y027700D02*
X016150D01*
Y028300*
X014850*
Y027700*
Y023200D02*
X016150D01*
Y023800*
X014850*
Y023200*
Y018700D02*
X016150D01*
Y019300*
X014850*
Y018700*
Y014200D02*
X016150D01*
Y014800*
X014850*
Y014200*
X040700Y030050D02*
Y028750D01*
X041300*
Y030050*
X040700*
X042350Y043900D02*
X043650D01*
Y044500*
X042350*
Y043900*
X030350D02*
X031650D01*
Y044500*
X030350*
Y043900*
X039650Y044500D02*
X038350D01*
Y043900*
X039650*
Y044500*
X027650D02*
X026350D01*
Y043900*
X027650*
Y044500*
X036900Y026650D02*
Y025350D01*
X037500*
Y026650*
X036900*
X053650Y016300D02*
X052350D01*
Y015700*
X053650*
Y016300*
Y021300D02*
X052350D01*
Y020700*
X053650*
Y021300*
X037500Y030050D02*
Y028750D01*
X038100*
Y030050*
X037500*
X053650Y026300D02*
X052350D01*
Y025700*
X053650*
Y026300*
X031100Y019050D02*
Y017750D01*
X031700*
Y019050*
X031100*
X028950Y014500D02*
X030250D01*
Y015100*
X028950*
Y014500*
X023500Y019050D02*
Y017750D01*
X024100*
Y019050*
X023500*
X024050Y015100D02*
X022750D01*
Y014500*
X024050*
Y015100*
X011950Y044500D02*
X013250D01*
Y045100*
X011950*
Y044500*
X025100Y029350D02*
Y030650D01*
X024500*
Y029350*
X025100*
X026300D02*
Y030650D01*
X025700*
Y029350*
X026300*
X025700Y027450D02*
Y026150D01*
X026300*
Y027450*
X025700*
Y029350D02*
Y030650D01*
X025100*
Y029350*
X025700*
X013250Y045700D02*
X011950D01*
Y045100*
X013250*
Y045700*
X025100Y027450D02*
Y026150D01*
X025700*
Y027450*
X025100*
X037850Y022450D02*
X039150D01*
Y023050*
X037850*
Y022450*
X037950Y018500D02*
X039250D01*
Y019100*
X037950*
Y018500*
X031400Y022050D02*
Y023350D01*
X030800*
Y022050*
X031400*
X027300D02*
Y023350D01*
X026700*
Y022050*
X027300*
X028400Y021950D02*
Y020650D01*
X029000*
Y021950*
X028400*
X030800D02*
Y020650D01*
X031400*
Y021950*
X030800*
X013250Y046300D02*
X011950D01*
Y045700*
X013250*
Y046300*
X030200Y021950D02*
Y020650D01*
X030800*
Y021950*
X030200*
Y022050D02*
Y023350D01*
X029600*
Y022050*
X030200*
X032600Y021950D02*
Y020650D01*
X033200*
Y021950*
X032600*
X024300Y022050D02*
Y023350D01*
X023700*
Y022050*
X024300*
X020200D02*
Y023350D01*
X019600*
Y022050*
X020200*
X021300Y021950D02*
Y020650D01*
X021900*
Y021950*
X021300*
X023700D02*
Y020650D01*
X024300*
Y021950*
X023700*
X023100D02*
Y020650D01*
X023700*
Y021950*
X023100*
Y022050D02*
Y023350D01*
X022500*
Y022050*
X023100*
X025500Y021950D02*
Y020650D01*
X026100*
Y021950*
X025500*
X011950Y043900D02*
X013250D01*
Y044500*
X011950*
Y043900*
X028700Y017750D02*
Y019050D01*
X028100*
Y017750*
X028700*
X021100D02*
Y019050D01*
X020500*
Y017750*
X021100*
X015650Y047900D02*
X014350D01*
Y047300*
X015650*
Y047900*
X016050Y043700D02*
X014750D01*
Y043100*
X016050*
Y043700*
X038100Y025350D02*
Y026650D01*
X037500*
Y025350*
X038100*
X033800Y020650D02*
Y021950D01*
X033200*
Y020650*
X033800*
X032000D02*
Y021950D01*
X031400*
Y020650*
X032000*
X024900D02*
Y021950D01*
X024300*
Y020650*
X024900*
X026700D02*
Y021950D01*
X026100*
Y020650*
X026700*
X057500Y049150D02*
Y047850D01*
X058100*
Y049150*
X057500*
X056000D02*
Y047850D01*
X056600*
Y049150*
X056000*
X030200Y020650D02*
Y021950D01*
X029600*
Y020650*
X030200*
X029000Y023350D02*
Y022050D01*
X029600*
Y023350*
X029000*
X028400D02*
Y022050D01*
X029000*
Y023350*
X028400*
X027800D02*
Y022050D01*
X028400*
Y023350*
X027800*
X032350Y026200D02*
X033650D01*
Y026800*
X032350*
Y026200*
X021300Y023350D02*
Y022050D01*
X021900*
Y023350*
X021300*
X020700D02*
Y022050D01*
X021300*
Y023350*
X020700*
X021900D02*
Y022050D01*
X022500*
Y023350*
X021900*
X033300Y024550D02*
Y025850D01*
X032700*
Y024550*
X033300*
X023100Y020650D02*
Y021950D01*
X022500*
Y020650*
X023100*
X027300D02*
Y021950D01*
X026700*
Y020650*
X027300*
X031400Y023350D02*
Y022050D01*
X032000*
Y023350*
X031400*
X033450Y030500D02*
X032150D01*
Y029900*
X033450*
Y030500*
X032000Y023350D02*
Y022050D01*
X032600*
Y023350*
X032000*
X032600D02*
Y022050D01*
X033200*
Y023350*
X032600*
X033200D02*
Y022050D01*
X033800*
Y023350*
X033200*
X027300Y024550D02*
Y025850D01*
X026700*
Y024550*
X027300*
X027900D02*
Y025850D01*
X027300*
Y024550*
X027900*
X030300D02*
Y025850D01*
X029700*
Y024550*
X030300*
X030900D02*
Y025850D01*
X030300*
Y024550*
X030900*
X020200Y020650D02*
Y021950D01*
X019600*
Y020650*
X020200*
X024300Y023350D02*
Y022050D01*
X024900*
Y023350*
X024300*
X024900D02*
Y022050D01*
X025500*
Y023350*
X024900*
X025500D02*
Y022050D01*
X026100*
Y023350*
X025500*
X026100D02*
Y022050D01*
X026700*
Y023350*
X026100*
X020500Y024150D02*
Y025450D01*
X019900*
Y024150*
X020500*
X021100D02*
Y025450D01*
X020500*
Y024150*
X021100*
X022500D02*
Y025450D01*
X021900*
Y024150*
X022500*
X024900Y024250D02*
Y025550D01*
X024300*
Y024250*
X024900*
X028700Y019050D02*
Y017750D01*
X029300*
Y019050*
X028700*
X029300D02*
Y017750D01*
X029900*
Y019050*
X029300*
X029900D02*
Y017750D01*
X030500*
Y019050*
X029900*
X030500D02*
Y017750D01*
X031100*
Y019050*
X030500*
X020050Y011700D02*
X018750D01*
Y011100*
X020050*
Y011700*
X032950Y011100D02*
X034250D01*
Y011700*
X032950*
Y011100*
X034250Y012300D02*
X032950D01*
Y011700*
X034250*
Y012300*
X018750Y011700D02*
X020050D01*
Y012300*
X018750*
Y011700*
X032100Y025850D02*
Y024550D01*
X032700*
Y025850*
X032100*
X059000Y049150D02*
Y047850D01*
X059600*
Y049150*
X059000*
X027800Y021950D02*
Y020650D01*
X028400*
Y021950*
X027800*
X020700D02*
Y020650D01*
X021300*
Y021950*
X020700*
X021100Y019050D02*
Y017750D01*
X021700*
Y019050*
X021100*
X021700D02*
Y017750D01*
X022300*
Y019050*
X021700*
X022300D02*
Y017750D01*
X022900*
Y019050*
X022300*
X022900D02*
Y017750D01*
X023500*
Y019050*
X022900*
X014350Y047900D02*
X015650D01*
Y048500*
X014350*
Y047900*
X027500Y012584D02*
Y010615D01*
X027500D02*
X028100D01*
X028100D02*
Y012584D01*
X027500*
X028100D02*
Y010615D01*
X028100D02*
X028700D01*
X028700D02*
Y012584D01*
X028100*
X028700D02*
Y010615D01*
X028700D02*
X029300D01*
X029300D02*
Y012584D01*
X028700*
X029300D02*
Y010615D01*
X029300D02*
X029900D01*
X029900D02*
Y012584D01*
X029300*
X029900D02*
Y010615D01*
X029900D02*
X030500D01*
X030500D02*
Y012584D01*
X029900*
X022500D02*
Y010615D01*
X022500D02*
X023100D01*
X023100D02*
Y012584D01*
X022500*
X023100D02*
Y010615D01*
X023100D02*
X023700D01*
X023700D02*
Y012584D01*
X023100*
X023700D02*
Y010615D01*
X023700D02*
X024300D01*
X024300D02*
Y012584D01*
X023700*
X024300D02*
Y010615D01*
X024300D02*
X024900D01*
X024900D02*
Y012584D01*
X024300*
X024900D02*
Y010615D01*
X024900D02*
X025500D01*
X025500D02*
Y012584D01*
X024900*
G54D91*
X013575Y029020D02*
Y028809D01*
X013563Y028767*
X013563D02*
X013540Y028739D01*
X013540D02*
X013506Y028725D01*
X013506D02*
X013484D01*
X013450Y028739*
X013427Y028767*
X013415Y028809*
X013415D02*
Y029020D01*
X013290D02*
X013165D01*
X013165D02*
X013234Y028907D01*
X013234D02*
X013200D01*
X013200D02*
X013177Y028893D01*
X013177D02*
X013165Y028879D01*
X013165D02*
X013154Y028837D01*
X013154D02*
Y028809D01*
X013154D02*
X013165Y028767D01*
X013165D02*
X013188Y028739D01*
X013188D02*
X013222Y028725D01*
X013222D02*
X013256D01*
X013256D02*
X013290Y028739D01*
X013290D02*
X013302Y028753D01*
X013313Y028781*
X013575Y024520D02*
Y024309D01*
X013563Y024267*
X013563D02*
X013540Y024239D01*
X013540D02*
X013506Y024225D01*
X013506D02*
X013484D01*
X013450Y024239*
X013427Y024267*
X013415Y024309*
X013415D02*
Y024520D01*
X013200D02*
X013313Y024323D01*
X013313D02*
X013143D01*
X013200Y024520D02*
Y024225D01*
X013575Y020020D02*
Y019809D01*
X013563Y019767*
X013563D02*
X013540Y019739D01*
X013540D02*
X013506Y019725D01*
X013506D02*
X013484D01*
X013450Y019739*
X013427Y019767*
X013415Y019809*
X013415D02*
Y020020D01*
X013165D02*
X013279D01*
X013279D02*
X013290Y019893D01*
X013290D02*
X013279Y019907D01*
X013279D02*
X013245Y019921D01*
X013245D02*
X013211D01*
X013211D02*
X013177Y019907D01*
X013177D02*
X013154Y019879D01*
X013154D02*
X013143Y019837D01*
X013143D02*
X013154Y019809D01*
X013154D02*
X013165Y019767D01*
X013165D02*
X013188Y019739D01*
X013188D02*
X013222Y019725D01*
X013222D02*
X013256D01*
X013256D02*
X013290Y019739D01*
X013290D02*
X013302Y019753D01*
X013313Y019781*
X013575Y015520D02*
Y015309D01*
X013563Y015267*
X013563D02*
X013540Y015239D01*
X013540D02*
X013506Y015225D01*
X013506D02*
X013484D01*
X013450Y015239*
X013427Y015267*
X013415Y015309*
X013415D02*
Y015520D01*
X013177Y015478D02*
X013188Y015506D01*
X013188D02*
X013222Y015520D01*
X013222D02*
X013245D01*
X013279Y015506*
X013279D02*
X013302Y015464D01*
X013313Y015393*
X013313D02*
Y015323D01*
X013313D02*
X013302Y015267D01*
X013279Y015239*
X013279D02*
X013245Y015225D01*
X013234*
X013200Y015239*
X013177Y015267*
X013165Y015309*
X013165D02*
Y015323D01*
X013165D02*
X013177Y015365D01*
X013177D02*
X013200Y015393D01*
X013200D02*
X013234Y015407D01*
X013234D02*
X013245D01*
X013245D02*
X013279Y015393D01*
X013279D02*
X013302Y015365D01*
X013302D02*
X013313Y015323D01*
X016420Y035825D02*
X016209D01*
X016167Y035836*
X016139Y035859*
X016125Y035893*
Y035915*
X016125D02*
X016139Y035950D01*
X016167Y035972*
X016167D02*
X016209Y035984D01*
X016420*
X016364Y036086D02*
X016378Y036109D01*
X016420Y036143*
X016125*
X016420Y036313D02*
X016406Y036279D01*
X016406D02*
X016364Y036256D01*
X016364D02*
X016293Y036245D01*
X016293D02*
X016251D01*
X016251D02*
X016181Y036256D01*
X016181D02*
X016139Y036279D01*
X016139D02*
X016125Y036313D01*
X016125D02*
Y036336D01*
X016139Y036370*
X016181Y036393*
X016251Y036404*
X016251D02*
X016293D01*
X016293D02*
X016364Y036393D01*
X016406Y036370*
X016420Y036336*
Y036313*
Y031825D02*
X016209D01*
X016167Y031836*
X016139Y031859*
X016125Y031893*
Y031915*
X016125D02*
X016139Y031950D01*
X016167Y031972*
X016167D02*
X016209Y031984D01*
X016420*
X016364Y032086D02*
X016378Y032109D01*
X016420Y032143*
X016125*
X016420Y032302D02*
X016406Y032268D01*
X016378Y032256*
X016378D02*
X016350D01*
X016350D02*
X016321Y032268D01*
X016321D02*
X016307Y032290D01*
X016307D02*
X016293Y032336D01*
X016293D02*
X016279Y032370D01*
X016279D02*
X016251Y032393D01*
X016251D02*
X016223Y032404D01*
X016223D02*
X016181D01*
X016181D02*
X016153Y032393D01*
X016139Y032381*
X016139D02*
X016125Y032347D01*
X016125D02*
Y032302D01*
X016139Y032268*
X016153Y032256*
X016153D02*
X016181Y032245D01*
X016223*
X016251Y032256*
X016251D02*
X016279Y032279D01*
X016279D02*
X016293Y032313D01*
X016293D02*
X016307Y032359D01*
X016307D02*
X016321Y032381D01*
X016321D02*
X016350Y032393D01*
X016378*
X016406Y032381*
X016406D02*
X016420Y032347D01*
X016420D02*
Y032302D01*
Y039925D02*
X016209D01*
X016167Y039936*
X016139Y039959*
X016125Y039993*
Y040015*
X016125D02*
X016139Y040050D01*
X016167Y040072*
X016167D02*
X016209Y040084D01*
X016420*
X016321Y040334D02*
X016279Y040322D01*
X016279D02*
X016251Y040300D01*
X016251D02*
X016237Y040265D01*
X016237D02*
Y040254D01*
X016237D02*
X016251Y040220D01*
X016251D02*
X016279Y040197D01*
X016279D02*
X016321Y040186D01*
X016321D02*
X016335D01*
X016335D02*
X016378Y040197D01*
X016378D02*
X016406Y040220D01*
X016420Y040254*
X016420D02*
Y040265D01*
X016420D02*
X016406Y040300D01*
X016378Y040322*
X016378D02*
X016321Y040334D01*
X016321D02*
X016251D01*
X016251D02*
X016181Y040322D01*
X016181D02*
X016139Y040300D01*
X016125Y040265*
X016125D02*
Y040243D01*
X016139Y040209*
X016167Y040197*
X043275Y049520D02*
Y049309D01*
X043263Y049267*
X043263D02*
X043240Y049239D01*
X043240D02*
X043206Y049225D01*
X043206D02*
X043184D01*
X043150Y049239*
X043127Y049267*
X043115Y049309*
X043115D02*
Y049520D01*
X043013Y049464D02*
X042990Y049478D01*
X042990D02*
X042956Y049520D01*
X042956D02*
Y049225D01*
X042854Y049464D02*
X042831Y049478D01*
X042831D02*
X042797Y049520D01*
X042797D02*
Y049225D01*
X031275Y049520D02*
Y049309D01*
X031263Y049267*
X031263D02*
X031240Y049239D01*
X031240D02*
X031206Y049225D01*
X031206D02*
X031184D01*
X031150Y049239*
X031127Y049267*
X031115Y049309*
X031115D02*
Y049520D01*
X031013Y049464D02*
X030990Y049478D01*
X030990D02*
X030956Y049520D01*
X030956D02*
Y049225D01*
X030843Y049450D02*
Y049464D01*
X030831Y049492*
X030831D02*
X030820Y049506D01*
X030797Y049520*
X030797D02*
X030752D01*
X030729Y049506*
X030729D02*
X030718Y049492D01*
X030706Y049464*
X030706D02*
Y049435D01*
X030706D02*
X030718Y049407D01*
X030718D02*
X030740Y049365D01*
X030740D02*
X030854Y049225D01*
X030854D02*
X030695D01*
X039175Y049520D02*
Y049309D01*
X039163Y049267*
X039163D02*
X039140Y049239D01*
X039140D02*
X039106Y049225D01*
X039106D02*
X039084D01*
X039050Y049239*
X039027Y049267*
X039015Y049309*
X039015D02*
Y049520D01*
X038754D02*
X038868Y049225D01*
X038913Y049520D02*
X038754D01*
X027175D02*
Y049309D01*
X027163Y049267*
X027163D02*
X027140Y049239D01*
X027140D02*
X027106Y049225D01*
X027106D02*
X027084D01*
X027050Y049239*
X027027Y049267*
X027015Y049309*
X027015D02*
Y049520D01*
X026856D02*
X026890Y049506D01*
X026890D02*
X026902Y049478D01*
Y049450*
X026890Y049421*
X026890D02*
X026868Y049407D01*
X026868D02*
X026822Y049393D01*
X026822D02*
X026788Y049379D01*
X026788D02*
X026765Y049351D01*
X026765D02*
X026754Y049323D01*
X026754D02*
Y049281D01*
X026754D02*
X026765Y049253D01*
X026765D02*
X026777Y049239D01*
X026811Y049225*
X026856*
X026856D02*
X026890Y049239D01*
X026890D02*
X026902Y049253D01*
X026913Y049281*
X026913D02*
Y049323D01*
X026913D02*
X026902Y049351D01*
X026902D02*
X026879Y049379D01*
X026879D02*
X026845Y049393D01*
X026845D02*
X026800Y049407D01*
X026800D02*
X026777Y049421D01*
X026777D02*
X026765Y049450D01*
X026765D02*
Y049478D01*
X026765D02*
X026777Y049506D01*
X026811Y049520*
X026856*
X033775Y040220D02*
Y040009D01*
X033763Y039967*
X033763D02*
X033740Y039939D01*
X033740D02*
X033706Y039925D01*
X033706D02*
X033684D01*
X033650Y039939*
X033627Y039967*
X033615Y040009*
X033615D02*
Y040220D01*
X033502Y040150D02*
Y040164D01*
X033490Y040192*
X033490D02*
X033479Y040206D01*
X033479D02*
X033456Y040220D01*
X033456D02*
X033411D01*
X033388Y040206*
X033388D02*
X033377Y040192D01*
X033365Y040164*
X033365D02*
Y040135D01*
X033365D02*
X033377Y040107D01*
X033377D02*
X033400Y040065D01*
X033400D02*
X033513Y039925D01*
X033513D02*
X033354D01*
X033252Y040164D02*
X033229Y040178D01*
X033229D02*
X033195Y040220D01*
Y039925*
X041704Y026150D02*
X041715Y026178D01*
X041715D02*
X041738Y026206D01*
X041738D02*
X041761Y026220D01*
X041806*
X041806D02*
X041829Y026206D01*
X041829D02*
X041852Y026178D01*
X041863Y026150*
X041863D02*
X041875Y026107D01*
X041875D02*
Y026037D01*
X041875D02*
X041863Y025995D01*
X041863D02*
X041852Y025967D01*
X041829Y025939*
X041829D02*
X041806Y025925D01*
X041806D02*
X041761D01*
X041738Y025939*
X041738D02*
X041715Y025967D01*
X041715D02*
X041704Y025995D01*
X041602Y026164D02*
X041579Y026178D01*
X041579D02*
X041545Y026220D01*
Y025925*
X038850Y028295D02*
X038878Y028284D01*
X038906Y028261*
X038920Y028238*
X038920D02*
Y028193D01*
X038906Y028170*
X038878Y028147*
X038878D02*
X038850Y028136D01*
X038807Y028125*
X038807D02*
X038737D01*
X038737D02*
X038695Y028136D01*
X038667Y028147*
X038667D02*
X038639Y028170D01*
X038625Y028193*
Y028238*
X038625D02*
X038639Y028261D01*
X038667Y028284*
X038695Y028295*
X038864Y028397D02*
X038878Y028420D01*
X038920Y028454*
X038920D02*
X038625D01*
X038850Y028568D02*
X038864D01*
X038892Y028579*
X038892D02*
X038906Y028590D01*
X038906D02*
X038920Y028613D01*
X038920D02*
Y028659D01*
X038906Y028681*
X038906D02*
X038892Y028693D01*
X038864Y028704*
X038864D02*
X038835D01*
X038835D02*
X038807Y028693D01*
X038807D02*
X038765Y028670D01*
X038765D02*
X038625Y028556D01*
X038625D02*
Y028715D01*
X011304Y038750D02*
X011315Y038778D01*
X011315D02*
X011338Y038806D01*
X011338D02*
X011361Y038820D01*
X011406*
X011406D02*
X011429Y038806D01*
X011429D02*
X011452Y038778D01*
X011463Y038750*
X011463D02*
X011474Y038707D01*
X011474D02*
Y038637D01*
X011474D02*
X011463Y038595D01*
X011463D02*
X011452Y038567D01*
X011429Y038539*
X011429D02*
X011406Y038525D01*
X011406D02*
X011361D01*
X011338Y038539*
X011338D02*
X011315Y038567D01*
X011315D02*
X011304Y038595D01*
X011202Y038764D02*
X011179Y038778D01*
X011179D02*
X011145Y038820D01*
Y038525*
X010929Y038820D02*
X011043Y038623D01*
X010872*
X010929Y038820D02*
Y038525D01*
X017804Y035450D02*
X017815Y035478D01*
X017815D02*
X017838Y035506D01*
X017838D02*
X017861Y035520D01*
X017906*
X017906D02*
X017929Y035506D01*
X017929D02*
X017952Y035478D01*
X017963Y035450*
X017963D02*
X017975Y035407D01*
X017975D02*
Y035337D01*
X017975D02*
X017963Y035295D01*
X017963D02*
X017952Y035267D01*
X017929Y035239*
X017929D02*
X017906Y035225D01*
X017906D02*
X017861D01*
X017838Y035239*
X017838D02*
X017815Y035267D01*
X017815D02*
X017804Y035295D01*
X017702Y035464D02*
X017679Y035478D01*
X017679D02*
X017645Y035520D01*
Y035225*
X017395Y035520D02*
X017509D01*
X017520Y035393*
X017520D02*
X017509Y035407D01*
X017509D02*
X017475Y035421D01*
X017475D02*
X017440D01*
X017440D02*
X017406Y035407D01*
X017406D02*
X017384Y035379D01*
X017384D02*
X017372Y035337D01*
X017372D02*
X017384Y035309D01*
X017395Y035267*
X017418Y035239*
X017452Y035225*
X017486*
X017520Y035239*
X017531Y035253*
X017531D02*
X017543Y035281D01*
X011304Y034750D02*
X011315Y034778D01*
X011315D02*
X011338Y034806D01*
X011338D02*
X011361Y034820D01*
X011406*
X011406D02*
X011429Y034806D01*
X011429D02*
X011452Y034778D01*
X011463Y034750*
X011463D02*
X011474Y034707D01*
X011474D02*
Y034637D01*
X011474D02*
X011463Y034595D01*
X011463D02*
X011452Y034567D01*
X011429Y034539*
X011429D02*
X011406Y034525D01*
X011406D02*
X011361D01*
X011338Y034539*
X011338D02*
X011315Y034567D01*
X011315D02*
X011304Y034595D01*
X011202Y034764D02*
X011179Y034778D01*
X011179D02*
X011145Y034820D01*
Y034525*
X010906Y034778D02*
X010918Y034806D01*
X010952Y034820*
X010974*
X010974D02*
X011009Y034806D01*
X011031Y034764*
X011031D02*
X011043Y034693D01*
X011043D02*
Y034623D01*
X011031Y034567*
X011031D02*
X011009Y034539D01*
X010974Y034525*
X010974D02*
X010963D01*
X010963D02*
X010929Y034539D01*
X010929D02*
X010906Y034567D01*
X010906D02*
X010895Y034609D01*
Y034623*
X010906Y034665*
X010906D02*
X010929Y034693D01*
X010929D02*
X010963Y034707D01*
X010963D02*
X010974D01*
X010974D02*
X011009Y034693D01*
X011009D02*
X011031Y034665D01*
X011031D02*
X011043Y034623D01*
X011304Y030750D02*
X011315Y030778D01*
X011315D02*
X011338Y030806D01*
X011338D02*
X011361Y030820D01*
X011406*
X011406D02*
X011429Y030806D01*
X011429D02*
X011452Y030778D01*
X011463Y030750*
X011463D02*
X011474Y030707D01*
X011474D02*
Y030637D01*
X011474D02*
X011463Y030595D01*
X011463D02*
X011452Y030567D01*
X011429Y030539*
X011429D02*
X011406Y030525D01*
X011406D02*
X011361D01*
X011338Y030539*
X011338D02*
X011315Y030567D01*
X011315D02*
X011304Y030595D01*
X011202Y030764D02*
X011179Y030778D01*
X011179D02*
X011145Y030820D01*
Y030525*
X010884Y030820D02*
X010997Y030525D01*
X011043Y030820D02*
X010884D01*
X041504Y027250D02*
X041515Y027278D01*
X041515D02*
X041538Y027306D01*
X041538D02*
X041561Y027320D01*
X041606*
X041606D02*
X041629Y027306D01*
X041629D02*
X041652Y027278D01*
X041663Y027250*
X041663D02*
X041675Y027207D01*
X041675D02*
Y027137D01*
X041675D02*
X041663Y027095D01*
X041663D02*
X041652Y027067D01*
X041629Y027039*
X041629D02*
X041606Y027025D01*
X041606D02*
X041561D01*
X041538Y027039*
X041538D02*
X041515Y027067D01*
X041515D02*
X041504Y027095D01*
X041390Y027250D02*
Y027264D01*
X041390D02*
X041379Y027292D01*
X041379D02*
X041368Y027306D01*
X041345Y027320*
X041300*
X041277Y027306*
X041265Y027292*
X041265D02*
X041254Y027264D01*
X041254D02*
Y027235D01*
X041254D02*
X041265Y027207D01*
X041265D02*
X041288Y027165D01*
X041288D02*
X041402Y027025D01*
X041243*
X034104Y029750D02*
X034115Y029778D01*
X034115D02*
X034138Y029806D01*
X034138D02*
X034161Y029820D01*
X034206*
X034206D02*
X034229Y029806D01*
X034229D02*
X034252Y029778D01*
X034263Y029750*
X034263D02*
X034275Y029707D01*
X034275D02*
Y029637D01*
X034275D02*
X034263Y029595D01*
X034263D02*
X034252Y029567D01*
X034229Y029539*
X034229D02*
X034206Y029525D01*
X034206D02*
X034161D01*
X034138Y029539*
X034138D02*
X034115Y029567D01*
X034115D02*
X034104Y029595D01*
X033990Y029750D02*
Y029764D01*
X033990D02*
X033979Y029792D01*
X033979D02*
X033968Y029806D01*
X033945Y029820*
X033900*
X033877Y029806*
X033865Y029792*
X033865D02*
X033854Y029764D01*
X033854D02*
Y029735D01*
X033854D02*
X033865Y029707D01*
X033865D02*
X033888Y029665D01*
X033888D02*
X034002Y029525D01*
X033843*
X033729Y029750D02*
Y029764D01*
X033729D02*
X033718Y029792D01*
X033706Y029806*
X033706D02*
X033684Y029820D01*
X033638*
X033638D02*
X033615Y029806D01*
X033615D02*
X033604Y029792D01*
X033604D02*
X033593Y029764D01*
Y029735*
X033593D02*
X033604Y029707D01*
X033604D02*
X033627Y029665D01*
X033627D02*
X033740Y029525D01*
X033740D02*
X033581D01*
X016004Y027450D02*
X016015Y027478D01*
X016015D02*
X016038Y027506D01*
X016038D02*
X016061Y027520D01*
X016106*
X016106D02*
X016129Y027506D01*
X016129D02*
X016152Y027478D01*
X016163Y027450*
X016163D02*
X016174Y027407D01*
X016174D02*
Y027337D01*
X016174D02*
X016163Y027295D01*
X016163D02*
X016152Y027267D01*
X016129Y027239*
X016129D02*
X016106Y027225D01*
X016106D02*
X016061D01*
X016038Y027239*
X016038D02*
X016015Y027267D01*
X016015D02*
X016004Y027295D01*
X015890Y027450D02*
Y027464D01*
X015890D02*
X015879Y027492D01*
X015879D02*
X015868Y027506D01*
X015845Y027520*
X015799*
X015799D02*
X015777Y027506D01*
X015765Y027492*
X015765D02*
X015754Y027464D01*
X015754D02*
Y027435D01*
X015754D02*
X015765Y027407D01*
X015765D02*
X015788Y027365D01*
X015788D02*
X015902Y027225D01*
X015743*
X015504Y027478D02*
X015515Y027506D01*
X015515D02*
X015549Y027520D01*
X015549D02*
X015572D01*
X015572D02*
X015606Y027506D01*
X015606D02*
X015629Y027464D01*
X015629D02*
X015640Y027393D01*
X015640D02*
Y027323D01*
X015640D02*
X015629Y027267D01*
X015629D02*
X015606Y027239D01*
X015606D02*
X015572Y027225D01*
X015572D02*
X015561D01*
X015527Y027239*
X015504Y027267*
X015504D02*
X015493Y027309D01*
Y027323*
X015504Y027365*
X015504D02*
X015527Y027393D01*
X015527D02*
X015561Y027407D01*
X015561D02*
X015572D01*
X015572D02*
X015606Y027393D01*
X015606D02*
X015629Y027365D01*
X015629D02*
X015640Y027323D01*
X016004Y022950D02*
X016015Y022978D01*
X016015D02*
X016038Y023006D01*
X016038D02*
X016061Y023020D01*
X016106*
X016106D02*
X016129Y023006D01*
X016129D02*
X016152Y022978D01*
X016163Y022950*
X016163D02*
X016174Y022907D01*
X016174D02*
Y022837D01*
X016174D02*
X016163Y022795D01*
X016163D02*
X016152Y022767D01*
X016129Y022739*
X016129D02*
X016106Y022725D01*
X016106D02*
X016061D01*
X016038Y022739*
X016038D02*
X016015Y022767D01*
X016015D02*
X016004Y022795D01*
X015890Y022950D02*
Y022964D01*
X015890D02*
X015879Y022992D01*
X015879D02*
X015868Y023006D01*
X015845Y023020*
X015799*
X015799D02*
X015777Y023006D01*
X015765Y022992*
X015765D02*
X015754Y022964D01*
X015754D02*
Y022935D01*
X015754D02*
X015765Y022907D01*
X015765D02*
X015788Y022865D01*
X015788D02*
X015902Y022725D01*
X015743*
X015481Y023020D02*
X015595Y022725D01*
X015640Y023020D02*
X015481D01*
X016004Y018450D02*
X016015Y018478D01*
X016015D02*
X016038Y018506D01*
X016038D02*
X016061Y018520D01*
X016106*
X016106D02*
X016129Y018506D01*
X016129D02*
X016152Y018478D01*
X016163Y018450*
X016163D02*
X016174Y018407D01*
X016174D02*
Y018337D01*
X016174D02*
X016163Y018295D01*
X016163D02*
X016152Y018267D01*
X016129Y018239*
X016129D02*
X016106Y018225D01*
X016106D02*
X016061D01*
X016038Y018239*
X016038D02*
X016015Y018267D01*
X016015D02*
X016004Y018295D01*
X015890Y018450D02*
Y018464D01*
X015890D02*
X015879Y018492D01*
X015879D02*
X015868Y018506D01*
X015845Y018520*
X015799*
X015799D02*
X015777Y018506D01*
X015765Y018492*
X015765D02*
X015754Y018464D01*
X015754D02*
Y018435D01*
X015754D02*
X015765Y018407D01*
X015765D02*
X015788Y018365D01*
X015788D02*
X015902Y018225D01*
X015743*
X015584Y018520D02*
X015618Y018506D01*
X015629Y018478*
X015629D02*
Y018450D01*
X015629D02*
X015618Y018421D01*
X015618D02*
X015595Y018407D01*
X015595D02*
X015549Y018393D01*
X015549D02*
X015515Y018379D01*
X015515D02*
X015493Y018351D01*
X015493D02*
X015481Y018323D01*
X015481D02*
Y018281D01*
X015481D02*
X015493Y018253D01*
X015504Y018239*
X015504D02*
X015538Y018225D01*
X015538D02*
X015584D01*
X015618Y018239*
X015629Y018253*
X015629D02*
X015640Y018281D01*
X015640D02*
Y018323D01*
X015640D02*
X015629Y018351D01*
X015629D02*
X015606Y018379D01*
X015606D02*
X015572Y018393D01*
X015572D02*
X015527Y018407D01*
X015527D02*
X015504Y018421D01*
X015504D02*
X015493Y018450D01*
Y018478*
X015504Y018506*
X015504D02*
X015538Y018520D01*
X015538D02*
X015584D01*
X016004Y013950D02*
X016015Y013978D01*
X016015D02*
X016038Y014006D01*
X016038D02*
X016061Y014020D01*
X016106*
X016106D02*
X016129Y014006D01*
X016129D02*
X016152Y013978D01*
X016163Y013950*
X016163D02*
X016174Y013907D01*
X016174D02*
Y013837D01*
X016174D02*
X016163Y013795D01*
X016163D02*
X016152Y013767D01*
X016129Y013739*
X016129D02*
X016106Y013725D01*
X016106D02*
X016061D01*
X016038Y013739*
X016038D02*
X016015Y013767D01*
X016015D02*
X016004Y013795D01*
X015890Y013950D02*
Y013964D01*
X015890D02*
X015879Y013992D01*
X015879D02*
X015868Y014006D01*
X015845Y014020*
X015799*
X015799D02*
X015777Y014006D01*
X015765Y013992*
X015765D02*
X015754Y013964D01*
X015754D02*
Y013935D01*
X015754D02*
X015765Y013907D01*
X015765D02*
X015788Y013865D01*
X015788D02*
X015902Y013725D01*
X015743*
X015493Y013921D02*
X015504Y013879D01*
X015504D02*
X015527Y013851D01*
X015527D02*
X015561Y013837D01*
X015561D02*
X015572D01*
X015572D02*
X015606Y013851D01*
X015606D02*
X015629Y013879D01*
X015629D02*
X015640Y013921D01*
X015640D02*
Y013935D01*
X015640D02*
X015629Y013978D01*
X015629D02*
X015606Y014006D01*
X015606D02*
X015572Y014020D01*
X015572D02*
X015561D01*
X015527Y014006*
X015504Y013978*
X015504D02*
X015493Y013921D01*
X015493D02*
Y013851D01*
X015493D02*
X015504Y013781D01*
X015504D02*
X015527Y013739D01*
X015561Y013725*
X015584*
X015618Y013739*
X015629Y013767*
X040450Y029395D02*
X040478Y029384D01*
X040506Y029361*
X040520Y029338*
X040520D02*
Y029293D01*
X040506Y029270*
X040478Y029247*
X040478D02*
X040450Y029236D01*
X040407Y029225*
X040407D02*
X040337D01*
X040337D02*
X040295Y029236D01*
X040267Y029247*
X040267D02*
X040239Y029270D01*
X040225Y029293*
Y029338*
X040225D02*
X040239Y029361D01*
X040267Y029384*
X040295Y029395*
X040520Y029520D02*
Y029645D01*
X040407Y029577*
X040407D02*
Y029611D01*
X040407D02*
X040393Y029634D01*
X040393D02*
X040379Y029645D01*
X040379D02*
X040337Y029656D01*
X040337D02*
X040309D01*
X040309D02*
X040267Y029645D01*
X040239Y029622*
X040239D02*
X040225Y029588D01*
X040225D02*
Y029554D01*
X040225D02*
X040239Y029520D01*
X040253Y029509*
X040281Y029497*
X044304Y044350D02*
X044315Y044378D01*
X044315D02*
X044338Y044406D01*
X044338D02*
X044361Y044420D01*
X044406*
X044406D02*
X044429Y044406D01*
X044429D02*
X044452Y044378D01*
X044463Y044350*
X044463D02*
X044475Y044307D01*
X044475D02*
Y044237D01*
X044475D02*
X044463Y044195D01*
X044463D02*
X044452Y044167D01*
X044429Y044139*
X044429D02*
X044406Y044125D01*
X044406D02*
X044361D01*
X044338Y044139*
X044338D02*
X044315Y044167D01*
X044315D02*
X044304Y044195D01*
X044179Y044420D02*
X044054D01*
X044054D02*
X044122Y044307D01*
X044122D02*
X044088D01*
X044088D02*
X044065Y044293D01*
X044065D02*
X044054Y044279D01*
X044054D02*
X044043Y044237D01*
X044043D02*
Y044209D01*
X044054Y044167*
X044054D02*
X044077Y044139D01*
X044111Y044125*
X044145*
X044179Y044139*
X044179D02*
X044190Y044153D01*
X044190D02*
X044202Y044181D01*
X043872Y044420D02*
X043906Y044406D01*
X043906D02*
X043929Y044364D01*
X043929D02*
X043940Y044293D01*
X043940D02*
Y044251D01*
X043940D02*
X043929Y044181D01*
X043929D02*
X043906Y044139D01*
X043906D02*
X043872Y044125D01*
X043872D02*
X043850D01*
X043815Y044139*
X043815D02*
X043793Y044181D01*
X043781Y044251*
X043781D02*
Y044293D01*
X043781D02*
X043793Y044364D01*
X043815Y044406*
X043815D02*
X043850Y044420D01*
X043872*
X032204Y044250D02*
X032215Y044278D01*
X032215D02*
X032238Y044306D01*
X032238D02*
X032261Y044320D01*
X032306*
X032306D02*
X032329Y044306D01*
X032329D02*
X032352Y044278D01*
X032363Y044250*
X032363D02*
X032375Y044207D01*
X032375D02*
Y044137D01*
X032375D02*
X032363Y044095D01*
X032363D02*
X032352Y044067D01*
X032329Y044039*
X032329D02*
X032306Y044025D01*
X032306D02*
X032261D01*
X032238Y044039*
X032238D02*
X032215Y044067D01*
X032215D02*
X032204Y044095D01*
X032079Y044320D02*
X031954D01*
X031954D02*
X032022Y044207D01*
X032022D02*
X031988D01*
X031988D02*
X031965Y044193D01*
X031965D02*
X031954Y044179D01*
X031954D02*
X031943Y044137D01*
X031943D02*
Y044109D01*
X031954Y044067*
X031954D02*
X031977Y044039D01*
X032011Y044025*
X032045*
X032079Y044039*
X032079D02*
X032090Y044053D01*
X032090D02*
X032102Y044081D01*
X031840Y044264D02*
X031818Y044278D01*
X031784Y044320*
Y044025*
X040304Y044350D02*
X040315Y044378D01*
X040315D02*
X040338Y044406D01*
X040338D02*
X040361Y044420D01*
X040406*
X040406D02*
X040429Y044406D01*
X040429D02*
X040452Y044378D01*
X040463Y044350*
X040463D02*
X040475Y044307D01*
X040475D02*
Y044237D01*
X040475D02*
X040463Y044195D01*
X040463D02*
X040452Y044167D01*
X040429Y044139*
X040429D02*
X040406Y044125D01*
X040406D02*
X040361D01*
X040338Y044139*
X040338D02*
X040315Y044167D01*
X040315D02*
X040304Y044195D01*
X040179Y044420D02*
X040054D01*
X040054D02*
X040122Y044307D01*
X040122D02*
X040088D01*
X040088D02*
X040065Y044293D01*
X040065D02*
X040054Y044279D01*
X040054D02*
X040043Y044237D01*
X040043D02*
Y044209D01*
X040054Y044167*
X040054D02*
X040077Y044139D01*
X040111Y044125*
X040145*
X040179Y044139*
X040179D02*
X040190Y044153D01*
X040190D02*
X040202Y044181D01*
X039929Y044350D02*
Y044364D01*
X039929D02*
X039918Y044392D01*
X039906Y044406*
X039906D02*
X039884Y044420D01*
X039838*
X039838D02*
X039815Y044406D01*
X039815D02*
X039804Y044392D01*
X039804D02*
X039793Y044364D01*
Y044335*
X039793D02*
X039804Y044307D01*
X039804D02*
X039827Y044265D01*
X039827D02*
X039940Y044125D01*
X039940D02*
X039781D01*
X028304Y044250D02*
X028315Y044278D01*
X028315D02*
X028338Y044306D01*
X028338D02*
X028361Y044320D01*
X028406*
X028406D02*
X028429Y044306D01*
X028429D02*
X028452Y044278D01*
X028463Y044250*
X028463D02*
X028475Y044207D01*
X028475D02*
Y044137D01*
X028475D02*
X028463Y044095D01*
X028463D02*
X028452Y044067D01*
X028429Y044039*
X028429D02*
X028406Y044025D01*
X028406D02*
X028361D01*
X028338Y044039*
X028338D02*
X028315Y044067D01*
X028315D02*
X028304Y044095D01*
X028179Y044320D02*
X028054D01*
X028054D02*
X028122Y044207D01*
X028122D02*
X028088D01*
X028088D02*
X028065Y044193D01*
X028065D02*
X028054Y044179D01*
X028054D02*
X028043Y044137D01*
X028043D02*
Y044109D01*
X028054Y044067*
X028054D02*
X028077Y044039D01*
X028111Y044025*
X028145*
X028179Y044039*
X028179D02*
X028190Y044053D01*
X028190D02*
X028202Y044081D01*
X027918Y044320D02*
X027793D01*
X027861Y044207*
X027861D02*
X027827D01*
X027827D02*
X027804Y044193D01*
X027804D02*
X027793Y044179D01*
X027793D02*
X027781Y044137D01*
X027781D02*
Y044109D01*
X027781D02*
X027793Y044067D01*
X027815Y044039*
X027815D02*
X027850Y044025D01*
X027884*
X027918Y044039*
X027929Y044053*
X027929D02*
X027940Y044081D01*
X037250Y024495D02*
X037278Y024484D01*
X037306Y024461*
X037320Y024438*
X037320D02*
Y024393D01*
X037306Y024370*
X037278Y024347*
X037278D02*
X037250Y024336D01*
X037207Y024325*
X037207D02*
X037137D01*
X037137D02*
X037095Y024336D01*
X037067Y024347*
X037067D02*
X037039Y024370D01*
X037025Y024393*
Y024438*
X037025D02*
X037039Y024461D01*
X037067Y024484*
X037095Y024495*
X037320Y024620D02*
Y024745D01*
X037207Y024677*
X037207D02*
Y024711D01*
X037207D02*
X037193Y024734D01*
X037193D02*
X037179Y024745D01*
X037179D02*
X037137Y024756D01*
X037137D02*
X037109D01*
X037109D02*
X037067Y024745D01*
X037039Y024722*
X037039D02*
X037025Y024688D01*
X037025D02*
Y024654D01*
X037025D02*
X037039Y024620D01*
X037053Y024609*
X037081Y024597*
X037278Y024995D02*
X037306Y024984D01*
X037320Y024950*
Y024927*
X037306Y024893*
X037264Y024870*
X037193Y024859*
X037193D02*
X037123D01*
X037067Y024870*
X037039Y024893*
X037025Y024927*
Y024938*
X037025D02*
X037039Y024972D01*
X037039D02*
X037067Y024995D01*
X037109Y025006*
X037109D02*
X037123D01*
X037123D02*
X037165Y024995D01*
X037165D02*
X037193Y024972D01*
X037193D02*
X037207Y024938D01*
X037207D02*
Y024927D01*
X037207D02*
X037193Y024893D01*
X037193D02*
X037165Y024870D01*
X037165D02*
X037123Y024859D01*
X054304Y016050D02*
X054315Y016078D01*
X054315D02*
X054338Y016106D01*
X054338D02*
X054361Y016120D01*
X054406*
X054406D02*
X054429Y016106D01*
X054429D02*
X054452Y016078D01*
X054463Y016050*
X054463D02*
X054475Y016007D01*
X054475D02*
Y015937D01*
X054475D02*
X054463Y015895D01*
X054463D02*
X054452Y015867D01*
X054429Y015839*
X054429D02*
X054406Y015825D01*
X054406D02*
X054361D01*
X054338Y015839*
X054338D02*
X054315Y015867D01*
X054315D02*
X054304Y015895D01*
X054179Y016120D02*
X054054D01*
X054054D02*
X054122Y016007D01*
X054122D02*
X054088D01*
X054088D02*
X054065Y015993D01*
X054065D02*
X054054Y015979D01*
X054054D02*
X054043Y015937D01*
X054043D02*
Y015909D01*
X054054Y015867*
X054054D02*
X054077Y015839D01*
X054111Y015825*
X054145*
X054179Y015839*
X054179D02*
X054190Y015853D01*
X054190D02*
X054202Y015881D01*
X053884Y016120D02*
X053918Y016106D01*
X053929Y016078*
X053929D02*
Y016050D01*
X053929D02*
X053918Y016021D01*
X053918D02*
X053895Y016007D01*
X053895D02*
X053850Y015993D01*
X053850D02*
X053815Y015979D01*
X053815D02*
X053793Y015951D01*
X053793D02*
X053781Y015923D01*
X053781D02*
Y015881D01*
X053781D02*
X053793Y015853D01*
X053804Y015839*
X053804D02*
X053838Y015825D01*
X053838D02*
X053884D01*
X053918Y015839*
X053929Y015853*
X053929D02*
X053940Y015881D01*
X053940D02*
Y015923D01*
X053940D02*
X053929Y015951D01*
X053929D02*
X053906Y015979D01*
X053906D02*
X053872Y015993D01*
X053872D02*
X053827Y016007D01*
X053827D02*
X053804Y016021D01*
X053804D02*
X053793Y016050D01*
Y016078*
X053804Y016106*
X053804D02*
X053838Y016120D01*
X053838D02*
X053884D01*
X054304Y021050D02*
X054315Y021078D01*
X054315D02*
X054338Y021106D01*
X054338D02*
X054361Y021120D01*
X054406*
X054406D02*
X054429Y021106D01*
X054429D02*
X054452Y021078D01*
X054463Y021050*
X054463D02*
X054475Y021007D01*
X054475D02*
Y020937D01*
X054475D02*
X054463Y020895D01*
X054463D02*
X054452Y020867D01*
X054429Y020839*
X054429D02*
X054406Y020825D01*
X054406D02*
X054361D01*
X054338Y020839*
X054338D02*
X054315Y020867D01*
X054315D02*
X054304Y020895D01*
X054179Y021120D02*
X054054D01*
X054054D02*
X054122Y021007D01*
X054122D02*
X054088D01*
X054088D02*
X054065Y020993D01*
X054065D02*
X054054Y020979D01*
X054054D02*
X054043Y020937D01*
X054043D02*
Y020909D01*
X054054Y020867*
X054054D02*
X054077Y020839D01*
X054111Y020825*
X054145*
X054179Y020839*
X054179D02*
X054190Y020853D01*
X054190D02*
X054202Y020881D01*
X053793Y021021D02*
X053804Y020979D01*
X053804D02*
X053827Y020951D01*
X053827D02*
X053861Y020937D01*
X053861D02*
X053872D01*
X053872D02*
X053906Y020951D01*
X053906D02*
X053929Y020979D01*
X053929D02*
X053940Y021021D01*
X053940D02*
Y021035D01*
X053940D02*
X053929Y021078D01*
X053929D02*
X053906Y021106D01*
X053906D02*
X053872Y021120D01*
X053872D02*
X053861D01*
X053827Y021106*
X053804Y021078*
X053804D02*
X053793Y021021D01*
X053793D02*
Y020951D01*
X053793D02*
X053804Y020881D01*
X053804D02*
X053827Y020839D01*
X053861Y020825*
X053884*
X053918Y020839*
X053929Y020867*
X038450Y029595D02*
X038478Y029584D01*
X038506Y029561*
X038520Y029538*
X038520D02*
Y029493D01*
X038506Y029470*
X038478Y029447*
X038478D02*
X038450Y029436D01*
X038407Y029425*
X038407D02*
X038337D01*
X038337D02*
X038295Y029436D01*
X038267Y029447*
X038267D02*
X038239Y029470D01*
X038225Y029493*
Y029538*
X038225D02*
X038239Y029561D01*
X038267Y029584*
X038295Y029595*
X038520Y029811D02*
X038323Y029697D01*
X038323D02*
Y029868D01*
X038520Y029811D02*
X038225D01*
X054304Y026050D02*
X054315Y026078D01*
X054315D02*
X054338Y026106D01*
X054338D02*
X054361Y026120D01*
X054406*
X054406D02*
X054429Y026106D01*
X054429D02*
X054452Y026078D01*
X054463Y026050*
X054463D02*
X054475Y026007D01*
X054475D02*
Y025937D01*
X054475D02*
X054463Y025895D01*
X054463D02*
X054452Y025867D01*
X054429Y025839*
X054429D02*
X054406Y025825D01*
X054406D02*
X054361D01*
X054338Y025839*
X054338D02*
X054315Y025867D01*
X054315D02*
X054304Y025895D01*
X054088Y026120D02*
X054202Y025923D01*
X054031*
X054088Y026120D02*
Y025825D01*
X053861Y026120D02*
X053895Y026106D01*
X053918Y026064*
X053929Y025993*
X053929D02*
Y025951D01*
X053929D02*
X053918Y025881D01*
X053895Y025839*
X053861Y025825*
X053838*
X053838D02*
X053804Y025839D01*
X053804D02*
X053781Y025881D01*
X053781D02*
X053770Y025951D01*
X053770D02*
Y025993D01*
X053770D02*
X053781Y026064D01*
X053781D02*
X053804Y026106D01*
X053804D02*
X053838Y026120D01*
X053838D02*
X053861D01*
X034750Y018195D02*
X034778Y018184D01*
X034806Y018161*
X034820Y018138*
X034820D02*
Y018093D01*
X034806Y018070*
X034778Y018047*
X034778D02*
X034750Y018036D01*
X034707Y018025*
X034707D02*
X034637D01*
X034637D02*
X034595Y018036D01*
X034567Y018047*
X034567D02*
X034539Y018070D01*
X034525Y018093*
Y018138*
X034525D02*
X034539Y018161D01*
X034567Y018184*
X034595Y018195*
X034820Y018411D02*
X034623Y018297D01*
X034623D02*
Y018468D01*
X034820Y018411D02*
X034525D01*
X034820Y018627D02*
X034806Y018593D01*
X034778Y018581*
X034778D02*
X034750D01*
X034750D02*
X034721Y018593D01*
X034721D02*
X034707Y018615D01*
X034707D02*
X034693Y018661D01*
X034693D02*
X034679Y018695D01*
X034679D02*
X034651Y018718D01*
X034651D02*
X034623Y018729D01*
X034623D02*
X034581D01*
X034581D02*
X034553Y018718D01*
X034539Y018706*
X034539D02*
X034525Y018672D01*
X034525D02*
Y018627D01*
X034539Y018593*
X034553Y018581*
X034553D02*
X034581Y018570D01*
X034623*
X034651Y018581*
X034651D02*
X034679Y018604D01*
X034679D02*
X034693Y018638D01*
X034693D02*
X034707Y018684D01*
X034707D02*
X034721Y018706D01*
X034721D02*
X034750Y018718D01*
X034778*
X034806Y018706*
X034806D02*
X034820Y018672D01*
X034820D02*
Y018627D01*
X030904Y014950D02*
X030915Y014978D01*
X030915D02*
X030938Y015006D01*
X030938D02*
X030961Y015020D01*
X031006*
X031006D02*
X031029Y015006D01*
X031029D02*
X031052Y014978D01*
X031063Y014950*
X031063D02*
X031075Y014907D01*
X031075D02*
Y014837D01*
X031075D02*
X031063Y014795D01*
X031063D02*
X031052Y014767D01*
X031029Y014739*
X031029D02*
X031006Y014725D01*
X031006D02*
X030961D01*
X030938Y014739*
X030938D02*
X030915Y014767D01*
X030915D02*
X030904Y014795D01*
X030688Y015020D02*
X030802Y014823D01*
X030631*
X030688Y015020D02*
Y014725D01*
X030381Y014921D02*
X030393Y014879D01*
X030393D02*
X030415Y014851D01*
X030415D02*
X030450Y014837D01*
X030450D02*
X030461D01*
X030461D02*
X030495Y014851D01*
X030495D02*
X030518Y014879D01*
X030518D02*
X030529Y014921D01*
X030529D02*
Y014935D01*
X030529D02*
X030518Y014978D01*
X030495Y015006*
X030461Y015020*
X030450*
X030415Y015006*
X030415D02*
X030393Y014978D01*
X030381Y014921*
X030381D02*
Y014851D01*
X030381D02*
X030393Y014781D01*
X030415Y014739*
X030415D02*
X030450Y014725D01*
X030472*
X030472D02*
X030506Y014739D01*
X030506D02*
X030518Y014767D01*
X020250Y018195D02*
X020278Y018184D01*
X020306Y018161*
X020320Y018138*
X020320D02*
Y018093D01*
X020306Y018070*
X020278Y018047*
X020278D02*
X020250Y018036D01*
X020207Y018025*
X020207D02*
X020137D01*
X020137D02*
X020095Y018036D01*
X020067Y018047*
X020067D02*
X020039Y018070D01*
X020025Y018093*
Y018138*
X020025D02*
X020039Y018161D01*
X020067Y018184*
X020095Y018195*
X020320Y018411D02*
X020123Y018297D01*
X020123D02*
Y018468D01*
X020320Y018411D02*
X020025D01*
X020278Y018706D02*
X020306Y018695D01*
X020320Y018661*
Y018638*
X020320D02*
X020306Y018604D01*
X020306D02*
X020264Y018581D01*
X020264D02*
X020193Y018570D01*
X020193D02*
X020123D01*
X020067Y018581*
X020067D02*
X020039Y018604D01*
X020039D02*
X020025Y018638D01*
X020025D02*
Y018650D01*
X020039Y018684*
X020067Y018706*
X020067D02*
X020109Y018718D01*
X020123*
X020165Y018706*
X020165D02*
X020193Y018684D01*
X020193D02*
X020207Y018650D01*
X020207D02*
Y018638D01*
X020207D02*
X020193Y018604D01*
X020193D02*
X020165Y018581D01*
X020165D02*
X020123Y018570D01*
X022404Y014850D02*
X022415Y014878D01*
X022415D02*
X022438Y014906D01*
X022438D02*
X022461Y014920D01*
X022506*
X022506D02*
X022529Y014906D01*
X022529D02*
X022552Y014878D01*
X022563Y014850*
X022563D02*
X022575Y014807D01*
X022575D02*
Y014737D01*
X022575D02*
X022563Y014695D01*
X022563D02*
X022552Y014667D01*
X022529Y014639*
X022529D02*
X022506Y014625D01*
X022506D02*
X022461D01*
X022438Y014639*
X022438D02*
X022415Y014667D01*
X022415D02*
X022404Y014695D01*
X022188Y014920D02*
X022302Y014723D01*
X022131*
X022188Y014920D02*
Y014625D01*
X021870Y014920D02*
X021984Y014625D01*
X022029Y014920D02*
X021870D01*
X011604Y044850D02*
X011615Y044878D01*
X011615D02*
X011638Y044906D01*
X011638D02*
X011661Y044920D01*
X011706*
X011706D02*
X011729Y044906D01*
X011729D02*
X011752Y044878D01*
X011763Y044850*
X011763D02*
X011775Y044807D01*
X011775D02*
Y044737D01*
X011775D02*
X011763Y044695D01*
X011763D02*
X011752Y044667D01*
X011729Y044639*
X011729D02*
X011706Y044625D01*
X011706D02*
X011661D01*
X011638Y044639*
X011638D02*
X011615Y044667D01*
X011615D02*
X011604Y044695D01*
X011354Y044920D02*
X011468D01*
X011479Y044793*
X011479D02*
X011468Y044807D01*
X011468D02*
X011434Y044821D01*
X011434D02*
X011400D01*
X011400D02*
X011365Y044807D01*
X011365D02*
X011343Y044779D01*
X011343D02*
X011331Y044737D01*
X011331D02*
X011343Y044709D01*
X011354Y044667*
X011354D02*
X011377Y044639D01*
X011411Y044625*
X011445*
X011479Y044639*
X011479D02*
X011490Y044653D01*
X011490D02*
X011502Y044681D01*
X024850Y028695D02*
X024878Y028684D01*
X024906Y028661*
X024920Y028638*
X024920D02*
Y028593D01*
X024906Y028570*
X024878Y028547*
X024878D02*
X024850Y028536D01*
X024807Y028525*
X024807D02*
X024737D01*
X024737D02*
X024695Y028536D01*
X024667Y028547*
X024667D02*
X024639Y028570D01*
X024625Y028593*
Y028638*
X024625D02*
X024639Y028661D01*
X024667Y028684*
X024695Y028695*
X024920Y028820D02*
Y028945D01*
X024807Y028877*
X024807D02*
Y028911D01*
X024807D02*
X024793Y028934D01*
X024793D02*
X024779Y028945D01*
X024779D02*
X024737Y028956D01*
X024737D02*
X024709D01*
X024709D02*
X024667Y028945D01*
X024639Y028922*
X024639D02*
X024625Y028888D01*
X024625D02*
Y028854D01*
X024625D02*
X024639Y028820D01*
X024653Y028809*
X024681Y028797*
X024920Y029218D02*
X024625Y029104D01*
X024920Y029059D02*
Y029218D01*
X026050Y030995D02*
X026078Y030984D01*
X026106Y030961*
X026120Y030938*
X026120D02*
Y030893D01*
X026106Y030870*
X026078Y030847*
X026078D02*
X026050Y030836D01*
X026007Y030825*
X026007D02*
X025937D01*
X025937D02*
X025895Y030836D01*
X025867Y030847*
X025867D02*
X025839Y030870D01*
X025825Y030893*
Y030938*
X025825D02*
X025839Y030961D01*
X025867Y030984*
X025895Y030995*
X026050Y031109D02*
X026064D01*
X026092Y031120*
X026106Y031131*
X026106D02*
X026120Y031154D01*
X026120D02*
Y031200D01*
X026106Y031222*
X026106D02*
X026092Y031234D01*
X026064Y031245*
X026035*
X026035D02*
X026007Y031234D01*
X026007D02*
X025965Y031211D01*
X025965D02*
X025825Y031097D01*
X025825D02*
Y031256D01*
X026120Y031381D02*
Y031506D01*
X026120D02*
X026007Y031438D01*
X026007D02*
Y031472D01*
X026007D02*
X025993Y031495D01*
X025993D02*
X025979Y031506D01*
X025979D02*
X025937Y031518D01*
X025937D02*
X025909D01*
X025867Y031506*
X025867D02*
X025839Y031484D01*
X025825Y031450*
Y031415*
X025825D02*
X025839Y031381D01*
X025839D02*
X025853Y031370D01*
X025881Y031359*
X025704Y027850D02*
X025715Y027878D01*
X025715D02*
X025738Y027906D01*
X025738D02*
X025761Y027920D01*
X025806*
X025806D02*
X025829Y027906D01*
X025829D02*
X025852Y027878D01*
X025863Y027850*
X025863D02*
X025875Y027807D01*
X025875D02*
Y027737D01*
X025875D02*
X025863Y027695D01*
X025863D02*
X025852Y027667D01*
X025829Y027639*
X025829D02*
X025806Y027625D01*
X025806D02*
X025761D01*
X025738Y027639*
X025738D02*
X025715Y027667D01*
X025715D02*
X025704Y027695D01*
X025590Y027850D02*
Y027864D01*
X025590D02*
X025579Y027892D01*
X025579D02*
X025568Y027906D01*
X025545Y027920*
X025500*
X025477Y027906*
X025465Y027892*
X025465D02*
X025454Y027864D01*
X025454D02*
Y027835D01*
X025454D02*
X025465Y027807D01*
X025465D02*
X025488Y027765D01*
X025488D02*
X025602Y027625D01*
X025443*
X025227Y027920D02*
X025340Y027723D01*
X025340D02*
X025170D01*
X025227Y027920D02*
Y027625D01*
X025450Y030995D02*
X025478Y030984D01*
X025506Y030961*
X025520Y030938*
X025520D02*
Y030893D01*
X025506Y030870*
X025478Y030847*
X025478D02*
X025450Y030836D01*
X025407Y030825*
X025407D02*
X025337D01*
X025337D02*
X025295Y030836D01*
X025267Y030847*
X025267D02*
X025239Y030870D01*
X025225Y030893*
Y030938*
X025225D02*
X025239Y030961D01*
X025267Y030984*
X025295Y030995*
X025520Y031245D02*
Y031131D01*
X025520D02*
X025393Y031120D01*
X025393D02*
X025407Y031131D01*
X025407D02*
X025421Y031165D01*
X025421D02*
Y031200D01*
X025421D02*
X025407Y031234D01*
X025407D02*
X025379Y031256D01*
X025379D02*
X025337Y031268D01*
X025337D02*
X025309Y031256D01*
X025309D02*
X025267Y031245D01*
X025239Y031222*
X025239D02*
X025225Y031188D01*
X025225D02*
Y031154D01*
X025225D02*
X025239Y031120D01*
X025253Y031109*
X025281Y031097*
X025520Y031438D02*
X025506Y031404D01*
X025506D02*
X025464Y031381D01*
X025464D02*
X025393Y031370D01*
X025393D02*
X025351D01*
X025351D02*
X025281Y031381D01*
X025281D02*
X025239Y031404D01*
X025239D02*
X025225Y031438D01*
X025225D02*
Y031461D01*
X025239Y031495*
X025281Y031518*
X025351Y031529*
X025351D02*
X025393D01*
X025393D02*
X025464Y031518D01*
X025506Y031495*
X025520Y031461*
Y031438*
X011604Y045450D02*
X011615Y045478D01*
X011615D02*
X011638Y045506D01*
X011638D02*
X011661Y045520D01*
X011706*
X011706D02*
X011729Y045506D01*
X011729D02*
X011752Y045478D01*
X011763Y045450*
X011763D02*
X011775Y045407D01*
X011775D02*
Y045337D01*
X011775D02*
X011763Y045295D01*
X011763D02*
X011752Y045267D01*
X011729Y045239*
X011729D02*
X011706Y045225D01*
X011706D02*
X011661D01*
X011638Y045239*
X011638D02*
X011615Y045267D01*
X011615D02*
X011604Y045295D01*
X011365Y045478D02*
X011377Y045506D01*
X011411Y045520*
X011434*
X011468Y045506*
X011490Y045464*
X011490D02*
X011502Y045393D01*
X011502D02*
Y045323D01*
X011490Y045267*
X011490D02*
X011468Y045239D01*
X011434Y045225*
X011422*
X011422D02*
X011388Y045239D01*
X011388D02*
X011365Y045267D01*
X011365D02*
X011354Y045309D01*
X011354D02*
Y045323D01*
X011354D02*
X011365Y045365D01*
X011365D02*
X011388Y045393D01*
X011388D02*
X011422Y045407D01*
X011422D02*
X011434D01*
X011434D02*
X011468Y045393D01*
X011468D02*
X011490Y045365D01*
X011490D02*
X011502Y045323D01*
X024850Y026995D02*
X024878Y026984D01*
X024906Y026961*
X024920Y026938*
X024920D02*
Y026893D01*
X024906Y026870*
X024878Y026847*
X024878D02*
X024850Y026836D01*
X024807Y026825*
X024807D02*
X024737D01*
X024737D02*
X024695Y026836D01*
X024667Y026847*
X024667D02*
X024639Y026870D01*
X024625Y026893*
Y026938*
X024625D02*
X024639Y026961D01*
X024667Y026984*
X024695Y026995*
X024920Y027245D02*
Y027131D01*
X024920D02*
X024793Y027120D01*
X024793D02*
X024807Y027131D01*
X024807D02*
X024821Y027165D01*
X024821D02*
Y027200D01*
X024821D02*
X024807Y027234D01*
X024807D02*
X024779Y027256D01*
X024779D02*
X024737Y027268D01*
X024737D02*
X024709Y027256D01*
X024709D02*
X024667Y027245D01*
X024639Y027222*
X024639D02*
X024625Y027188D01*
X024625D02*
Y027154D01*
X024625D02*
X024639Y027120D01*
X024653Y027109*
X024681Y027097*
X024864Y027370D02*
X024878Y027393D01*
X024920Y027427*
X024625*
X038704Y023449D02*
X038715Y023478D01*
X038715D02*
X038738Y023506D01*
X038738D02*
X038761Y023520D01*
X038806*
X038806D02*
X038829Y023506D01*
X038829D02*
X038852Y023478D01*
X038863Y023449*
X038863D02*
X038875Y023407D01*
X038875D02*
Y023337D01*
X038863Y023295*
X038863D02*
X038852Y023267D01*
X038829Y023239*
X038829D02*
X038806Y023224D01*
X038806D02*
X038761D01*
X038761D02*
X038738Y023239D01*
X038738D02*
X038715Y023267D01*
X038715D02*
X038704Y023295D01*
X038465Y023478D02*
X038477Y023506D01*
X038511Y023520*
X038534*
X038568Y023506*
X038590Y023464*
X038590D02*
X038602Y023393D01*
X038602D02*
Y023323D01*
X038590Y023267*
X038590D02*
X038568Y023239D01*
X038534Y023224*
X038534D02*
X038522D01*
X038522D02*
X038488Y023239D01*
X038488D02*
X038465Y023267D01*
X038465D02*
X038454Y023309D01*
X038454D02*
Y023323D01*
X038454D02*
X038465Y023365D01*
X038465D02*
X038488Y023393D01*
X038488D02*
X038522Y023407D01*
X038522D02*
X038534D01*
X038534D02*
X038568Y023393D01*
X038568D02*
X038590Y023365D01*
X038590D02*
X038602Y023323D01*
X038238Y023520D02*
X038352Y023323D01*
X038181*
X038238Y023520D02*
Y023224D01*
X037604Y018850D02*
X037615Y018878D01*
X037615D02*
X037638Y018906D01*
X037638D02*
X037661Y018920D01*
X037706*
X037706D02*
X037729Y018906D01*
X037729D02*
X037752Y018878D01*
X037763Y018850*
X037763D02*
X037775Y018807D01*
X037775D02*
Y018737D01*
X037775D02*
X037763Y018695D01*
X037763D02*
X037752Y018667D01*
X037729Y018639*
X037729D02*
X037706Y018625D01*
X037706D02*
X037661D01*
X037638Y018639*
X037638D02*
X037615Y018667D01*
X037615D02*
X037604Y018695D01*
X037365Y018878D02*
X037377Y018906D01*
X037411Y018920*
X037434*
X037468Y018906*
X037490Y018864*
X037490D02*
X037502Y018793D01*
X037502D02*
Y018723D01*
X037490Y018667*
X037490D02*
X037468Y018639D01*
X037434Y018625*
X037422*
X037422D02*
X037388Y018639D01*
X037388D02*
X037365Y018667D01*
X037365D02*
X037354Y018709D01*
X037354D02*
Y018723D01*
X037354D02*
X037365Y018765D01*
X037365D02*
X037388Y018793D01*
X037388D02*
X037422Y018807D01*
X037422D02*
X037434D01*
X037434D02*
X037468Y018793D01*
X037468D02*
X037490Y018765D01*
X037490D02*
X037502Y018723D01*
X037104Y018920D02*
X037218D01*
X037229Y018793*
X037229D02*
X037218Y018807D01*
X037218D02*
X037184Y018821D01*
X037184D02*
X037150D01*
X037150D02*
X037115Y018807D01*
X037115D02*
X037093Y018779D01*
X037093D02*
X037081Y018737D01*
X037081D02*
X037093Y018709D01*
X037104Y018667*
X037104D02*
X037127Y018639D01*
X037161Y018625*
X037195*
X037229Y018639*
X037229D02*
X037240Y018653D01*
X037240D02*
X037252Y018681D01*
X031150Y023795D02*
X031178Y023784D01*
X031206Y023761*
X031220Y023738*
X031220D02*
Y023693D01*
X031206Y023670*
X031178Y023647*
X031178D02*
X031150Y023636D01*
X031107Y023625*
X031107D02*
X031037D01*
X031037D02*
X030995Y023636D01*
X030967Y023647*
X030967D02*
X030939Y023670D01*
X030925Y023693*
Y023738*
X030925D02*
X030939Y023761D01*
X030967Y023784*
X030995Y023795*
X031220Y024045D02*
Y023931D01*
X031220D02*
X031093Y023920D01*
X031093D02*
X031107Y023931D01*
X031107D02*
X031121Y023965D01*
X031121D02*
Y024000D01*
X031121D02*
X031107Y024034D01*
X031107D02*
X031079Y024056D01*
X031079D02*
X031037Y024068D01*
X031037D02*
X031009Y024056D01*
X031009D02*
X030967Y024045D01*
X030939Y024022*
X030939D02*
X030925Y023988D01*
X030925D02*
Y023954D01*
X030925D02*
X030939Y023920D01*
X030953Y023909*
X030981Y023897*
X031220Y024193D02*
Y024318D01*
X031107Y024250*
X031107D02*
Y024284D01*
X031107D02*
X031093Y024306D01*
X031093D02*
X031079Y024318D01*
X031079D02*
X031037Y024329D01*
X031037D02*
X031009D01*
X031009D02*
X030967Y024318D01*
X030939Y024295*
X030925Y024261*
Y024227*
X030939Y024193*
X030953Y024181*
X030953D02*
X030981Y024170D01*
X027050Y023795D02*
X027078Y023784D01*
X027106Y023761*
X027120Y023738*
X027120D02*
Y023693D01*
X027106Y023670*
X027078Y023647*
X027078D02*
X027050Y023636D01*
X027007Y023625*
X027007D02*
X026937D01*
X026937D02*
X026895Y023636D01*
X026867Y023647*
X026867D02*
X026839Y023670D01*
X026825Y023693*
Y023738*
X026825D02*
X026839Y023761D01*
X026867Y023784*
X026895Y023795*
X027120Y024045D02*
Y023931D01*
X027120D02*
X026993Y023920D01*
X026993D02*
X027007Y023931D01*
X027007D02*
X027021Y023965D01*
X027021D02*
Y024000D01*
X027021D02*
X027007Y024034D01*
X027007D02*
X026979Y024056D01*
X026979D02*
X026937Y024068D01*
X026937D02*
X026909Y024056D01*
X026909D02*
X026867Y024045D01*
X026839Y024022*
X026839D02*
X026825Y023988D01*
X026825D02*
Y023954D01*
X026825D02*
X026839Y023920D01*
X026853Y023909*
X026881Y023897*
X027021Y024318D02*
X026979Y024306D01*
X026979D02*
X026951Y024284D01*
X026951D02*
X026937Y024250D01*
X026937D02*
Y024238D01*
X026937D02*
X026951Y024204D01*
X026951D02*
X026979Y024181D01*
X026979D02*
X027021Y024170D01*
X027021D02*
X027035D01*
X027035D02*
X027078Y024181D01*
X027078D02*
X027106Y024204D01*
X027106D02*
X027120Y024238D01*
X027120D02*
Y024250D01*
X027106Y024284*
X027078Y024306*
X027078D02*
X027021Y024318D01*
X027021D02*
X026951D01*
X026951D02*
X026881Y024306D01*
X026881D02*
X026839Y024284D01*
X026825Y024250*
Y024227*
X026839Y024193*
X026867Y024181*
X028750Y019795D02*
X028778Y019784D01*
X028806Y019761*
X028820Y019738*
X028820D02*
Y019693D01*
X028806Y019670*
X028778Y019647*
X028778D02*
X028750Y019636D01*
X028707Y019625*
X028707D02*
X028637D01*
X028637D02*
X028595Y019636D01*
X028567Y019647*
X028567D02*
X028539Y019670D01*
X028525Y019693*
Y019738*
X028525D02*
X028539Y019761D01*
X028567Y019784*
X028595Y019795*
X028778Y020034D02*
X028806Y020022D01*
X028806D02*
X028820Y019988D01*
X028820D02*
Y019965D01*
X028820D02*
X028806Y019931D01*
X028806D02*
X028764Y019909D01*
X028693Y019897*
X028693D02*
X028623D01*
X028623D02*
X028567Y019909D01*
X028539Y019931*
X028539D02*
X028525Y019965D01*
X028525D02*
Y019977D01*
X028539Y020011*
X028567Y020034*
X028609Y020045*
X028623*
X028665Y020034*
X028665D02*
X028693Y020011D01*
X028693D02*
X028707Y019977D01*
X028707D02*
Y019965D01*
X028707D02*
X028693Y019931D01*
X028693D02*
X028665Y019909D01*
X028665D02*
X028623Y019897D01*
X028750Y020159D02*
X028764D01*
X028792Y020170*
X028806Y020181*
X028806D02*
X028820Y020204D01*
X028820D02*
Y020250D01*
X028806Y020272*
X028806D02*
X028792Y020284D01*
X028764Y020295*
X028735*
X028735D02*
X028707Y020284D01*
X028707D02*
X028665Y020261D01*
X028665D02*
X028525Y020147D01*
X028525D02*
Y020306D01*
X031150Y019795D02*
X031178Y019784D01*
X031206Y019761*
X031220Y019738*
X031220D02*
Y019693D01*
X031206Y019670*
X031178Y019647*
X031178D02*
X031150Y019636D01*
X031107Y019625*
X031107D02*
X031037D01*
X031037D02*
X030995Y019636D01*
X030967Y019647*
X030967D02*
X030939Y019670D01*
X030925Y019693*
Y019738*
X030925D02*
X030939Y019761D01*
X030967Y019784*
X030995Y019795*
X031178Y020034D02*
X031206Y020022D01*
X031206D02*
X031220Y019988D01*
X031220D02*
Y019965D01*
X031220D02*
X031206Y019931D01*
X031206D02*
X031164Y019909D01*
X031093Y019897*
X031093D02*
X031023D01*
X031023D02*
X030967Y019909D01*
X030939Y019931*
X030939D02*
X030925Y019965D01*
X030925D02*
Y019977D01*
X030939Y020011*
X030967Y020034*
X031009Y020045*
X031023*
X031065Y020034*
X031065D02*
X031093Y020011D01*
X031093D02*
X031107Y019977D01*
X031107D02*
Y019965D01*
X031107D02*
X031093Y019931D01*
X031093D02*
X031065Y019909D01*
X031065D02*
X031023Y019897D01*
X031220Y020170D02*
Y020295D01*
X031107Y020227*
X031107D02*
Y020261D01*
X031107D02*
X031093Y020284D01*
X031093D02*
X031079Y020295D01*
X031079D02*
X031037Y020306D01*
X031037D02*
X031009D01*
X031009D02*
X030967Y020295D01*
X030939Y020272*
X030939D02*
X030925Y020238D01*
X030925D02*
Y020204D01*
X030925D02*
X030939Y020170D01*
X030953Y020159*
X030981Y020147*
X011604Y046050D02*
X011615Y046078D01*
X011615D02*
X011638Y046106D01*
X011638D02*
X011661Y046120D01*
X011706*
X011706D02*
X011729Y046106D01*
X011729D02*
X011752Y046078D01*
X011763Y046050*
X011763D02*
X011775Y046007D01*
X011775D02*
Y045937D01*
X011775D02*
X011763Y045895D01*
X011763D02*
X011752Y045867D01*
X011729Y045839*
X011729D02*
X011706Y045825D01*
X011706D02*
X011661D01*
X011638Y045839*
X011638D02*
X011615Y045867D01*
X011615D02*
X011604Y045895D01*
X011343Y046120D02*
X011456Y045825D01*
X011502Y046120D02*
X011343D01*
X030550Y019795D02*
X030578Y019784D01*
X030606Y019761*
X030620Y019738*
X030620D02*
Y019693D01*
X030606Y019670*
X030578Y019647*
X030578D02*
X030550Y019636D01*
X030507Y019625*
X030507D02*
X030437D01*
X030437D02*
X030395Y019636D01*
X030367Y019647*
X030367D02*
X030339Y019670D01*
X030325Y019693*
Y019738*
X030325D02*
X030339Y019761D01*
X030367Y019784*
X030395Y019795*
X030578Y020034D02*
X030606Y020022D01*
X030606D02*
X030620Y019988D01*
X030620D02*
Y019965D01*
X030620D02*
X030606Y019931D01*
X030606D02*
X030564Y019909D01*
X030493Y019897*
X030493D02*
X030423D01*
X030423D02*
X030367Y019909D01*
X030339Y019931*
X030339D02*
X030325Y019965D01*
X030325D02*
Y019977D01*
X030339Y020011*
X030367Y020034*
X030409Y020045*
X030423*
X030465Y020034*
X030465D02*
X030493Y020011D01*
X030493D02*
X030507Y019977D01*
X030507D02*
Y019965D01*
X030507D02*
X030493Y019931D01*
X030493D02*
X030465Y019909D01*
X030465D02*
X030423Y019897D01*
X030578Y020284D02*
X030606Y020272D01*
X030606D02*
X030620Y020238D01*
X030620D02*
Y020215D01*
X030620D02*
X030606Y020181D01*
X030606D02*
X030564Y020159D01*
X030493Y020147*
X030493D02*
X030423D01*
X030423D02*
X030367Y020159D01*
X030339Y020181*
X030339D02*
X030325Y020215D01*
X030325D02*
Y020227D01*
X030339Y020261*
X030367Y020284*
X030409Y020295*
X030423*
X030465Y020284*
X030465D02*
X030493Y020261D01*
X030493D02*
X030507Y020227D01*
X030507D02*
Y020215D01*
X030507D02*
X030493Y020181D01*
X030493D02*
X030465Y020159D01*
X030465D02*
X030423Y020147D01*
X029950Y023795D02*
X029978Y023784D01*
X030006Y023761*
X030020Y023738*
X030020D02*
Y023693D01*
X030006Y023670*
X029978Y023647*
X029978D02*
X029950Y023636D01*
X029907Y023625*
X029907D02*
X029837D01*
X029837D02*
X029795Y023636D01*
X029767Y023647*
X029767D02*
X029739Y023670D01*
X029725Y023693*
Y023738*
X029725D02*
X029739Y023761D01*
X029767Y023784*
X029795Y023795*
X030020Y024045D02*
Y023931D01*
X030020D02*
X029893Y023920D01*
X029893D02*
X029907Y023931D01*
X029907D02*
X029921Y023965D01*
X029921D02*
Y024000D01*
X029921D02*
X029907Y024034D01*
X029907D02*
X029879Y024056D01*
X029879D02*
X029837Y024068D01*
X029837D02*
X029809Y024056D01*
X029809D02*
X029767Y024045D01*
X029739Y024022*
X029739D02*
X029725Y023988D01*
X029725D02*
Y023954D01*
X029725D02*
X029739Y023920D01*
X029753Y023909*
X029781Y023897*
X030020Y024284D02*
X029823Y024170D01*
Y024340*
X030020Y024284D02*
X029725D01*
X032950Y019795D02*
X032978Y019784D01*
X033006Y019761*
X033020Y019738*
X033020D02*
Y019693D01*
X033006Y019670*
X032978Y019647*
X032978D02*
X032950Y019636D01*
X032907Y019625*
X032907D02*
X032837D01*
X032837D02*
X032795Y019636D01*
X032767Y019647*
X032767D02*
X032739Y019670D01*
X032725Y019693*
Y019738*
X032725D02*
X032739Y019761D01*
X032767Y019784*
X032795Y019795*
X032978Y020034D02*
X033006Y020022D01*
X033006D02*
X033020Y019988D01*
X033020D02*
Y019965D01*
X033020D02*
X033006Y019931D01*
X033006D02*
X032964Y019909D01*
X032893Y019897*
X032893D02*
X032823D01*
X032823D02*
X032767Y019909D01*
X032739Y019931*
X032739D02*
X032725Y019965D01*
X032725D02*
Y019977D01*
X032739Y020011*
X032767Y020034*
X032809Y020045*
X032823*
X032865Y020034*
X032865D02*
X032893Y020011D01*
X032893D02*
X032907Y019977D01*
X032907D02*
Y019965D01*
X032907D02*
X032893Y019931D01*
X032893D02*
X032865Y019909D01*
X032865D02*
X032823Y019897D01*
X033020Y020306D02*
X032725Y020193D01*
X033020Y020147D02*
Y020306D01*
X023950Y023795D02*
X023978Y023784D01*
X024006Y023761*
X024020Y023738*
X024020D02*
Y023693D01*
X024006Y023670*
X023978Y023647*
X023978D02*
X023950Y023636D01*
X023907Y023625*
X023907D02*
X023837D01*
X023837D02*
X023795Y023636D01*
X023767Y023647*
X023767D02*
X023739Y023670D01*
X023725Y023693*
Y023738*
X023725D02*
X023739Y023761D01*
X023767Y023784*
X023795Y023795*
X024020Y024056D02*
X023725Y023943D01*
X024020Y023897D02*
Y024056D01*
Y024181D02*
Y024306D01*
X024020D02*
X023907Y024238D01*
X023907D02*
Y024272D01*
X023907D02*
X023893Y024295D01*
X023893D02*
X023879Y024306D01*
X023879D02*
X023837Y024318D01*
X023837D02*
X023809D01*
X023767Y024306*
X023767D02*
X023739Y024284D01*
X023725Y024250*
Y024215*
X023725D02*
X023739Y024181D01*
X023739D02*
X023753Y024170D01*
X023781Y024159*
X020004Y023950D02*
X020015Y023978D01*
X020015D02*
X020038Y024006D01*
X020038D02*
X020061Y024020D01*
X020106*
X020106D02*
X020129Y024006D01*
X020129D02*
X020152Y023978D01*
X020163Y023950*
X020163D02*
X020175Y023907D01*
X020175D02*
Y023837D01*
X020175D02*
X020163Y023795D01*
X020163D02*
X020152Y023767D01*
X020129Y023739*
X020129D02*
X020106Y023725D01*
X020106D02*
X020061D01*
X020038Y023739*
X020038D02*
X020015Y023767D01*
X020015D02*
X020004Y023795D01*
X019765Y023978D02*
X019777Y024006D01*
X019811Y024020*
X019834*
X019868Y024006*
X019890Y023964*
X019890D02*
X019902Y023893D01*
X019902D02*
Y023823D01*
X019890Y023767*
X019890D02*
X019868Y023739D01*
X019834Y023725*
X019822*
X019822D02*
X019788Y023739D01*
X019788D02*
X019765Y023767D01*
X019765D02*
X019754Y023809D01*
X019754D02*
Y023823D01*
X019754D02*
X019765Y023865D01*
X019765D02*
X019788Y023893D01*
X019788D02*
X019822Y023907D01*
X019822D02*
X019834D01*
X019834D02*
X019868Y023893D01*
X019868D02*
X019890Y023865D01*
X019890D02*
X019902Y023823D01*
X019584Y024020D02*
X019618Y024006D01*
X019640Y023964*
X019640D02*
X019652Y023893D01*
X019652D02*
Y023851D01*
X019652D02*
X019640Y023781D01*
X019640D02*
X019618Y023739D01*
X019584Y023725*
X019561*
X019527Y023739*
X019504Y023781*
X019504D02*
X019493Y023851D01*
X019493D02*
Y023893D01*
X019493D02*
X019504Y023964D01*
X019504D02*
X019527Y024006D01*
X019561Y024020*
X019584*
X021650Y019795D02*
X021678Y019784D01*
X021706Y019761*
X021720Y019738*
X021720D02*
Y019693D01*
X021706Y019670*
X021678Y019647*
X021678D02*
X021650Y019636D01*
X021607Y019625*
X021607D02*
X021537D01*
X021537D02*
X021495Y019636D01*
X021467Y019647*
X021467D02*
X021439Y019670D01*
X021425Y019693*
Y019738*
X021425D02*
X021439Y019761D01*
X021467Y019784*
X021495Y019795*
X021720Y020045D02*
Y019931D01*
X021720D02*
X021593Y019920D01*
X021593D02*
X021607Y019931D01*
X021607D02*
X021621Y019965D01*
X021621D02*
Y020000D01*
X021621D02*
X021607Y020034D01*
X021607D02*
X021579Y020056D01*
X021579D02*
X021537Y020068D01*
X021537D02*
X021509Y020056D01*
X021509D02*
X021467Y020045D01*
X021439Y020022*
X021439D02*
X021425Y019988D01*
X021425D02*
Y019954D01*
X021425D02*
X021439Y019920D01*
X021453Y019909*
X021481Y019897*
X021720Y020318D02*
Y020204D01*
X021720D02*
X021593Y020193D01*
X021593D02*
X021607Y020204D01*
X021607D02*
X021621Y020238D01*
X021621D02*
Y020272D01*
X021621D02*
X021607Y020306D01*
X021607D02*
X021579Y020329D01*
X021579D02*
X021537Y020340D01*
X021537D02*
X021509Y020329D01*
X021509D02*
X021467Y020318D01*
X021439Y020295*
X021425Y020261*
Y020227*
X021439Y020193*
X021453Y020181*
X021453D02*
X021481Y020170D01*
X024050Y019795D02*
X024078Y019784D01*
X024106Y019761*
X024120Y019738*
X024120D02*
Y019693D01*
X024106Y019670*
X024078Y019647*
X024078D02*
X024050Y019636D01*
X024007Y019625*
X024007D02*
X023937D01*
X023937D02*
X023895Y019636D01*
X023867Y019647*
X023867D02*
X023839Y019670D01*
X023825Y019693*
Y019738*
X023825D02*
X023839Y019761D01*
X023867Y019784*
X023895Y019795*
X024120Y020045D02*
Y019931D01*
X024120D02*
X023993Y019920D01*
X023993D02*
X024007Y019931D01*
X024007D02*
X024021Y019965D01*
X024021D02*
Y020000D01*
X024021D02*
X024007Y020034D01*
X024007D02*
X023979Y020056D01*
X023979D02*
X023937Y020068D01*
X023937D02*
X023909Y020056D01*
X023909D02*
X023867Y020045D01*
X023839Y020022*
X023839D02*
X023825Y019988D01*
X023825D02*
Y019954D01*
X023825D02*
X023839Y019920D01*
X023853Y019909*
X023881Y019897*
X024078Y020306D02*
X024106Y020295D01*
X024120Y020261*
Y020238*
X024120D02*
X024106Y020204D01*
X024106D02*
X024064Y020181D01*
X024064D02*
X023993Y020170D01*
X023993D02*
X023923D01*
X023867Y020181*
X023867D02*
X023839Y020204D01*
X023839D02*
X023825Y020238D01*
X023825D02*
Y020250D01*
X023839Y020284*
X023867Y020306*
X023867D02*
X023909Y020318D01*
X023923*
X023965Y020306*
X023965D02*
X023993Y020284D01*
X023993D02*
X024007Y020250D01*
X024007D02*
Y020238D01*
X024007D02*
X023993Y020204D01*
X023993D02*
X023965Y020181D01*
X023965D02*
X023923Y020170D01*
X023550Y019795D02*
X023578Y019784D01*
X023606Y019761*
X023620Y019738*
X023620D02*
Y019693D01*
X023606Y019670*
X023578Y019647*
X023578D02*
X023550Y019636D01*
X023507Y019625*
X023507D02*
X023437D01*
X023437D02*
X023395Y019636D01*
X023367Y019647*
X023367D02*
X023339Y019670D01*
X023325Y019693*
Y019738*
X023325D02*
X023339Y019761D01*
X023367Y019784*
X023395Y019795*
X023620Y020045D02*
Y019931D01*
X023620D02*
X023493Y019920D01*
X023493D02*
X023507Y019931D01*
X023507D02*
X023521Y019965D01*
X023521D02*
Y020000D01*
X023521D02*
X023507Y020034D01*
X023507D02*
X023479Y020056D01*
X023479D02*
X023437Y020068D01*
X023437D02*
X023409Y020056D01*
X023409D02*
X023367Y020045D01*
X023339Y020022*
X023339D02*
X023325Y019988D01*
X023325D02*
Y019954D01*
X023325D02*
X023339Y019920D01*
X023353Y019909*
X023381Y019897*
X023620Y020329D02*
X023325Y020215D01*
X023620Y020170D02*
Y020329D01*
X023150Y023795D02*
X023178Y023784D01*
X023206Y023761*
X023220Y023738*
X023220D02*
Y023693D01*
X023206Y023670*
X023178Y023647*
X023178D02*
X023150Y023636D01*
X023107Y023625*
X023107D02*
X023037D01*
X023037D02*
X022995Y023636D01*
X022967Y023647*
X022967D02*
X022939Y023670D01*
X022925Y023693*
Y023738*
X022925D02*
X022939Y023761D01*
X022967Y023784*
X022995Y023795*
X023178Y024034D02*
X023206Y024022D01*
X023206D02*
X023220Y023988D01*
X023220D02*
Y023965D01*
X023220D02*
X023206Y023931D01*
X023206D02*
X023164Y023909D01*
X023093Y023897*
X023093D02*
X023023D01*
X023023D02*
X022967Y023909D01*
X022939Y023931*
X022939D02*
X022925Y023965D01*
X022925D02*
Y023977D01*
X022939Y024011*
X022967Y024034*
X023009Y024045*
X023023*
X023065Y024034*
X023065D02*
X023093Y024011D01*
X023093D02*
X023107Y023977D01*
X023107D02*
Y023965D01*
X023107D02*
X023093Y023931D01*
X023093D02*
X023065Y023909D01*
X023065D02*
X023023Y023897D01*
X023164Y024147D02*
X023178Y024170D01*
X023220Y024204*
X023220D02*
X022925D01*
X025850Y019795D02*
X025878Y019784D01*
X025906Y019761*
X025920Y019738*
X025920D02*
Y019693D01*
X025906Y019670*
X025878Y019647*
X025878D02*
X025850Y019636D01*
X025807Y019625*
X025807D02*
X025737D01*
X025737D02*
X025695Y019636D01*
X025667Y019647*
X025667D02*
X025639Y019670D01*
X025625Y019693*
Y019738*
X025625D02*
X025639Y019761D01*
X025667Y019784*
X025695Y019795*
X025920Y020045D02*
Y019931D01*
X025920D02*
X025793Y019920D01*
X025793D02*
X025807Y019931D01*
X025807D02*
X025821Y019965D01*
X025821D02*
Y020000D01*
X025821D02*
X025807Y020034D01*
X025807D02*
X025779Y020056D01*
X025779D02*
X025737Y020068D01*
X025737D02*
X025709Y020056D01*
X025709D02*
X025667Y020045D01*
X025639Y020022*
X025639D02*
X025625Y019988D01*
X025625D02*
Y019954D01*
X025625D02*
X025639Y019920D01*
X025653Y019909*
X025681Y019897*
X025920Y020227D02*
X025906Y020193D01*
X025878Y020181*
X025878D02*
X025850D01*
X025850D02*
X025821Y020193D01*
X025821D02*
X025807Y020215D01*
X025807D02*
X025793Y020261D01*
X025793D02*
X025779Y020295D01*
X025779D02*
X025751Y020318D01*
X025751D02*
X025723Y020329D01*
X025723D02*
X025681D01*
X025681D02*
X025653Y020318D01*
X025639Y020306*
X025639D02*
X025625Y020272D01*
X025625D02*
Y020227D01*
X025639Y020193*
X025653Y020181*
X025653D02*
X025681Y020170D01*
X025723*
X025751Y020181*
X025751D02*
X025779Y020204D01*
X025779D02*
X025793Y020238D01*
X025793D02*
X025807Y020284D01*
X025807D02*
X025821Y020306D01*
X025821D02*
X025850Y020318D01*
X025878*
X025906Y020306*
X025906D02*
X025920Y020272D01*
X025920D02*
Y020227D01*
X011604Y044250D02*
X011615Y044278D01*
X011615D02*
X011638Y044306D01*
X011638D02*
X011661Y044320D01*
X011706*
X011706D02*
X011729Y044306D01*
X011729D02*
X011752Y044278D01*
X011763Y044250*
X011763D02*
X011775Y044207D01*
X011775D02*
Y044137D01*
X011775D02*
X011763Y044095D01*
X011763D02*
X011752Y044067D01*
X011729Y044039*
X011729D02*
X011706Y044025D01*
X011706D02*
X011661D01*
X011638Y044039*
X011638D02*
X011615Y044067D01*
X011615D02*
X011604Y044095D01*
X011445Y044320D02*
X011479Y044306D01*
X011479D02*
X011490Y044278D01*
X011490D02*
Y044250D01*
X011490D02*
X011479Y044221D01*
X011479D02*
X011456Y044207D01*
X011456D02*
X011411Y044193D01*
X011411D02*
X011377Y044179D01*
X011377D02*
X011354Y044151D01*
X011354D02*
X011343Y044123D01*
Y044081*
X011354Y044053*
X011354D02*
X011365Y044039D01*
X011365D02*
X011400Y044025D01*
X011445*
X011479Y044039*
X011479D02*
X011490Y044053D01*
X011490D02*
X011502Y044081D01*
Y044123*
X011490Y044151*
X011490D02*
X011468Y044179D01*
X011468D02*
X011434Y044193D01*
X011434D02*
X011388Y044207D01*
X011388D02*
X011365Y044221D01*
X011365D02*
X011354Y044250D01*
X011354D02*
Y044278D01*
X011354D02*
X011365Y044306D01*
X011365D02*
X011400Y044320D01*
X011445*
X032250Y018195D02*
X032278Y018184D01*
X032306Y018161*
X032320Y018138*
X032320D02*
Y018093D01*
X032306Y018070*
X032278Y018047*
X032278D02*
X032250Y018036D01*
X032207Y018025*
X032207D02*
X032137D01*
X032137D02*
X032095Y018036D01*
X032067Y018047*
X032067D02*
X032039Y018070D01*
X032025Y018093*
Y018138*
X032025D02*
X032039Y018161D01*
X032067Y018184*
X032095Y018195*
X032320Y018354D02*
X032306Y018320D01*
X032278Y018309*
X032250*
X032221Y018320*
X032221D02*
X032207Y018343D01*
X032207D02*
X032193Y018388D01*
X032193D02*
X032179Y018422D01*
X032179D02*
X032151Y018445D01*
X032151D02*
X032123Y018456D01*
X032123D02*
X032081D01*
X032081D02*
X032053Y018445D01*
X032039Y018434*
X032025Y018400*
Y018354*
X032025D02*
X032039Y018320D01*
X032053Y018309*
X032081Y018297*
X032081D02*
X032123D01*
X032123D02*
X032151Y018309D01*
X032151D02*
X032179Y018331D01*
X032179D02*
X032193Y018365D01*
X032193D02*
X032207Y018411D01*
X032207D02*
X032221Y018434D01*
X032221D02*
X032250Y018445D01*
X032278*
X032306Y018434*
X032320Y018400*
Y018354*
X032250Y018570D02*
X032264D01*
X032292Y018581*
X032292D02*
X032306Y018593D01*
X032320Y018615*
X032320D02*
Y018661D01*
X032306Y018684*
X032292Y018695*
X032264Y018706*
X032264D02*
X032235D01*
X032235D02*
X032207Y018695D01*
X032207D02*
X032165Y018672D01*
X032165D02*
X032025Y018559D01*
Y018718*
X017750Y018195D02*
X017778Y018184D01*
X017806Y018161*
X017820Y018138*
X017820D02*
Y018093D01*
X017806Y018070*
X017778Y018047*
X017778D02*
X017750Y018036D01*
X017707Y018025*
X017707D02*
X017637D01*
X017637D02*
X017595Y018036D01*
X017567Y018047*
X017567D02*
X017539Y018070D01*
X017525Y018093*
Y018138*
X017525D02*
X017539Y018161D01*
X017567Y018184*
X017595Y018195*
X017778Y018434D02*
X017806Y018422D01*
X017806D02*
X017820Y018388D01*
X017820D02*
Y018365D01*
X017820D02*
X017806Y018331D01*
X017806D02*
X017764Y018309D01*
X017693Y018297*
X017693D02*
X017623D01*
X017623D02*
X017567Y018309D01*
X017539Y018331*
X017539D02*
X017525Y018365D01*
X017525D02*
Y018377D01*
X017539Y018411*
X017567Y018434*
X017609Y018445*
X017623*
X017665Y018434*
X017665D02*
X017693Y018411D01*
X017693D02*
X017707Y018377D01*
X017707D02*
Y018365D01*
X017707D02*
X017693Y018331D01*
X017693D02*
X017665Y018309D01*
X017665D02*
X017623Y018297D01*
X017820Y018604D02*
X017806Y018570D01*
X017778Y018559*
X017750*
X017721Y018570*
X017721D02*
X017707Y018593D01*
X017707D02*
X017693Y018638D01*
X017693D02*
X017679Y018672D01*
X017679D02*
X017651Y018695D01*
X017651D02*
X017623Y018706D01*
X017623D02*
X017581D01*
X017581D02*
X017553Y018695D01*
X017539Y018684*
X017525Y018650*
Y018604*
X017525D02*
X017539Y018570D01*
X017553Y018559*
X017581Y018547*
X017581D02*
X017623D01*
X017623D02*
X017651Y018559D01*
X017651D02*
X017679Y018581D01*
X017679D02*
X017693Y018615D01*
X017693D02*
X017707Y018661D01*
X017707D02*
X017721Y018684D01*
X017721D02*
X017750Y018695D01*
X017778*
X017806Y018684*
X017820Y018650*
Y018604*
X014004Y047650D02*
X014015Y047678D01*
X014015D02*
X014038Y047706D01*
X014038D02*
X014061Y047720D01*
X014106*
X014106D02*
X014129Y047706D01*
X014129D02*
X014152Y047678D01*
X014163Y047650*
X014163D02*
X014175Y047607D01*
X014175D02*
Y047537D01*
X014175D02*
X014163Y047495D01*
X014163D02*
X014152Y047467D01*
X014129Y047439*
X014129D02*
X014106Y047425D01*
X014106D02*
X014061D01*
X014038Y047439*
X014038D02*
X014015Y047467D01*
X014015D02*
X014004Y047495D01*
X013845Y047720D02*
X013879Y047706D01*
X013879D02*
X013890Y047678D01*
X013890D02*
Y047650D01*
X013890D02*
X013879Y047621D01*
X013879D02*
X013856Y047607D01*
X013856D02*
X013811Y047593D01*
X013811D02*
X013777Y047579D01*
X013777D02*
X013754Y047551D01*
X013754D02*
X013743Y047523D01*
Y047481*
X013754Y047453*
X013754D02*
X013765Y047439D01*
X013765D02*
X013800Y047425D01*
X013845*
X013879Y047439*
X013879D02*
X013890Y047453D01*
X013890D02*
X013902Y047481D01*
Y047523*
X013890Y047551*
X013890D02*
X013868Y047579D01*
X013868D02*
X013834Y047593D01*
X013834D02*
X013788Y047607D01*
X013788D02*
X013765Y047621D01*
X013765D02*
X013754Y047650D01*
X013754D02*
Y047678D01*
X013754D02*
X013765Y047706D01*
X013765D02*
X013800Y047720D01*
X013845*
X013527D02*
X013640Y047523D01*
X013640D02*
X013470D01*
X013527Y047720D02*
Y047425D01*
X016504Y043450D02*
X016515Y043478D01*
X016515D02*
X016538Y043506D01*
X016538D02*
X016561Y043520D01*
X016606*
X016606D02*
X016629Y043506D01*
X016629D02*
X016652Y043478D01*
X016663Y043450*
X016663D02*
X016675Y043407D01*
X016675D02*
Y043337D01*
X016675D02*
X016663Y043295D01*
X016663D02*
X016652Y043267D01*
X016629Y043239*
X016629D02*
X016606Y043225D01*
X016606D02*
X016561D01*
X016538Y043239*
X016538D02*
X016515Y043267D01*
X016515D02*
X016504Y043295D01*
X016254Y043421D02*
X016265Y043379D01*
X016265D02*
X016288Y043351D01*
X016288D02*
X016322Y043337D01*
X016322D02*
X016334D01*
X016334D02*
X016368Y043351D01*
X016368D02*
X016390Y043379D01*
X016390D02*
X016402Y043421D01*
X016402D02*
Y043435D01*
X016402D02*
X016390Y043478D01*
X016390D02*
X016368Y043506D01*
X016334Y043520*
X016322*
X016322D02*
X016288Y043506D01*
X016288D02*
X016265Y043478D01*
X016265D02*
X016254Y043421D01*
X016254D02*
Y043351D01*
X016254D02*
X016265Y043281D01*
X016265D02*
X016288Y043239D01*
X016288D02*
X016322Y043225D01*
X016322D02*
X016345D01*
X016379Y043239*
X016379D02*
X016390Y043267D01*
X019575Y034720D02*
Y034509D01*
X019563Y034467*
X019563D02*
X019540Y034439D01*
X019540D02*
X019506Y034425D01*
X019506D02*
X019484D01*
X019450Y034439*
X019427Y034467*
X019415Y034509*
X019415D02*
Y034720D01*
X019313Y034664D02*
X019290Y034678D01*
X019290D02*
X019256Y034720D01*
X019256D02*
Y034425D01*
X019131Y034720D02*
X019006D01*
X019006D02*
X019075Y034607D01*
X019075D02*
X019040D01*
X019040D02*
X019018Y034593D01*
X019018D02*
X019006Y034579D01*
X019006D02*
X018995Y034537D01*
X018995D02*
Y034509D01*
X019006Y034467*
X019006D02*
X019029Y034439D01*
X019029D02*
X019063Y034425D01*
X019063D02*
X019097D01*
X019097D02*
X019131Y034439D01*
X019131D02*
X019143Y034453D01*
X019154Y034481*
X019175Y026320D02*
Y026109D01*
X019163Y026067*
X019163D02*
X019140Y026039D01*
X019140D02*
X019106Y026025D01*
X019106D02*
X019084D01*
X019050Y026039*
X019027Y026067*
X019015Y026109*
X019015D02*
Y026320D01*
X018913Y026264D02*
X018890Y026278D01*
X018890D02*
X018856Y026320D01*
X018856D02*
Y026025D01*
X018640Y026320D02*
X018754Y026123D01*
X018754D02*
X018584D01*
X018640Y026320D02*
Y026025D01*
X051720Y017925D02*
X051509D01*
X051467Y017936*
X051439Y017959*
X051425Y017993*
Y018015*
X051425D02*
X051439Y018050D01*
X051467Y018072*
X051467D02*
X051509Y018084D01*
X051720*
X051650Y018197D02*
X051664D01*
X051664D02*
X051692Y018209D01*
X051706Y018220*
X051720Y018243*
Y018288*
X051720D02*
X051706Y018311D01*
X051692Y018322*
X051692D02*
X051664Y018334D01*
X051635*
X051635D02*
X051607Y018322D01*
X051607D02*
X051565Y018300D01*
X051565D02*
X051425Y018186D01*
Y018345*
X051650Y018459D02*
X051664D01*
X051692Y018470*
X051706Y018481*
X051706D02*
X051720Y018504D01*
X051720D02*
Y018550D01*
X051706Y018572*
X051706D02*
X051692Y018584D01*
X051664Y018595*
X051635*
X051635D02*
X051607Y018584D01*
X051607D02*
X051565Y018561D01*
X051565D02*
X051425Y018447D01*
X051425D02*
Y018606D01*
X051720Y022925D02*
X051509D01*
X051467Y022936*
X051439Y022959*
X051425Y022993*
Y023015*
X051425D02*
X051439Y023050D01*
X051467Y023072*
X051467D02*
X051509Y023084D01*
X051720*
X051650Y023197D02*
X051664D01*
X051664D02*
X051692Y023209D01*
X051706Y023220*
X051720Y023243*
Y023288*
X051720D02*
X051706Y023311D01*
X051692Y023322*
X051692D02*
X051664Y023334D01*
X051635*
X051635D02*
X051607Y023322D01*
X051607D02*
X051565Y023300D01*
X051565D02*
X051425Y023186D01*
Y023345*
X051720Y023470D02*
Y023595D01*
X051607Y023527*
X051607D02*
Y023561D01*
X051607D02*
X051593Y023584D01*
X051593D02*
X051579Y023595D01*
X051579D02*
X051537Y023606D01*
X051537D02*
X051509D01*
X051509D02*
X051467Y023595D01*
X051439Y023572*
X051439D02*
X051425Y023538D01*
X051425D02*
Y023504D01*
X051425D02*
X051439Y023470D01*
X051453Y023459*
X051481Y023447*
X051720Y027925D02*
X051509D01*
X051467Y027936*
X051439Y027959*
X051425Y027993*
Y028015*
X051425D02*
X051439Y028050D01*
X051467Y028072*
X051467D02*
X051509Y028084D01*
X051720*
X051650Y028197D02*
X051664D01*
X051664D02*
X051692Y028209D01*
X051706Y028220*
X051720Y028243*
Y028288*
X051720D02*
X051706Y028311D01*
X051692Y028322*
X051692D02*
X051664Y028334D01*
X051635*
X051635D02*
X051607Y028322D01*
X051607D02*
X051565Y028300D01*
X051565D02*
X051425Y028186D01*
Y028345*
X051720Y028561D02*
X051523Y028447D01*
X051523D02*
Y028618D01*
X051720Y028561D02*
X051425D01*
X038020Y024825D02*
X037725D01*
Y024961*
X037964Y025063D02*
X037978Y025086D01*
X038020Y025120*
X037725*
X033620Y019625D02*
X033325D01*
Y019761*
X033620Y020011D02*
Y019897D01*
X033620D02*
X033493Y019886D01*
X033493D02*
X033507Y019897D01*
X033507D02*
X033521Y019931D01*
X033521D02*
Y019965D01*
X033521D02*
X033507Y020000D01*
X033507D02*
X033479Y020022D01*
X033479D02*
X033437Y020034D01*
X033437D02*
X033409Y020022D01*
X033409D02*
X033367Y020011D01*
X033339Y019988*
X033339D02*
X033325Y019954D01*
X033325D02*
Y019920D01*
X033339Y019886*
X033353Y019875*
X033381Y019863*
X031820Y019625D02*
X031525D01*
Y019761*
X031778Y020000D02*
X031806Y019988D01*
X031806D02*
X031820Y019954D01*
X031820D02*
Y019931D01*
X031820D02*
X031806Y019897D01*
X031806D02*
X031764Y019875D01*
X031693Y019863*
X031693D02*
X031623D01*
X031623D02*
X031567Y019875D01*
X031539Y019897*
X031539D02*
X031525Y019931D01*
X031525D02*
Y019943D01*
X031539Y019977*
X031567Y020000*
X031609Y020011*
X031623*
X031665Y020000*
X031665D02*
X031693Y019977D01*
X031693D02*
X031707Y019943D01*
X031707D02*
Y019931D01*
X031707D02*
X031693Y019897D01*
X031693D02*
X031665Y019875D01*
X031665D02*
X031623Y019863D01*
X024720Y019825D02*
X024425D01*
Y019961*
X024720Y020222D02*
X024425Y020109D01*
X024720Y020063D02*
Y020222D01*
X026520Y019825D02*
X026225D01*
Y019961*
X026520Y020120D02*
X026506Y020086D01*
X026478Y020075*
X026450*
X026421Y020086*
X026421D02*
X026407Y020109D01*
X026407D02*
X026393Y020154D01*
X026393D02*
X026379Y020188D01*
X026379D02*
X026351Y020211D01*
X026351D02*
X026323Y020222D01*
X026323D02*
X026281D01*
X026281D02*
X026253Y020211D01*
X026239Y020200*
X026225Y020165*
X026225D02*
Y020120D01*
X026239Y020086*
X026253Y020075*
X026281Y020063*
X026281D02*
X026323D01*
X026323D02*
X026351Y020075D01*
X026351D02*
X026379Y020097D01*
X026379D02*
X026393Y020131D01*
X026393D02*
X026407Y020177D01*
X026407D02*
X026421Y020200D01*
X026421D02*
X026450Y020211D01*
X026478*
X026506Y020200*
X026520Y020165*
X026520D02*
Y020120D01*
X037620Y020325D02*
X037409D01*
X037367Y020336*
X037339Y020359*
X037325Y020393*
Y020415*
X037325D02*
X037339Y020450D01*
X037367Y020472*
X037367D02*
X037409Y020484D01*
X037620*
X037550Y020597D02*
X037564D01*
X037564D02*
X037592Y020609D01*
X037606Y020620*
X037620Y020643*
Y020688*
X037620D02*
X037606Y020711D01*
X037592Y020722*
X037592D02*
X037564Y020734D01*
X037535*
X037535D02*
X037507Y020722D01*
X037507D02*
X037465Y020700D01*
X037465D02*
X037325Y020586D01*
Y020745*
X037521Y020995D02*
X037479Y020984D01*
X037479D02*
X037451Y020961D01*
X037451D02*
X037437Y020927D01*
X037437D02*
Y020915D01*
X037437D02*
X037451Y020881D01*
X037451D02*
X037479Y020859D01*
X037479D02*
X037521Y020847D01*
X037521D02*
X037535D01*
X037535D02*
X037578Y020859D01*
X037606Y020881*
X037606D02*
X037620Y020915D01*
X037620D02*
Y020927D01*
X037606Y020961*
X037578Y020984*
X037521Y020995*
X037521D02*
X037451D01*
X037451D02*
X037381Y020984D01*
X037339Y020961*
X037325Y020927*
Y020904*
X037325D02*
X037339Y020870D01*
X037367Y020859*
X016875Y046819D02*
Y046608D01*
X016875D02*
X016863Y046566D01*
X016863D02*
X016840Y046538D01*
X016840D02*
X016806Y046524D01*
X016806D02*
X016784D01*
X016750Y046538*
X016727Y046566*
X016715Y046608*
X016715D02*
Y046819D01*
X016602Y046749D02*
Y046763D01*
X016590Y046791*
X016590D02*
X016579Y046805D01*
X016579D02*
X016556Y046819D01*
X016556D02*
X016511D01*
X016511D02*
X016488Y046805D01*
X016488D02*
X016477Y046791D01*
X016465Y046763*
X016465D02*
Y046735D01*
X016465D02*
X016477Y046707D01*
X016500Y046664*
X016500D02*
X016613Y046524D01*
X016613D02*
X016454D01*
X038406Y027420D02*
X038429Y027406D01*
X038429D02*
X038452Y027378D01*
X038463Y027350*
X038463D02*
X038474Y027307D01*
X038474D02*
Y027237D01*
X038474D02*
X038463Y027195D01*
X038463D02*
X038452Y027167D01*
X038429Y027139*
X038429D02*
X038406Y027125D01*
X038406D02*
X038361D01*
X038338Y027139*
X038338D02*
X038315Y027167D01*
X038315D02*
X038304Y027195D01*
X038304D02*
X038293Y027237D01*
X038293D02*
Y027307D01*
X038293D02*
X038304Y027350D01*
X038304D02*
X038315Y027378D01*
X038315D02*
X038338Y027406D01*
X038338D02*
X038361Y027420D01*
X038406*
X038372Y027181D02*
X038304Y027096D01*
X038190Y027364D02*
X038168Y027378D01*
X038134Y027420*
Y027125*
X038009Y027420D02*
X037884D01*
X037952Y027307*
X037952D02*
X037918D01*
X037918D02*
X037895Y027293D01*
X037895D02*
X037884Y027279D01*
X037884D02*
X037872Y027237D01*
X037872D02*
Y027209D01*
X037872D02*
X037884Y027167D01*
X037906Y027139*
X037906D02*
X037940Y027125D01*
X037940D02*
X037974D01*
X037974D02*
X038009Y027139D01*
X038020Y027153*
X038031Y027181*
X035506Y024920D02*
X035529Y024906D01*
X035529D02*
X035552Y024878D01*
X035563Y024850*
X035563D02*
X035575Y024807D01*
X035575D02*
Y024737D01*
X035575D02*
X035563Y024695D01*
X035563D02*
X035552Y024667D01*
X035529Y024639*
X035529D02*
X035506Y024625D01*
X035506D02*
X035461D01*
X035438Y024639*
X035438D02*
X035415Y024667D01*
X035415D02*
X035404Y024695D01*
X035404D02*
X035393Y024737D01*
X035393D02*
Y024807D01*
X035393D02*
X035404Y024850D01*
X035404D02*
X035415Y024878D01*
X035415D02*
X035438Y024906D01*
X035438D02*
X035461Y024920D01*
X035506*
X035472Y024681D02*
X035404Y024596D01*
X035290Y024864D02*
X035268Y024878D01*
X035234Y024920*
Y024625*
X034984Y024920D02*
X035097D01*
X035097D02*
X035109Y024793D01*
X035109D02*
X035097Y024807D01*
X035097D02*
X035063Y024821D01*
X035063D02*
X035029D01*
X035029D02*
X034995Y024807D01*
X034995D02*
X034972Y024779D01*
X034972D02*
X034961Y024737D01*
X034961D02*
X034972Y024709D01*
X034972D02*
X034984Y024667D01*
X035006Y024639*
X035006D02*
X035040Y024625D01*
X035040D02*
X035075D01*
X035109Y024639*
X035120Y024653*
X035131Y024681*
X057920Y047025D02*
X057625D01*
X057920D02*
Y047127D01*
X057906Y047161*
X057892Y047172*
X057892D02*
X057864Y047184D01*
X057835*
X057835D02*
X057807Y047172D01*
X057807D02*
X057793Y047161D01*
X057793D02*
X057779Y047127D01*
X057779D02*
Y047025D01*
Y047104D02*
X057625Y047184D01*
X057864Y047286D02*
X057878Y047309D01*
X057920Y047343*
X057625*
X056420Y047025D02*
X056125D01*
X056420D02*
Y047127D01*
X056406Y047161*
X056392Y047172*
X056392D02*
X056364Y047184D01*
X056335*
X056335D02*
X056307Y047172D01*
X056307D02*
X056293Y047161D01*
X056293D02*
X056279Y047127D01*
X056279D02*
Y047025D01*
Y047104D02*
X056125Y047184D01*
X056350Y047297D02*
X056364D01*
X056364D02*
X056392Y047309D01*
X056406Y047320*
X056420Y047343*
Y047388*
X056420D02*
X056406Y047411D01*
X056392Y047422*
X056392D02*
X056364Y047434D01*
X056335*
X056335D02*
X056307Y047422D01*
X056307D02*
X056265Y047400D01*
X056265D02*
X056125Y047286D01*
Y047445*
X030020Y019625D02*
X029725D01*
X030020D02*
Y019727D01*
X030006Y019761*
X029992Y019772*
X029992D02*
X029964Y019784D01*
X029935*
X029935D02*
X029907Y019772D01*
X029907D02*
X029893Y019761D01*
X029893D02*
X029879Y019727D01*
X029879D02*
Y019625D01*
Y019704D02*
X029725Y019784D01*
X030020Y019909D02*
Y020034D01*
X029907Y019965*
X029907D02*
Y020000D01*
X029907D02*
X029893Y020022D01*
X029893D02*
X029879Y020034D01*
X029879D02*
X029837Y020045D01*
X029837D02*
X029809D01*
X029767Y020034*
X029739Y020011*
X029725Y019977*
Y019943*
X029739Y019909*
X029753Y019897*
X029753D02*
X029781Y019886D01*
X029978Y020284D02*
X030006Y020272D01*
X030006D02*
X030020Y020238D01*
X030020D02*
Y020215D01*
X030020D02*
X030006Y020181D01*
X030006D02*
X029964Y020159D01*
X029893Y020147*
X029893D02*
X029823D01*
X029823D02*
X029767Y020159D01*
X029739Y020181*
X029739D02*
X029725Y020215D01*
X029725D02*
Y020227D01*
X029739Y020261*
X029767Y020284*
X029809Y020295*
X029823*
X029865Y020284*
X029865D02*
X029893Y020261D01*
X029893D02*
X029907Y020227D01*
X029907D02*
Y020215D01*
X029907D02*
X029893Y020181D01*
X029893D02*
X029865Y020159D01*
X029865D02*
X029823Y020147D01*
X029420Y023625D02*
X029125D01*
X029420D02*
Y023727D01*
X029406Y023761*
X029392Y023772*
X029392D02*
X029364Y023784D01*
X029335*
X029335D02*
X029307Y023772D01*
X029307D02*
X029293Y023761D01*
X029293D02*
X029279Y023727D01*
X029279D02*
Y023625D01*
Y023704D02*
X029125Y023784D01*
X029420Y023909D02*
Y024034D01*
X029307Y023965*
X029307D02*
Y024000D01*
X029307D02*
X029293Y024022D01*
X029293D02*
X029279Y024034D01*
X029279D02*
X029237Y024045D01*
X029237D02*
X029209D01*
X029167Y024034*
X029139Y024011*
X029125Y023977*
Y023943*
X029139Y023909*
X029153Y023897*
X029153D02*
X029181Y023886D01*
X029420Y024306D02*
X029125Y024193D01*
X029420Y024147D02*
Y024306D01*
X028820Y023625D02*
X028525D01*
X028820D02*
Y023727D01*
X028806Y023761*
X028792Y023772*
X028792D02*
X028764Y023784D01*
X028735*
X028735D02*
X028707Y023772D01*
X028707D02*
X028693Y023761D01*
X028693D02*
X028679Y023727D01*
X028679D02*
Y023625D01*
Y023704D02*
X028525Y023784D01*
X028820Y023909D02*
Y024034D01*
X028707Y023965*
X028707D02*
Y024000D01*
X028707D02*
X028693Y024022D01*
X028693D02*
X028679Y024034D01*
X028679D02*
X028637Y024045D01*
X028637D02*
X028609D01*
X028567Y024034*
X028539Y024011*
X028525Y023977*
Y023943*
X028539Y023909*
X028553Y023897*
X028553D02*
X028581Y023886D01*
X028820Y024204D02*
X028806Y024170D01*
X028778Y024159*
X028750*
X028721Y024170*
X028721D02*
X028707Y024193D01*
X028707D02*
X028693Y024238D01*
X028693D02*
X028679Y024272D01*
X028679D02*
X028651Y024295D01*
X028651D02*
X028623Y024306D01*
X028623D02*
X028581D01*
X028581D02*
X028553Y024295D01*
X028539Y024284*
X028525Y024250*
Y024204*
X028525D02*
X028539Y024170D01*
X028553Y024159*
X028581Y024147*
X028581D02*
X028623D01*
X028623D02*
X028651Y024159D01*
X028651D02*
X028679Y024181D01*
X028679D02*
X028693Y024215D01*
X028693D02*
X028707Y024261D01*
X028707D02*
X028721Y024284D01*
X028721D02*
X028750Y024295D01*
X028778*
X028806Y024284*
X028820Y024250*
Y024204*
X028220Y023625D02*
X027925D01*
X028220D02*
Y023727D01*
X028206Y023761*
X028192Y023772*
X028192D02*
X028164Y023784D01*
X028135*
X028135D02*
X028107Y023772D01*
X028107D02*
X028093Y023761D01*
X028093D02*
X028079Y023727D01*
X028079D02*
Y023625D01*
Y023704D02*
X027925Y023784D01*
X028220Y023909D02*
Y024034D01*
X028107Y023965*
X028107D02*
Y024000D01*
X028107D02*
X028093Y024022D01*
X028093D02*
X028079Y024034D01*
X028079D02*
X028037Y024045D01*
X028037D02*
X028009D01*
X027967Y024034*
X027939Y024011*
X027925Y023977*
Y023943*
X027939Y023909*
X027953Y023897*
X027953D02*
X027981Y023886D01*
X028121Y024295D02*
X028079Y024284D01*
X028079D02*
X028051Y024261D01*
X028051D02*
X028037Y024227D01*
X028037D02*
Y024215D01*
X028037D02*
X028051Y024181D01*
X028051D02*
X028079Y024159D01*
X028079D02*
X028121Y024147D01*
X028121D02*
X028135D01*
X028135D02*
X028178Y024159D01*
X028206Y024181*
X028206D02*
X028220Y024215D01*
X028220D02*
Y024227D01*
X028206Y024261*
X028178Y024284*
X028121Y024295*
X028121D02*
X028051D01*
X028051D02*
X027981Y024284D01*
X027939Y024261*
X027925Y024227*
Y024204*
X027925D02*
X027939Y024170D01*
X027967Y024159*
X034275Y026720D02*
Y026425D01*
Y026720D02*
X034172D01*
X034172D02*
X034138Y026706D01*
X034138D02*
X034127Y026692D01*
X034115Y026664*
X034115D02*
Y026635D01*
X034115D02*
X034127Y026607D01*
X034127D02*
X034138Y026593D01*
X034138D02*
X034172Y026579D01*
X034172D02*
X034275D01*
X034195D02*
X034115Y026425D01*
X033900Y026720D02*
X034013Y026523D01*
X034013D02*
X033843D01*
X033900Y026720D02*
Y026425D01*
X021820Y023625D02*
X021525D01*
X021820D02*
Y023727D01*
X021806Y023761*
X021792Y023772*
X021792D02*
X021764Y023784D01*
X021735*
X021735D02*
X021707Y023772D01*
X021707D02*
X021693Y023761D01*
X021693D02*
X021679Y023727D01*
X021679D02*
Y023625D01*
Y023704D02*
X021525Y023784D01*
X021820Y024000D02*
X021623Y023886D01*
Y024056*
X021820Y024000D02*
X021525D01*
X021750Y024170D02*
X021764D01*
X021792Y024181*
X021792D02*
X021806Y024193D01*
X021820Y024215*
X021820D02*
Y024261D01*
X021806Y024284*
X021792Y024295*
X021764Y024306*
X021764D02*
X021735D01*
X021735D02*
X021707Y024295D01*
X021707D02*
X021665Y024272D01*
X021665D02*
X021525Y024159D01*
Y024318*
X021275Y024020D02*
Y023725D01*
Y024020D02*
X021172D01*
X021172D02*
X021138Y024006D01*
X021138D02*
X021127Y023992D01*
X021115Y023964*
X021115D02*
Y023935D01*
X021115D02*
X021127Y023907D01*
X021127D02*
X021138Y023893D01*
X021138D02*
X021172Y023879D01*
X021172D02*
X021275D01*
X021195D02*
X021115Y023725D01*
X020900Y024020D02*
X021013Y023823D01*
X021013D02*
X020843D01*
X020900Y024020D02*
Y023725D01*
X020718Y024020D02*
X020593D01*
X020661Y023907*
X020661D02*
X020627D01*
X020627D02*
X020604Y023893D01*
X020604D02*
X020593Y023879D01*
X020593D02*
X020581Y023837D01*
X020581D02*
Y023809D01*
X020581D02*
X020593Y023767D01*
X020615Y023739*
X020615D02*
X020650Y023725D01*
X020684*
X020718Y023739*
X020729Y023753*
X020729D02*
X020740Y023781D01*
X022675Y023920D02*
Y023624D01*
Y023920D02*
X022572D01*
X022572D02*
X022538Y023906D01*
X022538D02*
X022527Y023892D01*
X022515Y023864*
X022515D02*
Y023835D01*
X022515D02*
X022527Y023807D01*
X022527D02*
X022538Y023793D01*
X022538D02*
X022572Y023779D01*
X022572D02*
X022675D01*
X022595D02*
X022515Y023624D01*
X022300Y023920D02*
X022413Y023723D01*
X022413D02*
X022243D01*
X022300Y023920D02*
Y023624D01*
X022027Y023920D02*
X022140Y023723D01*
X022140D02*
X021970D01*
X022027Y023920D02*
Y023624D01*
X033720Y025125D02*
X033425D01*
X033720D02*
Y025227D01*
X033706Y025261*
X033692Y025272*
X033692D02*
X033664Y025284D01*
X033635*
X033635D02*
X033607Y025272D01*
X033607D02*
X033593Y025261D01*
X033593D02*
X033579Y025227D01*
X033579D02*
Y025125D01*
Y025204D02*
X033425Y025284D01*
X033720Y025500D02*
X033523Y025386D01*
Y025556*
X033720Y025500D02*
X033425D01*
X033678Y025795D02*
X033706Y025784D01*
X033720Y025750*
Y025727*
X033706Y025693*
X033664Y025670*
X033593Y025659*
X033593D02*
X033523D01*
X033467Y025670*
X033439Y025693*
X033425Y025727*
Y025738*
X033425D02*
X033439Y025772D01*
X033439D02*
X033467Y025795D01*
X033509Y025806*
X033509D02*
X033523D01*
X033523D02*
X033565Y025795D01*
X033565D02*
X033593Y025772D01*
X033593D02*
X033607Y025738D01*
X033607D02*
Y025727D01*
X033607D02*
X033593Y025693D01*
X033593D02*
X033565Y025670D01*
X033565D02*
X033523Y025659D01*
X022920Y019625D02*
X022625D01*
X022920D02*
Y019727D01*
X022906Y019761*
X022892Y019772*
X022892D02*
X022864Y019784D01*
X022835*
X022835D02*
X022807Y019772D01*
X022807D02*
X022793Y019761D01*
X022793D02*
X022779Y019727D01*
X022779D02*
Y019625D01*
Y019704D02*
X022625Y019784D01*
X022920Y020000D02*
X022723Y019886D01*
Y020056*
X022920Y020000D02*
X022625D01*
X022920Y020318D02*
X022625Y020204D01*
X022920Y020159D02*
Y020318D01*
X027120Y019625D02*
X026825D01*
X027120D02*
Y019727D01*
X027106Y019761*
X027092Y019772*
X027092D02*
X027064Y019784D01*
X027035*
X027035D02*
X027007Y019772D01*
X027007D02*
X026993Y019761D01*
X026993D02*
X026979Y019727D01*
X026979D02*
Y019625D01*
Y019704D02*
X026825Y019784D01*
X027120Y020000D02*
X026923Y019886D01*
Y020056*
X027120Y020000D02*
X026825D01*
X027120Y020215D02*
X027106Y020181D01*
X027106D02*
X027078Y020170D01*
X027050*
X027021Y020181*
X027021D02*
X027007Y020204D01*
X027007D02*
X026993Y020250D01*
X026993D02*
X026979Y020284D01*
X026979D02*
X026951Y020306D01*
X026951D02*
X026923Y020318D01*
X026881*
X026853Y020306*
X026853D02*
X026839Y020295D01*
X026825Y020261*
Y020215*
X026825D02*
X026839Y020181D01*
X026839D02*
X026853Y020170D01*
X026881Y020159*
X026923*
X026951Y020170*
X026951D02*
X026979Y020193D01*
X026979D02*
X026993Y020227D01*
X026993D02*
X027007Y020272D01*
X027007D02*
X027021Y020295D01*
X027021D02*
X027050Y020306D01*
X027050D02*
X027078D01*
X027078D02*
X027106Y020295D01*
X027120Y020261*
Y020215*
X031820Y023625D02*
X031525D01*
X031820D02*
Y023727D01*
X031806Y023761*
X031792Y023772*
X031792D02*
X031764Y023784D01*
X031735*
X031735D02*
X031707Y023772D01*
X031707D02*
X031693Y023761D01*
X031693D02*
X031679Y023727D01*
X031679D02*
Y023625D01*
Y023704D02*
X031525Y023784D01*
X031820Y024000D02*
X031623Y023886D01*
Y024056*
X031820Y024000D02*
X031525D01*
X031721Y024306D02*
X031679Y024295D01*
X031679D02*
X031651Y024272D01*
X031651D02*
X031637Y024238D01*
X031637D02*
Y024227D01*
X031637D02*
X031651Y024193D01*
X031651D02*
X031679Y024170D01*
X031679D02*
X031721Y024159D01*
X031721D02*
X031735D01*
X031735D02*
X031778Y024170D01*
X031806Y024193*
X031820Y024227*
Y024238*
X031820D02*
X031806Y024272D01*
X031806D02*
X031778Y024295D01*
X031721Y024306*
X031721D02*
X031651D01*
X031651D02*
X031581Y024295D01*
X031539Y024272*
X031539D02*
X031525Y024238D01*
X031525D02*
Y024215D01*
X031525D02*
X031539Y024181D01*
X031539D02*
X031567Y024170D01*
X034075Y030520D02*
Y030225D01*
Y030520D02*
X033972D01*
X033972D02*
X033938Y030506D01*
X033938D02*
X033927Y030492D01*
X033915Y030464*
X033915D02*
Y030435D01*
X033915D02*
X033927Y030407D01*
X033927D02*
X033938Y030393D01*
X033938D02*
X033972Y030379D01*
X033972D02*
X034075D01*
X033995D02*
X033915Y030225D01*
X033665Y030520D02*
X033779D01*
X033779D02*
X033790Y030393D01*
X033790D02*
X033779Y030407D01*
X033779D02*
X033745Y030421D01*
X033745D02*
X033711D01*
X033711D02*
X033677Y030407D01*
X033677D02*
X033654Y030379D01*
X033654D02*
X033643Y030337D01*
X033643D02*
X033654Y030309D01*
X033654D02*
X033665Y030267D01*
X033665D02*
X033688Y030239D01*
X033688D02*
X033722Y030225D01*
X033722D02*
X033756D01*
X033756D02*
X033790Y030239D01*
X033790D02*
X033802Y030253D01*
X033813Y030281*
X032420Y023625D02*
X032125D01*
X032420D02*
Y023727D01*
X032406Y023761*
X032392Y023772*
X032392D02*
X032364Y023784D01*
X032335*
X032335D02*
X032307Y023772D01*
X032307D02*
X032293Y023761D01*
X032293D02*
X032279Y023727D01*
X032279D02*
Y023625D01*
Y023704D02*
X032125Y023784D01*
X032420Y024034D02*
Y023920D01*
X032293Y023909*
X032293D02*
X032307Y023920D01*
X032307D02*
X032321Y023954D01*
X032321D02*
Y023988D01*
X032321D02*
X032307Y024022D01*
X032307D02*
X032279Y024045D01*
X032279D02*
X032237Y024056D01*
X032237D02*
X032209Y024045D01*
X032167Y024034*
X032139Y024011*
X032125Y023977*
Y023943*
X032139Y023909*
X032153Y023897*
X032153D02*
X032181Y023886D01*
X032420Y024227D02*
X032406Y024193D01*
X032364Y024170*
X032293Y024159*
X032293D02*
X032251D01*
X032251D02*
X032181Y024170D01*
X032139Y024193*
X032125Y024227*
Y024250*
X032139Y024284*
X032181Y024306*
X032181D02*
X032251Y024318D01*
X032251D02*
X032293D01*
X032293D02*
X032364Y024306D01*
X032364D02*
X032406Y024284D01*
X032420Y024250*
Y024227*
X033020Y023625D02*
X032725D01*
X033020D02*
Y023727D01*
X033006Y023761*
X032992Y023772*
X032992D02*
X032964Y023784D01*
X032935*
X032935D02*
X032907Y023772D01*
X032907D02*
X032893Y023761D01*
X032893D02*
X032879Y023727D01*
X032879D02*
Y023625D01*
Y023704D02*
X032725Y023784D01*
X033020Y024034D02*
Y023920D01*
X032893Y023909*
X032893D02*
X032907Y023920D01*
X032907D02*
X032921Y023954D01*
X032921D02*
Y023988D01*
X032921D02*
X032907Y024022D01*
X032907D02*
X032879Y024045D01*
X032879D02*
X032837Y024056D01*
X032837D02*
X032809Y024045D01*
X032767Y024034*
X032739Y024011*
X032725Y023977*
Y023943*
X032739Y023909*
X032753Y023897*
X032753D02*
X032781Y023886D01*
X032964Y024159D02*
X032978Y024181D01*
X032978D02*
X033020Y024215D01*
X033020D02*
X032725D01*
X033620Y023625D02*
X033325D01*
X033620D02*
Y023727D01*
X033606Y023761*
X033592Y023772*
X033592D02*
X033564Y023784D01*
X033535*
X033535D02*
X033507Y023772D01*
X033507D02*
X033493Y023761D01*
X033493D02*
X033479Y023727D01*
X033479D02*
Y023625D01*
Y023704D02*
X033325Y023784D01*
X033620Y024034D02*
Y023920D01*
X033493Y023909*
X033493D02*
X033507Y023920D01*
X033507D02*
X033521Y023954D01*
X033521D02*
Y023988D01*
X033521D02*
X033507Y024022D01*
X033507D02*
X033479Y024045D01*
X033479D02*
X033437Y024056D01*
X033437D02*
X033409Y024045D01*
X033367Y024034*
X033339Y024011*
X033325Y023977*
Y023943*
X033339Y023909*
X033353Y023897*
X033353D02*
X033381Y023886D01*
X033550Y024170D02*
X033564D01*
X033592Y024181*
X033592D02*
X033606Y024193D01*
X033620Y024215*
X033620D02*
Y024261D01*
X033606Y024284*
X033592Y024295*
X033564Y024306*
X033564D02*
X033535D01*
X033535D02*
X033507Y024295D01*
X033507D02*
X033465Y024272D01*
X033465D02*
X033325Y024159D01*
Y024318*
X026520Y025225D02*
X026225D01*
X026520D02*
Y025327D01*
X026506Y025361*
X026492Y025372*
X026492D02*
X026464Y025384D01*
X026435*
X026435D02*
X026407Y025372D01*
X026407D02*
X026393Y025361D01*
X026393D02*
X026379Y025327D01*
X026379D02*
Y025225D01*
Y025304D02*
X026225Y025384D01*
X026520Y025634D02*
Y025520D01*
X026393Y025509*
X026393D02*
X026407Y025520D01*
X026407D02*
X026421Y025554D01*
X026421D02*
Y025588D01*
X026421D02*
X026407Y025622D01*
X026407D02*
X026379Y025645D01*
X026379D02*
X026337Y025656D01*
X026337D02*
X026309Y025645D01*
X026267Y025634*
X026239Y025611*
X026225Y025577*
Y025543*
X026239Y025509*
X026253Y025497*
X026253D02*
X026281Y025486D01*
X026520Y025781D02*
Y025906D01*
X026520D02*
X026407Y025838D01*
X026407D02*
Y025872D01*
X026407D02*
X026393Y025895D01*
X026393D02*
X026379Y025906D01*
X026379D02*
X026337Y025918D01*
X026337D02*
X026309D01*
X026267Y025906*
X026267D02*
X026239Y025884D01*
X026225Y025850*
Y025815*
X026225D02*
X026239Y025781D01*
X026239D02*
X026253Y025770D01*
X026281Y025759*
X028320Y025424D02*
X028025D01*
X028320D02*
Y025527D01*
X028306Y025561*
X028292Y025572*
X028292D02*
X028264Y025584D01*
X028235*
X028235D02*
X028207Y025572D01*
X028207D02*
X028193Y025561D01*
X028193D02*
X028179Y025527D01*
X028179D02*
Y025424D01*
Y025504D02*
X028025Y025584D01*
X028320Y025834D02*
Y025720D01*
X028193Y025709*
X028193D02*
X028207Y025720D01*
X028207D02*
X028221Y025754D01*
X028221D02*
Y025788D01*
X028221D02*
X028207Y025822D01*
X028207D02*
X028179Y025845D01*
X028179D02*
X028137Y025856D01*
X028137D02*
X028109Y025845D01*
X028067Y025834*
X028039Y025811*
X028025Y025777*
Y025743*
X028039Y025709*
X028053Y025697*
X028053D02*
X028081Y025686D01*
X028320Y026072D02*
X028123Y025959D01*
Y026129*
X028320Y026072D02*
X028025D01*
X029520Y025425D02*
X029225D01*
X029520D02*
Y025527D01*
X029506Y025561*
X029492Y025572*
X029492D02*
X029464Y025584D01*
X029435*
X029435D02*
X029407Y025572D01*
X029407D02*
X029393Y025561D01*
X029393D02*
X029379Y025527D01*
X029379D02*
Y025425D01*
Y025504D02*
X029225Y025584D01*
X029520Y025834D02*
Y025720D01*
X029393Y025709*
X029393D02*
X029407Y025720D01*
X029407D02*
X029421Y025754D01*
X029421D02*
Y025788D01*
X029421D02*
X029407Y025822D01*
X029407D02*
X029379Y025845D01*
X029379D02*
X029337Y025856D01*
X029337D02*
X029309Y025845D01*
X029267Y025834*
X029239Y025811*
X029225Y025777*
Y025743*
X029239Y025709*
X029253Y025697*
X029253D02*
X029281Y025686D01*
X029520Y026106D02*
Y025993D01*
X029393Y025981*
X029393D02*
X029407Y025993D01*
X029407D02*
X029421Y026027D01*
X029421D02*
Y026061D01*
X029421D02*
X029407Y026095D01*
X029407D02*
X029379Y026118D01*
X029379D02*
X029337Y026129D01*
X029337D02*
X029309Y026118D01*
X029267Y026106*
X029267D02*
X029239Y026084D01*
X029225Y026050*
Y026015*
X029225D02*
X029239Y025981D01*
X029239D02*
X029253Y025970D01*
X029281Y025959*
X031320Y025424D02*
X031025D01*
X031320D02*
Y025527D01*
X031306Y025561*
X031292Y025572*
X031292D02*
X031264Y025584D01*
X031235*
X031235D02*
X031207Y025572D01*
X031207D02*
X031193Y025561D01*
X031193D02*
X031179Y025527D01*
X031179D02*
Y025424D01*
Y025504D02*
X031025Y025584D01*
X031320Y025834D02*
Y025720D01*
X031193Y025709*
X031193D02*
X031207Y025720D01*
X031207D02*
X031221Y025754D01*
X031221D02*
Y025788D01*
X031221D02*
X031207Y025822D01*
X031207D02*
X031179Y025845D01*
X031179D02*
X031137Y025856D01*
X031137D02*
X031109Y025845D01*
X031067Y025834*
X031039Y025811*
X031025Y025777*
Y025743*
X031039Y025709*
X031053Y025697*
X031053D02*
X031081Y025686D01*
X031278Y026095D02*
X031306Y026084D01*
X031320Y026049*
X031320D02*
Y026027D01*
X031306Y025993*
X031264Y025970*
X031193Y025959*
X031193D02*
X031123D01*
X031067Y025970*
X031039Y025993*
X031025Y026027*
Y026038*
X031025D02*
X031039Y026072D01*
X031039D02*
X031067Y026095D01*
X031109Y026106*
X031109D02*
X031123D01*
X031123D02*
X031165Y026095D01*
X031165D02*
X031193Y026072D01*
X031193D02*
X031207Y026038D01*
X031207D02*
Y026027D01*
X031207D02*
X031193Y025993D01*
X031193D02*
X031165Y025970D01*
X031165D02*
X031123Y025959D01*
X020020Y019625D02*
X019725D01*
X020020D02*
Y019727D01*
X020006Y019761*
X019992Y019772*
X019992D02*
X019964Y019784D01*
X019935*
X019935D02*
X019907Y019772D01*
X019907D02*
X019893Y019761D01*
X019893D02*
X019879Y019727D01*
X019879D02*
Y019625D01*
Y019704D02*
X019725Y019784D01*
X020020Y020034D02*
Y019920D01*
X019893Y019909*
X019893D02*
X019907Y019920D01*
X019907D02*
X019921Y019954D01*
X019921D02*
Y019988D01*
X019921D02*
X019907Y020022D01*
X019907D02*
X019879Y020045D01*
X019879D02*
X019837Y020056D01*
X019837D02*
X019809Y020045D01*
X019767Y020034*
X019739Y020011*
X019725Y019977*
Y019943*
X019739Y019909*
X019753Y019897*
X019753D02*
X019781Y019886D01*
X020020Y020318D02*
X019725Y020204D01*
X020020Y020159D02*
Y020318D01*
X024875Y023920D02*
Y023625D01*
Y023920D02*
X024772D01*
X024772D02*
X024738Y023906D01*
X024738D02*
X024727Y023892D01*
X024715Y023864*
X024715D02*
Y023835D01*
X024715D02*
X024727Y023807D01*
X024727D02*
X024738Y023793D01*
X024738D02*
X024772Y023779D01*
X024772D02*
X024875D01*
X024795D02*
X024715Y023625D01*
X024465Y023920D02*
X024579D01*
X024579D02*
X024590Y023793D01*
X024590D02*
X024579Y023807D01*
X024579D02*
X024545Y023821D01*
X024545D02*
X024511D01*
X024511D02*
X024477Y023807D01*
X024477D02*
X024454Y023779D01*
X024454D02*
X024443Y023737D01*
X024443D02*
X024454Y023709D01*
X024454D02*
X024465Y023667D01*
X024465D02*
X024488Y023639D01*
X024488D02*
X024522Y023625D01*
X024522D02*
X024556D01*
X024556D02*
X024590Y023639D01*
X024590D02*
X024602Y023653D01*
X024613Y023681*
X024284Y023920D02*
X024318Y023906D01*
X024329Y023878*
X024329D02*
Y023850D01*
X024329D02*
X024318Y023821D01*
X024318D02*
X024295Y023807D01*
X024295D02*
X024250Y023793D01*
X024250D02*
X024215Y023779D01*
X024215D02*
X024193Y023751D01*
X024193D02*
X024181Y023723D01*
X024181D02*
Y023681D01*
X024181D02*
X024193Y023653D01*
X024204Y023639*
X024204D02*
X024238Y023625D01*
X024238D02*
X024284D01*
X024318Y023639*
X024329Y023653*
X024329D02*
X024340Y023681D01*
X024340D02*
Y023723D01*
X024340D02*
X024329Y023751D01*
X024329D02*
X024306Y023779D01*
X024306D02*
X024272Y023793D01*
X024272D02*
X024227Y023807D01*
X024227D02*
X024204Y023821D01*
X024204D02*
X024193Y023850D01*
Y023878*
X024204Y023906*
X024204D02*
X024238Y023920D01*
X024238D02*
X024284D01*
X025320Y023625D02*
X025025D01*
X025320D02*
Y023727D01*
X025306Y023761*
X025292Y023772*
X025292D02*
X025264Y023784D01*
X025235*
X025235D02*
X025207Y023772D01*
X025207D02*
X025193Y023761D01*
X025193D02*
X025179Y023727D01*
X025179D02*
Y023625D01*
Y023704D02*
X025025Y023784D01*
X025320Y024034D02*
Y023920D01*
X025193Y023909*
X025193D02*
X025207Y023920D01*
X025207D02*
X025221Y023954D01*
X025221D02*
Y023988D01*
X025221D02*
X025207Y024022D01*
X025207D02*
X025179Y024045D01*
X025179D02*
X025137Y024056D01*
X025137D02*
X025109Y024045D01*
X025067Y024034*
X025039Y024011*
X025025Y023977*
Y023943*
X025039Y023909*
X025053Y023897*
X025053D02*
X025081Y023886D01*
X025221Y024306D02*
X025179Y024295D01*
X025179D02*
X025151Y024272D01*
X025151D02*
X025137Y024238D01*
X025137D02*
Y024227D01*
X025137D02*
X025151Y024193D01*
X025151D02*
X025179Y024170D01*
X025179D02*
X025221Y024159D01*
X025221D02*
X025235D01*
X025235D02*
X025278Y024170D01*
X025306Y024193*
X025320Y024227*
Y024238*
X025320D02*
X025306Y024272D01*
X025306D02*
X025278Y024295D01*
X025221Y024306*
X025221D02*
X025151D01*
X025151D02*
X025081Y024295D01*
X025039Y024272*
X025039D02*
X025025Y024238D01*
X025025D02*
Y024215D01*
X025025D02*
X025039Y024181D01*
X025039D02*
X025067Y024170D01*
X025920Y023625D02*
X025625D01*
X025920D02*
Y023727D01*
X025906Y023761*
X025892Y023772*
X025892D02*
X025864Y023784D01*
X025835*
X025835D02*
X025807Y023772D01*
X025807D02*
X025793Y023761D01*
X025793D02*
X025779Y023727D01*
X025779D02*
Y023625D01*
Y023704D02*
X025625Y023784D01*
X025878Y024022D02*
X025906Y024011D01*
X025920Y023977*
Y023954*
X025920D02*
X025906Y023920D01*
X025864Y023897*
X025864D02*
X025793Y023886D01*
X025793D02*
X025723D01*
X025667Y023897*
X025667D02*
X025639Y023920D01*
X025625Y023954*
X025625D02*
Y023965D01*
X025625D02*
X025639Y024000D01*
X025667Y024022*
X025667D02*
X025709Y024034D01*
X025723*
X025765Y024022*
X025765D02*
X025793Y024000D01*
X025793D02*
X025807Y023965D01*
X025807D02*
Y023954D01*
X025807D02*
X025793Y023920D01*
X025793D02*
X025765Y023897D01*
X025765D02*
X025723Y023886D01*
X025920Y024204D02*
X025906Y024170D01*
X025864Y024147*
X025864D02*
X025793Y024136D01*
X025793D02*
X025751D01*
X025751D02*
X025681Y024147D01*
X025681D02*
X025639Y024170D01*
X025625Y024204*
X025625D02*
Y024227D01*
X025639Y024261*
X025681Y024284*
X025751Y024295*
X025751D02*
X025793D01*
X025793D02*
X025864Y024284D01*
X025906Y024261*
X025920Y024227*
Y024204*
X026520Y023625D02*
X026225D01*
X026520D02*
Y023727D01*
X026506Y023761*
X026492Y023772*
X026492D02*
X026464Y023784D01*
X026435*
X026435D02*
X026407Y023772D01*
X026407D02*
X026393Y023761D01*
X026393D02*
X026379Y023727D01*
X026379D02*
Y023625D01*
Y023704D02*
X026225Y023784D01*
X026478Y024022D02*
X026506Y024011D01*
X026520Y023977*
Y023954*
X026520D02*
X026506Y023920D01*
X026464Y023897*
X026464D02*
X026393Y023886D01*
X026393D02*
X026323D01*
X026267Y023897*
X026267D02*
X026239Y023920D01*
X026225Y023954*
X026225D02*
Y023965D01*
X026225D02*
X026239Y024000D01*
X026267Y024022*
X026267D02*
X026309Y024034D01*
X026323*
X026365Y024022*
X026365D02*
X026393Y024000D01*
X026393D02*
X026407Y023965D01*
X026407D02*
Y023954D01*
X026407D02*
X026393Y023920D01*
X026393D02*
X026365Y023897D01*
X026365D02*
X026323Y023886D01*
X026464Y024136D02*
X026478Y024159D01*
X026520Y024193*
X026225*
X019720Y024825D02*
X019425D01*
X019720D02*
Y024927D01*
X019706Y024961*
X019692Y024972*
X019692D02*
X019664Y024984D01*
X019635*
X019635D02*
X019607Y024972D01*
X019607D02*
X019593Y024961D01*
X019593D02*
X019579Y024927D01*
X019579D02*
Y024825D01*
Y024904D02*
X019425Y024984D01*
X019678Y025222D02*
X019706Y025211D01*
X019720Y025177*
Y025154*
X019720D02*
X019706Y025120D01*
X019664Y025097*
X019664D02*
X019593Y025086D01*
X019593D02*
X019523D01*
X019467Y025097*
X019467D02*
X019439Y025120D01*
X019425Y025154*
X019425D02*
Y025165D01*
X019425D02*
X019439Y025200D01*
X019467Y025222*
X019467D02*
X019509Y025234D01*
X019523*
X019565Y025222*
X019565D02*
X019593Y025200D01*
X019593D02*
X019607Y025165D01*
X019607D02*
Y025154D01*
X019607D02*
X019593Y025120D01*
X019593D02*
X019565Y025097D01*
X019565D02*
X019523Y025086D01*
X019650Y025347D02*
X019664D01*
X019664D02*
X019692Y025359D01*
X019706Y025370*
X019720Y025393*
Y025438*
X019720D02*
X019706Y025461D01*
X019692Y025472*
X019692D02*
X019664Y025484D01*
X019635*
X019635D02*
X019607Y025472D01*
X019607D02*
X019565Y025450D01*
X019565D02*
X019425Y025336D01*
Y025495*
X021620Y024825D02*
X021325D01*
X021620D02*
Y024927D01*
X021606Y024961*
X021592Y024972*
X021592D02*
X021564Y024984D01*
X021535*
X021535D02*
X021507Y024972D01*
X021507D02*
X021493Y024961D01*
X021493D02*
X021479Y024927D01*
X021479D02*
Y024825D01*
Y024904D02*
X021325Y024984D01*
X021578Y025222D02*
X021606Y025211D01*
X021620Y025177*
Y025154*
X021620D02*
X021606Y025120D01*
X021564Y025097*
X021564D02*
X021493Y025086D01*
X021493D02*
X021423D01*
X021367Y025097*
X021367D02*
X021339Y025120D01*
X021325Y025154*
X021325D02*
Y025165D01*
X021325D02*
X021339Y025200D01*
X021367Y025222*
X021367D02*
X021409Y025234D01*
X021423*
X021465Y025222*
X021465D02*
X021493Y025200D01*
X021493D02*
X021507Y025165D01*
X021507D02*
Y025154D01*
X021507D02*
X021493Y025120D01*
X021493D02*
X021465Y025097D01*
X021465D02*
X021423Y025086D01*
X021620Y025359D02*
Y025484D01*
X021507Y025415*
X021507D02*
Y025450D01*
X021507D02*
X021493Y025472D01*
X021493D02*
X021479Y025484D01*
X021479D02*
X021437Y025495D01*
X021437D02*
X021409D01*
X021367Y025484*
X021339Y025461*
X021325Y025427*
Y025393*
X021339Y025359*
X021353Y025347*
X021353D02*
X021381Y025336D01*
X022920Y024825D02*
X022625D01*
X022920D02*
Y024927D01*
X022906Y024961*
X022892Y024972*
X022892D02*
X022864Y024984D01*
X022835*
X022835D02*
X022807Y024972D01*
X022807D02*
X022793Y024961D01*
X022793D02*
X022779Y024927D01*
X022779D02*
Y024825D01*
Y024904D02*
X022625Y024984D01*
X022878Y025222D02*
X022906Y025211D01*
X022920Y025177*
Y025154*
X022920D02*
X022906Y025120D01*
X022864Y025097*
X022864D02*
X022793Y025086D01*
X022793D02*
X022723D01*
X022667Y025097*
X022667D02*
X022639Y025120D01*
X022625Y025154*
X022625D02*
Y025165D01*
X022625D02*
X022639Y025200D01*
X022667Y025222*
X022667D02*
X022709Y025234D01*
X022723*
X022765Y025222*
X022765D02*
X022793Y025200D01*
X022793D02*
X022807Y025165D01*
X022807D02*
Y025154D01*
X022807D02*
X022793Y025120D01*
X022793D02*
X022765Y025097D01*
X022765D02*
X022723Y025086D01*
X022920Y025450D02*
X022723Y025336D01*
Y025506*
X022920Y025450D02*
X022625D01*
X025175Y026020D02*
Y025725D01*
Y026020D02*
X025072D01*
X025072D02*
X025038Y026006D01*
X025038D02*
X025027Y025992D01*
X025015Y025964*
X025015D02*
Y025935D01*
X025015D02*
X025027Y025907D01*
X025027D02*
X025038Y025893D01*
X025038D02*
X025072Y025879D01*
X025072D02*
X025175D01*
X025095D02*
X025015Y025725D01*
X024777Y025978D02*
X024788Y026006D01*
X024788D02*
X024822Y026020D01*
X024822D02*
X024845D01*
X024879Y026006*
X024879D02*
X024902Y025964D01*
X024913Y025893*
X024913D02*
Y025823D01*
X024913D02*
X024902Y025767D01*
X024879Y025739*
X024879D02*
X024845Y025725D01*
X024834*
X024800Y025739*
X024777Y025767*
X024765Y025809*
X024765D02*
Y025823D01*
X024765D02*
X024777Y025865D01*
X024777D02*
X024800Y025893D01*
X024800D02*
X024834Y025907D01*
X024834D02*
X024845D01*
X024845D02*
X024879Y025893D01*
X024879D02*
X024902Y025865D01*
X024902D02*
X024913Y025823D01*
X024515Y026020D02*
X024629D01*
X024629D02*
X024640Y025893D01*
X024640D02*
X024629Y025907D01*
X024629D02*
X024595Y025921D01*
X024595D02*
X024561D01*
X024561D02*
X024527Y025907D01*
X024527D02*
X024504Y025879D01*
X024504D02*
X024493Y025837D01*
X024493D02*
X024504Y025809D01*
X024504D02*
X024515Y025767D01*
X024515D02*
X024538Y025739D01*
X024538D02*
X024572Y025725D01*
X024572D02*
X024606D01*
X024606D02*
X024640Y025739D01*
X024640D02*
X024652Y025753D01*
X024663Y025781*
X032820Y018025D02*
X032525D01*
X032820D02*
Y018127D01*
X032806Y018161*
X032792Y018172*
X032792D02*
X032764Y018184D01*
X032735*
X032735D02*
X032707Y018172D01*
X032707D02*
X032693Y018161D01*
X032693D02*
X032679Y018127D01*
X032679D02*
Y018025D01*
Y018104D02*
X032525Y018184D01*
X032778Y018422D02*
X032806Y018411D01*
X032820Y018377*
Y018354*
X032820D02*
X032806Y018320D01*
X032764Y018297*
X032764D02*
X032693Y018286D01*
X032693D02*
X032623D01*
X032567Y018297*
X032567D02*
X032539Y018320D01*
X032525Y018354*
X032525D02*
Y018365D01*
X032525D02*
X032539Y018400D01*
X032567Y018422*
X032567D02*
X032609Y018434D01*
X032623*
X032665Y018422*
X032665D02*
X032693Y018400D01*
X032693D02*
X032707Y018365D01*
X032707D02*
Y018354D01*
X032707D02*
X032693Y018320D01*
X032693D02*
X032665Y018297D01*
X032665D02*
X032623Y018286D01*
X032778Y018672D02*
X032806Y018661D01*
X032820Y018627*
Y018604*
X032820D02*
X032806Y018570D01*
X032764Y018547*
X032764D02*
X032693Y018536D01*
X032693D02*
X032623D01*
X032567Y018547*
X032567D02*
X032539Y018570D01*
X032525Y018604*
X032525D02*
Y018615D01*
X032525D02*
X032539Y018650D01*
X032567Y018672*
X032567D02*
X032609Y018684D01*
X032623*
X032665Y018672*
X032665D02*
X032693Y018650D01*
X032693D02*
X032707Y018615D01*
X032707D02*
Y018604D01*
X032707D02*
X032693Y018570D01*
X032693D02*
X032665Y018547D01*
X032665D02*
X032623Y018536D01*
X033320Y018025D02*
X033025D01*
X033320D02*
Y018127D01*
X033306Y018161*
X033292Y018172*
X033292D02*
X033264Y018184D01*
X033235*
X033235D02*
X033207Y018172D01*
X033207D02*
X033193Y018161D01*
X033193D02*
X033179Y018127D01*
X033179D02*
Y018025D01*
Y018104D02*
X033025Y018184D01*
X033278Y018422D02*
X033306Y018411D01*
X033320Y018377*
Y018354*
X033320D02*
X033306Y018320D01*
X033264Y018297*
X033264D02*
X033193Y018286D01*
X033193D02*
X033123D01*
X033067Y018297*
X033067D02*
X033039Y018320D01*
X033025Y018354*
X033025D02*
Y018365D01*
X033025D02*
X033039Y018400D01*
X033067Y018422*
X033067D02*
X033109Y018434D01*
X033123*
X033165Y018422*
X033165D02*
X033193Y018400D01*
X033193D02*
X033207Y018365D01*
X033207D02*
Y018354D01*
X033207D02*
X033193Y018320D01*
X033193D02*
X033165Y018297D01*
X033165D02*
X033123Y018286D01*
X033320Y018695D02*
X033025Y018581D01*
X033320Y018536D02*
Y018695D01*
X033820Y018025D02*
X033525D01*
X033820D02*
Y018127D01*
X033806Y018161*
X033792Y018172*
X033792D02*
X033764Y018184D01*
X033735*
X033735D02*
X033707Y018172D01*
X033707D02*
X033693Y018161D01*
X033693D02*
X033679Y018127D01*
X033679D02*
Y018025D01*
Y018104D02*
X033525Y018184D01*
X033778Y018422D02*
X033806Y018411D01*
X033820Y018377*
Y018354*
X033820D02*
X033806Y018320D01*
X033764Y018297*
X033764D02*
X033693Y018286D01*
X033693D02*
X033623D01*
X033567Y018297*
X033567D02*
X033539Y018320D01*
X033525Y018354*
X033525D02*
Y018365D01*
X033525D02*
X033539Y018400D01*
X033567Y018422*
X033567D02*
X033609Y018434D01*
X033623*
X033665Y018422*
X033665D02*
X033693Y018400D01*
X033693D02*
X033707Y018365D01*
X033707D02*
Y018354D01*
X033707D02*
X033693Y018320D01*
X033693D02*
X033665Y018297D01*
X033665D02*
X033623Y018286D01*
X033820Y018593D02*
X033806Y018559D01*
X033778Y018547*
X033778D02*
X033750D01*
X033750D02*
X033721Y018559D01*
X033721D02*
X033707Y018581D01*
X033707D02*
X033693Y018627D01*
X033693D02*
X033679Y018661D01*
X033679D02*
X033651Y018684D01*
X033651D02*
X033623Y018695D01*
X033581*
X033553Y018684*
X033539Y018672*
X033539D02*
X033525Y018638D01*
X033525D02*
Y018593D01*
X033539Y018559*
X033553Y018547*
X033553D02*
X033581Y018536D01*
X033623*
X033651Y018547*
X033651D02*
X033679Y018570D01*
X033679D02*
X033693Y018604D01*
X033693D02*
X033707Y018650D01*
X033707D02*
X033721Y018672D01*
X033721D02*
X033750Y018684D01*
X033778*
X033806Y018672*
X033806D02*
X033820Y018638D01*
X033820D02*
Y018593D01*
X034320Y018025D02*
X034025D01*
X034320D02*
Y018127D01*
X034306Y018161*
X034292Y018172*
X034292D02*
X034264Y018184D01*
X034235*
X034235D02*
X034207Y018172D01*
X034207D02*
X034193Y018161D01*
X034193D02*
X034179Y018127D01*
X034179D02*
Y018025D01*
Y018104D02*
X034025Y018184D01*
X034278Y018422D02*
X034306Y018411D01*
X034320Y018377*
Y018354*
X034320D02*
X034306Y018320D01*
X034264Y018297*
X034264D02*
X034193Y018286D01*
X034193D02*
X034123D01*
X034067Y018297*
X034067D02*
X034039Y018320D01*
X034025Y018354*
X034025D02*
Y018365D01*
X034025D02*
X034039Y018400D01*
X034067Y018422*
X034067D02*
X034109Y018434D01*
X034123*
X034165Y018422*
X034165D02*
X034193Y018400D01*
X034193D02*
X034207Y018365D01*
X034207D02*
Y018354D01*
X034207D02*
X034193Y018320D01*
X034193D02*
X034165Y018297D01*
X034165D02*
X034123Y018286D01*
X034221Y018684D02*
X034179Y018672D01*
X034179D02*
X034151Y018650D01*
X034151D02*
X034137Y018615D01*
X034137D02*
Y018604D01*
X034137D02*
X034151Y018570D01*
X034151D02*
X034179Y018547D01*
X034179D02*
X034221Y018536D01*
X034221D02*
X034235D01*
X034235D02*
X034278Y018547D01*
X034278D02*
X034306Y018570D01*
X034320Y018604*
X034320D02*
Y018615D01*
X034320D02*
X034306Y018650D01*
X034278Y018672*
X034278D02*
X034221Y018684D01*
X034221D02*
X034151D01*
X034151D02*
X034081Y018672D01*
X034081D02*
X034039Y018650D01*
X034025Y018615*
X034025D02*
Y018593D01*
X034039Y018559*
X034067Y018547*
X018575Y011520D02*
Y011225D01*
Y011520D02*
X018472D01*
X018472D02*
X018438Y011506D01*
X018438D02*
X018427Y011492D01*
X018415Y011464*
X018415D02*
Y011435D01*
X018415D02*
X018427Y011407D01*
X018427D02*
X018438Y011393D01*
X018438D02*
X018472Y011379D01*
X018472D02*
X018575D01*
X018495D02*
X018415Y011225D01*
X018154Y011520D02*
X018268Y011225D01*
X018313Y011520D02*
X018154D01*
X018052Y011464D02*
X018029Y011478D01*
X018029D02*
X017995Y011520D01*
Y011225*
X035075Y011520D02*
Y011225D01*
Y011520D02*
X034972D01*
X034972D02*
X034938Y011506D01*
X034938D02*
X034927Y011492D01*
X034915Y011464*
X034915D02*
Y011435D01*
X034915D02*
X034927Y011407D01*
X034927D02*
X034938Y011393D01*
X034938D02*
X034972Y011379D01*
X034972D02*
X035075D01*
X034995D02*
X034915Y011225D01*
X034654Y011520D02*
X034768Y011225D01*
X034813Y011520D02*
X034654D01*
X034484D02*
X034518Y011506D01*
X034540Y011464*
X034540D02*
X034552Y011393D01*
X034552D02*
Y011351D01*
X034552D02*
X034540Y011281D01*
X034540D02*
X034518Y011239D01*
X034484Y011225*
X034461*
X034427Y011239*
X034404Y011281*
X034404D02*
X034393Y011351D01*
X034393D02*
Y011393D01*
X034393D02*
X034404Y011464D01*
X034404D02*
X034427Y011506D01*
X034461Y011520*
X034484*
X035075Y012120D02*
Y011825D01*
Y012120D02*
X034972D01*
X034972D02*
X034938Y012106D01*
X034938D02*
X034927Y012092D01*
X034915Y012064*
X034915D02*
Y012035D01*
X034915D02*
X034927Y012007D01*
X034927D02*
X034938Y011993D01*
X034938D02*
X034972Y011979D01*
X034972D02*
X035075D01*
X034995D02*
X034915Y011825D01*
X034654Y012120D02*
X034768Y011825D01*
X034813Y012120D02*
X034654D01*
X034540Y012050D02*
Y012064D01*
X034540D02*
X034529Y012092D01*
X034529D02*
X034518Y012106D01*
X034495Y012120*
X034450*
X034427Y012106*
X034415Y012092*
X034415D02*
X034404Y012064D01*
X034404D02*
Y012035D01*
X034404D02*
X034415Y012007D01*
X034415D02*
X034438Y011965D01*
X034438D02*
X034552Y011825D01*
X034393*
X018575Y012120D02*
Y011825D01*
Y012120D02*
X018472D01*
X018472D02*
X018438Y012106D01*
X018438D02*
X018427Y012092D01*
X018415Y012064*
X018415D02*
Y012035D01*
X018415D02*
X018427Y012007D01*
X018427D02*
X018438Y011993D01*
X018438D02*
X018472Y011979D01*
X018472D02*
X018575D01*
X018495D02*
X018415Y011825D01*
X018154Y012120D02*
X018268Y011825D01*
X018313Y012120D02*
X018154D01*
X018029D02*
X017904D01*
X017904D02*
X017972Y012007D01*
X017972D02*
X017938D01*
X017938D02*
X017915Y011993D01*
X017915D02*
X017904Y011979D01*
X017904D02*
X017893Y011937D01*
X017893D02*
Y011909D01*
X017904Y011867*
X017904D02*
X017927Y011839D01*
X017961Y011825*
X017995*
X018029Y011839*
X018029D02*
X018040Y011853D01*
X018040D02*
X018052Y011881D01*
X031920Y024725D02*
X031625D01*
X031920D02*
Y024827D01*
X031906Y024861*
X031892Y024872*
X031892D02*
X031864Y024884D01*
X031835*
X031835D02*
X031807Y024872D01*
X031807D02*
X031793Y024861D01*
X031793D02*
X031779Y024827D01*
X031779D02*
Y024725D01*
Y024804D02*
X031625Y024884D01*
X031920Y025145D02*
X031625Y025031D01*
X031920Y024986D02*
Y025145D01*
X031878Y025384D02*
X031906Y025372D01*
X031906D02*
X031920Y025338D01*
X031920D02*
Y025315D01*
X031920D02*
X031906Y025281D01*
X031906D02*
X031864Y025259D01*
X031793Y025247*
X031793D02*
X031723D01*
X031723D02*
X031667Y025259D01*
X031639Y025281*
X031639D02*
X031625Y025315D01*
X031625D02*
Y025327D01*
X031639Y025361*
X031667Y025384*
X031709Y025395*
X031723*
X031765Y025384*
X031765D02*
X031793Y025361D01*
X031793D02*
X031807Y025327D01*
X031807D02*
Y025315D01*
X031807D02*
X031793Y025281D01*
X031793D02*
X031765Y025259D01*
X031765D02*
X031723Y025247D01*
X059420Y047025D02*
X059125D01*
X059420D02*
Y047127D01*
X059406Y047161*
X059392Y047172*
X059392D02*
X059364Y047184D01*
X059335*
X059335D02*
X059307Y047172D01*
X059307D02*
X059293Y047161D01*
X059293D02*
X059279Y047127D01*
X059279D02*
Y047025D01*
Y047104D02*
X059125Y047184D01*
X059420Y047445D02*
X059125Y047331D01*
X059420Y047286D02*
Y047445D01*
X059321Y047695D02*
X059279Y047684D01*
X059279D02*
X059251Y047661D01*
X059251D02*
X059237Y047627D01*
X059237D02*
Y047615D01*
X059237D02*
X059251Y047581D01*
X059251D02*
X059279Y047559D01*
X059279D02*
X059321Y047547D01*
X059321D02*
X059335D01*
X059335D02*
X059378Y047559D01*
X059406Y047581*
X059406D02*
X059420Y047615D01*
X059420D02*
Y047627D01*
X059406Y047661*
X059378Y047684*
X059321Y047695*
X059321D02*
X059251D01*
X059251D02*
X059181Y047684D01*
X059139Y047661*
X059125Y047627*
Y047604*
X059125D02*
X059139Y047570D01*
X059167Y047559*
X028220Y019625D02*
X027925D01*
X028220D02*
Y019727D01*
X028206Y019761*
X028192Y019772*
X028192D02*
X028164Y019784D01*
X028135*
X028135D02*
X028107Y019772D01*
X028107D02*
X028093Y019761D01*
X028093D02*
X028079Y019727D01*
X028079D02*
Y019625D01*
Y019704D02*
X027925Y019784D01*
X028220Y019943D02*
X028206Y019909D01*
X028178Y019897*
X028178D02*
X028150D01*
X028150D02*
X028121Y019909D01*
X028121D02*
X028107Y019931D01*
X028107D02*
X028093Y019977D01*
X028093D02*
X028079Y020011D01*
X028079D02*
X028051Y020034D01*
X028051D02*
X028023Y020045D01*
X027981*
X027953Y020034*
X027939Y020022*
X027939D02*
X027925Y019988D01*
X027925D02*
Y019943D01*
X027939Y019909*
X027953Y019897*
X027953D02*
X027981Y019886D01*
X028023*
X028051Y019897*
X028051D02*
X028079Y019920D01*
X028079D02*
X028093Y019954D01*
X028093D02*
X028107Y020000D01*
X028107D02*
X028121Y020022D01*
X028121D02*
X028150Y020034D01*
X028178*
X028206Y020022*
X028206D02*
X028220Y019988D01*
X028220D02*
Y019943D01*
Y020215D02*
X028206Y020181D01*
X028206D02*
X028164Y020159D01*
X028093Y020147*
X028093D02*
X028051D01*
X028051D02*
X027981Y020159D01*
X027939Y020181*
X027939D02*
X027925Y020215D01*
X027925D02*
Y020238D01*
X027925D02*
X027939Y020272D01*
X027939D02*
X027981Y020295D01*
X028051Y020306*
X028051D02*
X028093D01*
X028093D02*
X028164Y020295D01*
X028206Y020272*
X028206D02*
X028220Y020238D01*
X028220D02*
Y020215D01*
X021120Y019625D02*
X020825D01*
X021120D02*
Y019727D01*
X021106Y019761*
X021092Y019772*
X021092D02*
X021064Y019784D01*
X021035*
X021035D02*
X021007Y019772D01*
X021007D02*
X020993Y019761D01*
X020993D02*
X020979Y019727D01*
X020979D02*
Y019625D01*
Y019704D02*
X020825Y019784D01*
X021120Y019943D02*
X021106Y019909D01*
X021078Y019897*
X021078D02*
X021050D01*
X021050D02*
X021021Y019909D01*
X021021D02*
X021007Y019931D01*
X021007D02*
X020993Y019977D01*
X020993D02*
X020979Y020011D01*
X020979D02*
X020951Y020034D01*
X020951D02*
X020923Y020045D01*
X020881*
X020853Y020034*
X020839Y020022*
X020839D02*
X020825Y019988D01*
X020825D02*
Y019943D01*
X020839Y019909*
X020853Y019897*
X020853D02*
X020881Y019886D01*
X020923*
X020951Y019897*
X020951D02*
X020979Y019920D01*
X020979D02*
X020993Y019954D01*
X020993D02*
X021007Y020000D01*
X021007D02*
X021021Y020022D01*
X021021D02*
X021050Y020034D01*
X021078*
X021106Y020022*
X021106D02*
X021120Y019988D01*
X021120D02*
Y019943D01*
X021064Y020147D02*
X021078Y020170D01*
X021120Y020204*
X021120D02*
X020825D01*
X018320Y018025D02*
X018025D01*
X018320D02*
Y018127D01*
X018306Y018161*
X018292Y018172*
X018292D02*
X018264Y018184D01*
X018235*
X018235D02*
X018207Y018172D01*
X018207D02*
X018193Y018161D01*
X018193D02*
X018179Y018127D01*
X018179D02*
Y018025D01*
Y018104D02*
X018025Y018184D01*
X018320Y018343D02*
X018306Y018309D01*
X018278Y018297*
X018278D02*
X018250D01*
X018250D02*
X018221Y018309D01*
X018221D02*
X018207Y018331D01*
X018207D02*
X018193Y018377D01*
X018193D02*
X018179Y018411D01*
X018179D02*
X018151Y018434D01*
X018151D02*
X018123Y018445D01*
X018081*
X018053Y018434*
X018039Y018422*
X018039D02*
X018025Y018388D01*
X018025D02*
Y018343D01*
X018039Y018309*
X018053Y018297*
X018053D02*
X018081Y018286D01*
X018123*
X018151Y018297*
X018151D02*
X018179Y018320D01*
X018179D02*
X018193Y018354D01*
X018193D02*
X018207Y018400D01*
X018207D02*
X018221Y018422D01*
X018221D02*
X018250Y018434D01*
X018278*
X018306Y018422*
X018306D02*
X018320Y018388D01*
X018320D02*
Y018343D01*
X018250Y018559D02*
X018264D01*
X018292Y018570*
X018306Y018581*
X018306D02*
X018320Y018604D01*
X018320D02*
Y018650D01*
X018306Y018672*
X018306D02*
X018292Y018684D01*
X018264Y018695*
X018235*
X018235D02*
X018207Y018684D01*
X018207D02*
X018165Y018661D01*
X018165D02*
X018025Y018547D01*
X018025D02*
Y018706D01*
X018820Y018025D02*
X018525D01*
X018820D02*
Y018127D01*
X018806Y018161*
X018792Y018172*
X018792D02*
X018764Y018184D01*
X018735*
X018735D02*
X018707Y018172D01*
X018707D02*
X018693Y018161D01*
X018693D02*
X018679Y018127D01*
X018679D02*
Y018025D01*
Y018104D02*
X018525Y018184D01*
X018820Y018343D02*
X018806Y018309D01*
X018778Y018297*
X018778D02*
X018750D01*
X018750D02*
X018721Y018309D01*
X018721D02*
X018707Y018331D01*
X018707D02*
X018693Y018377D01*
X018693D02*
X018679Y018411D01*
X018679D02*
X018651Y018434D01*
X018651D02*
X018623Y018445D01*
X018581*
X018553Y018434*
X018539Y018422*
X018539D02*
X018525Y018388D01*
X018525D02*
Y018343D01*
X018539Y018309*
X018553Y018297*
X018553D02*
X018581Y018286D01*
X018623*
X018651Y018297*
X018651D02*
X018679Y018320D01*
X018679D02*
X018693Y018354D01*
X018693D02*
X018707Y018400D01*
X018707D02*
X018721Y018422D01*
X018721D02*
X018750Y018434D01*
X018778*
X018806Y018422*
X018806D02*
X018820Y018388D01*
X018820D02*
Y018343D01*
Y018570D02*
Y018695D01*
X018707Y018627*
X018707D02*
Y018661D01*
X018707D02*
X018693Y018684D01*
X018693D02*
X018679Y018695D01*
X018679D02*
X018637Y018706D01*
X018637D02*
X018609D01*
X018609D02*
X018567Y018695D01*
X018539Y018672*
X018539D02*
X018525Y018638D01*
X018525D02*
Y018604D01*
X018525D02*
X018539Y018570D01*
X018553Y018559*
X018581Y018547*
X019320Y018025D02*
X019025D01*
X019320D02*
Y018127D01*
X019306Y018161*
X019292Y018172*
X019292D02*
X019264Y018184D01*
X019235*
X019235D02*
X019207Y018172D01*
X019207D02*
X019193Y018161D01*
X019193D02*
X019179Y018127D01*
X019179D02*
Y018025D01*
Y018104D02*
X019025Y018184D01*
X019320Y018343D02*
X019306Y018309D01*
X019278Y018297*
X019278D02*
X019250D01*
X019250D02*
X019221Y018309D01*
X019221D02*
X019207Y018331D01*
X019207D02*
X019193Y018377D01*
X019193D02*
X019179Y018411D01*
X019179D02*
X019151Y018434D01*
X019151D02*
X019123Y018445D01*
X019081*
X019053Y018434*
X019039Y018422*
X019039D02*
X019025Y018388D01*
X019025D02*
Y018343D01*
X019039Y018309*
X019053Y018297*
X019053D02*
X019081Y018286D01*
X019123*
X019151Y018297*
X019151D02*
X019179Y018320D01*
X019179D02*
X019193Y018354D01*
X019193D02*
X019207Y018400D01*
X019207D02*
X019221Y018422D01*
X019221D02*
X019250Y018434D01*
X019278*
X019306Y018422*
X019306D02*
X019320Y018388D01*
X019320D02*
Y018343D01*
Y018661D02*
X019123Y018547D01*
X019123D02*
Y018718D01*
X019320Y018661D02*
X019025D01*
X019820Y018025D02*
X019525D01*
X019820D02*
Y018127D01*
X019806Y018161*
X019792Y018172*
X019792D02*
X019764Y018184D01*
X019735*
X019735D02*
X019707Y018172D01*
X019707D02*
X019693Y018161D01*
X019693D02*
X019679Y018127D01*
X019679D02*
Y018025D01*
Y018104D02*
X019525Y018184D01*
X019820Y018343D02*
X019806Y018309D01*
X019778Y018297*
X019778D02*
X019750D01*
X019750D02*
X019721Y018309D01*
X019721D02*
X019707Y018331D01*
X019707D02*
X019693Y018377D01*
X019693D02*
X019679Y018411D01*
X019679D02*
X019651Y018434D01*
X019651D02*
X019623Y018445D01*
X019581*
X019553Y018434*
X019539Y018422*
X019539D02*
X019525Y018388D01*
X019525D02*
Y018343D01*
X019539Y018309*
X019553Y018297*
X019553D02*
X019581Y018286D01*
X019623*
X019651Y018297*
X019651D02*
X019679Y018320D01*
X019679D02*
X019693Y018354D01*
X019693D02*
X019707Y018400D01*
X019707D02*
X019721Y018422D01*
X019721D02*
X019750Y018434D01*
X019778*
X019806Y018422*
X019806D02*
X019820Y018388D01*
X019820D02*
Y018343D01*
Y018695D02*
Y018581D01*
X019820D02*
X019693Y018570D01*
X019693D02*
X019707Y018581D01*
X019707D02*
X019721Y018615D01*
X019721D02*
Y018650D01*
X019721D02*
X019707Y018684D01*
X019707D02*
X019679Y018706D01*
X019679D02*
X019637Y018718D01*
X019637D02*
X019609Y018706D01*
X019609D02*
X019567Y018695D01*
X019539Y018672*
X019539D02*
X019525Y018638D01*
X019525D02*
Y018604D01*
X019525D02*
X019539Y018570D01*
X019553Y018559*
X019581Y018547*
X014175Y048420D02*
Y048125D01*
Y048420D02*
X014072D01*
X014072D02*
X014038Y048406D01*
X014038D02*
X014027Y048392D01*
X014015Y048364*
X014015D02*
Y048335D01*
X014015D02*
X014027Y048307D01*
X014027D02*
X014038Y048293D01*
X014038D02*
X014072Y048279D01*
X014072D02*
X014175D01*
X014095D02*
X014015Y048125D01*
X013856Y048420D02*
X013890Y048406D01*
X013890D02*
X013902Y048378D01*
Y048350*
X013890Y048321*
X013890D02*
X013868Y048307D01*
X013868D02*
X013822Y048293D01*
X013822D02*
X013788Y048279D01*
X013788D02*
X013765Y048251D01*
X013765D02*
X013754Y048223D01*
X013754D02*
Y048181D01*
X013754D02*
X013765Y048153D01*
X013765D02*
X013777Y048139D01*
X013811Y048125*
X013856*
X013856D02*
X013890Y048139D01*
X013890D02*
X013902Y048153D01*
X013913Y048181*
X013913D02*
Y048223D01*
X013913D02*
X013902Y048251D01*
X013902D02*
X013879Y048279D01*
X013879D02*
X013845Y048293D01*
X013845D02*
X013800Y048307D01*
X013800D02*
X013777Y048321D01*
X013777D02*
X013765Y048350D01*
X013765D02*
Y048378D01*
X013765D02*
X013777Y048406D01*
X013811Y048420*
X013856*
X013595D02*
X013629Y048406D01*
X013629D02*
X013640Y048378D01*
X013640D02*
Y048350D01*
X013640D02*
X013629Y048321D01*
X013629D02*
X013606Y048307D01*
X013606D02*
X013561Y048293D01*
X013561D02*
X013527Y048279D01*
X013527D02*
X013504Y048251D01*
X013504D02*
X013493Y048223D01*
Y048181*
X013504Y048153*
X013504D02*
X013515Y048139D01*
X013515D02*
X013550Y048125D01*
X013595*
X013629Y048139*
X013629D02*
X013640Y048153D01*
X013640D02*
X013652Y048181D01*
Y048223*
X013640Y048251*
X013640D02*
X013618Y048279D01*
X013618D02*
X013584Y048293D01*
X013584D02*
X013538Y048307D01*
X013538D02*
X013515Y048321D01*
X013515D02*
X013504Y048350D01*
X013504D02*
Y048378D01*
X013504D02*
X013515Y048406D01*
X013515D02*
X013550Y048420D01*
X013595*
X031020Y033125D02*
X030809D01*
X030767Y033136*
X030739Y033159*
X030725Y033193*
Y033215*
X030725D02*
X030739Y033250D01*
X030767Y033272*
X030767D02*
X030809Y033284D01*
X031020*
X030964Y033386D02*
X030978Y033409D01*
X031020Y033443*
X030725*
X031020Y033693D02*
Y033579D01*
X031020D02*
X030893Y033568D01*
X030893D02*
X030907Y033579D01*
X030907D02*
X030921Y033613D01*
X030921D02*
Y033647D01*
X030921D02*
X030907Y033681D01*
X030907D02*
X030879Y033704D01*
X030879D02*
X030837Y033715D01*
X030837D02*
X030809Y033704D01*
X030809D02*
X030767Y033693D01*
X030739Y033670*
X030725Y033636*
Y033602*
X030739Y033568*
X030753Y033556*
X030753D02*
X030781Y033545D01*
X032220Y027725D02*
X032009D01*
X031967Y027736*
X031939Y027759*
X031925Y027793*
Y027815*
X031925D02*
X031939Y027850D01*
X031967Y027872*
X031967D02*
X032009Y027884D01*
X032220*
X032164Y027986D02*
X032178Y028009D01*
X032220Y028043*
X031925*
X032178Y028281D02*
X032206Y028270D01*
X032220Y028236*
Y028213*
X032220D02*
X032206Y028179D01*
X032206D02*
X032164Y028156D01*
X032164D02*
X032093Y028145D01*
X032093D02*
X032023D01*
X031967Y028156*
X031967D02*
X031939Y028179D01*
X031939D02*
X031925Y028213D01*
X031925D02*
Y028225D01*
X031939Y028259*
X031967Y028281*
X031967D02*
X032009Y028293D01*
X032023*
X032065Y028281*
X032065D02*
X032093Y028259D01*
X032093D02*
X032107Y028225D01*
X032107D02*
Y028213D01*
X032107D02*
X032093Y028179D01*
X032093D02*
X032065Y028156D01*
X032065D02*
X032023Y028145D01*
X031020Y037825D02*
X030809D01*
X030767Y037836*
X030739Y037859*
X030725Y037893*
Y037915*
X030725D02*
X030739Y037950D01*
X030767Y037972*
X030767D02*
X030809Y037984D01*
X031020*
Y038109D02*
Y038234D01*
X030907Y038165*
X030907D02*
Y038200D01*
X030907D02*
X030893Y038222D01*
X030893D02*
X030879Y038234D01*
X030879D02*
X030837Y038245D01*
X030837D02*
X030809D01*
X030767Y038234*
X030739Y038211*
X030725Y038177*
Y038143*
X030739Y038109*
X030753Y038097*
X030753D02*
X030781Y038086D01*
X031020Y038415D02*
X031006Y038381D01*
X031006D02*
X030964Y038359D01*
X030893Y038347*
X030893D02*
X030851D01*
X030851D02*
X030781Y038359D01*
X030739Y038381*
X030739D02*
X030725Y038415D01*
X030725D02*
Y038438D01*
X030725D02*
X030739Y038472D01*
X030739D02*
X030781Y038495D01*
X030851Y038506*
X030851D02*
X030893D01*
X030893D02*
X030964Y038495D01*
X031006Y038472*
X031006D02*
X031020Y038438D01*
X031020D02*
Y038415D01*
X027920Y013038D02*
X027695D01*
X027695D02*
X027653Y013027D01*
X027639Y013015*
X027639D02*
X027625Y012993D01*
Y012970*
X027639Y012947*
X027639D02*
X027653Y012936D01*
X027695Y012925*
X027723*
X027878Y013277D02*
X027906Y013265D01*
X027906D02*
X027920Y013231D01*
X027920D02*
Y013209D01*
X027906Y013175*
X027864Y013152*
X027793Y013140*
X027793D02*
X027723D01*
X027723D02*
X027667Y013152D01*
X027639Y013175*
X027625Y013209*
Y013220*
X027639Y013254*
X027639D02*
X027667Y013277D01*
X027709Y013288*
X027709D02*
X027723D01*
X027723D02*
X027765Y013277D01*
X027765D02*
X027793Y013254D01*
X027793D02*
X027807Y013220D01*
X027807D02*
Y013209D01*
X027807D02*
X027793Y013175D01*
X027793D02*
X027765Y013152D01*
X027765D02*
X027723Y013140D01*
X027821Y013538D02*
X027779Y013527D01*
X027779D02*
X027751Y013504D01*
X027751D02*
X027737Y013470D01*
X027737D02*
Y013459D01*
X027737D02*
X027751Y013425D01*
X027751D02*
X027779Y013402D01*
X027779D02*
X027821Y013390D01*
X027821D02*
X027835D01*
X027835D02*
X027878Y013402D01*
X027906Y013425*
X027920Y013459*
Y013470*
X027906Y013504*
X027906D02*
X027878Y013527D01*
X027821Y013538*
X027821D02*
X027751D01*
X027751D02*
X027681Y013527D01*
X027639Y013504*
X027639D02*
X027625Y013470D01*
Y013447*
X027625D02*
X027639Y013413D01*
X027639D02*
X027667Y013402D01*
X028520Y013038D02*
X028295D01*
X028295D02*
X028253Y013027D01*
X028239Y013015*
X028239D02*
X028225Y012993D01*
Y012970*
X028239Y012947*
X028239D02*
X028253Y012936D01*
X028295Y012925*
X028323*
X028520Y013300D02*
X028225Y013186D01*
X028520Y013140D02*
Y013300D01*
Y013470D02*
X028506Y013436D01*
X028464Y013413*
X028464D02*
X028393Y013402D01*
X028393D02*
X028351D01*
X028351D02*
X028281Y013413D01*
X028281D02*
X028239Y013436D01*
X028225Y013470*
Y013493*
X028239Y013527*
X028281Y013550*
X028351Y013561*
X028351D02*
X028393D01*
X028393D02*
X028464Y013550D01*
X028506Y013527*
X028520Y013493*
Y013470*
X029120Y013038D02*
X028895D01*
X028895D02*
X028853Y013027D01*
X028839Y013015*
X028839D02*
X028825Y012993D01*
Y012970*
X028839Y012947*
X028839D02*
X028853Y012936D01*
X028895Y012925*
X028923*
X029120Y013300D02*
X028825Y013186D01*
X029120Y013140D02*
Y013300D01*
X029064Y013402D02*
X029078Y013425D01*
X029120Y013459*
X028825*
X029720Y013038D02*
X029495D01*
X029495D02*
X029453Y013027D01*
X029439Y013015*
X029439D02*
X029425Y012993D01*
Y012970*
X029439Y012947*
X029439D02*
X029453Y012936D01*
X029495Y012925*
X029523*
X029720Y013300D02*
X029425Y013186D01*
X029720Y013140D02*
Y013300D01*
X029650Y013413D02*
X029664D01*
X029664D02*
X029692Y013425D01*
X029706Y013436*
X029720Y013459*
Y013504*
X029720D02*
X029706Y013527D01*
X029692Y013538*
X029692D02*
X029664Y013550D01*
X029635*
X029635D02*
X029607Y013538D01*
X029607D02*
X029565Y013515D01*
X029565D02*
X029425Y013402D01*
Y013561*
X030320Y013038D02*
X030095D01*
X030095D02*
X030053Y013027D01*
X030039Y013015*
X030039D02*
X030025Y012993D01*
Y012970*
X030039Y012947*
X030039D02*
X030053Y012936D01*
X030095Y012925*
X030123*
X030320Y013300D02*
X030025Y013186D01*
X030320Y013140D02*
Y013300D01*
Y013425D02*
Y013550D01*
X030207Y013481*
X030207D02*
Y013515D01*
X030207D02*
X030193Y013538D01*
X030193D02*
X030179Y013550D01*
X030179D02*
X030137Y013561D01*
X030137D02*
X030109D01*
X030067Y013550*
X030039Y013527*
X030025Y013493*
Y013459*
X030039Y013425*
X030053Y013413*
X030053D02*
X030081Y013402D01*
X022920Y012938D02*
X022695D01*
X022695D02*
X022653Y012927D01*
X022639Y012915*
X022639D02*
X022625Y012893D01*
Y012870*
X022639Y012847*
X022639D02*
X022653Y012836D01*
X022695Y012825*
X022723*
X022920Y013200D02*
X022625Y013086D01*
X022920Y013040D02*
Y013200D01*
Y013415D02*
X022723Y013302D01*
Y013472*
X022920Y013415D02*
X022625D01*
X023520Y012938D02*
X023295D01*
X023295D02*
X023253Y012927D01*
X023239Y012915*
X023239D02*
X023225Y012893D01*
Y012870*
X023239Y012847*
X023239D02*
X023253Y012836D01*
X023295Y012825*
X023323*
X023520Y013200D02*
X023225Y013086D01*
X023520Y013040D02*
Y013200D01*
Y013450D02*
Y013336D01*
X023393Y013325*
X023393D02*
X023407Y013336D01*
X023407D02*
X023421Y013370D01*
X023421D02*
Y013404D01*
X023421D02*
X023407Y013438D01*
X023407D02*
X023379Y013461D01*
X023379D02*
X023337Y013472D01*
X023337D02*
X023309Y013461D01*
X023267Y013450*
X023239Y013427*
X023225Y013393*
Y013359*
X023239Y013325*
X023253Y013313*
X023253D02*
X023281Y013302D01*
X024120Y012938D02*
X023895D01*
X023895D02*
X023853Y012927D01*
X023839Y012915*
X023839D02*
X023825Y012893D01*
Y012870*
X023839Y012847*
X023839D02*
X023853Y012836D01*
X023895Y012825*
X023923*
X024120Y013200D02*
X023825Y013086D01*
X024120Y013040D02*
Y013200D01*
X024078Y013438D02*
X024106Y013427D01*
X024120Y013393*
Y013370*
X024106Y013336*
X024064Y013313*
X024064D02*
X023993Y013302D01*
X023993D02*
X023923D01*
X023867Y013313*
X023867D02*
X023839Y013336D01*
X023825Y013370*
Y013381*
X023825D02*
X023839Y013415D01*
X023839D02*
X023867Y013438D01*
X023867D02*
X023909Y013450D01*
X023923*
X023965Y013438*
X023965D02*
X023993Y013415D01*
X023993D02*
X024007Y013381D01*
X024007D02*
Y013370D01*
X024007D02*
X023993Y013336D01*
X023993D02*
X023965Y013313D01*
X023965D02*
X023923Y013302D01*
X024720Y012938D02*
X024495D01*
X024495D02*
X024453Y012927D01*
X024439Y012915*
X024439D02*
X024425Y012893D01*
Y012870*
X024439Y012847*
X024439D02*
X024453Y012836D01*
X024495Y012825*
X024523*
X024720Y013200D02*
X024425Y013086D01*
X024720Y013040D02*
Y013200D01*
Y013461D02*
X024425Y013347D01*
X024720Y013302D02*
Y013461D01*
X025320Y012938D02*
X025095D01*
X025095D02*
X025053Y012927D01*
X025039Y012915*
X025039D02*
X025025Y012893D01*
Y012870*
X025039Y012847*
X025039D02*
X025053Y012836D01*
X025095Y012825*
X025123*
X025320Y013200D02*
X025025Y013086D01*
X025320Y013040D02*
Y013200D01*
Y013359D02*
X025306Y013325D01*
X025278Y013313*
X025278D02*
X025250D01*
X025250D02*
X025221Y013325D01*
X025221D02*
X025207Y013347D01*
X025207D02*
X025193Y013393D01*
X025193D02*
X025179Y013427D01*
X025179D02*
X025151Y013450D01*
X025151D02*
X025123Y013461D01*
X025081*
X025053Y013450*
X025039Y013438*
X025039D02*
X025025Y013404D01*
X025025D02*
Y013359D01*
X025039Y013325*
X025053Y013313*
X025053D02*
X025081Y013302D01*
X025123*
X025151Y013313*
X025151D02*
X025179Y013336D01*
X025179D02*
X025193Y013370D01*
X025193D02*
X025207Y013415D01*
X025207D02*
X025221Y013438D01*
X025221D02*
X025250Y013450D01*
X025278*
X025306Y013438*
X025306D02*
X025320Y013404D01*
X025320D02*
Y013359D01*
X047275Y037820D02*
Y037525D01*
Y037820D02*
X047195D01*
X047161Y037806*
X047138Y037778*
X047138D02*
X047127Y037750D01*
X047115Y037707*
X047115D02*
Y037637D01*
X047115D02*
X047127Y037595D01*
X047138Y037567*
X047138D02*
X047161Y037539D01*
X047195Y037525*
X047275*
X046854Y037820D02*
X046968Y037525D01*
X047013Y037820D02*
X046854D01*
X000000Y000000D02*
M02*
