*
*
G04 PADS Layout (Build Number 2005.103.1) generated Gerber (RS-274-X) file*
G04 PC Version=2.1*
*
%IN "medulla.0.pcb"*%
*
%MOIN*%
*
%FSLAX24Y24*%
*
*
*
*
G04 PC Standard Apertures*
*
*
G04 Thermal Relief Aperture macro.*
%AMTER*
1,1,$1,0,0*
1,0,$1-$2,0,0*
21,0,$3,$4,0,0,45*
21,0,$3,$4,0,0,135*
%
*
*
G04 Annular Aperture macro.*
%AMANN*
1,1,$1,0,0*
1,0,$2,0,0*
%
*
*
G04 Odd Aperture macro.*
%AMODD*
1,1,$1,0,0*
1,0,$1-0.005,0,0*
%
*
*
G04 PC Custom Aperture Macros*
*
*
*
*
*
*
G04 PC Aperture Table*
*
%ADD039C,0.01*%
%ADD053R,0.05818X0.05818*%
%ADD054C,0.05818*%
%ADD055R,0.06212X0.05424*%
%ADD056O,0.03062X0.06802*%
%ADD057O,0.02472X0.04637*%
%ADD058O,0.04637X0.02472*%
%ADD059O,0.0385X0.01881*%
%ADD060O,0.047X0.05*%
%ADD061O,0.05X0.047*%
%ADD062R,0.067X0.062*%
%ADD063R,0.062X0.067*%
%ADD064R,0.067X0.067*%
%ADD065C,0.067*%
%ADD066R,0.072X0.072*%
%ADD067C,0.072*%
%ADD068C,0.177*%
%ADD069C,0.069*%
%ADD070C,0.097*%
%ADD071O,0.021X0.052*%
%ADD072R,0.037X0.045*%
%ADD074O,0.027X0.021*%
%ADD075O,0.032X0.027*%
%ADD077C,0.01881*%
%ADD078R,0.08574X0.06212*%
%ADD079R,0.09558X0.16448*%
%ADD087R,0.133X0.067*%
%ADD094R,0.04637X0.04243*%
%ADD095C,0.257*%
*
*
*
*
G04 PC Copper Outlines (0)*
G04 Layer Name medulla.0.pcb - dark (0)*
%LPD*%
*
*
G04 PC Area=System Text*
G75*
G36*
G01*
X022531Y041829D02*
Y041127D01*
X022510Y040936D01*
X022468Y040787D01*
X022404Y040680D01*
X022319Y040574D01*
X022191Y040510D01*
X022063Y040468D01*
X021765Y040425D01*
X021553Y040446D01*
X021382Y040489D01*
X021255Y040553D01*
X021170Y040638D01*
X021085Y040744D01*
X021042Y040851D01*
X021000Y041000D01*
Y041127D01*
Y041829D01*
X022531D01*
G37*
G74*
*
G75*
G36*
G01*
X021000Y040170D02*
X022531D01*
Y039382D01*
X022510Y039191D01*
X022489Y039063D01*
X022446Y038957D01*
X022361Y038872D01*
X022255Y038829D01*
X022106Y038808D01*
X022000Y038829D01*
X021893Y038872D01*
X021808Y038936D01*
X021744Y039021D01*
X021723Y039085D01*
X021702Y039170D01*
X021659Y039106D01*
X021638Y039063D01*
X021553Y038978D01*
X021446Y038914D01*
X021000Y038680D01*
Y039191D01*
X021489Y039468D01*
X021553Y039510D01*
X021595Y039553D01*
X021638Y039659D01*
Y039702D01*
X021000D01*
Y040170D01*
G37*
G74*
*
G75*
G36*
G01*
X022531Y038531D02*
Y038063D01*
X021382D01*
Y037319D01*
X021000D01*
Y038531D01*
X022531D01*
G37*
G74*
*
G75*
G36*
G01*
X020215Y041360D02*
X020060D01*
X020034D01*
X020008Y041377D01*
X019991Y041394D01*
Y041420D01*
Y041437D01*
X020008Y041455D01*
X020034Y041472D01*
X020060D01*
X020250D01*
X020284D01*
X020318D01*
X020353Y041489D01*
X020362Y041506D01*
X020370Y041532D01*
X020362Y041584D01*
X020327Y041618D01*
X020284Y041627D01*
X020215Y041636D01*
X020060D01*
X020034D01*
X020008Y041653D01*
X019991Y041670D01*
Y041687D01*
Y041713D01*
X020008Y041731D01*
X020034Y041748D01*
X020060D01*
X020387D01*
X020439Y041731D01*
X020456Y041696D01*
X020439Y041662D01*
X020396Y041644D01*
X020387D01*
X020422Y041610D01*
X020439Y041575D01*
X020456Y041498D01*
X020439Y041429D01*
X020387Y041377D01*
X020439Y041308D01*
X020456Y041231D01*
X020448Y041187D01*
X020439Y041153D01*
X020413Y041118D01*
X020387Y041101D01*
X020344Y041084D01*
X020284D01*
X020060D01*
X020034D01*
X020008Y041101D01*
X019991Y041118D01*
Y041144D01*
Y041170D01*
X020008Y041187D01*
X020034Y041196D01*
X020060Y041205D01*
X020258D01*
X020318D01*
X020353Y041222D01*
X020370Y041265D01*
X020353Y041317D01*
X020318Y041343D01*
X020275Y041360D01*
X020215D01*
X020215D01*
G37*
G74*
*
G75*
G36*
G01*
X020189Y040662D02*
Y040886D01*
X020120Y040868D01*
X020086Y040825D01*
X020068Y040774D01*
Y040739D01*
X020086Y040705D01*
X020103Y040670D01*
X020137Y040636D01*
X020146Y040610D01*
X020137Y040584D01*
X020112Y040575D01*
X020068Y040584D01*
X020034Y040618D01*
X020000Y040687D01*
X019991Y040774D01*
X020008Y040868D01*
X020051Y040937D01*
X020129Y040981D01*
X020224Y040998D01*
X020318Y040981D01*
X020387Y040937D01*
X020439Y040868D01*
X020456Y040774D01*
X020448Y040713D01*
X020431Y040662D01*
X020396Y040618D01*
X020353Y040593D01*
X020301Y040575D01*
X020258Y040567D01*
X020224Y040575D01*
X020198Y040593D01*
X020189Y040618D01*
Y040662D01*
X020189D01*
G37*
G74*
*
G75*
G36*
G01*
X020051Y040162D02*
X020068D01*
X020025Y040205D01*
X020000Y040256D01*
X019991Y040308D01*
Y040351D01*
X020008Y040386D01*
X020060Y040446D01*
X020137Y040481D01*
X020232Y040498D01*
X020327Y040481D01*
X020396Y040446D01*
X020439Y040386D01*
X020456Y040308D01*
X020439Y040231D01*
X020413Y040196D01*
X020387Y040162D01*
X020560D01*
X020612Y040144D01*
X020620Y040127D01*
X020629Y040101D01*
X020612Y040067D01*
X020560Y040050D01*
X020060D01*
X020025D01*
X020008Y040067D01*
X019991Y040101D01*
X020008Y040144D01*
X020051Y040162D01*
X020051D01*
G37*
G74*
*
G75*
G36*
G01*
Y039627D02*
X020068D01*
X020025Y039670D01*
X020000Y039722D01*
X019991Y039782D01*
X020008Y039860D01*
X020051Y039912D01*
X020094Y039920D01*
X020155Y039929D01*
X020387D01*
X020413D01*
X020439Y039912D01*
X020456Y039877D01*
X020439Y039834D01*
X020413Y039817D01*
X020387D01*
X020206D01*
X020137Y039808D01*
X020094Y039782D01*
X020077Y039765D01*
Y039739D01*
Y039713D01*
X020094Y039679D01*
X020137Y039644D01*
X020181Y039636D01*
X020250D01*
X020387D01*
X020439Y039618D01*
X020456Y039575D01*
X020439Y039541D01*
X020387Y039524D01*
X020051D01*
X020025D01*
X020008Y039541D01*
X019991Y039575D01*
X020008Y039610D01*
X020051Y039627D01*
X020051D01*
G37*
G74*
*
G75*
G36*
G01*
X020060Y039412D02*
X020560D01*
X020612Y039394D01*
X020620Y039377D01*
X020629Y039360D01*
X020612Y039317D01*
X020586Y039300D01*
X020560D01*
X020060D01*
X020025D01*
X020008Y039317D01*
X019991Y039334D01*
Y039360D01*
Y039377D01*
X020008Y039394D01*
X020060Y039412D01*
X020060D01*
G37*
G74*
*
G75*
G36*
G01*
Y039179D02*
X020560D01*
X020612Y039162D01*
X020620Y039144D01*
X020629Y039127D01*
X020612Y039084D01*
X020586Y039067D01*
X020560D01*
X020060D01*
X020025D01*
X020008Y039084D01*
X019991Y039101D01*
Y039127D01*
Y039144D01*
X020008Y039162D01*
X020060Y039179D01*
X020060D01*
G37*
G74*
*
G75*
G36*
G01*
Y038653D02*
X020025Y038696D01*
X020008Y038739D01*
X019991Y038825D01*
Y038868D01*
X020008Y038903D01*
X020051Y038955D01*
X020086Y038963D01*
X020120Y038972D01*
X020163Y038963D01*
X020198Y038946D01*
X020232Y038912D01*
X020250Y038860D01*
Y038843D01*
X020258Y038808D01*
X020275Y038731D01*
X020293Y038662D01*
X020327Y038670D01*
X020353Y038679D01*
X020362Y038705D01*
X020370Y038748D01*
Y038782D01*
X020362Y038817D01*
X020327Y038851D01*
X020301Y038877D01*
X020293Y038903D01*
X020301Y038937D01*
X020336Y038955D01*
X020362Y038946D01*
X020387Y038929D01*
X020413Y038903D01*
X020439Y038860D01*
X020448Y038808D01*
X020456Y038748D01*
X020448Y038679D01*
X020439Y038627D01*
X020413Y038593D01*
X020379Y038567D01*
X020336Y038550D01*
X020284D01*
X020215D01*
X020155D01*
X020086Y038541D01*
X020051Y038532D01*
X020034D01*
X020008Y038541D01*
X019991Y038584D01*
Y038601D01*
X020008Y038618D01*
X020025Y038636D01*
X020060Y038653D01*
X020060D01*
G37*
G74*
*
G75*
G36*
G01*
X019991Y038360D02*
Y038386D01*
X020008Y038403D01*
X020025Y038412D01*
X020051Y038420D01*
X020077Y038412D01*
X020094Y038403D01*
X020103Y038386D01*
X020112Y038360D01*
X020094Y038317D01*
X020077Y038300D01*
X020051D01*
X020025D01*
X020008Y038317D01*
X019991Y038334D01*
Y038360D01*
X019991D01*
G37*
G74*
*
G75*
G36*
G01*
X020301Y037756D02*
X020241D01*
X020181Y037765D01*
X020094Y037791D01*
X020051Y037825D01*
X020017Y037868D01*
X020000Y037920D01*
X019991Y037972D01*
X020000Y038032D01*
X020025Y038084D01*
X020068Y038127D01*
X020129Y038162D01*
X020206Y038179D01*
X020293Y038187D01*
X020405Y038179D01*
X020491Y038162D01*
X020551Y038127D01*
X020586Y038084D01*
X020612Y038032D01*
X020620Y037972D01*
X020603Y037894D01*
X020560Y037834D01*
X020500Y037791D01*
X020413Y037765D01*
X020301Y037756D01*
X020301D01*
G37*
G74*
*
*
G04 PC Void Outlines (0)*
G04 Layer Name medulla.0.pcb - clear (0)*
%LPC*%
*
*
G04 PC Area=System Text*
G75*
G36*
G01*
X022170Y041361D02*
X021361D01*
Y041234D01*
Y041106D01*
X021382Y041021D01*
X021425Y040978D01*
X021510Y040936D01*
X021595Y040893D01*
X021765D01*
X021957Y040914D01*
X022085Y040978D01*
X022148Y041085D01*
X022170Y041234D01*
Y041361D01*
G37*
G74*
*
G75*
G36*
G01*
X021936Y039702D02*
Y039510D01*
Y039468D01*
X021957Y039382D01*
X022000Y039297D01*
X022085Y039276D01*
X022148D01*
X022191Y039319D01*
X022212Y039382D01*
X022234Y039489D01*
Y039702D01*
X021936D01*
G37*
G74*
*
G75*
G36*
G01*
X020258Y040886D02*
Y040679D01*
X020310Y040687D01*
X020344Y040705D01*
X020362Y040739D01*
X020370Y040782D01*
X020362Y040817D01*
X020344Y040851D01*
X020310Y040877D01*
X020258Y040886D01*
X020258D01*
G37*
G74*
*
G75*
G36*
G01*
X020224Y040386D02*
X020146Y040368D01*
X020112Y040351D01*
X020094Y040334D01*
X020077Y040308D01*
Y040274D01*
Y040248D01*
X020094Y040222D01*
X020112Y040196D01*
X020137Y040179D01*
X020181Y040170D01*
X020224D01*
X020301Y040179D01*
X020353Y040222D01*
X020370Y040282D01*
X020362Y040308D01*
X020353Y040334D01*
X020301Y040368D01*
X020224Y040386D01*
X020224D01*
G37*
G74*
*
G75*
G36*
G01*
Y038662D02*
X020215Y038696D01*
X020206Y038739D01*
X020198Y038782D01*
X020189Y038808D01*
X020172Y038843D01*
X020155Y038851D01*
X020129Y038860D01*
X020103Y038851D01*
X020086Y038843D01*
X020068Y038817D01*
Y038782D01*
X020086Y038722D01*
X020120Y038679D01*
X020155Y038662D01*
X020206D01*
X020224D01*
G37*
G74*
*
G75*
G36*
G01*
X020310Y037868D02*
X020379D01*
X020431Y037877D01*
X020474Y037894D01*
X020508Y037912D01*
X020525Y037937D01*
X020534Y037972D01*
X020517Y038024D01*
X020474Y038050D01*
X020405Y038067D01*
X020310Y038075D01*
X020232D01*
X020181Y038067D01*
X020137Y038050D01*
X020103Y038032D01*
X020086Y038006D01*
X020077Y037972D01*
X020086Y037937D01*
X020103Y037912D01*
X020137Y037886D01*
X020181Y037877D01*
X020232Y037868D01*
X020310D01*
X020310D01*
G37*
G74*
*
*
G04 PC Custom Flashes*
G04 Layer Name medulla.0.pcb - flashes*
%LPD*%
*
*
G04 PC Circuitry*
G04 Layer Name medulla.0.pcb - circuitry*
%LPD*%
*
G54D39*
G54D53*
G01X036000Y020106D03*
Y015606D03*
Y011106D03*
X041500Y020106D03*
Y015606D03*
Y011106D03*
X047000Y020106D03*
Y015606D03*
Y011106D03*
X047500Y024606D03*
Y027856D03*
Y031106D03*
X059181Y011500D03*
Y015000D03*
Y018500D03*
Y022000D03*
Y025500D03*
Y029000D03*
X054681Y048750D03*
X011031Y025500D03*
Y021000D03*
Y016500D03*
Y012000D03*
X049000Y048968D03*
X045000D03*
X041000D03*
X037000D03*
X033000D03*
X029000D03*
X025000D03*
X021000D03*
X011244Y042000D03*
Y038000D03*
Y034000D03*
Y030000D03*
X011500Y048787D03*
X058787Y032500D03*
Y036000D03*
G54D54*
X036000Y020893D03*
Y016393D03*
Y011893D03*
X041500Y020893D03*
Y016393D03*
Y011893D03*
X047000Y020893D03*
Y016393D03*
Y011893D03*
X047500Y025393D03*
Y028643D03*
Y031893D03*
X058393Y011500D03*
X057606D03*
X056818D03*
X058393Y015000D03*
X057606D03*
X056818D03*
X058393Y018500D03*
X057606D03*
X056818D03*
X058393Y022000D03*
X057606D03*
X056818D03*
X058393Y025500D03*
X057606D03*
X056818D03*
X058393Y029000D03*
X057606D03*
X056818D03*
X053893Y048750D03*
X053106D03*
X052318D03*
X011818Y025500D03*
X012606D03*
X013393D03*
X014181D03*
X014968D03*
X011818Y021000D03*
X012606D03*
X013393D03*
X014181D03*
X014968D03*
X011818Y016500D03*
X012606D03*
X013393D03*
X014181D03*
X014968D03*
X011818Y012000D03*
X012606D03*
X013393D03*
X014181D03*
X014968D03*
X049000Y048181D03*
Y047393D03*
Y046606D03*
Y045818D03*
Y045031D03*
X045000Y048181D03*
Y047393D03*
Y046606D03*
Y045818D03*
Y045031D03*
X041000Y048181D03*
Y047393D03*
Y046606D03*
Y045818D03*
Y045031D03*
X037000Y048181D03*
Y047393D03*
Y046606D03*
Y045818D03*
Y045031D03*
X033000Y048181D03*
Y047393D03*
Y046606D03*
Y045818D03*
Y045031D03*
X029000Y048181D03*
Y047393D03*
Y046606D03*
Y045818D03*
Y045031D03*
X025000Y048181D03*
Y047393D03*
Y046606D03*
Y045818D03*
Y045031D03*
X021000Y048181D03*
Y047393D03*
Y046606D03*
Y045818D03*
Y045031D03*
X012031Y042000D03*
X012818D03*
X013606D03*
X014393D03*
X015181D03*
X015968D03*
X016755D03*
X012031Y038000D03*
X012818D03*
X013606D03*
X014393D03*
X015181D03*
X015968D03*
X016755D03*
X012031Y034000D03*
X012818D03*
X013606D03*
X014393D03*
X015181D03*
X015968D03*
X016755D03*
X012031Y030000D03*
X012818D03*
X013606D03*
X014393D03*
X015181D03*
X015968D03*
X016755D03*
X011500Y048000D03*
Y047212D03*
X058000Y032500D03*
X057212D03*
X058000Y036000D03*
X057212D03*
G54D55*
X030533Y028974D03*
X029666D03*
Y028225D03*
X030533D03*
G54D56*
X049250Y039187D03*
X049750D03*
X050250D03*
X050750D03*
Y041312D03*
X050250D03*
X049750D03*
X049250D03*
Y034687D03*
X049750D03*
X050250D03*
X050750D03*
Y036812D03*
X050250D03*
X049750D03*
X049250D03*
G54D57*
X036887Y024728D03*
X037202D03*
X037517D03*
X037832D03*
X038147D03*
X038462D03*
X038777D03*
X039092D03*
X039407D03*
X039722D03*
X040037D03*
X040352D03*
X040667D03*
X040982D03*
X041297D03*
X041612D03*
Y030771D03*
X041297D03*
X040982D03*
X040667D03*
X040352D03*
X040037D03*
X039722D03*
X039407D03*
X039092D03*
X038777D03*
X038462D03*
X038147D03*
X037832D03*
X037517D03*
X037202D03*
X036887D03*
G54D58*
X042271Y025387D03*
Y025702D03*
Y026017D03*
Y026332D03*
Y026647D03*
Y026962D03*
Y027277D03*
Y027592D03*
Y027907D03*
Y028222D03*
Y028537D03*
Y028852D03*
Y029167D03*
Y029482D03*
Y029797D03*
Y030112D03*
X036228D03*
Y029797D03*
Y029482D03*
Y029167D03*
Y028852D03*
Y028537D03*
Y028222D03*
Y027907D03*
Y027592D03*
Y027277D03*
Y026962D03*
Y026647D03*
Y026332D03*
Y026017D03*
Y025702D03*
Y025387D03*
G54D59*
X034200Y029616D03*
Y029872D03*
Y030127D03*
Y030383D03*
X031799D03*
Y030127D03*
Y029872D03*
Y029616D03*
G54D60*
X035200Y034465D03*
Y035135D03*
X038000Y034465D03*
Y035135D03*
X019500Y026665D03*
Y027335D03*
X038400Y038335D03*
Y037665D03*
X034800Y037865D03*
Y038535D03*
X032200Y028265D03*
Y028935D03*
X031400Y028265D03*
Y028935D03*
X035400Y038535D03*
Y037865D03*
X026000Y031165D03*
Y031835D03*
X033800Y013935D03*
Y013265D03*
X026600Y031165D03*
Y031835D03*
G54D61*
X034665Y035800D03*
X035335D03*
X021435Y031800D03*
X020765D03*
X029665Y039800D03*
X030335D03*
X031735Y035800D03*
X031065D03*
X038535Y036400D03*
X037865D03*
X031135Y027400D03*
X030465D03*
X029735Y038000D03*
X029065D03*
X032065Y026200D03*
X032735D03*
X022735Y027400D03*
X022065D03*
X032065Y026800D03*
X032735D03*
X022735Y028800D03*
X022065D03*
G54D62*
X054725Y015000D03*
X053875D03*
Y016000D03*
X054725D03*
Y017500D03*
X053875D03*
X054725Y018500D03*
X053875D03*
Y019500D03*
X054725D03*
Y021000D03*
X053875D03*
X054725Y022000D03*
X053875D03*
Y023000D03*
X054725D03*
Y024500D03*
X053875D03*
X054725Y025500D03*
X053875D03*
Y026500D03*
X054725D03*
Y028000D03*
X053875D03*
X054725Y029000D03*
X053875D03*
Y030000D03*
X054725D03*
X051075Y016500D03*
X051925D03*
Y017500D03*
X051075D03*
Y019000D03*
X051925D03*
Y020000D03*
X051075D03*
Y021500D03*
X051925D03*
Y022500D03*
X051075D03*
Y024000D03*
X051925D03*
Y025000D03*
X051075D03*
Y027500D03*
X051925D03*
Y026500D03*
X051075D03*
Y029000D03*
X051925D03*
Y030000D03*
X051075D03*
X054725Y011500D03*
X053875D03*
Y012500D03*
X054725D03*
Y014000D03*
X053875D03*
G54D63*
X052800Y011075D03*
Y011925D03*
G54D64*
X058000Y046000D03*
X055750D03*
X036000Y022800D03*
Y018300D03*
Y013800D03*
X041500Y022800D03*
Y018300D03*
Y013800D03*
X047000Y022800D03*
Y018300D03*
Y013800D03*
X054250Y043750D03*
X018500Y029000D03*
X016500Y024500D03*
X018500Y040500D03*
X016500Y020000D03*
Y015500D03*
Y011000D03*
X050000Y043500D03*
X046000D03*
X042000D03*
X038000D03*
X034000D03*
X030000D03*
X026000D03*
X018500Y037000D03*
X022000Y043500D03*
X018500Y033000D03*
X049825Y038000D03*
X051175D03*
X042750Y039925D03*
Y038575D03*
X050325Y033500D03*
X051675D03*
X042750Y035425D03*
Y034075D03*
G54D65*
X059000Y046000D03*
X058000Y045000D03*
X059000D03*
X058000Y044000D03*
X059000D03*
X058000Y043000D03*
X059000D03*
X058000Y042000D03*
X059000D03*
X056750Y046000D03*
X055750Y045000D03*
X056750D03*
X055750Y044000D03*
X056750D03*
X055750Y043000D03*
X056750D03*
X055750Y042000D03*
X056750D03*
X037000Y022800D03*
Y018300D03*
Y013800D03*
X042500Y022800D03*
Y018300D03*
Y013800D03*
X048000Y022800D03*
Y018300D03*
Y013800D03*
X054250Y042750D03*
X018500Y030000D03*
Y031000D03*
X016500Y025500D03*
Y026500D03*
X018500Y041500D03*
Y042500D03*
X016500Y021000D03*
Y022000D03*
Y016500D03*
Y017500D03*
Y012000D03*
Y013000D03*
X049000Y043500D03*
X048000D03*
X045000D03*
X044000D03*
X041000D03*
X040000D03*
X037000D03*
X036000D03*
X033000D03*
X032000D03*
X029000D03*
X028000D03*
X025000D03*
X024000D03*
X018500Y038000D03*
Y039000D03*
X021000Y043500D03*
X020000D03*
X018500Y034000D03*
Y035000D03*
X033400Y028400D03*
X028500Y042000D03*
X030500D03*
X032500D03*
X034500D03*
X037500D03*
X039500D03*
X041500D03*
X043500D03*
X034400Y028400D03*
X029500Y042000D03*
X031500D03*
X033500D03*
X035500D03*
X024500Y037000D03*
Y036000D03*
Y035000D03*
Y034000D03*
Y039000D03*
Y038000D03*
X055000Y039000D03*
X024500Y041000D03*
Y040000D03*
X043500Y030000D03*
Y029000D03*
X041500Y032000D03*
Y033000D03*
Y034000D03*
Y035000D03*
X055000Y040000D03*
Y038000D03*
X036500Y042000D03*
X038500D03*
X040500D03*
X042500D03*
X027500D03*
X026500D03*
X025500D03*
X024500Y033000D03*
Y032000D03*
Y031000D03*
X043500D03*
Y028000D03*
G54D66*
X026000Y016000D03*
X031500D03*
G54D67*
X025500Y017000D03*
X024000Y016000D03*
X023500Y017000D03*
X023000Y016000D03*
X022500Y017000D03*
X022000Y016000D03*
X021500Y017000D03*
X031000D03*
X030500Y016000D03*
X030000Y017000D03*
X029500Y016000D03*
X029000Y017000D03*
X027500Y016000D03*
X027000Y017000D03*
G54D68*
X021500Y013500D03*
X031500D03*
G54D69*
X021080Y012000D03*
Y011300D03*
X026330Y012000D03*
Y011300D03*
X026670Y013390D03*
Y012690D03*
X031920Y012000D03*
Y011300D03*
G54D70*
X020400Y014700D03*
X026250Y019200D03*
X032600Y014700D03*
G54D71*
X032675Y023900D03*
X032425D03*
X032175D03*
X031925D03*
X031675D03*
X031425D03*
X031175D03*
X030925D03*
X030675D03*
X030425D03*
X030175D03*
X029925D03*
X029675D03*
X029425D03*
X029175D03*
X028925D03*
X028675D03*
X028425D03*
X028175D03*
X027925D03*
X027675D03*
X027425D03*
X027175D03*
X026925D03*
Y020100D03*
X027175D03*
X027425D03*
X027675D03*
X027925D03*
X028175D03*
X028425D03*
X028675D03*
X028925D03*
X029175D03*
X029425D03*
X029675D03*
X029925D03*
X030175D03*
X030425D03*
X030675D03*
X030925D03*
X031175D03*
X031425D03*
X031675D03*
X031925D03*
X032175D03*
X032425D03*
X032675D03*
X025575Y023900D03*
X025325D03*
X025075D03*
X024825D03*
X024575D03*
X024325D03*
X024075D03*
X023825D03*
X023575D03*
X023325D03*
X023075D03*
X022825D03*
X022575D03*
X022325D03*
X022075D03*
X021825D03*
X021575D03*
X021325D03*
X021075D03*
X020825D03*
X020575D03*
X020325D03*
X020075D03*
X019825D03*
Y020100D03*
X020075D03*
X020325D03*
X020575D03*
X020825D03*
X021075D03*
X021325D03*
X021575D03*
X021825D03*
X022075D03*
X022325D03*
X022575D03*
X022825D03*
X023075D03*
X023325D03*
X023575D03*
X023825D03*
X024075D03*
X024325D03*
X024575D03*
X024825D03*
X025075D03*
X025325D03*
X025575D03*
G54D72*
X057800Y048810D03*
Y048190D03*
X056300Y048810D03*
Y048190D03*
X033800Y011890D03*
Y012510D03*
X059300Y048810D03*
Y048190D03*
G54D74*
X034495Y022945D03*
Y022555D03*
X035005Y022750D03*
X034655Y036905D03*
Y037295D03*
X034145Y037100D03*
X034495Y018445D03*
Y018055D03*
X035005Y018250D03*
X034495Y013945D03*
Y013555D03*
X035005Y013750D03*
X039995Y022945D03*
Y022555D03*
X040505Y022750D03*
X039995Y018445D03*
Y018055D03*
X040505Y018250D03*
X039995Y013945D03*
Y013555D03*
X040505Y013750D03*
X045495Y022945D03*
Y022555D03*
X046005Y022750D03*
X045495Y018445D03*
Y018055D03*
X046005Y018250D03*
X045495Y013945D03*
Y013555D03*
X046005Y013750D03*
G54D75*
X031000Y029800D03*
X030600D03*
X031000Y030300D03*
X030600D03*
G54D77*
X024567Y030132D03*
X024882D03*
X025197D03*
X025512D03*
X025827D03*
X026142D03*
X026457D03*
X026772D03*
X027087D03*
X027402D03*
X027717D03*
X028032D03*
X024567Y029817D03*
X024882D03*
X025197D03*
X025512D03*
X025827D03*
X026142D03*
X026457D03*
X026772D03*
X027087D03*
X027402D03*
X027717D03*
X028032D03*
X024567Y029502D03*
X024882D03*
X025197D03*
X025512D03*
X025827D03*
X026142D03*
X026457D03*
X026772D03*
X027087D03*
X027402D03*
X027717D03*
X028032D03*
X024567Y029187D03*
X024882D03*
X025197D03*
X025512D03*
X025827D03*
X026142D03*
X026457D03*
X026772D03*
X027087D03*
X027402D03*
X027717D03*
X028032D03*
X024567Y028872D03*
X024882D03*
X025197D03*
X025512D03*
X027087D03*
X027402D03*
X027717D03*
X028032D03*
X024567Y028557D03*
X024882D03*
X025197D03*
X025512D03*
X027087D03*
X027402D03*
X027717D03*
X028032D03*
X024567Y028242D03*
X024882D03*
X025197D03*
X025512D03*
X027087D03*
X027402D03*
X027717D03*
X028032D03*
X024567Y027927D03*
X024882D03*
X025197D03*
X025512D03*
X027087D03*
X027402D03*
X027717D03*
X028032D03*
X024567Y027612D03*
X024882D03*
X025197D03*
X025512D03*
X025827D03*
X026142D03*
X026457D03*
X026772D03*
X027087D03*
X027402D03*
X027717D03*
X028032D03*
X024567Y027297D03*
X024882D03*
X025197D03*
X025512D03*
X025827D03*
X026142D03*
X026457D03*
X026772D03*
X027087D03*
X027402D03*
X027717D03*
X028032D03*
X024567Y026982D03*
X024882D03*
X025197D03*
X025512D03*
X025827D03*
X026142D03*
X026457D03*
X026772D03*
X027087D03*
X027402D03*
X027717D03*
X028032D03*
X024567Y026667D03*
X024882D03*
X025197D03*
X025512D03*
X025827D03*
X026142D03*
X026457D03*
X026772D03*
X027087D03*
X027402D03*
X027717D03*
X028032D03*
G54D78*
X022326Y033000D03*
Y035000D03*
X020673D03*
Y033000D03*
G54D79*
X047981Y040250D03*
X044418D03*
X047981Y035750D03*
X044418D03*
G54D87*
X053000Y041400D03*
Y038800D03*
Y037100D03*
Y034500D03*
G54D94*
X014785Y048707D03*
X015414D03*
Y047092D03*
X014785D03*
G54D95*
X018250Y044500D03*
Y015500D03*
X052000Y045500D03*
Y014000D03*
X000000Y000000D02*
M02*
