*
*
G04 PADS Layout (Build Number 2005.103.1) generated Gerber (RS-274-X) file*
G04 PC Version=2.1*
*
%IN "medulla.0.pcb"*%
*
%MOIN*%
*
%FSLAX24Y24*%
*
*
*
*
G04 PC Standard Apertures*
*
*
G04 Thermal Relief Aperture macro.*
%AMTER*
1,1,$1,0,0*
1,0,$1-$2,0,0*
21,0,$3,$4,0,0,45*
21,0,$3,$4,0,0,135*
%
*
*
G04 Annular Aperture macro.*
%AMANN*
1,1,$1,0,0*
1,0,$2,0,0*
%
*
*
G04 Odd Aperture macro.*
%AMODD*
1,1,$1,0,0*
1,0,$1-0.005,0,0*
%
*
*
G04 PC Custom Aperture Macros*
*
*
*
*
*
*
G04 PC Aperture Table*
*
%ADD010R,0.05118X0.05118*%
%ADD011C,0.05118*%
%ADD012R,0.05512X0.04724*%
%ADD013O,0.02362X0.06102*%
%ADD014O,0.01772X0.03937*%
%ADD015O,0.03937X0.01772*%
%ADD016O,0.0315X0.01181*%
%ADD017O,0.04X0.043*%
%ADD018O,0.043X0.04*%
%ADD019R,0.06X0.055*%
%ADD020R,0.055X0.06*%
%ADD021R,0.06X0.06*%
%ADD022C,0.06*%
%ADD023R,0.065X0.065*%
%ADD024C,0.065*%
%ADD025C,0.17*%
%ADD026C,0.062*%
%ADD027C,0.09*%
%ADD028O,0.014X0.045*%
%ADD029R,0.03X0.038*%
%ADD031O,0.02X0.014*%
%ADD032O,0.025X0.02*%
%ADD034C,0.01181*%
%ADD035R,0.07874X0.05512*%
%ADD036R,0.08858X0.15748*%
%ADD038C,0.006*%
%ADD039C,0.01*%
%ADD040C,0.03*%
%ADD041C,0.02*%
%ADD042C,0.025*%
%ADD049R,0.126X0.06*%
%ADD092R,0.03937X0.03543*%
%ADD093C,0.25*%
*
*
*
*
G04 PC Copper Outlines (0)*
G04 Layer Name medulla.0.pcb - dark (0)*
%LPD*%
*
*
G04 PC Area=System Text*
G75*
G36*
G01*
X022531Y041829D02*
Y041127D01*
X022510Y040936D01*
X022468Y040787D01*
X022404Y040680D01*
X022319Y040574D01*
X022191Y040510D01*
X022063Y040468D01*
X021765Y040425D01*
X021553Y040446D01*
X021382Y040489D01*
X021255Y040553D01*
X021170Y040638D01*
X021085Y040744D01*
X021042Y040851D01*
X021000Y041000D01*
Y041127D01*
Y041829D01*
X022531D01*
G37*
G74*
*
G75*
G36*
G01*
X021000Y040170D02*
X022531D01*
Y039382D01*
X022510Y039191D01*
X022489Y039063D01*
X022446Y038957D01*
X022361Y038872D01*
X022255Y038829D01*
X022106Y038808D01*
X022000Y038829D01*
X021893Y038872D01*
X021808Y038936D01*
X021744Y039021D01*
X021723Y039085D01*
X021702Y039170D01*
X021659Y039106D01*
X021638Y039063D01*
X021553Y038978D01*
X021446Y038914D01*
X021000Y038680D01*
Y039191D01*
X021489Y039468D01*
X021553Y039510D01*
X021595Y039553D01*
X021638Y039659D01*
Y039702D01*
X021000D01*
Y040170D01*
G37*
G74*
*
G75*
G36*
G01*
X022531Y038531D02*
Y038063D01*
X021382D01*
Y037319D01*
X021000D01*
Y038531D01*
X022531D01*
G37*
G74*
*
G75*
G36*
G01*
X020215Y041360D02*
X020060D01*
X020034D01*
X020008Y041377D01*
X019991Y041394D01*
Y041420D01*
Y041437D01*
X020008Y041455D01*
X020034Y041472D01*
X020060D01*
X020250D01*
X020284D01*
X020318D01*
X020353Y041489D01*
X020362Y041506D01*
X020370Y041532D01*
X020362Y041584D01*
X020327Y041618D01*
X020284Y041627D01*
X020215Y041636D01*
X020060D01*
X020034D01*
X020008Y041653D01*
X019991Y041670D01*
Y041687D01*
Y041713D01*
X020008Y041731D01*
X020034Y041748D01*
X020060D01*
X020387D01*
X020439Y041731D01*
X020456Y041696D01*
X020439Y041662D01*
X020396Y041644D01*
X020387D01*
X020422Y041610D01*
X020439Y041575D01*
X020456Y041498D01*
X020439Y041429D01*
X020387Y041377D01*
X020439Y041308D01*
X020456Y041231D01*
X020448Y041187D01*
X020439Y041153D01*
X020413Y041118D01*
X020387Y041101D01*
X020344Y041084D01*
X020284D01*
X020060D01*
X020034D01*
X020008Y041101D01*
X019991Y041118D01*
Y041144D01*
Y041170D01*
X020008Y041187D01*
X020034Y041196D01*
X020060Y041205D01*
X020258D01*
X020318D01*
X020353Y041222D01*
X020370Y041265D01*
X020353Y041317D01*
X020318Y041343D01*
X020275Y041360D01*
X020215D01*
X020215D01*
G37*
G74*
*
G75*
G36*
G01*
X020189Y040662D02*
Y040886D01*
X020120Y040868D01*
X020086Y040825D01*
X020068Y040774D01*
Y040739D01*
X020086Y040705D01*
X020103Y040670D01*
X020137Y040636D01*
X020146Y040610D01*
X020137Y040584D01*
X020112Y040575D01*
X020068Y040584D01*
X020034Y040618D01*
X020000Y040687D01*
X019991Y040774D01*
X020008Y040868D01*
X020051Y040937D01*
X020129Y040981D01*
X020224Y040998D01*
X020318Y040981D01*
X020387Y040937D01*
X020439Y040868D01*
X020456Y040774D01*
X020448Y040713D01*
X020431Y040662D01*
X020396Y040618D01*
X020353Y040593D01*
X020301Y040575D01*
X020258Y040567D01*
X020224Y040575D01*
X020198Y040593D01*
X020189Y040618D01*
Y040662D01*
X020189D01*
G37*
G74*
*
G75*
G36*
G01*
X020051Y040162D02*
X020068D01*
X020025Y040205D01*
X020000Y040256D01*
X019991Y040308D01*
Y040351D01*
X020008Y040386D01*
X020060Y040446D01*
X020137Y040481D01*
X020232Y040498D01*
X020327Y040481D01*
X020396Y040446D01*
X020439Y040386D01*
X020456Y040308D01*
X020439Y040231D01*
X020413Y040196D01*
X020387Y040162D01*
X020560D01*
X020612Y040144D01*
X020620Y040127D01*
X020629Y040101D01*
X020612Y040067D01*
X020560Y040050D01*
X020060D01*
X020025D01*
X020008Y040067D01*
X019991Y040101D01*
X020008Y040144D01*
X020051Y040162D01*
X020051D01*
G37*
G74*
*
G75*
G36*
G01*
Y039627D02*
X020068D01*
X020025Y039670D01*
X020000Y039722D01*
X019991Y039782D01*
X020008Y039860D01*
X020051Y039912D01*
X020094Y039920D01*
X020155Y039929D01*
X020387D01*
X020413D01*
X020439Y039912D01*
X020456Y039877D01*
X020439Y039834D01*
X020413Y039817D01*
X020387D01*
X020206D01*
X020137Y039808D01*
X020094Y039782D01*
X020077Y039765D01*
Y039739D01*
Y039713D01*
X020094Y039679D01*
X020137Y039644D01*
X020181Y039636D01*
X020250D01*
X020387D01*
X020439Y039618D01*
X020456Y039575D01*
X020439Y039541D01*
X020387Y039524D01*
X020051D01*
X020025D01*
X020008Y039541D01*
X019991Y039575D01*
X020008Y039610D01*
X020051Y039627D01*
X020051D01*
G37*
G74*
*
G75*
G36*
G01*
X020060Y039412D02*
X020560D01*
X020612Y039394D01*
X020620Y039377D01*
X020629Y039360D01*
X020612Y039317D01*
X020586Y039300D01*
X020560D01*
X020060D01*
X020025D01*
X020008Y039317D01*
X019991Y039334D01*
Y039360D01*
Y039377D01*
X020008Y039394D01*
X020060Y039412D01*
X020060D01*
G37*
G74*
*
G75*
G36*
G01*
Y039179D02*
X020560D01*
X020612Y039162D01*
X020620Y039144D01*
X020629Y039127D01*
X020612Y039084D01*
X020586Y039067D01*
X020560D01*
X020060D01*
X020025D01*
X020008Y039084D01*
X019991Y039101D01*
Y039127D01*
Y039144D01*
X020008Y039162D01*
X020060Y039179D01*
X020060D01*
G37*
G74*
*
G75*
G36*
G01*
Y038653D02*
X020025Y038696D01*
X020008Y038739D01*
X019991Y038825D01*
Y038868D01*
X020008Y038903D01*
X020051Y038955D01*
X020086Y038963D01*
X020120Y038972D01*
X020163Y038963D01*
X020198Y038946D01*
X020232Y038912D01*
X020250Y038860D01*
Y038843D01*
X020258Y038808D01*
X020275Y038731D01*
X020293Y038662D01*
X020327Y038670D01*
X020353Y038679D01*
X020362Y038705D01*
X020370Y038748D01*
Y038782D01*
X020362Y038817D01*
X020327Y038851D01*
X020301Y038877D01*
X020293Y038903D01*
X020301Y038937D01*
X020336Y038955D01*
X020362Y038946D01*
X020387Y038929D01*
X020413Y038903D01*
X020439Y038860D01*
X020448Y038808D01*
X020456Y038748D01*
X020448Y038679D01*
X020439Y038627D01*
X020413Y038593D01*
X020379Y038567D01*
X020336Y038550D01*
X020284D01*
X020215D01*
X020155D01*
X020086Y038541D01*
X020051Y038532D01*
X020034D01*
X020008Y038541D01*
X019991Y038584D01*
Y038601D01*
X020008Y038618D01*
X020025Y038636D01*
X020060Y038653D01*
X020060D01*
G37*
G74*
*
G75*
G36*
G01*
X019991Y038360D02*
Y038386D01*
X020008Y038403D01*
X020025Y038412D01*
X020051Y038420D01*
X020077Y038412D01*
X020094Y038403D01*
X020103Y038386D01*
X020112Y038360D01*
X020094Y038317D01*
X020077Y038300D01*
X020051D01*
X020025D01*
X020008Y038317D01*
X019991Y038334D01*
Y038360D01*
X019991D01*
G37*
G74*
*
G75*
G36*
G01*
X020301Y037756D02*
X020241D01*
X020181Y037765D01*
X020094Y037791D01*
X020051Y037825D01*
X020017Y037868D01*
X020000Y037920D01*
X019991Y037972D01*
X020000Y038032D01*
X020025Y038084D01*
X020068Y038127D01*
X020129Y038162D01*
X020206Y038179D01*
X020293Y038187D01*
X020405Y038179D01*
X020491Y038162D01*
X020551Y038127D01*
X020586Y038084D01*
X020612Y038032D01*
X020620Y037972D01*
X020603Y037894D01*
X020560Y037834D01*
X020500Y037791D01*
X020413Y037765D01*
X020301Y037756D01*
X020301D01*
G37*
G74*
*
*
G04 PC Void Outlines (0)*
G04 Layer Name medulla.0.pcb - clear (0)*
%LPC*%
*
*
G04 PC Area=System Text*
G75*
G36*
G01*
X022170Y041361D02*
X021361D01*
Y041234D01*
Y041106D01*
X021382Y041021D01*
X021425Y040978D01*
X021510Y040936D01*
X021595Y040893D01*
X021765D01*
X021957Y040914D01*
X022085Y040978D01*
X022148Y041085D01*
X022170Y041234D01*
Y041361D01*
G37*
G74*
*
G75*
G36*
G01*
X021936Y039702D02*
Y039510D01*
Y039468D01*
X021957Y039382D01*
X022000Y039297D01*
X022085Y039276D01*
X022148D01*
X022191Y039319D01*
X022212Y039382D01*
X022234Y039489D01*
Y039702D01*
X021936D01*
G37*
G74*
*
G75*
G36*
G01*
X020258Y040886D02*
Y040679D01*
X020310Y040687D01*
X020344Y040705D01*
X020362Y040739D01*
X020370Y040782D01*
X020362Y040817D01*
X020344Y040851D01*
X020310Y040877D01*
X020258Y040886D01*
X020258D01*
G37*
G74*
*
G75*
G36*
G01*
X020224Y040386D02*
X020146Y040368D01*
X020112Y040351D01*
X020094Y040334D01*
X020077Y040308D01*
Y040274D01*
Y040248D01*
X020094Y040222D01*
X020112Y040196D01*
X020137Y040179D01*
X020181Y040170D01*
X020224D01*
X020301Y040179D01*
X020353Y040222D01*
X020370Y040282D01*
X020362Y040308D01*
X020353Y040334D01*
X020301Y040368D01*
X020224Y040386D01*
X020224D01*
G37*
G74*
*
G75*
G36*
G01*
Y038662D02*
X020215Y038696D01*
X020206Y038739D01*
X020198Y038782D01*
X020189Y038808D01*
X020172Y038843D01*
X020155Y038851D01*
X020129Y038860D01*
X020103Y038851D01*
X020086Y038843D01*
X020068Y038817D01*
Y038782D01*
X020086Y038722D01*
X020120Y038679D01*
X020155Y038662D01*
X020206D01*
X020224D01*
G37*
G74*
*
G75*
G36*
G01*
X020310Y037868D02*
X020379D01*
X020431Y037877D01*
X020474Y037894D01*
X020508Y037912D01*
X020525Y037937D01*
X020534Y037972D01*
X020517Y038024D01*
X020474Y038050D01*
X020405Y038067D01*
X020310Y038075D01*
X020232D01*
X020181Y038067D01*
X020137Y038050D01*
X020103Y038032D01*
X020086Y038006D01*
X020077Y037972D01*
X020086Y037937D01*
X020103Y037912D01*
X020137Y037886D01*
X020181Y037877D01*
X020232Y037868D01*
X020310D01*
X020310D01*
G37*
G74*
*
*
G04 PC Custom Flashes*
G04 Layer Name medulla.0.pcb - flashes*
%LPD*%
*
*
G04 PC Circuitry*
G04 Layer Name medulla.0.pcb - circuitry*
%LPD*%
*
G54D10*
G01X036000Y020106D03*
Y015606D03*
Y011106D03*
X041500Y020106D03*
Y015606D03*
Y011106D03*
X047000Y020106D03*
Y015606D03*
Y011106D03*
X047500Y024606D03*
Y027856D03*
Y031106D03*
X059181Y011500D03*
Y015000D03*
Y018500D03*
Y022000D03*
Y025500D03*
Y029000D03*
X054681Y048750D03*
X011031Y025500D03*
Y021000D03*
Y016500D03*
Y012000D03*
X049000Y048968D03*
X045000D03*
X041000D03*
X037000D03*
X033000D03*
X029000D03*
X025000D03*
X021000D03*
X011244Y042000D03*
Y038000D03*
Y034000D03*
Y030000D03*
X011500Y048787D03*
X058787Y032500D03*
Y036000D03*
G54D11*
X036000Y020893D03*
Y016393D03*
Y011893D03*
X041500Y020893D03*
Y016393D03*
Y011893D03*
X047000Y020893D03*
Y016393D03*
Y011893D03*
X047500Y025393D03*
Y028643D03*
Y031893D03*
X058393Y011500D03*
X057606D03*
X056818D03*
X058393Y015000D03*
X057606D03*
X056818D03*
X058393Y018500D03*
X057606D03*
X056818D03*
X058393Y022000D03*
X057606D03*
X056818D03*
X058393Y025500D03*
X057606D03*
X056818D03*
X058393Y029000D03*
X057606D03*
X056818D03*
X053893Y048750D03*
X053106D03*
X052318D03*
X011818Y025500D03*
X012606D03*
X013393D03*
X014181D03*
X014968D03*
X011818Y021000D03*
X012606D03*
X013393D03*
X014181D03*
X014968D03*
X011818Y016500D03*
X012606D03*
X013393D03*
X014181D03*
X014968D03*
X011818Y012000D03*
X012606D03*
X013393D03*
X014181D03*
X014968D03*
X049000Y048181D03*
Y047393D03*
Y046606D03*
Y045818D03*
Y045031D03*
X045000Y048181D03*
Y047393D03*
Y046606D03*
Y045818D03*
Y045031D03*
X041000Y048181D03*
Y047393D03*
Y046606D03*
Y045818D03*
Y045031D03*
X037000Y048181D03*
Y047393D03*
Y046606D03*
Y045818D03*
Y045031D03*
X033000Y048181D03*
Y047393D03*
Y046606D03*
Y045818D03*
Y045031D03*
X029000Y048181D03*
Y047393D03*
Y046606D03*
Y045818D03*
Y045031D03*
X025000Y048181D03*
Y047393D03*
Y046606D03*
Y045818D03*
Y045031D03*
X021000Y048181D03*
Y047393D03*
Y046606D03*
Y045818D03*
Y045031D03*
X012031Y042000D03*
X012818D03*
X013606D03*
X014393D03*
X015181D03*
X015968D03*
X016755D03*
X012031Y038000D03*
X012818D03*
X013606D03*
X014393D03*
X015181D03*
X015968D03*
X016755D03*
X012031Y034000D03*
X012818D03*
X013606D03*
X014393D03*
X015181D03*
X015968D03*
X016755D03*
X012031Y030000D03*
X012818D03*
X013606D03*
X014393D03*
X015181D03*
X015968D03*
X016755D03*
X011500Y048000D03*
Y047212D03*
X058000Y032500D03*
X057212D03*
X058000Y036000D03*
X057212D03*
G54D12*
X030533Y028974D03*
X029666D03*
Y028225D03*
X030533D03*
G54D13*
X049250Y039187D03*
X049750D03*
X050250D03*
X050750D03*
Y041312D03*
X050250D03*
X049750D03*
X049250D03*
Y034687D03*
X049750D03*
X050250D03*
X050750D03*
Y036812D03*
X050250D03*
X049750D03*
X049250D03*
G54D14*
X036887Y024728D03*
X037202D03*
X037517D03*
X037832D03*
X038147D03*
X038462D03*
X038777D03*
X039092D03*
X039407D03*
X039722D03*
X040037D03*
X040352D03*
X040667D03*
X040982D03*
X041297D03*
X041612D03*
Y030771D03*
X041297D03*
X040982D03*
X040667D03*
X040352D03*
X040037D03*
X039722D03*
X039407D03*
X039092D03*
X038777D03*
X038462D03*
X038147D03*
X037832D03*
X037517D03*
X037202D03*
X036887D03*
G54D15*
X042271Y025387D03*
Y025702D03*
Y026017D03*
Y026332D03*
Y026647D03*
Y026962D03*
Y027277D03*
Y027592D03*
Y027907D03*
Y028222D03*
Y028537D03*
Y028852D03*
Y029167D03*
Y029482D03*
Y029797D03*
Y030112D03*
X036228D03*
Y029797D03*
Y029482D03*
Y029167D03*
Y028852D03*
Y028537D03*
Y028222D03*
Y027907D03*
Y027592D03*
Y027277D03*
Y026962D03*
Y026647D03*
Y026332D03*
Y026017D03*
Y025702D03*
Y025387D03*
G54D16*
X034200Y029616D03*
Y029872D03*
Y030127D03*
Y030383D03*
X031799D03*
Y030127D03*
Y029872D03*
Y029616D03*
G54D17*
X035200Y034465D03*
Y035135D03*
X038000Y034465D03*
Y035135D03*
X019500Y026665D03*
Y027335D03*
X038400Y038335D03*
Y037665D03*
X034800Y037865D03*
Y038535D03*
X032200Y028265D03*
Y028935D03*
X031400Y028265D03*
Y028935D03*
X035400Y038535D03*
Y037865D03*
X026000Y031165D03*
Y031835D03*
X033800Y013935D03*
Y013265D03*
X026600Y031165D03*
Y031835D03*
G54D18*
X034665Y035800D03*
X035335D03*
X021435Y031800D03*
X020765D03*
X029665Y039800D03*
X030335D03*
X031735Y035800D03*
X031065D03*
X038535Y036400D03*
X037865D03*
X031135Y027400D03*
X030465D03*
X029735Y038000D03*
X029065D03*
X032065Y026200D03*
X032735D03*
X022735Y027400D03*
X022065D03*
X032065Y026800D03*
X032735D03*
X022735Y028800D03*
X022065D03*
G54D19*
X054725Y015000D03*
X053875D03*
Y016000D03*
X054725D03*
Y017500D03*
X053875D03*
X054725Y018500D03*
X053875D03*
Y019500D03*
X054725D03*
Y021000D03*
X053875D03*
X054725Y022000D03*
X053875D03*
Y023000D03*
X054725D03*
Y024500D03*
X053875D03*
X054725Y025500D03*
X053875D03*
Y026500D03*
X054725D03*
Y028000D03*
X053875D03*
X054725Y029000D03*
X053875D03*
Y030000D03*
X054725D03*
X051075Y016500D03*
X051925D03*
Y017500D03*
X051075D03*
Y019000D03*
X051925D03*
Y020000D03*
X051075D03*
Y021500D03*
X051925D03*
Y022500D03*
X051075D03*
Y024000D03*
X051925D03*
Y025000D03*
X051075D03*
Y027500D03*
X051925D03*
Y026500D03*
X051075D03*
Y029000D03*
X051925D03*
Y030000D03*
X051075D03*
X054725Y011500D03*
X053875D03*
Y012500D03*
X054725D03*
Y014000D03*
X053875D03*
G54D20*
X052800Y011075D03*
Y011925D03*
G54D21*
X058000Y046000D03*
X055750D03*
X036000Y022800D03*
Y018300D03*
Y013800D03*
X041500Y022800D03*
Y018300D03*
Y013800D03*
X047000Y022800D03*
Y018300D03*
Y013800D03*
X054250Y043750D03*
X018500Y029000D03*
X016500Y024500D03*
X018500Y040500D03*
X016500Y020000D03*
Y015500D03*
Y011000D03*
X050000Y043500D03*
X046000D03*
X042000D03*
X038000D03*
X034000D03*
X030000D03*
X026000D03*
X018500Y037000D03*
X022000Y043500D03*
X018500Y033000D03*
X049825Y038000D03*
X051175D03*
X042750Y039925D03*
Y038575D03*
X050325Y033500D03*
X051675D03*
X042750Y035425D03*
Y034075D03*
G54D22*
X059000Y046000D03*
X058000Y045000D03*
X059000D03*
X058000Y044000D03*
X059000D03*
X058000Y043000D03*
X059000D03*
X058000Y042000D03*
X059000D03*
X056750Y046000D03*
X055750Y045000D03*
X056750D03*
X055750Y044000D03*
X056750D03*
X055750Y043000D03*
X056750D03*
X055750Y042000D03*
X056750D03*
X037000Y022800D03*
Y018300D03*
Y013800D03*
X042500Y022800D03*
Y018300D03*
Y013800D03*
X048000Y022800D03*
Y018300D03*
Y013800D03*
X054250Y042750D03*
X018500Y030000D03*
Y031000D03*
X016500Y025500D03*
Y026500D03*
X018500Y041500D03*
Y042500D03*
X016500Y021000D03*
Y022000D03*
Y016500D03*
Y017500D03*
Y012000D03*
Y013000D03*
X049000Y043500D03*
X048000D03*
X045000D03*
X044000D03*
X041000D03*
X040000D03*
X037000D03*
X036000D03*
X033000D03*
X032000D03*
X029000D03*
X028000D03*
X025000D03*
X024000D03*
X018500Y038000D03*
Y039000D03*
X021000Y043500D03*
X020000D03*
X018500Y034000D03*
Y035000D03*
X033400Y028400D03*
X028500Y042000D03*
X030500D03*
X032500D03*
X034500D03*
X037500D03*
X039500D03*
X041500D03*
X043500D03*
X034400Y028400D03*
X029500Y042000D03*
X031500D03*
X033500D03*
X035500D03*
X024500Y037000D03*
Y036000D03*
Y035000D03*
Y034000D03*
Y039000D03*
Y038000D03*
X055000Y039000D03*
X024500Y041000D03*
Y040000D03*
X043500Y030000D03*
Y029000D03*
X041500Y032000D03*
Y033000D03*
Y034000D03*
Y035000D03*
X055000Y040000D03*
Y038000D03*
X036500Y042000D03*
X038500D03*
X040500D03*
X042500D03*
X027500D03*
X026500D03*
X025500D03*
X024500Y033000D03*
Y032000D03*
Y031000D03*
X043500D03*
Y028000D03*
G54D23*
X026000Y016000D03*
X031500D03*
G54D24*
X025500Y017000D03*
X024000Y016000D03*
X023500Y017000D03*
X023000Y016000D03*
X022500Y017000D03*
X022000Y016000D03*
X021500Y017000D03*
X031000D03*
X030500Y016000D03*
X030000Y017000D03*
X029500Y016000D03*
X029000Y017000D03*
X027500Y016000D03*
X027000Y017000D03*
G54D25*
X021500Y013500D03*
X031500D03*
G54D26*
X021080Y012000D03*
Y011300D03*
X026330Y012000D03*
Y011300D03*
X026670Y013390D03*
Y012690D03*
X031920Y012000D03*
Y011300D03*
G54D27*
X020400Y014700D03*
X026250Y019200D03*
X032600Y014700D03*
G54D28*
X032675Y023900D03*
X032425D03*
X032175D03*
X031925D03*
X031675D03*
X031425D03*
X031175D03*
X030925D03*
X030675D03*
X030425D03*
X030175D03*
X029925D03*
X029675D03*
X029425D03*
X029175D03*
X028925D03*
X028675D03*
X028425D03*
X028175D03*
X027925D03*
X027675D03*
X027425D03*
X027175D03*
X026925D03*
Y020100D03*
X027175D03*
X027425D03*
X027675D03*
X027925D03*
X028175D03*
X028425D03*
X028675D03*
X028925D03*
X029175D03*
X029425D03*
X029675D03*
X029925D03*
X030175D03*
X030425D03*
X030675D03*
X030925D03*
X031175D03*
X031425D03*
X031675D03*
X031925D03*
X032175D03*
X032425D03*
X032675D03*
X025575Y023900D03*
X025325D03*
X025075D03*
X024825D03*
X024575D03*
X024325D03*
X024075D03*
X023825D03*
X023575D03*
X023325D03*
X023075D03*
X022825D03*
X022575D03*
X022325D03*
X022075D03*
X021825D03*
X021575D03*
X021325D03*
X021075D03*
X020825D03*
X020575D03*
X020325D03*
X020075D03*
X019825D03*
Y020100D03*
X020075D03*
X020325D03*
X020575D03*
X020825D03*
X021075D03*
X021325D03*
X021575D03*
X021825D03*
X022075D03*
X022325D03*
X022575D03*
X022825D03*
X023075D03*
X023325D03*
X023575D03*
X023825D03*
X024075D03*
X024325D03*
X024575D03*
X024825D03*
X025075D03*
X025325D03*
X025575D03*
G54D29*
X057800Y048810D03*
Y048190D03*
X056300Y048810D03*
Y048190D03*
X033800Y011890D03*
Y012510D03*
X059300Y048810D03*
Y048190D03*
G54D31*
X034495Y022945D03*
Y022555D03*
X035005Y022750D03*
X034655Y036905D03*
Y037295D03*
X034145Y037100D03*
X034495Y018445D03*
Y018055D03*
X035005Y018250D03*
X034495Y013945D03*
Y013555D03*
X035005Y013750D03*
X039995Y022945D03*
Y022555D03*
X040505Y022750D03*
X039995Y018445D03*
Y018055D03*
X040505Y018250D03*
X039995Y013945D03*
Y013555D03*
X040505Y013750D03*
X045495Y022945D03*
Y022555D03*
X046005Y022750D03*
X045495Y018445D03*
Y018055D03*
X046005Y018250D03*
X045495Y013945D03*
Y013555D03*
X046005Y013750D03*
G54D32*
X031000Y029800D03*
X030600D03*
X031000Y030300D03*
X030600D03*
G54D34*
X024567Y030132D03*
X024882D03*
X025197D03*
X025512D03*
X025827D03*
X026142D03*
X026457D03*
X026772D03*
X027087D03*
X027402D03*
X027717D03*
X028032D03*
X024567Y029817D03*
X024882D03*
X025197D03*
X025512D03*
X025827D03*
X026142D03*
X026457D03*
X026772D03*
X027087D03*
X027402D03*
X027717D03*
X028032D03*
X024567Y029502D03*
X024882D03*
X025197D03*
X025512D03*
X025827D03*
X026142D03*
X026457D03*
X026772D03*
X027087D03*
X027402D03*
X027717D03*
X028032D03*
X024567Y029187D03*
X024882D03*
X025197D03*
X025512D03*
X025827D03*
X026142D03*
X026457D03*
X026772D03*
X027087D03*
X027402D03*
X027717D03*
X028032D03*
X024567Y028872D03*
X024882D03*
X025197D03*
X025512D03*
X027087D03*
X027402D03*
X027717D03*
X028032D03*
X024567Y028557D03*
X024882D03*
X025197D03*
X025512D03*
X027087D03*
X027402D03*
X027717D03*
X028032D03*
X024567Y028242D03*
X024882D03*
X025197D03*
X025512D03*
X027087D03*
X027402D03*
X027717D03*
X028032D03*
X024567Y027927D03*
X024882D03*
X025197D03*
X025512D03*
X027087D03*
X027402D03*
X027717D03*
X028032D03*
X024567Y027612D03*
X024882D03*
X025197D03*
X025512D03*
X025827D03*
X026142D03*
X026457D03*
X026772D03*
X027087D03*
X027402D03*
X027717D03*
X028032D03*
X024567Y027297D03*
X024882D03*
X025197D03*
X025512D03*
X025827D03*
X026142D03*
X026457D03*
X026772D03*
X027087D03*
X027402D03*
X027717D03*
X028032D03*
X024567Y026982D03*
X024882D03*
X025197D03*
X025512D03*
X025827D03*
X026142D03*
X026457D03*
X026772D03*
X027087D03*
X027402D03*
X027717D03*
X028032D03*
X024567Y026667D03*
X024882D03*
X025197D03*
X025512D03*
X025827D03*
X026142D03*
X026457D03*
X026772D03*
X027087D03*
X027402D03*
X027717D03*
X028032D03*
G54D35*
X022326Y033000D03*
Y035000D03*
X020673D03*
Y033000D03*
G54D36*
X047981Y040250D03*
X044418D03*
X047981Y035750D03*
X044418D03*
G54D38*
X011031Y012000D02*
X011381Y012350D01*
X015430*
X015780Y012000*
X016500*
X033560Y013010D02*
Y012170D01*
X033800Y011930*
Y012510D02*
Y012550D01*
X034685Y013435*
X033560Y013010D02*
X033800Y013250D01*
Y013265*
X034200Y013600D02*
Y013577D01*
X034200D02*
X034495D01*
X034495D02*
Y013555D01*
X033800Y013935D02*
X033820D01*
Y013940*
X034180Y013580*
X034200Y013600*
X035005Y013750D02*
X035035D01*
X036000Y012785*
Y011893*
X034495Y013945D02*
X035055D01*
X035300Y014190*
X038327*
X038327D02*
X038752Y013765D01*
X038752D02*
X040167D01*
X040167D02*
X040312Y013910D01*
X040312D02*
X040688D01*
X040698Y013900*
X041000*
X033800Y011890D02*
Y011930D01*
X036000Y011106D02*
X037000Y012106D01*
Y013800*
X039700Y013550D02*
Y013552D01*
X039700D02*
X039995D01*
X039995D02*
Y013555D01*
X045200Y013550D02*
Y013552D01*
X045200D02*
X045495D01*
X045495D02*
Y013555D01*
X040505Y013750D02*
X040535D01*
X041500Y012785*
Y011893*
X039995Y013945D02*
Y014395D01*
X040200Y014600*
X041500Y011106D02*
X042500Y012106D01*
Y013800*
X053390Y012500D02*
X053875D01*
X053360Y011980D02*
X053362Y011982D01*
X053362D02*
X053847Y011497D01*
X053847D02*
X053875D01*
X053875D02*
Y011500D01*
X052800Y011925D02*
Y011980D01*
X053360*
X052800Y011075D02*
X057181D01*
X057606Y011500*
X046005Y013750D02*
X046035D01*
X047000Y012785*
Y011893*
Y011106D02*
X048000Y012106D01*
Y013800*
X054725Y012500D02*
X054900D01*
Y013200*
X054725Y011500D02*
X055722D01*
X056072Y011850*
X058043*
X058043D02*
X058393Y011500D01*
X054725D02*
Y012500D01*
X011031Y016500D02*
X011381Y016850D01*
X015430*
X015780Y016500*
X016500*
X011031Y021000D02*
X011381Y021350D01*
X015430*
X015780Y021000*
X016500*
X019630Y025390D02*
Y021620D01*
X020325Y020925*
X021040Y020540D02*
X021057D01*
X021057D02*
Y020100D01*
X021057D02*
X021075D01*
X014700Y014140D02*
X015460Y014900D01*
X016627*
X016900Y015172*
X016900D02*
Y025360D01*
X019070Y027530*
X019130*
X021300Y029700*
X021825Y020100D02*
Y018935D01*
X022500Y018260*
Y017000*
X021325Y020100D02*
Y020255D01*
X021850Y020780*
X022150*
X020325Y020100D02*
Y020925D01*
X019825Y020100D02*
X019832D01*
X019832D02*
Y020530D01*
X019832D02*
X019840D01*
X021500Y017000D02*
Y018560D01*
X021575Y018635*
Y020100*
X023307Y020272D02*
Y020100D01*
X023307D02*
X023325D01*
X023069Y020770D02*
X023560D01*
X024075Y020255*
Y020100*
X023069Y020770D02*
X023070Y020100D01*
X023075*
X025760Y020944D02*
X031610D01*
X031990Y020564*
Y020440*
X032175Y020255*
Y020100*
X023307Y020272D02*
X023517Y020482D01*
X028140Y020540D02*
X028157D01*
X028157D02*
Y020100D01*
X028157D02*
X028175D01*
X022790Y020550D02*
X022807D01*
X022807D02*
Y020100D01*
X022807D02*
X022825D01*
X029920Y020570D02*
X029922D01*
X029922D02*
Y020100D01*
X029922D02*
X029925D01*
X029170Y021210D02*
X032895D01*
X032895D02*
X033115Y020990D01*
X022150Y020780D02*
Y020770D01*
X023069*
X023500Y020500D02*
X023517Y020482D01*
X022440Y020540D02*
X022450D01*
X022575Y020415*
Y020100*
X029540Y020500D02*
X029590D01*
X029675Y020415*
Y020100*
X024450Y020510D02*
X024580Y020379D01*
X024580D02*
Y020105D01*
X025575Y020100D02*
X025980D01*
X026700Y020820*
X028459*
X028459D02*
X028599Y020680D01*
X028599D02*
X029110D01*
X025325Y020100D02*
Y020255D01*
X025490Y020420*
X025625*
X025625D02*
X025630Y020415D01*
X025630D02*
X025782Y020567D01*
X025782D02*
X025800Y020550D01*
X025075Y020100D02*
Y020255D01*
X025430Y020610*
Y020614*
X025760Y020944*
X024575Y020100D02*
X024580Y020105D01*
X024325Y020100D02*
Y020365D01*
X024450Y020490*
Y020510*
X023825Y020100D02*
Y018525D01*
X024000Y018350*
Y016000*
X022325Y020100D02*
Y020405D01*
X022440Y020520*
Y020540*
X029425Y020100D02*
Y020415D01*
X029510Y020500*
X029540*
X028925Y020100D02*
Y018075D01*
X030000Y017000*
X028675Y020100D02*
Y017945D01*
X029000Y017620*
Y017000*
X028425Y020100D02*
Y020255D01*
X028610Y020440*
X029175*
X029525Y020790*
X030004*
X030250Y020544*
X027425Y020100D02*
Y020425D01*
X027600Y020600*
X026925Y020100D02*
X026937D01*
X026937D02*
Y020520D01*
X026937D02*
X026950D01*
X023000Y016000D02*
Y018150D01*
X023575Y018725*
Y020100*
X030165Y020459D02*
Y020100D01*
X030175*
X033985Y014198D02*
Y021310D01*
X034015Y021340*
X031420Y020260D02*
Y020100D01*
X031425*
X030250Y020544D02*
X030425Y020720D01*
X030425D02*
X030960D01*
X031160Y020520*
X033115Y020990D02*
X033204Y021080D01*
X033234*
X033420Y021265*
X033420D02*
Y023014D01*
X033420D02*
X033800Y023394D01*
X033800D02*
Y024600D01*
X031420Y020260D02*
X031705Y020545D01*
X030165Y020459D02*
X030250Y020544D01*
X033985Y014198D02*
X034433Y013750D01*
X034433D02*
X034556D01*
X034685Y013621*
Y013435*
X031160Y020520D02*
X031167D01*
X031167D02*
Y020100D01*
X031167D02*
X031175D01*
X034200Y018050D02*
Y018052D01*
X034200D02*
X034495D01*
X034495D02*
Y018055D01*
X031700Y020550D02*
X031705Y020545D01*
X035005Y018250D02*
X035035D01*
X036000Y017285*
Y016393*
X034495Y018445D02*
X034525D01*
X034980Y018900*
X036500*
X032675Y020100D02*
X032835D01*
X033115Y020380*
Y020990*
X032425Y020100D02*
Y020255D01*
X032590Y020420*
X032725*
X032725D02*
X032730Y020415D01*
X032730D02*
X032882Y020567D01*
X032882D02*
X032900Y020550D01*
X031675Y020100D02*
X031687D01*
X031687D02*
Y020550D01*
X031687D02*
X031700D01*
X030925Y020100D02*
Y018725D01*
X031500Y018150*
Y016000*
X030425Y020100D02*
Y020415D01*
X030510Y020500*
X030500Y016000D02*
Y018350D01*
X030675Y018525*
Y020100*
X036000Y015606D02*
X037000Y016606D01*
Y018300*
X036000Y020106D02*
X037000Y021106D01*
Y022800*
X039950Y014900D02*
X044510D01*
X045465Y013945*
X045495*
X039350Y020900D02*
X041290Y018960D01*
X045144*
X045330Y018774*
Y018580*
X045465Y018445*
X045495*
X040200Y018650D02*
X040207Y018642D01*
X038300Y018200D02*
X039030D01*
X039095Y018265*
X040167*
X040167D02*
X040452Y018550D01*
X040452D02*
X040988D01*
X041138Y018700*
X045100*
X039700Y018050D02*
Y018052D01*
X039700D02*
X039995D01*
X039995D02*
Y018055D01*
X045200Y018050D02*
Y018052D01*
X045200D02*
X045495D01*
X045495D02*
Y018055D01*
X040505Y018250D02*
X040535D01*
X041500Y017285*
Y016393*
X039995Y018445D02*
X040010D01*
X040207Y018642*
X041500Y015606D02*
X042500Y016606D01*
Y018300*
X053375Y021485D02*
X053860Y021000D01*
X053875*
X053375Y021485D02*
X053380Y021490D01*
X053370Y021500D02*
X053870Y022000D01*
X053875*
X053370Y021500D02*
X053380Y021490D01*
X052700Y020200D02*
X054000D01*
X054700Y019500*
X054725*
X053350Y015500D02*
X053850Y016000D01*
X053875*
X053230Y019530D02*
X053875D01*
Y019500*
X051550Y018000D02*
X051562Y017987D01*
X051040Y019460D02*
Y019000D01*
X051075*
X051040Y019460D02*
Y020000D01*
X051075*
X053875Y014000D02*
X053880D01*
Y014470*
X051925Y021500D02*
Y021480D01*
X052420*
X051075Y021500D02*
Y021520D01*
X051080*
X051540Y021980*
X051925Y020000D02*
X051950D01*
X053250Y018700*
Y017900*
X051925Y019000D02*
X051990D01*
Y018250*
X051075Y017500D02*
X051562Y017987D01*
X051925Y017500D02*
Y017480D01*
X052420*
X051925Y016500D02*
Y016520D01*
X052600*
X051075Y016500D02*
Y017500D01*
X053875Y018500D02*
X053880D01*
Y017970*
X053875Y017500D02*
X053880D01*
Y017970*
X053875Y015000D02*
X053880D01*
Y014470*
X046005Y018250D02*
X046035D01*
X047000Y017285*
Y016393*
Y015606D02*
X048000Y016606D01*
Y018300*
X047000Y020106D02*
X048000Y021106D01*
Y022800*
X054725Y021000D02*
X054237Y021487D01*
X054237D02*
X054250Y021500D01*
X054500Y016500D02*
X054528D01*
Y016000*
X054725*
Y014000D02*
X056606D01*
X057606Y015000*
X054725Y021000D02*
X056606D01*
X057606Y022000*
X054725Y018500D02*
X055722D01*
X056072Y018850*
X058043*
X058043D02*
X058393Y018500D01*
X054725D02*
Y019500D01*
Y017500D02*
X056606D01*
X057606Y018500*
X054725Y015000D02*
X055722D01*
X056072Y015350*
X058043*
X058043D02*
X058393Y015000D01*
X054725D02*
Y016000D01*
X011031Y025500D02*
X011381Y025850D01*
X015430*
X015780Y025500*
X016500*
X021567Y023737D02*
Y023900D01*
X021567D02*
X021575D01*
X019630Y025390D02*
X021640Y027400D01*
X021640*
X021929Y027690*
X021929D02*
X023298D01*
X023532Y027455*
X023532D02*
X024959D01*
X021567Y023737D02*
X021847Y023457D01*
X019187Y026997D02*
X019502Y026682D01*
X019502D02*
Y026665D01*
X019187Y026997D02*
X019190Y027000D01*
X020460Y027750D02*
X021023Y028313D01*
X021023D02*
Y028477D01*
X021023D02*
X022745Y030200D01*
X022745D02*
X023910D01*
X024210Y030500*
X024623*
X024623D02*
X025593Y031470D01*
X025593D02*
X026798D01*
X027368Y030900*
X028200*
X021840Y023450D02*
X021847Y023457D01*
X021900Y025690D02*
X023192Y026982D01*
X023192D02*
X024567D01*
X021650Y028800D02*
X022065D01*
X019825Y023900D02*
X019837D01*
X019837D02*
Y023470D01*
X019837D02*
X019850D01*
X020075Y023900D02*
Y023235D01*
X020400Y022910*
Y022350*
X020325Y023900D02*
Y024305D01*
X020490Y024470*
Y024770*
X020575Y023900D02*
X020587D01*
X020587D02*
Y023450D01*
X020587D02*
X020600D01*
X020825Y023900D02*
Y023555D01*
X020940Y023440*
X020825Y023900D02*
Y024055D01*
X022840Y026070*
X023970*
X024567Y026667*
X021075Y023900D02*
X021100D01*
Y023585*
X021255Y023430*
X021280*
X021075Y023900D02*
Y024055D01*
X022970Y025950*
X024060*
X024060D02*
X024730Y026619D01*
Y026830*
X024882Y026982*
X021325Y023900D02*
Y024055D01*
X023100Y025830*
X024187*
X024870Y026512*
X024870D02*
Y026667D01*
X024870D02*
X024882D01*
X021575Y023900D02*
Y024055D01*
X023230Y025710*
X024236*
X024236D02*
X025040Y026513D01*
Y026825*
X025197Y026982*
X021825Y023900D02*
Y024055D01*
X023360Y025590*
X024289*
X025197Y026498*
X025197D02*
Y026667D01*
X018500Y029000D02*
X019880Y030380D01*
X023880*
X024500Y031000*
X019500Y027335D02*
Y027320D01*
X020060Y026760*
X020290*
X019500Y026665D02*
X019502D01*
X026300Y026825D02*
Y025382D01*
X026565Y025117*
X026295Y027460D02*
Y028195D01*
X026310Y028210*
X027560Y029870D02*
Y029120D01*
X027560D02*
X027655Y029025D01*
X027775*
X027937Y029187*
X028032*
X024815Y023735D02*
Y023900D01*
X024825*
X022560Y023730D02*
Y023900D01*
X022575*
X023812Y024067D02*
Y023900D01*
X023812D02*
X023825D01*
X028670Y023740D02*
Y023900D01*
X028675*
X024353Y028723D02*
X025048D01*
X025048D02*
X025197Y028872D01*
X024935Y027770D02*
X025040Y027665D01*
X025040D02*
Y027559D01*
X025144Y027455*
X025355*
X025512Y027297*
X024959Y027455D02*
X025117Y027297D01*
X025117D02*
X025197D01*
X026300Y029344D02*
X026457Y029502D01*
X027236Y028391D02*
X027464D01*
X026088Y027891D02*
X026142Y027837D01*
X026142D02*
Y027612D01*
X027551Y028304D02*
X027464Y028391D01*
X027464D02*
X027551Y028478D01*
X029417Y024310D02*
Y023900D01*
X029417D02*
X029425D01*
X029417Y024310D02*
X029670D01*
X029925Y024055*
Y023900*
X023812Y024067D02*
X024042Y024297D01*
X028670Y023740D02*
X029005Y023405D01*
X022610Y024310D02*
X022600Y024300D01*
X022835Y024065*
Y023900*
X027560Y029870D02*
X027659Y029970D01*
X028209*
X028209D02*
X029359Y031120D01*
X029359D02*
X036152D01*
X036152D02*
X037462Y029810D01*
X037462D02*
X039180D01*
X039180D02*
X041713Y027277D01*
X041713D02*
X042271D01*
X024815Y023735D02*
X025100Y023450D01*
X022560Y023730D02*
X022825Y023465D01*
X026295Y027460D02*
X026457Y027297D01*
X025827Y027612D02*
X025818Y027621D01*
X025818D02*
X026088Y027891D01*
X025512Y027927D02*
X025508Y027931D01*
X025508D02*
X025753Y028176D01*
X022830Y024540D02*
X023075Y024295D01*
Y023900*
X029670Y024540D02*
X029675Y024545D01*
X030175Y024045*
Y023900*
X023980Y024640D02*
Y025069D01*
X025362Y026451*
X025362D02*
Y026517D01*
X025362D02*
X025512Y026667D01*
X024010Y027710D02*
X024070Y027770D01*
X024502*
X024502D02*
X024503D01*
X024935*
X023320Y024310D02*
X023322D01*
X023322D02*
Y023900D01*
X023322D02*
X023325D01*
X022390Y028500D02*
Y028880D01*
X023089Y029580*
X023089D02*
X023500D01*
X024270Y030350*
X024850*
X025100Y030600*
X025090Y023440D02*
X025100Y023450D01*
X024300Y023350D02*
X024312D01*
X024312D02*
Y023900D01*
X024312D02*
X024325D01*
X029000Y023400D02*
X029005Y023405D01*
X027300Y024350D02*
X027425Y024225D01*
Y023900*
X023100Y022700D02*
X024004D01*
X025760Y020944*
X022410Y028020D02*
X023989D01*
X024369Y028400*
X024725*
X024882Y028557*
X022810Y023450D02*
X022825Y023465D01*
X026130Y028920D02*
X026300Y029090D01*
Y029344*
X026310Y028210D02*
X026421Y028321D01*
X026795*
X027023Y028093*
X027253*
X027402Y028242*
X024030Y024310D02*
X024042Y024297D01*
X029200Y028950D02*
X029666D01*
X029666D02*
Y028974D01*
X026990Y024360D02*
Y024240D01*
X027175Y024055*
Y023900*
X029410Y024310D02*
X029417D01*
X025790Y028910D02*
X025808D01*
X025808D02*
Y029187D01*
X025808D02*
X025827D01*
X026800Y028550D02*
Y028553D01*
X026800D02*
X027087D01*
X027087D02*
Y028557D01*
X024070Y028550D02*
Y028553D01*
X024070D02*
X024567D01*
X024567D02*
Y028557D01*
X025750Y028180D02*
X025753Y028176D01*
X026080Y027900D02*
X026088Y027891D01*
X026840Y028860D02*
Y028866D01*
X027087*
Y028872*
X026720Y028090D02*
X026882Y027927D01*
X026882D02*
X027087D01*
X023970Y023500D02*
X023990D01*
X024075Y023585*
Y023900*
X028032Y026667D02*
X029062D01*
X029062D02*
X031675Y024055D01*
Y023900*
X027717Y026667D02*
Y026602D01*
X029429Y024890*
X030000*
X030350Y024540*
X027402Y026667D02*
Y026517D01*
X027402D02*
X029380Y024540D01*
X029670*
X027087Y026667D02*
Y025768D01*
X027087D02*
X027495Y025360D01*
X027495D02*
X027620D01*
X028925Y024055*
Y023900*
X026772Y026667D02*
Y025707D01*
X026772D02*
X028425Y024055D01*
Y023900*
X026457Y026667D02*
Y025522D01*
X026457D02*
X027925Y024055D01*
Y023900*
X028032Y026982D02*
Y026970D01*
X028062Y026940*
X029290*
X032175Y024055*
Y023900*
X027717Y026982D02*
X027797D01*
X027797D02*
X027960Y026820D01*
X029160*
X031925Y024055*
Y023900*
X027402Y026982D02*
Y026887D01*
X027402D02*
X027560Y026730D01*
Y026589*
X027560D02*
X029389Y024760D01*
X029389D02*
X029754D01*
X030425Y024089*
Y023900*
X027087Y026982D02*
X027240Y026830D01*
Y025920*
X027310Y025850*
X026772Y026982D02*
X026930Y026825D01*
Y025748*
X026930D02*
X027458Y025220D01*
X027458D02*
X027510D01*
X028675Y024055*
Y023900*
X026457Y026982D02*
X026614Y026825D01*
X026614D02*
Y025615D01*
X026614D02*
X028175Y024055D01*
Y023900*
X026142Y026982D02*
X026300Y026825D01*
X025827Y026982D02*
X025985Y026825D01*
X025512Y026982D02*
X025670Y026825D01*
X028032Y027297D02*
X028282D01*
X028282D02*
X028390Y027190D01*
X029398*
X030838Y025750*
X031120*
X032440Y024430*
X027717Y027297D02*
X027874Y027140D01*
X027874D02*
X028187D01*
X028187D02*
X028257Y027070D01*
X028257D02*
X029339D01*
X030785Y025623*
X030785D02*
X030936D01*
X030936D02*
X031380Y025180D01*
X027402Y027297D02*
X027559Y027140D01*
X027559D02*
Y026929D01*
X027559D02*
X027659Y026830D01*
X027765*
X027765D02*
X027870Y026725D01*
X027870D02*
Y026619D01*
X029479Y025010*
X030494*
X031425Y024079*
Y023900*
X027087Y027297D02*
Y027612D01*
X026772Y027297D02*
X026921Y027148D01*
X026921D02*
X027149D01*
X027149D02*
X027244Y027244D01*
X027244D02*
Y027455D01*
X027244D02*
X027402Y027612D01*
X026142Y027297D02*
X026457D01*
X025827D02*
X025976Y027148D01*
X025976D02*
X026623D01*
X026623D02*
X026772Y027297D01*
X028032Y027612D02*
X028182Y027462D01*
X028341*
X028341D02*
X028493Y027310D01*
X028493D02*
X029490D01*
X029490D02*
X030900Y025900D01*
X030900D02*
X032140D01*
X033490Y024550*
X027717Y027612D02*
X027866Y027761D01*
X027866D02*
X028244D01*
X028244D02*
X028572Y027434D01*
X029566*
X029566D02*
X030800Y026200D01*
X030800D02*
X032065D01*
X027087Y027612D02*
X026772D01*
X026772D02*
X026457D01*
X026457D02*
Y027860D01*
X026510*
X025512Y027612D02*
X025827D01*
X025197D02*
X025355Y027770D01*
X025644*
X026010Y028135*
X026010D02*
Y028400D01*
X028032Y027927D02*
X028432D01*
X028432D02*
X028726Y027634D01*
X029559*
X029559D02*
X030693Y026500D01*
X030693D02*
X032190D01*
X032400Y026290*
Y026000*
X033800Y024600*
X027717Y027927D02*
X027866Y028076D01*
X027866D02*
X028637D01*
X028637D02*
X028927Y027786D01*
X028927D02*
X029599D01*
X029599D02*
X030329Y027057D01*
X030329D02*
X031792D01*
X031792D02*
X032050Y026800D01*
X032065*
X027402Y027927D02*
X027551Y028076D01*
X027551D02*
Y028304D01*
X027087Y027927D02*
X027402Y027612D01*
X025197Y027927D02*
X025512D01*
X028032Y028242D02*
X029650D01*
X029650D02*
X029666Y028225D01*
X027717Y028242D02*
X027874Y028400D01*
X027874D02*
Y028610D01*
X027874D02*
X027978Y028714D01*
X027978D02*
X028638D01*
X028638D02*
X029723Y029800D01*
X030600*
X027087Y028242D02*
X027236Y028391D01*
X025512Y028242D02*
X025687D01*
X025687D02*
X025750Y028180D01*
X025197Y028242D02*
X025512D01*
X028032Y028557D02*
X030077D01*
X030493Y028974*
X030493D02*
X030533D01*
X027717Y028557D02*
Y028647D01*
X027870Y028800*
Y028920*
X027870D02*
X027979Y029030D01*
X028563*
X029833Y030300*
X030600*
X027087Y028557D02*
X027236Y028408D01*
Y028391*
X025512Y028557D02*
Y028872D01*
X025197Y028557D02*
X025355Y028400D01*
X026010*
X025197Y028557D02*
X025346Y028706D01*
X025346D02*
Y029038D01*
X027402Y028872D02*
X027551Y028723D01*
Y028478*
X027402Y028557D02*
X027087Y028872D01*
X027402Y029187*
X025512Y028872D02*
Y028891D01*
X025512D02*
X025790D01*
Y028910*
X027717Y029187D02*
X027874Y029344D01*
X027874D02*
X028638D01*
X028638D02*
X029833Y030540D01*
X034553*
X034703Y030390*
X036321*
X036321D02*
X037301Y029410D01*
X037301D02*
X038762D01*
X038762D02*
X041840Y026332D01*
X041840D02*
X042271D01*
X027087Y029187D02*
X026772D01*
Y029502*
X026457Y029187D02*
X026473D01*
X026473D02*
Y028850D01*
X026473D02*
X026490D01*
X026457Y029187D02*
X026464Y029194D01*
X026765*
X026765D02*
X026772Y029187D01*
X025827D02*
X026142D01*
X025512D02*
X025790Y028910D01*
X025346Y029038D02*
X025197Y029187D01*
X025197D02*
X025355Y029344D01*
X025355D02*
X025670D01*
X025670D02*
X025827Y029502D01*
X028032D02*
X028550D01*
X029707Y030660*
X029707D02*
X034742D01*
X034882Y030520*
X036371*
X036371D02*
X037351Y029540D01*
X037351D02*
X038871D01*
X041763Y026647*
X041763D02*
X042271D01*
X027717Y029502D02*
X027874Y029659D01*
X027874D02*
X028455D01*
X028455D02*
X029575Y030780D01*
X034957*
X034957D02*
X035077Y030660D01*
X035077D02*
X036416D01*
X036416D02*
X037406Y029670D01*
X037406D02*
X039056D01*
X041763Y026962*
X041763D02*
X042271D01*
X026142Y029502D02*
X026300Y029344D01*
X025512Y029502D02*
X025670Y029659D01*
X025670D02*
Y030540D01*
X025197Y029502D02*
X025355Y029659D01*
X025355D02*
Y030505D01*
X028032Y029817D02*
X028356D01*
X029438Y030900*
X029438D02*
X035300D01*
X022735Y028800D02*
X023120D01*
X023128Y028808*
X024268*
X024353Y028723*
X022065Y027400D02*
X022080D01*
Y026990*
X022735Y027400D02*
X022985Y027150D01*
X023744*
X023744D02*
X023754Y027140D01*
X023754D02*
X024725D01*
X024882Y027297*
X022325Y023900D02*
Y024040D01*
X022602Y024317*
X022602D02*
X022610Y024310D01*
X022825Y023900D02*
X022835D01*
X023075D02*
Y023745D01*
X023690Y023130*
X025774*
X026565Y023920*
X026565D02*
Y025117D01*
X023575Y023900D02*
Y024235D01*
X023980Y024640*
X024325Y023900D02*
Y025202D01*
X024325D02*
X025670Y026548D01*
Y026825*
X024575Y023900D02*
Y023665D01*
X024710Y023530*
Y023510*
X024575Y023900D02*
Y025236D01*
X024575D02*
X025827Y026489D01*
X025827D02*
Y026667D01*
X024825Y023900D02*
Y025287D01*
X024825D02*
X025985Y026447D01*
X025985D02*
Y026825D01*
X025075Y023900D02*
Y023761D01*
X025356Y023480*
X025820*
X025075Y023900D02*
Y025338D01*
X026142Y026405*
X026142D02*
Y026667D01*
X025325Y023900D02*
Y024055D01*
X026170Y024900*
X026350*
X025575Y023900D02*
Y024055D01*
X025870Y024350*
X026350*
X026925Y023900D02*
X026937D01*
X026937D02*
Y023460D01*
X026937D02*
X026950D01*
X027675Y023900D02*
X027682D01*
X027682D02*
Y023410D01*
X027682D02*
X027690D01*
X027925Y023900D02*
Y023585D01*
X028080Y023430*
X028090Y023440*
X028175Y023900D02*
Y023745D01*
X028400Y023520*
Y023300*
X029675Y023900D02*
Y023585D01*
X029830Y023430*
X029840Y023440*
X029666Y028225D02*
X029706D01*
X029706D02*
X030125Y027806D01*
X030125D02*
Y027724D01*
X030125D02*
X030450Y027400D01*
X030465*
X035941Y025025D02*
Y025524D01*
X036120Y025702*
X036120D02*
X036228D01*
X035821Y024976D02*
Y025719D01*
X036120Y026017*
X036120D02*
X036228D01*
X031665Y023735D02*
Y023900D01*
X031675*
X031418Y028265D02*
X032200D01*
X033884Y029810D02*
X034090Y029604D01*
X034200*
X033884Y029810D02*
X033946Y029872D01*
X033946D02*
X034200D01*
X031080Y027830D02*
X031061Y027848D01*
X031061D02*
X031418Y028205D01*
X031418D02*
Y028265D01*
X031665Y023735D02*
X031900Y023500D01*
X031446Y029876D02*
X031707Y029616D01*
X031799*
X031446Y029876D02*
X031450Y029880D01*
X035941Y025025D02*
X041207Y019760D01*
X048712*
X048712D02*
X049702Y020750D01*
X049702D02*
X051150D01*
X051900Y020000*
X051925*
X035821Y024976D02*
X041447Y019350D01*
X041447D02*
X048762D01*
X049862Y018250*
X051604*
X051925Y017929*
Y017500*
X030350Y024540D02*
X030675Y024215D01*
Y023900*
X030650Y029400D02*
X031360D01*
X031800Y028960*
Y028909*
X031800D02*
X032109Y028600D01*
X032109D02*
X032469D01*
X033059Y028010*
X035907*
X035907D02*
X036120Y028222D01*
X036228*
X034800Y029500D02*
X035469D01*
X035487Y029482*
X036228*
X033900Y029370D02*
X034270Y029000D01*
X034920*
X035382Y028537*
X035382D02*
X036228D01*
X034530Y029790D02*
X035339D01*
X035339D02*
X035346Y029797D01*
X035346D02*
X036228D01*
X031890Y023490D02*
X031900Y023500D01*
X032440Y024430D02*
X032450Y024440D01*
X032675Y024215*
Y023900*
X031380Y025180D02*
X031921Y024638D01*
X031921D02*
Y024558D01*
X031921D02*
X032425Y024055D01*
Y023900*
X036670Y027820D02*
X037349D01*
X037349D02*
X037759Y027410D01*
X037759D02*
X040056D01*
X041763Y025702*
X041763D02*
X042271D01*
X036900Y027400D02*
X037530Y026770D01*
X040278*
X040278D02*
X041968Y025080D01*
X041968D02*
X043045D01*
X043045D02*
X049525Y031560D01*
X049525D02*
X053272D01*
X057606Y035894*
Y037858*
X057606D02*
X059390Y039642D01*
Y043190*
X032730Y027280D02*
Y026800D01*
X032735*
X035800Y026670D02*
Y026658D01*
X035800D02*
X036228D01*
X036228D02*
Y026647D01*
X030880Y024320D02*
X030902D01*
X030902D02*
Y023900D01*
X030902D02*
X030925D01*
X031080Y027830D02*
Y027400D01*
X031135*
X031150Y023460D02*
X031162D01*
X031162D02*
Y023900D01*
X031162D02*
X031175D01*
X032065Y026800D02*
X032080D01*
X032380Y026500*
X032860*
X034015Y025345*
Y021340*
X032735Y026200D02*
Y026212D01*
X032735D02*
X032762D01*
X032762D02*
X033037Y025937D01*
X033037D02*
X033050Y025950D01*
X031000Y029800D02*
X031025D01*
X031352Y030127*
X031352D02*
X031799D01*
X035005Y022750D02*
X035035D01*
X036000Y021785*
Y020893*
X034495Y022555D02*
X034500D01*
Y022250*
X034495Y022945D02*
X034500D01*
Y023200*
X031425Y023900D02*
Y023585D01*
X031530Y023480*
X031925Y023900D02*
Y023761D01*
X032220Y023466*
Y023465*
X032385Y023300*
X032600*
X032175Y023900D02*
Y023745D01*
X032370Y023550*
X032950*
X033190Y023310*
X031400Y028265D02*
X031418D01*
X036228Y025387D02*
Y025026D01*
X036228D02*
X037870Y023384D01*
X037870D02*
X039722D01*
X039722D02*
X039752Y023355D01*
X040289*
X040289D02*
X040425Y023220D01*
X051180*
X051900Y022500*
X051925*
X036228Y026332D02*
Y026341D01*
X036800*
Y026350*
X036228Y027592D02*
X036336D01*
X036336D02*
X036529Y027400D01*
X036900*
X036228Y027907D02*
X036314D01*
X036460Y027761*
X036460D02*
Y027725D01*
X036460D02*
X036585Y027600D01*
X036585D02*
X036775D01*
X036795Y027620*
X037182*
X037572Y027230*
X040056*
X042086Y025200*
X042720*
X049240Y031720*
X053262*
X056350Y034807*
X056350D02*
Y037382D01*
X058500Y039532*
Y042080*
X059000Y042580*
Y043000*
X036228Y028852D02*
X036626D01*
X036653Y028880*
X036653D02*
X036980D01*
X036228Y029167D02*
Y029158D01*
X036228D02*
X036650D01*
X036650D02*
Y029150D01*
X037832Y024728D02*
Y024620D01*
X037832D02*
X038557Y023894D01*
X038557D02*
X039912D01*
X039912D02*
X039971Y023836D01*
X039971D02*
X040491D01*
X040491D02*
X040606Y023721D01*
X040606D02*
X047254D01*
X049550Y026017*
Y029177*
X051252Y030880*
X051252D02*
X056380D01*
X058000Y032500*
X037517Y024728D02*
Y024620D01*
X037517D02*
X038373Y023764D01*
X038373D02*
X039866D01*
X039866D02*
X039914Y023716D01*
X040441*
X040555Y023601*
X040555D02*
X047699D01*
X047699D02*
X050100Y026002D01*
X050100D02*
X051279D01*
X051279D02*
X051500Y026222D01*
X051500D02*
Y026777D01*
X051722Y027000*
X051722D02*
X052950D01*
X053300Y027350*
X037202Y024728D02*
Y024620D01*
X037202D02*
X038185Y023636D01*
X038185D02*
X039818D01*
X039818D02*
X039859Y023595D01*
X039859D02*
X040390D01*
X040390D02*
X040505Y023481D01*
X048145*
X048145D02*
X050414Y025750D01*
X051540*
X051925Y026135*
Y026500*
X036887Y024728D02*
Y024620D01*
X036887D02*
X037997Y023510D01*
X037997D02*
X039770D01*
X039770D02*
X039805Y023475D01*
X039805D02*
X040340D01*
X040340D02*
X040454Y023361D01*
X048470*
X050606Y025497*
X050606D02*
X051402D01*
X051402D02*
X051900Y025000D01*
X051925*
X030533Y028974D02*
X030985D01*
X030985D02*
X031025Y028935D01*
X031400*
X031799Y029616D02*
X031897D01*
X031897D02*
X032200Y029313D01*
X032200D02*
Y028935D01*
X031799Y029872D02*
Y029861D01*
X032150*
Y029850*
X034200Y029616D02*
Y029604D01*
X040993Y025153D02*
X041303Y024843D01*
X041303D02*
Y024728D01*
X040993Y025153D02*
X041000Y025160D01*
X041800Y028900D02*
Y028876D01*
X042271*
X042271D02*
Y028852D01*
X039650Y023150D02*
X039803Y022996D01*
X039803D02*
Y022880D01*
X039803D02*
X039933Y022750D01*
X039933D02*
X040152D01*
X040152D02*
X040312Y022910D01*
X040312D02*
X040631D01*
X040631D02*
X041131Y022410D01*
X041131D02*
X043710D01*
X044098Y022798*
X045318*
X045465Y022945*
X045495*
X040200Y023140D02*
X040205Y023135D01*
X039590Y024350D02*
X039755Y024184D01*
X039755D02*
X039979D01*
X040084Y024078*
X040084D02*
X040590D01*
X040590D02*
X040707Y023961D01*
X040707D02*
X045446D01*
X045446D02*
X045760Y024275D01*
X046135*
X046215Y024195*
X047088*
X047088D02*
X047500Y024606D01*
X038600Y025450D02*
X041014D01*
X041350Y025114*
Y025098*
X041350D02*
X041612Y024836D01*
X041612D02*
Y024728D01*
X038730Y024120D02*
X039297D01*
X039297D02*
X039367Y024050D01*
X039367D02*
X039934D01*
X040026Y023957*
X040026D02*
X040540D01*
X040540D02*
X040657Y023841D01*
X045681*
X045900Y024060*
X039650Y022550D02*
Y022552D01*
X039650D02*
X039995D01*
X039995D02*
Y022555D01*
X045200Y022550D02*
Y022552D01*
X045200D02*
X045495D01*
X045495D02*
Y022555D01*
X040670Y025130D02*
X040674Y025134D01*
X040674D02*
X040982Y024827D01*
Y024728*
X041850Y027540D02*
Y027566D01*
X042271*
X042271D02*
Y027592D01*
X041770Y027850D02*
Y027878D01*
X041770D02*
X042271D01*
X042271D02*
Y027907D01*
X040505Y022750D02*
X040535D01*
X041500Y021785*
Y020893*
X039995Y022945D02*
X040015D01*
X040205Y023135*
X042271Y029797D02*
X042379D01*
X042379D02*
X042702Y030119D01*
X042271Y029482D02*
X042379D01*
X042379D02*
X042966Y030068D01*
X042271Y029167D02*
Y029183D01*
X042271D02*
X042800D01*
X042800D02*
Y029200D01*
X042271Y028537D02*
X042379D01*
X042379D02*
X042662Y028820D01*
X042662D02*
X042724D01*
X043119Y029215*
X043119D02*
Y029619D01*
X043119D02*
X043500Y030000D01*
X042271Y028222D02*
X042722D01*
X043500Y029000*
X041297Y024728D02*
X041303D01*
X040667D02*
Y024682D01*
X040908Y024441*
X041686*
X042004Y024760*
X042004D02*
X045004D01*
X045004D02*
X046794Y026550D01*
X046794D02*
X048200D01*
X040352Y024728D02*
Y024620D01*
X040531Y024441*
X040738*
X040738D02*
X040858Y024321D01*
X045011*
X045510Y024820*
X040037Y024728D02*
Y024620D01*
X040336Y024320*
X040336D02*
X040689D01*
X040689D02*
X040808Y024201D01*
X045246*
X046044Y025000*
X046044D02*
X047600D01*
X047680Y025080*
X047900*
Y025100*
X039722Y024728D02*
Y024620D01*
X040142Y024199*
X040142D02*
X040639D01*
X040639D02*
X040757Y024081D01*
X040757D02*
X045346D01*
X045346D02*
X045675Y024410D01*
X046450*
X038147Y024728D02*
Y025301D01*
X038147D02*
X038515Y025670D01*
X038515D02*
X041120D01*
X041830Y024960*
X043211*
X049611Y031360*
X053360*
X058000Y036000*
X053042Y026377D02*
X053304Y026640D01*
X053875*
Y026500*
X053042Y026377D02*
X053060Y026360D01*
X053380Y029490D02*
X054190D01*
X054700Y030000*
X054725*
X053950Y027200D02*
X053962Y027212D01*
X053962D02*
X054687Y026487D01*
X054687D02*
X054725D01*
X054725D02*
Y026500D01*
X053360Y023780D02*
X053770Y023370D01*
X054330*
X054700Y023000*
X054725*
X051920Y028230D02*
Y028540D01*
X051925Y028545*
Y029000*
X052480Y023440D02*
X052487Y023447D01*
X053030Y029560D02*
X053144D01*
X053420Y029835*
X053420D02*
Y029935D01*
X053485Y030000*
X053875*
X053840Y028500D02*
Y028000D01*
X053875*
X053840Y028500D02*
Y029000D01*
X053875*
X053390Y026420D02*
Y025960D01*
X053850Y025500*
X053875*
X051540Y022020D02*
X051520Y022000D01*
X051540Y021980*
X051075Y029000D02*
Y030000D01*
Y026500D02*
Y027500D01*
X051925Y026500D02*
Y026450D01*
X052450*
X051925Y027500D02*
Y027450D01*
X052450*
X051075Y027500D02*
X051090D01*
Y028210*
X051925Y025000D02*
X052530D01*
X053930Y023600*
X051925Y024000D02*
X051935D01*
X052487Y023447*
X051075Y024000D02*
X051100D01*
X051900Y023200*
X053100*
X051075Y024000D02*
Y025000D01*
Y022500D02*
Y022480D01*
X051080*
X051540Y022020*
X051925Y022500D02*
Y022327D01*
X051925D02*
X052450D01*
X052450D02*
Y022300D01*
X053875Y024500D02*
Y025500D01*
Y023000D02*
X053880D01*
Y022540*
X046005Y022750D02*
X046035D01*
X047000Y021785*
Y020893*
X054200Y028500D02*
X054700Y028000D01*
X054725*
Y029000D02*
X055722D01*
X056072Y029350*
X058043*
X058043D02*
X058393Y029000D01*
X054725D02*
Y030000D01*
Y028000D02*
X056606D01*
X057606Y029000*
X054725Y025500D02*
X055722D01*
X056072Y025850*
X058043*
X058043D02*
X058393Y025500D01*
X054725D02*
Y026500D01*
Y024500D02*
X056606D01*
X057606Y025500*
X054725Y022000D02*
X055722D01*
X056072Y022350*
X058043*
X058043D02*
X058393Y022000D01*
X054725D02*
Y023000D01*
X012450Y033650D02*
X015618D01*
X015618D02*
X015968Y034000D01*
X013300Y032400D02*
X013570Y032130D01*
X016881*
X016881D02*
X017141Y031870D01*
X017141D02*
X018103D01*
X018103D02*
X020033Y033800D01*
X020033D02*
X022800D01*
X011244Y030000D02*
X011594Y030350D01*
X017245*
X017245D02*
X017595Y030000D01*
X017595D02*
X018500D01*
X012818Y034000D02*
X013188Y034370D01*
X013188D02*
X015620D01*
X011244Y034000D02*
X011834Y034590D01*
X017090*
X017680Y034000*
X018500*
X014000Y031800D02*
X016748D01*
X016798Y031750*
X018159*
X018159D02*
X019779Y033370D01*
X019779D02*
X022800D01*
X022950Y033220*
Y033000*
X019250Y031530D02*
X019730Y031050D01*
X023382*
X023832Y031500*
X024568*
X024568D02*
X025818Y032750D01*
X025818D02*
X027750D01*
X020740Y035890D02*
X023310D01*
X023810Y036390*
X025138*
X025138D02*
X025418Y036110D01*
X025418D02*
X026705D01*
X026705D02*
X027135Y036540D01*
X027135D02*
X027720D01*
X027860Y036400*
X029600*
X016400Y031550D02*
X018159D01*
X018159D02*
X018479Y031870D01*
X018479D02*
X020181D01*
X020181D02*
X020541Y031510D01*
X020541D02*
X020900D01*
X021100Y031709*
X021100D02*
Y031890D01*
X021569Y032360*
X021569D02*
X022665D01*
X023869Y033564*
X023869D02*
X024064D01*
X024064D02*
X024500Y034000D01*
X017750Y032350D02*
Y032977D01*
X018196Y033423*
X019436*
X019436D02*
X020063Y034050D01*
X020063D02*
X023550D01*
X024500Y035000*
X020100Y034600D02*
Y035223D01*
X020396Y035520*
X020396D02*
X023310D01*
X023790Y036000*
X024500*
X017700Y030550D02*
X017981Y030831D01*
Y031032*
X017981D02*
X018698Y031750D01*
X019470*
X020050Y031170*
X022716*
X024046Y032500*
X024551*
X024551D02*
X025243Y033192D01*
X025243D02*
Y033193D01*
X025243D02*
X025750Y033700D01*
X020140Y035770D02*
X020480Y036110D01*
X022831*
X022831D02*
X024127Y037405D01*
X024127D02*
Y037627D01*
X024500Y038000*
X017520Y032090D02*
Y032916D01*
X017520D02*
X018183Y033580D01*
X018631*
X018631D02*
X019410Y034358D01*
Y035344*
X020295Y036230*
X020295D02*
X022781D01*
X022781D02*
X023910Y037358D01*
Y038410*
X024500Y039000*
X020270Y031390D02*
X022354D01*
X024090Y033125*
X024090D02*
Y033141D01*
X024090D02*
X024448Y033500D01*
X025017*
X025017D02*
X025437Y033920D01*
X025437D02*
X026501D01*
X027291Y033130*
X032885*
X033385Y032630*
X035384*
X035531Y032777*
Y032901*
X035700Y033070*
X020090Y036350D02*
X021920D01*
X022710Y037140*
X023352*
X023500Y037287*
X023500D02*
Y040000D01*
X024500Y041000*
X019170Y032450D02*
X019720Y033000D01*
X020673*
X021700Y035150D02*
X022326D01*
X022326D02*
Y035000D01*
X021435Y031800D02*
X021840D01*
X020673Y033000D02*
Y032408D01*
X020765Y032316*
Y031800*
X020673Y035000D02*
X020700D01*
Y034300*
X025355Y030505D02*
X026000Y031150D01*
Y031165*
X025670Y030540D02*
X025754Y030625D01*
X025754D02*
X026075D01*
X026600Y031150*
Y031165*
X027200Y031450D02*
X028350Y032600D01*
X032200*
X027930Y031630D02*
X028540Y032240D01*
X036094*
X037260Y033405*
X037260D02*
Y039010D01*
X027500Y031200D02*
X028367D01*
X029277Y032110*
X036133*
X036133D02*
X037430Y033406D01*
Y035974*
X037430D02*
X037500Y036044D01*
X037500D02*
Y038000D01*
X026950Y037450D02*
X029569D01*
X030109Y036910*
X032300*
X027500Y036320D02*
X027720D01*
X027930Y036110*
X032243*
X032403Y035950*
X034050*
X025980Y036330D02*
X026475D01*
X026805Y036660*
X029651*
X030061Y036250*
X032800*
X026450Y035250D02*
X027155D01*
X027425Y035520*
X030376*
X030376D02*
X030546Y035350D01*
X030546D02*
X032800D01*
X029650Y034650D02*
X033792D01*
X033892Y034750*
X034500*
X029430Y033500D02*
X033730D01*
X034160Y033070*
X029250Y034700D02*
X029730Y034220D01*
X034620*
Y034200*
X027850Y035150D02*
X029188D01*
X029188D02*
X029258Y035080D01*
X029258D02*
X030949D01*
X030949D02*
X030969Y035100D01*
X030969D02*
X032300D01*
X028250Y034800D02*
X029050Y034000D01*
X034350*
X025750Y033700D02*
X026460Y032990D01*
X032484*
X032484D02*
X033094Y032380D01*
X033094D02*
X035984D01*
X036201Y032597*
Y032651*
X036440Y032890*
X022370Y036450D02*
X022832D01*
X023700Y037317*
X023700D02*
Y039200D01*
X024500Y040000*
X025460Y032070D02*
X025780D01*
X026000Y031850*
Y031835*
X028032Y030132D02*
X029210Y031310D01*
X031135*
X031795Y031970*
X034749*
X034749D02*
X034769Y031950D01*
X034769D02*
X036900D01*
X024500Y034000D02*
X025120D01*
X025160Y034040*
X027218*
X027988Y033270*
X033285*
X033705Y032850*
X035300*
X024500Y035000D02*
X025060Y034440D01*
X027218*
X027928Y033730*
X035880*
X036600Y034450*
X024500Y036000D02*
X025570Y034930D01*
X028005*
X028095Y035020*
X028741*
X028821Y034940*
X030910*
X031030Y034820*
X033792*
X033942Y034970*
X034761*
X034761D02*
X034931Y034800D01*
X034931D02*
X035700D01*
X026000Y031835D02*
X026600D01*
X035285Y035440D02*
Y035800D01*
X035335*
X036138Y032838D02*
Y033288D01*
X036138D02*
X036815Y033965D01*
X033885Y038045D02*
Y037665D01*
X034145Y037405*
X033833Y030247D02*
X033953Y030127D01*
X033953D02*
X034200D01*
X033833Y030247D02*
X033953Y030368D01*
X034200*
X034200D02*
Y030383D01*
X033640Y030030D02*
X033627Y030042D01*
X033627D02*
X033833Y030247D01*
X035285Y035440D02*
X035500D01*
X035900Y032600D02*
X036138Y032838D01*
X030000Y037700D02*
X030012Y037712D01*
X030100Y037400D02*
X032785D01*
X035915Y040530*
X036970*
X034550Y030100D02*
X035347D01*
X035359Y030112*
X036228*
X032750Y031750D02*
X036017D01*
X036017D02*
X036887Y030879D01*
X036887D02*
Y030771D01*
X033850Y037100D02*
X034145D01*
X034100Y037900D02*
X034390D01*
X034425Y037865*
X034800*
X036000Y034630D02*
X036215Y034845D01*
X035930Y034230D02*
X036335Y034635D01*
X037990Y035780D02*
X037995D01*
Y035135*
X038000*
X033640Y030030D02*
X033652Y030042D01*
X033884Y029810*
X035040Y033950D02*
X035200Y034110D01*
Y034465*
X033880Y035410D02*
X034270Y035800D01*
X034665*
X030580Y035820D02*
Y035810D01*
X031065*
Y035800*
X037740Y030200D02*
X037751D01*
Y030415*
X037786Y030450*
X037790*
X037821Y030481*
Y030771*
X037821D02*
X037832D01*
X031000Y030300D02*
X031083Y030383D01*
X031083D02*
X031799D01*
X034145Y037100D02*
Y037405D01*
X034655Y037295D02*
Y037297D01*
X034655D02*
X034940D01*
X034940D02*
Y037300D01*
X034655Y036905D02*
X035164D01*
X036815Y035254*
Y033965*
X034800Y037865D02*
X035400D01*
X037865Y036400D02*
X037964D01*
Y035780*
X037990*
X031735Y035800D02*
X032070D01*
X032300Y035570*
X035200Y035135D02*
X035490D01*
X035500Y035145*
Y035440*
X037202Y030771D02*
Y030879D01*
X037202D02*
X037700Y031377D01*
Y034200*
X037517Y030771D02*
Y030879D01*
X037517D02*
X037990Y031352D01*
Y033745*
X038290Y034045*
Y035745*
X031799Y030127D02*
X032806D01*
X032806D02*
X033050Y029884D01*
Y028750*
X033400Y028400*
X031799Y030383D02*
X032719D01*
X032719D02*
X033430Y029673D01*
X033430D02*
Y029370D01*
X034400Y028400*
X038777Y030771D02*
Y031926D01*
X038777D02*
X038875Y032023D01*
X041110Y031838D02*
Y032610D01*
X041500Y033000*
X041279Y030645D02*
Y030771D01*
X041279D02*
X041297D01*
X038203Y036493D02*
Y035831D01*
X038203D02*
X038290Y035745D01*
X038203Y036493D02*
X038478Y036768D01*
X038478D02*
X038568D01*
X038568D02*
X038800Y037000D01*
X041279Y030645D02*
X041517Y030407D01*
X041110Y031838D02*
X041388Y031560D01*
X042013*
X042013D02*
X042235Y031338D01*
X042235D02*
Y030830D01*
X038900Y030050D02*
X039180D01*
X039180D02*
X039230Y030000D01*
X039230D02*
X041861D01*
X041973Y030112*
X042271*
X038380Y033830D02*
Y032048D01*
X038380D02*
X038462Y031965D01*
X038462D02*
Y030771D01*
X038650Y034000D02*
Y033540D01*
X038875Y033315*
Y032023*
X042000Y030900D02*
X042115Y031015D01*
X040600Y035400D02*
X041849D01*
X041849D02*
X042499Y034750D01*
X042499D02*
X043089D01*
X043650Y034189*
Y033507*
X043650D02*
X046051Y031106D01*
X047500*
X040060Y036110D02*
X040508Y036558D01*
X040508D02*
Y036682D01*
X040508D02*
X040935Y037110D01*
X040935D02*
X042810D01*
X043220Y036700*
X038340Y037260D02*
X038370D01*
Y037665*
X038400*
X041500Y030390D02*
X041517Y030407D01*
X038000Y034060D02*
Y034465D01*
X041500Y035000D02*
X042067Y034432D01*
X042067D02*
Y033815D01*
X042067D02*
X042966Y032917D01*
X042966D02*
Y030068D01*
X041500Y034000D02*
X042702Y032797D01*
X042702D02*
Y030119D01*
X041500Y032000D02*
X041799Y031700D01*
X041799D02*
X042042D01*
X042042D02*
X042370Y031373D01*
Y030112*
X038535Y036400D02*
Y036397D01*
X038535D02*
X038840D01*
X038840D02*
X038925Y036312D01*
X038925D02*
X039140D01*
X039140D02*
Y036310D01*
X038147Y030771D02*
X038148D01*
X038148D02*
Y031200D01*
X038148D02*
X038150D01*
X039092Y030771D02*
Y034641D01*
X039092D02*
X041020Y036569D01*
Y036890*
X039407Y030771D02*
Y034681D01*
X041020Y036293*
X041020D02*
X041033D01*
X041033D02*
X041460Y036720D01*
X039722Y030771D02*
Y034826D01*
X040785Y035890*
X040785D02*
X041160D01*
X041670Y036400*
X040037Y030771D02*
Y030879D01*
X040037D02*
X040572Y031415D01*
X041989*
X042115Y031289*
Y031015*
X040352Y030771D02*
Y030663D01*
X040895Y030120*
X040895D02*
X041800D01*
X042150Y030470*
X040667Y030771D02*
Y030879D01*
X040667D02*
X040987Y031200D01*
X041900*
X040982Y030771D02*
X040986D01*
X040986D02*
Y030340D01*
X040990*
X041612Y030771D02*
X041807D01*
X041807D02*
X041894Y030685D01*
X042089*
X042235Y030830*
X042271Y030112D02*
X042370D01*
X051075Y030000D02*
X051100D01*
X051470Y030370*
X052630*
X053140Y029860*
X051925Y030000D02*
X051950D01*
X053300Y028650*
Y027350*
X050250Y034687D02*
X050275D01*
Y034200*
X050300*
X011244Y038000D02*
X011594Y038350D01*
X017330*
X017680Y038000*
X018500*
X013606Y042000D02*
X014560Y041046D01*
Y040630*
X011244Y042000D02*
Y041992D01*
X011244D02*
X011251D01*
X011251D02*
X011618Y042360D01*
X017640*
X018500Y041500*
X017000Y045800D02*
X017434D01*
X017434D02*
X017474Y045840D01*
X017474D02*
X019044D01*
X019044D02*
X020459Y044425D01*
X020459D02*
X025910D01*
X026050Y044285*
X036229*
X036229D02*
X036344Y044400D01*
X036344D02*
X042300D01*
X014393Y042000D02*
X014823Y041570D01*
X014823D02*
X015280D01*
X021000Y045818D02*
X022138Y044680D01*
X022138D02*
X025460D01*
X025460D02*
X025670Y044890D01*
X025670D02*
X027962D01*
X027962D02*
X028172Y044680D01*
X028172D02*
X029730D01*
X030820Y045770*
X025450Y044200D02*
X025910D01*
X026090Y044020*
X032031*
X032031D02*
X032560Y043491D01*
X032560D02*
Y042940D01*
X033500Y042000*
X025100Y041600D02*
X030841D01*
X030841D02*
X030911Y041670D01*
X030911D02*
X031287D01*
X031287D02*
X031347Y041610D01*
X031347D02*
X034690D01*
X035080Y042000*
X035500*
X026000Y041250D02*
X026600Y040650D01*
X035400*
X026300Y040050D02*
X026730Y040480D01*
X033120*
X033120D02*
X033350Y040250D01*
X033350D02*
X034950D01*
X027000Y040100D02*
X028440D01*
X028700Y040360*
X031686*
X031686D02*
X032046Y040000D01*
X032046D02*
X034550D01*
X028310Y038810D02*
X030120D01*
X030180Y038870*
X033349*
X033349D02*
X033539Y039060D01*
X033539D02*
X034130D01*
X028200Y039520D02*
X028967D01*
X028987Y039500*
X033800*
X028870Y039270D02*
X029285D01*
X029325Y039310*
X032754*
X032754D02*
X032814Y039250D01*
X032814D02*
X033050D01*
X029580Y039060D02*
X031100D01*
X031130Y039090*
X032650*
X029180Y039850D02*
Y039825D01*
X029665*
Y039800*
X028660Y038000D02*
X029065D01*
X024500Y040000D02*
X025755Y038744D01*
X025755D02*
Y038340D01*
X025755D02*
X026870Y037225D01*
X029616*
X029616D02*
X030147Y036695D01*
X032442*
X032452Y036705*
X035194*
X035194D02*
X036335Y035564D01*
X036335D02*
Y034635D01*
X024500Y038000D02*
X024960Y037539D01*
X024960D02*
X025567D01*
X025567D02*
X026137Y036970D01*
X029518*
X030033Y036455*
X032647*
X032647D02*
X032657Y036465D01*
X032657D02*
X035095D01*
X036000Y035560*
Y034940*
X024500Y039000D02*
X026404Y037095D01*
X026404D02*
X029569D01*
X029569D02*
X030090Y036575D01*
X032545*
X032555Y036585*
X035144*
X035144D02*
X036215Y035514D01*
X036215D02*
Y034845D01*
X028500Y042000D02*
X029600Y043100D01*
X032300*
X029735Y038000D02*
Y037987D01*
X029735D02*
X029737D01*
X029737D02*
X030012Y037712D01*
X025000Y045818D02*
X028106D01*
X028106D02*
X028500Y046212D01*
X028500D02*
X030412D01*
X030412D02*
X031070Y046870D01*
X034522Y038227D02*
X034807Y038512D01*
X034807D02*
Y038535D01*
X034522Y038227D02*
X034530Y038220D01*
X030335Y039800D02*
X030002Y040132D01*
X030002D02*
X030010Y040140D01*
X033885Y038045D02*
X036059Y040220D01*
X036059D02*
X040271D01*
X040271D02*
X042000Y041948D01*
Y042051*
X042000D02*
X042348Y042400D01*
X042808*
X043218Y042810*
X052561*
X052561D02*
X053011Y042360D01*
X053011D02*
X054485D01*
X055625Y043500*
X056250*
X056750Y044000*
X036970Y040530D02*
X039581D01*
X039581D02*
X041000Y041948D01*
Y042051*
X041000D02*
X041468Y042520D01*
X042545*
X042545D02*
X042975Y042950D01*
X042975D02*
X052714D01*
X052714D02*
X052937Y043173D01*
X052937D02*
X054923D01*
X055750Y044000*
X037750Y040800D02*
X038851D01*
X038851D02*
X040000Y041948D01*
Y042051*
X040000D02*
X040743Y042794D01*
X040743D02*
X042640D01*
X042640D02*
X042935Y043090D01*
X042935D02*
X051501D01*
X051737Y043326*
X051737D02*
X054553D01*
X054553D02*
X055000Y043772D01*
X055000D02*
Y044250D01*
X055750Y045000*
X037260Y039010D02*
X037780D01*
X038050Y039280*
X040501*
X043076Y041855*
X043076D02*
Y042128D01*
X043076D02*
X043478Y042530D01*
X050350*
X050880Y042000*
X055750*
X037500Y038000D02*
X040887D01*
X040887D02*
X040937Y038050D01*
X040937D02*
X043550D01*
X030750Y038650D02*
X032800D01*
X035200Y038900D02*
X035840Y039540D01*
X040591*
X040591D02*
X042923Y041871D01*
X042923D02*
Y042144D01*
X042923D02*
X043448Y042670D01*
X043448D02*
X051455D01*
X051455D02*
X051885Y042240D01*
X051885D02*
X054986D01*
X054986D02*
X055246Y042500D01*
X055246D02*
X056250D01*
X056750Y043000*
X031200Y041450D02*
X035501D01*
X035501D02*
X036000Y041948D01*
Y042051*
X036000D02*
X036858Y042910D01*
X038286*
X039461Y044085*
X051835*
X052170Y043750*
X054250*
X036500Y042000D02*
X037090Y042590D01*
X038176*
X038676Y043090*
X042610*
X037500Y042000D02*
X037877Y042377D01*
X038214*
X038587Y042750*
X040300*
X035400Y038535D02*
Y038500D01*
X035800*
X034800Y038535D02*
X034807D01*
X041500Y045950D02*
X042024Y045425D01*
X042024D02*
X046677D01*
X046677D02*
X047071Y045818D01*
X047071D02*
X049000D01*
X040200Y040800D02*
X040738Y041338D01*
X040838*
X041500Y042000*
X038400Y045550D02*
X038670D01*
X040120Y047000*
X046677*
X046677D02*
X047071Y047393D01*
X047071D02*
X049000D01*
X041200Y039600D02*
X042288Y040688D01*
Y040788*
X043500Y042000*
X038300Y038920D02*
X038317D01*
X038317D02*
Y038702D01*
X038317D02*
X038350Y038670D01*
X038352*
X038352D02*
X038382Y038640D01*
X038382D02*
Y038335D01*
X038382D02*
X038400D01*
X050250Y039187D02*
X050275D01*
Y038600*
X050300*
X059000Y044000D02*
Y043580D01*
X059390Y043190*
X014770Y046720D02*
Y047092D01*
X014770D02*
X014785D01*
X014770Y046720D02*
Y045775D01*
X014770D02*
X017545Y043000D01*
X017545D02*
X023051D01*
X023051D02*
X025490Y040561D01*
X025490D02*
Y040555D01*
X025490D02*
X027605Y038440D01*
X027605D02*
X029050D01*
X029400Y038090*
Y037795*
X029400D02*
X030045Y037150D01*
X030045D02*
X032930D01*
X033200Y036880*
X034190*
X034215Y036905*
X034655*
X017200Y046110D02*
X019184D01*
X019184D02*
X020739Y044555D01*
X025828*
X026043Y044770*
X027223*
X027223D02*
X027486Y044507D01*
X027486D02*
X030060D01*
X030060D02*
X030322Y044770D01*
X030322D02*
X031653D01*
X031860Y044562*
X031860D02*
X041034D01*
X041034D02*
X041171Y044700D01*
X041400*
X014785Y047092D02*
Y048707D01*
X015414Y047092D02*
Y048707D01*
X015414D02*
X015434D01*
X015434D02*
X016100Y048041D01*
X016100D02*
Y044750D01*
X021000Y046606D02*
X022136Y045470D01*
X030172*
X030172D02*
X030862Y046160D01*
X030862D02*
X031560D01*
X021000Y047393D02*
X022181Y046212D01*
X022181D02*
X026039D01*
X026039D02*
X026202Y046050D01*
X027630*
X021000Y048181D02*
X022928D01*
X023322Y047787*
X026132*
X026132D02*
X026650Y047270D01*
X027200Y046300D02*
X027900Y047000D01*
X029995*
X029995D02*
X030465Y047470D01*
X030465D02*
X032584D01*
X032654Y047400*
X033000*
Y047393*
X026640Y046860D02*
X028315Y048535D01*
X030717*
X030717D02*
X031071Y048181D01*
X031071D02*
X033000D01*
X025000Y046606D02*
X027263D01*
X028407Y047750*
X031300*
X036654Y046749D02*
Y046164D01*
X036654D02*
X037000Y045818D01*
X036654Y046749D02*
X036904Y047000D01*
X036904D02*
X037227D01*
X038042Y047815*
X042235*
X042750Y047300*
X036600Y047800D02*
X037227D01*
X038747Y049320*
X043011*
X043011D02*
X043756Y048574D01*
X043756D02*
X046677D01*
X046677D02*
X047071Y048181D01*
X047071D02*
X049000D01*
X037000Y046606D02*
X038276Y045330D01*
X038670*
X039590Y046250*
X043550*
X044500Y046000D02*
X044712Y046212D01*
X044712D02*
X046677D01*
X046677D02*
X047071Y046606D01*
X047071D02*
X049000D01*
X039000Y046300D02*
X039650Y046950D01*
X039850*
X040500Y047600*
X038350Y048500D02*
X039697D01*
X039732Y048535*
X043006*
X043006D02*
X044148Y047393D01*
X044148D02*
X045000D01*
X053106Y048750D02*
X053456Y049100D01*
X054331*
X054681Y048750*
X056000Y048500D02*
X056007Y048507D01*
X056007D02*
X056300Y048215D01*
Y048190*
X057500Y048500D02*
X057507Y048507D01*
X057507D02*
X057800Y048215D01*
Y048190*
X059000Y048500D02*
X059007Y048507D01*
X059007D02*
X059300Y048215D01*
Y048190*
X058800Y048800D02*
X059300D01*
Y048810*
X057300Y048800D02*
X057800D01*
Y048810*
X055800Y048800D02*
X056300D01*
Y048810*
G54D39*
X030533Y028225D02*
Y028253D01*
X030533D02*
X030600D01*
X030600D02*
X031052Y027802D01*
X031080Y027830*
G54D40*
X043400Y035500D02*
X044418D01*
X044418D02*
Y035750D01*
X043400Y036300D02*
X044418D01*
X044418D02*
Y035750D01*
X042750Y034075D02*
Y034100D01*
X043400*
X042750Y035425D02*
Y035985D01*
X043065Y036300*
X043400*
X042750Y035425D02*
Y035500D01*
X043400*
X044418Y035750D02*
Y035800D01*
X043500Y040800D02*
X044418D01*
X044418D02*
Y040250D01*
X043500Y039900D02*
X044418D01*
X044418D02*
Y040250D01*
X042750Y038575D02*
Y038600D01*
X043400*
X042750Y039925D02*
Y039900D01*
X043500*
X042750Y039925D02*
Y040435D01*
X043115Y040800*
X043500*
X044418Y040250D02*
Y040300D01*
G54D41*
X051675Y033500D02*
Y033531D01*
X051706*
X049753Y035750D02*
X052200D01*
X053000Y036550*
Y037100*
X051178Y034078D02*
X051200Y034100D01*
X052200Y034000D02*
X052192Y034007D01*
X052192D02*
X052685Y034500D01*
X053000*
X051178Y034078D02*
X051168Y034068D01*
X051168D02*
X051706Y033531D01*
X049300Y034100D02*
X049900Y033500D01*
X050325*
X048700Y034700D02*
X049250D01*
Y034687*
X053000Y033900D02*
Y034500D01*
X053900Y033900D02*
X053907Y033907D01*
X050700Y037300D02*
X050742D01*
Y036812*
X050742D02*
X050750D01*
X050200Y037300D02*
X050242D01*
Y036812*
X050242D02*
X050250D01*
X049700Y037300D02*
X049742D01*
Y036812*
X049742D02*
X049750D01*
X049200Y037300D02*
X049242D01*
Y036812*
X049242D02*
X049250D01*
X053000Y034500D02*
X053315D01*
X053907Y033907*
X047981Y035750D02*
X049753D01*
X050750Y034687D02*
Y034507D01*
X050750D02*
X051178Y034078D01*
X050750Y034687D02*
Y034700D01*
X051300*
X049750Y034687D02*
X049753D01*
Y035750*
X049250Y034687D02*
X049257D01*
X049257D02*
Y034100D01*
X049257D02*
X049300D01*
X049825Y038000D02*
Y038018D01*
X049825D02*
X049843D01*
X049740Y040250D02*
X049750Y040240D01*
Y039187*
X049740Y040250D02*
X052360D01*
X053000Y040890*
Y041400*
X052100Y038200D02*
X052092Y038207D01*
X052092D02*
X052685Y038800D01*
X053000*
X049300Y038600D02*
X049281Y038581D01*
X049843Y038018*
X048500Y039200D02*
X049250D01*
Y039187*
X053000Y038200D02*
Y038800D01*
X053900Y038200D02*
X053907Y038207D01*
X049700Y041800D02*
X049742D01*
Y041312*
X049742D02*
X049750D01*
X049200Y041800D02*
X049242D01*
Y041312*
X049242D02*
X049250D01*
X050800Y038600D02*
X051175Y038225D01*
Y038000*
X053000Y038800D02*
X053315D01*
X053907Y038207*
X047981Y040250D02*
X049740D01*
X050250Y041312D02*
X050257D01*
X050257D02*
Y040800D01*
X050257D02*
X050300D01*
X050750Y041312D02*
X050757D01*
X050757D02*
Y040800D01*
X050757D02*
X050800D01*
X050750Y039187D02*
X050757D01*
X050757D02*
Y038600D01*
X050757D02*
X050800D01*
X050750Y039187D02*
Y039200D01*
X051300*
X049250Y039187D02*
X049257D01*
X049257D02*
Y038600D01*
X049257D02*
X049300D01*
G54D42*
X019100Y012590D03*
X025450Y011250D03*
X022810Y012700D03*
X023400Y012720D03*
X024000D03*
X024590D03*
X025200Y012730D03*
X029580Y012680D03*
X028990Y012710D03*
X028410Y012740D03*
X027810Y012860D03*
X030200Y010500D03*
X034200Y013600D03*
X030190Y012700D03*
X041000Y013900D03*
X039700Y013550D03*
X045200D03*
X053390Y012500D03*
X053360Y011980D03*
X054900Y013200D03*
X021040Y020540D03*
X019840Y020530D03*
X014700Y014140D03*
X016420Y014470D03*
X016370Y018940D03*
X020800Y017500D03*
X014600Y019200D03*
X020480Y021660D03*
X028140Y020540D03*
X022790Y020550D03*
X029920Y020570D03*
X025800Y020550D03*
X026950Y020520D03*
X027600Y020600D03*
X029170Y021210D03*
X029110Y020680D03*
X022150Y020780D03*
X026660Y021940D03*
X024340D03*
X023500Y020500D03*
X022440Y020540D03*
X029540Y020500D03*
X024450Y020510D03*
X024350Y018790D03*
X027830Y018060D03*
X024390Y014750D03*
X028640Y014810D03*
X027460Y021950D03*
X026090Y021340D03*
X032900Y020550D03*
X031160Y020520D03*
X036500Y018900D03*
X033770Y021930D03*
X031360Y021940D03*
X030510Y020500D03*
X034200Y018050D03*
X033150Y021300D03*
X031700Y020550D03*
X031960Y018740D03*
X039950Y014900D03*
X039350Y020900D03*
X040200Y014600D03*
Y018650D03*
X045100Y018700D03*
X038300Y018200D03*
X039700Y018050D03*
X045200D03*
X038970Y020390D03*
X039000Y021150D03*
X052700Y020200D03*
X052420Y021480D03*
X051990Y018250D03*
X052600Y016520D03*
X053250Y017900D03*
X052420Y017480D03*
X053350Y015500D03*
X052990Y020740D03*
X053230Y019530D03*
X053880Y017970D03*
Y014470D03*
X053020Y016290D03*
X053380Y021490D03*
X051550Y018000D03*
X051040Y019460D03*
X054250Y021500D03*
X054500Y016500D03*
X020460Y027750D03*
X020940Y023440D03*
X021280Y023430D03*
X021840Y023450D03*
X021900Y025690D03*
X020490Y024770D03*
X020600Y023450D03*
X021300Y029700D03*
X020290Y026760D03*
X020140Y029250D03*
X015480Y023910D03*
X016270Y028400D03*
X019190Y027000D03*
X021650Y028800D03*
X021450Y025140D03*
X020400Y022350D03*
X014600Y028200D03*
Y023700D03*
X019850Y023470D03*
X022830Y024540D03*
X029670D03*
X023980Y024640D03*
X024010Y027710D03*
X023320Y024310D03*
X022390Y028500D03*
X025820Y023480D03*
X025090Y023440D03*
X024710Y023510D03*
X024300Y023350D03*
X028090Y023440D03*
X028400Y023300D03*
X029000Y023400D03*
X026350Y024350D03*
Y024900D03*
X027310Y025850D03*
X027300Y024350D03*
X027690Y023410D03*
X023100Y022700D03*
X022410Y028020D03*
X029840Y023440D03*
X022810Y023450D03*
X026130Y028920D03*
X026310Y028210D03*
X025310Y025240D03*
X024030Y024310D03*
X029200Y028950D03*
X022610Y024310D03*
X022080Y026990D03*
X028100Y025370D03*
X026990Y024360D03*
X029410Y024310D03*
X025790Y028910D03*
X026490Y028850D03*
X026800Y028550D03*
X026510Y027860D03*
X024070Y028550D03*
X025750Y028180D03*
X026080Y027900D03*
X023430Y022200D03*
X026840Y028860D03*
X026720Y028090D03*
X026010Y028400D03*
X023970Y023500D03*
X026950Y023460D03*
X030350Y024540D03*
X030650Y029400D03*
X034800Y029500D03*
X033900Y029370D03*
X034530Y029790D03*
X033190Y023310D03*
X032600Y023300D03*
X031890Y023490D03*
X031530Y023480D03*
X032440Y024430D03*
X031380Y025180D03*
X033490Y024550D03*
X034500Y023200D03*
X033800Y024600D03*
X036670Y027820D03*
X036800Y026350D03*
X036900Y027400D03*
X032730Y027280D03*
X034500Y022250D03*
X032150Y029850D03*
X034900Y024250D03*
X035800Y026670D03*
X037200Y025250D03*
X036650Y029150D03*
X037980Y027690D03*
X033050Y025950D03*
X030880Y024320D03*
X031080Y027830D03*
X030500Y022150D03*
X032760Y029870D03*
X031450Y029880D03*
X036980Y028880D03*
X031900Y025600D03*
X031150Y023460D03*
X045510Y024820D03*
X042800Y029200D03*
X041800Y028900D03*
X039650Y023150D03*
X040200Y023140D03*
X039590Y024350D03*
X038600Y025450D03*
X045900Y024060D03*
X038730Y024120D03*
X038020Y022330D03*
X039650Y022550D03*
X045200D03*
X040670Y025130D03*
X041850Y027540D03*
X041050Y026750D03*
X038300Y028890D03*
X041000Y025160D03*
X041770Y027850D03*
X038180Y026210D03*
X046450Y024410D03*
X048200Y026550D03*
X047900Y025100D03*
X053380Y029490D03*
X053950Y027200D03*
X053360Y023780D03*
X053140Y029860D03*
X051090Y028210D03*
X053100Y023200D03*
X051920Y028230D03*
X052450Y027450D03*
X052480Y023440D03*
X053300Y027350D03*
X052450Y026450D03*
X053930Y023600D03*
X052450Y022300D03*
X053880Y022540D03*
X053050Y023650D03*
X053060Y026360D03*
X053030Y029560D03*
X052040Y025830D03*
X053840Y028500D03*
X052480Y022730D03*
X053390Y026420D03*
X051520Y022000D03*
X054200Y028500D03*
X012450Y033650D03*
X013300Y032400D03*
X011760Y034890D03*
X011800Y031000D03*
X011200Y036350D03*
Y032350D03*
X014000Y031800D03*
X020700Y034300D03*
X015620Y034370D03*
X019250Y031530D03*
X020740Y035890D03*
X016400Y031550D03*
X017750Y032350D03*
X020100Y034600D03*
X017700Y030550D03*
X020140Y035770D03*
X017520Y032090D03*
X020270Y031390D03*
X020090Y036350D03*
X019170Y032450D03*
X021840Y031800D03*
X017650Y036050D03*
X014250Y035450D03*
X014310Y031450D03*
X015750Y036550D03*
Y032550D03*
X021700Y035150D03*
X027200Y031450D03*
X027930Y031630D03*
X027500Y031200D03*
X022950Y033000D03*
X022800Y033800D03*
X026950Y037450D03*
X027500Y036320D03*
X025980Y036330D03*
X026450Y035250D03*
X029650Y034650D03*
X025100Y030600D03*
X027750Y032750D03*
X028200Y030900D03*
X029430Y033500D03*
X029250Y034700D03*
X027850Y035150D03*
X028250Y034800D03*
X029600Y036400D03*
X025750Y033700D03*
X022370Y036450D03*
X023850Y033190D03*
X025440Y037140D03*
X029750Y035300D03*
X025460Y032070D03*
X023850Y030750D03*
X035900Y032600D03*
X030000Y037700D03*
X030100Y037400D03*
X032200Y032600D03*
X034550Y030100D03*
X037700Y034200D03*
X032750Y031750D03*
X032300Y036910D03*
X034050Y035950D03*
X032800Y036250D03*
Y035350D03*
X034500Y034750D03*
X034160Y033070D03*
X034620Y034200D03*
X032300Y035100D03*
X034350Y034000D03*
X033850Y037100D03*
X035300Y030900D03*
X036900Y031950D03*
X034100Y037900D03*
X035300Y032850D03*
X036600Y034450D03*
X035700Y034800D03*
X036440Y032890D03*
X036000Y034940D03*
Y034630D03*
X035930Y034230D03*
X035700Y033070D03*
X035500Y035440D03*
X034940Y037300D03*
X037990Y035780D03*
X033140Y037440D03*
X033090Y035040D03*
X035430Y033970D03*
X030250Y031600D03*
X032300Y035570D03*
X033640Y030030D03*
X035040Y033950D03*
X033880Y035410D03*
X030580Y035820D03*
X037740Y030200D03*
X038900Y030050D03*
X038380Y033830D03*
X041020Y036890D03*
X041670Y036400D03*
X042150Y030470D03*
X038800Y037000D03*
X038650Y034000D03*
X041460Y036720D03*
X042000Y030900D03*
X041900Y031200D03*
X040600Y035400D03*
X043220Y036700D03*
X040060Y036110D03*
X043400Y035500D03*
Y036300D03*
X038340Y037260D03*
X038660Y032980D03*
X039890Y036430D03*
X038150Y031200D03*
X041500Y030390D03*
X043400Y034100D03*
X038000Y034060D03*
X039140Y036310D03*
X040990Y030340D03*
X049300Y034100D03*
X048700Y034700D03*
X050300Y034200D03*
X053000Y033900D03*
X053900D03*
X052200Y034000D03*
X050700Y037300D03*
X050200D03*
X049700D03*
X049200D03*
X051200Y034100D03*
X051300Y034700D03*
X011770Y038960D03*
X011200Y040350D03*
X013600Y044200D03*
X017000Y045800D03*
X015280Y041570D03*
X014560Y040630D03*
X019160Y038050D03*
X014550Y043430D03*
X014250Y039450D03*
X015750Y040550D03*
X016980Y045240D03*
X016100Y044750D03*
X025450Y044200D03*
X025100Y041600D03*
X026000Y041250D03*
X026300Y040050D03*
X027000Y040100D03*
X028310Y038810D03*
X028200Y039520D03*
X028870Y039270D03*
X029580Y039060D03*
X023790Y039770D03*
X022830Y042200D03*
X026370Y044500D03*
X029750Y041150D03*
X029180Y039850D03*
X028660Y038000D03*
X036970Y040530D03*
X037750Y040800D03*
X037260Y039010D03*
X037500Y038000D03*
X030820Y045770D03*
X032300Y043100D03*
X035400Y040650D03*
X034950Y040250D03*
X034550Y040000D03*
X034130Y039060D03*
X033800Y039500D03*
X033050Y039250D03*
X032650Y039090D03*
X032800Y038650D03*
X030750D03*
X035200Y038900D03*
X031200Y041450D03*
X034530Y038220D03*
X030450Y044550D03*
X035800Y038500D03*
X030010Y040140D03*
X043550Y038050D03*
X042610Y043090D03*
X041500Y045950D03*
X040300Y042750D03*
X040200Y040800D03*
X038400Y045550D03*
X041200Y039600D03*
X042300Y044400D03*
X041400Y044700D03*
X038230Y039910D03*
X038850Y043800D03*
X042650Y044650D03*
X043400Y038600D03*
X038300Y038920D03*
X043500Y040800D03*
Y039900D03*
X049300Y038600D03*
X048500Y039200D03*
X053000Y038200D03*
X053900D03*
X052100D03*
X050800Y040800D03*
X050300D03*
X049700Y041800D03*
X049200D03*
X050800Y038600D03*
X051300Y039200D03*
X050300Y038600D03*
X054350Y039800D03*
X014770Y046720D03*
X017200Y046110D03*
X014300Y047870D03*
X027630Y046050D03*
X026650Y047270D03*
X027200Y046300D03*
X026640Y046860D03*
X025490Y048750D03*
X027560Y047280D03*
X031560Y046160D03*
X031070Y046870D03*
X031300Y047750D03*
X036600Y047800D03*
X030450Y048750D03*
X032500Y047250D03*
X037960Y049130D03*
X042750Y047300D03*
X043550Y046250D03*
X044500Y046000D03*
X040500Y047600D03*
X039000Y046300D03*
X038350Y048500D03*
X042450Y048750D03*
X039550Y047250D03*
X043550D03*
X056000Y048500D03*
X057500D03*
X059000D03*
X055820Y048160D03*
X058800Y048800D03*
X057300D03*
X055800D03*
X057300Y048100D03*
G54D49*
X053000Y041400D03*
Y038800D03*
Y037100D03*
Y034500D03*
G54D92*
X014785Y048707D03*
X015414D03*
Y047092D03*
X014785D03*
G54D93*
X018250Y044500D03*
Y015500D03*
X052000Y045500D03*
Y014000D03*
X000000Y000000D02*
M02*
