*
*
G04 PADS Layout (Build Number 2005.103.1) generated Gerber (RS-274-X) file*
G04 PC Version=2.1*
*
%IN "medulla.0.pcb"*%
*
%MOIN*%
*
%FSLAX24Y24*%
*
*
*
*
G04 PC Standard Apertures*
*
*
G04 Thermal Relief Aperture macro.*
%AMTER*
1,1,$1,0,0*
1,0,$1-$2,0,0*
21,0,$3,$4,0,0,45*
21,0,$3,$4,0,0,135*
%
*
*
G04 Annular Aperture macro.*
%AMANN*
1,1,$1,0,0*
1,0,$2,0,0*
%
*
*
G04 Odd Aperture macro.*
%AMODD*
1,1,$1,0,0*
1,0,$1-0.005,0,0*
%
*
*
G04 PC Custom Aperture Macros*
*
*
*
*
*
*
G04 PC Aperture Table*
*
%ADD010R,0.05118X0.05118*%
%ADD011C,0.05118*%
%ADD013O,0.02362X0.06102*%
%ADD014O,0.01772X0.03937*%
%ADD015O,0.03937X0.01772*%
%ADD017O,0.04X0.043*%
%ADD018O,0.043X0.04*%
%ADD021R,0.06X0.06*%
%ADD022C,0.06*%
%ADD023R,0.065X0.065*%
%ADD024C,0.065*%
%ADD025C,0.17*%
%ADD026C,0.062*%
%ADD027C,0.09*%
%ADD031O,0.02X0.014*%
%ADD038C,0.006*%
%ADD039C,0.01*%
%ADD040C,0.03*%
%ADD042C,0.025*%
%ADD043O,0.05512X0.02008*%
%ADD044O,0.055X0.02*%
%ADD045O,0.06X0.02*%
%ADD046O,0.01181X0.03346*%
%ADD047R,0.04921X0.01181*%
%ADD048O,0.02X0.07*%
%ADD049R,0.126X0.06*%
%ADD050C,0.008*%
%ADD051C,0.015*%
%ADD052C,0.04*%
%ADD093C,0.25*%
*
*
*
*
G04 PC Copper Outlines (0)*
G04 Layer Name medulla.0.pcb - dark (0)*
%LPD*%
*
*
G04 PC Area=System Text*
G75*
G36*
G01*
X049824Y015245D02*
X049921Y015342D01*
X049956Y015377D01*
X049982Y015403D01*
X050000Y015421D01*
X050008Y015429D01*
X050043Y015491D01*
X050061Y015526D01*
X050070Y015561D01*
X050087D01*
Y015350D01*
X050070D01*
Y015368D01*
X050061Y015394D01*
X050043Y015403D01*
X050017Y015394D01*
X049991Y015377D01*
X049956Y015342D01*
X049912Y015298D01*
X049850Y015236D01*
X049815Y015192D01*
X049798Y015175D01*
X049982D01*
X050017D01*
X050035Y015184D01*
X050061Y015201D01*
X050070Y015236D01*
Y015254D01*
X050087D01*
Y015017D01*
X050070D01*
Y015035D01*
X050061Y015078D01*
X050043Y015087D01*
X050017Y015096D01*
X049982D01*
X049605D01*
X049561D01*
X049535Y015087D01*
X049526Y015070D01*
X049517Y015035D01*
Y015017D01*
X049500D01*
Y015254D01*
X049517D01*
Y015236D01*
X049526Y015201D01*
X049543Y015184D01*
X049570Y015175D01*
X049605D01*
X049789D01*
X049596Y015377D01*
X049570Y015403D01*
X049561Y015412D01*
X049543D01*
X049526Y015403D01*
X049517Y015368D01*
X049500D01*
Y015631D01*
X049517D01*
X049526Y015596D01*
X049535Y015561D01*
X049561Y015526D01*
X049605Y015473D01*
X049824Y015245D01*
G37*
G74*
*
G75*
G36*
G01*
X049745Y015719D02*
Y015991D01*
X049807Y015982D01*
X049859Y015947D01*
X049894Y015903D01*
X049903Y015842D01*
X049885Y015771D01*
X049850Y015710D01*
X049780Y015675D01*
X049692Y015657D01*
X049605Y015666D01*
X049543Y015710D01*
X049500Y015763D01*
X049491Y015833D01*
X049500Y015885D01*
X049535Y015938D01*
X049587Y015973D01*
X049640Y015991D01*
X049649Y015982D01*
X049605Y015964D01*
X049578Y015929D01*
X049561Y015903D01*
Y015868D01*
X049570Y015807D01*
X049614Y015763D01*
X049666Y015728D01*
X049745Y015719D01*
G37*
G74*
*
G75*
G36*
G01*
X049894Y016026D02*
X049877D01*
X049868Y016052D01*
X049850Y016078D01*
X049824Y016096D01*
X049491Y016236D01*
Y016254D01*
X049824Y016385D01*
X049868Y016412D01*
X049877Y016447D01*
X049894D01*
Y016324D01*
X049877D01*
Y016350D01*
X049868Y016368D01*
X049859D01*
X049815Y016359D01*
X049596Y016271D01*
X049807Y016175D01*
X049850Y016166D01*
X049868Y016175D01*
X049877Y016201D01*
Y016210D01*
X049894D01*
Y016026D01*
G37*
G74*
*
G75*
G36*
G01*
X050114Y016578D02*
X050114D01*
X050096Y016543D01*
X050061Y016526D01*
X050035Y016543D01*
X050017Y016578D01*
X050035Y016605D01*
X050061Y016622D01*
X050096Y016605D01*
X050114Y016578D01*
G37*
G74*
*
G75*
G36*
G01*
X049903Y016614D02*
Y016596D01*
X049859Y016482D01*
X049842Y016491D01*
X049850Y016517D01*
X049842Y016535D01*
X049824Y016543D01*
X049798D01*
X049745D01*
X049587D01*
X049561D01*
X049543Y016535D01*
X049526Y016526D01*
X049517Y016508D01*
Y016482D01*
X049500D01*
Y016675D01*
X049517D01*
Y016649D01*
X049526Y016640D01*
X049543Y016622D01*
X049561Y016614D01*
X049587D01*
X049903D01*
G37*
G74*
*
G75*
G36*
G01*
X049815Y016842D02*
X049903D01*
Y016824D01*
X049859Y016710D01*
X049842Y016719D01*
X049850Y016745D01*
X049842Y016763D01*
X049824Y016771D01*
X049798D01*
X049745D01*
X049587D01*
X049552D01*
X049535Y016763D01*
X049517Y016745D01*
Y016719D01*
Y016710D01*
X049500D01*
Y016903D01*
X049517D01*
Y016877D01*
X049526Y016859D01*
X049543Y016850D01*
X049552Y016842D01*
X049587D01*
X049798D01*
X049833Y016894D01*
X049850Y016947D01*
X049842Y016973D01*
X049824Y016991D01*
X049798Y017008D01*
X049745D01*
X049587D01*
X049561D01*
X049552D01*
X049526Y016991D01*
X049517Y016956D01*
Y016947D01*
X049500D01*
Y017140D01*
X049517D01*
Y017114D01*
X049526Y017105D01*
X049535Y017087D01*
X049561Y017078D01*
X049587D01*
X049754D01*
X049798D01*
X049833Y017070D01*
X049868Y017052D01*
X049885Y017035D01*
X049903Y016973D01*
X049894Y016947D01*
X049885Y016912D01*
X049859Y016877D01*
X049815Y016842D01*
G37*
G74*
*
G75*
G36*
G01*
X049824Y017605D02*
X049921Y017701D01*
X049956Y017736D01*
X049982Y017763D01*
X050000Y017780D01*
X050008Y017789D01*
X050043Y017850D01*
X050061Y017885D01*
X050070Y017921D01*
X050087D01*
Y017710D01*
X050070D01*
Y017728D01*
X050061Y017754D01*
X050043Y017763D01*
X050017Y017754D01*
X049991Y017736D01*
X049956Y017701D01*
X049912Y017657D01*
X049850Y017596D01*
X049815Y017552D01*
X049798Y017535D01*
X049982D01*
X050017D01*
X050035Y017543D01*
X050061Y017561D01*
X050070Y017596D01*
Y017614D01*
X050087D01*
Y017377D01*
X050070D01*
Y017394D01*
X050061Y017438D01*
X050043Y017447D01*
X050017Y017456D01*
X049982D01*
X049605D01*
X049561D01*
X049535Y017447D01*
X049526Y017429D01*
X049517Y017394D01*
Y017377D01*
X049500D01*
Y017614D01*
X049517D01*
Y017596D01*
X049526Y017561D01*
X049543Y017543D01*
X049570Y017535D01*
X049605D01*
X049789D01*
X049596Y017736D01*
X049570Y017763D01*
X049561Y017771D01*
X049543D01*
X049526Y017763D01*
X049517Y017728D01*
X049500D01*
Y017991D01*
X049517D01*
X049526Y017956D01*
X049535Y017921D01*
X049561Y017885D01*
X049605Y017833D01*
X049824Y017605D01*
G37*
G74*
*
G75*
G36*
G01*
X049745Y018078D02*
Y018350D01*
X049807Y018342D01*
X049859Y018307D01*
X049894Y018263D01*
X049903Y018201D01*
X049885Y018131D01*
X049850Y018070D01*
X049780Y018035D01*
X049692Y018017D01*
X049605Y018026D01*
X049543Y018070D01*
X049500Y018122D01*
X049491Y018192D01*
X049500Y018245D01*
X049535Y018298D01*
X049587Y018333D01*
X049640Y018350D01*
X049649Y018342D01*
X049605Y018324D01*
X049578Y018289D01*
X049561Y018263D01*
Y018228D01*
X049570Y018166D01*
X049614Y018122D01*
X049666Y018087D01*
X049745Y018078D01*
G37*
G74*
*
G75*
G36*
G01*
X049815Y018517D02*
X049903D01*
Y018500D01*
X049859Y018385D01*
X049842Y018394D01*
X049850Y018421D01*
X049842Y018438D01*
X049824Y018447D01*
X049798D01*
X049745D01*
X049587D01*
X049561D01*
X049543Y018438D01*
X049526Y018421D01*
X049517Y018412D01*
Y018385D01*
X049500D01*
Y018578D01*
X049517D01*
Y018552D01*
X049526Y018535D01*
X049535Y018526D01*
X049552Y018517D01*
X049587D01*
X049798D01*
X049842Y018570D01*
X049850Y018614D01*
X049842Y018649D01*
X049824Y018666D01*
X049798Y018684D01*
X049754D01*
X049587D01*
X049561D01*
X049543D01*
X049526Y018666D01*
X049517Y018649D01*
Y018622D01*
X049500D01*
Y018815D01*
X049517D01*
X049526Y018771D01*
X049535Y018763D01*
X049552Y018754D01*
X049587D01*
X049771D01*
X049789D01*
X049798D01*
X049824Y018789D01*
X049842Y018807D01*
X049850Y018859D01*
X049842Y018885D01*
X049824Y018912D01*
X049798Y018921D01*
X049754D01*
X049587D01*
X049561D01*
X049543D01*
X049526Y018903D01*
X049517Y018868D01*
Y018859D01*
X049500D01*
Y019052D01*
X049517D01*
X049526Y019017D01*
X049535Y019000D01*
X049561Y018991D01*
X049587D01*
X049754D01*
X049798D01*
X049833Y018982D01*
X049868Y018964D01*
X049885Y018947D01*
X049903Y018885D01*
X049885Y018824D01*
X049859Y018789D01*
X049815Y018754D01*
X049850Y018736D01*
X049877Y018719D01*
X049894Y018684D01*
X049903Y018657D01*
X049894Y018614D01*
X049868Y018570D01*
X049850Y018552D01*
X049815Y018517D01*
G37*
G74*
*
G75*
G36*
G01*
X049859Y019070D02*
X049842Y019078D01*
X049850Y019096D01*
X049842Y019122D01*
X049824Y019131D01*
X049807D01*
X049780D01*
X049403D01*
X049368D01*
X049350D01*
X049342Y019114D01*
X049333Y019070D01*
Y019061D01*
X049315D01*
Y019263D01*
X049333D01*
Y019236D01*
X049342Y019219D01*
X049350Y019210D01*
X049368Y019201D01*
X049403D01*
X049526D01*
X049500Y019236D01*
X049491Y019298D01*
X049500Y019359D01*
X049543Y019412D01*
X049622Y019456D01*
X049710Y019473D01*
X049789Y019464D01*
X049859Y019421D01*
X049894Y019377D01*
X049903Y019324D01*
X049894Y019298D01*
X049885Y019263D01*
X049850Y019236D01*
X049807Y019201D01*
X049903D01*
Y019184D01*
X049859Y019070D01*
G37*
G74*
*
G75*
G36*
G01*
X049745Y019587D02*
Y019859D01*
X049807Y019850D01*
X049859Y019815D01*
X049894Y019771D01*
X049903Y019710D01*
X049885Y019640D01*
X049850Y019578D01*
X049780Y019543D01*
X049692Y019526D01*
X049605Y019535D01*
X049543Y019578D01*
X049500Y019631D01*
X049491Y019701D01*
X049500Y019754D01*
X049535Y019807D01*
X049587Y019842D01*
X049640Y019859D01*
X049649Y019850D01*
X049605Y019833D01*
X049578Y019798D01*
X049561Y019771D01*
Y019736D01*
X049570Y019675D01*
X049614Y019631D01*
X049666Y019596D01*
X049745Y019587D01*
G37*
G74*
*
G75*
G36*
G01*
X049903Y020026D02*
Y020008D01*
X049859Y019894D01*
X049842D01*
X049850Y019929D01*
X049842Y019947D01*
X049824Y019956D01*
X049798D01*
X049745D01*
X049587D01*
X049561D01*
X049543D01*
X049526Y019938D01*
X049517Y019894D01*
X049500D01*
Y020096D01*
X049517D01*
X049526Y020052D01*
X049543Y020035D01*
X049561Y020026D01*
X049587D01*
X049771D01*
X049807Y020043D01*
X049833Y020070D01*
X049842Y020078D01*
X049824Y020114D01*
X049807Y020131D01*
Y020140D01*
X049815Y020166D01*
X049850Y020175D01*
X049885Y020157D01*
X049903Y020122D01*
X049894Y020096D01*
X049877Y020070D01*
X049850Y020052D01*
X049807Y020026D01*
X049903D01*
G37*
G74*
*
*
G04 PC Void Outlines (0)*
G04 Layer Name medulla.0.pcb - clear (0)*
%LPC*%
*
*
G04 PC Area=System Text*
G75*
G36*
G01*
X049771Y015719D02*
X049771D01*
X049815Y015728D01*
X049850Y015754D01*
X049868Y015780D01*
X049877Y015815D01*
X049859Y015859D01*
X049824Y015894D01*
X049807Y015903D01*
X049771D01*
Y015719D01*
G37*
G74*
*
G75*
G36*
G01*
Y018078D02*
X049771D01*
X049815Y018087D01*
X049850Y018114D01*
X049868Y018140D01*
X049877Y018175D01*
X049859Y018219D01*
X049824Y018254D01*
X049807Y018263D01*
X049771D01*
Y018078D01*
G37*
G74*
*
G75*
G36*
G01*
X049789Y019201D02*
X049789D01*
X049815Y019236D01*
X049833Y019254D01*
X049842Y019298D01*
X049833Y019333D01*
X049807Y019359D01*
X049745Y019394D01*
X049675Y019403D01*
X049605Y019394D01*
X049552Y019368D01*
X049526Y019333D01*
X049517Y019298D01*
Y019263D01*
X049535Y019236D01*
X049552Y019219D01*
X049578Y019201D01*
X049605D01*
X049640D01*
X049789D01*
G37*
G74*
*
G75*
G36*
G01*
X049771Y019587D02*
X049771D01*
X049815Y019596D01*
X049850Y019622D01*
X049868Y019649D01*
X049877Y019684D01*
X049859Y019728D01*
X049824Y019763D01*
X049807Y019771D01*
X049771D01*
Y019587D01*
G37*
G74*
*
*
G04 PC Custom Flashes*
G04 Layer Name medulla.0.pcb - flashes*
%LPD*%
*
*
G04 PC Circuitry*
G04 Layer Name medulla.0.pcb - circuitry*
%LPD*%
*
G54D10*
G01X036000Y020106D03*
Y015606D03*
Y011106D03*
X041500Y020106D03*
Y015606D03*
Y011106D03*
X047000Y020106D03*
Y015606D03*
Y011106D03*
X047500Y024606D03*
Y027856D03*
Y031106D03*
X059181Y011500D03*
Y015000D03*
Y018500D03*
Y022000D03*
Y025500D03*
Y029000D03*
X054681Y048750D03*
X011031Y025500D03*
Y021000D03*
Y016500D03*
Y012000D03*
X049000Y048968D03*
X045000D03*
X041000D03*
X037000D03*
X033000D03*
X029000D03*
X025000D03*
X021000D03*
X011244Y042000D03*
Y038000D03*
Y034000D03*
Y030000D03*
X011500Y048787D03*
X058787Y032500D03*
Y036000D03*
G54D11*
X036000Y020893D03*
Y016393D03*
Y011893D03*
X041500Y020893D03*
Y016393D03*
Y011893D03*
X047000Y020893D03*
Y016393D03*
Y011893D03*
X047500Y025393D03*
Y028643D03*
Y031893D03*
X058393Y011500D03*
X057606D03*
X056818D03*
X058393Y015000D03*
X057606D03*
X056818D03*
X058393Y018500D03*
X057606D03*
X056818D03*
X058393Y022000D03*
X057606D03*
X056818D03*
X058393Y025500D03*
X057606D03*
X056818D03*
X058393Y029000D03*
X057606D03*
X056818D03*
X053893Y048750D03*
X053106D03*
X052318D03*
X011818Y025500D03*
X012606D03*
X013393D03*
X014181D03*
X014968D03*
X011818Y021000D03*
X012606D03*
X013393D03*
X014181D03*
X014968D03*
X011818Y016500D03*
X012606D03*
X013393D03*
X014181D03*
X014968D03*
X011818Y012000D03*
X012606D03*
X013393D03*
X014181D03*
X014968D03*
X049000Y048181D03*
Y047393D03*
Y046606D03*
Y045818D03*
Y045031D03*
X045000Y048181D03*
Y047393D03*
Y046606D03*
Y045818D03*
Y045031D03*
X041000Y048181D03*
Y047393D03*
Y046606D03*
Y045818D03*
Y045031D03*
X037000Y048181D03*
Y047393D03*
Y046606D03*
Y045818D03*
Y045031D03*
X033000Y048181D03*
Y047393D03*
Y046606D03*
Y045818D03*
Y045031D03*
X029000Y048181D03*
Y047393D03*
Y046606D03*
Y045818D03*
Y045031D03*
X025000Y048181D03*
Y047393D03*
Y046606D03*
Y045818D03*
Y045031D03*
X021000Y048181D03*
Y047393D03*
Y046606D03*
Y045818D03*
Y045031D03*
X012031Y042000D03*
X012818D03*
X013606D03*
X014393D03*
X015181D03*
X015968D03*
X016755D03*
X012031Y038000D03*
X012818D03*
X013606D03*
X014393D03*
X015181D03*
X015968D03*
X016755D03*
X012031Y034000D03*
X012818D03*
X013606D03*
X014393D03*
X015181D03*
X015968D03*
X016755D03*
X012031Y030000D03*
X012818D03*
X013606D03*
X014393D03*
X015181D03*
X015968D03*
X016755D03*
X011500Y048000D03*
Y047212D03*
X058000Y032500D03*
X057212D03*
X058000Y036000D03*
X057212D03*
G54D13*
X012250Y037062D03*
X012750D03*
X013250D03*
X013750D03*
X014250D03*
X014750D03*
X015250D03*
X015750D03*
Y034937D03*
X015250D03*
X014750D03*
X014250D03*
X013750D03*
X013250D03*
X012750D03*
X012250D03*
Y033062D03*
X012750D03*
X013250D03*
X013750D03*
X014250D03*
X014750D03*
X015250D03*
X015750D03*
Y030937D03*
X015250D03*
X014750D03*
X014250D03*
X013750D03*
X013250D03*
X012750D03*
X012250D03*
Y041062D03*
X012750D03*
X013250D03*
X013750D03*
X014250D03*
X014750D03*
X015250D03*
X015750D03*
Y038937D03*
X015250D03*
X014750D03*
X014250D03*
X013750D03*
X013250D03*
X012750D03*
X012250D03*
X038000Y021812D03*
X038500D03*
X039000D03*
X039500D03*
Y019687D03*
X039000D03*
X038500D03*
X038000D03*
G54D14*
X034137Y039521D03*
X034452D03*
X034767D03*
X035082D03*
X035397D03*
X035712D03*
X036027D03*
X036342D03*
X036657D03*
X036972D03*
X037287D03*
X037602D03*
X037917D03*
X038232D03*
X038547D03*
X038862D03*
Y033478D03*
X038547D03*
X038232D03*
X037917D03*
X037602D03*
X037287D03*
X036972D03*
X036657D03*
X036342D03*
X036027D03*
X035712D03*
X035397D03*
X035082D03*
X034767D03*
X034452D03*
X034137D03*
G54D15*
X039521Y038862D03*
Y038547D03*
Y038232D03*
Y037917D03*
Y037602D03*
Y037287D03*
Y036972D03*
Y036657D03*
Y036342D03*
Y036027D03*
Y035712D03*
Y035397D03*
Y035082D03*
Y034767D03*
Y034452D03*
Y034137D03*
X033478D03*
Y034452D03*
Y034767D03*
Y035082D03*
Y035397D03*
Y035712D03*
Y036027D03*
Y036342D03*
Y036657D03*
Y036972D03*
Y037287D03*
Y037602D03*
Y037917D03*
Y038232D03*
Y038547D03*
Y038862D03*
G54D17*
X041000Y025665D03*
Y026335D03*
X011200Y039935D03*
Y039265D03*
Y035935D03*
Y035265D03*
Y031935D03*
Y031265D03*
X041000Y029735D03*
Y029065D03*
X037200Y026335D03*
Y025665D03*
X037800Y029735D03*
Y029065D03*
X031400Y018735D03*
Y018065D03*
X023800Y018735D03*
Y018065D03*
X024800Y029665D03*
Y030335D03*
X026000Y029665D03*
Y030335D03*
Y027135D03*
Y026465D03*
X025400Y029665D03*
Y030335D03*
Y027135D03*
Y026465D03*
X031100Y022365D03*
Y023035D03*
X027000Y022365D03*
Y023035D03*
X028700Y021635D03*
Y020965D03*
X031100Y021635D03*
Y020965D03*
X030500Y021635D03*
Y020965D03*
X029900Y022365D03*
Y023035D03*
X032900Y021635D03*
Y020965D03*
X024000Y022365D03*
Y023035D03*
X019900Y022365D03*
Y023035D03*
X021600Y021635D03*
Y020965D03*
X024000Y021635D03*
Y020965D03*
X023400Y021635D03*
Y020965D03*
X022800Y022365D03*
Y023035D03*
X025800Y021635D03*
Y020965D03*
X028400Y018065D03*
Y018735D03*
X020800Y018065D03*
Y018735D03*
X037800Y025665D03*
Y026335D03*
X033500Y020965D03*
Y021635D03*
X031700Y020965D03*
Y021635D03*
X024600Y020965D03*
Y021635D03*
X026400Y020965D03*
Y021635D03*
X057800Y048835D03*
Y048165D03*
X056300Y048835D03*
Y048165D03*
X029900Y020965D03*
Y021635D03*
X029300Y023035D03*
Y022365D03*
X028700Y023035D03*
Y022365D03*
X028100Y023035D03*
Y022365D03*
X021600Y023035D03*
Y022365D03*
X021000Y023035D03*
Y022365D03*
X022200Y023035D03*
Y022365D03*
X033000Y024865D03*
Y025535D03*
X022800Y020965D03*
Y021635D03*
X027000Y020965D03*
Y021635D03*
X031700Y023035D03*
Y022365D03*
X032300Y023035D03*
Y022365D03*
X032900Y023035D03*
Y022365D03*
X033500Y023035D03*
Y022365D03*
X027000Y024865D03*
Y025535D03*
X027600Y024865D03*
Y025535D03*
X030000Y024865D03*
Y025535D03*
X030600Y024865D03*
Y025535D03*
X019900Y020965D03*
Y021635D03*
X024600Y023035D03*
Y022365D03*
X025200Y023035D03*
Y022365D03*
X025800Y023035D03*
Y022365D03*
X026400Y023035D03*
Y022365D03*
X020200Y024465D03*
Y025135D03*
X020800Y024465D03*
Y025135D03*
X022200Y024465D03*
Y025135D03*
X024600Y024565D03*
Y025235D03*
X029000Y018735D03*
Y018065D03*
X029600Y018735D03*
Y018065D03*
X030200Y018735D03*
Y018065D03*
X030800Y018735D03*
Y018065D03*
X032400Y025535D03*
Y024865D03*
X059300Y048835D03*
Y048165D03*
X028100Y021635D03*
Y020965D03*
X021000Y021635D03*
Y020965D03*
X021400Y018735D03*
Y018065D03*
X022000Y018735D03*
Y018065D03*
X022600Y018735D03*
Y018065D03*
X023200Y018735D03*
Y018065D03*
X027800Y012270D03*
Y011600D03*
Y010930D03*
X028400Y012270D03*
Y011600D03*
Y010930D03*
X029000Y012270D03*
Y011600D03*
Y010930D03*
X029600Y012270D03*
Y011600D03*
Y010930D03*
X030200Y012270D03*
Y011600D03*
Y010930D03*
X022800Y012270D03*
Y011600D03*
Y010930D03*
X023400Y012270D03*
Y011600D03*
Y010930D03*
X024000Y012270D03*
Y011600D03*
Y010930D03*
X024600Y012270D03*
Y011600D03*
Y010930D03*
X025200Y012270D03*
Y011600D03*
Y010930D03*
G54D18*
X037465Y028400D03*
X038135D03*
X018165Y036000D03*
X018835D03*
X041135Y027800D03*
X040465D03*
X033135Y029600D03*
X032465D03*
X015165Y028000D03*
X015835D03*
X015165Y023500D03*
X015835D03*
X015165Y019000D03*
X015835D03*
X015165Y014500D03*
X015835D03*
X042665Y044200D03*
X043335D03*
X030665D03*
X031335D03*
X039335D03*
X038665D03*
X027335D03*
X026665D03*
X053335Y016000D03*
X052665D03*
X053335Y021000D03*
X052665D03*
X053335Y026000D03*
X052665D03*
X029265Y014800D03*
X029935D03*
X023735D03*
X023065D03*
X012265Y044800D03*
X012935D03*
Y045400D03*
X012265D03*
X038165Y022750D03*
X038835D03*
X038265Y018800D03*
X038935D03*
X012935Y046000D03*
X012265D03*
Y044200D03*
X012935D03*
X015335Y047600D03*
X014665D03*
X015735Y043400D03*
X015065D03*
X032665Y026500D03*
X033335D03*
X033135Y030200D03*
X032465D03*
X019735Y011400D03*
X019065D03*
X033265D03*
X033935D03*
Y012000D03*
X033265D03*
X019065D03*
X019735D03*
X014665Y048200D03*
X015335D03*
G54D21*
X058000Y046000D03*
X055750D03*
X036000Y022800D03*
Y018300D03*
Y013800D03*
X041500Y022800D03*
Y018300D03*
Y013800D03*
X047000Y022800D03*
Y018300D03*
Y013800D03*
X054250Y043750D03*
X018500Y029000D03*
X016500Y024500D03*
X018500Y040500D03*
X016500Y020000D03*
Y015500D03*
Y011000D03*
X050000Y043500D03*
X046000D03*
X042000D03*
X038000D03*
X034000D03*
X030000D03*
X026000D03*
X018500Y037000D03*
X022000Y043500D03*
X018500Y033000D03*
G54D22*
X059000Y046000D03*
X058000Y045000D03*
X059000D03*
X058000Y044000D03*
X059000D03*
X058000Y043000D03*
X059000D03*
X058000Y042000D03*
X059000D03*
X056750Y046000D03*
X055750Y045000D03*
X056750D03*
X055750Y044000D03*
X056750D03*
X055750Y043000D03*
X056750D03*
X055750Y042000D03*
X056750D03*
X037000Y022800D03*
Y018300D03*
Y013800D03*
X042500Y022800D03*
Y018300D03*
Y013800D03*
X048000Y022800D03*
Y018300D03*
Y013800D03*
X054250Y042750D03*
X018500Y030000D03*
Y031000D03*
X016500Y025500D03*
Y026500D03*
X018500Y041500D03*
Y042500D03*
X016500Y021000D03*
Y022000D03*
Y016500D03*
Y017500D03*
Y012000D03*
Y013000D03*
X049000Y043500D03*
X048000D03*
X045000D03*
X044000D03*
X041000D03*
X040000D03*
X037000D03*
X036000D03*
X033000D03*
X032000D03*
X029000D03*
X028000D03*
X025000D03*
X024000D03*
X018500Y038000D03*
Y039000D03*
X021000Y043500D03*
X020000D03*
X018500Y034000D03*
Y035000D03*
X033400Y028400D03*
X028500Y042000D03*
X030500D03*
X032500D03*
X034500D03*
X037500D03*
X039500D03*
X041500D03*
X043500D03*
X034400Y028400D03*
X029500Y042000D03*
X031500D03*
X033500D03*
X035500D03*
X024500Y037000D03*
Y036000D03*
Y035000D03*
Y034000D03*
Y039000D03*
Y038000D03*
X055000Y039000D03*
X024500Y041000D03*
Y040000D03*
X043500Y030000D03*
Y029000D03*
X041500Y032000D03*
Y033000D03*
Y034000D03*
Y035000D03*
X055000Y040000D03*
Y038000D03*
X036500Y042000D03*
X038500D03*
X040500D03*
X042500D03*
X027500D03*
X026500D03*
X025500D03*
X024500Y033000D03*
Y032000D03*
Y031000D03*
X043500D03*
Y028000D03*
G54D23*
X026000Y016000D03*
X031500D03*
G54D24*
X025500Y017000D03*
X024000Y016000D03*
X023500Y017000D03*
X023000Y016000D03*
X022500Y017000D03*
X022000Y016000D03*
X021500Y017000D03*
X031000D03*
X030500Y016000D03*
X030000Y017000D03*
X029500Y016000D03*
X029000Y017000D03*
X027500Y016000D03*
X027000Y017000D03*
G54D25*
X021500Y013500D03*
X031500D03*
G54D26*
X021080Y012000D03*
Y011300D03*
X026330Y012000D03*
Y011300D03*
X026670Y013390D03*
Y012690D03*
X031920Y012000D03*
Y011300D03*
G54D27*
X020400Y014700D03*
X026250Y019200D03*
X032600Y014700D03*
G54D31*
X037655Y027795D03*
Y027405D03*
X037145Y027600D03*
X034655Y024795D03*
Y024405D03*
X034145Y024600D03*
G54D38*
X011630Y012975D02*
Y014059D01*
X011630D02*
X011820Y014250D01*
X011996Y013750D02*
X012431D01*
X011996Y013250D02*
X012171D01*
X013393Y012000D02*
X012727Y012666D01*
Y012693*
X012727D02*
X012171Y013250D01*
X012606Y012000D02*
X011630Y012975D01*
X011818Y012000D02*
Y012481D01*
X011818D02*
X011510Y012790D01*
Y014439*
X021130Y010620D02*
X025315D01*
X025800Y011104*
X025800D02*
Y011470D01*
X026330Y012000*
X021130Y010620D02*
X019750Y012000D01*
X020650Y010500D02*
X025530D01*
X026330Y011300*
X020650Y010500D02*
X019750Y011400D01*
Y012000D02*
X019735D01*
Y016315*
X019610Y016440*
Y024970*
X019065Y012000D02*
X019100D01*
Y012590*
X019065Y011400D02*
Y012000D01*
X019735Y011400D02*
X019750D01*
X014003Y013250D02*
X014179D01*
X014003Y013750D02*
X014840D01*
X015500Y014409*
X015500D02*
Y016051D01*
X015500D02*
X016448Y017000D01*
X016551*
X016551D02*
X018930Y019378D01*
Y030498*
X018930D02*
X019431Y031000D01*
X019880*
X020270Y031390*
X014968Y012000D02*
Y012460D01*
X014968D02*
X014179Y013250D01*
X014181Y012000D02*
X012431Y013750D01*
X029000Y012270D02*
X028995D01*
Y012710*
X029600Y012270D02*
X029590D01*
Y012680*
X024600Y012270D02*
X024595D01*
Y012720*
X025450Y011250D02*
X025463Y011236D01*
X025463D02*
X025186Y010958D01*
X028100Y012734D02*
X029095Y013730D01*
X029095D02*
X029413D01*
X031083Y015400*
X031677*
X032175Y015897*
X032175D02*
Y021875D01*
X029910Y013239D02*
X031250Y014580D01*
X031250D02*
X031366D01*
X032586Y015800*
X032586D02*
Y021746D01*
X032586D02*
X032839Y022000D01*
X032839D02*
X033150D01*
X033500Y022350*
Y022365*
X027290Y012125D02*
Y013923D01*
X027290D02*
X027915Y014548D01*
X023100Y012940D02*
X024630Y014470D01*
Y019049*
X024985Y019404*
Y021965*
X024300Y013105D02*
X024910Y013715D01*
X024910D02*
Y018086D01*
X024910D02*
X025343Y018520D01*
Y021893*
X025800Y022350*
Y022365*
X029300Y012799D02*
X031350Y014850D01*
X031350D02*
X031466D01*
X031466D02*
X032443Y015826D01*
X032443D02*
Y021893D01*
X032900Y022350*
Y022365*
X024900Y013135D02*
X025060Y013295D01*
Y017607*
X025486Y018033*
X025486D02*
Y021746D01*
X025486D02*
X025739Y022000D01*
X025739D02*
X026050D01*
X026400Y022350*
Y022365*
X028700Y012724D02*
X031075Y015100D01*
X031075D02*
X031546D01*
X031546D02*
X032300Y015853D01*
Y022365*
X023700Y013047D02*
X024770Y014117D01*
Y018572*
X025200Y019002*
Y022365*
X024590Y012720D02*
X024595D01*
X029580Y012680D02*
X029590D01*
X028990Y012710D02*
X028995D01*
X025200Y010930D02*
X025186D01*
Y010958*
X025200Y011600D02*
Y011615D01*
X024900Y011915*
Y013135*
X025200Y012270D02*
Y012730D01*
X024600Y010930D02*
X025200D01*
X024600Y011600D02*
Y011615D01*
X024300Y011915*
Y013105*
X024000Y010930D02*
X024600D01*
X024000Y011600D02*
Y011615D01*
X023700Y011915*
Y013047*
X024000Y012270D02*
Y012720D01*
X023400Y010930D02*
X024000D01*
X023400Y011600D02*
Y011615D01*
X023100Y011915*
Y012940*
X023400Y012270D02*
Y012720D01*
X022800Y010930D02*
X023400D01*
X022800Y011600D02*
Y011615D01*
X022470Y011945*
Y014401*
X020450Y016421*
Y021070*
X019900Y021620*
Y021635*
X022800Y012270D02*
X022805D01*
Y012700*
X022810*
X029600Y010930D02*
X030200D01*
X029600Y011600D02*
Y011615D01*
X029300Y011915*
Y012799*
X029000Y010930D02*
X029600D01*
X029000Y011600D02*
Y011615D01*
X028700Y011915*
Y012724*
X028400Y010930D02*
X029000D01*
X028400Y011600D02*
Y011615D01*
X028100Y011915*
Y012734*
X028400Y012270D02*
X028405D01*
Y012740*
X028410*
X027800Y010930D02*
X028400D01*
X027800Y011600D02*
Y011615D01*
X027290Y012125*
X027800Y012270D02*
X027805D01*
Y012860*
X027810*
X030200Y012270D02*
X030195D01*
Y012700*
X033799Y011110D02*
X034070D01*
X034415Y011454*
X034415D02*
Y020085D01*
X033799Y011110D02*
X033600Y011309D01*
X033600D02*
Y011680D01*
X033280Y012000*
X033935D02*
X033920D01*
X033440Y012480*
X030200Y010500D02*
Y010930D01*
X030190Y012700D02*
X030195D01*
X030200Y011600D02*
Y011615D01*
X029910Y011905*
Y013239*
X030200Y012270D02*
X031060D01*
X031270Y012480*
X033440*
X033265Y012000D02*
X033280D01*
X033935Y011400D02*
Y012000D01*
X031920Y011300D02*
X032590D01*
X032690Y011400*
X033265*
X031920Y012000D02*
X033265D01*
X041000Y013900D02*
Y023941D01*
X041000D02*
X041290Y024231D01*
X041290D02*
Y027189D01*
X056686Y012420D02*
X055375D01*
X055375D02*
X054110Y013685D01*
X054110D02*
Y016973D01*
X053490Y017593*
Y018041*
X052488Y019043*
Y019151*
X054900Y013200D02*
X054250Y013850D01*
Y017151*
X053640Y017761*
Y018147*
X052744Y019043*
Y019151*
X057606Y011500D02*
X056686Y012420D01*
X011630Y017475D02*
Y018559D01*
X011630D02*
X011820Y018750D01*
X011630Y021975D02*
Y023059D01*
X011630D02*
X011820Y023250D01*
X011510Y018939D02*
X011820Y019250D01*
X011820D02*
X011996D01*
X011510Y014439D02*
X011820Y014750D01*
X011820D02*
X011996D01*
X013638Y019648D02*
X014574Y020584D01*
X014574D02*
Y021165D01*
X011996Y014250D02*
X011820D01*
X011996Y018750D02*
X011820D01*
X011996Y018250D02*
X012431D01*
X011996Y017750D02*
X012171D01*
X013393Y016500D02*
X012727Y017166D01*
Y017193*
X012727D02*
X012171Y017750D01*
X012606Y016500D02*
X011630Y017475D01*
X011818Y016500D02*
Y016981D01*
X011818D02*
X011510Y017290D01*
Y018939*
X013393Y021000D02*
X012727Y021666D01*
Y021693*
X012727D02*
X012171Y022250D01*
X012606Y021000D02*
X011630Y021975D01*
X011818Y021000D02*
Y021481D01*
X011818D02*
X011510Y021790D01*
Y023439*
X015165Y019000D02*
X015150D01*
X014944Y019205*
X016370Y018962D02*
X016155D01*
X016155D02*
X016140Y018977D01*
X016140D02*
X015835D01*
X015835D02*
Y019000D01*
X016420Y014485D02*
X015835D01*
Y014500*
X014700Y014140D02*
X014482D01*
X014372Y014250*
X021040Y020540D02*
X021020D01*
Y020965*
X015165Y014500D02*
X014740D01*
X014490Y014750*
X014600Y019225D02*
X014003D01*
X014003D02*
Y019250D01*
X014719Y018710D02*
X015300D01*
X015500Y018909*
X015500D02*
Y021976D01*
X018010Y024486*
Y031061*
X018010D02*
X018888Y031940D01*
X019978*
X020315Y032276*
X020315D02*
Y035035D01*
X014719Y018710D02*
X014679Y018750D01*
X014944Y019205D02*
X014600D01*
Y019225*
X021700Y018420D02*
X022000Y018720D01*
Y018735*
X014574Y021165D02*
X013638Y022101D01*
X013638D02*
Y023828D01*
X019840Y020530D02*
X019870D01*
Y020965*
X019900*
X016420Y014470D02*
Y014485D01*
X016370Y018940D02*
Y018962D01*
X020800Y017500D02*
Y018065D01*
X014600Y019200D02*
Y019205D01*
X020480Y021660D02*
X021000D01*
X021400Y018735D02*
X022000D01*
X021000Y020965D02*
X021020D01*
X021000Y021635D02*
Y021660D01*
X021500Y017000D02*
Y017540D01*
X021400Y017640*
Y018065*
X020800Y018735D02*
X021400D01*
X021600Y020965D02*
X021965D01*
X021600Y021635D02*
Y022365D01*
X015165Y014500D02*
Y016165D01*
X016500Y017500*
X014003Y014250D02*
X014372D01*
X014003Y014750D02*
X014490D01*
X014003Y017750D02*
X014179D01*
X014003Y018250D02*
X013828D01*
X013828D02*
X013638Y018440D01*
Y019648*
X014003Y018750D02*
X014679D01*
X014968Y016500D02*
Y016960D01*
X014968D02*
X014179Y017750D01*
X014181Y016500D02*
X012431Y018250D01*
X014968Y021000D02*
Y021460D01*
X014968D02*
X014179Y022250D01*
X014181Y021000D02*
X012431Y022750D01*
X026090Y021340D02*
X026087Y021337D01*
X026087D02*
X025800Y021625D01*
Y021635*
X027460Y021950D02*
X027445Y021935D01*
X027015Y022365*
X029265Y014805D02*
X028640D01*
Y014810*
X024390Y014775D02*
X023735D01*
Y014800*
X028140Y020540D02*
X028120D01*
Y020965*
X029920Y020570D02*
X029910D01*
Y020965*
X023560Y016439D02*
X023473D01*
X023473D02*
X023068Y016844D01*
X022587Y020042D02*
X023100Y020555D01*
X023100D02*
Y020650D01*
X023400Y020950*
Y020965*
X022587Y020042D02*
X022150Y020480D01*
Y020780*
X026660Y021940D02*
X026667Y021932D01*
X026667D02*
X026392Y021657D01*
X024600Y021635D02*
X024607D01*
X024607D02*
Y021657D01*
X024607D02*
X024332Y021932D01*
X024332D02*
X024340Y021940D01*
X023125Y019505D02*
X022587Y020042D01*
X029300Y017613D02*
Y018420D01*
X029600Y018720*
Y018735*
X024985Y021965D02*
X024600Y022350D01*
Y022365*
X027915Y014548D02*
Y017171D01*
X027385Y017701*
Y021235*
X027000Y021620*
Y021635*
X023068Y016844D02*
Y017388D01*
X023200Y017520*
Y018065*
X022790Y020550D02*
X022795D01*
Y020965*
X022800*
X025800Y020550D02*
Y020965D01*
X026950Y020520D02*
X026975D01*
Y020965*
X027000*
X027600Y020600D02*
Y021460D01*
X027060Y022000*
X029110Y020680D02*
X029140D01*
Y021210*
X029170*
X022150Y020780D02*
X021965Y020965D01*
X027830Y018060D02*
X028400D01*
Y018065*
X024390Y014750D02*
Y014775D01*
X023200Y018735D02*
X022600D01*
X022000*
X028100Y020965D02*
X028120D01*
X028100Y021635D02*
Y021650D01*
X027510Y022240*
Y022510*
X027000Y023020*
Y023035*
X030200Y018735D02*
X029600D01*
X029000*
X022800Y021635D02*
X023400D01*
X029900D02*
X030500D01*
X029900Y020965D02*
X029910D01*
X029000Y017000D02*
Y018065D01*
X029500Y016000D02*
Y017413D01*
X029300Y017613*
X022000Y016000D02*
Y017350D01*
X021700Y017650*
Y018420*
X022500Y017000D02*
Y017550D01*
X022000Y018050*
Y018065*
X023000Y016000D02*
Y016579D01*
X022931Y016647*
X022931D02*
Y017358D01*
X022931D02*
X022600Y017690D01*
Y018065*
X024000Y016000D02*
X023560Y016439D01*
X026400Y021635D02*
X026392D01*
X026392D02*
Y021657D01*
X029000Y018735D02*
X028400D01*
Y019700*
X028700Y020000*
Y020965*
X025800D02*
X026400D01*
X023400D02*
X024000D01*
X023400Y021635D02*
X023415D01*
Y022200*
X023430*
X023400Y021635D02*
X024000D01*
Y020965D02*
X024600D01*
X028700Y022365D02*
Y021635D01*
X029900*
X023800Y018735D02*
Y018790D01*
X024350*
X029265Y014800D02*
Y014805D01*
X031160Y020520D02*
X031130D01*
Y020965*
X031013Y016486D02*
X030926D01*
X030926D02*
X030568Y016844D01*
X031700Y021635D02*
X031687D01*
X031687D02*
Y021637D01*
X031687D02*
X031372Y021952D01*
X033770Y021930D02*
X033772Y021927D01*
X033772D02*
X033497Y021652D01*
X033167Y021317D02*
X032882Y021602D01*
X032882D02*
Y021635D01*
X032175Y021875D02*
X031700Y022350D01*
Y022365*
X034415Y020085D02*
X034200Y020300D01*
Y023840*
X033490Y024550*
X030568Y016844D02*
Y017338D01*
X030800Y017570*
Y018065*
X032900Y020550D02*
Y020965D01*
X036500Y018900D02*
Y022948D01*
X036500D02*
X039115Y025563D01*
X039115D02*
Y033604D01*
X031360Y021940D02*
X031372Y021952D01*
X033150Y021300D02*
X033167Y021317D01*
X030200Y018735D02*
X030800D01*
X030000Y017000D02*
Y017650D01*
X029600Y018050*
Y018065*
X030500Y016000D02*
Y016579D01*
X030431Y016647*
X030431D02*
Y017338D01*
X030431D02*
X030200Y017570D01*
Y018065*
X031500Y016000D02*
X031013Y016486D01*
X033500Y021635D02*
X033497D01*
X033497D02*
Y021652D01*
X032900Y020965D02*
X033500D01*
X032900Y021635D02*
X032882D01*
X030500Y020965D02*
X031100D01*
Y021635D02*
X030500D01*
Y022150*
X031700Y020965D02*
X031100D01*
X031130*
X031400Y018735D02*
Y018740D01*
X031960*
X039950Y014900D02*
Y018185D01*
X039760Y018375*
Y022085*
X039370Y022475*
Y033723*
X039370D02*
X039114Y033978D01*
X039350Y020900D02*
Y021298D01*
X039250Y021398*
Y033656*
X038990Y033916*
Y035482*
X038925Y035547*
Y036484*
X040200Y014600D02*
Y018185D01*
X040200D02*
X039930Y018455D01*
X039930D02*
Y022368D01*
X039930D02*
X039865Y022433D01*
X040200Y018650D02*
Y022552D01*
X039985Y022767*
X045100Y018700D02*
Y020530D01*
X045415Y020845*
Y023625*
X038300Y018200D02*
Y018800D01*
X039000Y021812D02*
Y022250D01*
X038835Y022415*
Y022750*
X038935Y018800D02*
Y019158D01*
X039000Y019223*
Y019687*
X038265Y018800D02*
Y019235D01*
X038000Y019500*
Y019687*
X038265Y018800D02*
X038300D01*
X041500Y020106D02*
X042500Y021106D01*
Y022800*
X052990Y020740D02*
X052977Y020727D01*
X052977D02*
X052692Y021012D01*
X053130Y015720D02*
X052960D01*
X052680Y016000*
X052488Y021848D02*
X052469D01*
Y022300*
X052436Y021463D02*
X052744Y021771D01*
X052744D02*
Y021848D01*
X052436Y021463D02*
X052420Y021480D01*
X053009Y016290D02*
X052525D01*
X052525D02*
X052232Y016583D01*
X052232D02*
Y016848D01*
X053380Y021490D02*
X053100D01*
X053000Y021590*
Y021848*
X053317Y015997D02*
X053335D01*
X053335D02*
Y016000D01*
X053317Y015997D02*
X053022Y016292D01*
X053009Y016848D02*
Y016290D01*
X053009D02*
X053020D01*
X052762Y016848D02*
X052744D01*
X052580Y016539D02*
X052762Y016721D01*
X052762D02*
Y016848D01*
X053230Y019530D02*
X053240Y019519D01*
X053240D02*
X052990Y019269D01*
X052700Y020200D02*
X052083Y020816D01*
X052083D02*
Y023382D01*
X052600Y016520D02*
X052580Y016539D01*
X053350Y015500D02*
X053130Y015720D01*
X053022Y016292D02*
X053020Y016290D01*
X053479*
X053479D02*
X053767Y016577D01*
X053767D02*
Y016848D01*
X053380Y021490D02*
X053666D01*
X053666D02*
X053767Y021591D01*
X053767D02*
Y021848D01*
X051550Y018000D02*
Y018361D01*
X052232Y019043*
Y019151*
X051040Y019460D02*
X052055D01*
X052345Y019750*
X053314*
X052232Y021848D02*
Y022482D01*
X052480Y022730*
X053255Y021848D02*
Y022664D01*
X053255D02*
X052480Y023440D01*
X053511Y021848D02*
Y023181D01*
X053511D02*
X053930Y023600D01*
X052488Y016848D02*
Y017151D01*
X052420Y017219*
Y017480*
X053000Y016848D02*
X053009D01*
X053255D02*
Y016956D01*
X053255D02*
X052882Y017330D01*
X052882D02*
Y017357D01*
X052882D02*
X051990Y018250D01*
X053511Y016848D02*
Y016956D01*
X053511D02*
X053250Y017218D01*
X053250D02*
Y017900D01*
X053767Y019151D02*
Y019259D01*
X053767D02*
X053550Y019477D01*
X053550D02*
Y019514D01*
X053314Y019750*
X053000Y019151D02*
X052990D01*
X052990D02*
Y019269D01*
X052665Y021000D02*
Y021012D01*
X052665D02*
X052692D01*
X053335Y021000D02*
X053380D01*
Y021490*
X052665Y016000D02*
X052680D01*
X055536Y017069D02*
X055485D01*
X055485D02*
X053511Y019043D01*
X053511D02*
Y019151D01*
X054250Y021500D02*
Y023988D01*
X053828Y024410*
X054500Y016500D02*
Y017799D01*
X053255Y019043*
X053255D02*
Y019151D01*
X057606Y018500D02*
X055420Y020686D01*
Y022988*
X053878Y024530*
X057606Y015000D02*
X055536Y017069D01*
X012799Y029530D02*
X015498D01*
X015498D02*
X015968Y030000D01*
X012799Y029530D02*
X012434Y029895D01*
X013467Y029650D02*
X014831D01*
X015181Y030000*
X013467Y029650D02*
X013250Y029867D01*
Y030937*
X012434Y029895D02*
Y030194D01*
X012434D02*
X012750Y030510D01*
Y030937*
X011630Y026475D02*
Y027559D01*
X011630D02*
X011820Y027750D01*
X011510Y027939D02*
X011820Y028250D01*
X011820D02*
X011996D01*
X011510Y023439D02*
X011820Y023750D01*
X011820D02*
X011996D01*
X013638Y023828D02*
X014359Y024550D01*
X014507*
X014507D02*
X015490Y025532D01*
Y026550*
X015490D02*
X017300Y028360D01*
X017300D02*
Y031172D01*
X017300D02*
X017520Y031392D01*
X017520D02*
Y032090D01*
X011996Y023250D02*
X011820D01*
X011996Y022750D02*
X012431D01*
X011996Y022250D02*
X012171D01*
X011996Y027750D02*
X011820D01*
X011996Y027250D02*
X012431D01*
X011996Y026750D02*
X012171D01*
X013393Y025500D02*
X012727Y026166D01*
Y026193*
X012727D02*
X012171Y026750D01*
X012606Y025500D02*
X011630Y026475D01*
X011818Y025500D02*
Y025981D01*
X011818D02*
X011510Y026290D01*
Y027939*
X015165Y023500D02*
X015150D01*
X014944Y023705*
X015165Y028000D02*
X015150D01*
X014944Y028205*
X019371Y028060D02*
X019964D01*
X022120Y030215*
X022120D02*
Y031158D01*
X023021Y032060*
X023021D02*
X023760D01*
X024123Y032423*
X025217*
X025217D02*
X025384Y032590D01*
X025384D02*
X026560D01*
X019371Y028060D02*
X019260Y028171D01*
X015835Y027995D02*
X015855D01*
X016265Y028405*
X015835Y027995D02*
Y028000D01*
X019900Y023035D02*
X019875D01*
Y023470*
X021000Y023035D02*
X020970D01*
Y023440*
X020400Y022350D02*
X019900D01*
Y022365*
X022200Y025135D02*
X021785D01*
X021780Y025140*
X014600Y023725D02*
X014003D01*
X014003D02*
Y023750D01*
X014600Y028225D02*
X014003D01*
X014003D02*
Y028250D01*
X019321Y027940D02*
X020179D01*
X020179D02*
X020509Y028270D01*
X020509D02*
X021465D01*
X022165Y028970*
X023954*
X019321Y027940D02*
X019140Y028121D01*
X014043Y027710D02*
X015300D01*
X015500Y027909*
X015500D02*
Y028566D01*
X016400Y029466*
Y031550*
X014043Y027710D02*
X014003Y027750D01*
X014043Y023210D02*
X015970D01*
X017450Y024689*
X017450D02*
Y030671D01*
X018838Y032060*
X018838D02*
X019928D01*
X019928D02*
X020160Y032291D01*
Y033967*
X014043Y023210D02*
X014003Y023250D01*
X014944Y023705D02*
X014600D01*
Y023725*
X014944Y028205D02*
X014600D01*
Y028225*
X020290Y026755D02*
Y026760D01*
X019610Y024970D02*
X020329Y025690D01*
X020329D02*
X021900D01*
X019140Y028121D02*
Y030440D01*
X019450Y030750*
X021600Y023035D02*
X021615D01*
Y023065*
X021265Y023415*
X021280Y023430*
X021830Y023440D02*
X021840Y023450D01*
X015835Y023517D02*
X015837D01*
X015837D02*
X015462Y023892D01*
X015462D02*
X015480Y023910D01*
X019260Y028171D02*
Y028560D01*
X019450Y028750*
X020940Y023440D02*
X020970D01*
X020600Y023450D02*
Y023810D01*
X020800Y024010*
Y024465*
X021300Y029700D02*
Y035380D01*
X022370Y036450*
X020290Y026760D02*
Y027000D01*
X020040Y027250*
X016270Y028400D02*
X016265Y028405D01*
X021450Y025140D02*
X021780D01*
X020400Y022350D02*
X021000D01*
Y022365*
X014600Y028200D02*
Y028205D01*
Y023700D02*
Y023705D01*
X019850Y023470D02*
X019875D01*
X020800Y025135D02*
Y025140D01*
X021450*
X020200Y025135D02*
X020800D01*
X020200Y024465D02*
Y024480D01*
X020490Y024770*
X021000Y022365D02*
X021600D01*
X019650Y029250D02*
X020140D01*
X019650Y028750D02*
X019450D01*
X019650Y028250D02*
X019850D01*
X020700Y029100*
Y034300*
X019650Y027750D02*
X020460D01*
X019650Y027250D02*
X020040D01*
X019650Y026750D02*
Y026755D01*
X020290*
X019650Y026250D02*
X020040D01*
X020290Y026500*
Y026755*
X015835Y023500D02*
Y023517D01*
X014003Y022250D02*
X014179D01*
X014003Y022750D02*
X015679D01*
X015679D02*
X017700Y024770D01*
Y030550*
X014003Y026750D02*
X014179D01*
X014003Y027250D02*
X015510D01*
X017140Y028879*
X017140D02*
Y032014D01*
X017475Y032350*
X017475D02*
X017750D01*
X014968Y025500D02*
Y025960D01*
X014968D02*
X014179Y026750D01*
X014181Y025500D02*
X012431Y027250D01*
X027060Y022000D02*
X026939D01*
X026939D02*
X026700Y022239D01*
X026700D02*
Y023428D01*
X026135Y023993*
X028864Y029590D02*
X028791D01*
X028200Y030181*
Y030900*
X027878Y025150D02*
X029021D01*
X029021D02*
X029051Y025180D01*
X029051D02*
X031380D01*
X027878Y025150D02*
X027828Y025200D01*
X026160Y023290D02*
X026010D01*
X025820Y023480*
X026471Y029228D02*
X026421D01*
X026421D02*
X026000Y029650D01*
Y029665*
X025786Y028623D02*
X025772D01*
X025772D02*
X025290Y029105D01*
X025290D02*
Y029160D01*
X024800Y029650*
Y029665*
X025279Y026830D02*
X026365D01*
X026725Y027190*
X027260*
X025279Y026830D02*
X024960Y027149D01*
X024960D02*
Y027964D01*
X023954Y028970*
X029028Y026310D02*
X028140D01*
X027950Y026500*
Y026750*
X029028Y026310D02*
X029200Y026481D01*
X029675Y024535D02*
X030000Y024860D01*
Y024865*
X029675Y024535D02*
X029670Y024540D01*
X024000Y023035D02*
X023985D01*
Y023500*
X025200Y023035D02*
X025187D01*
X025187D02*
Y023037D01*
X025187D02*
X024712Y023512D01*
X027802Y026070D02*
X029520D01*
X029950Y026500*
Y026750*
X027802Y026070D02*
X027685Y026186D01*
X024760Y026040D02*
X026524D01*
X026670Y026186*
X026670D02*
X027685D01*
X024760Y026040D02*
X023550Y027250D01*
X027971Y026190D02*
X029140D01*
X029450Y026500*
Y026750*
X027971Y026190D02*
X027851Y026310D01*
X025249Y026160D02*
X026365D01*
X026515Y026310*
X027851*
X025249Y026160D02*
X024460Y026949D01*
X024460D02*
Y027664D01*
X024194Y027930*
X023350Y026250D02*
X023150D01*
X022840Y026560*
X027633Y025950D02*
X029900D01*
X030450Y026500*
Y026750*
X027633Y025950D02*
X027518Y026065D01*
X024380Y025920D02*
X026683D01*
X026828Y026065*
X027518*
X024380Y025920D02*
X023550Y026750D01*
X029900Y023035D02*
X029870D01*
Y023440*
X028700Y023035D02*
X028687D01*
X028687D02*
Y023037D01*
X028687D02*
X028412Y023312D01*
X028100Y023035D02*
X028095D01*
Y023440*
X027000Y023035D02*
X026975D01*
Y023460*
X027974Y022725D02*
X030063D01*
X031768Y024430*
X032420*
X027974Y022725D02*
X027225Y023474D01*
X027225D02*
Y023594D01*
X027225D02*
X026809Y024010D01*
X026809D02*
X026690D01*
X026350Y024350*
X029312Y023035D02*
Y023062D01*
X029312D02*
X028987Y023387D01*
X029312Y023035D02*
X029300D01*
X028987Y023387D02*
X029000Y023400D01*
X023740Y026328D02*
X023568Y026500D01*
X023568D02*
X023131D01*
X022960Y026671*
Y027328*
X022915Y027832D02*
Y028389D01*
X022784Y028520*
X022960Y027328D02*
X023131Y027500D01*
X023800*
X024010Y027710*
X022200Y023035D02*
X022210D01*
Y023060*
X021830Y023440*
X026730Y028090D02*
X026720D01*
X027760Y029272D02*
Y030912D01*
X027760D02*
X027835Y030987D01*
X029200Y026481D02*
Y027832D01*
X027760Y029272*
X022840Y026560D02*
Y027757D01*
X022915Y027832*
X027640Y028310D02*
Y031000D01*
X027640D02*
X027715Y031075D01*
X026135Y023993D02*
Y025095D01*
X026889Y025850*
X023980Y024640D02*
X024600D01*
X023320Y024310D02*
X023740Y024730D01*
Y026328*
X022390Y028500D02*
Y028520D01*
X022784*
X025090Y023440D02*
X025410D01*
X024710Y023510D02*
X024712Y023512D01*
X028090Y023440D02*
X028095D01*
X028400Y023300D02*
X028412Y023312D01*
X026350Y024900D02*
X026587D01*
X026887Y025200*
X027828*
X027310Y025850D02*
X026889D01*
X027300Y024350D02*
Y024565D01*
X027000Y024865*
X027690Y023410D02*
Y024050D01*
X027600Y024140*
Y024865*
X023100Y022700D02*
Y025345D01*
X023100D02*
X022410Y026035D01*
X022410D02*
Y028020D01*
X029840Y023440D02*
X029870D01*
X026130Y028920D02*
X025400Y029650D01*
Y029665*
X026310Y028210D02*
Y028470D01*
X026130Y028650*
Y028920*
X028100Y025370D02*
X028930D01*
X029095Y025535*
X030000*
X028100Y025370D02*
X027935Y025535D01*
X023430Y022200D02*
X023595Y022365D01*
X024000*
X023430Y022200D02*
X023265Y022365D01*
X026840Y028860D02*
X026471Y029228D01*
X026010Y028400D02*
X025786Y028623D01*
X023970Y023500D02*
X023985D01*
X026950Y023460D02*
X026975D01*
X027450Y026750D02*
Y027000D01*
X027260Y027190*
X028450Y026750D02*
Y027000D01*
X027290Y028160*
Y028800*
X026090Y030000*
X028950Y026750D02*
Y027000D01*
X027640Y028310*
X024600Y025235D02*
X024995D01*
X025000Y025240*
X025310*
X024600Y024565D02*
Y024640D01*
X022200Y024465D02*
Y024540D01*
X022830*
X026400Y023035D02*
Y023050D01*
X026160Y023290*
X025800Y023035D02*
Y023050D01*
X025410Y023440*
X024600Y023035D02*
Y023050D01*
X024300Y023350*
X027935Y025535D02*
X027600D01*
X027000*
X022200Y022365D02*
X022800D01*
X028100D02*
X028700D01*
X029300D02*
X029900D01*
X023350Y026750D02*
X023550D01*
X023350Y027250D02*
X023550D01*
X023350Y027750D02*
X023550D01*
X023730Y027930*
X024194*
X023350Y029250D02*
X023178D01*
X023178D02*
X022840Y029588D01*
X022840D02*
Y031708D01*
X022800Y023035D02*
X022805D01*
Y023450*
X022810*
X022800Y022365D02*
X023265D01*
X029900D02*
X030285D01*
X027000D02*
X027015D01*
X025400Y026465D02*
Y026480D01*
X024800Y027080*
Y027820*
X024070Y028550*
X025400Y026465D02*
X026000D01*
X025400Y027135D02*
Y027150D01*
X025810Y027560*
X026044*
X026295Y027810*
X026295D02*
Y027964D01*
X026295D02*
X026310Y027979D01*
X026310D02*
Y028210D01*
X026000Y026465D02*
X026365D01*
X026650Y026750*
X026950*
X026000Y027135D02*
Y027150D01*
X026350Y027500*
X026454*
X026730Y027775*
X026730D02*
Y028090D01*
X037465Y028400D02*
X037455D01*
X036977Y028877*
X030240Y028910D02*
X034853D01*
X035255Y029311*
X035255D02*
Y030332D01*
X030240Y028910D02*
X028950Y030200D01*
Y030450*
X030546Y029030D02*
X034803D01*
X034803D02*
X035135Y029361D01*
Y030252*
X030546Y029030D02*
X029950Y029626D01*
Y030450*
X030590Y029155D02*
X034759D01*
X035015Y029410*
X035015D02*
Y030161D01*
X030590Y029155D02*
X030435Y029310D01*
X037655Y027402D02*
X037687D01*
X037687D02*
X037977Y027692D01*
X037655Y027402D02*
Y027405D01*
X034900Y024250D02*
X034885Y024235D01*
X034700Y024420*
X037800Y029735D02*
X037770D01*
Y030200*
X037655Y027795D02*
X037625D01*
X035900Y029520*
Y032600*
X036903Y027396D02*
X037111Y027603D01*
X037111D02*
X037145D01*
X036903Y027396D02*
X036900Y027400D01*
X031571Y029310D02*
X033447D01*
X033447D02*
X033507Y029370D01*
X033507D02*
X033900D01*
X031571Y029310D02*
X030760Y030121D01*
X032665Y026500D02*
X032120D01*
X031870Y026750*
X032465Y029600D02*
X031730D01*
X031450Y029880*
X032900Y023035D02*
X032887D01*
X032887D02*
Y023037D01*
X032887D02*
X032612Y023312D01*
X033500Y023035D02*
X033487D01*
X033487D02*
Y023037D01*
X033487D02*
X033202Y023322D01*
X033135Y029585D02*
X033165D01*
X033625Y030045*
X033135Y029585D02*
Y029600D01*
X032400Y025600D02*
Y025840D01*
X032710Y026150*
X032970*
X033320Y026500*
X033335*
X032440Y024430D02*
X032420D01*
Y024865*
X032307Y023035D02*
Y023057D01*
X032307D02*
X031882Y023482D01*
X032307Y023035D02*
X032300D01*
X031882Y023482D02*
X031890Y023490D01*
X030615Y024865D02*
X030600D01*
X030335Y024555D02*
X030615Y024835D01*
Y024865*
X036977Y028877D02*
X036980Y028880D01*
X032772Y029882D02*
X032467Y030187D01*
X030435Y029310D02*
Y029745D01*
X030450Y029760*
Y030450*
X034465Y026387D02*
X035375Y027297D01*
Y030413*
X030640Y029848D02*
Y033993D01*
X030795Y034148*
X030350Y024540D02*
X030335Y024555D01*
X030650Y029400D02*
Y029838D01*
X030640Y029848*
X034800Y029500D02*
Y030154D01*
X034194Y030760*
X034530Y029790D02*
X033820Y030500D01*
X033190Y023310D02*
X033202Y023322D01*
X032600Y023300D02*
X032612Y023312D01*
X031530Y023480D02*
X031545Y023495D01*
X031380Y025180D02*
X032700D01*
X034500Y023200D02*
Y023860D01*
X034465Y023895*
Y026387*
X033800Y024600D02*
X034145D01*
X036670Y027820D02*
X035640Y028850D01*
Y030337*
X035300Y030677*
Y030900*
X036800Y026350D02*
X037200D01*
Y025250D02*
Y025665D01*
X037980Y027690D02*
X037977Y027692D01*
X030500Y022150D02*
X030715Y022365D01*
X031100*
X030500Y022150D02*
X030285Y022365D01*
X032760Y029870D02*
X032772Y029882D01*
X031450Y029880D02*
Y030450D01*
X031900Y025600D02*
X032400D01*
X030950Y026750D02*
Y027504D01*
X028864Y029590*
X031450Y026750D02*
X031870D01*
X032400Y024865D02*
X032420D01*
X032400Y025535D02*
Y025600D01*
X030000Y025535D02*
X030600D01*
X031700Y023035D02*
Y023340D01*
X031545Y023495*
X033000Y025535D02*
X033025D01*
Y025950*
X033050*
X033000Y024865D02*
Y024880D01*
X032700Y025180*
X034655Y024405D02*
Y024420D01*
X034700*
X034655Y024795D02*
X034685D01*
X036150Y026260*
Y026320*
X037625Y027795*
X037655*
X037145Y027600D02*
Y027603D01*
X037800Y025665D02*
Y025680D01*
X038020Y025900*
Y026050*
X038180Y026210*
X031100Y023035D02*
X031125D01*
Y023460*
X031150*
X037800Y029065D02*
X038125D01*
X037200Y026350D02*
Y026335D01*
X037800*
X041000Y029735D02*
X040995D01*
Y030340*
X041290Y027189D02*
X040800Y027679D01*
X040800D02*
Y028165D01*
X041290Y028655*
Y030083*
X039800Y025061D02*
Y031021D01*
X041355Y032576*
X039805Y024042D02*
Y025056D01*
X039800Y025061*
X039920Y025728D02*
Y030971D01*
X039920D02*
X041371Y032423D01*
X039925Y023774D02*
Y025723D01*
X039920Y025728*
X039865Y022433D02*
Y023714D01*
X039865D02*
X039925Y023774D01*
X040160Y027062D02*
Y029936D01*
X042250Y032026*
X040040Y026395D02*
Y029987D01*
X042130Y032077*
X040045Y023507D02*
Y026390D01*
X040040Y026395*
X039985Y022767D02*
Y023447D01*
X040045Y023507*
X045415Y023625D02*
X045295Y023745D01*
Y024909*
X047735Y027350*
X047735D02*
X048382D01*
X048382D02*
X049300Y028267D01*
Y034100*
X045510Y024820D02*
X047800Y027110D01*
X048312*
X049700Y028497*
X049700D02*
Y033100D01*
X050800Y034200*
Y036554*
X055055Y040810*
X055055D02*
X055111D01*
X055111D02*
X056250Y041948D01*
Y044051*
X056250D02*
X056698Y044500D01*
X056801*
X056801D02*
X057256Y044955D01*
X057256D02*
Y045256D01*
X057256D02*
X058000Y046000D01*
X042800Y029200D02*
Y030182D01*
X042800D02*
X043000Y030382D01*
X041800Y028900D02*
Y030424D01*
X042060Y030685*
X039650Y023150D02*
Y023887D01*
X039650D02*
X039805Y024042D01*
X040200Y023140D02*
Y027022D01*
X040200D02*
X040160Y027062D01*
X039590Y024350D02*
Y033691D01*
X039234Y034046*
X038600Y025450D02*
Y027441D01*
X038600D02*
X037800Y028241D01*
X037800D02*
Y028565D01*
X036900Y029465*
Y031950*
X045900Y024060D02*
Y024554D01*
X048215Y026870*
X048215D02*
X048242D01*
X050100Y028727*
X050100D02*
Y032450D01*
X055000Y037350*
Y038000*
X038020Y022330D02*
X038050D01*
Y022750*
X038165*
X041050Y026750D02*
Y027230D01*
X040480Y027800*
X038300Y028890D02*
X038125Y029065D01*
X041000Y025160D02*
Y025665D01*
X038165Y022750D02*
Y023555D01*
X038730Y024120*
X040480Y027800D02*
X040465D01*
Y028515*
X041000Y029050*
Y029065*
X041135Y027800D02*
Y027825D01*
X041770*
Y027850*
X038135Y028400D02*
Y028725D01*
X038300Y028890*
X041000Y026335D02*
X041025D01*
Y026750*
X041050*
X052665Y025995D02*
X052685D01*
X053055Y026365*
X052665Y025995D02*
Y026000D01*
X053050Y023650D02*
X053024D01*
X053024D02*
Y024151D01*
X053900Y028800D02*
X053755D01*
X053511Y029043*
X053511D02*
Y029151D01*
X053292Y029707D02*
X053457D01*
X053457D02*
X053460Y029710D01*
X053466*
X053292Y029707D02*
X053140Y029860D01*
X052341Y027871D02*
X052278D01*
X052278D02*
X051920Y028230D01*
X053390Y026420D02*
X053372Y026402D01*
X053000Y026774*
X053000D02*
Y026848D01*
X053404Y026405D02*
X053767Y026768D01*
X053767D02*
Y026848D01*
X053404Y026405D02*
X053390Y026420D01*
X052083Y023382D02*
X052744Y024043D01*
Y024151*
X046450Y024410D02*
Y024832D01*
X046450D02*
X047657Y026040D01*
X047994*
X050510Y028555*
X050510D02*
Y031060D01*
X057552Y038102*
X057552D02*
Y043132D01*
X057552D02*
X058000Y043580D01*
Y044000*
X048200Y026550D02*
X050300Y028650D01*
Y031650*
X057375Y038725*
Y043953*
X057707Y044285*
X057707D02*
Y044707D01*
X058000Y045000*
X047900Y025100D02*
X050660Y027860D01*
Y030994*
X050660D02*
X058000Y038334D01*
X058000D02*
Y042000D01*
X053950Y027200D02*
X052744Y028405D01*
X052744D02*
Y029151D01*
X053360Y023780D02*
X053255Y023884D01*
X053255D02*
Y024151D01*
X051090Y028210D02*
X052031Y029151D01*
X052031D02*
X052232D01*
X053100Y023200D02*
X053767Y023867D01*
X053767D02*
Y024151D01*
X052450Y026450D02*
X052469D01*
Y026848*
X052488*
X052450Y022300D02*
X052469D01*
X053060Y026360D02*
X053055Y026365D01*
X052040Y025830D02*
Y026221D01*
X052040D02*
X052232Y026414D01*
Y026848*
X051520Y022000D02*
Y023331D01*
X052232Y024043*
Y024151*
X052744Y026848D02*
Y027155D01*
X052744D02*
X052450Y027450D01*
X053255Y026848D02*
Y026956D01*
X053255D02*
X052341Y027871D01*
X053511Y026848D02*
Y027138D01*
X053511D02*
X053300Y027350D01*
X053767Y029151D02*
Y029408D01*
X053767D02*
X053466Y029710D01*
X053255Y029151D02*
Y029408D01*
X053255D02*
X053337Y029490D01*
X053380*
X053000Y029151D02*
X053014D01*
X053014D02*
Y029560D01*
X053014D02*
X053030D01*
X052488Y029151D02*
Y029512D01*
X053055Y030080*
X053055D02*
X053266D01*
X053511Y024151D02*
Y024259D01*
X053511D02*
X053661Y024410D01*
X053661D02*
X053828D01*
X053000Y024151D02*
X053024D01*
X052488D02*
Y024259D01*
X052488D02*
X052758Y024530D01*
X053878*
X053335Y026000D02*
X053390D01*
Y026420*
X047500Y027856D02*
X045380Y029976D01*
Y033920*
X043185Y036115*
X054200Y028500D02*
X053900Y028800D01*
X057606Y025500D02*
X055639Y027467D01*
Y027707*
X053266Y030080*
X012465Y036660D02*
X013828D01*
X014000Y036831*
X014000D02*
Y037606D01*
X014393Y038000*
X012465Y036660D02*
X012250Y036875D01*
X012250D02*
Y037062D01*
X013463Y033654D02*
X014047D01*
X014047D02*
X014393Y034000D01*
X013463Y033654D02*
X013212Y033904D01*
X013212D02*
Y034287D01*
X013212D02*
X012750Y034750D01*
Y034937*
X012403Y037627D02*
X012935D01*
X012935D02*
X013250Y037941D01*
X013250D02*
Y038937D01*
X012403Y037627D02*
X012031Y038000D01*
X013300Y032400D02*
X013275D01*
Y033062*
X011606Y035043D02*
X011406D01*
X011406D02*
X011200Y035250D01*
Y035265*
X012450Y033650D02*
X012445Y033654D01*
X011760Y034890D02*
X012250D01*
Y034937*
X011760Y034890D02*
X011606Y035043D01*
X012250Y031000D02*
X011800D01*
X011535Y031265*
X011200D02*
X011535D01*
X011200Y031935D02*
Y032350D01*
Y035935D02*
Y036350D01*
X012250Y030937D02*
Y031000D01*
X013750Y030937D02*
Y031550D01*
X014000Y031800*
X013250Y033062D02*
X013275D01*
X012750D02*
Y033250D01*
X013034Y033534*
X014230*
X014230D02*
X014316Y033620D01*
X014316D02*
X014801D01*
X015181Y034000*
X012250Y033062D02*
Y033458D01*
X012445Y033654*
X013250Y037062D02*
Y037250D01*
X013530Y037530*
X013625*
X014000Y037904*
X014000D02*
Y038095D01*
X014275Y038371*
X014275D02*
X016151D01*
X016151D02*
X017790Y040010D01*
X017790D02*
X018737D01*
X019075Y040347*
X019075D02*
Y040675D01*
X019450Y041050*
X019650*
X012750Y037062D02*
Y037250D01*
X013076Y037576*
X013182*
X013182D02*
X013606Y038000D01*
Y030000D02*
X014096Y030490D01*
X014990*
X015250Y030750*
Y030937*
X012818Y030000D02*
Y030377D01*
X012818D02*
X013000Y030558D01*
X013000D02*
Y031168D01*
X013931Y032100*
X013931D02*
X014474D01*
X015250Y032875*
X015250D02*
Y033062D01*
X012031Y030000D02*
X012500Y030468D01*
X012500D02*
Y031168D01*
X013781Y032450*
X013781D02*
X014324D01*
X014750Y032875*
X014750D02*
Y033062D01*
X013606Y034000D02*
Y034393D01*
X013606D02*
X013250Y034750D01*
Y034937*
X012031Y034000D02*
X012500Y034468D01*
X012500D02*
Y035168D01*
X013001Y035670*
X013001D02*
X014704D01*
X019650Y033250D02*
X019450D01*
X019195Y033505*
Y034026*
X018644Y034576*
X018644D02*
X017481D01*
X017481D02*
X016718Y035340D01*
X014983Y034516D02*
X015310D01*
X015310D02*
X015500Y034705D01*
X015500D02*
Y035168D01*
X015671Y035340*
X015671D02*
X016718D01*
X014983Y034516D02*
X014750Y034750D01*
Y034937*
X019405Y032525D02*
X019894D01*
X019894D02*
X020040Y032671D01*
Y033560*
X019405Y032525D02*
X018890Y033041D01*
Y033337*
X018727Y033500*
X018165Y036025D02*
X017650D01*
Y036050*
X014465Y036660D02*
X015328D01*
X015500Y036831*
X015500D02*
Y037294D01*
X015761Y037556*
X015761D02*
X016013D01*
X016013D02*
X016362Y037904D01*
X016362D02*
Y038095D01*
X018066Y039800*
X018066D02*
X021400D01*
X023150Y041550*
X023350*
X014465Y036660D02*
X014250Y036875D01*
X014250D02*
Y037062D01*
X018675Y036450D02*
X018660D01*
X018500Y036610*
Y037000*
X018630Y032230D02*
X019650D01*
Y032250*
X018630Y032230D02*
X018290Y032570D01*
X019650Y032750D02*
X019450D01*
X019010Y033190*
Y034041*
X019010D02*
X018628Y034423D01*
X015829Y033650D02*
X017246D01*
X017246D02*
X018020Y034423D01*
X018628*
X015829Y033650D02*
X015574Y033904D01*
X015574D02*
Y034095D01*
X015574D02*
X015273Y034396D01*
X015273D02*
X014103D01*
X014103D02*
X013750Y034750D01*
Y034937*
X019650Y031250D02*
X019490D01*
X019230Y031510*
X019650Y035050D02*
X019450D01*
X019260Y035240*
Y035550*
X018830Y035980D02*
X018835D01*
Y036000*
X020270Y031390D02*
X020435Y031555D01*
X020700Y034300D02*
X020960Y034560D01*
X018830Y035980D02*
X019260Y035550D01*
X019650*
X020960Y034560D02*
Y036161D01*
X020960D02*
X020071Y037050D01*
X020315Y035035D02*
X020140Y035210D01*
Y035770*
X020435Y031555D02*
Y035785D01*
X020090Y036130*
Y036350*
X020160Y033967D02*
X020100Y034027D01*
Y034600*
X015602Y034602D02*
X015750Y034750D01*
Y034937*
X019230Y031510D02*
X019250Y031530D01*
X019245Y031535D02*
X019460Y031750D01*
X019650*
X020040Y033560D02*
X019850Y033750D01*
X019650*
X015620Y034370D02*
X015602D01*
X015602D02*
Y034602D01*
X019250Y031530D02*
X019245Y031535D01*
X020740Y035890D02*
X020446Y036183D01*
X020446D02*
Y036297D01*
X020446D02*
X020174Y036570D01*
X015750Y036550D02*
Y037062D01*
Y032550D02*
Y033062D01*
X019650Y030750D02*
X019450D01*
X019650Y037550D02*
X021954D01*
X019650Y037050D02*
X020071D01*
X019650Y036550D02*
Y036570D01*
X020174*
X018835Y036000D02*
Y036290D01*
X018675Y036450*
X018835Y036000D02*
Y036025D01*
X019650*
Y036050*
X018165Y036000D02*
Y036025D01*
X014250Y030937D02*
X014280D01*
Y031450*
X014310*
X014750Y030937D02*
Y031124D01*
X016195Y032570*
X016195D02*
X018290D01*
X014250Y033062D02*
Y033250D01*
X014500Y033500*
X018727*
X014250Y034937D02*
Y035450D01*
X015250Y034937D02*
Y035124D01*
X014704Y035670*
X015250Y037062D02*
Y037281D01*
X015968Y038000*
X014750Y037062D02*
Y037568D01*
X014750D02*
X015181Y038000D01*
X014393Y030000D02*
X014763Y030370D01*
X014763D02*
X015370D01*
X015750Y030750*
Y030937*
X023350Y032750D02*
X023175D01*
X022937Y032987*
X029371Y030010D02*
X029528D01*
X029528D02*
X029700Y030181D01*
Y031150*
X030000Y031450*
Y036270*
X029371Y030010D02*
X029200Y030181D01*
Y030718*
X029200D02*
X029028Y030890D01*
X026090Y030000D02*
X024249D01*
X023749Y030500*
X023131*
X022960Y030671*
X024181Y031576D02*
X025926D01*
X025926D02*
X026250Y031900D01*
Y032150*
X024181Y031576D02*
X023818Y031940D01*
X025665Y033480D02*
X027234D01*
X028500Y034745*
X028500D02*
Y036118D01*
X028500D02*
X028781Y036400D01*
X029000*
X029250Y036650*
Y036900*
X025665Y033480D02*
X025440Y033705D01*
X025440D02*
Y034611D01*
X025440D02*
X024501Y035550D01*
X026151Y034930D02*
X027934D01*
X028065Y035060*
X028065D02*
Y035365D01*
X026151Y034930D02*
X025376Y035704D01*
X025376D02*
Y036674D01*
X025376D02*
X024630Y037420D01*
X027673Y036454D02*
X028054D01*
X028054D02*
X028250Y036650D01*
Y036900*
X027673Y036454D02*
X027587Y036540D01*
X026671Y035410D02*
X026828D01*
X026828D02*
X027000Y035581D01*
Y036124*
X027415Y036540*
X027415D02*
X027587D01*
X026671Y035410D02*
X026500Y035581D01*
Y036125*
X026000Y036625*
Y037168*
X026000D02*
X025597Y037571D01*
X023850Y033220D02*
X023350D01*
Y033250*
Y033775D02*
X022800D01*
Y033800*
X027850Y035150D02*
X027822D01*
X027822D02*
Y035367D01*
X027822D02*
X027800Y035390D01*
X027797*
X027797D02*
X027777Y035410D01*
X027777D02*
Y035850D01*
X026450Y035250D02*
X026430Y035230D01*
X026250Y035410*
Y035850*
X028320Y033330D02*
X025646D01*
X025210Y033766*
Y034011*
X024644Y034576*
X024644D02*
X024023D01*
X024023D02*
X023550Y035050D01*
X027793Y033180D02*
X025626D01*
X025626D02*
X024990Y033816D01*
X024990D02*
Y034061D01*
X024990D02*
X024628Y034423D01*
X023507*
X023507D02*
X022960Y034971D01*
X028171Y031710D02*
X028560D01*
X028750Y031900*
Y032150*
X028171Y031710D02*
X028012Y031868D01*
X028012D02*
Y032791D01*
X028012D02*
X027791Y033012D01*
X027791D02*
X025331D01*
X025331D02*
X024844Y033500D01*
X024261*
X024261D02*
X022677Y035084D01*
X022677D02*
Y036826D01*
X022677D02*
X021954Y037550D01*
X024800Y030335D02*
X024265D01*
X023850Y030750*
X029108Y037560D02*
X027890D01*
X027890D02*
X024950Y040500D01*
X029947Y037247D02*
X030100Y037400D01*
X027960Y030920D02*
Y031630D01*
X022937Y032987D02*
X022950Y033000D01*
X027835Y030987D02*
Y031393D01*
X027835D02*
X027560Y031668D01*
X027560D02*
Y032528D01*
X027378Y032710*
X022960Y030671D02*
Y031560D01*
X023150Y031750*
X022840Y031708D02*
X023071Y031940D01*
X023818*
X027715Y031075D02*
Y031316D01*
X027440Y031591*
Y032478*
X027440D02*
X027328Y032590D01*
X028065Y035365D02*
X028000Y035430D01*
Y036118*
X028000D02*
X028281Y036400D01*
X028500*
X028750Y036650*
Y036900*
X029865Y032955D02*
Y034810D01*
X029500Y035175*
Y036157*
X029385Y036272*
Y036502*
X029385D02*
X029453Y036571D01*
X029453D02*
Y037214D01*
X029453D02*
X029108Y037560D01*
X022960Y034971D02*
Y037860D01*
X023150Y038050*
X027930Y031630D02*
X027960D01*
X027500Y036320D02*
X027492Y036327D01*
X025100Y030600D02*
X025540Y031040D01*
X026390*
X027250Y031900*
Y032150*
X029430Y033500D02*
X028750Y034180D01*
Y035850*
X029250Y034700D02*
Y035850D01*
X028250Y034800D02*
Y035850D01*
X029600Y036400D02*
X029690D01*
X029750Y036460*
Y036900*
X025750Y033700D02*
Y034816D01*
X025073Y035493*
Y036006*
X025073D02*
X024500Y036580D01*
Y037000*
X023850Y033190D02*
Y033220D01*
X025440Y037140D02*
X025750D01*
X029750Y035300D02*
Y035850D01*
X025460Y032070D02*
X025750D01*
Y032150*
Y036900D02*
Y037140D01*
X026250Y036900D02*
Y037150D01*
X024976Y038423*
X026750Y036900D02*
Y037150D01*
X025323Y038576*
X027250Y036900D02*
Y037454D01*
X025280Y039423*
X027750Y036900D02*
Y037150D01*
X025323Y039576*
X029450Y030450D02*
Y032962D01*
X029450D02*
X029650Y033162D01*
X029650D02*
Y034650D01*
X028450Y030450D02*
Y030700D01*
X028640Y030890*
X029028*
X027950Y030450D02*
Y030910D01*
X027960Y030920*
X027450Y030450D02*
X027475D01*
Y031200*
X027500*
X026950Y030450D02*
Y030940D01*
X027200Y031190*
Y031450*
X027750Y035850D02*
X027777D01*
X027250D02*
X027257D01*
X027257D02*
Y036092D01*
X027257D02*
X027492Y036327D01*
X026750Y035850D02*
Y036100D01*
X026950Y036300*
Y037450*
X025750Y035850D02*
Y036100D01*
X025980Y036330*
X026750Y032150D02*
Y032400D01*
X026560Y032590*
X027750Y032150D02*
Y032750D01*
X028250Y032150D02*
Y032723D01*
X028250D02*
X027793Y033180D01*
X029250Y032150D02*
Y032400D01*
X028320Y033330*
X029750Y032150D02*
Y032840D01*
X029865Y032955*
X023350Y030750D02*
X023850D01*
X023350Y031250D02*
X023970D01*
X024143Y031423*
X026542*
X027000Y031881*
Y032418*
X027000D02*
X027171Y032590D01*
X027328*
X023350Y031750D02*
X023150D01*
X023350Y032250D02*
X023760D01*
X024086Y032576*
X024086D02*
X024914D01*
X024914D02*
X025048Y032710D01*
X027378*
X023350Y033750D02*
Y033775D01*
Y035050D02*
X023550D01*
X023350Y035550D02*
X024501D01*
X023350Y036050D02*
X023550D01*
X024000Y036500*
Y037051*
X024000D02*
X024369Y037420D01*
X024369D02*
X024630D01*
X023350Y036550D02*
X023550D01*
X023780Y036780*
Y037001*
X024350Y037571*
X024350D02*
X025597D01*
X026000Y030335D02*
X025400D01*
X024800*
X033135Y030200D02*
X033021D01*
X032261Y030960*
X033156Y037423D02*
X033353Y037619D01*
X033478*
X033156Y037423D02*
X033140Y037440D01*
X030580Y035820D02*
X030250D01*
Y035850*
X032467Y030187D02*
X032465D01*
X032465D02*
Y030200D01*
X035082Y033478D02*
X035061D01*
Y033950*
X036453Y032876D02*
X036972Y033396D01*
Y033478*
X036453Y032876D02*
X036440Y032890D01*
X036873Y034000D02*
X036745D01*
X036745D02*
X036385Y034360D01*
X036385D02*
Y034859D01*
X036089Y035155*
X037157Y034031D02*
X037018D01*
X037018D02*
X036600Y034450D01*
X033478Y036639D02*
X033604D01*
X033604D02*
X033850Y036885D01*
Y037100*
X033478Y036639D02*
Y036657D01*
X036245Y032670D02*
X037217D01*
X037917Y033370*
Y033478*
X036245Y032670D02*
X036065Y032850D01*
X033478Y034767D02*
X033058D01*
X033058D02*
X032550Y035275D01*
X032550D02*
Y036034D01*
X032550D02*
X032300Y036284D01*
X032300D02*
Y036910D01*
X033478Y036027D02*
X033022D01*
X033022D02*
X032800Y036250D01*
X034100Y037908D02*
X033478D01*
X033478D02*
Y037917D01*
X034194Y030760D02*
X033435D01*
X033435D02*
X031845Y032350D01*
X033478Y034137D02*
X033262D01*
X033262D02*
X032300Y035100D01*
X034020Y030630D02*
X033396D01*
X031725Y032301*
X033820Y030500D02*
X033356D01*
X033356D02*
X031500Y032356D01*
X031500D02*
Y042000D01*
X031200Y041450D02*
Y030960D01*
X032261*
X031845Y032350D02*
Y040161D01*
X031845D02*
X032890Y041206D01*
X030384Y037284D02*
Y037530D01*
X030384D02*
X030215Y037700D01*
X030000Y036270D02*
X029947Y036322D01*
X029947D02*
Y037247D01*
X034454Y033478D02*
X034452D01*
X034158Y033071D02*
X034454Y033368D01*
X034454D02*
Y033478D01*
X034772Y034047D02*
X034620Y034200D01*
X035992Y034622D02*
X036000Y034630D01*
X031725Y032301D02*
Y041225D01*
X032500Y042000*
X035015Y030161D02*
X033585Y031591D01*
Y033866*
X035135Y030252D02*
X033705Y031682D01*
X033705D02*
Y033798D01*
X035255Y030332D02*
X033825Y031762D01*
X033825D02*
Y033731D01*
X035375Y030413D02*
X033945Y031843D01*
Y033664*
X033825Y033731D02*
X034011Y033917D01*
X034011D02*
Y034135D01*
X034011D02*
X034411Y034535D01*
X034899*
X036657Y036293*
Y039521*
X033705Y033798D02*
X033890Y033983D01*
X033890D02*
Y034261D01*
X033890D02*
X034130Y034501D01*
X034130D02*
Y034739D01*
X034130D02*
X036027Y036637D01*
X036027D02*
Y039521D01*
X033585Y033866D02*
X033767Y034048D01*
Y034386*
X033767D02*
X033970Y034589D01*
X033970D02*
Y034806D01*
X033970D02*
X035500Y036335D01*
X035500D02*
Y038763D01*
X035712Y038975*
X035712D02*
Y039521D01*
X034095Y035595D02*
X034050Y035640D01*
Y035950*
X030795Y034148D02*
Y037795D01*
X030340Y038250*
Y038994*
X029224Y040110*
X030965Y032566D02*
Y040535D01*
X029500Y042000*
X033945Y033664D02*
X034133Y033852D01*
Y034087*
X034460Y034415*
X034460D02*
X034948D01*
X034948D02*
X037180Y036646D01*
Y037327*
X037180D02*
X038520Y038667D01*
X038520D02*
Y039071D01*
X038862Y039413*
Y039521*
X030760Y030121D02*
Y032361D01*
X030965Y032566*
X030000Y037700D02*
X030215D01*
X032200Y032600D02*
Y033860D01*
X032085Y033975*
Y038829*
X034550Y030100D02*
X034020Y030630D01*
X037700Y034200D02*
Y037559D01*
X037700D02*
X038650Y038509D01*
X038650D02*
Y038930D01*
X038650D02*
X039040Y039321D01*
X032750Y031750D02*
X032356Y032143D01*
X032356D02*
X032352D01*
X032352D02*
X031965Y032530D01*
X031965D02*
Y039479D01*
X032800Y035350D02*
X033162Y035712D01*
X033162D02*
X033478D01*
X034500Y034750D02*
X036342Y036592D01*
X036342D02*
Y039521D01*
X034160Y033070D02*
X034158Y033071D01*
X034100Y037900D02*
Y037908D01*
X035300Y032850D02*
X036065D01*
X035700Y034800D02*
X035720D01*
Y035015*
X035860Y035155*
X036089*
X035700Y033070D02*
X035706D01*
Y033478*
X035712*
X033090Y035040D02*
Y035061D01*
X033478*
Y035082*
X030250Y031600D02*
Y032150D01*
X033640Y030030D02*
X033625Y030045D01*
X035040Y033950D02*
X035061D01*
X037740Y030200D02*
X037770D01*
X030250Y036900D02*
Y037150D01*
X030384Y037284*
X030950Y030450D02*
Y030700D01*
X031200Y030950*
Y030960*
X033478Y037602D02*
Y037619D01*
Y036342D02*
X033586D01*
X033586D02*
X035200Y037955D01*
X035200D02*
Y038900D01*
X033478Y035397D02*
Y035403D01*
X033478D02*
X033880D01*
X033880D02*
Y035410D01*
X033478Y034452D02*
X033586D01*
X033586D02*
X033810Y034676D01*
Y034925*
X033810D02*
X034095Y035210D01*
X034095D02*
Y035595D01*
X034137Y033478D02*
X034144D01*
X034144D02*
Y033579D01*
X034144D02*
X034350Y033785D01*
Y034000*
X034767Y033478D02*
Y033904D01*
X034767D02*
X034772Y033908D01*
X034772D02*
Y034047D01*
X035397Y033478D02*
X035413D01*
X035413D02*
Y033970D01*
X035413D02*
X035430D01*
X036027Y033478D02*
Y033841D01*
X036027D02*
X035930Y033938D01*
X035930D02*
Y034230D01*
X036342Y033478D02*
Y033862D01*
X036342D02*
X036145Y034060D01*
Y034469*
X035992Y034622*
X036657Y033478D02*
Y033586D01*
X036657D02*
X036496Y033747D01*
X036496D02*
Y033978D01*
X036496D02*
X036265Y034210D01*
X036265D02*
Y034675D01*
X036000Y034940*
X037287Y033478D02*
Y033586D01*
X037287D02*
X036873Y034000D01*
X037602Y033478D02*
Y033586D01*
X037602D02*
X037157Y034031D01*
X041760Y035970D02*
X041626D01*
X041020Y036576*
Y036583*
X041020D02*
X040420Y037183D01*
X040420D02*
Y037757D01*
X039629Y038547*
X041760Y036140D02*
X041625D01*
X041625D02*
X041240Y036525D01*
X041240D02*
Y038159D01*
X041240D02*
X041200Y038199D01*
X041200D02*
Y039600D01*
X041371Y032423D02*
X041644D01*
X041644D02*
X042010Y032788D01*
X041355Y032576D02*
X041628D01*
X041628D02*
X041890Y032838D01*
X041651Y035400D02*
X041517D01*
X039629Y037287*
X041681Y035540D02*
X041547D01*
X039890Y037197*
Y037342*
X039629Y037602*
X041740Y035820D02*
X041606D01*
X041606D02*
X040290Y037136D01*
X040290D02*
Y037572D01*
X039629Y038232*
X041710Y035680D02*
X041576D01*
X041576D02*
X040100Y037156D01*
X040100D02*
Y037447D01*
X039629Y037917*
X039890Y036430D02*
X039881Y036421D01*
X039881D02*
X039638Y036665D01*
X041500Y034000D02*
X040890D01*
X040437Y034452*
X042060Y030685D02*
X042089D01*
X042730Y031325*
X042730D02*
Y038408D01*
X042730D02*
X042040Y039098D01*
X042040D02*
Y042150D01*
X042040D02*
X041400Y042790D01*
X041400D02*
Y044700D01*
X038660Y032980D02*
X038673D01*
X038673D02*
Y033243D01*
X038673D02*
X038547Y033370D01*
Y033478*
X038125Y036560D02*
Y037697D01*
X038780Y038352*
Y038873*
X038780D02*
X039160Y039254D01*
X038585Y035595D02*
Y037799D01*
X038585D02*
X038910Y038124D01*
X038910D02*
Y038816D01*
X039280Y039187*
X041290Y030083D02*
X041285Y030088D01*
Y030890*
X042370Y031975*
Y035360*
X041760Y035970*
X038925Y036484D02*
X039413Y036972D01*
X039521*
X042490Y031790D02*
Y035410D01*
X041760Y036140*
X042250Y032026D02*
Y035310D01*
X042250D02*
X041740Y035820D01*
X042130Y032077D02*
Y035260D01*
X042130D02*
X041710Y035680D01*
X042010Y032788D02*
Y035211D01*
X041681Y035540*
X041890Y032838D02*
Y035161D01*
X041890D02*
X041651Y035400D01*
X039234Y034046D02*
Y035534D01*
X039234D02*
X039413Y035712D01*
X042610Y031510D02*
Y036909D01*
X041920Y037599*
Y040180*
X041500Y040600*
Y042000*
X041675Y036625D02*
Y040125D01*
X040500Y041300*
Y042000*
X038800Y036612D02*
X039200Y037012D01*
Y038648*
X039200D02*
X039413Y038862D01*
X039521*
X043000Y030382D02*
Y042223D01*
X043000D02*
X042390Y042833D01*
X042390D02*
Y043943D01*
X042390D02*
X042300Y044033D01*
X042300D02*
Y044400D01*
X039114Y033978D02*
Y035728D01*
X039114D02*
X039413Y036027D01*
X039115Y033604D02*
X038870Y033849D01*
Y034758*
X038800Y034828*
Y036612*
X043185Y036115D02*
Y036415D01*
X043220Y036450*
Y036700*
X038900Y030050D02*
Y033098D01*
X038900D02*
X038862Y033136D01*
X038862D02*
Y033478D01*
X038380Y033830D02*
Y036305D01*
X038125Y036560*
X041020Y036890D02*
Y039480D01*
X038500Y042000*
X041670Y036400D02*
Y036620D01*
X041675Y036625*
X042150Y030470D02*
X042850Y031170D01*
Y039860*
X038800Y037000D02*
Y037530D01*
X039050Y037780*
Y038769*
X039400Y039119*
X038650Y034000D02*
Y035530D01*
X038585Y035595*
X041460Y036720D02*
Y040040D01*
X039500Y042000*
X042000Y030900D02*
X042610Y031510D01*
X041900Y031200D02*
X042490Y031790D01*
X039140Y036310D02*
Y036326D01*
X039521*
X039521D02*
Y036342D01*
X040990Y030340D02*
X040995D01*
X041500Y033000D02*
X040362Y034137D01*
X038232Y033478D02*
Y033586D01*
X038232D02*
X038000Y033818D01*
X038000D02*
Y034060D01*
X039521Y034137D02*
X040362D01*
X039521Y034452D02*
X040437D01*
X039521Y034767D02*
X040507D01*
X040507D02*
X040740Y035000D01*
X041500*
X039521Y035082D02*
X040282D01*
X040282D02*
X040600Y035400D01*
X039521Y035397D02*
X039629D01*
X039629D02*
X040060Y035827D01*
X040060D02*
Y036110D01*
X039521Y035712D02*
X039413D01*
X039521Y036027D02*
X039413D01*
X039521Y036657D02*
Y036665D01*
X039521D02*
X039638D01*
X039521Y037287D02*
X039629D01*
X039521Y037602D02*
X039629D01*
X039521Y037917D02*
X039629D01*
X012570Y043910D02*
X014106D01*
X014604Y044407*
X014604D02*
Y044867D01*
X012570Y043910D02*
X012280Y044200D01*
X012580Y044500D02*
X013820D01*
X013820D02*
X014081Y044760D01*
X014268*
X012580Y044500D02*
X012280Y044800D01*
X012171Y040660D02*
X012534D01*
X012750Y040875*
X012750D02*
Y041062D01*
X012171Y040660D02*
X012031Y040800D01*
Y042000*
X011490Y039265D02*
X011782Y038972D01*
X011782D02*
X011770Y038960D01*
X012250*
X013600Y044200D02*
X013815D01*
X014119Y044504*
X014268*
X012935Y044200D02*
X013600D01*
X012265D02*
X012280D01*
X012265Y045400D02*
X012280D01*
X012580Y045700*
X013340*
X013423Y045783*
X013423D02*
X014268D01*
X012935Y045400D02*
X013260D01*
X013387Y045527*
X013387D02*
X014268D01*
X012935Y044800D02*
X012950D01*
X013422Y045272*
X014268*
X012265Y044800D02*
X012280D01*
X011200Y039265D02*
X011490D01*
X011200Y039935D02*
Y040350D01*
X012250Y038937D02*
Y038960D01*
X013750Y038937D02*
Y039900D01*
X014000Y040150*
Y042095*
X014794Y042890*
X014794D02*
X018790D01*
X013250Y041062D02*
Y042132D01*
X013250D02*
X014137Y043020D01*
X019648*
X012250Y041062D02*
Y041460D01*
X012790Y042000*
X012818*
Y038000D02*
Y038409D01*
X012818D02*
X012750Y038478D01*
Y038937*
X019650Y042050D02*
X019850D01*
X020040Y042240*
X019650Y042550D02*
X019130D01*
X018790Y042890*
X014983Y038516D02*
X015810D01*
X015810D02*
X017030Y039735D01*
X017030D02*
Y039757D01*
X018272Y041000*
X018272D02*
X018841D01*
X019141Y041300*
X020149*
X021399Y042550*
X023350*
X014983Y038516D02*
X014750Y038750D01*
Y038937*
X015065Y043415D02*
X014550D01*
Y043430*
X021100Y038300D02*
X023908D01*
X023908D02*
X024031Y038423D01*
X024031D02*
X024976D01*
X021100Y038300D02*
X019850Y039550D01*
X016531Y045272D02*
X015887D01*
X015887D02*
X012372Y048787D01*
X019650Y041550D02*
X019340D01*
X018890Y042000*
X018170*
X017820Y042350*
X016531Y045006D02*
X016728D01*
X016728D02*
X016970Y045249D01*
X016531Y045006D02*
Y045016D01*
Y044504D02*
X016125D01*
X016125D02*
X016100Y044530D01*
Y044750*
X020070Y040770D02*
X021100Y041800D01*
X023568*
X016988Y045248D02*
X016708Y045527D01*
X014763Y041062D02*
X014750D01*
X015020Y039839D02*
Y041838D01*
X015020D02*
X015181Y042000D01*
X014546Y040643D02*
X014763Y040861D01*
X014763D02*
Y041062D01*
X020040Y042240D02*
Y042628D01*
X020040D02*
X019648Y043020D01*
X014604Y044867D02*
X014455Y045016D01*
X014268*
X014560Y040630D02*
X014546Y040643D01*
X019160Y038050D02*
X019650D01*
X015750Y040550D02*
Y041062D01*
X016988Y045248D02*
X016980Y045240D01*
X016970Y045249*
X016100Y044750D02*
Y044760D01*
X016531*
Y045527D02*
X016708D01*
X016531Y045783D02*
X017000D01*
X017000D02*
Y045800D01*
X021000Y043500D02*
Y044220D01*
X021345Y044565*
X021345D02*
Y048622D01*
X019650Y040550D02*
X019850D01*
X020070Y040770*
X019650Y040050D02*
X019850D01*
X020070Y040270*
Y040770*
X019650Y039550D02*
X019850D01*
X015065Y043400D02*
Y043415D01*
X015735Y043400D02*
X015750D01*
X016531Y044181*
X016531D02*
Y044504D01*
X014250Y038937D02*
Y039450D01*
X015250Y038937D02*
Y039609D01*
X015020Y039839*
X015750Y038937D02*
Y039789D01*
X015968Y040007*
X015968D02*
Y042000D01*
X015250Y041062D02*
X015265D01*
X015265D02*
Y041570D01*
X015280*
X014250Y041062D02*
Y041210D01*
X014790Y041750*
Y042098*
X015041Y042350*
X015041D02*
X017820D01*
X026665Y044200D02*
X026660D01*
X026365Y044495*
X029821Y045460D02*
X031084D01*
X031564Y045940*
X032578*
X029821Y045460D02*
X029610Y045671D01*
X028025Y045750D02*
X027890D01*
X027610Y046030*
X023350Y039545D02*
X023555D01*
X023785Y039775*
X023350Y039545D02*
Y039550D01*
X029224Y040110D02*
X029221D01*
X029000Y040331*
Y041500*
X028500Y042000*
X026300Y040050D02*
X026275D01*
Y040600*
X029301Y042750D02*
X029198D01*
X028528Y043420*
Y047421*
X028528D02*
X028200Y047750D01*
X025323Y039576D02*
X024329D01*
X024329D02*
X023856Y040050D01*
X023131Y039300D02*
X023908D01*
X023908D02*
X024031Y039423D01*
X024031D02*
X025280D01*
X023131Y039300D02*
X022960Y039471D01*
X025323Y038576D02*
X024081D01*
X024081D02*
X023858Y038800D01*
X023858D02*
X023131D01*
X022840Y039091*
X027337Y044187D02*
X027335D01*
X027335D02*
Y044200D01*
X024950Y040500D02*
X024448D01*
X023925Y041023*
Y041443*
X023925D02*
X023568Y041800D01*
X023350Y042040D02*
X023150D01*
X022990Y042200*
X022830*
X023350Y042040D02*
Y042050D01*
X026365Y044495D02*
X026370Y044500D01*
X029610Y045671D02*
Y046060D01*
X029800Y046250*
X028012Y043512D02*
X027337Y044187D01*
X029364Y044243D02*
Y046272D01*
X029364D02*
X029561Y046470D01*
X029561D02*
Y046780D01*
X029561D02*
X029781Y047000D01*
X025610Y044757D02*
Y046060D01*
X025800Y046250*
X025975*
X025665Y044001D02*
Y044702D01*
X025665D02*
X025610Y044757D01*
X022840Y039091D02*
Y040740D01*
X023150Y041050*
X022960Y039471D02*
Y040360D01*
X023150Y040550*
X025450Y044200D02*
Y046900D01*
X025800Y047250*
X025975*
X025100Y041600D02*
Y042909D01*
X025500Y043309*
Y043836*
X025500D02*
X025665Y044001D01*
X026000Y041250D02*
X025980Y041270D01*
X027000Y040100D02*
X026750Y040350D01*
Y040600*
X028310Y038810D02*
X027250Y039870D01*
Y040600*
X028200Y039520D02*
X027750Y039970D01*
Y040600*
X028870Y039270D02*
X028250Y039890D01*
Y040600*
X029580Y039060D02*
X028750Y039890D01*
Y040600*
X023790Y039770D02*
X023785Y039775D01*
X025500Y042000D02*
Y043000D01*
X026000Y043500*
X029500Y042000D02*
X028399Y043100D01*
X028399D02*
Y046550D01*
X028399D02*
X028200Y046750D01*
X029750Y040600D02*
Y041150D01*
X026250Y040600D02*
X026275D01*
X025750D02*
Y041040D01*
X025980Y041270*
X025000Y043500D02*
Y044220D01*
X024534Y044685*
X024534D02*
Y048502D01*
X028000Y043500D02*
X028012Y043512D01*
X029000Y043500D02*
Y044220D01*
X028648Y044571*
X028648D02*
Y046743D01*
X023350Y038050D02*
X023150D01*
X023350Y040050D02*
X023856D01*
X023350Y040550D02*
X023150D01*
X023350Y041050D02*
X023150D01*
X027335Y044200D02*
X027350D01*
X028025Y044875*
Y045250*
X025975Y045750D02*
X026150D01*
X026640Y046240*
Y046860*
X025975Y045250D02*
X026150D01*
X027200Y046300*
X029975Y045750D02*
X030460D01*
X031710Y047000*
X032239*
X029975Y045250D02*
X030150D01*
X029000Y045818D02*
X029244Y046063D01*
X029244D02*
Y046342D01*
X029244D02*
X029393Y046491D01*
X029393D02*
Y046843D01*
X029393D02*
X029800Y047250D01*
X029975*
X033000Y045818D02*
X032699D01*
X032699D02*
X032578Y045940D01*
X033478Y038862D02*
X033403D01*
X033403D02*
X033033Y039233D01*
X033478Y038232D02*
X033191D01*
X032786Y038636*
X037563Y041460D02*
X037040D01*
X036500Y042000*
X030338Y041610D02*
X030661D01*
X030661D02*
X031000Y041948D01*
Y042051*
X031000D02*
X031338Y042390D01*
X032110*
X030338Y041610D02*
X030076Y041871D01*
X030076D02*
Y042420D01*
X030076D02*
X029500Y042996D01*
X029500D02*
Y044107D01*
X029500D02*
X029364Y044243D01*
X037750Y040800D02*
X036544D01*
X036544D02*
X036474Y040870D01*
X033740Y042760D02*
X032188D01*
X031000Y043948*
Y044400*
X030150Y045250*
X037674Y041180D02*
X035320D01*
X034500Y042000*
X038101Y042950D02*
X036998D01*
X036576Y043371*
X036576D02*
Y044220D01*
X036576D02*
X036265Y044531D01*
X030017Y040132D02*
X030250Y040365D01*
Y040600*
X030017Y040132D02*
X030010Y040140D01*
X037975Y045750D02*
X037800D01*
X037480Y046070*
Y046615*
X037095Y047000*
X033478Y038547D02*
X033370D01*
X033015Y038901*
X033015D02*
X032838D01*
X032838D02*
X032650Y039090D01*
X030288Y041490D02*
X030820D01*
X031024Y041694*
X031024D02*
X031194D01*
X031194D02*
X031500Y042000D01*
X030288Y041490D02*
X029923Y041855D01*
Y042128*
X029301Y042750*
X031337Y044187D02*
X031335D01*
X031335D02*
Y044200D01*
X032890Y041206D02*
Y042161D01*
X032890D02*
X032541Y042510D01*
X032500Y043300D02*
Y045450D01*
X032200Y045750*
X035102Y040097D02*
X034950Y040250D01*
X034460Y039521D02*
X034452D01*
X034122Y039067D02*
X034460Y039405D01*
X034460D02*
Y039521D01*
X033033Y039233D02*
X033050Y039250D01*
X032786Y038636D02*
X032800Y038650D01*
X032012Y043512D02*
X031337Y044187D01*
X031965Y039479D02*
X033500Y041014D01*
X033500D02*
Y042000D01*
X032085Y038829D02*
X034125Y040870D01*
X034125D02*
X036474D01*
X036265Y044531D02*
Y048872D01*
X036265D02*
X036712Y049320D01*
X037260Y039010D02*
X037273D01*
X037273D02*
Y039521D01*
X037273D02*
X037287D01*
X037500Y038000D02*
Y038673D01*
X037500D02*
X037602Y038776D01*
Y039521*
X030820Y045770D02*
X031550Y046500D01*
X031600*
X031850Y046750*
X032025*
X032300Y043100D02*
X032500Y043300D01*
X034550Y040000D02*
X034563Y040013D01*
X034130Y039060D02*
X034122Y039067D01*
X033800Y039500D02*
X034137D01*
X034137D02*
Y039521D01*
X030750Y038650D02*
X030529Y038870D01*
X030529D02*
Y039070D01*
X030529D02*
X029250Y040350D01*
Y040600*
X030450Y044550D02*
X030665D01*
X035500Y042000D02*
X035920D01*
X036310Y042390*
X037661*
X034500Y042000D02*
X033740Y042760D01*
X032500Y042000D02*
X032110Y042390D01*
X030500Y042000D02*
X031010Y042510D01*
X032541*
X030500Y042000D02*
Y043833D01*
X030500D02*
X029488Y044845D01*
Y046206*
X032000Y043500D02*
X032012Y043512D01*
X033000Y043500D02*
Y044220D01*
X033345Y044565*
X033345D02*
Y048622D01*
X037000Y043500D02*
X036702Y043797D01*
X036702D02*
Y044552D01*
X036385Y044869*
Y048353*
X031335Y044200D02*
X031350D01*
X032025Y044875*
Y045250*
X030665Y044200D02*
Y044550D01*
X037917Y039521D02*
Y040113D01*
X037750Y040280*
Y040800*
X036972Y039521D02*
Y040060D01*
X036972D02*
X036970Y040062D01*
X036970D02*
Y040530D01*
X035397Y039521D02*
Y040120D01*
X035397D02*
X035400Y040122D01*
X035400D02*
Y040650D01*
X035082Y039521D02*
Y039943D01*
X035082D02*
X035102Y039962D01*
X035102D02*
Y040097D01*
X034767Y039521D02*
Y039808D01*
X034767D02*
X034563Y040013D01*
X037975Y045250D02*
X038125D01*
X038412Y045537*
X032025Y045750D02*
X032200D01*
X039884Y041420D02*
X039528D01*
X039076Y041871*
X039076D02*
Y043169D01*
X039076D02*
X038360Y043886D01*
X039873Y041126D02*
X039652D01*
X039652D02*
X038923Y041855D01*
Y042128*
X038101Y042950*
X042665Y044200D02*
X042650D01*
Y044650*
X038232Y039521D02*
X038231D01*
X038231D02*
Y039910D01*
X040025Y045750D02*
X039850D01*
X039470Y046130*
Y046134*
X039089Y046515*
X039337Y044187D02*
X039335D01*
X039335D02*
Y044200D01*
X043337Y044187D02*
X043335D01*
X043335D02*
Y044200D01*
X038412Y045537D02*
X038400Y045550D01*
X038850Y043800D02*
X038635D01*
Y044200*
X040012Y043512D02*
X039337Y044187D01*
X044012Y043512D02*
X043337Y044187D01*
X039400Y039119D02*
Y040408D01*
X039400D02*
X038000Y041809D01*
Y042051*
X038000D02*
X037661Y042390D01*
X039160Y039254D02*
Y039862D01*
X039160D02*
X037563Y041460D01*
X039280Y039187D02*
Y040219D01*
X039280D02*
X037500Y042000D01*
X039040Y039321D02*
Y039813D01*
X039040D02*
X037674Y041180D01*
X038615Y045018D02*
Y045785D01*
X038150Y046250*
X038360Y043886D02*
Y044763D01*
X038615Y045018*
X041565Y042935D02*
Y044176D01*
X041565D02*
X041975Y044586D01*
X041975D02*
Y045250D01*
X042850Y039860D02*
X042500Y040210D01*
Y042000*
X043550Y038050D02*
X045180Y039680D01*
X052090*
X054910Y042500*
Y044940*
X055750Y045780*
Y046000*
X042610Y043090D02*
X043000Y043480D01*
Y044900*
X043850Y045750*
X044025*
X041500Y045950D02*
X041800Y046250D01*
X041975*
X040300Y042750D02*
Y043106D01*
X040300D02*
X040399Y043205D01*
X040399D02*
Y046550D01*
X040200Y040800D02*
X039873Y041126D01*
X041200Y039600D02*
Y040104D01*
X039884Y041420*
X038230Y039910D02*
X038231D01*
X038300Y038920D02*
Y039166D01*
X038547Y039413*
Y039521*
X042500Y042000D02*
X041565Y042935D01*
X040500Y042000D02*
Y042520D01*
X040528Y042548*
Y047190*
X038500Y042000D02*
X037830Y042670D01*
X037108*
X037108D02*
X036423Y043355D01*
Y043916*
X036145Y044194*
Y048922*
X039500Y042000D02*
Y043531D01*
X039500D02*
X039000Y044031D01*
X039000D02*
Y046300D01*
X040000Y043500D02*
X040012Y043512D01*
X041000Y043500D02*
Y044220D01*
X040648Y044571*
X040648D02*
Y046743D01*
X044000Y043500D02*
X044012Y043512D01*
X045000Y043500D02*
Y044220D01*
X045345Y044565*
X045345D02*
Y048622D01*
X038665Y044200D02*
X038635D01*
X039335D02*
X039350D01*
X040025Y044875*
Y045250*
X043335Y044200D02*
X043350D01*
X044025Y044875*
Y045250*
X039521Y038232D02*
X039629D01*
X039521Y038547D02*
X039629D01*
X041975Y045750D02*
X042960D01*
X043210Y046000*
X044500*
X041000Y045818D02*
X041597Y046416D01*
X041597D02*
Y047316D01*
X041597D02*
X041796Y047515D01*
X042995*
X043230Y047750*
X044025*
X045000Y045818D02*
X044318Y046500D01*
X049000Y043500D02*
Y044220D01*
X049345Y044565*
X049345D02*
Y048622D01*
X054350Y039800D02*
X054550Y040000D01*
X055000*
Y038000D02*
X057197Y040197D01*
X057197D02*
Y043972D01*
X057197D02*
X057493Y044268D01*
Y045044*
X057493D02*
X057948Y045500D01*
X058227*
X058500Y045772*
X058500D02*
Y047350D01*
X059300Y048150*
Y048165*
X011500Y048000D02*
X012376D01*
X011500Y048787D02*
X012372D01*
X012265Y046000D02*
Y046447D01*
X012265D02*
X011500Y047212D01*
X012935Y046000D02*
X013570D01*
X013609Y046039*
X013609D02*
X014268D01*
Y046295D02*
X014081D01*
X014081D02*
X012376Y048000D01*
X014630Y047580D02*
X014665D01*
Y047600*
X014630Y047580D02*
X014320Y047890D01*
X014305Y047865D02*
X014645Y048205D01*
X014665*
X014305Y047865D02*
X014300Y047870D01*
X021345Y048622D02*
X021000Y048968D01*
X014770Y046720D02*
Y047050D01*
X015320Y047600*
X015335*
X017200Y046110D02*
X017014Y046295D01*
X014300Y047870D02*
X014320Y047890D01*
X014665Y048200D02*
Y048205D01*
X016531Y046295D02*
X017014D01*
X015335Y047600D02*
Y048200D01*
X025781Y047500D02*
X026975D01*
X026975D02*
X027415Y047940D01*
X027415D02*
X028453D01*
X025781Y047500D02*
X025610Y047671D01*
X028025Y048250D02*
X027040D01*
X026850Y048440*
X028025Y047265D02*
X027560D01*
Y047280*
X028025Y046250D02*
X027850D01*
X027348Y046751*
X027348D02*
X027168D01*
X027168D02*
X026650Y047270D01*
X027610Y046030D02*
X027630Y046050D01*
X029488Y046206D02*
X029781Y046500D01*
X030354*
X031590Y047735*
X031590D02*
Y047758D01*
X031590D02*
X031831Y048000D01*
X032218*
X032218D02*
X032522Y048303D01*
Y048427*
X028648Y046743D02*
X028904Y047000D01*
X028904D02*
X029095D01*
X029403Y047307*
X029403D02*
Y048565D01*
X024654Y048324D02*
X024859Y048530D01*
X024859D02*
X025596D01*
X025596D02*
X025626Y048560D01*
X025626D02*
X026820D01*
X027010Y048750*
X028025*
X024534Y048502D02*
X025000Y048968D01*
X029403Y048565D02*
X029000Y048968D01*
X025610Y047671D02*
Y048060D01*
X025800Y048250*
X025490Y048750D02*
X025975D01*
X028025Y046750D02*
X028200D01*
X028025Y047250D02*
Y047265D01*
Y047750D02*
X028200D01*
X025975Y048250D02*
X025800D01*
X025975Y047750D02*
X026700D01*
X027010Y048060*
X028405*
X028405D02*
X028526Y048181D01*
X028526D02*
X029000D01*
X029975Y048750D02*
X030450D01*
X029975Y048250D02*
X030150D01*
X029975Y046250D02*
X029800D01*
X025000Y047393D02*
X024654Y047739D01*
X024654D02*
Y048324D01*
X025000Y048181D02*
X025439D01*
X025439D02*
X025698Y048440D01*
X025698D02*
X026850D01*
X029000Y046606D02*
X029259Y046865D01*
X029259D02*
Y046936D01*
X029259D02*
X029523Y047200D01*
X029523D02*
Y047473D01*
X029800Y047750*
X029975*
X029000Y047393D02*
X028453Y047940D01*
X029781Y047000D02*
X030168D01*
X030168D02*
X030340Y047171D01*
X037975Y048750D02*
X037960D01*
Y049130*
X037095Y047000D02*
X036904D01*
X036904D02*
X036600Y047304D01*
X036600D02*
Y047800D01*
X031312Y047737D02*
X031837Y048262D01*
X031837D02*
X032025D01*
X031312Y047737D02*
X031300Y047750D01*
X039100Y047000D02*
X037781D01*
X037360Y047421*
Y047821*
X037000Y048181*
X039089Y046515D02*
X037766D01*
X037427Y046854*
Y046966*
X037000Y047393*
X033000Y046606D02*
X032633D01*
X032239Y047000*
X030340Y047171D02*
Y048060D01*
X030150Y048250*
X032522Y048427D02*
X032200Y048750D01*
X032025*
X036145Y048922D02*
X036782Y049560D01*
X036782D02*
X043040D01*
X036385Y048353D02*
X037000Y048968D01*
X033345Y048622D02*
X033000Y048968D01*
X031560Y046160D02*
X031650Y046250D01*
X032025*
X031070Y046870D02*
X031468Y047268D01*
X031468D02*
Y047368D01*
X031468D02*
X031850Y047750D01*
X032025*
X037975Y048250D02*
X038125D01*
X038362Y048487*
X037975Y047750D02*
X038150D01*
X039840Y049440*
X042477*
X037975Y047250D02*
X037800D01*
X037480Y047570*
Y049127*
X037480D02*
X037287Y049320D01*
X037287D02*
X036712D01*
X037975Y046250D02*
X038150D01*
X032025Y047250D02*
X032500D01*
X032025Y048250D02*
Y048262D01*
X044025Y048750D02*
X043850D01*
X043040Y049560*
X041975Y048250D02*
X041800D01*
X041477Y048572*
X041477D02*
Y049129D01*
X041477D02*
X041287Y049320D01*
X045000Y048181D02*
X044595D01*
X044595D02*
X044276Y048500D01*
X044276D02*
X043417D01*
X043417D02*
X042477Y049440D01*
X040404Y048000D02*
X039831D01*
X039660Y048171*
X044025Y046750D02*
X043300D01*
X042750Y047300*
X044318Y046500D02*
X042900D01*
X042150Y047250*
X041000Y048181D02*
X040556D01*
X040487Y048250*
X040025Y046250D02*
X039850D01*
X039100Y047000*
X038362Y048487D02*
X038350Y048500D01*
X040648Y046743D02*
X040904Y047000D01*
X040904D02*
X041095D01*
X041345Y047250*
X041345D02*
Y048622D01*
X041345D02*
X041000Y048968D01*
X040528Y047190D02*
X040218Y047500D01*
X040218D02*
X039831D01*
X039540Y047791*
Y048708*
X039540D02*
X040151Y049320D01*
X041287*
X040399Y046550D02*
X040200Y046750D01*
X045345Y048622D02*
X045000Y048968D01*
X039660Y048171D02*
Y048560D01*
X039850Y048750*
X043550Y046250D02*
X044025D01*
X040500Y047600D02*
Y047640D01*
X040390Y047750*
X039550Y047250D02*
X040025D01*
X043550D02*
X044025D01*
X040025Y046750D02*
X040200D01*
X040025Y047750D02*
X040390D01*
X040025Y048250D02*
X040487D01*
X040025Y048750D02*
X039850D01*
X041975D02*
X042450D01*
X041975Y047750D02*
X043035D01*
X043225Y047940*
X044278*
X041975Y047250D02*
X042150D01*
X041000Y046606D02*
X041465Y047072D01*
X041465D02*
Y047684D01*
X041465D02*
X041841Y048060D01*
X043300*
X043490Y048250*
X044025*
X041000Y047393D02*
X040735Y047658D01*
Y047668*
X040735D02*
X040404Y048000D01*
X045000Y046606D02*
X044522Y047084D01*
Y047696*
X044522D02*
X044278Y047940D01*
X049345Y048622D02*
X049000Y048968D01*
X056305Y048835D02*
X056300D01*
X055995Y048505D02*
X056305Y048815D01*
Y048835*
X057805D02*
X057800D01*
X057495Y048505D02*
X057805Y048815D01*
Y048835*
X059305D02*
X059300D01*
X058995Y048505D02*
X059305Y048815D01*
Y048835*
X056000Y048500D02*
X055995Y048505D01*
X057500Y048500D02*
X057495Y048505D01*
X059000Y048500D02*
X058995Y048505D01*
X055820Y048160D02*
X056300D01*
Y048165*
X057300Y048100D02*
X057800D01*
Y048165*
G54D39*
G54D40*
X048700Y036255D02*
Y037052D01*
X048700D02*
X048500Y037252D01*
X048500D02*
Y038200D01*
X049300Y034100D02*
Y035655D01*
X049300D02*
X048700Y036255D01*
Y034700D02*
Y036255D01*
X048500Y038182D02*
X048847D01*
X048847D02*
X049282Y038617D01*
X048500Y038182D02*
Y038200D01*
X049300Y038600D02*
X049282Y038617D01*
X048500Y038200D02*
Y039200D01*
G54D42*
X019100Y012590D03*
X025450Y011250D03*
X022810Y012700D03*
X023400Y012720D03*
X024000D03*
X024590D03*
X025200Y012730D03*
X029580Y012680D03*
X028990Y012710D03*
X028410Y012740D03*
X027810Y012860D03*
X030200Y010500D03*
X034200Y013600D03*
X030190Y012700D03*
X041000Y013900D03*
X039700Y013550D03*
X045200D03*
X053390Y012500D03*
X053360Y011980D03*
X054900Y013200D03*
X021040Y020540D03*
X019840Y020530D03*
X014700Y014140D03*
X016420Y014470D03*
X016370Y018940D03*
X020800Y017500D03*
X014600Y019200D03*
X020480Y021660D03*
X028140Y020540D03*
X022790Y020550D03*
X029920Y020570D03*
X025800Y020550D03*
X026950Y020520D03*
X027600Y020600D03*
X029170Y021210D03*
X029110Y020680D03*
X022150Y020780D03*
X026660Y021940D03*
X024340D03*
X023500Y020500D03*
X022440Y020540D03*
X029540Y020500D03*
X024450Y020510D03*
X024350Y018790D03*
X027830Y018060D03*
X024390Y014750D03*
X028640Y014810D03*
X027460Y021950D03*
X026090Y021340D03*
X032900Y020550D03*
X031160Y020520D03*
X036500Y018900D03*
X033770Y021930D03*
X031360Y021940D03*
X030510Y020500D03*
X034200Y018050D03*
X033150Y021300D03*
X031700Y020550D03*
X031960Y018740D03*
X039950Y014900D03*
X039350Y020900D03*
X040200Y014600D03*
Y018650D03*
X045100Y018700D03*
X038300Y018200D03*
X039700Y018050D03*
X045200D03*
X038970Y020390D03*
X039000Y021150D03*
X052700Y020200D03*
X052420Y021480D03*
X051990Y018250D03*
X052600Y016520D03*
X053250Y017900D03*
X052420Y017480D03*
X053350Y015500D03*
X052990Y020740D03*
X053230Y019530D03*
X053880Y017970D03*
Y014470D03*
X053020Y016290D03*
X053380Y021490D03*
X051550Y018000D03*
X051040Y019460D03*
X054250Y021500D03*
X054500Y016500D03*
X020460Y027750D03*
X020940Y023440D03*
X021280Y023430D03*
X021840Y023450D03*
X021900Y025690D03*
X020490Y024770D03*
X020600Y023450D03*
X021300Y029700D03*
X020290Y026760D03*
X020140Y029250D03*
X015480Y023910D03*
X016270Y028400D03*
X019190Y027000D03*
X021650Y028800D03*
X021450Y025140D03*
X020400Y022350D03*
X014600Y028200D03*
Y023700D03*
X019850Y023470D03*
X022830Y024540D03*
X029670D03*
X023980Y024640D03*
X024010Y027710D03*
X023320Y024310D03*
X022390Y028500D03*
X025820Y023480D03*
X025090Y023440D03*
X024710Y023510D03*
X024300Y023350D03*
X028090Y023440D03*
X028400Y023300D03*
X029000Y023400D03*
X026350Y024350D03*
Y024900D03*
X027310Y025850D03*
X027300Y024350D03*
X027690Y023410D03*
X023100Y022700D03*
X022410Y028020D03*
X029840Y023440D03*
X022810Y023450D03*
X026130Y028920D03*
X026310Y028210D03*
X025310Y025240D03*
X024030Y024310D03*
X029200Y028950D03*
X022610Y024310D03*
X022080Y026990D03*
X028100Y025370D03*
X026990Y024360D03*
X029410Y024310D03*
X025790Y028910D03*
X026490Y028850D03*
X026800Y028550D03*
X026510Y027860D03*
X024070Y028550D03*
X025750Y028180D03*
X026080Y027900D03*
X023430Y022200D03*
X026840Y028860D03*
X026720Y028090D03*
X026010Y028400D03*
X023970Y023500D03*
X026950Y023460D03*
X030350Y024540D03*
X030650Y029400D03*
X034800Y029500D03*
X033900Y029370D03*
X034530Y029790D03*
X033190Y023310D03*
X032600Y023300D03*
X031890Y023490D03*
X031530Y023480D03*
X032440Y024430D03*
X031380Y025180D03*
X033490Y024550D03*
X034500Y023200D03*
X033800Y024600D03*
X036670Y027820D03*
X036800Y026350D03*
X036900Y027400D03*
X032730Y027280D03*
X034500Y022250D03*
X032150Y029850D03*
X034900Y024250D03*
X035800Y026670D03*
X037200Y025250D03*
X036650Y029150D03*
X037980Y027690D03*
X033050Y025950D03*
X030880Y024320D03*
X031080Y027830D03*
X030500Y022150D03*
X032760Y029870D03*
X031450Y029880D03*
X036980Y028880D03*
X031900Y025600D03*
X031150Y023460D03*
X045510Y024820D03*
X042800Y029200D03*
X041800Y028900D03*
X039650Y023150D03*
X040200Y023140D03*
X039590Y024350D03*
X038600Y025450D03*
X045900Y024060D03*
X038730Y024120D03*
X038020Y022330D03*
X039650Y022550D03*
X045200D03*
X040670Y025130D03*
X041850Y027540D03*
X041050Y026750D03*
X038300Y028890D03*
X041000Y025160D03*
X041770Y027850D03*
X038180Y026210D03*
X046450Y024410D03*
X048200Y026550D03*
X047900Y025100D03*
X053380Y029490D03*
X053950Y027200D03*
X053360Y023780D03*
X053140Y029860D03*
X051090Y028210D03*
X053100Y023200D03*
X051920Y028230D03*
X052450Y027450D03*
X052480Y023440D03*
X053300Y027350D03*
X052450Y026450D03*
X053930Y023600D03*
X052450Y022300D03*
X053880Y022540D03*
X053050Y023650D03*
X053060Y026360D03*
X053030Y029560D03*
X052040Y025830D03*
X053840Y028500D03*
X052480Y022730D03*
X053390Y026420D03*
X051520Y022000D03*
X054200Y028500D03*
X012450Y033650D03*
X013300Y032400D03*
X011760Y034890D03*
X011800Y031000D03*
X011200Y036350D03*
Y032350D03*
X014000Y031800D03*
X020700Y034300D03*
X015620Y034370D03*
X019250Y031530D03*
X020740Y035890D03*
X016400Y031550D03*
X017750Y032350D03*
X020100Y034600D03*
X017700Y030550D03*
X020140Y035770D03*
X017520Y032090D03*
X020270Y031390D03*
X020090Y036350D03*
X019170Y032450D03*
X021840Y031800D03*
X017650Y036050D03*
X014250Y035450D03*
X014310Y031450D03*
X015750Y036550D03*
Y032550D03*
X021700Y035150D03*
X027200Y031450D03*
X027930Y031630D03*
X027500Y031200D03*
X022950Y033000D03*
X022800Y033800D03*
X026950Y037450D03*
X027500Y036320D03*
X025980Y036330D03*
X026450Y035250D03*
X029650Y034650D03*
X025100Y030600D03*
X027750Y032750D03*
X028200Y030900D03*
X029430Y033500D03*
X029250Y034700D03*
X027850Y035150D03*
X028250Y034800D03*
X029600Y036400D03*
X025750Y033700D03*
X022370Y036450D03*
X023850Y033190D03*
X025440Y037140D03*
X029750Y035300D03*
X025460Y032070D03*
X023850Y030750D03*
X035900Y032600D03*
X030000Y037700D03*
X030100Y037400D03*
X032200Y032600D03*
X034550Y030100D03*
X037700Y034200D03*
X032750Y031750D03*
X032300Y036910D03*
X034050Y035950D03*
X032800Y036250D03*
Y035350D03*
X034500Y034750D03*
X034160Y033070D03*
X034620Y034200D03*
X032300Y035100D03*
X034350Y034000D03*
X033850Y037100D03*
X035300Y030900D03*
X036900Y031950D03*
X034100Y037900D03*
X035300Y032850D03*
X036600Y034450D03*
X035700Y034800D03*
X036440Y032890D03*
X036000Y034940D03*
Y034630D03*
X035930Y034230D03*
X035700Y033070D03*
X035500Y035440D03*
X034940Y037300D03*
X037990Y035780D03*
X033140Y037440D03*
X033090Y035040D03*
X035430Y033970D03*
X030250Y031600D03*
X032300Y035570D03*
X033640Y030030D03*
X035040Y033950D03*
X033880Y035410D03*
X030580Y035820D03*
X037740Y030200D03*
X038900Y030050D03*
X038380Y033830D03*
X041020Y036890D03*
X041670Y036400D03*
X042150Y030470D03*
X038800Y037000D03*
X038650Y034000D03*
X041460Y036720D03*
X042000Y030900D03*
X041900Y031200D03*
X040600Y035400D03*
X043220Y036700D03*
X040060Y036110D03*
X043400Y035500D03*
Y036300D03*
X038340Y037260D03*
X038660Y032980D03*
X039890Y036430D03*
X038150Y031200D03*
X041500Y030390D03*
X043400Y034100D03*
X038000Y034060D03*
X039140Y036310D03*
X040990Y030340D03*
X049300Y034100D03*
X048700Y034700D03*
X050300Y034200D03*
X053000Y033900D03*
X053900D03*
X052200Y034000D03*
X050700Y037300D03*
X050200D03*
X049700D03*
X049200D03*
X051200Y034100D03*
X051300Y034700D03*
X011770Y038960D03*
X011200Y040350D03*
X013600Y044200D03*
X017000Y045800D03*
X015280Y041570D03*
X014560Y040630D03*
X019160Y038050D03*
X014550Y043430D03*
X014250Y039450D03*
X015750Y040550D03*
X016980Y045240D03*
X016100Y044750D03*
X025450Y044200D03*
X025100Y041600D03*
X026000Y041250D03*
X026300Y040050D03*
X027000Y040100D03*
X028310Y038810D03*
X028200Y039520D03*
X028870Y039270D03*
X029580Y039060D03*
X023790Y039770D03*
X022830Y042200D03*
X026370Y044500D03*
X029750Y041150D03*
X029180Y039850D03*
X028660Y038000D03*
X036970Y040530D03*
X037750Y040800D03*
X037260Y039010D03*
X037500Y038000D03*
X030820Y045770D03*
X032300Y043100D03*
X035400Y040650D03*
X034950Y040250D03*
X034550Y040000D03*
X034130Y039060D03*
X033800Y039500D03*
X033050Y039250D03*
X032650Y039090D03*
X032800Y038650D03*
X030750D03*
X035200Y038900D03*
X031200Y041450D03*
X034530Y038220D03*
X030450Y044550D03*
X035800Y038500D03*
X030010Y040140D03*
X043550Y038050D03*
X042610Y043090D03*
X041500Y045950D03*
X040300Y042750D03*
X040200Y040800D03*
X038400Y045550D03*
X041200Y039600D03*
X042300Y044400D03*
X041400Y044700D03*
X038230Y039910D03*
X038850Y043800D03*
X042650Y044650D03*
X043400Y038600D03*
X038300Y038920D03*
X043500Y040800D03*
Y039900D03*
X049300Y038600D03*
X048500Y039200D03*
X053000Y038200D03*
X053900D03*
X052100D03*
X050800Y040800D03*
X050300D03*
X049700Y041800D03*
X049200D03*
X050800Y038600D03*
X051300Y039200D03*
X050300Y038600D03*
X054350Y039800D03*
X014770Y046720D03*
X017200Y046110D03*
X014300Y047870D03*
X027630Y046050D03*
X026650Y047270D03*
X027200Y046300D03*
X026640Y046860D03*
X025490Y048750D03*
X027560Y047280D03*
X031560Y046160D03*
X031070Y046870D03*
X031300Y047750D03*
X036600Y047800D03*
X030450Y048750D03*
X032500Y047250D03*
X037960Y049130D03*
X042750Y047300D03*
X043550Y046250D03*
X044500Y046000D03*
X040500Y047600D03*
X039000Y046300D03*
X038350Y048500D03*
X042450Y048750D03*
X039550Y047250D03*
X043550D03*
X056000Y048500D03*
X057500D03*
X059000D03*
X055820Y048160D03*
X058800Y048800D03*
X057300D03*
X055800D03*
X057300Y048100D03*
G54D43*
X014003Y028250D03*
Y027750D03*
Y027250D03*
Y026750D03*
X011996D03*
Y027250D03*
Y027750D03*
Y028250D03*
X014003Y023750D03*
Y023250D03*
Y022750D03*
Y022250D03*
X011996D03*
Y022750D03*
Y023250D03*
Y023750D03*
X014003Y019250D03*
Y018750D03*
Y018250D03*
Y017750D03*
X011996D03*
Y018250D03*
Y018750D03*
Y019250D03*
X014003Y014750D03*
Y014250D03*
Y013750D03*
Y013250D03*
X011996D03*
Y013750D03*
Y014250D03*
Y014750D03*
G54D44*
X041975Y045250D03*
Y045750D03*
Y046250D03*
Y046750D03*
Y047250D03*
Y047750D03*
Y048250D03*
Y048750D03*
X044025D03*
Y048250D03*
Y047750D03*
Y047250D03*
Y046750D03*
Y046250D03*
Y045750D03*
Y045250D03*
X029975D03*
Y045750D03*
Y046250D03*
Y046750D03*
Y047250D03*
Y047750D03*
Y048250D03*
Y048750D03*
X032025D03*
Y048250D03*
Y047750D03*
Y047250D03*
Y046750D03*
Y046250D03*
Y045750D03*
Y045250D03*
X037975D03*
Y045750D03*
Y046250D03*
Y046750D03*
Y047250D03*
Y047750D03*
Y048250D03*
Y048750D03*
X040025D03*
Y048250D03*
Y047750D03*
Y047250D03*
Y046750D03*
Y046250D03*
Y045750D03*
Y045250D03*
X025975D03*
Y045750D03*
Y046250D03*
Y046750D03*
Y047250D03*
Y047750D03*
Y048250D03*
Y048750D03*
X028025D03*
Y048250D03*
Y047750D03*
Y047250D03*
Y046750D03*
Y046250D03*
Y045750D03*
Y045250D03*
G54D45*
X019650Y035050D03*
Y035550D03*
Y036050D03*
Y036550D03*
Y037050D03*
Y037550D03*
Y038050D03*
Y038550D03*
Y039050D03*
Y039550D03*
Y040050D03*
Y040550D03*
Y041050D03*
Y041550D03*
Y042050D03*
Y042550D03*
X023350D03*
Y042050D03*
Y041550D03*
Y041050D03*
Y040550D03*
Y040050D03*
Y039550D03*
Y039050D03*
Y038550D03*
Y038050D03*
Y037550D03*
Y037050D03*
Y036550D03*
Y036050D03*
Y035550D03*
Y035050D03*
X019650Y026250D03*
Y026750D03*
Y027250D03*
Y027750D03*
Y028250D03*
Y028750D03*
Y029250D03*
Y029750D03*
Y030250D03*
Y030750D03*
Y031250D03*
Y031750D03*
Y032250D03*
Y032750D03*
Y033250D03*
Y033750D03*
X023350D03*
Y033250D03*
Y032750D03*
Y032250D03*
Y031750D03*
Y031250D03*
Y030750D03*
Y030250D03*
Y029750D03*
Y029250D03*
Y028750D03*
Y028250D03*
Y027750D03*
Y027250D03*
Y026750D03*
Y026250D03*
G54D46*
X052232Y019151D03*
X052488D03*
X052744D03*
X053000D03*
X053255D03*
X053511D03*
X053767D03*
Y016848D03*
X053511D03*
X053255D03*
X053000D03*
X052744D03*
X052488D03*
X052232D03*
Y024151D03*
X052488D03*
X052744D03*
X053000D03*
X053255D03*
X053511D03*
X053767D03*
Y021848D03*
X053511D03*
X053255D03*
X053000D03*
X052744D03*
X052488D03*
X052232D03*
Y029151D03*
X052488D03*
X052744D03*
X053000D03*
X053255D03*
X053511D03*
X053767D03*
Y026848D03*
X053511D03*
X053255D03*
X053000D03*
X052744D03*
X052488D03*
X052232D03*
G54D47*
X014268Y044504D03*
Y044760D03*
Y045016D03*
Y045272D03*
Y045527D03*
Y045783D03*
Y046039D03*
Y046295D03*
X016531D03*
Y046039D03*
Y045783D03*
Y045527D03*
Y045272D03*
Y045016D03*
Y044760D03*
Y044504D03*
G54D48*
X030250Y032150D03*
X029750D03*
X029250D03*
X028750D03*
X028250D03*
X027750D03*
X027250D03*
X026750D03*
X026250D03*
X025750D03*
Y035850D03*
X026250D03*
X026750D03*
X027250D03*
X027750D03*
X028250D03*
X028750D03*
X029250D03*
X029750D03*
X030250D03*
X031450Y026750D03*
X030950D03*
X030450D03*
X029950D03*
X029450D03*
X028950D03*
X028450D03*
X027950D03*
X027450D03*
X026950D03*
Y030450D03*
X027450D03*
X027950D03*
X028450D03*
X028950D03*
X029450D03*
X029950D03*
X030450D03*
X030950D03*
X031450D03*
X030250Y036900D03*
X029750D03*
X029250D03*
X028750D03*
X028250D03*
X027750D03*
X027250D03*
X026750D03*
X026250D03*
X025750D03*
Y040600D03*
X026250D03*
X026750D03*
X027250D03*
X027750D03*
X028250D03*
X028750D03*
X029250D03*
X029750D03*
X030250D03*
G54D49*
X048500Y038200D03*
Y040800D03*
G54D50*
X023065Y014800D02*
X023050D01*
X022837Y015012*
X022837D02*
Y015162D01*
X022837D02*
X022000Y016000D01*
X023800Y018065D02*
X023810D01*
Y018090*
X023190Y018710*
Y018735*
X023200D02*
Y019430D01*
X023125Y019505*
X023200Y018735D02*
X023190D01*
X023500Y017000D02*
Y017750D01*
X023800Y018050*
Y018065*
X029935Y014800D02*
Y015565D01*
X029500Y016000*
X031400Y018065D02*
X031410D01*
Y018090*
X030790Y018710*
Y018735*
X030800*
Y019492*
X030800D02*
X031160Y019852D01*
X031160D02*
Y020520D01*
X031000Y017000D02*
Y017650D01*
X031400Y018050*
Y018065*
G54D51*
X039000Y019687D02*
X038989D01*
Y020390*
X039000Y021150D02*
X038720D01*
X038500Y021370*
Y021812*
X039240Y020390D02*
X038989D01*
X038970*
X039000Y021150D02*
Y021812D01*
X038500Y019687D02*
Y020180D01*
X038710Y020390*
X038970*
X039500Y019687D02*
Y020130D01*
X039240Y020390*
X038000Y021812D02*
X038007D01*
X038007D02*
Y022330D01*
X038020*
G54D52*
X048500Y040719D02*
X049419D01*
X049419D02*
X054681Y045981D01*
Y048750*
X048500Y040719D02*
Y040800D01*
G54D93*
X018250Y044500D03*
Y015500D03*
X052000Y045500D03*
Y014000D03*
X000000Y000000D02*
M02*
