*
*
G04 PADS 9.3.1 Build Number: 456998 generated Gerber (RS-274-X) file*
G04 PC Version=2.1*
*
%IN "medulla.1.5.pcb"*%
*
%MOIN*%
*
%FSLAX35Y35*%
*
*
*
*
G04 PC Standard Apertures*
*
*
G04 Thermal Relief Aperture macro.*
%AMTER*
1,1,$1,0,0*
1,0,$1-$2,0,0*
21,0,$3,$4,0,0,45*
21,0,$3,$4,0,0,135*
%
*
*
G04 Annular Aperture macro.*
%AMANN*
1,1,$1,0,0*
1,0,$2,0,0*
%
*
*
G04 Odd Aperture macro.*
%AMODD*
1,1,$1,0,0*
1,0,$1-0.005,0,0*
%
*
*
G04 PC Custom Aperture Macros*
*
*
*
*
*
*
G04 PC Aperture Table*
*
%ADD017O,0.04X0.043*%
%ADD018O,0.043X0.04*%
%ADD034C,0.01181*%
%ADD040C,0.03*%
%ADD041C,0.02*%
%ADD088C,0.00787*%
%ADD094C,0.001*%
%ADD095O,0.01181X0.06299*%
%ADD096O,0.06299X0.01181*%
%ADD097O,0.01181X0.0315*%
%ADD099O,0.045X0.014*%
%ADD122C,0.00394*%
%ADD126C,0.01575*%
%ADD127O,0.08661X0.0315*%
%ADD128C,0.0315*%
%ADD129O,0.03543X0.02362*%
*
*
*
*
G04 PC Circuitry*
G04 Layer Name medulla.1.5.pcb - circuitry*
%LPD*%
*
*
G04 PC Custom Flashes*
G04 Layer Name medulla.1.5.pcb - flashes*
%LPD*%
*
*
G04 PC Circuitry*
G04 Layer Name medulla.1.5.pcb - circuitry*
%LPD*%
*
G54D17*
G01X341000Y184350D03*
Y177650D03*
X316000Y163650D03*
Y170350D03*
X345000Y151350D03*
Y144650D03*
X363000Y151350D03*
Y144650D03*
X351000Y151350D03*
Y144650D03*
X213000Y152650D03*
Y159350D03*
Y222650D03*
Y229350D03*
X316000Y176650D03*
Y183350D03*
X310000Y244650D03*
Y251350D03*
X219000Y161650D03*
Y168350D03*
X213000Y178350D03*
Y171650D03*
X219000Y181650D03*
Y188350D03*
X213000Y198350D03*
Y191650D03*
X219000Y231650D03*
Y238350D03*
X213000Y248350D03*
Y241650D03*
X219000Y251650D03*
Y258350D03*
X213000Y268350D03*
Y261650D03*
X298000Y251350D03*
Y244650D03*
X357000Y151350D03*
Y144650D03*
X304000Y244650D03*
Y251350D03*
X286000Y244650D03*
Y251350D03*
X292000Y244650D03*
Y251350D03*
X280000Y244650D03*
Y251350D03*
X316000Y244650D03*
Y251350D03*
X113000Y144350D03*
Y137650D03*
X322000Y244650D03*
Y251350D03*
G54D18*
X285350Y148000D03*
X278650D03*
X305350Y172000D03*
X298650D03*
X278650Y154000D03*
X285350D03*
X192350Y109000D03*
X185650D03*
X213350Y290000D03*
X206650D03*
X167650Y115000D03*
X174350D03*
Y109000D03*
X167650D03*
X207350D03*
X200650D03*
X200350Y290000D03*
X193650D03*
X226350D03*
X219650D03*
X193650Y284000D03*
X200350D03*
G54D34*
X322323Y232323D03*
Y229173D03*
Y226024D03*
Y222874D03*
Y219724D03*
Y216575D03*
Y213425D03*
Y210276D03*
Y207126D03*
Y203976D03*
Y200827D03*
Y197677D03*
X319173Y232323D03*
Y229173D03*
Y226024D03*
Y222874D03*
Y219724D03*
Y216575D03*
Y213425D03*
Y210276D03*
Y207126D03*
Y203976D03*
Y200827D03*
Y197677D03*
X316024Y232323D03*
Y229173D03*
Y226024D03*
Y222874D03*
Y219724D03*
Y216575D03*
Y213425D03*
Y210276D03*
Y207126D03*
Y203976D03*
Y200827D03*
Y197677D03*
X312874Y232323D03*
Y229173D03*
Y226024D03*
Y222874D03*
Y219724D03*
Y216575D03*
Y213425D03*
Y210276D03*
Y207126D03*
Y203976D03*
Y200827D03*
Y197677D03*
X309724Y232323D03*
Y229173D03*
Y226024D03*
Y222874D03*
Y207126D03*
Y203976D03*
Y200827D03*
Y197677D03*
X306575Y232323D03*
Y229173D03*
Y226024D03*
Y222874D03*
Y207126D03*
Y203976D03*
Y200827D03*
Y197677D03*
X303425Y232323D03*
Y229173D03*
Y226024D03*
Y222874D03*
Y207126D03*
Y203976D03*
Y200827D03*
Y197677D03*
X300276Y232323D03*
Y229173D03*
Y226024D03*
Y222874D03*
Y207126D03*
Y203976D03*
Y200827D03*
Y197677D03*
X297126Y232323D03*
Y229173D03*
Y226024D03*
Y222874D03*
Y219724D03*
Y216575D03*
Y213425D03*
Y210276D03*
Y207126D03*
Y203976D03*
Y200827D03*
Y197677D03*
X293976Y232323D03*
Y229173D03*
Y226024D03*
Y222874D03*
Y219724D03*
Y216575D03*
Y213425D03*
Y210276D03*
Y207126D03*
Y203976D03*
Y200827D03*
Y197677D03*
X290827Y232323D03*
Y229173D03*
Y226024D03*
Y222874D03*
Y219724D03*
Y216575D03*
Y213425D03*
Y210276D03*
Y207126D03*
Y203976D03*
Y200827D03*
Y197677D03*
X287677Y232323D03*
Y229173D03*
Y226024D03*
Y222874D03*
Y219724D03*
Y216575D03*
Y213425D03*
Y210276D03*
Y207126D03*
Y203976D03*
Y200827D03*
Y197677D03*
G54D40*
X195750Y309000D02*
Y308000D01*
X188250*
Y309000*
X195750*
X190000Y308000D02*
Y309000D01*
X193000Y308000D02*
Y309000D01*
X195750Y322000D02*
Y321000D01*
X188250*
Y322000*
X195750*
X188250D02*
X195750D01*
X190000Y321000D02*
Y322000D01*
X193000Y321000D02*
Y322000D01*
X266750Y118000D02*
Y117000D01*
X259250*
Y118000*
X266750*
X259250D02*
X266750D01*
X262000Y117000D02*
Y118000D01*
X265000Y117000D02*
Y118000D01*
X266750Y131000D02*
Y130000D01*
X259250*
Y131000*
X266750*
X259250Y130000D02*
X266750D01*
X262000D02*
Y131000D01*
X265000Y130000D02*
Y131000D01*
X174750Y128000D02*
Y127000D01*
X167250*
Y128000*
X174750*
X167250Y127000D02*
X174750D01*
X169000D02*
Y128000D01*
X172000Y127000D02*
Y128000D01*
X174750Y141000D02*
Y140000D01*
X167250*
Y141000*
X174750*
X169000Y140000D02*
Y141000D01*
X172000Y140000D02*
Y141000D01*
G54D41*
X177300Y290000D02*
Y284000D01*
X166700*
Y290000*
X177300*
X166700Y284000D02*
X177300D01*
X166700Y286000D02*
X177300D01*
X166700Y288000D02*
X177300D01*
X166700Y290000D02*
X177300D01*
X168000Y284000D02*
Y290000D01*
X170000Y284000D02*
Y290000D01*
X172000Y284000D02*
Y290000D01*
X174000Y284000D02*
Y290000D01*
X176000Y284000D02*
Y290000D01*
X177300Y316000D02*
Y310000D01*
X166700*
Y316000*
X177300*
X166700Y310000D02*
X177300D01*
X166700Y312000D02*
X177300D01*
X166700Y314000D02*
X177300D01*
X166700Y316000D02*
X177300D01*
X168000Y310000D02*
Y316000D01*
X170000Y310000D02*
Y316000D01*
X172000Y310000D02*
Y316000D01*
X174000Y310000D02*
Y316000D01*
X176000Y310000D02*
Y316000D01*
X112000Y282500D02*
Y283500D01*
X113800*
Y282500*
X112000*
Y283500*
X118200Y282500D02*
Y283500D01*
X120000*
Y282500*
X118200*
X120000D02*
Y283500D01*
X112000Y298500D02*
Y299500D01*
X113800*
Y298500*
X112000*
Y299500*
X118200Y298500D02*
Y299500D01*
X120000*
Y298500*
X118200*
X120000D02*
Y299500D01*
X112000Y290500D02*
Y291500D01*
X113800*
Y290500*
X112000*
Y291500*
X118200Y290500D02*
Y291500D01*
X120000*
Y290500*
X118200*
X120000D02*
Y291500D01*
X106500Y137000D02*
X105500D01*
Y138800*
X106500*
Y137000*
X105500Y138000D02*
X106500D01*
X106000Y137000D02*
Y138800D01*
X106500Y143200D02*
X105500D01*
Y145000*
X106500*
Y143200*
X105500Y144000D02*
X106500D01*
X106000Y143200D02*
Y145000D01*
G54D88*
X139575Y106551D02*
Y109307D01*
X142724*
Y106551*
X139575*
Y107087D02*
X142724D01*
X139575Y107874D02*
X142724D01*
X139575Y108661D02*
X142724D01*
X140157Y106551D02*
Y109307D01*
X140945Y106551D02*
Y109307D01*
X141732Y106551D02*
Y109307D01*
X142520Y106551D02*
Y109307D01*
X133276Y106551D02*
Y109307D01*
X136425*
Y106551*
X133276*
Y107087D02*
X136425D01*
X133276Y107874D02*
X136425D01*
X133276Y108661D02*
X136425D01*
X133858Y106551D02*
Y109307D01*
X134646Y106551D02*
Y109307D01*
X135433Y106551D02*
Y109307D01*
X136220Y106551D02*
Y109307D01*
X133276Y122693D02*
Y125449D01*
X136425*
Y122693*
X133276*
Y122835D02*
X136425D01*
X133276Y123622D02*
X136425D01*
X133276Y124409D02*
X136425D01*
X133276Y125197D02*
X136425D01*
X133858Y122693D02*
Y125449D01*
X134646Y122693D02*
Y125449D01*
X135433Y122693D02*
Y125449D01*
X136220Y122693D02*
Y125449D01*
X139575Y122693D02*
Y125449D01*
X142724*
Y122693*
X139575*
Y122835D02*
X142724D01*
X139575Y123622D02*
X142724D01*
X139575Y124409D02*
X142724D01*
X139575Y125197D02*
X142724D01*
X140157Y122693D02*
Y125449D01*
X140945Y122693D02*
Y125449D01*
X141732Y122693D02*
Y125449D01*
X142520Y122693D02*
Y125449D01*
G54D94*
G54D95*
X396622Y256217D03*
X394654D03*
X392685D03*
X390717D03*
X388748D03*
X386780D03*
X384811D03*
X382843D03*
X380874D03*
X378906D03*
X376937D03*
X374969D03*
X373000D03*
X371031D03*
X369063D03*
X367094D03*
X365126D03*
X363157D03*
X361189D03*
X359220D03*
X357252D03*
X355283D03*
X353315D03*
X351346D03*
X349378D03*
Y195783D03*
X351346D03*
X353315D03*
X355283D03*
X357252D03*
X359220D03*
X361189D03*
X363157D03*
X365126D03*
X367094D03*
X369063D03*
X371031D03*
X373000D03*
X374969D03*
X376937D03*
X378906D03*
X380874D03*
X382843D03*
X384811D03*
X386780D03*
X388748D03*
X390717D03*
X392685D03*
X394654D03*
X396622D03*
G54D96*
X342783Y249622D03*
Y247654D03*
Y245685D03*
Y243717D03*
Y241748D03*
Y239780D03*
Y237811D03*
Y235843D03*
Y233874D03*
Y231906D03*
Y229937D03*
Y227969D03*
Y226000D03*
Y224031D03*
Y222063D03*
Y220094D03*
Y218126D03*
Y216157D03*
Y214189D03*
Y212220D03*
Y210252D03*
Y208283D03*
Y206315D03*
Y204346D03*
Y202378D03*
X403217D03*
Y204346D03*
Y206315D03*
Y208283D03*
Y210252D03*
Y212220D03*
Y214189D03*
Y216157D03*
Y218126D03*
Y220094D03*
Y222063D03*
Y224031D03*
Y226000D03*
Y227969D03*
Y229937D03*
Y231906D03*
Y233874D03*
Y235843D03*
Y237811D03*
Y239780D03*
Y241748D03*
Y243717D03*
Y245685D03*
Y247654D03*
Y249622D03*
G54D97*
X325161Y157992D03*
X327720D03*
X330280D03*
X332839D03*
Y182008D03*
X330280D03*
X327720D03*
X325161D03*
G54D99*
X269000Y151250D03*
Y153750D03*
Y156250D03*
Y158750D03*
Y161250D03*
Y163750D03*
Y166250D03*
Y168750D03*
Y171250D03*
Y173750D03*
Y176250D03*
Y178750D03*
Y181250D03*
Y183750D03*
Y186250D03*
Y188750D03*
Y191250D03*
Y193750D03*
Y196250D03*
Y198750D03*
Y201250D03*
Y203750D03*
Y206250D03*
Y208750D03*
X231000D03*
Y206250D03*
Y203750D03*
Y201250D03*
Y198750D03*
Y196250D03*
Y193750D03*
Y191250D03*
Y188750D03*
Y186250D03*
Y183750D03*
Y181250D03*
Y178750D03*
Y176250D03*
Y173750D03*
Y171250D03*
Y168750D03*
Y166250D03*
Y163750D03*
Y161250D03*
Y158750D03*
Y156250D03*
Y153750D03*
Y151250D03*
X269000Y221250D03*
Y223750D03*
Y226250D03*
Y228750D03*
Y231250D03*
Y233750D03*
Y236250D03*
Y238750D03*
Y241250D03*
Y243750D03*
Y246250D03*
Y248750D03*
Y251250D03*
Y253750D03*
Y256250D03*
Y258750D03*
Y261250D03*
Y263750D03*
Y266250D03*
Y268750D03*
Y271250D03*
Y273750D03*
Y276250D03*
Y278750D03*
X231000D03*
Y276250D03*
Y273750D03*
Y271250D03*
Y268750D03*
Y266250D03*
Y263750D03*
Y261250D03*
Y258750D03*
Y256250D03*
Y253750D03*
Y251250D03*
Y248750D03*
Y246250D03*
Y243750D03*
Y241250D03*
Y238750D03*
Y236250D03*
Y233750D03*
Y231250D03*
Y228750D03*
Y226250D03*
Y223750D03*
Y221250D03*
G54D122*
X348437Y157417D02*
X347650D01*
Y161945*
X348437*
Y157417*
X347650Y157480D02*
X348437D01*
X347650Y157874D02*
X348437D01*
X347650Y158268D02*
X348437D01*
X347650Y158661D02*
X348437D01*
X347650Y159055D02*
X348437D01*
X347650Y159449D02*
X348437D01*
X347650Y159843D02*
X348437D01*
X347650Y160236D02*
X348437D01*
X347650Y160630D02*
X348437D01*
X347650Y161024D02*
X348437D01*
X347650Y161417D02*
X348437D01*
X347650Y161811D02*
X348437D01*
X348031Y157417D02*
Y161945D01*
X348425Y157417D02*
Y161945D01*
X350996Y157417D02*
X350209D01*
Y161945*
X350996*
Y157417*
X350209Y157480D02*
X350996D01*
X350209Y157874D02*
X350996D01*
X350209Y158268D02*
X350996D01*
X350209Y158661D02*
X350996D01*
X350209Y159055D02*
X350996D01*
X350209Y159449D02*
X350996D01*
X350209Y159843D02*
X350996D01*
X350209Y160236D02*
X350996D01*
X350209Y160630D02*
X350996D01*
X350209Y161024D02*
X350996D01*
X350209Y161417D02*
X350996D01*
X350209Y161811D02*
X350996D01*
X350394Y157417D02*
Y161945D01*
X350787Y157417D02*
Y161945D01*
X353555Y157417D02*
X352768D01*
Y161945*
X353555*
Y157417*
X352768Y157480D02*
X353555D01*
X352768Y157874D02*
X353555D01*
X352768Y158268D02*
X353555D01*
X352768Y158661D02*
X353555D01*
X352768Y159055D02*
X353555D01*
X352768Y159449D02*
X353555D01*
X352768Y159843D02*
X353555D01*
X352768Y160236D02*
X353555D01*
X352768Y160630D02*
X353555D01*
X352768Y161024D02*
X353555D01*
X352768Y161417D02*
X353555D01*
X352768Y161811D02*
X353555D01*
X353150Y157417D02*
Y161945D01*
X353543Y157417D02*
Y161945D01*
X356114Y157417D02*
X355327D01*
Y161945*
X356114*
Y157417*
X355327Y157480D02*
X356114D01*
X355327Y157874D02*
X356114D01*
X355327Y158268D02*
X356114D01*
X355327Y158661D02*
X356114D01*
X355327Y159055D02*
X356114D01*
X355327Y159449D02*
X356114D01*
X355327Y159843D02*
X356114D01*
X355327Y160236D02*
X356114D01*
X355327Y160630D02*
X356114D01*
X355327Y161024D02*
X356114D01*
X355327Y161417D02*
X356114D01*
X355327Y161811D02*
X356114D01*
X355512Y157417D02*
Y161945D01*
X355906Y157417D02*
Y161945D01*
X358673Y157417D02*
X357886D01*
Y161945*
X358673*
Y157417*
X357886Y157480D02*
X358673D01*
X357886Y157874D02*
X358673D01*
X357886Y158268D02*
X358673D01*
X357886Y158661D02*
X358673D01*
X357886Y159055D02*
X358673D01*
X357886Y159449D02*
X358673D01*
X357886Y159843D02*
X358673D01*
X357886Y160236D02*
X358673D01*
X357886Y160630D02*
X358673D01*
X357886Y161024D02*
X358673D01*
X357886Y161417D02*
X358673D01*
X357886Y161811D02*
X358673D01*
X358268Y157417D02*
Y161945D01*
X358661Y157417D02*
Y161945D01*
X361232Y157417D02*
X360445D01*
Y161945*
X361232*
Y157417*
X360445Y157480D02*
X361232D01*
X360445Y157874D02*
X361232D01*
X360445Y158268D02*
X361232D01*
X360445Y158661D02*
X361232D01*
X360445Y159055D02*
X361232D01*
X360445Y159449D02*
X361232D01*
X360445Y159843D02*
X361232D01*
X360445Y160236D02*
X361232D01*
X360445Y160630D02*
X361232D01*
X360445Y161024D02*
X361232D01*
X360445Y161417D02*
X361232D01*
X360445Y161811D02*
X361232D01*
X360630Y157417D02*
Y161945D01*
X361024Y157417D02*
Y161945D01*
X363791Y157417D02*
X363004D01*
Y161945*
X363791*
Y157417*
X363004Y157480D02*
X363791D01*
X363004Y157874D02*
X363791D01*
X363004Y158268D02*
X363791D01*
X363004Y158661D02*
X363791D01*
X363004Y159055D02*
X363791D01*
X363004Y159449D02*
X363791D01*
X363004Y159843D02*
X363791D01*
X363004Y160236D02*
X363791D01*
X363004Y160630D02*
X363791D01*
X363004Y161024D02*
X363791D01*
X363004Y161417D02*
X363791D01*
X363004Y161811D02*
X363791D01*
X363386Y157417D02*
Y161945D01*
X363780Y157417D02*
Y161945D01*
X366350Y157417D02*
X365563D01*
Y161945*
X366350*
Y157417*
X365563Y157480D02*
X366350D01*
X365563Y157874D02*
X366350D01*
X365563Y158268D02*
X366350D01*
X365563Y158661D02*
X366350D01*
X365563Y159055D02*
X366350D01*
X365563Y159449D02*
X366350D01*
X365563Y159843D02*
X366350D01*
X365563Y160236D02*
X366350D01*
X365563Y160630D02*
X366350D01*
X365563Y161024D02*
X366350D01*
X365563Y161417D02*
X366350D01*
X365563Y161811D02*
X366350D01*
X365748Y157417D02*
Y161945D01*
X366142Y157417D02*
Y161945D01*
X366350Y180055D02*
X365563D01*
Y184583*
X366350*
Y180055*
X365563Y180315D02*
X366350D01*
X365563Y180709D02*
X366350D01*
X365563Y181102D02*
X366350D01*
X365563Y181496D02*
X366350D01*
X365563Y181890D02*
X366350D01*
X365563Y182283D02*
X366350D01*
X365563Y182677D02*
X366350D01*
X365563Y183071D02*
X366350D01*
X365563Y183465D02*
X366350D01*
X365563Y183858D02*
X366350D01*
X365563Y184252D02*
X366350D01*
X365748Y180055D02*
Y184583D01*
X366142Y180055D02*
Y184583D01*
X363791Y180055D02*
X363004D01*
Y184583*
X363791*
Y180055*
X363004Y180315D02*
X363791D01*
X363004Y180709D02*
X363791D01*
X363004Y181102D02*
X363791D01*
X363004Y181496D02*
X363791D01*
X363004Y181890D02*
X363791D01*
X363004Y182283D02*
X363791D01*
X363004Y182677D02*
X363791D01*
X363004Y183071D02*
X363791D01*
X363004Y183465D02*
X363791D01*
X363004Y183858D02*
X363791D01*
X363004Y184252D02*
X363791D01*
X363386Y180055D02*
Y184583D01*
X363780Y180055D02*
Y184583D01*
X361232Y180055D02*
X360445D01*
Y184583*
X361232*
Y180055*
X360445Y180315D02*
X361232D01*
X360445Y180709D02*
X361232D01*
X360445Y181102D02*
X361232D01*
X360445Y181496D02*
X361232D01*
X360445Y181890D02*
X361232D01*
X360445Y182283D02*
X361232D01*
X360445Y182677D02*
X361232D01*
X360445Y183071D02*
X361232D01*
X360445Y183465D02*
X361232D01*
X360445Y183858D02*
X361232D01*
X360445Y184252D02*
X361232D01*
X360630Y180055D02*
Y184583D01*
X361024Y180055D02*
Y184583D01*
X358673Y180055D02*
X357886D01*
Y184583*
X358673*
Y180055*
X357886Y180315D02*
X358673D01*
X357886Y180709D02*
X358673D01*
X357886Y181102D02*
X358673D01*
X357886Y181496D02*
X358673D01*
X357886Y181890D02*
X358673D01*
X357886Y182283D02*
X358673D01*
X357886Y182677D02*
X358673D01*
X357886Y183071D02*
X358673D01*
X357886Y183465D02*
X358673D01*
X357886Y183858D02*
X358673D01*
X357886Y184252D02*
X358673D01*
X358268Y180055D02*
Y184583D01*
X358661Y180055D02*
Y184583D01*
X356114Y180055D02*
X355327D01*
Y184583*
X356114*
Y180055*
X355327Y180315D02*
X356114D01*
X355327Y180709D02*
X356114D01*
X355327Y181102D02*
X356114D01*
X355327Y181496D02*
X356114D01*
X355327Y181890D02*
X356114D01*
X355327Y182283D02*
X356114D01*
X355327Y182677D02*
X356114D01*
X355327Y183071D02*
X356114D01*
X355327Y183465D02*
X356114D01*
X355327Y183858D02*
X356114D01*
X355327Y184252D02*
X356114D01*
X355512Y180055D02*
Y184583D01*
X355906Y180055D02*
Y184583D01*
X353555Y180055D02*
X352768D01*
Y184583*
X353555*
Y180055*
X352768Y180315D02*
X353555D01*
X352768Y180709D02*
X353555D01*
X352768Y181102D02*
X353555D01*
X352768Y181496D02*
X353555D01*
X352768Y181890D02*
X353555D01*
X352768Y182283D02*
X353555D01*
X352768Y182677D02*
X353555D01*
X352768Y183071D02*
X353555D01*
X352768Y183465D02*
X353555D01*
X352768Y183858D02*
X353555D01*
X352768Y184252D02*
X353555D01*
X353150Y180055D02*
Y184583D01*
X353543Y180055D02*
Y184583D01*
X350996Y180055D02*
X350209D01*
Y184583*
X350996*
Y180055*
X350209Y180315D02*
X350996D01*
X350209Y180709D02*
X350996D01*
X350209Y181102D02*
X350996D01*
X350209Y181496D02*
X350996D01*
X350209Y181890D02*
X350996D01*
X350209Y182283D02*
X350996D01*
X350209Y182677D02*
X350996D01*
X350209Y183071D02*
X350996D01*
X350209Y183465D02*
X350996D01*
X350209Y183858D02*
X350996D01*
X350209Y184252D02*
X350996D01*
X350394Y180055D02*
Y184583D01*
X350787Y180055D02*
Y184583D01*
X348437Y180055D02*
X347650D01*
Y184583*
X348437*
Y180055*
X347650Y180315D02*
X348437D01*
X347650Y180709D02*
X348437D01*
X347650Y181102D02*
X348437D01*
X347650Y181496D02*
X348437D01*
X347650Y181890D02*
X348437D01*
X347650Y182283D02*
X348437D01*
X347650Y182677D02*
X348437D01*
X347650Y183071D02*
X348437D01*
X347650Y183465D02*
X348437D01*
X347650Y183858D02*
X348437D01*
X347650Y184252D02*
X348437D01*
X348031Y180055D02*
Y184583D01*
X348425Y180055D02*
Y184583D01*
X354260Y271654D02*
Y273228D01*
X355835*
Y271654*
X354260*
X355835*
X354260Y272047D02*
X355835D01*
X354260Y272441D02*
X355835D01*
X354260Y272835D02*
X355835D01*
X354260Y273228D02*
X355835D01*
X354331Y271654D02*
Y273228D01*
X354724Y271654D02*
Y273228D01*
X355118Y271654D02*
Y273228D01*
X355512Y271654D02*
Y273228D01*
X358591Y271260D02*
X357409D01*
Y272835*
X358591*
Y271260*
X357409D02*
X358591D01*
X357409Y271654D02*
X358591D01*
X357409Y272047D02*
X358591D01*
X357409Y272441D02*
X358591D01*
X357409Y272835D02*
X358591D01*
X357480Y271260D02*
Y272835D01*
X357874Y271260D02*
Y272835D01*
X358268Y271260D02*
Y272835D01*
X360165Y271654D02*
Y273228D01*
X361740*
Y271654*
X360165*
X361740*
X360165Y272047D02*
X361740D01*
X360165Y272441D02*
X361740D01*
X360165Y272835D02*
X361740D01*
X360165Y273228D02*
X361740D01*
X360236Y271654D02*
Y273228D01*
X360630Y271654D02*
Y273228D01*
X361024Y271654D02*
Y273228D01*
X361417Y271654D02*
Y273228D01*
X360165Y276772D02*
Y278346D01*
X361740*
Y276772*
X360165*
X361740*
X360165Y277165D02*
X361740D01*
X360165Y277559D02*
X361740D01*
X360165Y277953D02*
X361740D01*
X360165Y278346D02*
X361740D01*
X360236Y276772D02*
Y278346D01*
X360630Y276772D02*
Y278346D01*
X361024Y276772D02*
Y278346D01*
X361417Y276772D02*
Y278346D01*
X358591Y277165D02*
X357409D01*
Y278740*
X358591*
Y277165*
X357409D02*
X358591D01*
X357409Y277559D02*
X358591D01*
X357409Y277953D02*
X358591D01*
X357409Y278346D02*
X358591D01*
X357409Y278740D02*
X358591D01*
X357480Y277165D02*
Y278740D01*
X357874Y277165D02*
Y278740D01*
X358268Y277165D02*
Y278740D01*
X354260Y276772D02*
Y278346D01*
X355835*
Y276772*
X354260*
X355835*
X354260Y277165D02*
X355835D01*
X354260Y277559D02*
X355835D01*
X354260Y277953D02*
X355835D01*
X354260Y278346D02*
X355835D01*
X354331Y276772D02*
Y278346D01*
X354724Y276772D02*
Y278346D01*
X355118Y276772D02*
Y278346D01*
X355512Y276772D02*
Y278346D01*
G54D126*
X309299Y189315D02*
Y186165D01*
X305362*
Y189315*
X309299*
X305362Y186614D02*
X309299D01*
X305362Y188189D02*
X309299D01*
X306299Y186165D02*
Y189315D01*
X307874Y186165D02*
Y189315D01*
X300638D02*
Y186165D01*
X296701*
Y189315*
X300638*
X296701Y186614D02*
X300638D01*
X296701Y188189D02*
X300638D01*
X296850Y186165D02*
Y189315D01*
X298425Y186165D02*
Y189315D01*
X300000Y186165D02*
Y189315D01*
X300638Y181835D02*
Y178685D01*
X296701*
Y181835*
X300638*
X296701Y178740D02*
X300638D01*
X296701Y180315D02*
X300638D01*
X296850Y178685D02*
Y181835D01*
X298425Y178685D02*
Y181835D01*
X300000Y178685D02*
Y181835D01*
X309299D02*
Y178685D01*
X305362*
Y181835*
X309299*
X305362Y178740D02*
X309299D01*
X305362Y180315D02*
X309299D01*
X306299Y178685D02*
Y181835D01*
X307874Y178685D02*
Y181835D01*
G54D127*
X203701Y313500D03*
Y308500D03*
Y303500D03*
Y298500D03*
X226299D03*
Y303500D03*
Y308500D03*
Y313500D03*
X184701Y132500D03*
Y127500D03*
Y122500D03*
Y117500D03*
X207299D03*
Y122500D03*
Y127500D03*
Y132500D03*
G54D128*
X246669Y293433D02*
X236827D01*
Y322567*
X246669*
Y293433*
X236827Y295276D02*
X246669D01*
X236827Y298425D02*
X246669D01*
X236827Y301575D02*
X246669D01*
X236827Y304724D02*
X246669D01*
X236827Y307874D02*
X246669D01*
X236827Y311024D02*
X246669D01*
X236827Y314173D02*
X246669D01*
X236827Y317323D02*
X246669D01*
X236827Y320472D02*
X246669D01*
X238583Y293433D02*
Y322567D01*
X241732Y293433D02*
Y322567D01*
X244882Y293433D02*
Y322567D01*
X265173Y293433D02*
X255331D01*
Y322567*
X265173*
Y293433*
X255331Y295276D02*
X265173D01*
X255331Y298425D02*
X265173D01*
X255331Y301575D02*
X265173D01*
X255331Y304724D02*
X265173D01*
X255331Y307874D02*
X265173D01*
X255331Y311024D02*
X265173D01*
X255331Y314173D02*
X265173D01*
X255331Y317323D02*
X265173D01*
X255331Y320472D02*
X265173D01*
X257480Y293433D02*
Y322567D01*
X260630Y293433D02*
Y322567D01*
X263780Y293433D02*
Y322567D01*
X231669Y106433D02*
X221827D01*
Y135567*
X231669*
Y106433*
X221827Y109449D02*
X231669D01*
X221827Y112598D02*
X231669D01*
X221827Y115748D02*
X231669D01*
X221827Y118898D02*
X231669D01*
X221827Y122047D02*
X231669D01*
X221827Y125197D02*
X231669D01*
X221827Y128346D02*
X231669D01*
X221827Y131496D02*
X231669D01*
X221827Y134646D02*
X231669D01*
X222835Y106433D02*
Y135567D01*
X225984Y106433D02*
Y135567D01*
X229134Y106433D02*
Y135567D01*
X250173Y106433D02*
X240331D01*
Y135567*
X250173*
Y106433*
X240331Y109449D02*
X250173D01*
X240331Y112598D02*
X250173D01*
X240331Y115748D02*
X250173D01*
X240331Y118898D02*
X250173D01*
X240331Y122047D02*
X250173D01*
X240331Y125197D02*
X250173D01*
X240331Y128346D02*
X250173D01*
X240331Y131496D02*
X250173D01*
X240331Y134646D02*
X250173D01*
X241732Y106433D02*
Y135567D01*
X244882Y106433D02*
Y135567D01*
X248031Y106433D02*
Y135567D01*
G54D129*
X293945Y265260D03*
Y272740D03*
X302055Y269000D03*
X0Y0D02*
M02*
