*
*
G04 PADS 9.3.1 Build Number: 456998 generated Gerber (RS-274-X) file*
G04 PC Version=2.1*
*
%IN "medulla.1.5.pcb"*%
*
%MOIN*%
*
%FSLAX35Y35*%
*
*
*
*
G04 PC Standard Apertures*
*
*
G04 Thermal Relief Aperture macro.*
%AMTER*
1,1,$1,0,0*
1,0,$1-$2,0,0*
21,0,$3,$4,0,0,45*
21,0,$3,$4,0,0,135*
%
*
*
G04 Annular Aperture macro.*
%AMANN*
1,1,$1,0,0*
1,0,$2,0,0*
%
*
*
G04 Odd Aperture macro.*
%AMODD*
1,1,$1,0,0*
1,0,$1-0.005,0,0*
%
*
*
G04 PC Custom Aperture Macros*
*
*
*
*
*
*
G04 PC Aperture Table*
*
%ADD011C,0.05118*%
%ADD017O,0.04X0.043*%
%ADD018O,0.043X0.04*%
%ADD021R,0.06X0.06*%
%ADD022C,0.06*%
%ADD023R,0.065X0.065*%
%ADD024C,0.065*%
%ADD025C,0.17*%
%ADD026C,0.062*%
%ADD027C,0.09*%
%ADD031O,0.02X0.014*%
%ADD038C,0.006*%
%ADD039C,0.01*%
%ADD040C,0.03*%
%ADD041C,0.02*%
%ADD042C,0.025*%
%ADD088C,0.00787*%
%ADD093C,0.25*%
%ADD094C,0.001*%
%ADD120R,0.05118X0.05118*%
%ADD122C,0.00394*%
%ADD123C,0.05*%
%ADD129O,0.03543X0.02362*%
*
*
*
*
G04 PC Circuitry*
G04 Layer Name medulla.1.5.pcb - circuitry*
%LPD*%
*
G54D94*
G01X339269Y225721D02*
X339057Y227629D01*
X338635Y229108*
X338001Y230163*
X337159Y231216*
X335896Y231847*
X334627Y232270*
X331659Y232694*
X331659D02*
X329541Y232483D01*
X327847Y232059*
X326583Y231427*
X325739Y230584*
X324895Y229528*
X324473Y228473*
X324050Y226993*
Y218752*
X339269*
Y225721*
X335752Y224660D02*
Y223383D01*
X335702Y223333*
X327617*
X327567Y223383*
Y225936*
X327569Y225948*
X327781Y226799*
X327794Y226823*
X328220Y227248*
X328233Y227257*
X329935Y228109*
X329957Y228114*
X331660*
X331665*
X333580Y227901*
X333597Y227896*
X334873Y227257*
X334894Y227238*
X335532Y226175*
X335539Y226156*
X335752Y224667*
Y224660*
X339269Y243167D02*
X339057Y245078D01*
X338845Y246348*
X338425Y247397*
X337589Y248234*
X336540Y248653*
X335065Y248864*
X334014Y248654*
X332961Y248233*
X332121Y247603*
X331492Y246764*
X331282Y246135*
X331070Y245286*
X330980Y245270*
X330554Y245908*
X330551Y245914*
X330342Y246332*
X329501Y247173*
X328444Y247807*
X324050Y250109*
Y245114*
X328918Y242363*
X328921Y242361*
X329560Y241935*
X329567Y241929*
X329993Y241503*
X330004Y241487*
X330429Y240423*
X330433Y240404*
Y239979*
X330383Y239929*
X324050*
Y235348*
X339269*
Y243167*
X336390Y242106D02*
Y239979D01*
X336340Y239929*
X333362*
X333312Y239979*
Y242319*
X333313Y242331*
X333526Y243182*
X333530Y243193*
X333955Y244044*
X333988Y244070*
X334839Y244283*
X334851Y244284*
X335489*
X335525Y244269*
X335950Y243844*
X335962Y243824*
X336175Y243186*
X336177Y243180*
X336389Y242116*
X336390Y242106*
X339269Y256312D02*
X327830D01*
X327780Y256362*
Y263759*
X324050*
Y251731*
X339269*
Y256312*
X322010Y154052D02*
X320215D01*
Y154011*
X320305*
X320317Y154010*
X320598Y153940*
X320628Y153919*
X320768Y153708*
X320771Y153703*
X320841Y153563*
X320846Y153540*
Y151786*
X320832Y151751*
X320846Y151716*
Y149961*
X320844Y149946*
X320774Y149735*
X320762Y149716*
X320621Y149575*
X320598Y149562*
X320317Y149492*
X320305Y149490*
X320215*
Y149450*
X322010*
Y149490*
X321919*
X321907Y149492*
X321626Y149562*
X321616Y149566*
X321476Y149636*
X321451Y149665*
X321381Y149875*
X321378Y149891*
Y153540*
X321381Y153556*
X321451Y153767*
X321454Y153773*
X321524Y153914*
X321559Y153940*
X321909Y154010*
X321919Y154011*
X322010*
Y154052*
X320761Y151751D02*
X320623Y151889D01*
X320274Y152168*
X320270Y152172*
X319147Y153294*
X319141Y153302*
X319001Y153513*
X319001D02*
X318995Y153525D01*
X318924Y153735*
X318927Y153773*
X318997Y153914*
X319026Y153939*
X319237Y154009*
X319253Y154011*
X319343*
Y154052*
X317759*
Y154000*
X318002Y153940*
X318012Y153936*
X318293Y153796*
X318295Y153794*
X318786Y153514*
X318797Y153506*
X320270Y152032*
Y151960*
X318445Y150206*
X318443Y150204*
X318021Y149853*
X318019Y149851*
X317739Y149641*
X317721Y149632*
X317197Y149501*
Y149450*
X319203*
Y149501*
X318960Y149562*
X318927Y149588*
X318857Y149729*
X318852Y149751*
Y149891*
X318866Y149927*
X319147Y150207*
X319148Y150208*
X320761Y151751*
X316886Y150941D02*
X316749Y151629D01*
X316478Y152171*
X316006Y152441*
X315461Y152577*
X314993Y152510*
X314658Y152243*
X314388Y151838*
X314328Y151415*
X316446*
X316495Y151359*
X316425Y150728*
X316417Y150706*
X316136Y150285*
X316130Y150277*
X315779Y149926*
X315751Y149912*
X315260Y149842*
X315253Y149841*
X314972*
X314944Y149850*
X314734Y149990*
X314731Y149992*
X314451Y150202*
X314434Y150224*
X314364Y150398*
X314456Y150124*
X314727Y149717*
X315131Y149448*
X315534Y149380*
X316074Y149448*
X316479Y149785*
X316818Y150260*
X316886Y150941*
X316446Y151525D02*
X314972D01*
X314922Y151575*
Y151856*
X314927Y151878*
X314927D02*
X314997Y152019D01*
X315007Y152032*
X315287Y152313*
X315304Y152324*
X315655Y152464*
X315686Y152466*
X315967Y152396*
X315982Y152389*
X316193Y152249*
X316205Y152237*
X316415Y151956*
X316424Y151936*
X316495Y151585*
X316446Y151525*
X320681Y223448D02*
X320595Y224054D01*
X320340Y224480*
X319824Y224737*
X319211Y224825*
X316050*
Y224121*
X319304*
X319319Y224119*
X319587Y224030*
X319601Y224022*
X319959Y223754*
X319978Y223724*
X320067Y223278*
Y223258*
X319978Y222812*
X319969Y222791*
X319701Y222434*
X319691Y222424*
X319334Y222156*
X319311Y222147*
X318686Y222058*
X318679Y222057*
X316050*
Y221354*
X319393*
X319415Y221348*
X319772Y221170*
X319792Y221153*
X319970Y220885*
X319977Y220869*
X320066Y220512*
Y220486*
X319887Y219861*
X319871Y219837*
X319336Y219390*
X319316Y219380*
X318959Y219291*
X318946Y219289*
X316050*
Y218586*
X320593*
Y219289*
X319929*
X319893Y219375*
X320422Y219903*
X320595Y220337*
X320681Y220680*
X320595Y221111*
X320422Y221543*
X320167Y221798*
X319817Y221973*
X319814Y222061*
X320252Y222324*
X320508Y222665*
X320594Y223011*
X320681Y223448*
Y228000D02*
X320507Y228873D01*
X320073Y229480*
X319287Y229917*
X318317Y230093*
X318193*
Y226571*
X318129Y226523*
X317504Y226702*
X317495Y226705*
X317495D02*
X316960Y226973D01*
X316939Y226992*
X316671Y227439*
X316665Y227457*
X316576Y228082*
X316576D02*
X316575Y228089D01*
Y228446*
X316580Y228469*
X316759Y228826*
X316768Y228839*
X317036Y229107*
X317041Y229111*
X317376Y229362*
X317297Y230070*
X316743Y229833*
X316310Y229400*
X316049Y228791*
X315961Y228002*
X316137Y227126*
X316572Y226429*
X317268Y225994*
X318321Y225819*
X319287Y225994*
X320072Y226430*
X320506Y227126*
X320681Y228000*
X320067Y227992D02*
X319978Y227456D01*
X319971Y227439*
X319704Y226992*
X319696Y226983*
X319339Y226625*
X319313Y226612*
X318867Y226522*
X318807Y226571*
Y229339*
X318867Y229388*
X319313Y229299*
X319334Y229290*
X319691Y229022*
X319704Y229008*
X319971Y228561*
X319978Y228544*
X320067Y228008*
Y227992*
X322379Y234736D02*
X316050D01*
Y234032*
X316625*
X316660Y233947*
X316130Y233417*
X315961Y233077*
Y232736*
X316048Y232210*
X316222Y231775*
X316568Y231343*
X317091Y231082*
X317618Y230906*
X318321Y230818*
X318936Y230906*
X319551Y231082*
X319989Y231345*
X320422Y231691*
X320594Y232209*
X320681Y232730*
X320508Y233421*
X319983Y233947*
X320018Y234032*
X322379*
Y234736*
X320068Y232732D02*
X320067Y232722D01*
X319978Y232276*
X319964Y232250*
X319607Y231893*
X319594Y231884*
X319058Y231616*
X319042Y231611*
X318328Y231522*
X318315*
X317601Y231611*
X317585Y231616*
X317049Y231884*
X317032Y231897*
X316675Y232344*
X316665Y232365*
X316576Y232812*
Y232831*
X316665Y233278*
X316674Y233298*
X316942Y233655*
X316960Y233670*
X317495Y233938*
X317495D02*
X317512Y233942D01*
X318226Y234032*
X318238*
X319041Y233943*
X319058Y233938*
X319594Y233670*
X319607Y233660*
X319964Y233303*
X319978Y233276*
X320067Y232740*
X320068Y232732*
X320593Y239825D02*
X316050D01*
Y239121*
X316714*
X316744Y239031*
X316393Y238768*
X316135Y238425*
X316049Y238078*
X315962Y237644*
X316136Y236949*
X316478Y236436*
X317085Y236262*
X317087*
X317347Y236175*
X320593*
Y236879*
X317607*
X317595Y236880*
X317238Y236969*
X317224Y236975*
X316778Y237243*
X316762Y237258*
X316583Y237526*
X316575Y237554*
Y238179*
X316580Y238201*
X316759Y238558*
X316762Y238563*
X316941Y238831*
X316954Y238845*
X317222Y239024*
X317240Y239031*
X317687Y239120*
X317696Y239121*
X320593*
Y239825*
X322379Y241879D02*
X316050D01*
Y241175*
X322379*
Y241879*
Y243843D02*
X316050D01*
Y243139*
X322379*
Y243843*
X320682Y247544D02*
X320507Y247981D01*
X320506Y247984*
X320421Y248241*
X320167Y248495*
X319649Y248754*
X316804*
X316781Y248759*
X316607Y248846*
X316050Y249005*
Y248301*
X316645Y248046*
X316664Y247969*
X316310Y247526*
X316137Y247180*
X315961Y246302*
X316048Y245694*
X316306Y245178*
X316732Y244923*
X317247Y244837*
X317852Y245010*
X318282Y245354*
X318539Y245869*
Y246125*
X318540Y246135*
X318629Y246579*
X318718Y247381*
X318720Y247391*
X318899Y247927*
X318946Y247961*
X319125*
X319137Y247959*
X319494Y247870*
X319498Y247869*
X319766Y247780*
X319795Y247755*
X319795D02*
X319973Y247397D01*
X319978Y247383*
X320067Y246848*
X320068Y246839*
X320067Y246829*
X319978Y246383*
X319977Y246381*
X319888Y246024*
X319867Y245994*
X319599Y245816*
X319594Y245812*
X319268Y245649*
X319346Y244946*
X319729Y245099*
X320078Y245273*
X320332Y245528*
X320505Y245960*
X320682Y247022*
Y247544*
X318280Y247895D02*
X318103Y247364D01*
X318014Y246655*
X318013Y246649*
X317924Y246291*
X317922Y246288*
X317833Y246020*
X317830Y246013*
X317652Y245656*
X317619Y245630*
X317262Y245541*
X317234Y245542*
X316966Y245631*
X316947Y245643*
X316768Y245822*
X316762Y245829*
X316583Y246097*
X316575Y246125*
Y246929*
X316580Y246951*
X316759Y247308*
X316762Y247313*
X316941Y247581*
X316952Y247594*
X317309Y247861*
X317323Y247869*
X317591Y247958*
X317607Y247961*
X318232*
X318280Y247895*
X322379Y255271D02*
X316050D01*
Y254568*
X321000*
X321040Y254488*
X320507Y253777*
X320099Y252961*
X320792*
X321135Y253561*
X321137Y253563*
X321494Y254099*
X321500Y254107*
X321947Y254553*
X321956Y254561*
X322379Y254814*
Y255271*
X316754Y250986D02*
X316050D01*
Y250282*
X316754*
Y250986*
X322289Y263575D02*
X321586D01*
Y261214*
X321544Y261165*
X319847Y260897*
X319798Y260974*
X320149Y261500*
X320235Y262105*
X320061Y262800*
X319625Y263411*
X319017Y263845*
X318232Y263932*
X317355Y263844*
X316745Y263496*
X316395Y263146*
X316136Y262801*
X316136D02*
X316049Y262366D01*
X315961Y261838*
X316048Y261141*
X316395Y260534*
X317003Y260100*
X317653Y259937*
X317732Y260644*
X317234Y260810*
X317228Y260812*
X316870Y260991*
X316870D02*
X316848Y261013D01*
X316670Y261370*
X316670D02*
X316665Y261383D01*
X316576Y261829*
X316575Y261839*
X316576Y261846*
X316576D02*
X316665Y262471D01*
X316679Y262500*
X317036Y262857*
X317046Y262864*
X317492Y263132*
X317511Y263139*
X318136Y263228*
X318150*
X318775Y263139*
X318794Y263132*
X319240Y262864*
X319254Y262851*
X319522Y262494*
X319532Y262471*
X319621Y261846*
Y261839*
X319620Y261826*
X319441Y261201*
X319428Y261179*
X318999Y260749*
X319079Y260023*
X322289Y260631*
Y263575*
X316754Y258486D02*
X316050D01*
Y257782*
X316754*
Y258486*
X313939Y152508D02*
X312566D01*
Y152468*
X312586*
X312602Y152465*
X312812Y152395*
X312841Y152370*
X312911Y152229*
X312916Y152197*
X312846Y151846*
X312842Y151835*
X312070Y150151*
X311978Y150153*
X311276Y151908*
X311274Y151917*
X311204Y152267*
X311203Y152277*
Y152347*
X311230Y152392*
X311371Y152462*
X311393Y152468*
X311554*
Y152508*
X310671*
Y152457*
X310914Y152396*
X310945Y152373*
X311155Y152022*
X311159Y152015*
X312199Y149380*
X312272*
X313382Y152016*
X313386Y152024*
X313527Y152235*
X313541Y152249*
X313751Y152389*
X313763Y152395*
X313939Y152454*
Y152508*
X310290Y149490D02*
X310130D01*
X310107Y149496*
X309967Y149566*
X309945Y149588*
X309804Y149869*
X309799Y149891*
Y151996*
X309804Y152019*
X309875Y152159*
X309897Y152182*
X310037Y152252*
X310075Y152254*
X310245Y152198*
X310271Y152250*
X309419Y152578*
X309338*
Y149891*
X309332Y149869*
X309262Y149729*
X309253Y149716*
X309042Y149505*
X309007Y149490*
X308846*
Y149450*
X310290*
Y149490*
X309932Y153895D02*
X309812Y154135D01*
X309572Y154255*
X309397Y154138*
X309275Y153895*
X309394Y153717*
X309572Y153598*
X309815Y153719*
X309932Y153895*
X308466Y149490D02*
X308235D01*
X308200Y149505*
X308059Y149645*
X308050Y149658*
X307980Y149799*
X307975Y149821*
Y151996*
X307980Y152019*
X308050Y152159*
X308072Y152182*
X308213Y152252*
X308251Y152254*
X308420Y152198*
X308446Y152250*
X307594Y152578*
X307513*
Y151926*
X307424Y151895*
X307147Y152241*
X306880Y152442*
X306609Y152509*
X306605Y152510*
X306409Y152576*
X305945Y152443*
X305820Y152318*
X305686Y152049*
X305618Y151780*
Y149891*
X305616Y149875*
X305546Y149665*
X305521Y149636*
X305388Y149569*
X305323Y149505*
X305288Y149490*
X305127*
Y149450*
X306571*
Y149490*
X306551*
X306539Y149492*
X306258Y149562*
X306229Y149583*
X306088Y149793*
X306080Y149821*
Y151786*
X306088Y151814*
X306229Y152024*
X306235Y152032*
X306375Y152172*
X306395Y152184*
X306605Y152254*
X306637*
X307058Y152114*
X307070Y152108*
X307491Y151828*
X307513Y151786*
Y149821*
X307499Y149786*
X307434Y149721*
X307368Y149588*
X307345Y149566*
X307205Y149496*
X307182Y149490*
X307022*
Y149450*
X308466*
Y149490*
X303132Y154052D02*
X301338D01*
Y154011*
X301428*
X301440Y154010*
X301721Y153940*
X301750Y153919*
X301891Y153708*
X301894Y153703*
X301964Y153563*
X301969Y153540*
Y151786*
X301955Y151751*
X301969Y151716*
Y149961*
X301967Y149946*
X301897Y149735*
X301884Y149716*
X301744Y149575*
X301721Y149562*
X301440Y149492*
X301428Y149490*
X301338*
Y149450*
X303132*
Y149490*
X303042*
X303030Y149492*
X302749Y149562*
X302739Y149566*
X302599Y149636*
X302574Y149665*
X302503Y149875*
X302501Y149891*
Y153540*
X302503Y153556*
X302574Y153767*
X302576Y153773*
X302647Y153914*
X302681Y153940*
X303032Y154010*
X303042Y154011*
X303132*
Y154052*
X301884Y151751D02*
X301746Y151889D01*
X301397Y152168*
X301393Y152172*
X300270Y153294*
X300264Y153302*
X300123Y153513*
X300117Y153525*
X300047Y153735*
X300050Y153773*
X300120Y153914*
X300149Y153939*
X300360Y154009*
X300375Y154011*
X300466*
Y154052*
X298882*
Y154000*
X299124Y153940*
X299135Y153936*
X299415Y153796*
X299418Y153794*
X299909Y153514*
X299920Y153506*
X301393Y152032*
Y151960*
X299568Y150206*
X299565Y150204*
X299144Y149853*
X299142Y149851*
X298862Y149641*
X298844Y149632*
X298320Y149501*
Y149450*
X300325*
Y149501*
X300083Y149562*
X300050Y149588*
X299980Y149729*
X299975Y149751*
Y149891*
X299989Y149927*
X300270Y150207*
X300271Y150208*
X301884Y151751*
X298009Y150941D02*
X297872Y151629D01*
X297601Y152171*
X297129Y152441*
X296583Y152577*
X296115Y152510*
X295781Y152243*
X295511Y151838*
X295451Y151415*
X297568*
X297618Y151359*
X297548Y150728*
X297540Y150706*
X297259Y150285*
X297253Y150277*
X296902Y149926*
X296874Y149912*
X296383Y149842*
X296375Y149841*
X296095*
X296067Y149850*
X295856Y149990*
X295854Y149992*
X295574Y150202*
X295557Y150224*
X295487Y150398*
X295579Y150124*
X295850Y149717*
X296254Y149448*
X296657Y149380*
X297197Y149448*
X297602Y149785*
X297941Y150260*
X298009Y150941*
X297568Y151525D02*
X296095D01*
X296045Y151575*
Y151856*
X296050Y151878*
X296050D02*
X296120Y152019D01*
X296130Y152032*
X296410Y152313*
X296427Y152324*
X296778Y152464*
X296809Y152466*
X297089Y152396*
X297105Y152389*
X297315Y152249*
X297328Y152237*
X297538Y151956*
X297547Y151936*
X297617Y151585*
X297568Y151525*
X295062Y149490D02*
X294902D01*
X294866Y149505*
X294656Y149716*
X294647Y149729*
X294576Y149869*
X294571Y149891*
Y151996*
X294576Y152019*
X294647Y152159*
X294669Y152182*
X294809Y152252*
X294847Y152254*
X295017Y152198*
X295043Y152250*
X294191Y152578*
X294110*
Y151926*
X294024Y151891*
X293608Y152308*
X293269Y152511*
X292940Y152576*
X292746Y152512*
X292480Y152379*
X292349Y152182*
X292210Y151904*
X292126Y151895*
X291849Y152241*
X291581Y152442*
X291112Y152576*
X290647Y152443*
X290522Y152318*
X290388Y152049*
X290320Y151780*
Y149891*
X290318Y149875*
X290247Y149665*
X290222Y149636*
X290082Y149566*
X290072Y149562*
X289829Y149501*
Y149450*
X291273*
Y149490*
X291253*
X291241Y149492*
X290960Y149562*
X290937Y149575*
X290796Y149716*
X290782Y149751*
Y151786*
X290784Y151802*
X290854Y152012*
X290874Y152038*
X291085Y152178*
X291096Y152184*
X291307Y152254*
X291331Y152256*
X291752Y152186*
X291779Y152172*
X291917Y152034*
X292195Y151826*
X292215Y151786*
Y149821*
X292210Y149799*
X292139Y149658*
X292130Y149645*
X292060Y149575*
X292034Y149561*
X292034D02*
X291724Y149499D01*
Y149450*
X293168*
Y149490*
X293007*
X292985Y149496*
X292844Y149566*
X292831Y149575*
X292691Y149716*
X292676Y149751*
Y151786*
X292685Y151814*
X292825Y152024*
X292831Y152032*
X292972Y152172*
X292995Y152185*
X293276Y152256*
X293298*
X293648Y152186*
X293671Y152175*
X294092Y151824*
X294110Y151786*
Y149821*
X294104Y149799*
X294034Y149658*
X294025Y149645*
X293955Y149575*
X293942Y149566*
X293801Y149496*
X293779Y149490*
X293618*
Y149450*
X295062*
Y149490*
X289659Y148017D02*
X289639D01*
X289629Y148018*
X289278Y148088*
X289265Y148092*
X289125Y148162*
X289097Y148207*
Y151996*
X289103Y152019*
X289173Y152159*
X289202Y152184*
X289412Y152254*
X289450Y152252*
X289546Y152204*
X289569Y152250*
X288717Y152578*
X288636*
Y151856*
X288547Y151825*
X288266Y152176*
X288265Y152177*
X288065Y152444*
X287802Y152509*
X287798Y152510*
X287599Y152577*
X287204Y152511*
X286869Y152243*
X286529Y151699*
X286461Y151086*
X286598Y150400*
X286941Y149783*
X287344Y149447*
X287814Y149380*
X288286Y149448*
X288556Y149651*
X288636Y149611*
Y148347*
X288631Y148325*
X288561Y148185*
X288551Y148172*
X288481Y148101*
X288468Y148092*
X288328Y148022*
X288305Y148017*
X288145*
Y147976*
X289659*
Y148017*
X288636Y151716D02*
Y150032D01*
X288628Y150004*
X288487Y149793*
X288481Y149786*
X288341Y149645*
X288333Y149639*
X288122Y149499*
X288095Y149490*
X287814*
X287802Y149492*
X287521Y149562*
X287503Y149571*
X287223Y149781*
X287208Y149799*
X286997Y150220*
X286992Y150236*
X286922Y150797*
Y150810*
X286992Y151371*
X286999Y151390*
X287279Y151881*
X287287Y151891*
X287498Y152102*
X287521Y152115*
X287802Y152185*
X287824Y152186*
X288175Y152116*
X288200Y152102*
X288338Y151964*
X288616Y151756*
X288636Y151716*
X285939Y150941D02*
X285801Y151629D01*
X285530Y152171*
X285058Y152441*
X284513Y152577*
X284045Y152510*
X283711Y152243*
X283441Y151838*
X283380Y151415*
X285498*
X285548Y151359*
X285478Y150728*
X285470Y150706*
X285189Y150285*
X285183Y150277*
X284832Y149926*
X284804Y149912*
X284312Y149842*
X284305Y149841*
X284025*
X283997Y149850*
X283786Y149990*
X283784Y149992*
X283503Y150202*
X283487Y150224*
X283417Y150398*
X283508Y150124*
X283780Y149717*
X284184Y149448*
X284587Y149380*
X285127Y149448*
X285531Y149785*
X285871Y150260*
X285939Y150941*
X285498Y151525D02*
X284025D01*
X283975Y151575*
Y151856*
X283980Y151878*
X283980D02*
X284050Y152019D01*
X284059Y152032*
X284340Y152313*
X284357Y152324*
X284708Y152464*
X284738Y152466*
X285019Y152396*
X285035Y152389*
X285245Y152249*
X285258Y152237*
X285468Y151956*
X285477Y151936*
X285547Y151585*
X285498Y151525*
X282992Y152243D02*
X282121Y152578D01*
X282039*
Y151856*
X281947Y151830*
X281737Y152180*
X281603Y152381*
X281406Y152513*
X281221Y152574*
X280974Y152450*
X280849Y152201*
X280909Y151965*
X281085Y151906*
X281127*
X281252Y152032*
X281265Y152041*
X281546Y152182*
X281604Y152172*
X281884Y151891*
X281894Y151878*
X281894D02*
X282034Y151598D01*
X282039Y151575*
Y149891*
X282034Y149869*
X281964Y149729*
X281955Y149716*
X281814Y149575*
X281789Y149561*
X281789D02*
X281478Y149499D01*
Y149450*
X282992*
Y149499*
X282681Y149561*
X282681D02*
X282656Y149575D01*
X282516Y149716*
X282501Y149751*
Y151996*
X282506Y152019*
X282576Y152159*
X282599Y152182*
X282739Y152252*
X282774Y152256*
X282992Y152201*
Y152243*
X280900Y151999D02*
Y152302D01*
X281000Y151935D02*
Y152463D01*
X281100Y151906D02*
Y152513D01*
X281200Y151979D02*
Y152563D01*
X281300Y152059D02*
Y152548D01*
X281400Y152109D02*
Y152515D01*
X281500Y149450D02*
Y149504D01*
Y152159D02*
Y152450D01*
X281600Y149450D02*
Y149524D01*
Y152176D02*
Y152383D01*
X281700Y149450D02*
Y149544D01*
Y152076D02*
Y152235D01*
X281800Y149450D02*
Y149565D01*
Y151976D02*
Y152075D01*
X281900Y149450D02*
Y149661D01*
Y151866D02*
Y151908D01*
X282000Y149450D02*
Y149800D01*
Y151666D02*
Y151807D01*
X282100Y149450D02*
Y152578D01*
X282200Y149450D02*
Y152548D01*
X282300Y149450D02*
Y152509D01*
X282400Y149450D02*
Y152471D01*
X282500Y149450D02*
Y152432D01*
X282600Y149450D02*
Y149631D01*
Y152182D02*
Y152394D01*
X282700Y149450D02*
Y149558D01*
Y152232D02*
Y152355D01*
X282800Y149450D02*
Y149538D01*
Y152249D02*
Y152317D01*
X282900Y149450D02*
Y149518D01*
Y152224D02*
Y152278D01*
X283400Y151415D02*
Y151552D01*
X283500Y150149D02*
Y150205D01*
Y151415D02*
Y151927D01*
X283600Y149987D02*
Y150130D01*
Y151415D02*
Y152077D01*
X283700Y149837D02*
Y150055D01*
Y151415D02*
Y152227D01*
X283800Y149703D02*
Y149981D01*
Y151415D02*
Y152314D01*
X283900Y149637D02*
Y149914D01*
Y151415D02*
Y152394D01*
X284000Y149570D02*
Y149848D01*
Y151415D02*
Y151532D01*
Y151919D02*
Y152474D01*
X284100Y149503D02*
Y149841D01*
Y151415D02*
Y151525D01*
Y152072D02*
Y152518D01*
X284200Y149445D02*
Y149841D01*
Y151415D02*
Y151525D01*
Y152172D02*
Y152532D01*
X284300Y149428D02*
Y149841D01*
Y151415D02*
Y151525D01*
Y152272D02*
Y152547D01*
X284400Y149412D02*
Y149854D01*
Y151415D02*
Y151525D01*
Y152341D02*
Y152561D01*
X284500Y149395D02*
Y149869D01*
Y151415D02*
Y151525D01*
Y152381D02*
Y152575D01*
X284600Y149382D02*
Y149883D01*
Y151415D02*
Y151525D01*
Y152421D02*
Y152555D01*
X284700Y149394D02*
Y149897D01*
Y151415D02*
Y151525D01*
Y152461D02*
Y152530D01*
X284800Y149407D02*
Y149911D01*
Y151415D02*
Y151525D01*
Y152451D02*
Y152505D01*
X284900Y149419D02*
Y149994D01*
Y151415D02*
Y151525D01*
Y152426D02*
Y152480D01*
X285000Y149432D02*
Y150094D01*
Y151415D02*
Y151525D01*
Y152401D02*
Y152455D01*
X285100Y149444D02*
Y150194D01*
Y151415D02*
Y151525D01*
Y152345D02*
Y152417D01*
X285200Y149509D02*
Y150301D01*
Y151415D02*
Y151525D01*
Y152279D02*
Y152360D01*
X285300Y149592D02*
Y150451D01*
Y151415D02*
Y151525D01*
Y152180D02*
Y152303D01*
X285400Y149676D02*
Y150601D01*
Y151415D02*
Y151525D01*
Y152047D02*
Y152246D01*
X285500Y149759D02*
Y150928D01*
Y151415D02*
Y151525D01*
Y151822D02*
Y152189D01*
X285600Y149881D02*
Y152032D01*
X285700Y150021D02*
Y151832D01*
X285800Y150161D02*
Y151632D01*
X285900Y150552D02*
Y151136D01*
X286500Y150892D02*
Y151437D01*
X286600Y150397D02*
Y151812D01*
X286700Y150217D02*
Y151972D01*
X286800Y150037D02*
Y152132D01*
X286900Y149857D02*
Y152268D01*
X287000Y149734D02*
Y150215D01*
Y151392D02*
Y152348D01*
X287100Y149651D02*
Y150015D01*
Y151567D02*
Y152428D01*
X287200Y149567D02*
Y149815D01*
Y151742D02*
Y152508D01*
X287300Y149484D02*
Y149723D01*
Y151904D02*
Y152527D01*
X287400Y149439D02*
Y149648D01*
Y152004D02*
Y152543D01*
X287500Y149425D02*
Y149573D01*
Y152104D02*
Y152560D01*
X287600Y149411D02*
Y149542D01*
Y152135D02*
Y152577D01*
X287700Y149397D02*
Y149517D01*
Y152160D02*
Y152543D01*
X287800Y149382D02*
Y149492D01*
Y152185D02*
Y152510D01*
X287900Y149393D02*
Y149490D01*
Y152171D02*
Y152485D01*
X288000Y149407D02*
Y149490D01*
Y152151D02*
Y152460D01*
X288100Y149421D02*
Y149491D01*
Y152131D02*
Y152397D01*
X288200Y147976D02*
Y148017D01*
Y149435D02*
Y149550D01*
Y152102D02*
Y152264D01*
X288300Y147976D02*
Y148017D01*
Y149459D02*
Y149617D01*
Y152002D02*
Y152134D01*
X288400Y147976D02*
Y148058D01*
Y149534D02*
Y149705D01*
Y151918D02*
Y152009D01*
X288500Y147976D02*
Y148121D01*
Y149609D02*
Y149812D01*
Y151843D02*
Y151884D01*
X288600Y147976D02*
Y148264D01*
Y149659D02*
Y149962D01*
Y151768D02*
Y151808D01*
X288700Y147976D02*
Y152578D01*
X288800Y147976D02*
Y152546D01*
X288900Y147976D02*
Y152508D01*
X289000Y147976D02*
Y152469D01*
X289100Y147976D02*
Y148191D01*
Y152012D02*
Y152431D01*
X289200Y147976D02*
Y148125D01*
Y152184D02*
Y152392D01*
X289300Y147976D02*
Y148083D01*
Y152217D02*
Y152354D01*
X289400Y147976D02*
Y148063D01*
Y152250D02*
Y152315D01*
X289500Y147976D02*
Y148043D01*
Y152227D02*
Y152277D01*
X289600Y147976D02*
Y148023D01*
X289900Y149450D02*
Y149519D01*
X290000Y149450D02*
Y149544D01*
X290100Y149450D02*
Y149575D01*
X290200Y149450D02*
Y149625D01*
X290300Y149450D02*
Y149823D01*
X290400Y149450D02*
Y152074D01*
X290500Y149450D02*
Y152274D01*
X290600Y149450D02*
Y152396D01*
X290700Y149450D02*
Y152458D01*
X290800Y149450D02*
Y149712D01*
Y151849D02*
Y152487D01*
X290900Y149450D02*
Y149612D01*
Y152055D02*
Y152515D01*
X291000Y149450D02*
Y149552D01*
Y152122D02*
Y152544D01*
X291100Y149450D02*
Y149527D01*
Y152185D02*
Y152573D01*
X291200Y149450D02*
Y149502D01*
Y152219D02*
Y152551D01*
X291300Y152252D02*
Y152522D01*
X291400Y152245D02*
Y152494D01*
X291500Y152228D02*
Y152465D01*
X291600Y152212D02*
Y152428D01*
X291700Y152195D02*
Y152353D01*
X291800Y149450D02*
Y149515D01*
Y152151D02*
Y152278D01*
X291900Y149450D02*
Y149535D01*
Y152051D02*
Y152177D01*
X292000Y149450D02*
Y149555D01*
Y151972D02*
Y152052D01*
X292100Y149450D02*
Y149615D01*
Y151897D02*
Y151927D01*
X292200Y149450D02*
Y149779D01*
Y151822D02*
Y151891D01*
X292300Y149450D02*
Y152085D01*
X292400Y149450D02*
Y152259D01*
X292500Y149450D02*
Y152389D01*
X292600Y149450D02*
Y152439D01*
X292700Y149450D02*
Y149706D01*
Y151837D02*
Y152489D01*
X292800Y149450D02*
Y149606D01*
Y151987D02*
Y152530D01*
X292900Y149450D02*
Y149538D01*
Y152101D02*
Y152563D01*
X293000Y149450D02*
Y149491D01*
Y152187D02*
Y152564D01*
X293100Y149450D02*
Y149490D01*
Y152212D02*
Y152544D01*
X293200Y152237D02*
Y152524D01*
X293300Y152256D02*
Y152492D01*
X293400Y152236D02*
Y152432D01*
X293500Y152216D02*
Y152372D01*
X293600Y152196D02*
Y152312D01*
X293700Y149450D02*
Y149490D01*
Y152151D02*
Y152215D01*
X293800Y149450D02*
Y149495D01*
Y152067D02*
Y152115D01*
X293900Y149450D02*
Y149545D01*
Y151984D02*
Y152015D01*
X294000Y149450D02*
Y149621D01*
Y151901D02*
Y151915D01*
X294100Y149450D02*
Y149790D01*
Y151815D02*
Y151897D01*
X294200Y149450D02*
Y152575D01*
X294300Y149450D02*
Y152536D01*
X294400Y149450D02*
Y152498D01*
X294500Y149450D02*
Y152459D01*
X294600Y149450D02*
Y149822D01*
Y152066D02*
Y152421D01*
X294700Y149450D02*
Y149671D01*
Y152197D02*
Y152382D01*
X294800Y149450D02*
Y149571D01*
Y152247D02*
Y152344D01*
X294900Y149450D02*
Y149490D01*
Y152237D02*
Y152305D01*
X295000Y149450D02*
Y149490D01*
Y152204D02*
Y152267D01*
X295500Y150360D02*
Y150366D01*
Y151415D02*
Y151760D01*
X295600Y150092D02*
Y150182D01*
Y151415D02*
Y151971D01*
X295700Y149942D02*
Y150107D01*
Y151415D02*
Y152121D01*
X295800Y149792D02*
Y150032D01*
Y151415D02*
Y152258D01*
X295900Y149683D02*
Y149961D01*
Y151415D02*
Y152338D01*
X296000Y149617D02*
Y149894D01*
Y151415D02*
Y152418D01*
X296100Y149550D02*
Y149841D01*
Y151415D02*
Y151525D01*
Y151978D02*
Y152498D01*
X296200Y149483D02*
Y149841D01*
Y151415D02*
Y151525D01*
Y152102D02*
Y152522D01*
X296300Y149440D02*
Y149841D01*
Y151415D02*
Y151525D01*
Y152202D02*
Y152537D01*
X296400Y149423D02*
Y149844D01*
Y151415D02*
Y151525D01*
Y152302D02*
Y152551D01*
X296500Y149407D02*
Y149859D01*
Y151415D02*
Y151525D01*
Y152353D02*
Y152565D01*
X296600Y149390D02*
Y149873D01*
Y151415D02*
Y151525D01*
Y152393D02*
Y152573D01*
X296700Y149386D02*
Y149887D01*
Y151415D02*
Y151525D01*
Y152433D02*
Y152548D01*
X296800Y149398D02*
Y149901D01*
Y151415D02*
Y151525D01*
Y152467D02*
Y152523D01*
X296900Y149411D02*
Y149924D01*
Y151415D02*
Y151525D01*
Y152443D02*
Y152498D01*
X297000Y149423D02*
Y150024D01*
Y151415D02*
Y151525D01*
Y152418D02*
Y152473D01*
X297100Y149436D02*
Y150124D01*
Y151415D02*
Y151525D01*
Y152392D02*
Y152448D01*
X297200Y149450D02*
Y150224D01*
Y151415D02*
Y151525D01*
Y152326D02*
Y152400D01*
X297300Y149534D02*
Y150346D01*
Y151415D02*
Y151525D01*
Y152259D02*
Y152343D01*
X297400Y149617D02*
Y150496D01*
Y151415D02*
Y151525D01*
Y152141D02*
Y152286D01*
X297500Y149700D02*
Y150646D01*
Y151415D02*
Y151525D01*
Y152007D02*
Y152229D01*
X297600Y149784D02*
Y151196D01*
Y151404D02*
Y151537D01*
Y151672D02*
Y152171D01*
X297700Y149923D02*
Y151972D01*
X297800Y150063D02*
Y151772D01*
X297900Y150203D02*
Y151487D01*
X298000Y150850D02*
Y150987D01*
X298400Y149450D02*
Y149521D01*
X298500Y149450D02*
Y149546D01*
X298600Y149450D02*
Y149571D01*
X298700Y149450D02*
Y149596D01*
X298800Y149450D02*
Y149621D01*
X298900Y149450D02*
Y149670D01*
Y153996D02*
Y154052D01*
X299000Y149450D02*
Y149745D01*
Y153971D02*
Y154052D01*
X299100Y149450D02*
Y149820D01*
Y153946D02*
Y154052D01*
X299200Y149450D02*
Y149899D01*
Y153903D02*
Y154052D01*
X299300Y149450D02*
Y149983D01*
Y153853D02*
Y154052D01*
X299400Y149450D02*
Y150066D01*
Y153803D02*
Y154052D01*
X299500Y149450D02*
Y150149D01*
Y153747D02*
Y154052D01*
X299600Y149450D02*
Y150237D01*
Y153690D02*
Y154052D01*
X299700Y149450D02*
Y150333D01*
Y153633D02*
Y154052D01*
X299800Y149450D02*
Y150429D01*
Y153576D02*
Y154052D01*
X299900Y149450D02*
Y150525D01*
Y153519D02*
Y154052D01*
X300000Y149450D02*
Y149688D01*
Y149937D02*
Y150621D01*
Y153425D02*
Y154052D01*
X300100Y149450D02*
Y149558D01*
Y150037D02*
Y150718D01*
Y153325D02*
Y153577D01*
Y153873D02*
Y154052D01*
X300200Y149450D02*
Y149533D01*
Y150137D02*
Y150814D01*
Y153225D02*
Y153398D01*
Y153956D02*
Y154052D01*
X300300Y149450D02*
Y149508D01*
Y150236D02*
Y150910D01*
Y153125D02*
Y153264D01*
Y153989D02*
Y154052D01*
X300400Y150332D02*
Y151006D01*
Y153025D02*
Y153164D01*
Y154011D02*
Y154052D01*
X300500Y150427D02*
Y151102D01*
Y152925D02*
Y153064D01*
X300600Y150523D02*
Y151198D01*
Y152825D02*
Y152964D01*
X300700Y150619D02*
Y151295D01*
Y152725D02*
Y152864D01*
X300800Y150714D02*
Y151391D01*
Y152625D02*
Y152764D01*
X300900Y150810D02*
Y151487D01*
Y152525D02*
Y152664D01*
X301000Y150906D02*
Y151583D01*
Y152425D02*
Y152564D01*
X301100Y151001D02*
Y151679D01*
Y152325D02*
Y152464D01*
X301200Y151097D02*
Y151775D01*
Y152225D02*
Y152364D01*
X301300Y151193D02*
Y151871D01*
Y152125D02*
Y152264D01*
X301400Y149450D02*
Y149490D01*
Y151288D02*
Y151970D01*
Y152023D02*
Y152165D01*
Y154011D02*
Y154052D01*
X301500Y149450D02*
Y149507D01*
Y151384D02*
Y152085D01*
Y153995D02*
Y154052D01*
X301600Y149450D02*
Y149532D01*
Y151480D02*
Y152005D01*
Y153970D02*
Y154052D01*
X301700Y149450D02*
Y149557D01*
Y151575D02*
Y151925D01*
Y153945D02*
Y154052D01*
X301800Y149450D02*
Y149631D01*
Y151671D02*
Y151835D01*
Y153845D02*
Y154052D01*
X301900Y149450D02*
Y149745D01*
Y153691D02*
Y154052D01*
X302000Y149450D02*
Y154052D01*
X302100Y149450D02*
Y154052D01*
X302200Y149450D02*
Y154052D01*
X302300Y149450D02*
Y154052D01*
X302400Y149450D02*
Y154052D01*
X302500Y149450D02*
Y154052D01*
X302600Y149450D02*
Y149635D01*
Y153821D02*
Y154052D01*
X302700Y149450D02*
Y149585D01*
Y153944D02*
Y154052D01*
X302800Y149450D02*
Y149549D01*
Y153964D02*
Y154052D01*
X302900Y149450D02*
Y149524D01*
Y153984D02*
Y154052D01*
X303000Y149450D02*
Y149499D01*
Y154004D02*
Y154052D01*
X303100Y149450D02*
Y149490D01*
Y154011D02*
Y154052D01*
X305200Y149450D02*
Y149490D01*
X305300Y149450D02*
Y149492D01*
X305400Y149450D02*
Y149576D01*
X305500Y149450D02*
Y149626D01*
X305600Y149450D02*
Y149828D01*
X305700Y149450D02*
Y152078D01*
X305800Y149450D02*
Y152278D01*
X305900Y149450D02*
Y152398D01*
X306000Y149450D02*
Y152459D01*
X306100Y149450D02*
Y149776D01*
Y151831D02*
Y152487D01*
X306200Y149450D02*
Y149626D01*
Y151981D02*
Y152516D01*
X306300Y149450D02*
Y149552D01*
Y152097D02*
Y152544D01*
X306400Y149450D02*
Y149527D01*
Y152186D02*
Y152573D01*
X306500Y149450D02*
Y149502D01*
Y152219D02*
Y152546D01*
X306600Y152253D02*
Y152512D01*
X306700Y152233D02*
Y152487D01*
X306800Y152200D02*
Y152462D01*
X306900Y152167D02*
Y152427D01*
X307000Y152133D02*
Y152352D01*
X307100Y149450D02*
Y149490D01*
Y152088D02*
Y152277D01*
X307200Y149450D02*
Y149494D01*
Y152021D02*
Y152175D01*
X307300Y149450D02*
Y149543D01*
Y151955D02*
Y152050D01*
X307400Y149450D02*
Y149653D01*
Y151888D02*
Y151925D01*
X307500Y149450D02*
Y149787D01*
Y151820D02*
Y151893D01*
X307600Y149450D02*
Y152576D01*
X307700Y149450D02*
Y152537D01*
X307800Y149450D02*
Y152499D01*
X307900Y149450D02*
Y152460D01*
X308000Y149450D02*
Y149758D01*
Y152059D02*
Y152422D01*
X308100Y149450D02*
Y149605D01*
Y152195D02*
Y152384D01*
X308200Y149450D02*
Y149505D01*
Y152245D02*
Y152345D01*
X308300Y149450D02*
Y149490D01*
Y152238D02*
Y152307D01*
X308400Y149450D02*
Y149490D01*
Y152205D02*
Y152268D01*
X308900Y149450D02*
Y149490D01*
X309000Y149450D02*
Y149490D01*
X309100Y149450D02*
Y149563D01*
X309200Y149450D02*
Y149663D01*
X309300Y149450D02*
Y149804D01*
Y153858D02*
Y153944D01*
X309400Y149450D02*
Y152578D01*
Y153713D02*
Y154140D01*
X309500Y149450D02*
Y152547D01*
Y153646D02*
Y154207D01*
X309600Y149450D02*
Y152508D01*
Y153612D02*
Y154241D01*
X309700Y149450D02*
Y152470D01*
Y153662D02*
Y154191D01*
X309800Y149450D02*
Y149882D01*
Y152006D02*
Y152431D01*
Y153712D02*
Y154141D01*
X309900Y149450D02*
Y149678D01*
Y152183D02*
Y152393D01*
Y153847D02*
Y153958D01*
X310000Y149450D02*
Y149549D01*
Y152233D02*
Y152355D01*
X310100Y149450D02*
Y149499D01*
Y152246D02*
Y152316D01*
X310200Y149450D02*
Y149490D01*
Y152213D02*
Y152278D01*
X310700Y152449D02*
Y152508D01*
X310800Y152424D02*
Y152508D01*
X310900Y152399D02*
Y152508D01*
X311000Y152281D02*
Y152508D01*
X311100Y152114D02*
Y152508D01*
X311200Y151910D02*
Y152508D01*
X311300Y151657D02*
Y151849D01*
Y152427D02*
Y152508D01*
X311400Y151404D02*
Y151599D01*
Y152468D02*
Y152508D01*
X311500Y151150D02*
Y151349D01*
Y152468D02*
Y152508D01*
X311600Y150897D02*
Y151099D01*
X311700Y150644D02*
Y150849D01*
X311800Y150390D02*
Y150599D01*
X311900Y150137D02*
Y150349D01*
X312000Y149884D02*
Y150128D01*
X312100Y149630D02*
Y150217D01*
X312200Y149380D02*
Y150435D01*
X312300Y149446D02*
Y150653D01*
X312400Y149684D02*
Y150871D01*
X312500Y149921D02*
Y151089D01*
X312600Y150159D02*
Y151307D01*
Y152466D02*
Y152508D01*
X312700Y150396D02*
Y151526D01*
Y152432D02*
Y152508D01*
X312800Y150634D02*
Y151744D01*
Y152399D02*
Y152508D01*
X312900Y150871D02*
Y152119D01*
Y152252D02*
Y152508D01*
X313000Y151109D02*
Y152508D01*
X313100Y151346D02*
Y152508D01*
X313200Y151584D02*
Y152508D01*
X313300Y151821D02*
Y152508D01*
X313400Y152045D02*
Y152508D01*
X313500Y152195D02*
Y152508D01*
X313600Y152288D02*
Y152508D01*
X313700Y152355D02*
Y152508D01*
X313800Y152407D02*
Y152508D01*
X313900Y152440D02*
Y152508D01*
X314400Y150291D02*
Y150309D01*
Y151415D02*
Y151855D01*
X314500Y150058D02*
Y150165D01*
Y151415D02*
Y152005D01*
X314600Y149908D02*
Y150090D01*
Y151415D02*
Y152155D01*
X314700Y149758D02*
Y150015D01*
Y151415D02*
Y152276D01*
X314800Y149668D02*
Y149946D01*
Y151415D02*
Y152356D01*
X314900Y149602D02*
Y149879D01*
Y151415D02*
Y152436D01*
X315000Y149535D02*
Y149841D01*
Y151415D02*
Y151525D01*
Y152023D02*
Y152511D01*
X315100Y149468D02*
Y149841D01*
Y151415D02*
Y151525D01*
Y152125D02*
Y152526D01*
X315200Y149436D02*
Y149841D01*
Y151415D02*
Y151525D01*
Y152225D02*
Y152540D01*
X315300Y149419D02*
Y149847D01*
Y151415D02*
Y151525D01*
Y152322D02*
Y152554D01*
X315400Y149403D02*
Y149862D01*
Y151415D02*
Y151525D01*
Y152362D02*
Y152569D01*
X315500Y149386D02*
Y149876D01*
Y151415D02*
Y151525D01*
Y152402D02*
Y152567D01*
X315600Y149389D02*
Y149890D01*
Y151415D02*
Y151525D01*
Y152442D02*
Y152542D01*
X315700Y149401D02*
Y149905D01*
Y151415D02*
Y151525D01*
Y152463D02*
Y152517D01*
X315800Y149414D02*
Y149947D01*
Y151415D02*
Y151525D01*
Y152438D02*
Y152492D01*
X315900Y149426D02*
Y150047D01*
Y151415D02*
Y151525D01*
Y152413D02*
Y152467D01*
X316000Y149439D02*
Y150147D01*
Y151415D02*
Y151525D01*
Y152377D02*
Y152442D01*
Y227809D02*
Y228351D01*
Y232501D02*
Y233156D01*
Y237492D02*
Y237834D01*
Y246032D02*
Y246495D01*
Y261528D02*
Y262071D01*
X316100Y149469D02*
Y150247D01*
Y151415D02*
Y151525D01*
Y152310D02*
Y152387D01*
Y218586D02*
Y219289D01*
Y221354D02*
Y222057D01*
Y224121D02*
Y224825D01*
Y227309D02*
Y228910D01*
Y232081D02*
Y233356D01*
Y234032D02*
Y234736D01*
Y237092D02*
Y238283D01*
Y239121D02*
Y239825D01*
Y241175D02*
Y241879D01*
Y243139D02*
Y243843D01*
Y245590D02*
Y246995D01*
Y248279D02*
Y248991D01*
Y250282D02*
Y250986D01*
Y254568D02*
Y255271D01*
Y257782D02*
Y258486D01*
Y261051D02*
Y262620D01*
X316200Y149553D02*
Y150380D01*
Y151415D02*
Y151525D01*
Y152243D02*
Y152330D01*
Y218586D02*
Y219289D01*
Y221354D02*
Y222057D01*
Y224121D02*
Y224825D01*
Y227024D02*
Y229143D01*
Y231831D02*
Y233486D01*
Y234032D02*
Y234736D01*
Y236853D02*
Y238511D01*
Y239121D02*
Y239825D01*
Y241175D02*
Y241879D01*
Y243139D02*
Y243843D01*
Y245390D02*
Y247306D01*
Y248237D02*
Y248962D01*
Y250282D02*
Y250986D01*
Y254568D02*
Y255271D01*
Y257782D02*
Y258486D01*
Y260876D02*
Y262886D01*
X316300Y149636D02*
Y150530D01*
Y151415D02*
Y151525D01*
Y152110D02*
Y152273D01*
Y218586D02*
Y219289D01*
Y221354D02*
Y222057D01*
Y224121D02*
Y224825D01*
Y226864D02*
Y229377D01*
Y231678D02*
Y233586D01*
Y234032D02*
Y234736D01*
Y236703D02*
Y238644D01*
Y239121D02*
Y239825D01*
Y241175D02*
Y241879D01*
Y243139D02*
Y243843D01*
Y245190D02*
Y247506D01*
Y248194D02*
Y248934D01*
Y250282D02*
Y250986D01*
Y254568D02*
Y255271D01*
Y257782D02*
Y258486D01*
Y260701D02*
Y263019D01*
X316400Y149719D02*
Y150680D01*
Y151415D02*
Y151525D01*
Y151977D02*
Y152216D01*
Y218586D02*
Y219289D01*
Y221354D02*
Y222057D01*
Y224121D02*
Y224825D01*
Y226704D02*
Y229490D01*
Y231553D02*
Y233686D01*
Y234032D02*
Y234736D01*
Y236553D02*
Y238773D01*
Y239121D02*
Y239825D01*
Y241175D02*
Y241879D01*
Y243139D02*
Y243843D01*
Y245122D02*
Y247639D01*
Y248151D02*
Y248905D01*
Y250282D02*
Y250986D01*
Y254568D02*
Y255271D01*
Y257782D02*
Y258486D01*
Y260531D02*
Y263151D01*
X316500Y149815D02*
Y152127D01*
Y218586D02*
Y219289D01*
Y221354D02*
Y222057D01*
Y224121D02*
Y224825D01*
Y226544D02*
Y229590D01*
Y231428D02*
Y233786D01*
Y234032D02*
Y234736D01*
Y236430D02*
Y238848D01*
Y239121D02*
Y239825D01*
Y241175D02*
Y241879D01*
Y243139D02*
Y243843D01*
Y245062D02*
Y247764D01*
Y248108D02*
Y248877D01*
Y250282D02*
Y250986D01*
Y254568D02*
Y255271D01*
Y257782D02*
Y258486D01*
Y260459D02*
Y263251D01*
X316600Y149955D02*
Y151927D01*
Y218586D02*
Y219289D01*
Y221354D02*
Y222057D01*
Y224121D02*
Y224825D01*
Y226412D02*
Y227911D01*
Y228508D02*
Y229690D01*
Y231327D02*
Y232691D01*
Y232951D02*
Y233886D01*
Y234032D02*
Y234736D01*
Y236401D02*
Y237501D01*
Y238240D02*
Y238923D01*
Y239121D02*
Y239825D01*
Y241175D02*
Y241879D01*
Y243139D02*
Y243843D01*
Y245002D02*
Y246072D01*
Y246990D02*
Y247889D01*
Y248065D02*
Y248848D01*
Y250282D02*
Y250986D01*
Y254568D02*
Y255271D01*
Y257782D02*
Y258486D01*
Y260388D02*
Y261709D01*
Y262018D02*
Y263351D01*
X316700Y150095D02*
Y151727D01*
Y218586D02*
Y219289D01*
Y221354D02*
Y222057D01*
Y224121D02*
Y224825D01*
Y226349D02*
Y227391D01*
Y228708D02*
Y229790D01*
Y231277D02*
Y232313D01*
Y233332D02*
Y234736D01*
Y236372D02*
Y237351D01*
Y238440D02*
Y238998D01*
Y239121D02*
Y239825D01*
Y241175D02*
Y241879D01*
Y243139D02*
Y243843D01*
Y244942D02*
Y245922D01*
Y247190D02*
Y248799D01*
Y250282D02*
Y250986D01*
Y254568D02*
Y255271D01*
Y257782D02*
Y258486D01*
Y260317D02*
Y261310D01*
Y262521D02*
Y263451D01*
X316800Y150235D02*
Y151373D01*
Y218586D02*
Y219289D01*
Y221354D02*
Y222057D01*
Y224121D02*
Y224825D01*
Y226287D02*
Y227224D01*
Y228871D02*
Y229857D01*
Y231227D02*
Y232188D01*
Y233465D02*
Y234736D01*
Y236344D02*
Y237230D01*
Y238620D02*
Y239825D01*
Y241175D02*
Y241879D01*
Y243139D02*
Y243843D01*
Y244911D02*
Y245790D01*
Y247370D02*
Y248754D01*
Y254568D02*
Y255271D01*
Y260245D02*
Y261110D01*
Y262621D02*
Y263527D01*
X316900Y218586D02*
Y219289D01*
Y221354D02*
Y222057D01*
Y224121D02*
Y224825D01*
Y226224D02*
Y227058D01*
Y228971D02*
Y229900D01*
Y231177D02*
Y232063D01*
Y233599D02*
Y234736D01*
Y236315D02*
Y237170D01*
Y238770D02*
Y239825D01*
Y241175D02*
Y241879D01*
Y243139D02*
Y243843D01*
Y244895D02*
Y245690D01*
Y247520D02*
Y248754D01*
Y254568D02*
Y255271D01*
Y260174D02*
Y260976D01*
Y262721D02*
Y263584D01*
X317000Y218586D02*
Y219289D01*
Y221354D02*
Y222057D01*
Y224121D02*
Y224825D01*
Y226162D02*
Y226953D01*
Y229071D02*
Y229943D01*
Y231127D02*
Y231938D01*
Y233690D02*
Y234736D01*
Y236287D02*
Y237110D01*
Y238876D02*
Y239825D01*
Y241175D02*
Y241879D01*
Y243139D02*
Y243843D01*
Y244878D02*
Y245620D01*
Y247629D02*
Y248754D01*
Y254568D02*
Y255271D01*
Y260102D02*
Y260926D01*
Y262821D02*
Y263641D01*
X317100Y218586D02*
Y219289D01*
Y221354D02*
Y222057D01*
Y224121D02*
Y224825D01*
Y226099D02*
Y226903D01*
Y229155D02*
Y229986D01*
Y231079D02*
Y231858D01*
Y233740D02*
Y234736D01*
Y236257D02*
Y237050D01*
Y238942D02*
Y239825D01*
Y241175D02*
Y241879D01*
Y243139D02*
Y243843D01*
Y244861D02*
Y245587D01*
Y247704D02*
Y248754D01*
Y254568D02*
Y255271D01*
Y260076D02*
Y260876D01*
Y262897D02*
Y263699D01*
X317200Y149450D02*
Y149502D01*
Y218586D02*
Y219289D01*
Y221354D02*
Y222057D01*
Y224121D02*
Y224825D01*
Y226037D02*
Y226853D01*
Y229230D02*
Y230029D01*
Y231046D02*
Y231808D01*
Y233790D02*
Y234736D01*
Y236224D02*
Y236990D01*
Y239009D02*
Y239825D01*
Y241175D02*
Y241879D01*
Y243139D02*
Y243843D01*
Y244845D02*
Y245553D01*
Y247779D02*
Y248754D01*
Y254568D02*
Y255271D01*
Y260051D02*
Y260826D01*
Y262957D02*
Y263756D01*
X317300Y149450D02*
Y149527D01*
Y218586D02*
Y219289D01*
Y221354D02*
Y222057D01*
Y224121D02*
Y224825D01*
Y225989D02*
Y226803D01*
Y229305D02*
Y230044D01*
Y231012D02*
Y231758D01*
Y233840D02*
Y234736D01*
Y236191D02*
Y236954D01*
Y239043D02*
Y239825D01*
Y241175D02*
Y241879D01*
Y243139D02*
Y243843D01*
Y244852D02*
Y245550D01*
Y247854D02*
Y248754D01*
Y254568D02*
Y255271D01*
Y260026D02*
Y260788D01*
Y263017D02*
Y263813D01*
X317400Y149450D02*
Y149552D01*
Y218586D02*
Y219289D01*
Y221354D02*
Y222057D01*
Y224121D02*
Y224825D01*
Y225972D02*
Y226753D01*
Y230979D02*
Y231708D01*
Y233890D02*
Y234736D01*
Y236175D02*
Y236929D01*
Y239063D02*
Y239825D01*
Y241175D02*
Y241879D01*
Y243139D02*
Y243843D01*
Y244881D02*
Y245575D01*
Y247894D02*
Y248754D01*
Y254568D02*
Y255271D01*
Y260001D02*
Y260754D01*
Y263077D02*
Y263849D01*
X317500Y149450D02*
Y149577D01*
Y218586D02*
Y219289D01*
Y221354D02*
Y222057D01*
Y224121D02*
Y224825D01*
Y225955D02*
Y226703D01*
Y230946D02*
Y231658D01*
Y233940D02*
Y234736D01*
Y236175D02*
Y236904D01*
Y239083D02*
Y239825D01*
Y241175D02*
Y241879D01*
Y243139D02*
Y243843D01*
Y244909D02*
Y245600D01*
Y247928D02*
Y248754D01*
Y254568D02*
Y255271D01*
Y259976D02*
Y260721D01*
Y263136D02*
Y263859D01*
X317600Y149450D02*
Y149602D01*
Y218586D02*
Y219289D01*
Y221354D02*
Y222057D01*
Y224121D02*
Y224825D01*
Y225939D02*
Y226675D01*
Y230912D02*
Y231611D01*
Y233954D02*
Y234736D01*
Y236175D02*
Y236879D01*
Y239103D02*
Y239825D01*
Y241175D02*
Y241879D01*
Y243139D02*
Y243843D01*
Y244938D02*
Y245625D01*
Y247960D02*
Y248754D01*
Y254568D02*
Y255271D01*
Y259951D02*
Y260688D01*
Y263152D02*
Y263869D01*
X317700Y149450D02*
Y149627D01*
Y218586D02*
Y219289D01*
Y221354D02*
Y222057D01*
Y224121D02*
Y224825D01*
Y225922D02*
Y226646D01*
Y230896D02*
Y231599D01*
Y233966D02*
Y234736D01*
Y236175D02*
Y236879D01*
Y239121D02*
Y239825D01*
Y241175D02*
Y241879D01*
Y243139D02*
Y243843D01*
Y244966D02*
Y245752D01*
Y247961D02*
Y248754D01*
Y254568D02*
Y255271D01*
Y260360D02*
Y260654D01*
Y263166D02*
Y263879D01*
X317800Y149450D02*
Y149687D01*
Y153990D02*
Y154052D01*
Y218586D02*
Y219289D01*
Y221354D02*
Y222057D01*
Y224121D02*
Y224825D01*
Y225905D02*
Y226617D01*
Y230883D02*
Y231586D01*
Y233979D02*
Y234736D01*
Y236175D02*
Y236879D01*
Y239121D02*
Y239825D01*
Y241175D02*
Y241879D01*
Y243139D02*
Y243843D01*
Y244995D02*
Y245952D01*
Y247961D02*
Y248754D01*
Y254568D02*
Y255271D01*
Y263180D02*
Y263889D01*
X317900Y149450D02*
Y149762D01*
Y153965D02*
Y154052D01*
Y218586D02*
Y219289D01*
Y221354D02*
Y222057D01*
Y224121D02*
Y224825D01*
Y225889D02*
Y226589D01*
Y230871D02*
Y231574D01*
Y233991D02*
Y234736D01*
Y236175D02*
Y236879D01*
Y239121D02*
Y239825D01*
Y241175D02*
Y241879D01*
Y243139D02*
Y243843D01*
Y245048D02*
Y246220D01*
Y247961D02*
Y248754D01*
Y254568D02*
Y255271D01*
Y263194D02*
Y263899D01*
X318000Y149450D02*
Y149837D01*
Y153940D02*
Y154052D01*
Y218586D02*
Y219289D01*
Y221354D02*
Y222057D01*
Y224121D02*
Y224825D01*
Y225872D02*
Y226560D01*
Y230858D02*
Y231561D01*
Y234004D02*
Y234736D01*
Y236175D02*
Y236879D01*
Y239121D02*
Y239825D01*
Y241175D02*
Y241879D01*
Y243139D02*
Y243843D01*
Y245128D02*
Y246597D01*
Y247961D02*
Y248754D01*
Y254568D02*
Y255271D01*
Y263209D02*
Y263909D01*
X318100Y149450D02*
Y149918D01*
Y153892D02*
Y154052D01*
Y218586D02*
Y219289D01*
Y221354D02*
Y222057D01*
Y224121D02*
Y224825D01*
Y225855D02*
Y226532D01*
Y230846D02*
Y231549D01*
Y234016D02*
Y234736D01*
Y236175D02*
Y236879D01*
Y239121D02*
Y239825D01*
Y241175D02*
Y241879D01*
Y243139D02*
Y243843D01*
Y245208D02*
Y247343D01*
Y247961D02*
Y248754D01*
Y254568D02*
Y255271D01*
Y263223D02*
Y263919D01*
X318200Y149450D02*
Y150002D01*
Y153842D02*
Y154052D01*
Y218586D02*
Y219289D01*
Y221354D02*
Y222057D01*
Y224121D02*
Y224825D01*
Y225839D02*
Y230093D01*
Y230833D02*
Y231536D01*
Y234029D02*
Y234736D01*
Y236175D02*
Y236879D01*
Y239121D02*
Y239825D01*
Y241175D02*
Y241879D01*
Y243139D02*
Y243843D01*
Y245288D02*
Y247656D01*
Y247961D02*
Y248754D01*
Y254568D02*
Y255271D01*
Y263221D02*
Y263929D01*
X318300Y149450D02*
Y150085D01*
Y153791D02*
Y154052D01*
Y218586D02*
Y219289D01*
Y221354D02*
Y222057D01*
Y224121D02*
Y224825D01*
Y225822D02*
Y230093D01*
Y230821D02*
Y231524D01*
Y234025D02*
Y234736D01*
Y236175D02*
Y236879D01*
Y239121D02*
Y239825D01*
Y241175D02*
Y241879D01*
Y243139D02*
Y243843D01*
Y245390D02*
Y248754D01*
Y254568D02*
Y255271D01*
Y263207D02*
Y263924D01*
X318400Y149450D02*
Y150168D01*
Y153734D02*
Y154052D01*
Y218586D02*
Y219289D01*
Y221354D02*
Y222057D01*
Y224121D02*
Y224825D01*
Y225833D02*
Y230078D01*
Y230830D02*
Y231531D01*
Y234014D02*
Y234736D01*
Y236175D02*
Y236879D01*
Y239121D02*
Y239825D01*
Y241175D02*
Y241879D01*
Y243139D02*
Y243843D01*
Y245590D02*
Y248754D01*
Y254568D02*
Y255271D01*
Y263192D02*
Y263913D01*
X318500Y149450D02*
Y150259D01*
Y153677D02*
Y154052D01*
Y218586D02*
Y219289D01*
Y221354D02*
Y222057D01*
Y224121D02*
Y224825D01*
Y225851D02*
Y230060D01*
Y230844D02*
Y231543D01*
Y234003D02*
Y234736D01*
Y236175D02*
Y236879D01*
Y239121D02*
Y239825D01*
Y241175D02*
Y241879D01*
Y243139D02*
Y243843D01*
Y245790D02*
Y248754D01*
Y254568D02*
Y255271D01*
Y263178D02*
Y263902D01*
X318600Y149450D02*
Y150355D01*
Y153620D02*
Y154052D01*
Y218586D02*
Y219289D01*
Y221354D02*
Y222057D01*
Y224121D02*
Y224825D01*
Y225869D02*
Y230041D01*
Y230858D02*
Y231556D01*
Y233992D02*
Y234736D01*
Y236175D02*
Y236879D01*
Y239121D02*
Y239825D01*
Y241175D02*
Y241879D01*
Y243139D02*
Y243843D01*
Y246434D02*
Y248754D01*
Y254568D02*
Y255271D01*
Y263164D02*
Y263891D01*
X318700Y149450D02*
Y150451D01*
Y153563D02*
Y154052D01*
Y218586D02*
Y219289D01*
Y221354D02*
Y222060D01*
Y224121D02*
Y224825D01*
Y225888D02*
Y230023D01*
Y230872D02*
Y231568D01*
Y233980D02*
Y234736D01*
Y236175D02*
Y236879D01*
Y239121D02*
Y239825D01*
Y241175D02*
Y241879D01*
Y243139D02*
Y243843D01*
Y247217D02*
Y248754D01*
Y254568D02*
Y255271D01*
Y263149D02*
Y263880D01*
X318800Y149450D02*
Y150547D01*
Y153502D02*
Y154052D01*
Y218586D02*
Y219289D01*
Y221354D02*
Y222074D01*
Y224121D02*
Y224825D01*
Y225906D02*
Y230005D01*
Y230887D02*
Y231581D01*
Y233969D02*
Y234736D01*
Y236175D02*
Y236879D01*
Y239121D02*
Y239825D01*
Y241175D02*
Y241879D01*
Y243139D02*
Y243843D01*
Y247630D02*
Y248754D01*
Y254568D02*
Y255271D01*
Y263128D02*
Y263869D01*
X318900Y149450D02*
Y149643D01*
Y149960D02*
Y150643D01*
Y153402D02*
Y154052D01*
Y218586D02*
Y219289D01*
Y221354D02*
Y222088D01*
Y224121D02*
Y224825D01*
Y225924D02*
Y226529D01*
Y229382D02*
Y229987D01*
Y230901D02*
Y231593D01*
Y233958D02*
Y234736D01*
Y236175D02*
Y236879D01*
Y239121D02*
Y239825D01*
Y241175D02*
Y241879D01*
Y243139D02*
Y243843D01*
Y247929D02*
Y248754D01*
Y254568D02*
Y255271D01*
Y263068D02*
Y263858D01*
X319000Y149450D02*
Y149552D01*
Y150060D02*
Y150740D01*
Y153302D02*
Y153513D01*
Y153918D02*
Y154052D01*
Y218586D02*
Y219301D01*
Y221354D02*
Y222103D01*
Y224121D02*
Y224825D01*
Y225942D02*
Y226549D01*
Y229362D02*
Y229969D01*
Y230924D02*
Y231606D01*
Y233947D02*
Y234736D01*
Y236175D02*
Y236879D01*
Y239121D02*
Y239825D01*
Y241175D02*
Y241879D01*
Y243139D02*
Y243843D01*
Y247961D02*
Y248754D01*
Y254568D02*
Y255271D01*
Y260738D02*
Y260751D01*
Y263008D02*
Y263847D01*
X319100Y149450D02*
Y149527D01*
Y150160D02*
Y150836D01*
Y153202D02*
Y153363D01*
Y153963D02*
Y154052D01*
Y218586D02*
Y219326D01*
Y221354D02*
Y222117D01*
Y224121D02*
Y224825D01*
Y225960D02*
Y226569D01*
Y229342D02*
Y229950D01*
Y230953D02*
Y231637D01*
Y233917D02*
Y234736D01*
Y236175D02*
Y236879D01*
Y239121D02*
Y239825D01*
Y241175D02*
Y241879D01*
Y243139D02*
Y243843D01*
Y247961D02*
Y248754D01*
Y254568D02*
Y255271D01*
Y260027D02*
Y260851D01*
Y262948D02*
Y263785D01*
X319200Y149450D02*
Y149502D01*
Y150258D02*
Y150932D01*
Y153102D02*
Y153242D01*
Y153997D02*
Y154052D01*
Y218586D02*
Y219351D01*
Y221354D02*
Y222131D01*
Y224121D02*
Y224825D01*
Y225978D02*
Y226589D01*
Y229322D02*
Y229932D01*
Y230982D02*
Y231687D01*
Y233867D02*
Y234736D01*
Y236175D02*
Y236879D01*
Y239121D02*
Y239825D01*
Y241175D02*
Y241879D01*
Y243139D02*
Y243843D01*
Y247944D02*
Y248754D01*
Y254568D02*
Y255271D01*
Y260046D02*
Y260951D01*
Y262888D02*
Y263714D01*
X319300Y150354D02*
Y151028D01*
Y153002D02*
Y153142D01*
Y154011D02*
Y154052D01*
Y218586D02*
Y219376D01*
Y221354D02*
Y222145D01*
Y224121D02*
Y224812D01*
Y226002D02*
Y226609D01*
Y229302D02*
Y229909D01*
Y231010D02*
Y231737D01*
Y233817D02*
Y234736D01*
Y236175D02*
Y236879D01*
Y239121D02*
Y239825D01*
Y241175D02*
Y241879D01*
Y243139D02*
Y243843D01*
Y245360D02*
Y245666D01*
Y247919D02*
Y248754D01*
Y254568D02*
Y255271D01*
Y260065D02*
Y261051D01*
Y262790D02*
Y263643D01*
X319400Y150449D02*
Y151124D01*
Y152902D02*
Y153042D01*
Y218586D02*
Y219444D01*
Y221353D02*
Y222206D01*
Y224092D02*
Y224798D01*
Y226057D02*
Y226686D01*
Y229240D02*
Y229854D01*
Y231039D02*
Y231787D01*
Y233767D02*
Y234736D01*
Y236175D02*
Y236879D01*
Y239121D02*
Y239825D01*
Y241175D02*
Y241879D01*
Y243139D02*
Y243843D01*
Y244967D02*
Y245716D01*
Y247894D02*
Y248754D01*
Y254568D02*
Y255271D01*
Y260084D02*
Y261151D01*
Y262657D02*
Y263571D01*
X319500Y150545D02*
Y151220D01*
Y152802D02*
Y152942D01*
Y218586D02*
Y219527D01*
Y221306D02*
Y222281D01*
Y224059D02*
Y224784D01*
Y226113D02*
Y226786D01*
Y229165D02*
Y229798D01*
Y231067D02*
Y231837D01*
Y233717D02*
Y234736D01*
Y236175D02*
Y236879D01*
Y239121D02*
Y239825D01*
Y241175D02*
Y241879D01*
Y243139D02*
Y243843D01*
Y245007D02*
Y245766D01*
Y247868D02*
Y248754D01*
Y254568D02*
Y255271D01*
Y260103D02*
Y261407D01*
Y262524D02*
Y263500D01*
X319600Y150641D02*
Y151316D01*
Y152702D02*
Y152842D01*
Y218586D02*
Y219611D01*
Y221256D02*
Y222356D01*
Y224023D02*
Y224769D01*
Y226168D02*
Y226886D01*
Y229090D02*
Y229742D01*
Y231111D02*
Y231888D01*
Y233666D02*
Y234736D01*
Y236175D02*
Y236879D01*
Y239121D02*
Y239825D01*
Y241175D02*
Y241879D01*
Y243139D02*
Y243843D01*
Y245047D02*
Y245816D01*
Y247835D02*
Y248754D01*
Y254568D02*
Y255271D01*
Y260122D02*
Y261757D01*
Y261993D02*
Y263428D01*
X319700Y150736D02*
Y151413D01*
Y152602D02*
Y152742D01*
Y218586D02*
Y219694D01*
Y221206D02*
Y222433D01*
Y223948D02*
Y224755D01*
Y226224D02*
Y226987D01*
Y229013D02*
Y229687D01*
Y231171D02*
Y231986D01*
Y233567D02*
Y234736D01*
Y236175D02*
Y236879D01*
Y239121D02*
Y239825D01*
Y241175D02*
Y241879D01*
Y243139D02*
Y243843D01*
Y245087D02*
Y245883D01*
Y247802D02*
Y248728D01*
Y254568D02*
Y255271D01*
Y260141D02*
Y263305D01*
X319800Y150832D02*
Y151509D01*
Y152502D02*
Y152642D01*
Y218586D02*
Y219777D01*
Y221140D02*
Y221987D01*
Y222049D02*
Y222567D01*
Y223873D02*
Y224741D01*
Y226279D02*
Y227153D01*
Y228847D02*
Y229631D01*
Y231231D02*
Y232086D01*
Y233467D02*
Y234736D01*
Y236175D02*
Y236879D01*
Y239121D02*
Y239825D01*
Y241175D02*
Y241879D01*
Y243139D02*
Y243843D01*
Y245134D02*
Y245949D01*
Y247744D02*
Y248678D01*
Y254568D02*
Y255271D01*
Y260160D02*
Y260915D01*
Y260978D02*
Y263165D01*
X319900Y150927D02*
Y151605D01*
Y152402D02*
Y152542D01*
Y218586D02*
Y219298D01*
Y219381D02*
Y219905D01*
Y220990D02*
Y221932D01*
Y222113D02*
Y222700D01*
Y223798D02*
Y224699D01*
Y226335D02*
Y227319D01*
Y228681D02*
Y229576D01*
Y231291D02*
Y232186D01*
Y233367D02*
Y234736D01*
Y236175D02*
Y236879D01*
Y239121D02*
Y239825D01*
Y241175D02*
Y241879D01*
Y243139D02*
Y243843D01*
Y245184D02*
Y246072D01*
Y247544D02*
Y248628D01*
Y254568D02*
Y255271D01*
Y260179D02*
Y260905D01*
Y261128D02*
Y263025D01*
X320000Y151023D02*
Y151701D01*
Y152302D02*
Y152442D01*
Y218586D02*
Y219289D01*
Y219481D02*
Y220255D01*
Y220778D02*
Y221882D01*
Y222173D02*
Y222924D01*
Y223612D02*
Y224649D01*
Y226391D02*
Y227589D01*
Y228411D02*
Y229520D01*
Y231353D02*
Y232388D01*
Y233143D02*
Y233929D01*
Y234029D02*
Y234736D01*
Y236175D02*
Y236879D01*
Y239121D02*
Y239825D01*
Y241175D02*
Y241879D01*
Y243139D02*
Y243843D01*
Y245234D02*
Y246495D01*
Y247251D02*
Y248578D01*
Y254568D02*
Y255271D01*
Y260198D02*
Y260921D01*
Y261278D02*
Y262885D01*
X320100Y151119D02*
Y151797D01*
Y152202D02*
Y152342D01*
Y218586D02*
Y219289D01*
Y219581D02*
Y221832D01*
Y222233D02*
Y224599D01*
Y226476D02*
Y229442D01*
Y231433D02*
Y233829D01*
Y234032D02*
Y234736D01*
Y236175D02*
Y236879D01*
Y239121D02*
Y239825D01*
Y241175D02*
Y241879D01*
Y243139D02*
Y243843D01*
Y245296D02*
Y248528D01*
Y252961D02*
Y252963D01*
Y254568D02*
Y255271D01*
Y260217D02*
Y260937D01*
Y261428D02*
Y262644D01*
X320200Y151214D02*
Y151893D01*
Y152102D02*
Y152242D01*
Y218586D02*
Y219289D01*
Y219681D02*
Y221765D01*
Y222293D02*
Y224549D01*
Y226636D02*
Y229302D01*
Y231513D02*
Y233729D01*
Y234032D02*
Y234736D01*
Y236175D02*
Y236879D01*
Y239121D02*
Y239825D01*
Y241175D02*
Y241879D01*
Y243139D02*
Y243843D01*
Y245396D02*
Y248461D01*
Y252961D02*
Y253163D01*
Y254568D02*
Y255271D01*
Y260235D02*
Y260953D01*
Y261861D02*
Y262244D01*
X320300Y149450D02*
Y149490D01*
Y151310D02*
Y152147D01*
Y154011D02*
Y154052D01*
Y218586D02*
Y219289D01*
Y219781D02*
Y221665D01*
Y222388D02*
Y224499D01*
Y226796D02*
Y229162D01*
Y231593D02*
Y233629D01*
Y234032D02*
Y234736D01*
Y236175D02*
Y236879D01*
Y239121D02*
Y239825D01*
Y241175D02*
Y241879D01*
Y243139D02*
Y243843D01*
Y245496D02*
Y248361D01*
Y252961D02*
Y253363D01*
Y254568D02*
Y255271D01*
Y260254D02*
Y260969D01*
X320400Y149450D02*
Y149512D01*
Y151406D02*
Y152067D01*
Y153989D02*
Y154052D01*
Y218586D02*
Y219289D01*
Y219881D02*
Y221565D01*
Y222521D02*
Y224379D01*
Y226956D02*
Y229022D01*
Y231673D02*
Y233529D01*
Y234032D02*
Y234736D01*
Y236175D02*
Y236879D01*
Y239121D02*
Y239825D01*
Y241175D02*
Y241879D01*
Y243139D02*
Y243843D01*
Y245697D02*
Y248261D01*
Y252961D02*
Y253563D01*
Y254568D02*
Y255271D01*
Y260273D02*
Y260984D01*
X320500Y149450D02*
Y149537D01*
Y151501D02*
Y151987D01*
Y153964D02*
Y154052D01*
Y218586D02*
Y219289D01*
Y220099D02*
Y221348D01*
Y222655D02*
Y224212D01*
Y227116D02*
Y228882D01*
Y231926D02*
Y233429D01*
Y234032D02*
Y234736D01*
Y236175D02*
Y236879D01*
Y239121D02*
Y239825D01*
Y241175D02*
Y241879D01*
Y243139D02*
Y243843D01*
Y245947D02*
Y248003D01*
Y252961D02*
Y253763D01*
Y254568D02*
Y255271D01*
Y260292D02*
Y261000D01*
X320600Y149450D02*
Y149563D01*
Y151597D02*
Y151907D01*
Y153939D02*
Y154052D01*
Y220356D02*
Y221084D01*
Y223041D02*
Y224018D01*
Y227594D02*
Y228406D01*
Y232243D02*
Y233055D01*
Y234032D02*
Y234736D01*
Y241175D02*
Y241879D01*
Y243139D02*
Y243843D01*
Y246529D02*
Y247749D01*
Y252961D02*
Y253901D01*
Y254568D02*
Y255271D01*
Y260311D02*
Y261016D01*
X320700Y149450D02*
Y149654D01*
Y151693D02*
Y151812D01*
Y153810D02*
Y154052D01*
Y234032D02*
Y234736D01*
Y241175D02*
Y241879D01*
Y243139D02*
Y243843D01*
Y252961D02*
Y254035D01*
Y254568D02*
Y255271D01*
Y260330D02*
Y261032D01*
X320800Y149450D02*
Y149814D01*
Y153645D02*
Y154052D01*
Y234032D02*
Y234736D01*
Y241175D02*
Y241879D01*
Y243139D02*
Y243843D01*
Y252974D02*
Y254168D01*
Y254568D02*
Y255271D01*
Y260349D02*
Y261048D01*
X320900Y149450D02*
Y154052D01*
Y234032D02*
Y234736D01*
Y241175D02*
Y241879D01*
Y243139D02*
Y243843D01*
Y253149D02*
Y254301D01*
Y254568D02*
Y255271D01*
Y260368D02*
Y261063D01*
X321000Y149450D02*
Y154052D01*
Y234032D02*
Y234736D01*
Y241175D02*
Y241879D01*
Y243139D02*
Y243843D01*
Y253324D02*
Y254435D01*
Y254568D02*
Y255271D01*
Y260387D02*
Y261079D01*
X321100Y149450D02*
Y154052D01*
Y234032D02*
Y234736D01*
Y241175D02*
Y241879D01*
Y243139D02*
Y243843D01*
Y253499D02*
Y255271D01*
Y260406D02*
Y261095D01*
X321200Y149450D02*
Y154052D01*
Y234032D02*
Y234736D01*
Y241175D02*
Y241879D01*
Y243139D02*
Y243843D01*
Y253658D02*
Y255271D01*
Y260425D02*
Y261111D01*
X321300Y149450D02*
Y154052D01*
Y234032D02*
Y234736D01*
Y241175D02*
Y241879D01*
Y243139D02*
Y243843D01*
Y253808D02*
Y255271D01*
Y260444D02*
Y261126D01*
X321400Y149450D02*
Y149817D01*
Y153614D02*
Y154052D01*
Y234032D02*
Y234736D01*
Y241175D02*
Y241879D01*
Y243139D02*
Y243843D01*
Y253958D02*
Y255271D01*
Y260462D02*
Y261142D01*
X321500Y149450D02*
Y149624D01*
Y153866D02*
Y154052D01*
Y234032D02*
Y234736D01*
Y241175D02*
Y241879D01*
Y243139D02*
Y243843D01*
Y254106D02*
Y255271D01*
Y260481D02*
Y261158D01*
X321600Y149450D02*
Y149574D01*
Y153949D02*
Y154052D01*
Y234032D02*
Y234736D01*
Y241175D02*
Y241879D01*
Y243139D02*
Y243843D01*
Y254206D02*
Y255271D01*
Y260500D02*
Y263575D01*
X321700Y149450D02*
Y149544D01*
Y153969D02*
Y154052D01*
Y234032D02*
Y234736D01*
Y241175D02*
Y241879D01*
Y243139D02*
Y243843D01*
Y254306D02*
Y255271D01*
Y260519D02*
Y263575D01*
X321800Y149450D02*
Y149519D01*
Y153989D02*
Y154052D01*
Y234032D02*
Y234736D01*
Y241175D02*
Y241879D01*
Y243139D02*
Y243843D01*
Y254406D02*
Y255271D01*
Y260538D02*
Y263575D01*
X321900Y149450D02*
Y149494D01*
Y154009D02*
Y154052D01*
Y234032D02*
Y234736D01*
Y241175D02*
Y241879D01*
Y243139D02*
Y243843D01*
Y254506D02*
Y255271D01*
Y260557D02*
Y263575D01*
X322000Y149450D02*
Y149490D01*
Y154011D02*
Y154052D01*
Y234032D02*
Y234736D01*
Y241175D02*
Y241879D01*
Y243139D02*
Y243843D01*
Y254587D02*
Y255271D01*
Y260576D02*
Y263575D01*
X322100Y234032D02*
Y234736D01*
Y241175D02*
Y241879D01*
Y243139D02*
Y243843D01*
Y254647D02*
Y255271D01*
Y260595D02*
Y263575D01*
X322200Y234032D02*
Y234736D01*
Y241175D02*
Y241879D01*
Y243139D02*
Y243843D01*
Y254707D02*
Y255271D01*
Y260614D02*
Y263575D01*
X322300Y234032D02*
Y234736D01*
Y241175D02*
Y241879D01*
Y243139D02*
Y243843D01*
Y254767D02*
Y255271D01*
X324100Y218752D02*
Y227168D01*
Y235348D02*
Y239929D01*
Y245086D02*
Y250083D01*
Y251731D02*
Y263759D01*
X324200Y218752D02*
Y227518D01*
Y235348D02*
Y239929D01*
Y245029D02*
Y250030D01*
Y251731D02*
Y263759D01*
X324300Y218752D02*
Y227868D01*
Y235348D02*
Y239929D01*
Y244973D02*
Y249978D01*
Y251731D02*
Y263759D01*
X324400Y218752D02*
Y228218D01*
Y235348D02*
Y239929D01*
Y244916D02*
Y249926D01*
Y251731D02*
Y263759D01*
X324500Y218752D02*
Y228541D01*
Y235348D02*
Y239929D01*
Y244860D02*
Y249873D01*
Y251731D02*
Y263759D01*
X324600Y218752D02*
Y228791D01*
Y235348D02*
Y239929D01*
Y244803D02*
Y249821D01*
Y251731D02*
Y263759D01*
X324700Y218752D02*
Y229041D01*
Y235348D02*
Y239929D01*
Y244747D02*
Y249768D01*
Y251731D02*
Y263759D01*
X324800Y218752D02*
Y229291D01*
Y235348D02*
Y239929D01*
Y244690D02*
Y249716D01*
Y251731D02*
Y263759D01*
X324900Y218752D02*
Y229534D01*
Y235348D02*
Y239929D01*
Y244634D02*
Y249664D01*
Y251731D02*
Y263759D01*
X325000Y218752D02*
Y229659D01*
Y235348D02*
Y239929D01*
Y244577D02*
Y249611D01*
Y251731D02*
Y263759D01*
X325100Y218752D02*
Y229784D01*
Y235348D02*
Y239929D01*
Y244521D02*
Y249559D01*
Y251731D02*
Y263759D01*
X325200Y218752D02*
Y229909D01*
Y235348D02*
Y239929D01*
Y244464D02*
Y249506D01*
Y251731D02*
Y263759D01*
X325300Y218752D02*
Y230034D01*
Y235348D02*
Y239929D01*
Y244408D02*
Y249454D01*
Y251731D02*
Y263759D01*
X325400Y218752D02*
Y230159D01*
Y235348D02*
Y239929D01*
Y244351D02*
Y249402D01*
Y251731D02*
Y263759D01*
X325500Y218752D02*
Y230284D01*
Y235348D02*
Y239929D01*
Y244295D02*
Y249349D01*
Y251731D02*
Y263759D01*
X325600Y218752D02*
Y230409D01*
Y235348D02*
Y239929D01*
Y244238D02*
Y249297D01*
Y251731D02*
Y263759D01*
X325700Y218752D02*
Y230534D01*
Y235348D02*
Y239929D01*
Y244182D02*
Y249245D01*
Y251731D02*
Y263759D01*
X325800Y218752D02*
Y230644D01*
Y235348D02*
Y239929D01*
Y244125D02*
Y249192D01*
Y251731D02*
Y263759D01*
X325900Y218752D02*
Y230744D01*
Y235348D02*
Y239929D01*
Y244069D02*
Y249140D01*
Y251731D02*
Y263759D01*
X326000Y218752D02*
Y230844D01*
Y235348D02*
Y239929D01*
Y244012D02*
Y249087D01*
Y251731D02*
Y263759D01*
X326100Y218752D02*
Y230944D01*
Y235348D02*
Y239929D01*
Y243956D02*
Y249035D01*
Y251731D02*
Y263759D01*
X326200Y218752D02*
Y231044D01*
Y235348D02*
Y239929D01*
Y243899D02*
Y248983D01*
Y251731D02*
Y263759D01*
X326300Y218752D02*
Y231144D01*
Y235348D02*
Y239929D01*
Y243843D02*
Y248930D01*
Y251731D02*
Y263759D01*
X326400Y218752D02*
Y231244D01*
Y235348D02*
Y239929D01*
Y243786D02*
Y248878D01*
Y251731D02*
Y263759D01*
X326500Y218752D02*
Y231344D01*
Y235348D02*
Y239929D01*
Y243729D02*
Y248826D01*
Y251731D02*
Y263759D01*
X326600Y218752D02*
Y231436D01*
Y235348D02*
Y239929D01*
Y243673D02*
Y248773D01*
Y251731D02*
Y263759D01*
X326700Y218752D02*
Y231486D01*
Y235348D02*
Y239929D01*
Y243616D02*
Y248721D01*
Y251731D02*
Y263759D01*
X326800Y218752D02*
Y231536D01*
Y235348D02*
Y239929D01*
Y243560D02*
Y248668D01*
Y251731D02*
Y263759D01*
X326900Y218752D02*
Y231586D01*
Y235348D02*
Y239929D01*
Y243503D02*
Y248616D01*
Y251731D02*
Y263759D01*
X327000Y218752D02*
Y231636D01*
Y235348D02*
Y239929D01*
Y243447D02*
Y248564D01*
Y251731D02*
Y263759D01*
X327100Y218752D02*
Y231686D01*
Y235348D02*
Y239929D01*
Y243390D02*
Y248511D01*
Y251731D02*
Y263759D01*
X327200Y218752D02*
Y231736D01*
Y235348D02*
Y239929D01*
Y243334D02*
Y248459D01*
Y251731D02*
Y263759D01*
X327300Y218752D02*
Y231786D01*
Y235348D02*
Y239929D01*
Y243277D02*
Y248406D01*
Y251731D02*
Y263759D01*
X327400Y218752D02*
Y231836D01*
Y235348D02*
Y239929D01*
Y243221D02*
Y248354D01*
Y251731D02*
Y263759D01*
X327500Y218752D02*
Y231886D01*
Y235348D02*
Y239929D01*
Y243164D02*
Y248302D01*
Y251731D02*
Y263759D01*
X327600Y218752D02*
Y223336D01*
Y226074D02*
Y231936D01*
Y235348D02*
Y239929D01*
Y243108D02*
Y248249D01*
Y251731D02*
Y263759D01*
X327700Y218752D02*
Y223333D01*
Y226474D02*
Y231986D01*
Y235348D02*
Y239929D01*
Y243051D02*
Y248197D01*
Y251731D02*
Y263759D01*
X327800Y218752D02*
Y223333D01*
Y226828D02*
Y232036D01*
Y235348D02*
Y239929D01*
Y242995D02*
Y248145D01*
Y251731D02*
Y256322D01*
X327900Y218752D02*
Y223333D01*
Y226928D02*
Y232072D01*
Y235348D02*
Y239929D01*
Y242938D02*
Y248092D01*
Y251731D02*
Y256312D01*
X328000Y218752D02*
Y223333D01*
Y227028D02*
Y232097D01*
Y235348D02*
Y239929D01*
Y242882D02*
Y248040D01*
Y251731D02*
Y256312D01*
X328100Y218752D02*
Y223333D01*
Y227128D02*
Y232122D01*
Y235348D02*
Y239929D01*
Y242825D02*
Y247987D01*
Y251731D02*
Y256312D01*
X328200Y218752D02*
Y223333D01*
Y227228D02*
Y232147D01*
Y235348D02*
Y239929D01*
Y242769D02*
Y247935D01*
Y251731D02*
Y256312D01*
X328300Y218752D02*
Y223333D01*
Y227291D02*
Y232172D01*
Y235348D02*
Y239929D01*
Y242712D02*
Y247883D01*
Y251731D02*
Y256312D01*
X328400Y218752D02*
Y223333D01*
Y227341D02*
Y232197D01*
Y235348D02*
Y239929D01*
Y242656D02*
Y247830D01*
Y251731D02*
Y256312D01*
X328500Y218752D02*
Y223333D01*
Y227391D02*
Y232222D01*
Y235348D02*
Y239929D01*
Y242599D02*
Y247774D01*
Y251731D02*
Y256312D01*
X328600Y218752D02*
Y223333D01*
Y227441D02*
Y232247D01*
Y235348D02*
Y239929D01*
Y242543D02*
Y247714D01*
Y251731D02*
Y256312D01*
X328700Y218752D02*
Y223333D01*
Y227491D02*
Y232272D01*
Y235348D02*
Y239929D01*
Y242486D02*
Y247654D01*
Y251731D02*
Y256312D01*
X328800Y218752D02*
Y223333D01*
Y227541D02*
Y232297D01*
Y235348D02*
Y239929D01*
Y242429D02*
Y247594D01*
Y251731D02*
Y256312D01*
X328900Y218752D02*
Y223333D01*
Y227591D02*
Y232322D01*
Y235348D02*
Y239929D01*
Y242373D02*
Y247534D01*
Y251731D02*
Y256312D01*
X329000Y218752D02*
Y223333D01*
Y227641D02*
Y232347D01*
Y235348D02*
Y239929D01*
Y242308D02*
Y247474D01*
Y251731D02*
Y256312D01*
X329100Y218752D02*
Y223333D01*
Y227691D02*
Y232372D01*
Y235348D02*
Y239929D01*
Y242242D02*
Y247414D01*
Y251731D02*
Y256312D01*
X329200Y218752D02*
Y223333D01*
Y227741D02*
Y232397D01*
Y235348D02*
Y239929D01*
Y242175D02*
Y247354D01*
Y251731D02*
Y256312D01*
X329300Y218752D02*
Y223333D01*
Y227791D02*
Y232422D01*
Y235348D02*
Y239929D01*
Y242108D02*
Y247294D01*
Y251731D02*
Y256312D01*
X329400Y218752D02*
Y223333D01*
Y227841D02*
Y232447D01*
Y235348D02*
Y239929D01*
Y242042D02*
Y247234D01*
Y251731D02*
Y256312D01*
X329500Y218752D02*
Y223333D01*
Y227891D02*
Y232472D01*
Y235348D02*
Y239929D01*
Y241975D02*
Y247174D01*
Y251731D02*
Y256312D01*
X329600Y218752D02*
Y223333D01*
Y227941D02*
Y232488D01*
Y235348D02*
Y239929D01*
Y241896D02*
Y247074D01*
Y251731D02*
Y256312D01*
X329700Y218752D02*
Y223333D01*
Y227991D02*
Y232498D01*
Y235348D02*
Y239929D01*
Y241796D02*
Y246974D01*
Y251731D02*
Y256312D01*
X329800Y218752D02*
Y223333D01*
Y228041D02*
Y232508D01*
Y235348D02*
Y239929D01*
Y241696D02*
Y246874D01*
Y251731D02*
Y256312D01*
X329900Y218752D02*
Y223333D01*
Y228091D02*
Y232518D01*
Y235348D02*
Y239929D01*
Y241596D02*
Y246774D01*
Y251731D02*
Y256312D01*
X330000Y218752D02*
Y223333D01*
Y228114D02*
Y232528D01*
Y235348D02*
Y239929D01*
Y241494D02*
Y246674D01*
Y251731D02*
Y256312D01*
X330100Y218752D02*
Y223333D01*
Y228114D02*
Y232538D01*
Y235348D02*
Y239929D01*
Y241246D02*
Y246574D01*
Y251731D02*
Y256312D01*
X330200Y218752D02*
Y223333D01*
Y228114D02*
Y232548D01*
Y235348D02*
Y239929D01*
Y240996D02*
Y246474D01*
Y251731D02*
Y256312D01*
X330300Y218752D02*
Y223333D01*
Y228114D02*
Y232558D01*
Y235348D02*
Y239929D01*
Y240746D02*
Y246374D01*
Y251731D02*
Y256312D01*
X330400Y218752D02*
Y223333D01*
Y228114D02*
Y232568D01*
Y235348D02*
Y239932D01*
Y240496D02*
Y246216D01*
Y251731D02*
Y256312D01*
X330500Y218752D02*
Y223333D01*
Y228114D02*
Y232578D01*
Y235348D02*
Y246016D01*
Y251731D02*
Y256312D01*
X330600Y218752D02*
Y223333D01*
Y228114D02*
Y232588D01*
Y235348D02*
Y245840D01*
Y251731D02*
Y256312D01*
X330700Y218752D02*
Y223333D01*
Y228114D02*
Y232598D01*
Y235348D02*
Y245690D01*
Y251731D02*
Y256312D01*
X330800Y218752D02*
Y223333D01*
Y228114D02*
Y232608D01*
Y235348D02*
Y245540D01*
Y251731D02*
Y256312D01*
X330900Y218752D02*
Y223333D01*
Y228114D02*
Y232618D01*
Y235348D02*
Y245390D01*
Y251731D02*
Y256312D01*
X331000Y218752D02*
Y223333D01*
Y228114D02*
Y232628D01*
Y235348D02*
Y245253D01*
Y251731D02*
Y256312D01*
X331100Y218752D02*
Y223333D01*
Y228114D02*
Y232638D01*
Y235348D02*
Y245407D01*
Y251731D02*
Y256312D01*
X331200Y218752D02*
Y223333D01*
Y228114D02*
Y232648D01*
Y235348D02*
Y245807D01*
Y251731D02*
Y256312D01*
X331300Y218752D02*
Y223333D01*
Y228114D02*
Y232658D01*
Y235348D02*
Y246189D01*
Y251731D02*
Y256312D01*
X331400Y218752D02*
Y223333D01*
Y228114D02*
Y232668D01*
Y235348D02*
Y246489D01*
Y251731D02*
Y256312D01*
X331500Y218752D02*
Y223333D01*
Y228114D02*
Y232678D01*
Y235348D02*
Y246775D01*
Y251731D02*
Y256312D01*
X331600Y218752D02*
Y223333D01*
Y228114D02*
Y232688D01*
Y235348D02*
Y246908D01*
Y251731D02*
Y256312D01*
X331700Y218752D02*
Y223333D01*
Y228110D02*
Y232688D01*
Y235348D02*
Y247041D01*
Y251731D02*
Y256312D01*
X331800Y218752D02*
Y223333D01*
Y228099D02*
Y232674D01*
Y235348D02*
Y247175D01*
Y251731D02*
Y256312D01*
X331900Y218752D02*
Y223333D01*
Y228087D02*
Y232660D01*
Y235348D02*
Y247308D01*
Y251731D02*
Y256312D01*
X332000Y218752D02*
Y223333D01*
Y228076D02*
Y232646D01*
Y235348D02*
Y247441D01*
Y251731D02*
Y256312D01*
X332100Y218752D02*
Y223333D01*
Y228065D02*
Y232631D01*
Y235348D02*
Y247575D01*
Y251731D02*
Y256312D01*
X332200Y218752D02*
Y223333D01*
Y228054D02*
Y232617D01*
Y235348D02*
Y247662D01*
Y251731D02*
Y256312D01*
X332300Y218752D02*
Y223333D01*
Y228043D02*
Y232603D01*
Y235348D02*
Y247737D01*
Y251731D02*
Y256312D01*
X332400Y218752D02*
Y223333D01*
Y228032D02*
Y232588D01*
Y235348D02*
Y247812D01*
Y251731D02*
Y256312D01*
X332500Y218752D02*
Y223333D01*
Y228021D02*
Y232574D01*
Y235348D02*
Y247887D01*
Y251731D02*
Y256312D01*
X332600Y218752D02*
Y223333D01*
Y228010D02*
Y232560D01*
Y235348D02*
Y247962D01*
Y251731D02*
Y256312D01*
X332700Y218752D02*
Y223333D01*
Y227999D02*
Y232546D01*
Y235348D02*
Y248037D01*
Y251731D02*
Y256312D01*
X332800Y218752D02*
Y223333D01*
Y227987D02*
Y232531D01*
Y235348D02*
Y248112D01*
Y251731D02*
Y256312D01*
X332900Y218752D02*
Y223333D01*
Y227976D02*
Y232517D01*
Y235348D02*
Y248187D01*
Y251731D02*
Y256312D01*
X333000Y218752D02*
Y223333D01*
Y227965D02*
Y232503D01*
Y235348D02*
Y248248D01*
Y251731D02*
Y256312D01*
X333100Y218752D02*
Y223333D01*
Y227954D02*
Y232488D01*
Y235348D02*
Y248288D01*
Y251731D02*
Y256312D01*
X333200Y218752D02*
Y223333D01*
Y227943D02*
Y232474D01*
Y235348D02*
Y248328D01*
Y251731D02*
Y256312D01*
X333300Y218752D02*
Y223333D01*
Y227932D02*
Y232460D01*
Y235348D02*
Y248368D01*
Y251731D02*
Y256312D01*
X333400Y218752D02*
Y223333D01*
Y227921D02*
Y232446D01*
Y235348D02*
Y239929D01*
Y242678D02*
Y248408D01*
Y251731D02*
Y256312D01*
X333500Y218752D02*
Y223333D01*
Y227910D02*
Y232431D01*
Y235348D02*
Y239929D01*
Y243078D02*
Y248448D01*
Y251731D02*
Y256312D01*
X333600Y218752D02*
Y223333D01*
Y227894D02*
Y232417D01*
Y235348D02*
Y239929D01*
Y243333D02*
Y248488D01*
Y251731D02*
Y256312D01*
X333700Y218752D02*
Y223333D01*
Y227844D02*
Y232403D01*
Y235348D02*
Y239929D01*
Y243533D02*
Y248528D01*
Y251731D02*
Y256312D01*
X333800Y218752D02*
Y223333D01*
Y227794D02*
Y232388D01*
Y235348D02*
Y239929D01*
Y243733D02*
Y248568D01*
Y251731D02*
Y256312D01*
X333900Y218752D02*
Y223333D01*
Y227744D02*
Y232374D01*
Y235348D02*
Y239929D01*
Y243933D02*
Y248608D01*
Y251731D02*
Y256312D01*
X334000Y218752D02*
Y223333D01*
Y227694D02*
Y232360D01*
Y235348D02*
Y239929D01*
Y244073D02*
Y248648D01*
Y251731D02*
Y256312D01*
X334100Y218752D02*
Y223333D01*
Y227644D02*
Y232346D01*
Y235348D02*
Y239929D01*
Y244098D02*
Y248671D01*
Y251731D02*
Y256312D01*
X334200Y218752D02*
Y223333D01*
Y227594D02*
Y232331D01*
Y235348D02*
Y239929D01*
Y244123D02*
Y248691D01*
Y251731D02*
Y256312D01*
X334300Y218752D02*
Y223333D01*
Y227544D02*
Y232317D01*
Y235348D02*
Y239929D01*
Y244148D02*
Y248711D01*
Y251731D02*
Y256312D01*
X334400Y218752D02*
Y223333D01*
Y227494D02*
Y232303D01*
Y235348D02*
Y239929D01*
Y244173D02*
Y248731D01*
Y251731D02*
Y256312D01*
X334500Y218752D02*
Y223333D01*
Y227444D02*
Y232288D01*
Y235348D02*
Y239929D01*
Y244198D02*
Y248751D01*
Y251731D02*
Y256312D01*
X334600Y218752D02*
Y223333D01*
Y227394D02*
Y232274D01*
Y235348D02*
Y239929D01*
Y244223D02*
Y248771D01*
Y251731D02*
Y256312D01*
X334700Y218752D02*
Y223333D01*
Y227344D02*
Y232246D01*
Y235348D02*
Y239929D01*
Y244248D02*
Y248791D01*
Y251731D02*
Y256312D01*
X334800Y218752D02*
Y223333D01*
Y227294D02*
Y232213D01*
Y235348D02*
Y239929D01*
Y244273D02*
Y248811D01*
Y251731D02*
Y256312D01*
X334900Y218752D02*
Y223333D01*
Y227228D02*
Y232179D01*
Y235348D02*
Y239929D01*
Y244284D02*
Y248831D01*
Y251731D02*
Y256312D01*
X335000Y218752D02*
Y223333D01*
Y227062D02*
Y232146D01*
Y235348D02*
Y239929D01*
Y244284D02*
Y248851D01*
Y251731D02*
Y256312D01*
X335100Y218752D02*
Y223333D01*
Y226895D02*
Y232113D01*
Y235348D02*
Y239929D01*
Y244284D02*
Y248859D01*
Y251731D02*
Y256312D01*
X335200Y218752D02*
Y223333D01*
Y226728D02*
Y232079D01*
Y235348D02*
Y239929D01*
Y244284D02*
Y248845D01*
Y251731D02*
Y256312D01*
X335300Y218752D02*
Y223333D01*
Y226562D02*
Y232046D01*
Y235348D02*
Y239929D01*
Y244284D02*
Y248831D01*
Y251731D02*
Y256312D01*
X335400Y218752D02*
Y223333D01*
Y226395D02*
Y232013D01*
Y235348D02*
Y239929D01*
Y244284D02*
Y248816D01*
Y251731D02*
Y256312D01*
X335500Y218752D02*
Y223333D01*
Y226228D02*
Y231979D01*
Y235348D02*
Y239929D01*
Y244283D02*
Y248802D01*
Y251731D02*
Y256312D01*
X335600Y218752D02*
Y223333D01*
Y225728D02*
Y231946D01*
Y235348D02*
Y239929D01*
Y244194D02*
Y248788D01*
Y251731D02*
Y256312D01*
X335700Y218752D02*
Y223333D01*
Y225028D02*
Y231913D01*
Y235348D02*
Y239929D01*
Y244094D02*
Y248774D01*
Y251731D02*
Y256312D01*
X335800Y218752D02*
Y231879D01*
Y235348D02*
Y239929D01*
Y243994D02*
Y248759D01*
Y251731D02*
Y256312D01*
X335900Y218752D02*
Y231845D01*
Y235348D02*
Y239929D01*
Y243894D02*
Y248745D01*
Y251731D02*
Y256312D01*
X336000Y218752D02*
Y231795D01*
Y235348D02*
Y239929D01*
Y243711D02*
Y248731D01*
Y251731D02*
Y256312D01*
X336100Y218752D02*
Y231745D01*
Y235348D02*
Y239929D01*
Y243411D02*
Y248716D01*
Y251731D02*
Y256312D01*
X336200Y218752D02*
Y231695D01*
Y235348D02*
Y239929D01*
Y243063D02*
Y248702D01*
Y251731D02*
Y256312D01*
X336300Y218752D02*
Y231645D01*
Y235348D02*
Y239929D01*
Y242563D02*
Y248688D01*
Y251731D02*
Y256312D01*
X336400Y218752D02*
Y231595D01*
Y235348D02*
Y248674D01*
Y251731D02*
Y256312D01*
X336500Y218752D02*
Y231545D01*
Y235348D02*
Y248659D01*
Y251731D02*
Y256312D01*
X336600Y218752D02*
Y231495D01*
Y235348D02*
Y248630D01*
Y251731D02*
Y256312D01*
X336700Y218752D02*
Y231445D01*
Y235348D02*
Y248590D01*
Y251731D02*
Y256312D01*
X336800Y218752D02*
Y231395D01*
Y235348D02*
Y248550D01*
Y251731D02*
Y256312D01*
X336900Y218752D02*
Y231345D01*
Y235348D02*
Y248510D01*
Y251731D02*
Y256312D01*
X337000Y218752D02*
Y231295D01*
Y235348D02*
Y248470D01*
Y251731D02*
Y256312D01*
X337100Y218752D02*
Y231245D01*
Y235348D02*
Y248430D01*
Y251731D02*
Y256312D01*
X337200Y218752D02*
Y231165D01*
Y235348D02*
Y248390D01*
Y251731D02*
Y256312D01*
X337300Y218752D02*
Y231040D01*
Y235348D02*
Y248350D01*
Y251731D02*
Y256312D01*
X337400Y218752D02*
Y230915D01*
Y235348D02*
Y248310D01*
Y251731D02*
Y256312D01*
X337500Y218752D02*
Y230790D01*
Y235348D02*
Y248270D01*
Y251731D02*
Y256312D01*
X337600Y218752D02*
Y230665D01*
Y235348D02*
Y248223D01*
Y251731D02*
Y256312D01*
X337700Y218752D02*
Y230540D01*
Y235348D02*
Y248123D01*
Y251731D02*
Y256312D01*
X337800Y218752D02*
Y230415D01*
Y235348D02*
Y248023D01*
Y251731D02*
Y256312D01*
X337900Y218752D02*
Y230290D01*
Y235348D02*
Y247923D01*
Y251731D02*
Y256312D01*
X338000Y218752D02*
Y230165D01*
Y235348D02*
Y247823D01*
Y251731D02*
Y256312D01*
X338100Y218752D02*
Y229999D01*
Y235348D02*
Y247723D01*
Y251731D02*
Y256312D01*
X338200Y218752D02*
Y229832D01*
Y235348D02*
Y247623D01*
Y251731D02*
Y256312D01*
X338300Y218752D02*
Y229665D01*
Y235348D02*
Y247523D01*
Y251731D02*
Y256312D01*
X338400Y218752D02*
Y229499D01*
Y235348D02*
Y247423D01*
Y251731D02*
Y256312D01*
X338500Y218752D02*
Y229332D01*
Y235348D02*
Y247211D01*
Y251731D02*
Y256312D01*
X338600Y218752D02*
Y229165D01*
Y235348D02*
Y246961D01*
Y251731D02*
Y256312D01*
X338700Y218752D02*
Y228879D01*
Y235348D02*
Y246711D01*
Y251731D02*
Y256312D01*
X338800Y218752D02*
Y228529D01*
Y235348D02*
Y246461D01*
Y251731D02*
Y256312D01*
X338900Y218752D02*
Y228179D01*
Y235348D02*
Y246019D01*
Y251731D02*
Y256312D01*
X339000Y218752D02*
Y227829D01*
Y235348D02*
Y245419D01*
Y251731D02*
Y256312D01*
X339100Y218752D02*
Y227243D01*
Y235348D02*
Y244690D01*
Y251731D02*
Y256312D01*
X339200Y218752D02*
Y226343D01*
Y235348D02*
Y243790D01*
Y251731D02*
Y256312D01*
*
G04 PC Custom Flashes*
G04 Layer Name medulla.1.5.pcb - flashes*
%LPD*%
*
*
G04 PC Circuitry*
G04 Layer Name medulla.1.5.pcb - circuitry*
%LPD*%
*
G54D11*
X145000Y308937D03*
Y301063D03*
Y293189D03*
X388000Y166000D03*
Y158126D03*
G54D17*
X371000Y246350D03*
Y239650D03*
X375000Y205650D03*
Y212350D03*
X167000Y116650D03*
Y123350D03*
X161000D03*
Y116650D03*
X309000Y268350D03*
Y261650D03*
X286000Y268350D03*
Y261650D03*
X224000Y120700D03*
Y114000D03*
Y107300D03*
X293000Y205350D03*
Y198650D03*
X305000Y205350D03*
Y198650D03*
X299000Y205350D03*
Y198650D03*
X311000Y205350D03*
Y198650D03*
X207000Y171650D03*
Y178350D03*
Y191350D03*
Y184650D03*
X279000Y187350D03*
Y180650D03*
Y200350D03*
Y193650D03*
X230000Y120700D03*
Y114000D03*
Y107300D03*
X236000Y120700D03*
Y114000D03*
Y107300D03*
X242000Y120700D03*
Y114000D03*
Y107300D03*
X248000Y120700D03*
Y114000D03*
Y107300D03*
X189000Y120700D03*
Y114000D03*
Y107300D03*
X195000Y120700D03*
Y114000D03*
Y107300D03*
X201000Y120700D03*
Y114000D03*
Y107300D03*
X207000Y120700D03*
Y114000D03*
Y107300D03*
X213000Y120700D03*
Y114000D03*
Y107300D03*
X304000Y187350D03*
Y180650D03*
X298000D03*
Y187350D03*
X207000Y248650D03*
Y255350D03*
Y268350D03*
Y261650D03*
X292000Y187350D03*
Y180650D03*
X122000Y292650D03*
Y299350D03*
X213000Y248650D03*
Y255350D03*
X207000Y158650D03*
Y165350D03*
G54D18*
X352650Y247000D03*
X359350D03*
X352650Y234000D03*
X359350D03*
X352650Y214000D03*
X359350D03*
X253650Y208000D03*
X260350D03*
X352650Y205000D03*
X359350D03*
X393350D03*
X386650D03*
X393350Y216000D03*
X386650D03*
X393350Y235000D03*
X386650D03*
Y241000D03*
X393350D03*
X253650Y172000D03*
X260350D03*
X246350Y154000D03*
X239650D03*
X305350Y226000D03*
X298650D03*
X253650Y190000D03*
X260350D03*
X246350Y196000D03*
X239650D03*
X246350Y172000D03*
X239650D03*
X246350Y166000D03*
X239650D03*
Y190000D03*
X246350D03*
Y202000D03*
X239650D03*
Y178000D03*
X246350D03*
X253650Y260000D03*
X260350D03*
X246350Y266000D03*
X239650D03*
X246350Y242000D03*
X239650D03*
X246350Y236000D03*
X239650D03*
Y260000D03*
X246350D03*
X239650Y218000D03*
X246350D03*
Y272000D03*
X239650D03*
Y248000D03*
X246350D03*
X253650Y278000D03*
X260350D03*
X253650Y242000D03*
X260350D03*
X239650Y278000D03*
X246350D03*
X260350Y236000D03*
X253650D03*
X260350Y230000D03*
X253650D03*
X260350Y224000D03*
X253650D03*
X260350Y218000D03*
X253650D03*
X260350Y272000D03*
X253650D03*
X260350Y266000D03*
X253650D03*
X260350Y254000D03*
X253650D03*
X260350Y248000D03*
X253650D03*
X239650Y208000D03*
X246350D03*
X260350Y166000D03*
X253650D03*
X260350Y160000D03*
X253650D03*
X260350Y154000D03*
X253650D03*
X260350Y148000D03*
X253650D03*
X260350Y202000D03*
X253650D03*
X260350Y196000D03*
X253650D03*
X260350Y184000D03*
X253650D03*
X272650Y207000D03*
X279350D03*
X260350Y178000D03*
X253650D03*
X393350Y247000D03*
X386650D03*
X246350Y224000D03*
X239650D03*
Y148000D03*
X246350D03*
X115350Y299000D03*
X108650D03*
X115350Y293000D03*
X108650D03*
X341350Y278000D03*
X334650D03*
X341350Y272000D03*
X334650D03*
X341350Y284000D03*
X334650D03*
G54D21*
X399000Y290000D03*
G54D22*
X280000Y320000D03*
X290000Y310000D03*
Y320000D03*
X300000Y310000D03*
Y320000D03*
X310000Y310000D03*
Y320000D03*
X330000D03*
X340000Y310000D03*
Y320000D03*
X350000Y310000D03*
Y320000D03*
X360000Y310000D03*
Y320000D03*
X440000D03*
X430000Y310000D03*
X440000D03*
X430000Y300000D03*
X440000D03*
X389000Y290000D03*
X399000Y280000D03*
X389000D03*
X399000Y270000D03*
X389000D03*
X430000Y290000D03*
X440000D03*
Y270000D03*
X430000Y260000D03*
X440000D03*
X430000Y250000D03*
X440000D03*
X430000Y240000D03*
X440000D03*
Y200000D03*
X430000Y190000D03*
X440000D03*
X430000Y180000D03*
X440000D03*
X430000Y170000D03*
X440000D03*
Y150000D03*
X430000Y140000D03*
X440000D03*
X430000Y130000D03*
X440000D03*
X430000Y120000D03*
X440000D03*
X370000Y110000D03*
X360000Y120000D03*
Y110000D03*
X350000Y120000D03*
Y110000D03*
X340000Y120000D03*
Y110000D03*
X320000D03*
X310000Y120000D03*
Y110000D03*
X300000Y120000D03*
Y110000D03*
X290000Y120000D03*
Y110000D03*
X420000Y160000D03*
X430000D03*
X440000D03*
X420000Y110000D03*
X430000D03*
X440000D03*
X330000Y130000D03*
Y120000D03*
Y110000D03*
X280000Y130000D03*
Y120000D03*
Y110000D03*
X370000Y300000D03*
Y310000D03*
Y320000D03*
X420000Y280000D03*
X430000D03*
X440000D03*
X420000Y230000D03*
X430000D03*
X440000D03*
X320000Y300000D03*
Y310000D03*
Y320000D03*
X280000Y280000D03*
Y290000D03*
Y310000D03*
X330000D03*
X430000Y320000D03*
Y270000D03*
Y200000D03*
Y150000D03*
X370000Y120000D03*
X320000D03*
G54D23*
X170000Y220000D03*
Y165000D03*
G54D24*
X180000Y225000D03*
X170000Y240000D03*
X180000Y245000D03*
X170000Y250000D03*
X180000Y255000D03*
X170000Y260000D03*
X180000Y265000D03*
Y170000D03*
X170000Y175000D03*
X180000Y180000D03*
X170000Y185000D03*
X180000Y190000D03*
X170000Y205000D03*
X180000Y210000D03*
G54D25*
X145000Y265000D03*
Y165000D03*
G54D26*
X130000Y269200D03*
X123000D03*
X130000Y216700D03*
X123000D03*
X143900Y213300D03*
X136900D03*
X130000Y160800D03*
X123000D03*
G54D27*
X157000Y276000D03*
X202000Y217500D03*
X157000Y154000D03*
G54D31*
X374450Y225050D03*
Y228950D03*
X379550Y227000D03*
X291450Y160050D03*
Y163950D03*
X296550Y162000D03*
X373550Y289950D03*
Y286050D03*
X368450Y288000D03*
X364550Y289950D03*
Y286050D03*
X359450Y288000D03*
X364550Y276950D03*
Y273050D03*
X359450Y275000D03*
G54D38*
X131900Y116600D02*
Y119099D01*
X133850Y121050*
Y124071*
X131900Y116600D02*
Y113501D01*
X133850Y111550*
Y107929*
X140150D02*
X140346D01*
X145300Y112883*
Y123700*
X157875Y113125D02*
X161125Y116375D01*
Y116650*
X157875Y113125D02*
X158000Y113000D01*
X167000Y116650D02*
X161000D01*
X161125*
X180200Y107200D02*
X184175D01*
X184275Y107300*
X189000*
X195000*
X204100Y105949D02*
Y110950D01*
X207000Y113850*
Y114000*
X204100Y105949D02*
X205849Y104200D01*
X249151*
X257700Y112749*
Y144000*
X213000Y107300D02*
X213162D01*
X213162D02*
Y107288D01*
X213162D02*
X216738Y110862D01*
X216738D02*
X216900Y110700D01*
X213000Y114000D02*
X218301D01*
X221401Y110900*
X249151*
X252600Y114349*
Y137001*
X254400Y138801*
Y144000*
X207000Y107300D02*
X213000D01*
X195000D02*
X201000D01*
X216900Y110700D02*
X220300Y107300D01*
X224000*
X230000D02*
X236000D01*
X230000Y114000D02*
Y114150D01*
X232900Y117050*
Y154453*
X240147Y161700*
X248700*
X253000Y166000*
X253650*
X224000Y107300D02*
X230000D01*
X248000Y114000D02*
Y114150D01*
X251000Y117150*
Y137748*
X251400Y138148*
Y145900*
X253500Y148000*
X253650*
X242000Y107300D02*
X248000D01*
X242000Y114000D02*
Y114150D01*
X245000Y117150*
Y131449*
X246500Y132949*
Y143876*
X250000Y147376*
Y150500*
X253500Y154000*
X253650*
X236000Y107300D02*
X242000D01*
X236000Y114000D02*
Y114150D01*
X239000Y117150*
Y137600*
X300000Y110000D02*
X305000Y115000D01*
Y120515*
X337685Y153200*
X389651*
X401651Y165200*
X408100*
X412400Y169500*
X310000Y110000D02*
X314300Y114300D01*
Y123270*
X341730Y150700*
X394100*
X401650Y158250*
X403650*
X405600Y160200*
X340000Y110000D02*
X345000Y115000D01*
X350515*
X355000Y119485*
Y120515*
X362985Y128500*
X377572*
X378372Y129300*
X392300*
X393000Y130000*
X350000Y110000D02*
X355000Y115000D01*
X360515*
X365000Y119485*
Y122273*
X370027Y127300*
X380200*
X380500Y127000*
X370000Y110000D02*
X374000Y114000D01*
Y125000*
X145300Y123700D02*
X152600D01*
X152950Y123350*
X161000*
X140150Y124071D02*
Y123700D01*
X145300*
X161000Y123350D02*
X167000D01*
Y121000*
X173900Y114100*
Y110247*
X181147Y103000*
X249648*
X267100Y120452*
Y130100*
X271600Y134600*
Y147792*
X283858Y160050*
X291450*
X186100Y132453D02*
X192947Y139300D01*
X197253*
X212000Y154047*
Y203553*
X240447Y232000*
X249500*
X253500Y236000*
X253650*
X186100Y132453D02*
Y119349D01*
X188099Y117350*
X191800*
X195000Y114150*
Y114000*
X189000Y120700D02*
X195000D01*
X198100Y128400D02*
X218000Y148300D01*
Y201053*
X231447Y214500*
X247101*
X250000Y217399*
Y226500*
X253500Y230000*
X253650*
X198100Y128400D02*
Y117050D01*
X201000Y114150*
Y114000*
X194900Y125400D02*
X194950D01*
Y120700*
X195000*
X200900Y125400D02*
X200950D01*
Y120700*
X201000*
X213000D02*
X207000D01*
X201000*
X230000D02*
Y120725D01*
X230062Y120788*
X224000Y143000D02*
Y120700D01*
X230000*
X248000D02*
X248800Y121500D01*
Y142800*
X236000Y120700D02*
Y126700D01*
X300000Y120000D02*
X341700Y161700D01*
X395857*
X403657Y169500*
X408900*
X310000Y120000D02*
X311550Y121550D01*
Y122217*
X341233Y151900*
X392200*
X401200Y160900*
X316100Y123373D02*
X337927Y145200D01*
X358000*
X360200Y147400*
X395500*
X403700Y155600*
X316100Y123373D02*
Y113900D01*
X320000Y110000*
Y120000D02*
X322200D01*
X327200Y125000*
X336900*
X346650Y134750*
X362250*
X366800Y139300*
X395500*
X340000Y120000D02*
X351300Y131300D01*
X375268*
X377868Y133900*
X384201*
X384601Y133500*
X390500*
X350000Y120000D02*
X359700Y129700D01*
X375900*
X377800Y131600*
X380500*
X374200Y136900D02*
X405100D01*
X417000Y125000*
X435000*
X440000Y120000*
X372000Y134000D02*
X376168D01*
X377868Y135700*
X392200*
X407900Y120000*
X430000*
X109000Y141000D02*
X152442D01*
X163942Y152500*
X181400*
X190500Y143400*
X165000Y149500D02*
Y138150D01*
X189000Y114150*
Y114000*
X238400Y143753D02*
X239747Y145100D01*
X241001*
X243000Y147099*
Y154901*
X248099Y160000*
X253650*
X238400Y143753D02*
Y138200D01*
X239000Y137600*
X235300Y153600D02*
Y153800D01*
X239650*
Y154000*
X244000Y142800D02*
Y145800D01*
X246200Y148000*
X246350*
X240700Y142800D02*
Y122000D01*
X242000Y120700*
X239650Y148000D02*
Y154000D01*
X246350D02*
Y153825D01*
X246675*
X249625Y156775*
X249800Y156600*
X260350Y148000D02*
X265100D01*
X273300Y156200*
X260350Y154000D02*
X264200D01*
X269300Y159100*
X274900*
X370600Y144900D02*
X418191D01*
X428091Y135000*
X435000*
X440000Y130000*
X368000Y142000D02*
X418000D01*
X430000Y130000*
Y150000D02*
X433900Y146100D01*
X441615*
X443900Y148385*
X123000Y160800D02*
X128200Y155600D01*
X149928*
X153728Y159400*
X181300*
X182050Y158650*
X207000*
X180000Y170000D02*
X188350Y178350D01*
X207000*
X203975Y162125D02*
X207025Y165175D01*
Y165350*
X203975Y162125D02*
X204000Y162100D01*
X203500Y175200D02*
X203525Y175225D01*
X207000Y171750*
Y171650*
Y165350D02*
X207025D01*
X220700Y161900D02*
X230700Y171900D01*
Y197301*
X238399Y205000*
X242100*
X245100Y208000*
X246350*
X220700Y161900D02*
Y117574D01*
X224000Y114274*
Y114000*
X226900Y157300D02*
X231100Y161500D01*
Y165600*
X235300Y169800*
X243000Y175500D02*
X242925Y175425D01*
X246350Y172000*
X235300Y166300D02*
Y166150D01*
X239650*
Y166000*
X235400Y175400D02*
X235575Y175575D01*
X239325Y171825*
X239650*
Y172000*
X243000Y175500D02*
X243175Y175325D01*
X246025Y178175*
X246350*
Y178000*
X239650Y166000D02*
Y172000D01*
X246350Y166000D02*
Y172000D01*
X253650D02*
X253700D01*
X256950Y175250*
X256900Y175300D02*
X256950Y175250D01*
X260350Y160000D02*
X267500D01*
X269300Y161800*
X273100*
X260350Y166000D02*
X267175D01*
X267575Y165600*
X273500*
X260350Y172000D02*
Y171900D01*
X264600*
Y171800*
X291450Y163950D02*
X291500D01*
Y167800*
X291450Y160050D02*
X300861D01*
X314200Y173389*
Y190205*
X349045Y225050*
X374450*
X298600Y164400D02*
Y169599D01*
X301000Y171999*
X298600Y164400D02*
X298762Y164238D01*
X304200Y166500D02*
X310900Y173200D01*
X295400Y175900D02*
Y178050D01*
X298000Y180650*
X308600Y175800D02*
X308625Y175825D01*
X296550Y162000D02*
Y162162D01*
X296550D02*
X296688D01*
X296688D02*
X298762Y164238D01*
X365900Y164100D02*
X375345D01*
X377245Y166000*
X388000*
X355700Y176400D02*
X360849D01*
X363375Y173874*
X388000*
X368200Y170600D02*
X376542D01*
X377205Y169937*
X401794*
X403657Y171800*
X413715*
X425000Y160515*
Y159485*
X429485Y155000*
X435000*
X440000Y150000*
X170000Y185000D02*
X174392Y180608D01*
Y175608*
X180000Y170000*
X170000Y185000D02*
X188900D01*
X189250Y184650*
X207000*
Y191350D02*
X207050D01*
Y195900*
X207100*
X233150Y183650D02*
X239500Y190000D01*
X239650*
X233150Y183650D02*
Y177650D01*
X235400Y175400*
X235375Y193975D02*
X237450Y196050D01*
X239650*
Y196000*
X235375Y193975D02*
X239425Y189925D01*
X239650*
Y190000*
X235400Y178600D02*
Y178300D01*
X239650*
Y178000*
X246300Y185000D02*
Y190000D01*
X246350*
X235300Y193900D02*
X235375Y193975D01*
X253650Y178000D02*
Y178100D01*
X253900*
X256800Y175200*
X256900Y175300*
X253650Y184000D02*
Y190000D01*
Y196000D02*
Y196125D01*
X253925*
X256775Y193275*
X256900Y193400*
X246350Y196000D02*
X253650D01*
X256975Y193325D02*
X253650Y190000D01*
X253800*
X256800Y193000*
X265874*
X267674Y194800*
X274400*
X275550Y193650*
X279000*
X273000Y192400D02*
X275200Y190200D01*
X276300*
X279000Y187500*
Y187350*
X273800Y183300D02*
X276500D01*
X279000Y180800*
Y180650*
X256900Y193400D02*
X256975Y193325D01*
X260350Y178000D02*
X269300D01*
X275800Y171500*
X260350Y184000D02*
X268200D01*
X273600Y178600*
X260350Y196000D02*
Y195900D01*
X260600*
X263700Y199000*
X263800Y198900*
X260350Y190000D02*
Y189850D01*
X264900*
Y189700*
X287000Y189500D02*
Y198100D01*
X287849Y198949*
X292000Y187350D02*
X292050D01*
Y191700*
X292100*
X279000Y180650D02*
X292000D01*
X303975Y180475D02*
Y180650D01*
X304000*
X303975Y180475D02*
X308625Y175825D01*
X295500Y192000D02*
Y189850D01*
X298000Y187350*
X299000Y192200D02*
X301000Y190200D01*
Y171999*
X301400Y194300D02*
X304000Y191700D01*
Y187350*
X310800Y194000D02*
X310900D01*
Y198650*
X311000*
X304000Y187350D02*
Y187200D01*
X310900Y180300*
Y173200*
X348100Y187400D02*
X347950Y187250D01*
X354995Y180205*
X411064*
X421269Y170000*
X430000*
X338400Y193989D02*
Y212708D01*
X347967Y222275*
X349775*
X350300Y222800*
X338400Y193989D02*
X353589Y178800D01*
X360656*
X361656Y177800*
X365900*
X347300Y191600D02*
X350700Y188200D01*
Y186292*
X355392Y181600*
X417100*
X423700Y175000*
X435000*
X440000Y170000*
X340600Y196700D02*
X342400Y194900D01*
X347111*
X352300Y189711*
Y186389*
X355689Y183000*
X427000*
X430000Y180000*
X357400Y190700D02*
Y189389D01*
X360889Y185900*
X439615*
X443900Y181615*
Y148385*
X440000Y190000D02*
X443900Y193900D01*
X123000Y216700D02*
X141400Y235100D01*
X199600*
X213000Y248500*
Y248650*
X130000Y216700D02*
X143500Y230200D01*
X210950*
X234550Y253800*
X237701*
X243000Y259099*
Y260901*
X245099Y263000*
X265780*
X280780Y248000*
X300500*
X231800Y211600D02*
Y209400D01*
X233200Y208000*
X239650*
X243375Y199125D02*
X246250Y202000D01*
X246350*
X243375Y199125D02*
X243400Y199100D01*
X235500Y198700D02*
X235675Y198525D01*
X239325Y202175*
X239650*
Y202000*
X235200Y211000D02*
X250100D01*
X250700Y211600*
X274002*
X275502Y210100*
X280501*
X283600Y207001*
Y204700*
X253650Y202000D02*
Y201950D01*
X253850*
X256850Y204950*
X253650Y208000D02*
X253800D01*
X256850Y204950*
X256900Y204900*
X273200Y198200D02*
X275350Y200350D01*
X279000*
X264500Y206000D02*
X267024D01*
X270924Y209900*
X274003*
X275003Y208900*
X276999*
X279049Y206849*
X279350*
Y207000*
X272650D02*
X272900D01*
Y202500*
X260350Y202000D02*
X264500D01*
X260350Y208000D02*
Y208300D01*
X263400*
X264300Y209200*
X285850Y198950D02*
X284300Y197400D01*
Y187150*
X285550Y185900*
X287700*
X277200Y215000D02*
X287700Y225500D01*
Y225800*
X298300Y236400*
X302600*
X293000Y198650D02*
X299000D01*
X293000Y205350D02*
Y205500D01*
X297300Y209800*
X300300*
X303200Y215600D02*
X310953D01*
X312500Y214053*
Y211000*
X308500Y210300D02*
X308680Y210120D01*
X311000Y205350D02*
Y209500D01*
X312500Y211000*
X299000Y198650D02*
X305000D01*
X299000Y205350D02*
X299149D01*
Y205351*
X302700Y208901*
Y211851*
X303200Y212351*
Y215600*
X305000Y198650D02*
X311000D01*
X305000Y205350D02*
Y205500D01*
X307100Y207600*
Y208541*
X308680Y210120*
X348100Y207000D02*
X348020Y206920D01*
X349600Y205341*
Y203799*
X359199Y194200*
X407200*
X411400Y190000*
X430000*
X345600Y211845D02*
Y218211D01*
X346889Y219500*
X350600*
X345600Y211845D02*
X345650Y211795D01*
Y206052*
X358702Y193000*
X359100*
X360600Y191500*
Y189300*
X352625Y204825D02*
X352650D01*
Y205000*
X352625Y204825D02*
X355375Y202075D01*
X343000Y199500D02*
X345522Y196978D01*
X347972*
X360450Y184500*
X435500*
X440000Y180000*
X350100Y209600D02*
X351800Y207900D01*
X364515*
X377015Y195400*
X435400*
X440000Y200000*
X354100Y210200D02*
X364574D01*
X365774Y209000*
X421000*
X430000Y200000*
X348600Y214000D02*
X352650D01*
X355200Y201900D02*
X355375Y202075D01*
X359350Y205000D02*
X363500D01*
X359350Y214000D02*
X364100D01*
X365750Y212350*
X375000*
X384200Y212300D02*
X433215D01*
X443900Y201615*
Y193900*
X382500Y205000D02*
X386650D01*
X375000Y216500D02*
X380100D01*
X380600Y216000*
X386650*
X393350D02*
Y216100D01*
X397400*
Y216200*
X393350Y205000D02*
X394341D01*
Y201100*
X394600*
X375000Y212350D02*
Y216500D01*
Y205650D02*
X375050D01*
Y201500*
X375100*
X243100Y221300D02*
X243050Y221250D01*
X246300Y218000*
X246350*
X235300Y223600D02*
Y223800D01*
X239650*
Y224000*
X235300Y236000D02*
X239650D01*
X244800Y228700D02*
X246350Y227150D01*
Y224000*
X253650Y218000D02*
X254400D01*
Y213900*
X253650Y224000D02*
X253800D01*
X257000Y220800*
Y214800*
X257800Y214000*
X239650Y218000D02*
Y224000D01*
X269100Y218600D02*
X268900Y218400D01*
X276000Y211300*
X281197*
X285850Y206647*
Y198950*
X272700Y219600D02*
Y216389D01*
X276489Y212600*
X281594*
X287849Y206346*
Y198949*
X260350Y218000D02*
X262000D01*
X266300Y222300*
X274500*
X260350Y224000D02*
X267100D01*
X268600Y225500*
X274500*
X260350Y230000D02*
X265500D01*
X266700Y228800*
X274400*
X260350Y236000D02*
X260500D01*
X264500Y232000*
X274500*
X298650Y226000D02*
X298800D01*
X301465Y223335*
Y222335*
X303600Y220200*
X305350Y226000D02*
Y222350D01*
X306000Y221700*
Y218000*
X348200Y232200D02*
Y231949D01*
X350449*
X352500Y234000*
X352650*
X364200Y229800D02*
X369600D01*
X370450Y228950*
X374450*
X359350Y234000D02*
Y234125D01*
X359625*
X364075Y229675*
X364200Y229800*
X388000Y228600D02*
X399750D01*
X400050Y228300*
X411800*
X379550Y227000D02*
X383899D01*
X384899Y226000*
X408500*
X393350Y235000D02*
Y235175D01*
X395475*
X397650Y237350*
X180000Y245000D02*
X190350Y255350D01*
X207000*
X213000D02*
Y255300D01*
X223300*
X207000Y248650D02*
Y248800D01*
X210200Y252000*
X220251*
X220751Y252500*
X227100*
X243050Y238850D02*
X246050Y235850D01*
X246350*
Y236000*
X243050Y238850D02*
X246200Y242000D01*
X246350*
X236400Y245400D02*
X236325Y245325D01*
X239650Y242000*
X235600Y248600D02*
Y248300D01*
X239650*
Y248000*
X242900Y238700D02*
X243050Y238850D01*
X253650Y248000D02*
Y248150D01*
X253950*
X257050Y245050*
X257200Y245200*
X253650Y254000D02*
Y253975D01*
X253825*
X256975Y257125*
X257000Y257100*
X253650Y242000D02*
Y241950D01*
X253850*
X257150Y245250*
X257200Y245200*
X246350Y242000D02*
Y248000D01*
X260350D02*
X260500D01*
X267200Y241300*
X273300*
X260350Y254000D02*
X260500D01*
X264800Y249700*
Y247000*
X260350Y242000D02*
X260500D01*
X267200Y235300*
X275400*
X345800Y247808D02*
X352392Y254400D01*
X409779*
X410879Y253300*
X427486*
X428086Y253900*
X436100*
X440000Y250000*
X345800Y247808D02*
Y243529D01*
X347865Y241465*
X348000Y241600*
X350600Y239600D02*
X365123D01*
X372623Y232100*
X409594*
X417494Y240000*
X430000*
X348000Y245400D02*
Y248311D01*
X352889Y253200*
X409200*
X412400Y250000*
X430000*
X352650Y247000D02*
X353641D01*
Y250900*
X353900*
X355500Y237200D02*
X359800D01*
X360000Y237000*
X364350*
X370450Y230900*
X411833*
X415933Y235000*
X435000*
X440000Y240000*
X365100Y244900D02*
X365300Y245100D01*
X370800Y239600*
Y239650*
X371000*
X359350Y247000D02*
X363000D01*
X365100Y244900*
X371000Y246350D02*
X371100D01*
Y250700*
X371200*
X383750Y238150D02*
X386600Y241000D01*
X386650*
X383750Y238150D02*
X383800Y238100D01*
X381600Y237000D02*
Y241600D01*
X384000Y244000*
X381600Y237000D02*
X383600Y235000D01*
X386650*
X383875Y244125D02*
X386625Y246875D01*
X386650*
Y247000*
X383875Y244125D02*
X384000Y244000D01*
X389700Y250500D02*
X393200Y247000D01*
X393350*
Y241000*
X394000*
X397650Y237350*
X397950Y237650*
X397800Y237800D02*
X397950Y237650D01*
X165000Y275000D02*
X243200D01*
X246200Y278000*
X246350*
X170000Y260000D02*
X175000Y255000D01*
Y250000*
X180000Y245000*
X170000Y260000D02*
X191700D01*
X193350Y261650*
X207000*
Y268350D02*
Y272500D01*
X236400Y263100D02*
X239500Y260000D01*
X239650*
X236400Y263100D02*
X239400Y266100D01*
X239650*
Y266000*
X235900Y267800D02*
X235750Y267950D01*
X239650Y271850*
Y272000*
X236300Y263200D02*
X236400Y263100D01*
X250100Y268900D02*
X250225Y269025D01*
X253375Y265875*
X253650*
Y266000*
Y272000D02*
Y271975D01*
X253825*
X256875Y275025*
X256900Y275000*
X246350Y272000D02*
Y271875D01*
X246625*
X249775Y275025*
X249900Y274900*
X246350Y260000D02*
Y260050D01*
X246550*
X249750Y256850*
X249800Y256900*
X246350Y266000D02*
Y265825D01*
X246675*
X249925Y269075*
X250100Y268900*
X253650Y260000D02*
Y260075D01*
X253875*
X256925Y257025*
X257000Y257100*
X263600Y269200D02*
X263625Y269175D01*
X260350Y266000D02*
X260450D01*
X263625Y269175*
X260350Y272000D02*
X262550Y274200D01*
X264700*
X260350Y260000D02*
Y260025D01*
X260525*
X264075Y256475*
X264100Y256500*
X334650Y278000D02*
Y272000D01*
X334800*
X339200Y267600*
X349500*
X350300Y266800*
X350600*
X338000Y271099D02*
Y274800D01*
X341200Y278000*
X341350*
X338000Y271099D02*
X339999Y269100D01*
X348026*
X348126Y269200*
X355600*
X341700Y258300D02*
X344300Y255700D01*
X410350*
X411550Y254500*
X426593*
X427693Y255600*
X435600*
X440000Y260000*
X342200Y262600D02*
X345386Y259414D01*
X346486*
X349000Y256900*
X411022*
X412222Y255700*
X418700*
X428000Y265000*
X435000*
X440000Y270000*
X350400Y262200D02*
X353000Y259600D01*
X411507*
X421907Y270000*
X430000*
X341350Y272000D02*
X350500D01*
X350600Y272100*
X356300Y261900D02*
X356500Y261700D01*
X411507*
X424807Y275000*
X430515*
X435000Y279485*
Y285000*
X440000Y290000*
X359200Y264400D02*
X363200D01*
X365100Y266300*
X370222*
X372122Y264400*
X398915*
X409500Y274985*
Y275015*
X424485Y290000*
X430000*
X362000Y266800D02*
X362900Y267700D01*
X370433*
X376733Y274000*
X404801*
X425801Y295000*
X435000*
X440000Y300000*
X365200Y270100D02*
X369522D01*
X374822Y275400*
X402518*
X427118Y300000*
X430000*
X366400Y264000D02*
X367200Y263200D01*
X408715*
X425000Y279485*
Y280515*
X429485Y285000*
X430515*
X435000Y289485*
Y290515*
X439485Y295000*
X440515*
X443900Y298385*
Y306100*
X370000Y276800D02*
X377874D01*
X385274Y284200*
X407635*
X430000Y306565*
Y310000*
X364550Y273050D02*
Y273175D01*
X367600*
Y273300*
X112000Y295500D02*
X112075Y295575D01*
X108650Y293000D02*
X109000D01*
Y288000*
X119500Y287500D02*
Y290000D01*
X122000Y292500*
Y292650*
X115350Y293000D02*
X116000D01*
Y287600*
X189000Y284000D02*
X268569D01*
X278853Y273715*
X281615*
X292000Y284100*
Y293000*
X235500Y278500D02*
Y278250D01*
X239650*
Y278000*
X253650D02*
Y278025D01*
X253825*
X256875Y274975*
X256900Y275000*
X260350Y278000D02*
Y278300D01*
X264700*
Y278600*
X334650Y278000D02*
Y284000D01*
X354559Y280047D02*
X352056Y277544D01*
X354600Y275000*
X359450*
X352000Y277600D02*
X352056Y277544D01*
X341350Y284000D02*
X344500D01*
X346453Y285953*
X349441*
X341350Y278000D02*
X341500D01*
X346500Y283000*
X349047*
X354559Y285953D02*
X358206Y289600D01*
X360497*
X362097Y288000*
X349441Y285953D02*
X349569D01*
Y285825*
X352672Y288928*
X352800Y288800*
X349441Y280047D02*
Y276158D01*
X350600Y274999*
Y272100*
X358000Y283000D02*
Y286850D01*
X359150Y288000*
X359450*
X362097D02*
X368450D01*
X371600Y285400D02*
Y288300D01*
X373250Y289950*
X373550*
X371600Y285400D02*
X374500Y282500D01*
X372200Y279500D02*
X376467D01*
X382667Y285700*
X407438*
X424600Y302862*
Y310115*
X429485Y315000*
X435000*
X440000Y320000*
X374500Y282500D02*
X385900Y293900D01*
X402842*
X405242Y291500*
X411541*
X422600Y302559*
Y312600*
X430000Y320000*
X358000Y282900D02*
Y283000D01*
X361000Y281000D02*
Y284400D01*
X362097Y285497*
Y288000*
X364550Y276950D02*
Y276875D01*
X370000*
Y276800*
X364550Y286050D02*
Y284350D01*
X365600Y283300*
Y281000*
X364550Y289950D02*
X369063D01*
X370350Y288663*
Y284250*
X372200Y282400*
Y279500*
X373550Y286050D02*
X377850Y290350D01*
X354953Y283000D02*
X358000D01*
X377700Y290500D02*
X377850Y290350D01*
X108650Y299000D02*
X112075Y295575D01*
X122000Y299350D02*
Y299400D01*
X125900*
X115350Y299000D02*
X115500D01*
X118900Y295600*
X280000Y310000D02*
X324653Y265347D01*
X343553*
X350700Y258200*
X413400*
Y258000*
X290000Y310000D02*
X305100Y294900D01*
X380949*
X382349Y296300*
X408100*
X300000Y310000D02*
X300300D01*
X306100Y304200*
X371315*
X373900Y301615*
Y300647*
X375847Y298700*
X402000*
X403800Y300500*
X350000Y310000D02*
X354200D01*
X358433Y305767*
X372033*
X376200Y301600*
X440000Y310000D02*
X443900Y306100D01*
X290000Y320000D02*
X295000Y315000D01*
Y309485*
X308385Y296100*
X379299*
X380699Y297500*
X405300*
X407300Y299500*
X280000Y320000D02*
X285000Y315000D01*
Y309485*
X300785Y293700*
X382662*
X384062Y295100*
X403808*
X405108Y293800*
X410400*
X300000Y320000D02*
X305000Y315000D01*
X370712*
X384712Y301000*
X399700*
G54D39*
G54D40*
X269000Y306250D02*
X268000D01*
Y313750*
X269000*
Y306250*
X268000Y307000D02*
X269000D01*
X268000Y310000D02*
X269000D01*
X268000Y313000D02*
X269000D01*
X268000Y306250D02*
Y313750D01*
X256000Y306250D02*
X255000D01*
Y313750*
X256000*
Y306250*
X255000Y307000D02*
X256000D01*
X255000Y310000D02*
X256000D01*
X255000Y313000D02*
X256000D01*
Y306250D02*
Y313750D01*
G54D41*
X293945Y272740D02*
X294200D01*
Y279800*
X293945Y265260D02*
X294600D01*
Y260700*
X293945Y265260D02*
X299540D01*
X303150Y261650*
X309000*
X286000D02*
Y261800D01*
X289460Y265260*
X293945*
X286000Y268350D02*
Y268500D01*
X290240Y272740*
X293945*
X301465Y269000D02*
X302055D01*
X297700Y269100D02*
Y269015D01*
X302055*
Y269000*
X309000*
Y268350*
X251100Y309900D02*
X255500D01*
Y310000*
X271700Y304000D02*
X272100D01*
X268500Y310000D02*
Y313146D01*
X271527Y316173*
X271600Y316100*
X268500Y310000D02*
Y307600D01*
X272100Y304000*
G54D42*
X131900Y116600D03*
X162000Y110000D03*
X158000Y113000D03*
X180200Y107200D03*
X216900Y110700D03*
X255200Y104300D03*
X145300Y123700D03*
X191000Y133000D03*
X178600Y136300D03*
X185000Y136800D03*
X194900Y125400D03*
X200900D03*
X236000Y126700D03*
X255300Y133400D03*
X255000Y117400D03*
X255300Y126500D03*
X263000Y135500D03*
X374200Y136900D03*
X372000Y134000D03*
X374000Y125000D03*
X393000Y130000D03*
X390500Y133500D03*
X380500Y127000D03*
Y131600D03*
X109000Y141000D03*
X113000Y148500D03*
X165000Y149500D03*
X190500Y143400D03*
X213000Y148500D03*
X224000Y143000D03*
X235300Y153600D03*
X254400Y144000D03*
X244000Y142800D03*
X248800D03*
X240700D03*
X249800Y156600D03*
X257700Y144000D03*
X273300Y156200D03*
X288000Y145000D03*
X329000Y154300D03*
X348000Y148000D03*
X370600Y144900D03*
X368000Y142000D03*
X363100Y140200D03*
X403700Y155600D03*
X395500Y139300D03*
X204000Y162100D03*
X203500Y175200D03*
X226900Y157300D03*
X226500Y173500D03*
X227100Y162500D03*
X235300Y166300D03*
X235400Y175400D03*
X235300Y169800D03*
X243000Y175500D03*
X273100Y161800D03*
X273500Y165600D03*
X264600Y171800D03*
X273300Y169000D03*
X256900Y175300D03*
X274900Y159100D03*
X275800Y171500D03*
X288000Y157000D03*
X291500Y167800D03*
X298600Y164400D03*
X304200Y166500D03*
X295400Y175900D03*
X312800Y160300D03*
X308600Y175800D03*
X341000Y173100D03*
X348200Y164100D03*
X365900D03*
X355700Y176400D03*
X368200Y170600D03*
X412400Y169500D03*
X408900D03*
X405600Y160200D03*
X401200Y160900D03*
X207100Y195900D03*
X227100Y182500D03*
X235400Y178600D03*
X246300Y185000D03*
X235300Y193900D03*
X264900Y189700D03*
X273600Y178600D03*
X273000Y192400D03*
X273800Y183300D03*
X256900Y193400D03*
X287000Y189500D03*
X287700Y185900D03*
X292100Y191700D03*
X294500Y184000D03*
X295500Y192000D03*
X299000Y192200D03*
X301400Y194300D03*
X310800Y194000D03*
X321500Y182000D03*
X318500Y180000D03*
X327700Y178000D03*
X347300Y191600D03*
X348100Y187400D03*
X340600Y196700D03*
X349300Y177400D03*
X365900Y177800D03*
X360600Y189300D03*
X357400Y190700D03*
X373500Y190500D03*
X355000Y186800D03*
X393000Y190500D03*
X231800Y211600D03*
X235500Y198700D03*
X254400Y213900D03*
X235200Y211000D03*
X243400Y199100D03*
X257800Y214000D03*
X263800Y198900D03*
X264500Y202000D03*
X273200Y198200D03*
X272900Y202500D03*
X264300Y209200D03*
X264500Y206000D03*
X256900Y204900D03*
X277200Y215000D03*
X283600Y204700D03*
X303200Y215600D03*
X300300Y209800D03*
X308500Y210300D03*
X300100Y213200D03*
X310200Y213100D03*
X305200Y210000D03*
X343000Y199500D03*
X348100Y207000D03*
X350100Y209600D03*
X354100Y210200D03*
X348600Y214000D03*
X355200Y201900D03*
X363500Y205000D03*
X384200Y212300D03*
X394600Y201100D03*
X375100Y201500D03*
X382500Y205000D03*
X375000Y216500D03*
X397400Y216200D03*
X213000Y218500D03*
X226400Y232500D03*
X235300Y223600D03*
X243100Y221300D03*
X235300Y236000D03*
X244800Y228700D03*
X272700Y219600D03*
X269100Y218600D03*
X274500Y222300D03*
Y225500D03*
X274400Y228800D03*
X274500Y232000D03*
X275400Y235300D03*
X302600Y236400D03*
X306000Y218000D03*
X299100Y218100D03*
X303600Y220200D03*
X310300Y220300D03*
X350300Y222800D03*
X350600Y219500D03*
X348200Y232200D03*
X348000Y235500D03*
X347800Y217200D03*
X364200Y229800D03*
X388000Y228600D03*
X411800Y228300D03*
X408500Y226000D03*
Y235800D03*
Y218000D03*
X223300Y255300D03*
X227100Y252500D03*
X235600Y248600D03*
X249800Y256900D03*
X236400Y245400D03*
X235100Y242400D03*
X242900Y238700D03*
X264100Y256500D03*
X273300Y241300D03*
X264800Y247000D03*
X273200Y247200D03*
Y238000D03*
X257200Y245200D03*
X280500Y255500D03*
X286000D03*
X292500D03*
X300500Y248000D03*
X298000Y255500D03*
X306500Y237600D03*
X309800Y256400D03*
X350600Y239600D03*
X348000Y241600D03*
Y245400D03*
X353900Y250900D03*
X355500Y237200D03*
X371200Y250700D03*
X365100Y244900D03*
X389700Y250500D03*
X383800Y238100D03*
X384000Y244000D03*
X397800Y237800D03*
X165000Y275000D03*
X207000Y272500D03*
X235900Y267800D03*
X236300Y263200D03*
X249900Y274900D03*
X250100Y268900D03*
X263600Y269200D03*
X264700Y274200D03*
X273500Y273900D03*
X256900Y275000D03*
X257000Y257100D03*
X294600Y260700D03*
X297700Y269100D03*
X350600Y272100D03*
X341700Y258300D03*
X342200Y262600D03*
X350400Y262200D03*
X350600Y266800D03*
X353300Y263700D03*
X355600Y269200D03*
X356300Y261900D03*
X359200Y264400D03*
X362000Y266800D03*
X365200Y270100D03*
X366400Y264000D03*
X370000Y276800D03*
X367600Y273300D03*
X374300Y266700D03*
X413400Y258000D03*
X109000Y288000D03*
X112000Y295500D03*
X112400Y287600D03*
X119500Y287500D03*
X116000Y287600D03*
X118900Y295600D03*
X189000Y284000D03*
X235500Y278500D03*
X264700Y278600D03*
X294200Y279800D03*
X292000Y293000D03*
X352000Y277600D03*
X352800Y288800D03*
X372200Y279500D03*
X374500Y282500D03*
X358000Y282900D03*
X361000Y281000D03*
X365600D03*
X377700Y290500D03*
X408100Y296300D03*
X410400Y293800D03*
X125900Y299400D03*
X210300Y313500D03*
X251100Y309900D03*
X270700Y297900D03*
X271600Y316100D03*
X271700Y304000D03*
X376200Y301600D03*
X399700Y301000D03*
X403800Y300500D03*
X407300Y299500D03*
X197700Y317300D03*
X203700Y318600D03*
X270200Y321800D03*
G54D88*
X138575Y122693D02*
Y125449D01*
X141724*
Y122693*
X138575*
Y122835D02*
X141724D01*
X138575Y123622D02*
X141724D01*
X138575Y124409D02*
X141724D01*
X138575Y125197D02*
X141724D01*
X138583Y122693D02*
Y125449D01*
X139370Y122693D02*
Y125449D01*
X140157Y122693D02*
Y125449D01*
X140945Y122693D02*
Y125449D01*
X132276Y122693D02*
Y125449D01*
X135425*
Y122693*
X132276*
Y122835D02*
X135425D01*
X132276Y123622D02*
X135425D01*
X132276Y124409D02*
X135425D01*
X132276Y125197D02*
X135425D01*
X132283Y122693D02*
Y125449D01*
X133071Y122693D02*
Y125449D01*
X133858Y122693D02*
Y125449D01*
X134646Y122693D02*
Y125449D01*
X132276Y106551D02*
Y109307D01*
X135425*
Y106551*
X132276*
Y107087D02*
X135425D01*
X132276Y107874D02*
X135425D01*
X132276Y108661D02*
X135425D01*
X132283Y106551D02*
Y109307D01*
X133071Y106551D02*
Y109307D01*
X133858Y106551D02*
Y109307D01*
X134646Y106551D02*
Y109307D01*
X138575Y106551D02*
Y109307D01*
X141724*
Y106551*
X138575*
Y107087D02*
X141724D01*
X138575Y107874D02*
X141724D01*
X138575Y108661D02*
X141724D01*
X138583Y106551D02*
Y109307D01*
X139370Y106551D02*
Y109307D01*
X140157Y106551D02*
Y109307D01*
X140945Y106551D02*
Y109307D01*
G54D93*
X390000Y315000D03*
Y115000D03*
X115000Y315000D03*
Y115000D03*
G54D94*
G54D120*
X145000Y316811D03*
X388000Y173874D03*
G54D122*
X350228Y279260D02*
X348654D01*
Y280835*
X350228*
Y279260*
X348654Y279528D02*
X350228D01*
X348654Y279921D02*
X350228D01*
X348654Y280315D02*
X350228D01*
X348654Y280709D02*
X350228D01*
X348819Y279260D02*
Y280835D01*
X349213Y279260D02*
Y280835D01*
X349606Y279260D02*
Y280835D01*
X350000Y279260D02*
Y280835D01*
X348260Y282409D02*
Y283591D01*
X349835*
Y282409*
X348260*
Y282677D02*
X349835D01*
X348260Y283071D02*
X349835D01*
X348260Y283465D02*
X349835D01*
X348425Y282409D02*
Y283591D01*
X348819Y282409D02*
Y283591D01*
X349213Y282409D02*
Y283591D01*
X349606Y282409D02*
Y283591D01*
X350228Y285165D02*
X348654D01*
Y286740*
X350228*
Y285165*
X348654Y285433D02*
X350228D01*
X348654Y285827D02*
X350228D01*
X348654Y286220D02*
X350228D01*
X348654Y286614D02*
X350228D01*
X348819Y285165D02*
Y286740D01*
X349213Y285165D02*
Y286740D01*
X349606Y285165D02*
Y286740D01*
X350000Y285165D02*
Y286740D01*
X355346Y285165D02*
X353772D01*
Y286740*
X355346*
Y285165*
X353772Y285433D02*
X355346D01*
X353772Y285827D02*
X355346D01*
X353772Y286220D02*
X355346D01*
X353772Y286614D02*
X355346D01*
X353937Y285165D02*
Y286740D01*
X354331Y285165D02*
Y286740D01*
X354724Y285165D02*
Y286740D01*
X355118Y285165D02*
Y286740D01*
X354165Y282409D02*
Y283591D01*
X355740*
Y282409*
X354165*
Y282677D02*
X355740D01*
X354165Y283071D02*
X355740D01*
X354165Y283465D02*
X355740D01*
X354331Y282409D02*
Y283591D01*
X354724Y282409D02*
Y283591D01*
X355118Y282409D02*
Y283591D01*
X355512Y282409D02*
Y283591D01*
X355346Y279260D02*
X353772D01*
Y280835*
X355346*
Y279260*
X353772Y279528D02*
X355346D01*
X353772Y279921D02*
X355346D01*
X353772Y280315D02*
X355346D01*
X353772Y280709D02*
X355346D01*
X353937Y279260D02*
Y280835D01*
X354331Y279260D02*
Y280835D01*
X354724Y279260D02*
Y280835D01*
X355118Y279260D02*
Y280835D01*
G54D123*
X145000Y301063D02*
X195437D01*
X145000Y316811D02*
X179689D01*
X195437Y301063*
X205500Y291000*
X269000*
X280000Y280000*
G54D129*
X293945Y265260D03*
Y272740D03*
X302055Y269000D03*
X0Y0D02*
M02*
