*
*
G04 PADS9.1 Build Number: 384028 generated Gerber (RS-274-X) file*
G04 PC Version=2.1*
*
%IN "medulla.1.pcb"*%
*
%MOIN*%
*
%FSLAX35Y35*%
*
*
*
*
G04 PC Standard Apertures*
*
*
G04 Thermal Relief Aperture macro.*
%AMTER*
1,1,$1,0,0*
1,0,$1-$2,0,0*
21,0,$3,$4,0,0,45*
21,0,$3,$4,0,0,135*
%
*
*
G04 Annular Aperture macro.*
%AMANN*
1,1,$1,0,0*
1,0,$2,0,0*
%
*
*
G04 Odd Aperture macro.*
%AMODD*
1,1,$1,0,0*
1,0,$1-0.005,0,0*
%
*
*
G04 PC Custom Aperture Macros*
*
*
*
*
*
*
G04 PC Aperture Table*
*
%ADD010R,0.05118X0.05118*%
%ADD011C,0.05118*%
%ADD012R,0.05512X0.04724*%
%ADD013O,0.02362X0.06102*%
%ADD017O,0.04X0.043*%
%ADD018O,0.043X0.04*%
%ADD019R,0.06X0.055*%
%ADD020R,0.055X0.06*%
%ADD021R,0.06X0.06*%
%ADD022C,0.06*%
%ADD023R,0.065X0.065*%
%ADD024C,0.065*%
%ADD025C,0.17*%
%ADD026C,0.062*%
%ADD027C,0.09*%
%ADD029R,0.03X0.038*%
%ADD034C,0.01181*%
%ADD036R,0.08858X0.15748*%
%ADD038C,0.006*%
%ADD039C,0.01*%
%ADD041C,0.02*%
%ADD042C,0.025*%
%ADD052C,0.04*%
%ADD093C,0.25*%
%ADD094C,0.001*%
%ADD095O,0.01181X0.06299*%
%ADD096O,0.06299X0.01181*%
%ADD097O,0.01181X0.0315*%
%ADD098R,0.01181X0.04921*%
%ADD099O,0.045X0.014*%
%ADD100R,0.03543X0.03937*%
%ADD101R,0.126X0.08*%
%ADD102R,0.038X0.03*%
%ADD103O,0.05118X0.05906*%
%ADD104O,0.05118X0.09449*%
*
*
*
*
G04 PC Circuitry*
G04 Layer Name medulla.1.pcb - circuitry*
%LPD*%
*
G54D94*
G01X342248Y282950D02*
X334007D01*
X332527Y282527*
X331472Y282105*
X330416Y281261*
X329573Y280417*
X328941Y279153*
X328517Y277459*
X328306Y275341*
X328306D02*
X328730Y272373D01*
X329153Y271104*
X329784Y269841*
X330837Y268999*
X331892Y268365*
X333371Y267943*
X335279Y267731*
X342248*
Y282950*
X337667Y279383D02*
Y271298D01*
X337617Y271248*
X336340*
X336333*
X334844Y271461*
X334825Y271468*
X333762Y272106*
X333743Y272127*
X333104Y273403*
X333099Y273420*
X332886Y275335*
Y275340*
Y277043*
X332891Y277065*
X333743Y278767*
X333752Y278780*
X334177Y279206*
X334201Y279219*
X335052Y279431*
X335064Y279433*
X337617*
X337667Y279383*
X342433Y290640D02*
X342271Y290882D01*
X342117Y291036*
X341728*
X341573Y290882*
X341412Y290640*
Y288845*
Y288839*
X341325Y288149*
Y288145*
X341239Y287714*
X341225Y287689*
X340880Y287344*
X340853Y287330*
X340336Y287244*
X340312Y287246*
X340053Y287332*
X340047Y287335*
X339874Y287421*
X339852Y287443*
X339679Y287788*
X339674Y287810*
Y290640*
X339513Y290882*
X339359Y291036*
X338969*
X338815Y290882*
X338653Y290640*
Y288241*
X338650Y288223*
X338477Y287792*
X338471Y287780*
X338212Y287436*
X338188Y287418*
X337671Y287246*
X337637Y287247*
X337206Y287419*
X337179Y287443*
X337007Y287788*
X337002Y287810*
Y290388*
X336836Y290887*
X336686Y291036*
X336210*
X336056Y290882*
X335895Y290640*
Y287561*
X336062Y287144*
X336227Y286897*
X336556Y286650*
X336890Y286566*
X337310Y286482*
X338065Y286650*
X338746Y287161*
X338811Y287156*
X339319Y286649*
X339983Y286482*
X340742Y286651*
X341074Y286817*
X341413Y287156*
X341498Y287121*
Y287044*
X341660Y286640*
X341966Y286487*
X342269Y286639*
X342433Y287129*
Y290640*
X334932Y288759D02*
X334763Y289690D01*
X334342Y290447*
X333671Y290866*
X332739Y291036*
X331893Y290951*
X331219Y290614*
X330891Y290286*
X330810Y289883*
X330884Y289660*
X331103Y289587*
X331335Y289664*
X331672Y290001*
X331685Y290010*
X332374Y290355*
X332397Y290360*
X332741*
X332757Y290358*
X333274Y290185*
X333290Y290177*
X333721Y289832*
X333738Y289805*
X333911Y289116*
X333862Y289053*
X331198*
X330963Y288975*
X330805Y288738*
X330724Y288413*
X330807Y287996*
X330977Y287487*
X331228Y287068*
X331645Y286734*
X332149Y286566*
X332740Y286482*
X333669Y286651*
X334342Y287155*
X334763Y287829*
X334932Y288759*
X333912Y288414D02*
X333911Y288406D01*
X333825Y287888*
X333816Y287867*
X333557Y287522*
X333540Y287507*
X333195Y287335*
X333185Y287331*
X332840Y287245*
X332818Y287244*
X332387Y287330*
X332374Y287335*
X332029Y287507*
X332007Y287529*
X331835Y287874*
X331830Y287888*
X331744Y288406*
X331743Y288414*
X331793Y288464*
X333862*
X333912Y288414*
X325652Y282950D02*
X321071D01*
Y276617*
X321021Y276567*
X320596*
X320577Y276571*
X319513Y276996*
X319497Y277007*
X319071Y277433*
X319065Y277440*
X318639Y278079*
X318637Y278082*
X315886Y282950*
X310891*
X313193Y278556*
X313827Y277499*
X314668Y276658*
X315086Y276449*
X315092Y276446*
X315730Y276020*
X315714Y275930*
X314865Y275718*
X314236Y275508*
X313397Y274879*
X312767Y274039*
X312346Y272986*
X312136Y271935*
X312347Y270460*
X312766Y269411*
X313603Y268575*
X314652Y268155*
X315922Y267943*
X317833Y267731*
X325652*
Y282950*
X321071Y273638D02*
Y270660D01*
X321021Y270610*
X318894*
X318884Y270611*
X317820Y270823*
X317814Y270825*
X317176Y271038*
X317156Y271050*
X316731Y271475*
X316716Y271511*
Y272149*
X316717Y272161*
X316930Y273012*
X316956Y273045*
X317807Y273470*
X317818Y273474*
X318669Y273687*
X318681Y273688*
X321021*
X321071Y273638*
X329932Y288672D02*
X329762Y289606D01*
X329424Y290366*
X328834Y290872*
X328505Y291036*
X328090*
X327585Y290952*
X327081Y290700*
X326656Y290275*
X326571Y290310*
Y290473*
X326410Y290875*
X326020Y291031*
X325702Y290873*
X325550Y290721*
Y285405*
X325713Y284915*
X326021Y284761*
X326257Y284839*
X326407Y284915*
X326571Y285405*
Y287121*
X326651Y287161*
X327332Y286650*
X328086Y286482*
X328841Y286650*
X329426Y287068*
X329762Y287740*
X329932Y288672*
X328912Y288759D02*
X328911Y288748D01*
X328738Y287972*
X328731Y287955*
X328386Y287438*
X328361Y287418*
X327843Y287246*
X327814Y287245*
X327210Y287417*
X327186Y287434*
X326755Y287951*
X326743Y287977*
X326657Y288753*
Y288759*
Y289190*
X326658Y289199*
X326744Y289630*
X326751Y289648*
X326751D02*
X326924Y289907D01*
X326938Y289921*
X327455Y290266*
X327483Y290274*
X328086*
X328114Y290266*
X328373Y290093*
X328380Y290087*
X328553Y289915*
X328562Y289902*
X328734Y289557*
X328738Y289545*
X328911Y288769*
X328912Y288759*
X324243Y289445D02*
X324158Y290043D01*
X324075Y290456*
X323581Y290868*
X322826Y291035*
X322239Y290952*
X321737Y290700*
X321311Y290275*
X321226Y290310*
Y290473*
X321064Y290878*
X320759Y291030*
X320443Y290873*
X320291Y290721*
Y287129*
X320455Y286639*
X320761Y286486*
X321150Y286641*
X321312Y287129*
Y289190*
X321313Y289199*
X321399Y289630*
X321409Y289652*
X321754Y290083*
X321771Y290096*
X322116Y290269*
X322138Y290274*
X322655*
X322691Y290259*
X322863Y290087*
X322870Y290077*
X323129Y289646*
X323136Y289627*
X323222Y288937*
Y288931*
Y286877*
X323378Y286644*
X323774Y286486*
X324086Y286642*
X324243Y286877*
Y289445*
X319071Y290388D02*
X318905Y290887D01*
X318755Y291036*
X318366*
X318050Y290721*
Y285153*
X318205Y284920*
X318601Y284762*
X318907Y284915*
X319071Y285405*
Y290388*
X316743D02*
X316577Y290887D01*
X316428Y291036*
X316038*
X315722Y290721*
Y285153*
X315878Y284920*
X316274Y284762*
X316580Y284915*
X316743Y285405*
Y290388*
X314673Y289792D02*
X314507Y290455D01*
X314007Y290872*
X313678Y291036*
X313264*
X312411Y290866*
X311991Y290698*
X311566Y290358*
X311490Y290374*
X311321Y290712*
X310997Y291036*
X310854*
X310454Y290876*
X310378Y290647*
Y290489*
X310462Y290150*
X310463Y290144*
X310550Y289454*
Y289448*
Y287648*
X310716Y287232*
X310967Y286898*
X311296Y286651*
X311800Y286567*
X312482Y286481*
X313079Y286567*
X313586Y286651*
X314003Y286902*
X314254Y287153*
X314420Y287401*
X314498Y287634*
X314345Y287940*
X314036Y288017*
X313803Y287939*
X313208Y287344*
X313185Y287331*
X312840Y287245*
X312828Y287243*
X312483*
X312473Y287244*
X312042Y287330*
X312036Y287332*
X311777Y287418*
X311746Y287450*
X311659Y287708*
X311658Y287712*
X311572Y288057*
X311609Y288117*
X312298Y288290*
X312299*
X312299D02*
X313075Y288462D01*
X313419Y288549*
X313431Y288550*
X313595*
X314094Y288716*
X314424Y289047*
X314590Y289378*
X314673Y289792*
X313651Y289691D02*
X313565Y289432D01*
X313562Y289426*
X313476Y289254*
X313476D02*
X313453Y289231D01*
X313109Y289059*
X313102Y289056*
X312843Y288970*
X312837Y288968*
X311976Y288796*
X311633Y288710*
X311571Y288759*
Y289448*
X311576Y289471*
X311748Y289815*
X311762Y289832*
X312193Y290177*
X312210Y290186*
X312814Y290358*
X312828Y290360*
X313172*
X313200Y290352*
X313459Y290180*
X313476Y290160*
X313562Y289988*
X313565Y289981*
X313651Y289723*
Y289691*
X309269Y282950D02*
X297241D01*
Y279220*
X304638*
X304688Y279170*
Y267731*
X309269*
Y282950*
X309154Y290483D02*
X309074Y290722D01*
X308993Y290884*
X308841Y291036*
X308366*
X308050Y290721*
Y290245*
X308201Y290094*
X308605Y289933*
X308843Y290012*
X308997Y290089*
X309074Y290243*
X309154Y290483*
X306735Y286945D02*
X306585Y287171D01*
X306347Y287329*
X306115*
X305785Y287164*
X305444Y286908*
X305442Y286907*
X304924Y286562*
X304847Y286603*
Y290721*
X304531Y291036*
X304387*
X304140Y290954*
X303983Y290875*
X303826Y290640*
Y285487*
X303907Y285001*
X304295Y284846*
X304516Y284920*
X304593Y285074*
X304596Y285079*
X304769Y285338*
X304775Y285346*
X305292Y285863*
X305298Y285868*
X305642Y286126*
X305650Y286131*
X306165Y286388*
X306421Y286559*
X306426Y286562*
X306583Y286641*
X306735Y286945*
X297300Y279220D02*
Y282950D01*
X297400Y279220D02*
Y282950D01*
X297500Y279220D02*
Y282950D01*
X297600Y279220D02*
Y282950D01*
X297700Y279220D02*
Y282950D01*
X297800Y279220D02*
Y282950D01*
X297900Y279220D02*
Y282950D01*
X298000Y279220D02*
Y282950D01*
X298100Y279220D02*
Y282950D01*
X298200Y279220D02*
Y282950D01*
X298300Y279220D02*
Y282950D01*
X298400Y279220D02*
Y282950D01*
X298500Y279220D02*
Y282950D01*
X298600Y279220D02*
Y282950D01*
X298700Y279220D02*
Y282950D01*
X298800Y279220D02*
Y282950D01*
X298900Y279220D02*
Y282950D01*
X299000Y279220D02*
Y282950D01*
X299100Y279220D02*
Y282950D01*
X299200Y279220D02*
Y282950D01*
X299300Y279220D02*
Y282950D01*
X299400Y279220D02*
Y282950D01*
X299500Y279220D02*
Y282950D01*
X299600Y279220D02*
Y282950D01*
X299700Y279220D02*
Y282950D01*
X299800Y279220D02*
Y282950D01*
X299900Y279220D02*
Y282950D01*
X300000Y279220D02*
Y282950D01*
X300100Y279220D02*
Y282950D01*
X300200Y279220D02*
Y282950D01*
X300300Y279220D02*
Y282950D01*
X300400Y279220D02*
Y282950D01*
X300500Y279220D02*
Y282950D01*
X300600Y279220D02*
Y282950D01*
X300700Y279220D02*
Y282950D01*
X300800Y279220D02*
Y282950D01*
X300900Y279220D02*
Y282950D01*
X301000Y279220D02*
Y282950D01*
X301100Y279220D02*
Y282950D01*
X301200Y279220D02*
Y282950D01*
X301300Y279220D02*
Y282950D01*
X301400Y279220D02*
Y282950D01*
X301500Y279220D02*
Y282950D01*
X301600Y279220D02*
Y282950D01*
X301700Y279220D02*
Y282950D01*
X301800Y279220D02*
Y282950D01*
X301900Y279220D02*
Y282950D01*
X302000Y279220D02*
Y282950D01*
X302100Y279220D02*
Y282950D01*
X302200Y279220D02*
Y282950D01*
X302300Y279220D02*
Y282950D01*
X302400Y279220D02*
Y282950D01*
X302500Y279220D02*
Y282950D01*
X302600Y279220D02*
Y282950D01*
X302700Y279220D02*
Y282950D01*
X302800Y279220D02*
Y282950D01*
X302900Y279220D02*
Y282950D01*
X303000Y279220D02*
Y282950D01*
X303100Y279220D02*
Y282950D01*
X303200Y279220D02*
Y282950D01*
X303300Y279220D02*
Y282950D01*
X303400Y279220D02*
Y282950D01*
X303500Y279220D02*
Y282950D01*
X303600Y279220D02*
Y282950D01*
X303700Y279220D02*
Y282950D01*
X303800Y279220D02*
Y282950D01*
X303900Y279220D02*
Y282950D01*
Y285042D02*
Y290751D01*
X304000Y279220D02*
Y282950D01*
Y284964D02*
Y290884D01*
X304100Y279220D02*
Y282950D01*
Y284924D02*
Y290934D01*
X304200Y279220D02*
Y282950D01*
Y284884D02*
Y290974D01*
X304300Y279220D02*
Y282950D01*
Y284848D02*
Y291007D01*
X304400Y279220D02*
Y282950D01*
Y284881D02*
Y291036D01*
X304500Y279220D02*
Y282950D01*
Y284915D02*
Y291036D01*
X304600Y279220D02*
Y282950D01*
Y285085D02*
Y290967D01*
X304700Y267731D02*
Y282950D01*
Y285235D02*
Y290867D01*
X304800Y267731D02*
Y282950D01*
Y285371D02*
Y290767D01*
X304900Y267731D02*
Y282950D01*
Y285471D02*
Y286554D01*
X305000Y267731D02*
Y282950D01*
Y285571D02*
Y286612D01*
X305100Y267731D02*
Y282950D01*
Y285671D02*
Y286679D01*
X305200Y267731D02*
Y282950D01*
Y285771D02*
Y286746D01*
X305300Y267731D02*
Y282950D01*
Y285869D02*
Y286812D01*
X305400Y267731D02*
Y282950D01*
Y285944D02*
Y286879D01*
X305500Y267731D02*
Y282950D01*
Y286019D02*
Y286950D01*
X305600Y267731D02*
Y282950D01*
Y286094D02*
Y287025D01*
X305700Y267731D02*
Y282950D01*
Y286156D02*
Y287100D01*
X305800Y267731D02*
Y282950D01*
Y286206D02*
Y287172D01*
X305900Y267731D02*
Y282950D01*
Y286256D02*
Y287222D01*
X306000Y267731D02*
Y282950D01*
Y286306D02*
Y287272D01*
X306100Y267731D02*
Y282950D01*
Y286356D02*
Y287322D01*
X306200Y267731D02*
Y282950D01*
Y286412D02*
Y287329D01*
X306300Y267731D02*
Y282950D01*
Y286478D02*
Y287329D01*
X306400Y267731D02*
Y282950D01*
Y286545D02*
Y287294D01*
X306500Y267731D02*
Y282950D01*
Y286599D02*
Y287227D01*
X306600Y267731D02*
Y282950D01*
Y286674D02*
Y287148D01*
X306700Y267731D02*
Y282950D01*
Y286874D02*
Y286998D01*
X306800Y267731D02*
Y282950D01*
X306900Y267731D02*
Y282950D01*
X307000Y267731D02*
Y282950D01*
X307100Y267731D02*
Y282950D01*
X307200Y267731D02*
Y282950D01*
X307300Y267731D02*
Y282950D01*
X307400Y267731D02*
Y282950D01*
X307500Y267731D02*
Y282950D01*
X307600Y267731D02*
Y282950D01*
X307700Y267731D02*
Y282950D01*
X307800Y267731D02*
Y282950D01*
X307900Y267731D02*
Y282950D01*
X308000Y267731D02*
Y282950D01*
X308100Y267731D02*
Y282950D01*
Y290195D02*
Y290771D01*
X308200Y267731D02*
Y282950D01*
Y290095D02*
Y290871D01*
X308300Y267731D02*
Y282950D01*
Y290055D02*
Y290971D01*
X308400Y267731D02*
Y282950D01*
Y290015D02*
Y291036D01*
X308500Y267731D02*
Y282950D01*
Y289975D02*
Y291036D01*
X308600Y267731D02*
Y282950D01*
Y289935D02*
Y291036D01*
X308700Y267731D02*
Y282950D01*
Y289964D02*
Y291036D01*
X308800Y267731D02*
Y282950D01*
Y289998D02*
Y291036D01*
X308900Y267731D02*
Y282950D01*
Y290040D02*
Y290978D01*
X309000Y267731D02*
Y282950D01*
Y290095D02*
Y290871D01*
X309100Y267731D02*
Y282950D01*
Y290320D02*
Y290645D01*
X309200Y267731D02*
Y282950D01*
X310400Y290399D02*
Y290714D01*
X310500Y289851D02*
Y290894D01*
X310600Y287523D02*
Y290934D01*
X310700Y287273D02*
Y290974D01*
X310800Y287120D02*
Y291014D01*
X310900Y282933D02*
Y282950D01*
Y286987D02*
Y291036D01*
X311000Y282742D02*
Y282950D01*
Y286873D02*
Y291033D01*
X311100Y282551D02*
Y282950D01*
Y286798D02*
Y290933D01*
X311200Y282360D02*
Y282950D01*
Y286723D02*
Y290833D01*
X311300Y282169D02*
Y282950D01*
Y286650D02*
Y290733D01*
X311400Y281979D02*
Y282950D01*
Y286633D02*
Y290554D01*
X311500Y281788D02*
Y282950D01*
Y286617D02*
Y290360D01*
X311600Y281597D02*
Y282950D01*
Y286600D02*
Y287946D01*
Y288114D02*
Y288713D01*
Y289519D02*
Y290385D01*
X311700Y281406D02*
Y282950D01*
Y286583D02*
Y287587D01*
Y288140D02*
Y288727D01*
Y289719D02*
Y290465D01*
X311800Y281215D02*
Y282950D01*
Y286567D02*
Y287411D01*
Y288165D02*
Y288752D01*
Y289863D02*
Y290545D01*
X311900Y281024D02*
Y282950D01*
Y286554D02*
Y287377D01*
Y288190D02*
Y288777D01*
Y289943D02*
Y290625D01*
X312000Y280833D02*
Y282950D01*
Y286542D02*
Y287344D01*
Y288215D02*
Y288801D01*
Y290023D02*
Y290701D01*
X312100Y280642D02*
Y282950D01*
Y286529D02*
Y287319D01*
Y288240D02*
Y288821D01*
Y290103D02*
Y290741D01*
X312200Y271485D02*
Y272256D01*
Y280451D02*
Y282950D01*
Y286517D02*
Y287299D01*
Y288265D02*
Y288841D01*
Y290182D02*
Y290781D01*
X312300Y270785D02*
Y272756D01*
Y280260D02*
Y282950D01*
Y286504D02*
Y287279D01*
Y288290D02*
Y288861D01*
Y290212D02*
Y290821D01*
X312400Y270326D02*
Y273121D01*
Y280069D02*
Y282950D01*
Y286492D02*
Y287259D01*
Y288313D02*
Y288881D01*
Y290240D02*
Y290861D01*
X312500Y270076D02*
Y273371D01*
Y279879D02*
Y282950D01*
Y286484D02*
Y287243D01*
Y288335D02*
Y288901D01*
Y290269D02*
Y290883D01*
X312600Y269826D02*
Y273621D01*
Y279688D02*
Y282950D01*
Y286498D02*
Y287243D01*
Y288357D02*
Y288921D01*
Y290297D02*
Y290903D01*
X312700Y269576D02*
Y273871D01*
Y279497D02*
Y282950D01*
Y286513D02*
Y287243D01*
Y288379D02*
Y288941D01*
Y290326D02*
Y290923D01*
X312800Y269377D02*
Y274083D01*
Y279306D02*
Y282950D01*
Y286527D02*
Y287243D01*
Y288401D02*
Y288961D01*
Y290354D02*
Y290943D01*
X312900Y269277D02*
Y274216D01*
Y279115D02*
Y282950D01*
Y286541D02*
Y287260D01*
Y288424D02*
Y288989D01*
Y290360D02*
Y290963D01*
X313000Y269177D02*
Y274349D01*
Y278924D02*
Y282950D01*
Y286555D02*
Y287285D01*
Y288446D02*
Y289022D01*
Y290360D02*
Y290983D01*
X313100Y269077D02*
Y274483D01*
Y278733D02*
Y282950D01*
Y286570D02*
Y287310D01*
Y288469D02*
Y289055D01*
Y290360D02*
Y291003D01*
X313200Y268977D02*
Y274616D01*
Y278544D02*
Y282950D01*
Y286587D02*
Y287338D01*
Y288494D02*
Y289104D01*
Y290352D02*
Y291023D01*
X313300Y268877D02*
Y274749D01*
Y278377D02*
Y282950D01*
Y286604D02*
Y287436D01*
Y288519D02*
Y289154D01*
Y290285D02*
Y291036D01*
X313400Y268777D02*
Y274881D01*
Y278211D02*
Y282950D01*
Y286620D02*
Y287536D01*
Y288544D02*
Y289204D01*
Y290219D02*
Y291036D01*
X313500Y268677D02*
Y274956D01*
Y278044D02*
Y282950D01*
Y286637D02*
Y287636D01*
Y288550D02*
Y289302D01*
Y290112D02*
Y291036D01*
X313600Y268577D02*
Y275031D01*
Y277877D02*
Y282950D01*
Y286660D02*
Y287736D01*
Y288552D02*
Y289538D01*
Y289875D02*
Y291036D01*
X313700Y268536D02*
Y275106D01*
Y277711D02*
Y282950D01*
Y286720D02*
Y287836D01*
Y288585D02*
Y291025D01*
X313800Y268496D02*
Y275181D01*
Y277544D02*
Y282950D01*
Y286780D02*
Y287936D01*
Y288618D02*
Y290975D01*
X313900Y268456D02*
Y275256D01*
Y277426D02*
Y282950D01*
Y286840D02*
Y287971D01*
Y288652D02*
Y290925D01*
X314000Y268416D02*
Y275331D01*
Y277326D02*
Y282950D01*
Y286900D02*
Y288005D01*
Y288685D02*
Y290875D01*
X314100Y268376D02*
Y275406D01*
Y277226D02*
Y282950D01*
Y286998D02*
Y288001D01*
Y288722D02*
Y290794D01*
X314200Y268336D02*
Y275481D01*
Y277126D02*
Y282950D01*
Y287098D02*
Y287976D01*
Y288822D02*
Y290711D01*
X314300Y268296D02*
Y275530D01*
Y277026D02*
Y282950D01*
Y287221D02*
Y287951D01*
Y288922D02*
Y290627D01*
X314400Y268256D02*
Y275563D01*
Y276926D02*
Y282950D01*
Y287371D02*
Y287830D01*
Y289022D02*
Y290544D01*
X314500Y268216D02*
Y275596D01*
Y276826D02*
Y282950D01*
Y289198D02*
Y290461D01*
X314600Y268176D02*
Y275630D01*
Y276726D02*
Y282950D01*
Y289427D02*
Y290084D01*
X314700Y268147D02*
Y275663D01*
Y276642D02*
Y282950D01*
X314800Y268130D02*
Y275696D01*
Y276592D02*
Y282950D01*
X314900Y268113D02*
Y275727D01*
Y276542D02*
Y282950D01*
X315000Y268097D02*
Y275752D01*
Y276492D02*
Y282950D01*
X315100Y268080D02*
Y275777D01*
Y276440D02*
Y282950D01*
X315200Y268063D02*
Y275802D01*
Y276374D02*
Y282950D01*
X315300Y268047D02*
Y275827D01*
Y276307D02*
Y282950D01*
X315400Y268030D02*
Y275852D01*
Y276240D02*
Y282950D01*
X315500Y268013D02*
Y275877D01*
Y276174D02*
Y282950D01*
X315600Y267997D02*
Y275902D01*
Y276107D02*
Y282950D01*
X315700Y267980D02*
Y275927D01*
Y276040D02*
Y282950D01*
X315800Y267963D02*
Y282950D01*
Y285037D02*
Y290798D01*
X315900Y267947D02*
Y282925D01*
Y284911D02*
Y290898D01*
X316000Y267934D02*
Y282748D01*
Y284871D02*
Y290998D01*
X316100Y267923D02*
Y282571D01*
Y284831D02*
Y291036D01*
X316200Y267912D02*
Y282394D01*
Y284791D02*
Y291036D01*
X316300Y267901D02*
Y282217D01*
Y284775D02*
Y291036D01*
X316400Y267890D02*
Y282040D01*
Y284825D02*
Y291036D01*
X316500Y267879D02*
Y281863D01*
Y284875D02*
Y290964D01*
X316600Y267868D02*
Y281686D01*
Y284975D02*
Y290818D01*
X316700Y267857D02*
Y281509D01*
Y285275D02*
Y290518D01*
X316800Y267846D02*
Y271406D01*
Y272491D02*
Y281332D01*
X316900Y267834D02*
Y271306D01*
Y272891D02*
Y281156D01*
X317000Y267823D02*
Y271206D01*
Y273067D02*
Y280979D01*
X317100Y267812D02*
Y271106D01*
Y273117D02*
Y280802D01*
X317200Y267801D02*
Y271030D01*
Y273167D02*
Y280625D01*
X317300Y267790D02*
Y270996D01*
Y273217D02*
Y280448D01*
X317400Y267779D02*
Y270963D01*
Y273267D02*
Y280271D01*
X317500Y267768D02*
Y270930D01*
Y273317D02*
Y280094D01*
X317600Y267757D02*
Y270896D01*
Y273367D02*
Y279917D01*
X317700Y267746D02*
Y270863D01*
Y273417D02*
Y279740D01*
X317800Y267734D02*
Y270830D01*
Y273467D02*
Y279563D01*
X317900Y267731D02*
Y270807D01*
Y273495D02*
Y279386D01*
X318000Y267731D02*
Y270787D01*
Y273520D02*
Y279209D01*
X318100Y267731D02*
Y270767D01*
Y273545D02*
Y279032D01*
Y285078D02*
Y290771D01*
X318200Y267731D02*
Y270747D01*
Y273570D02*
Y278856D01*
Y284928D02*
Y290871D01*
X318300Y267731D02*
Y270727D01*
Y273595D02*
Y278679D01*
Y284882D02*
Y290971D01*
X318400Y267731D02*
Y270707D01*
Y273620D02*
Y278502D01*
Y284842D02*
Y291036D01*
X318500Y267731D02*
Y270687D01*
Y273645D02*
Y278325D01*
Y284802D02*
Y291036D01*
X318600Y267731D02*
Y270667D01*
Y273670D02*
Y278148D01*
Y284762D02*
Y291036D01*
X318700Y267731D02*
Y270647D01*
Y273688D02*
Y277988D01*
Y284811D02*
Y291036D01*
X318800Y267731D02*
Y270627D01*
Y273688D02*
Y277838D01*
Y284861D02*
Y290991D01*
X318900Y267731D02*
Y270610D01*
Y273688D02*
Y277688D01*
Y284911D02*
Y290891D01*
X319000Y267731D02*
Y270610D01*
Y273688D02*
Y277538D01*
Y285193D02*
Y290601D01*
X319100Y267731D02*
Y270610D01*
Y273688D02*
Y277404D01*
X319200Y267731D02*
Y270610D01*
Y273688D02*
Y277304D01*
X319300Y267731D02*
Y270610D01*
Y273688D02*
Y277204D01*
X319400Y267731D02*
Y270610D01*
Y273688D02*
Y277104D01*
X319500Y267731D02*
Y270610D01*
Y273688D02*
Y277004D01*
X319600Y267731D02*
Y270610D01*
Y273688D02*
Y276961D01*
X319700Y267731D02*
Y270610D01*
Y273688D02*
Y276921D01*
X319800Y267731D02*
Y270610D01*
Y273688D02*
Y276881D01*
X319900Y267731D02*
Y270610D01*
Y273688D02*
Y276841D01*
X320000Y267731D02*
Y270610D01*
Y273688D02*
Y276801D01*
X320100Y267731D02*
Y270610D01*
Y273688D02*
Y276761D01*
X320200Y267731D02*
Y270610D01*
Y273688D02*
Y276721D01*
X320300Y267731D02*
Y270610D01*
Y273688D02*
Y276681D01*
Y287103D02*
Y290729D01*
X320400Y267731D02*
Y270610D01*
Y273688D02*
Y276641D01*
Y286803D02*
Y290829D01*
X320500Y267731D02*
Y270610D01*
Y273688D02*
Y276601D01*
Y286616D02*
Y290901D01*
X320600Y267731D02*
Y270610D01*
Y273688D02*
Y276567D01*
Y286566D02*
Y290951D01*
X320700Y267731D02*
Y270610D01*
Y273688D02*
Y276567D01*
Y286516D02*
Y291001D01*
X320800Y267731D02*
Y270610D01*
Y273688D02*
Y276567D01*
Y286501D02*
Y291010D01*
X320900Y267731D02*
Y270610D01*
Y273688D02*
Y276567D01*
Y286541D02*
Y290960D01*
X321000Y267731D02*
Y270610D01*
Y273688D02*
Y276567D01*
Y286581D02*
Y290910D01*
X321100Y267731D02*
Y282950D01*
Y286621D02*
Y290788D01*
X321200Y267731D02*
Y282950D01*
Y286793D02*
Y290538D01*
X321300Y267731D02*
Y282950D01*
Y287093D02*
Y290267D01*
X321400Y267731D02*
Y282950D01*
Y289634D02*
Y290364D01*
X321500Y267731D02*
Y282950D01*
Y289765D02*
Y290464D01*
X321600Y267731D02*
Y282950D01*
Y289890D02*
Y290564D01*
X321700Y267731D02*
Y282950D01*
Y290015D02*
Y290664D01*
X321800Y267731D02*
Y282950D01*
Y290111D02*
Y290732D01*
X321900Y267731D02*
Y282950D01*
Y290161D02*
Y290782D01*
X322000Y267731D02*
Y282950D01*
Y290211D02*
Y290832D01*
X322100Y267731D02*
Y282950D01*
Y290261D02*
Y290882D01*
X322200Y267731D02*
Y282950D01*
Y290274D02*
Y290932D01*
X322300Y267731D02*
Y282950D01*
Y290274D02*
Y290960D01*
X322400Y267731D02*
Y282950D01*
Y290274D02*
Y290975D01*
X322500Y267731D02*
Y282950D01*
Y290274D02*
Y290989D01*
X322600Y267731D02*
Y282950D01*
Y290274D02*
Y291003D01*
X322700Y267731D02*
Y282950D01*
Y290250D02*
Y291017D01*
X322800Y267731D02*
Y282950D01*
Y290150D02*
Y291032D01*
X322900Y267731D02*
Y282950D01*
Y290028D02*
Y291019D01*
X323000Y267731D02*
Y282950D01*
Y289862D02*
Y290997D01*
X323100Y267731D02*
Y282950D01*
Y289695D02*
Y290974D01*
X323200Y267731D02*
Y282950D01*
Y289113D02*
Y290952D01*
X323300Y267731D02*
Y282950D01*
Y286761D02*
Y290930D01*
X323400Y267731D02*
Y282950D01*
Y286635D02*
Y290908D01*
X323500Y267731D02*
Y282950D01*
Y286595D02*
Y290886D01*
X323600Y267731D02*
Y282950D01*
Y286555D02*
Y290852D01*
X323700Y267731D02*
Y282950D01*
Y286515D02*
Y290768D01*
X323800Y267731D02*
Y282950D01*
Y286499D02*
Y290685D01*
X323900Y267731D02*
Y282950D01*
Y286549D02*
Y290602D01*
X324000Y267731D02*
Y282950D01*
Y286599D02*
Y290518D01*
X324100Y267731D02*
Y282950D01*
Y286663D02*
Y290331D01*
X324200Y267731D02*
Y282950D01*
Y286813D02*
Y289746D01*
X324300Y267731D02*
Y282950D01*
X324400Y267731D02*
Y282950D01*
X324500Y267731D02*
Y282950D01*
X324600Y267731D02*
Y282950D01*
X324700Y267731D02*
Y282950D01*
X324800Y267731D02*
Y282950D01*
X324900Y267731D02*
Y282950D01*
X325000Y267731D02*
Y282950D01*
X325100Y267731D02*
Y282950D01*
X325200Y267731D02*
Y282950D01*
X325300Y267731D02*
Y282950D01*
X325400Y267731D02*
Y282950D01*
X325500Y267731D02*
Y282950D01*
X325600Y267731D02*
Y282950D01*
Y285255D02*
Y290771D01*
X325700Y284955D02*
Y290871D01*
X325800Y284871D02*
Y290922D01*
X325900Y284821D02*
Y290972D01*
X326000Y284771D02*
Y291022D01*
X326100Y284787D02*
Y290999D01*
X326200Y284821D02*
Y290959D01*
X326300Y284861D02*
Y290919D01*
X326400Y284911D02*
Y290879D01*
X326500Y285193D02*
Y290650D01*
X326600Y287166D02*
Y290265D01*
X326700Y287124D02*
Y288368D01*
Y289410D02*
Y290319D01*
X326800Y287049D02*
Y287896D01*
Y289721D02*
Y290419D01*
X326900Y286974D02*
Y287776D01*
Y289871D02*
Y290519D01*
X327000Y286899D02*
Y287656D01*
Y289962D02*
Y290619D01*
X327100Y286824D02*
Y287536D01*
Y290029D02*
Y290710D01*
X327200Y286749D02*
Y287422D01*
Y290096D02*
Y290760D01*
X327300Y286674D02*
Y287392D01*
Y290162D02*
Y290810D01*
X327400Y286635D02*
Y287363D01*
Y290229D02*
Y290860D01*
X327500Y286613D02*
Y287335D01*
Y290274D02*
Y290910D01*
X327600Y286590D02*
Y287306D01*
Y290274D02*
Y290954D01*
X327700Y286568D02*
Y287278D01*
Y290274D02*
Y290971D01*
X327800Y286546D02*
Y287249D01*
Y290274D02*
Y290988D01*
X327900Y286524D02*
Y287265D01*
Y290274D02*
Y291004D01*
X328000Y286501D02*
Y287298D01*
Y290274D02*
Y291021D01*
X328100Y286485D02*
Y287331D01*
Y290272D02*
Y291036D01*
X328200Y286508D02*
Y287365D01*
Y290208D02*
Y291036D01*
X328300Y286530D02*
Y287398D01*
Y290142D02*
Y291036D01*
X328400Y274681D02*
Y276285D01*
Y286552D02*
Y287458D01*
Y290067D02*
Y291036D01*
X328500Y273981D02*
Y277285D01*
Y286574D02*
Y287608D01*
Y289967D02*
Y291036D01*
X328600Y273281D02*
Y277790D01*
Y286596D02*
Y287758D01*
Y289826D02*
Y290989D01*
X328700Y272581D02*
Y278190D01*
Y286619D02*
Y287908D01*
Y289626D02*
Y290939D01*
X328800Y272162D02*
Y278590D01*
Y286641D02*
Y288249D01*
Y289268D02*
Y290889D01*
X328900Y271862D02*
Y278990D01*
Y286692D02*
Y288699D01*
Y288818D02*
Y290815D01*
X329000Y271562D02*
Y279271D01*
Y286763D02*
Y290730D01*
X329100Y271262D02*
Y279471D01*
Y286835D02*
Y290644D01*
X329200Y271010D02*
Y279671D01*
Y286906D02*
Y290558D01*
X329300Y270810D02*
Y279871D01*
Y286978D02*
Y290473D01*
X329400Y270610D02*
Y280071D01*
Y287049D02*
Y290387D01*
X329500Y270410D02*
Y280271D01*
Y287215D02*
Y290196D01*
X329600Y270210D02*
Y280444D01*
Y287415D02*
Y289971D01*
X329700Y270010D02*
Y280544D01*
Y287615D02*
Y289746D01*
X329800Y269828D02*
Y280644D01*
Y287947D02*
Y289398D01*
X329900Y269748D02*
Y280744D01*
Y288497D02*
Y288848D01*
X330000Y269668D02*
Y280844D01*
X330100Y269588D02*
Y280944D01*
X330200Y269508D02*
Y281044D01*
X330300Y269428D02*
Y281144D01*
X330400Y269348D02*
Y281244D01*
X330500Y269268D02*
Y281327D01*
X330600Y269188D02*
Y281407D01*
X330700Y269108D02*
Y281487D01*
X330800Y269028D02*
Y281567D01*
Y288031D02*
Y288718D01*
X330900Y268961D02*
Y281647D01*
Y287717D02*
Y288881D01*
Y289655D02*
Y290295D01*
X331000Y268901D02*
Y281727D01*
Y287448D02*
Y288988D01*
Y289622D02*
Y290395D01*
X331100Y268841D02*
Y281807D01*
Y287281D02*
Y289021D01*
Y289588D02*
Y290495D01*
X331200Y268781D02*
Y281887D01*
Y287114D02*
Y289053D01*
Y289619D02*
Y290595D01*
X331300Y268721D02*
Y281967D01*
Y287010D02*
Y289053D01*
Y289653D02*
Y290654D01*
X331400Y268661D02*
Y282047D01*
Y286930D02*
Y289053D01*
Y289729D02*
Y290704D01*
X331500Y268601D02*
Y282116D01*
Y286850D02*
Y289053D01*
Y289829D02*
Y290754D01*
X331600Y268541D02*
Y282156D01*
Y286770D02*
Y289053D01*
Y289929D02*
Y290804D01*
X331700Y268481D02*
Y282196D01*
Y286716D02*
Y289053D01*
Y290018D02*
Y290854D01*
X331800Y268421D02*
Y282236D01*
Y286683D02*
Y288068D01*
Y288464D02*
Y289053D01*
Y290068D02*
Y290904D01*
X331900Y268363D02*
Y282276D01*
Y286649D02*
Y287743D01*
Y288464D02*
Y289053D01*
Y290118D02*
Y290952D01*
X332000Y268335D02*
Y282316D01*
Y286616D02*
Y287543D01*
Y288464D02*
Y289053D01*
Y290168D02*
Y290962D01*
X332100Y268306D02*
Y282356D01*
Y286583D02*
Y287472D01*
Y288464D02*
Y289053D01*
Y290218D02*
Y290972D01*
X332200Y268278D02*
Y282396D01*
Y286559D02*
Y287422D01*
Y288464D02*
Y289053D01*
Y290268D02*
Y290982D01*
X332300Y268249D02*
Y282436D01*
Y286545D02*
Y287372D01*
Y288464D02*
Y289053D01*
Y290318D02*
Y290992D01*
X332400Y268220D02*
Y282476D01*
Y286530D02*
Y287328D01*
Y288464D02*
Y289053D01*
Y290360D02*
Y291002D01*
X332500Y268192D02*
Y282516D01*
Y286516D02*
Y287308D01*
Y288464D02*
Y289053D01*
Y290360D02*
Y291012D01*
X332600Y268163D02*
Y282548D01*
Y286502D02*
Y287288D01*
Y288464D02*
Y289053D01*
Y290360D02*
Y291022D01*
X332700Y268135D02*
Y282577D01*
Y286487D02*
Y287268D01*
Y288464D02*
Y289053D01*
Y290360D02*
Y291032D01*
X332800Y268106D02*
Y282605D01*
Y286493D02*
Y287248D01*
Y288464D02*
Y289053D01*
Y290344D02*
Y291025D01*
X332900Y268078D02*
Y275213D01*
Y277082D02*
Y282634D01*
Y286511D02*
Y287260D01*
Y288464D02*
Y289053D01*
Y290310D02*
Y291007D01*
X333000Y268049D02*
Y274313D01*
Y277282D02*
Y282662D01*
Y286529D02*
Y287285D01*
Y288464D02*
Y289053D01*
Y290277D02*
Y290988D01*
X333100Y268020D02*
Y273415D01*
Y277482D02*
Y282691D01*
Y286547D02*
Y287310D01*
Y288464D02*
Y289053D01*
Y290244D02*
Y290970D01*
X333200Y267992D02*
Y273212D01*
Y277682D02*
Y282719D01*
Y286565D02*
Y287337D01*
Y288464D02*
Y289053D01*
Y290210D02*
Y290952D01*
X333300Y267963D02*
Y273012D01*
Y277882D02*
Y282748D01*
Y286583D02*
Y287387D01*
Y288464D02*
Y289053D01*
Y290169D02*
Y290934D01*
X333400Y267940D02*
Y272812D01*
Y278082D02*
Y282777D01*
Y286602D02*
Y287437D01*
Y288464D02*
Y289053D01*
Y290089D02*
Y290916D01*
X333500Y267929D02*
Y272612D01*
Y278282D02*
Y282805D01*
Y286620D02*
Y287487D01*
Y288464D02*
Y289053D01*
Y290009D02*
Y290897D01*
X333600Y267917D02*
Y272412D01*
Y278482D02*
Y282834D01*
Y286638D02*
Y287579D01*
Y288464D02*
Y289053D01*
Y289929D02*
Y290879D01*
X333700Y267906D02*
Y272212D01*
Y278682D02*
Y282862D01*
Y286674D02*
Y287712D01*
Y288464D02*
Y289053D01*
Y289849D02*
Y290848D01*
X333800Y267895D02*
Y272083D01*
Y278828D02*
Y282891D01*
Y286749D02*
Y287845D01*
Y288464D02*
Y289053D01*
Y289558D02*
Y290786D01*
X333900Y267884D02*
Y272023D01*
Y278928D02*
Y282919D01*
Y286824D02*
Y288337D01*
Y288446D02*
Y289071D01*
Y289158D02*
Y290723D01*
X334000Y267873D02*
Y271963D01*
Y279028D02*
Y282948D01*
Y286899D02*
Y290661D01*
X334100Y267862D02*
Y271903D01*
Y279128D02*
Y282950D01*
Y286974D02*
Y290598D01*
X334200Y267851D02*
Y271843D01*
Y279219D02*
Y282950D01*
Y287049D02*
Y290536D01*
X334300Y267840D02*
Y271783D01*
Y279244D02*
Y282950D01*
Y287124D02*
Y290473D01*
X334400Y267829D02*
Y271723D01*
Y279269D02*
Y282950D01*
Y287248D02*
Y290343D01*
X334500Y267817D02*
Y271663D01*
Y279294D02*
Y282950D01*
Y287408D02*
Y290163D01*
X334600Y267806D02*
Y271603D01*
Y279319D02*
Y282950D01*
Y287568D02*
Y289983D01*
X334700Y267795D02*
Y271543D01*
Y279344D02*
Y282950D01*
Y287728D02*
Y289803D01*
X334800Y267784D02*
Y271483D01*
Y279369D02*
Y282950D01*
Y288033D02*
Y289484D01*
X334900Y267773D02*
Y271453D01*
Y279394D02*
Y282950D01*
Y288583D02*
Y288934D01*
X335000Y267762D02*
Y271439D01*
Y279419D02*
Y282950D01*
X335100Y267751D02*
Y271425D01*
Y279433D02*
Y282950D01*
X335200Y267740D02*
Y271410D01*
Y279433D02*
Y282950D01*
X335300Y267731D02*
Y271396D01*
Y279433D02*
Y282950D01*
X335400Y267731D02*
Y271382D01*
Y279433D02*
Y282950D01*
X335500Y267731D02*
Y271367D01*
Y279433D02*
Y282950D01*
X335600Y267731D02*
Y271353D01*
Y279433D02*
Y282950D01*
X335700Y267731D02*
Y271339D01*
Y279433D02*
Y282950D01*
X335800Y267731D02*
Y271325D01*
Y279433D02*
Y282950D01*
X335900Y267731D02*
Y271310D01*
Y279433D02*
Y282950D01*
Y287548D02*
Y290648D01*
X336000Y267731D02*
Y271296D01*
Y279433D02*
Y282950D01*
Y287298D02*
Y290798D01*
X336100Y267731D02*
Y271282D01*
Y279433D02*
Y282950D01*
Y287087D02*
Y290926D01*
X336200Y267731D02*
Y271267D01*
Y279433D02*
Y282950D01*
Y286937D02*
Y291026D01*
X336300Y267731D02*
Y271253D01*
Y279433D02*
Y282950D01*
Y286842D02*
Y291036D01*
X336400Y267731D02*
Y271248D01*
Y279433D02*
Y282950D01*
Y286767D02*
Y291036D01*
X336500Y267731D02*
Y271248D01*
Y279433D02*
Y282950D01*
Y286692D02*
Y291036D01*
X336600Y267731D02*
Y271248D01*
Y279433D02*
Y282950D01*
Y286639D02*
Y291036D01*
X336700Y267731D02*
Y271248D01*
Y279433D02*
Y282950D01*
Y286614D02*
Y291022D01*
X336800Y267731D02*
Y271248D01*
Y279433D02*
Y282950D01*
Y286589D02*
Y290922D01*
X336900Y267731D02*
Y271248D01*
Y279433D02*
Y282950D01*
Y286564D02*
Y290694D01*
X337000Y267731D02*
Y271248D01*
Y279433D02*
Y282950D01*
Y286544D02*
Y290394D01*
X337100Y267731D02*
Y271248D01*
Y279433D02*
Y282950D01*
Y286524D02*
Y287602D01*
X337200Y267731D02*
Y271248D01*
Y279433D02*
Y282950D01*
Y286504D02*
Y287422D01*
X337300Y267731D02*
Y271248D01*
Y279433D02*
Y282950D01*
Y286484D02*
Y287381D01*
X337400Y267731D02*
Y271248D01*
Y279433D02*
Y282950D01*
Y286502D02*
Y287341D01*
X337500Y267731D02*
Y271248D01*
Y279433D02*
Y282950D01*
Y286524D02*
Y287301D01*
X337600Y267731D02*
Y271248D01*
Y279433D02*
Y282950D01*
Y286547D02*
Y287261D01*
X337700Y267731D02*
Y282950D01*
Y286569D02*
Y287255D01*
X337800Y267731D02*
Y282950D01*
Y286591D02*
Y287289D01*
X337900Y267731D02*
Y282950D01*
Y286613D02*
Y287322D01*
X338000Y267731D02*
Y282950D01*
Y286636D02*
Y287355D01*
X338100Y267731D02*
Y282950D01*
Y286676D02*
Y287389D01*
X338200Y267731D02*
Y282950D01*
Y286751D02*
Y287424D01*
X338300Y267731D02*
Y282950D01*
Y286826D02*
Y287552D01*
X338400Y267731D02*
Y282950D01*
Y286901D02*
Y287686D01*
X338500Y267731D02*
Y282950D01*
Y286976D02*
Y287848D01*
X338600Y267731D02*
Y282950D01*
Y287051D02*
Y288098D01*
X338700Y267731D02*
Y282950D01*
Y287126D02*
Y290710D01*
X338800Y267731D02*
Y282950D01*
Y287164D02*
Y290860D01*
X338900Y267731D02*
Y282950D01*
Y287067D02*
Y290967D01*
X339000Y267731D02*
Y282950D01*
Y286967D02*
Y291036D01*
X339100Y267731D02*
Y282950D01*
Y286867D02*
Y291036D01*
X339200Y267731D02*
Y282950D01*
Y286767D02*
Y291036D01*
X339300Y267731D02*
Y282950D01*
Y286667D02*
Y291036D01*
X339400Y267731D02*
Y282950D01*
Y286628D02*
Y290995D01*
X339500Y267731D02*
Y282950D01*
Y286603D02*
Y290895D01*
X339600Y267731D02*
Y282950D01*
Y286578D02*
Y290751D01*
X339700Y267731D02*
Y282950D01*
Y286553D02*
Y287747D01*
X339800Y267731D02*
Y282950D01*
Y286528D02*
Y287547D01*
X339900Y267731D02*
Y282950D01*
Y286503D02*
Y287408D01*
X340000Y267731D02*
Y282950D01*
Y286486D02*
Y287358D01*
X340100Y267731D02*
Y282950D01*
Y286508D02*
Y287316D01*
X340200Y267731D02*
Y282950D01*
Y286531D02*
Y287283D01*
X340300Y267731D02*
Y282950D01*
Y286553D02*
Y287250D01*
X340400Y267731D02*
Y282950D01*
Y286575D02*
Y287254D01*
X340500Y267731D02*
Y282950D01*
Y286597D02*
Y287271D01*
X340600Y267731D02*
Y282950D01*
Y286619D02*
Y287288D01*
X340700Y267731D02*
Y282950D01*
Y286642D02*
Y287304D01*
X340800Y267731D02*
Y282950D01*
Y286680D02*
Y287321D01*
X340900Y267731D02*
Y282950D01*
Y286730D02*
Y287364D01*
X341000Y267731D02*
Y282950D01*
Y286780D02*
Y287464D01*
X341100Y267731D02*
Y282950D01*
Y286843D02*
Y287564D01*
X341200Y267731D02*
Y282950D01*
Y286943D02*
Y287664D01*
X341300Y267731D02*
Y282950D01*
Y287043D02*
Y288021D01*
X341400Y267731D02*
Y282950D01*
Y287143D02*
Y288745D01*
X341500Y267731D02*
Y282950D01*
Y287040D02*
Y290772D01*
X341600Y267731D02*
Y282950D01*
Y286790D02*
Y290909D01*
X341700Y267731D02*
Y282950D01*
Y286620D02*
Y291009D01*
X341800Y267731D02*
Y282950D01*
Y286570D02*
Y291036D01*
X341900Y267731D02*
Y282950D01*
Y286520D02*
Y291036D01*
X342000Y267731D02*
Y282950D01*
Y286504D02*
Y291036D01*
X342100Y267731D02*
Y282950D01*
Y286554D02*
Y291036D01*
X342200Y267731D02*
Y282950D01*
Y286604D02*
Y290953D01*
X342300Y286731D02*
Y290839D01*
X342400Y287031D02*
Y290689D01*
*
G04 PC Custom Flashes*
G04 Layer Name medulla.1.pcb - flashes*
%LPD*%
*
*
G04 PC Circuitry*
G04 Layer Name medulla.1.pcb - circuitry*
%LPD*%
*
G54D10*
X145000Y316811D03*
X388000Y173874D03*
G54D11*
X145000Y308937D03*
Y301063D03*
Y293189D03*
X388000Y166000D03*
Y158126D03*
G54D12*
X307331Y187740D03*
X298669D03*
Y180260D03*
X307331D03*
G54D13*
X217500Y310630D03*
X212500D03*
X207500D03*
X202500D03*
Y289370D03*
X207500D03*
X212500D03*
X217500D03*
X165500Y127630D03*
X160500D03*
X155500D03*
X150500D03*
Y106370D03*
X155500D03*
X160500D03*
X165500D03*
G54D17*
X341000Y184350D03*
Y177650D03*
X316000Y163650D03*
Y170350D03*
X345000Y151350D03*
Y144650D03*
X363000Y151350D03*
Y144650D03*
X351000Y151350D03*
Y144650D03*
X213000Y152650D03*
Y159350D03*
Y222650D03*
Y229350D03*
X316000Y176650D03*
Y183350D03*
X310000Y244650D03*
Y251350D03*
X219000Y161650D03*
Y168350D03*
X213000Y178350D03*
Y171650D03*
X219000Y181650D03*
Y188350D03*
X213000Y198350D03*
Y191650D03*
X219000Y231650D03*
Y238350D03*
X213000Y248350D03*
Y241650D03*
X219000Y251650D03*
Y258350D03*
X213000Y268350D03*
Y261650D03*
X298000Y251350D03*
Y244650D03*
X357000Y151350D03*
Y144650D03*
X304000Y244650D03*
Y251350D03*
X286000Y244650D03*
Y251350D03*
X292000Y244650D03*
Y251350D03*
X280000Y244650D03*
Y251350D03*
X316000Y244650D03*
Y251350D03*
X113000Y144350D03*
Y137650D03*
X322000Y244650D03*
Y251350D03*
G54D18*
X285350Y148000D03*
X278650D03*
X305350Y172000D03*
X298650D03*
X278650Y154000D03*
X285350D03*
G54D19*
X211250Y321000D03*
X202750D03*
X161250Y138000D03*
X152750D03*
G54D20*
X230000Y127250D03*
Y118750D03*
G54D21*
X389000Y290000D03*
G54D22*
X280000Y310000D03*
Y320000D03*
X290000Y310000D03*
Y320000D03*
X300000Y310000D03*
Y320000D03*
X310000Y310000D03*
Y320000D03*
X330000Y310000D03*
Y320000D03*
X340000Y310000D03*
Y320000D03*
X350000Y310000D03*
Y320000D03*
X360000Y310000D03*
Y320000D03*
X430000D03*
X440000D03*
X430000Y310000D03*
X440000D03*
X430000Y300000D03*
X440000D03*
X399000Y290000D03*
X389000Y280000D03*
X399000D03*
X389000Y270000D03*
X399000D03*
X430000Y290000D03*
X440000D03*
X430000Y270000D03*
X440000D03*
X430000Y260000D03*
X440000D03*
X430000Y250000D03*
X440000D03*
X430000Y240000D03*
X440000D03*
X430000Y200000D03*
X440000D03*
X430000Y190000D03*
X440000D03*
X430000Y180000D03*
X440000D03*
X430000Y170000D03*
X440000D03*
X430000Y150000D03*
X440000D03*
X430000Y140000D03*
X440000D03*
X430000Y130000D03*
X440000D03*
X430000Y120000D03*
X440000D03*
X370000D03*
Y110000D03*
X360000Y120000D03*
Y110000D03*
X350000Y120000D03*
Y110000D03*
X340000Y120000D03*
Y110000D03*
X320000Y120000D03*
Y110000D03*
X310000Y120000D03*
Y110000D03*
X300000Y120000D03*
Y110000D03*
X290000Y120000D03*
Y110000D03*
X306000Y162000D03*
Y152000D03*
X420000Y160000D03*
X430000D03*
X440000D03*
X420000Y110000D03*
X430000D03*
X440000D03*
X330000Y130000D03*
Y120000D03*
Y110000D03*
X280000Y130000D03*
Y120000D03*
Y110000D03*
X370000Y300000D03*
Y310000D03*
Y320000D03*
X420000Y280000D03*
X430000D03*
X440000D03*
X420000Y230000D03*
X430000D03*
X440000D03*
X320000Y300000D03*
Y310000D03*
Y320000D03*
G54D23*
X170000Y220000D03*
Y165000D03*
G54D24*
X180000Y225000D03*
X170000Y240000D03*
X180000Y245000D03*
X170000Y250000D03*
X180000Y255000D03*
X170000Y260000D03*
X180000Y265000D03*
Y170000D03*
X170000Y175000D03*
X180000Y180000D03*
X170000Y185000D03*
X180000Y190000D03*
X170000Y205000D03*
X180000Y210000D03*
G54D25*
X145000Y265000D03*
Y165000D03*
G54D26*
X130000Y269200D03*
X123000D03*
X130000Y216700D03*
X123000D03*
X143900Y213300D03*
X136900D03*
X130000Y160800D03*
X123000D03*
G54D27*
X157000Y276000D03*
X202000Y217500D03*
X157000Y154000D03*
G54D29*
X106000Y137900D03*
Y144100D03*
G54D34*
X322323Y232323D03*
Y229173D03*
Y226024D03*
Y222874D03*
Y219724D03*
Y216575D03*
Y213425D03*
Y210276D03*
Y207126D03*
Y203976D03*
Y200827D03*
Y197677D03*
X319173Y232323D03*
Y229173D03*
Y226024D03*
Y222874D03*
Y219724D03*
Y216575D03*
Y213425D03*
Y210276D03*
Y207126D03*
Y203976D03*
Y200827D03*
Y197677D03*
X316024Y232323D03*
Y229173D03*
Y226024D03*
Y222874D03*
Y219724D03*
Y216575D03*
Y213425D03*
Y210276D03*
Y207126D03*
Y203976D03*
Y200827D03*
Y197677D03*
X312874Y232323D03*
Y229173D03*
Y226024D03*
Y222874D03*
Y219724D03*
Y216575D03*
Y213425D03*
Y210276D03*
Y207126D03*
Y203976D03*
Y200827D03*
Y197677D03*
X309724Y232323D03*
Y229173D03*
Y226024D03*
Y222874D03*
Y207126D03*
Y203976D03*
Y200827D03*
Y197677D03*
X306575Y232323D03*
Y229173D03*
Y226024D03*
Y222874D03*
Y207126D03*
Y203976D03*
Y200827D03*
Y197677D03*
X303425Y232323D03*
Y229173D03*
Y226024D03*
Y222874D03*
Y207126D03*
Y203976D03*
Y200827D03*
Y197677D03*
X300276Y232323D03*
Y229173D03*
Y226024D03*
Y222874D03*
Y207126D03*
Y203976D03*
Y200827D03*
Y197677D03*
X297126Y232323D03*
Y229173D03*
Y226024D03*
Y222874D03*
Y219724D03*
Y216575D03*
Y213425D03*
Y210276D03*
Y207126D03*
Y203976D03*
Y200827D03*
Y197677D03*
X293976Y232323D03*
Y229173D03*
Y226024D03*
Y222874D03*
Y219724D03*
Y216575D03*
Y213425D03*
Y210276D03*
Y207126D03*
Y203976D03*
Y200827D03*
Y197677D03*
X290827Y232323D03*
Y229173D03*
Y226024D03*
Y222874D03*
Y219724D03*
Y216575D03*
Y213425D03*
Y210276D03*
Y207126D03*
Y203976D03*
Y200827D03*
Y197677D03*
X287677Y232323D03*
Y229173D03*
Y226024D03*
Y222874D03*
Y219724D03*
Y216575D03*
Y213425D03*
Y210276D03*
Y207126D03*
Y203976D03*
Y200827D03*
Y197677D03*
G54D36*
X230185Y308000D03*
X265815D03*
X179185Y123000D03*
X214815D03*
G54D38*
X290000Y110000D02*
Y114200D01*
X285000Y119200*
Y124890*
X371282Y115767D02*
X375600Y120085D01*
Y131148*
X380300Y135848*
Y188472*
X380874Y189046*
Y195783*
X371282Y115767D02*
X364233D01*
X360000Y120000*
Y110000D02*
X364233Y114233D01*
X371446*
X377300Y120088*
Y131146*
X381600Y135446*
Y185378*
X382843Y186620*
Y195783*
X253345Y119300D02*
X254895Y120850D01*
X259071*
X253345Y119300D02*
X248655D01*
X247105Y120850*
X242929*
Y127150D02*
X259071D01*
X262500Y124000D02*
X262381Y124119D01*
X259071Y120850D02*
X259190D01*
Y120928*
X262381Y124119*
X259071Y127150D02*
X259500D01*
Y131000*
X285000Y124890D02*
X335186Y175076D01*
Y186258*
X343700Y194772*
Y196470*
X353330Y206100*
X356897*
X359597Y208800*
X395062*
X395062D02*
X400554Y214292D01*
X403217*
X290000Y120000D02*
Y127598D01*
X337243Y174841*
Y185731*
X346400Y194888*
Y197473*
X353627Y204700*
X358700*
X361400Y207400*
X395630*
X400554Y212324*
X403217*
X374200Y136200D02*
Y140100D01*
X374250Y140150*
X372000Y134000D02*
Y141428D01*
X373050Y142478*
X373000Y124500D02*
Y130251D01*
X378906Y136156*
Y195783*
X370000Y120000D02*
Y128953D01*
X376937Y135890*
X376937D02*
Y195783D01*
X393000Y130000D02*
Y183960D01*
X390717Y186244*
Y195783*
X390500Y133500D02*
Y145692D01*
X391459Y146651*
Y180305*
X380500Y127000D02*
X384400Y130900D01*
Y179372*
X386780Y181752*
Y195783*
X380500Y131300D02*
X383000Y133800D01*
Y182377*
X384811Y184188*
Y195783*
X430800Y135000D02*
X435800Y140000D01*
X440000*
X430800Y135000D02*
X419562D01*
X397850Y156712*
X109000Y141000D02*
X108925Y140925D01*
X106000Y143850*
Y144100*
X113000Y137650D02*
X106000D01*
Y137900*
X113000Y144350D02*
Y148500D01*
X165400Y154200D02*
Y214550D01*
X165500Y214650*
Y275000*
X213000Y148500D02*
Y152650D01*
X231000Y151250D02*
X229450D01*
X225500Y155200*
Y157900*
X231000Y156250D02*
X232550D01*
X253300Y177000*
Y203200*
X265150Y215050*
X235300Y153600D02*
Y153675D01*
X231000*
Y153750*
X273100Y156500D02*
X274941D01*
X284100Y165659*
Y190294*
X290827Y197021*
Y197677*
X269000Y156250D02*
Y156375D01*
X273100*
Y156500*
X269000Y153750D02*
X273750D01*
X274000Y154000*
X278650*
X288541Y142200D02*
X298700Y152359D01*
Y166400*
X288541Y142200D02*
X241600D01*
X232550Y151250*
X231000*
X289038Y141000D02*
X300850Y152812D01*
Y167291*
X289038Y141000D02*
X192741D01*
X185541Y148200*
X142600*
X130000Y160800*
X288125Y145125D02*
X285375Y147875D01*
X285350*
Y148000*
X288125Y156875D02*
X288000Y157000D01*
Y145000D02*
X288125Y145125D01*
X285350Y154000D02*
Y154125D01*
X285375*
X288125Y156875*
X278650Y154000D02*
X278800D01*
X285400Y160600*
Y188300*
X286500Y189400*
X278650Y148000D02*
X278800D01*
X282000Y151200*
Y155202*
X287700Y160902*
Y186500*
X278650Y148000D02*
X278500D01*
X275250Y151250*
X269000*
X306000Y152000D02*
X310454Y156454D01*
X313055*
X332839Y176237*
Y182008*
X352201Y141600D02*
X354000Y143399D01*
Y156091*
X355720Y157811*
Y159681*
X352201Y141600D02*
X347900D01*
X345000Y144500*
Y144650*
X351175D02*
Y144975D01*
X348325Y147825*
X351175Y144650D02*
X351000D01*
X348325Y147825D02*
X348500Y148000D01*
X351000Y151350D02*
X351100D01*
Y154400*
X351949Y155249*
Y156570*
X353175Y157797*
Y159681*
X345000Y151350D02*
X345250D01*
X349375Y155475*
Y156584*
X350602Y157811*
Y159681*
X374250Y140150D02*
Y186413D01*
X371031Y189631*
Y195783*
X371850Y153950D02*
Y184850D01*
X367094Y189606*
Y195783*
X373050Y142478D02*
Y185619D01*
X369063Y189606*
Y195783*
X370600Y144900D02*
Y152700D01*
X371850Y153950*
X368000Y142000D02*
Y157378D01*
X370650Y160028*
X363500Y140500D02*
X363250D01*
Y144650*
X363000*
X357000D02*
Y144800D01*
X360000Y147800*
Y154700*
X360839Y155539*
Y159681*
X357000Y151350D02*
Y156531D01*
X358280Y157811*
Y159681*
X363000Y151350D02*
X363398Y151748D01*
Y159681*
X397850Y156712D02*
Y182325D01*
X398113Y182588*
X403700Y155600D02*
Y158405D01*
X403400Y158705*
Y181222*
X403217Y181406*
Y202378*
X395500Y138500D02*
Y165631D01*
X396622Y166753*
Y195783*
X430000Y140000D02*
X416259D01*
X399050Y157209*
X170000Y165000D02*
X183800D01*
X187150Y168350*
X219000*
X213000Y171650D02*
X186950D01*
X183600Y175000*
X170000*
X213000Y159350D02*
Y159500D01*
X215150Y161650*
X219000*
X226500Y173500D02*
Y173625D01*
X231000*
Y173750*
X227200Y162500D02*
Y163100D01*
X227850Y163750*
X231000*
X219000Y168350D02*
X219400Y168750D01*
X231000*
X219000Y161650D02*
Y161800D01*
X223450Y166250*
X231000*
Y161250D02*
X227850D01*
X227200Y161900*
Y162500*
X231000Y171250D02*
X224050D01*
X223650Y171650*
X213000*
X231000Y176250D02*
X224250D01*
X219000Y181500*
Y181650*
X237750Y173850D02*
Y216050D01*
X232550Y221250*
X231000*
X236500Y169500D02*
Y172600D01*
X237750Y173850*
X235200Y166000D02*
Y166125D01*
X231000*
Y166250*
X235400Y175400D02*
X234550Y176250D01*
X231000*
X273400Y178700D02*
X270750Y176050D01*
X269000*
Y176250*
X274700Y159300D02*
X282900Y167500D01*
Y190792*
X289300Y197192*
Y198400*
X290827Y199927*
Y200827*
X273000Y162000D02*
X281700Y170700D01*
Y191353*
X286512Y196165*
Y196512*
X287677Y197677*
X272900Y165100D02*
X280400Y172600D01*
Y191829*
X285200Y196629*
Y197308*
X287092Y199200*
X288158*
X289300Y200342*
Y201408*
X290292Y202400*
X292400*
X293976Y203976*
X269000Y173750D02*
X271891D01*
X277700Y179559*
Y192587*
X282400Y197287*
Y197902*
X286898Y202400*
X288400*
X289976Y203976*
X290827*
X269000Y171250D02*
X270550D01*
X271700Y172400*
X275700*
X269000Y168750D02*
Y168875D01*
X273500*
Y169000*
X269000Y166250D02*
X267450D01*
X264600Y169100*
Y171800*
X269000Y163750D02*
X271250D01*
X272600Y165100*
X272900*
X269000Y161250D02*
X272250D01*
X273000Y162000*
X269000Y158750D02*
Y159025D01*
X274700*
Y159300*
X275700Y172400D02*
X279000Y175700D01*
Y192159*
X283700Y196859*
Y197505*
X287022Y200827*
X287677*
X300850Y167291D02*
X299341Y168800D01*
X297599*
X292350Y174049*
Y188891*
X312800Y160300D02*
X316000Y163500D01*
Y163650*
X310800Y173700D02*
X313200D01*
X316000Y176500*
Y176650*
X310800Y173700D02*
Y177184D01*
X307724Y180260*
X307331*
X306000Y162000D02*
X311000Y167000D01*
X319541*
X330280Y177739*
Y182008*
X298650Y172000D02*
Y175939D01*
X298669Y175958*
Y180260*
X305350Y172000D02*
X309100D01*
X310800Y173700*
X327720Y161320D02*
X329000Y162600D01*
X330520Y161080*
X332900Y160613D02*
X332433Y161080D01*
X330520*
X316000Y170350D02*
Y170500D01*
X321500Y176000*
Y182200*
X332839Y157992D02*
X332900Y158054D01*
Y160613*
X330280Y157992D02*
Y161080D01*
X330520*
X327720Y157992D02*
Y161320D01*
X325161Y157992D02*
Y160467D01*
X326015Y161320*
X327720*
X353175Y159681D02*
X353161D01*
X341500Y173500D02*
X341250D01*
Y177650*
X341000*
X348043Y159681D02*
Y164000D01*
X348000*
X370650Y160028D02*
Y184300D01*
X365126Y189824*
Y195783*
X355700Y176400D02*
X355720D01*
Y182319*
X368500Y170500D02*
Y184641D01*
X361441Y191700*
X360604*
X359150Y193154*
X365957Y159681D02*
Y164000D01*
X366000*
X399313Y172072D02*
Y199687D01*
X397961Y201039*
Y202476*
X395988Y204450*
X399050Y157209D02*
Y171809D01*
X399313Y172072*
X412100Y169500D02*
Y204068D01*
X405846Y210322*
X409000Y169500D02*
Y205200D01*
X405846Y208354*
X405600Y160200D02*
Y184617D01*
X407266Y186284*
X401200Y160900D02*
Y199612D01*
X399167Y201645*
Y203063*
X170000Y185000D02*
X174392Y189392D01*
Y190261*
X182481Y198350*
X213000*
X180000Y190000D02*
Y190600D01*
X181050Y191650*
X213000*
X180000Y180000D02*
X188350Y188350D01*
X219000*
X212975Y178525D02*
X216100Y181650D01*
X219000*
X213000Y178350D02*
X212975D01*
Y178525*
X235350Y198750D02*
X232700Y196100D01*
X231000*
Y196250*
X227200Y182500D02*
Y183100D01*
X227850Y183750*
X231000*
X219000Y188350D02*
X219400Y188750D01*
X231000*
Y181250D02*
X227850D01*
X227200Y181900*
Y182500*
X231000Y191250D02*
X224101D01*
X223701Y191650*
X213000*
X231000Y193750D02*
X234150D01*
X235700Y195300*
X231000Y193750D02*
X224150D01*
X219550Y198350*
X213000*
X235700Y195300D02*
X235600Y195400D01*
X235300Y178600D02*
Y178675D01*
X231000*
Y178750*
X272900Y192500D02*
Y192949D01*
X277800Y197849*
Y203738*
X282762Y208700*
X289251*
X290827Y210276*
X273600Y178500D02*
X276500Y181400D01*
Y193114*
X281100Y197714*
Y198890*
X286187Y203976*
X287677*
X273600Y178500D02*
X273400Y178700D01*
X273000Y182500D02*
Y182900D01*
X272150Y183750*
X269000*
Y196250D02*
X271450D01*
X273000Y197800*
X269000Y193750D02*
X270550D01*
X271800Y195000*
X273241*
X276400Y198159*
Y204035*
X282641Y210276*
X287677*
X269000Y191250D02*
X272150D01*
X272900Y192000*
Y192500*
X269000Y188750D02*
X273391D01*
X275300Y190659*
Y193640*
X279200Y197540*
Y203441*
X282885Y207126*
X287677*
X269000Y181250D02*
X267450D01*
X264900Y183800*
Y189700*
X269000Y178750D02*
X270550D01*
X273000Y181200*
Y182500*
X294509Y183991D02*
X298267Y187749D01*
X298669*
X294509Y183991D02*
X294500Y184000D01*
X292020Y191780D02*
X295551Y195311D01*
Y199252*
X297126Y200827*
X292350Y188891D02*
X295380Y191920D01*
X292100Y191700D02*
X292020Y191780D01*
X287700Y186500D02*
X288800Y187600D01*
Y191563*
X293976Y196739*
Y197677*
X286500Y189400D02*
Y190979D01*
X292400Y196879*
Y199250*
X293976Y200827*
X295380Y191920D02*
X295300Y192000D01*
X301766Y195266D02*
Y199336D01*
X300276Y200827*
X298800Y196202D02*
X300276Y197677D01*
X314500Y196849D02*
Y199303D01*
X316024Y200827*
X299000Y192000D02*
X298800D01*
Y196202*
X301000Y194500D02*
X301766Y195266D01*
X295300Y192000D02*
X297126Y193826D01*
Y197677*
X298669Y180260D02*
X299063D01*
X303425Y184622*
Y197677*
X298669Y187740D02*
Y187749D01*
X307331Y187740D02*
X306575Y188496D01*
Y197677*
X322940Y196187D02*
X330692Y203938D01*
Y220545*
X340154Y230007*
X342783*
X322940Y196187D02*
X320664D01*
X319173Y197677*
X323934Y193787D02*
X333900Y203752D01*
Y215879*
X340154Y222133*
X342783*
X323934Y193787D02*
X319259D01*
X316024Y197022*
Y197677*
X324431Y192587D02*
X335900Y204055D01*
Y215911*
X340154Y220165*
X342783*
X324431Y192587D02*
X318762D01*
X314500Y196849*
X323437Y194987D02*
X331912Y203461D01*
Y215860*
X340154Y224102*
X342783*
X323437Y194987D02*
X319756D01*
X317598Y197144*
Y201360*
X316557Y202402*
X324928Y191387D02*
X337900Y204358D01*
Y215942*
X340154Y218196*
X342783*
X324928Y191387D02*
X318265D01*
X312874Y196777*
Y197677*
X328000Y178500D02*
X327858D01*
Y182008*
X327720*
X316000Y183350D02*
Y183500D01*
X311760Y187740*
X307331*
X325161Y182008D02*
Y182200D01*
X321500*
X330280Y182008D02*
Y182992D01*
X326072Y187200*
X314559*
X308150Y193610*
Y198210*
X307108Y199252*
X305000*
X303425Y200827*
X332839Y182008D02*
Y182992D01*
X326531Y189300*
X318654*
X311299Y196655*
Y198210*
X310258Y199252*
X309191*
X308100Y200343*
Y200792*
X308065Y200827*
X306575*
X347414Y191286D02*
X349378Y193251D01*
Y195783*
X347414Y191286D02*
X347400Y191300D01*
X338734Y196266D02*
Y202997D01*
X340154Y204417*
X342783*
X353118Y184232D02*
X355543Y186657D01*
X347880Y178820D02*
Y182319D01*
X348043*
X348100Y187400D02*
X351346Y190646D01*
Y195783*
X340000Y195000D02*
X338734Y196266D01*
X349400Y177300D02*
X350602Y178502D01*
Y182319*
X349400Y177300D02*
X347880Y178820D01*
X348043Y182319D02*
X346242D01*
X344211Y184350*
X341000*
X353161Y182319D02*
X353118D01*
Y184232*
X359150Y193154D02*
Y195783D01*
X359220*
X355543Y186657D02*
X355500Y186700D01*
X365500Y178000D02*
X365666D01*
Y182319*
X365957*
X357700Y190600D02*
X357472D01*
Y195783*
X357252*
X373500Y190500D02*
X373246D01*
Y195783*
X373000*
X355582Y186782D02*
X355500Y186700D01*
X353315Y188885*
Y195783*
X358280Y182319D02*
Y184084D01*
X355582Y186782*
X360839Y182319D02*
Y189500D01*
X360600*
X363157Y195783D02*
X363054D01*
Y198446*
X361189Y195783D02*
X361085D01*
Y198446*
X355283Y195783D02*
X355242D01*
Y201900*
X355200*
X391459Y180305D02*
X388748Y183016D01*
Y195783*
X393000Y190500D02*
X392840D01*
Y195783*
X392685*
X394654D02*
X394627D01*
Y201100*
X394600*
X374969Y195783D02*
X375033D01*
Y201500*
X375100*
X407266Y186284D02*
Y204965D01*
X405846Y206385*
X398113Y182588D02*
Y199075D01*
X396756Y200432*
Y201985*
X395491Y203250*
X231000Y203750D02*
X232550D01*
X235200Y206400*
Y211000*
X231000Y208750D02*
X232000D01*
Y212000*
X235500Y198600D02*
X235350Y198750D01*
X272550Y216500D02*
X273350Y217300D01*
X277872*
X272550Y216500D02*
X268059D01*
X264900Y219659*
Y246425*
X265150Y215050D02*
X265200Y215100D01*
X277000*
X265150Y215050D02*
X253900Y226300D01*
X264300Y202200D02*
X265850Y203750D01*
X269000*
X273000Y197800D02*
X275100Y199900D01*
Y204432*
X282568Y211900*
X289302*
X290827Y213425*
X272900Y202700D02*
Y204900D01*
X281425Y213425*
X287677*
X263800Y198900D02*
X265100D01*
X267450Y201250*
X269000*
X264500Y202000D02*
X264300Y202200D01*
X264500Y206000D02*
Y206125D01*
X269000*
Y206250*
Y208750D02*
Y208925D01*
X264500*
Y209100*
X269000Y198750D02*
X270550D01*
X272900Y201100*
Y202700*
X287677Y216575D02*
X280325D01*
X274600Y222300*
X293976Y207126D02*
X297126D01*
X293976Y210276D02*
X292486Y211766D01*
Y218234*
X293976Y213425D02*
X295551Y215000D01*
X290827Y216575D02*
X289252Y215000D01*
X280172*
X277872Y217300*
X290877Y207076D02*
X290827Y207126D01*
X292486Y206509D02*
Y208785D01*
X293976Y210276*
X283700Y204900D02*
X284300Y205500D01*
X289301*
X290877Y207076*
X297126Y203976D02*
X295502Y205600D01*
X293394*
X292486Y206509*
X297126Y203976D02*
X300276Y207126D01*
X297126D02*
Y210276D01*
X299825Y212975*
X297126Y216575D02*
Y216626D01*
X298988Y218488*
X300276Y207126D02*
Y209600D01*
X300100*
X303425Y203976D02*
X301935Y205467D01*
Y208069*
X306575Y203976D02*
X309724Y207126D01*
X306575D02*
Y207225D01*
X304575Y209225*
X309724Y207126D02*
Y210100D01*
X309500*
X312874Y200827D02*
X314449Y202402D01*
X316557*
X312874Y203976D02*
X309724Y207126D01*
X312874D02*
Y210276D01*
X316024*
X312874D02*
Y213200D01*
Y216575D02*
Y219724D01*
X304916Y205516D02*
X306526Y207126D01*
X306575*
X304916Y205516D02*
Y205635D01*
X309724Y203976D02*
X308148Y202400D01*
X305875*
X304916Y203359*
X303957Y202400*
X301852*
X300276Y203976*
X316024Y216575D02*
X314449Y215000D01*
X310200*
Y215300*
X302500Y215000D02*
X295551D01*
X293976Y216575*
X303425Y207126D02*
X304916Y205635D01*
Y203359*
X312874Y213425D02*
Y213200D01*
Y213375*
X312924*
X299825Y212975D02*
X299375Y213425D01*
X297126*
X304575Y209225D02*
X304875Y209525D01*
X301935Y208069D02*
X302500Y208634D01*
Y215000*
X312924Y213375D02*
X312874Y213425D01*
X300100Y212700D02*
X299825Y212975D01*
X308000Y212900D02*
X310858D01*
X311383Y213425*
X312874*
X305000Y209400D02*
X304875Y209525D01*
X316024Y213425D02*
X314449Y215000D01*
X322323Y197677D02*
X329300Y204654D01*
Y221122*
X340154Y231976*
X342783*
X349587Y204800D02*
X352387Y207600D01*
X355170*
X359870Y212300*
X384200*
X349587Y204800D02*
X347064D01*
X345446Y206418*
X343000Y199500D02*
Y202378D01*
X342783*
X348000Y207000D02*
Y207117D01*
X346833Y208283*
X342783*
X350000Y209500D02*
X347731D01*
X346980Y210252*
X342783*
X353100Y210100D02*
X351300Y211900D01*
X347300*
X346980Y212220*
X342783*
Y204346D02*
Y204417D01*
Y206315D02*
Y206418D01*
X345446*
X342783Y214189D02*
Y214244D01*
X348600*
Y214300*
X342783Y216157D02*
X346833D01*
X347800Y217124*
Y217300*
X363054Y198446D02*
X368258Y203650D01*
X377031*
X361085Y198446D02*
X367489Y204850D01*
X378569*
X389369Y201650D02*
X390969Y203250D01*
X395491*
X389369Y201650D02*
X379031D01*
X377031Y203650*
X386131Y202850D02*
X387731Y204450D01*
X395988*
X386131Y202850D02*
X380569D01*
X378569Y204850*
X399167Y203063D02*
X400554Y204450D01*
X403217*
Y216157D02*
Y216178D01*
X397400*
Y216200*
X403217Y214189D02*
Y214292D01*
Y212220D02*
Y212324D01*
Y210252D02*
Y210322D01*
X405846*
X403217Y208283D02*
Y208354D01*
X405846*
X403217Y206315D02*
Y206385D01*
X405846*
X403217Y204346D02*
Y204450D01*
X213000Y218500D02*
Y222650D01*
Y229350D02*
Y229500D01*
X215150Y231650*
X219000*
X227100Y232500D02*
Y233000D01*
X227850Y233750*
X231000*
X219000Y231650D02*
Y231800D01*
X223450Y236250*
X231000*
Y226250D02*
X240350D01*
X240400Y226300*
X253900*
X231000Y231250D02*
X227850D01*
X227100Y232000*
Y232500*
X235300Y223600D02*
Y223675D01*
X231000*
Y223750*
X235300Y236000D02*
X237650Y238350D01*
Y243869*
X235300Y236000D02*
Y236125D01*
X231000*
Y236250*
X272600Y233500D02*
X272620Y233520D01*
X272980*
X272600Y233500D02*
X269000D01*
Y233750*
X274500Y225500D02*
X274325Y225325D01*
X270725Y228925*
X274600Y222300D02*
X274575Y222275D01*
X270575Y226275*
X274500Y228900D02*
X272150Y231250D01*
X269000*
X274500Y232000D02*
X272980Y233520D01*
X274400Y228800D02*
X274500Y228900D01*
X268900Y218700D02*
Y221250D01*
X269000*
X272600Y219700D02*
X272300Y220000D01*
Y222000*
X270550Y223750*
X269000*
Y228750D02*
Y228925D01*
X270725*
X269000Y226250D02*
Y226275D01*
X270575*
X287677Y219724D02*
X283476D01*
X274400Y228800*
X287677Y222874D02*
X286187D01*
X278200Y230861*
Y236500*
X273250Y241450*
X287677Y226024D02*
X286777D01*
X280800Y232001*
Y238100*
X276900Y242000*
Y246471*
X274300Y249071*
Y255000*
X270550Y258750*
X269000*
X287677Y229173D02*
X287022D01*
X284100Y232095*
Y240448*
X283000Y241548*
Y245901*
X280901Y248000*
X279099*
X277100Y249999*
Y257200*
X270550Y263750*
X269000*
X287677Y232323D02*
Y240177D01*
X292000Y244500*
Y244650*
X290827Y226024D02*
X289250Y227600D01*
X286898*
X282200Y232298*
Y238800*
X280000Y241000*
Y244650*
X290827Y229173D02*
X289927D01*
X288400Y230700*
X287192*
X286000Y231892*
Y244650*
X290827Y232323D02*
Y237327D01*
X298000Y244500*
Y244650*
X293976Y222874D02*
X292450Y224400D01*
X286704*
X279500Y231604*
Y237300*
X275600Y241200*
Y242600*
X274450Y243750*
X269000*
X293976Y226024D02*
X292400Y227600D01*
Y229708*
X291408Y230700*
X290342*
X289336Y231705*
Y237634*
X293976Y229173D02*
Y229924D01*
X292400Y231500*
Y232900*
X290827Y222874D02*
X289253Y221300D01*
X285200*
X274500Y232000*
X290827Y219724D02*
X289302Y218200D01*
X281800*
X274500Y225500*
X292400Y232900D02*
X304000Y244500D01*
Y244650*
X292486Y218234D02*
X293976Y219724D01*
X275700Y235800D02*
Y236025D01*
X269000*
Y236250*
X297126Y219724D02*
Y222874D01*
X300313Y222912D02*
X300276Y222874D01*
Y226024*
X303425Y222874D02*
Y226024D01*
X306575Y222874D02*
X309724D01*
X306575Y229173D02*
X305000Y230748D01*
Y232903*
X303300Y234603*
Y236800*
X306575Y232323D02*
X306537D01*
Y237600*
X306500*
X309724Y226024D02*
X311215Y227514D01*
X312874Y219724D02*
Y219812D01*
X309700*
Y219900*
X312874Y222874D02*
X312824Y222924D01*
X309750Y219850*
X309700Y219900*
X311200Y224400D02*
X312824Y226024D01*
X312874*
X311200Y224400D02*
X308198D01*
X306575Y226024*
X302800Y220500D02*
X302762Y220462D01*
X300313Y222912*
X299100Y218100D02*
X299013Y218013D01*
X298763Y218263*
Y218137*
X297176Y219724*
X297126*
X314500Y227547D02*
Y236500D01*
X316000Y238000*
Y244650*
X311215Y227514D02*
Y236685D01*
X310000Y237900*
Y244650*
X298988Y218488D02*
X299238Y218238D01*
X299100Y218100*
X302800Y220500D02*
X303425Y221125D01*
Y222874*
X309700Y219900D02*
X309712D01*
Y222874*
X309724*
X305000Y218200D02*
Y224449D01*
X306575Y226024*
X305000Y218200D02*
X302059D01*
X298700Y221559*
Y224450*
X297126Y226024*
X316024Y219724D02*
X314400Y221348D01*
Y224498*
X312874Y226024*
X316024Y222874D02*
X317600Y224450D01*
Y236500*
X322000Y240900*
Y244650*
X316024Y226024D02*
X314500Y227547D01*
X350000Y222600D02*
X348466Y224134D01*
Y225016*
X345428Y228054*
X350000Y219500D02*
X347100Y222400D01*
Y224450*
X345446Y226104*
X348600Y233800D02*
Y233838D01*
X342783*
Y233874*
Y218126D02*
Y218196D01*
Y220094D02*
Y220165D01*
Y222063D02*
Y222133D01*
Y224031D02*
Y224102D01*
Y226000D02*
Y226104D01*
X342783D02*
X345446D01*
X342783Y227969D02*
Y228054D01*
X345428*
X342783Y229937D02*
Y230007D01*
Y231906D02*
Y231976D01*
Y235843D02*
Y235920D01*
X337500*
Y236000*
X394150Y234269D02*
Y247450D01*
X398113Y251413*
X388800Y224100D02*
X376600Y236300D01*
X360044*
X348844Y247500*
X347661*
X347508Y247654*
X342783*
X403217Y229937D02*
Y229846D01*
X400566*
X395350Y235063*
X403217Y227969D02*
Y227865D01*
X400554*
X394150Y234269*
X395350Y235063D02*
Y246688D01*
X399313Y250651*
X408200Y229600D02*
Y229771D01*
X403217*
Y229937*
X410900Y226200D02*
Y240900D01*
X430000Y260000*
X408500Y218000D02*
Y218064D01*
X403217*
Y218126*
Y235843D02*
Y235920D01*
X408500*
Y236000*
X169850Y239850D02*
X170000Y240000D01*
X180000Y255000D02*
X215800D01*
X219000Y258200*
Y258350*
X212975Y248525D02*
X216100Y251650D01*
X219000*
X213000Y241650D02*
X191450D01*
X183100Y250000*
X170000*
X213000Y248350D02*
X212975D01*
Y248525*
X227200Y252500D02*
Y253100D01*
X227850Y253750*
X231000*
X219000Y238350D02*
Y238750D01*
X231000*
X219000Y238350D02*
X171350D01*
X169850Y239850*
X231000Y241250D02*
X223550D01*
X223150Y241650*
X213000*
X231000Y246250D02*
X224250D01*
X219000Y251500*
Y251650*
X231000Y251250D02*
X227850D01*
X227200Y251900*
Y252500*
X236400Y245400D02*
Y245119D01*
X234381*
X233250Y246250*
X231000*
X235700Y242200D02*
X234150Y243750D01*
X231000*
X237920Y246920D02*
Y263080D01*
X235700Y265300*
X237650Y243869D02*
X236400Y245119D01*
X235100Y248300D02*
Y248525D01*
X231000*
Y248750*
X235500Y242000D02*
X235700Y242200D01*
X236400Y245400D02*
X237920Y246920D01*
X264900Y246425D02*
Y246600D01*
X272300Y248300D02*
Y252000D01*
X270550Y253750*
X269000*
X272300Y248300D02*
X271850Y248750D01*
X273100Y241300D02*
X273250Y241450D01*
X274300Y246000D02*
Y246300D01*
X271850Y248750*
X273100Y238200D02*
Y238475D01*
X269000*
Y238750*
Y251250D02*
X265850D01*
X265100Y252000*
Y252500*
X269000Y248750D02*
X271850D01*
X269000Y246250D02*
Y246425D01*
X264900*
X269000Y241250D02*
Y241275D01*
X273100*
Y241300*
X289336Y237634D02*
X294900Y243198D01*
Y257841*
X280149Y244650D02*
Y244949D01*
X275500Y249599*
Y256300*
X270550Y261250*
X269000*
X280149Y244650D02*
X280000D01*
Y251350D02*
X280250D01*
Y255500*
X280500*
X292000Y251350D02*
X292250D01*
Y255500*
X292500*
X292000Y244650D02*
Y244800D01*
X289000Y247800*
Y255841*
X276091Y268750*
X269000*
X286000Y251350D02*
Y255500D01*
Y244650D02*
Y244800D01*
X283000Y247800*
Y259497*
X276247Y266250*
X269000*
X312950Y254550D02*
X312900Y254600D01*
X310000Y251200D02*
Y251350D01*
X300500Y248000D02*
X300675Y247825D01*
X297825Y244975*
X309950Y251550D02*
X312950Y254550D01*
X304000Y251350D02*
X310000D01*
X298000Y244650D02*
X297825D01*
Y244975*
X298000Y251350D02*
Y255500D01*
X310000Y251350D02*
X309950D01*
Y251550*
X322000Y251350D02*
X316000D01*
Y251500*
X312950Y254550*
X342783Y245685D02*
Y245615D01*
X340154*
X338000Y247769*
Y251500*
X353628Y251128D02*
X351222Y253534D01*
Y256217*
X351346*
X348000Y237000D02*
X347189Y237811D01*
X342783*
X350000Y239500D02*
Y239642D01*
X342783*
Y239780*
X353500Y251000D02*
X353628Y251128D01*
X342783Y241748D02*
Y241872D01*
X348000*
Y242000*
X342783Y243717D02*
Y243900D01*
X346833*
X348100Y245167*
Y245200*
X342783Y249622D02*
X343300D01*
Y253800*
X349378Y256217D02*
Y260478D01*
X350400Y261500*
X353315Y256217D02*
X353406D01*
Y261500*
X353500*
X371500Y250500D02*
X371262D01*
Y256217*
X371031*
X355283D02*
X355400D01*
Y260300*
X356600Y261500*
Y262000*
X357252Y256217D02*
X357182D01*
Y258846*
X359220Y256217D02*
X359150D01*
Y258846*
X361189Y256217D02*
X361600Y256628D01*
Y265065*
X361600D02*
X365500Y268965D01*
X365500D02*
Y276000D01*
X363157Y256217D02*
Y263157D01*
X365000Y265000*
X365126Y256217D02*
Y261813D01*
X369000Y265687*
Y278000*
X367094Y256217D02*
Y261813D01*
X371500Y266218*
Y280500*
X369063Y256217D02*
X368993D01*
Y258846*
X373000Y256217D02*
X373246D01*
Y261500*
X373500*
X379711Y248350D02*
X384915Y253554D01*
Y256217*
X379711Y248350D02*
X353103D01*
X349600Y251852*
X349075*
X347878Y253050*
Y302122*
X340000Y310000*
X382448Y247150D02*
X388852Y253554D01*
Y256217*
X382448Y247150D02*
X352600D01*
X349350Y250400*
X348830*
X346669Y252562*
Y293331*
X330000Y310000*
X386588Y241850D02*
X396622Y251884D01*
Y256217*
X386588Y241850D02*
X356197D01*
X349147Y248900*
X348633*
X345459Y252074*
Y291624*
X332083Y305000*
X315000*
X310000Y310000*
X388852Y256217D02*
X388748D01*
X394724D02*
Y258846D01*
X393233Y260337*
Y271282*
X389515Y275000*
X388485*
X384900Y278585*
Y299245*
X376100Y308045*
Y321112*
X369712Y327500*
X394724Y256217D02*
X394654D01*
X384915D02*
X384811D01*
X386850D02*
Y258846D01*
X383500Y262196*
Y297044*
X374400Y306144*
Y321115*
X369215Y326300*
X386850Y256217D02*
X386780D01*
X393050Y251796D02*
X392685Y252161D01*
Y256217*
X390900Y250900D02*
X390807D01*
Y256217*
X390717*
X384000Y244000D02*
X387041D01*
X393050Y250009*
Y251796*
X374969Y256217D02*
Y259421D01*
X375700Y260153*
Y274348*
X376150Y274798*
X376937Y256217D02*
Y267077D01*
X377350Y267490*
X378906Y256217D02*
Y285185D01*
X364233Y299857*
Y321282*
X361615Y323900*
X380874Y256217D02*
Y293026D01*
X375500Y298400*
X382843Y256217D02*
Y260757D01*
X382200Y261400*
Y294741*
X371941Y305000*
X369485*
X365767Y308718*
Y321446*
X362112Y325100*
X405846Y245615D02*
X408466Y248235D01*
Y290263*
X405846Y245615D02*
X403217D01*
Y245685*
X405846Y243646D02*
X409666Y247466D01*
Y291028*
X405846Y243646D02*
X403217D01*
Y243717*
X405846Y241678D02*
X411000Y246832D01*
Y274700*
X412020Y275720*
Y291980*
X405846Y241678D02*
X403217D01*
Y241748*
X405846Y239709D02*
X413300Y247163D01*
Y257700*
X405846Y239709D02*
X403217D01*
Y239780*
Y247654D02*
Y247583D01*
X405846*
X407266Y249003*
Y289496*
X403100Y293662*
Y299700*
X399313Y250651D02*
Y263787D01*
X399000Y264100*
Y270000*
X398113Y251413D02*
Y261342D01*
X394767Y264688*
X397500Y237800D02*
Y237806D01*
X403217*
Y237811*
Y249622D02*
Y291573D01*
X400500Y294290*
Y301500*
X170000Y260000D02*
X174392Y264392D01*
Y265261*
X178331Y269200*
X195500*
X213000Y261650D02*
X183350D01*
X180000Y265000*
X213000Y268350D02*
X196350D01*
X195500Y269200*
X235100Y268600D02*
X232650Y266150D01*
X231000*
Y266250*
X219000Y258350D02*
X219400Y258750D01*
X231000*
Y261250D02*
X224150D01*
X223750Y261650*
X213000*
X231000Y263750D02*
X234150D01*
X235700Y265300*
X231000Y263750D02*
X224150D01*
X219550Y268350*
X213000*
X231000Y273750D02*
X243450D01*
X250500Y280800*
X271941*
X235700Y265300D02*
X235600Y265400D01*
X235200Y268500D02*
X235100Y268600D01*
X263600Y269200D02*
X265400D01*
X267450Y271250*
X269000*
X264900Y272300D02*
Y273319D01*
X265281Y273700*
X268950*
X269000Y273750*
X273500Y276000D02*
Y276125D01*
X269000*
Y276250*
X294900Y257841D02*
X271941Y280800D01*
X357182Y258846D02*
X358800Y260464D01*
Y264245*
X359150Y258846D02*
X360300Y259996D01*
Y266060*
X360300D02*
X362900Y268660D01*
X362900D02*
Y273100D01*
X368993Y258846D02*
X370700Y260553D01*
Y262730*
X374000Y266030*
Y282500*
X358800Y264245D02*
X358600Y264445D01*
Y268000*
X376150Y274798D02*
Y283761D01*
X355000Y304911*
X377350Y267490D02*
Y284651D01*
X360000Y302001*
Y310000*
X394767Y264688D02*
Y281567D01*
X399000Y285800*
Y290000*
X112400Y287600D02*
Y291000D01*
X112900*
X113900*
Y293900*
X114500Y294500*
Y299000*
X112900Y283000D02*
X112400D01*
Y287600*
X115425Y287575D02*
X118850Y291000D01*
X119100*
X115500Y287500D02*
X115425Y287575D01*
X118900Y295600D02*
Y299000D01*
X119100*
Y283000D02*
X119500D01*
Y287500*
X235500Y278500D02*
Y278625D01*
X231000*
Y278750*
X264800Y278600D02*
Y278675D01*
X269000*
Y278750*
X412020Y291980D02*
X410500Y293500D01*
X408466Y290263D02*
X405500Y293229D01*
Y297500*
X409666Y291028D02*
X408200Y292494D01*
Y295800*
X114500Y299000D02*
X112900D01*
X355000Y304911D02*
Y310800D01*
X360000Y315800*
Y320000*
X310000D02*
X317500Y327500D01*
X369712*
X330000Y320000D02*
X334200D01*
X340500Y326300*
X369215*
X350000Y320000D02*
X353900Y323900D01*
X361615*
X340000Y320000D02*
X344200D01*
X349300Y325100*
X362112*
G54D39*
G54D41*
X134000Y108000D02*
X140000D01*
Y108276*
X152700Y110700D02*
X152810Y110590D01*
X150480Y108260*
X146000Y108000D02*
X140000D01*
Y108276*
Y115000*
X150500Y106370D02*
X150480D01*
Y108260*
X158600Y110800D02*
X158371Y111029D01*
X165500Y106370D02*
Y107981D01*
X168281*
X171100Y110800*
X160500Y106370D02*
Y108019D01*
X163781Y111300*
X165000*
X155500Y106370D02*
Y108157D01*
X158371Y111029*
X230000Y113000D02*
Y118750D01*
X215000Y113000D02*
Y123000D01*
X214815*
X147000Y133000D02*
X147125Y132875D01*
X152375Y138125*
X140000Y120087D02*
X154827D01*
X160500Y125760*
Y127630*
X150500D02*
Y132600D01*
X155500Y127630D02*
X155515D01*
Y132600*
X155600*
X165500Y127630D02*
Y134000D01*
X161500Y138000*
X161250*
X179185Y123000D02*
X179085Y122900D01*
X163360*
X160500Y125760*
Y127630*
X227000Y126750D02*
X227500Y127250D01*
X230000*
X214815Y123000D02*
X215000D01*
Y133000*
X222000Y123000D02*
X214815D01*
X223250*
X227000Y126750*
X152750Y138000D02*
Y139000D01*
X147000*
X152750Y138000D02*
Y138125D01*
X152375*
X174000Y295000D02*
X176300D01*
X197300Y316000*
X207000*
X211125Y320125*
X212875*
X193000Y282000D02*
Y289276D01*
X188000Y289000D02*
X193000D01*
Y289276*
X213000Y284000D02*
X212577D01*
Y289370*
X212500*
X208000Y284000D02*
X207577D01*
Y289370*
X207500*
X203000Y284000D02*
X202577D01*
Y289370*
X202500*
X198000Y289000D02*
X193000D01*
Y289276*
X218000Y284000D02*
X217577D01*
Y289370*
X217500*
X193000Y301087D02*
X204827D01*
X212500Y308760*
Y310630*
X204890Y306110D02*
X207520Y308740D01*
Y310630*
X207500*
X199890Y306110D02*
X202520Y308740D01*
Y310630*
X202500*
X200000Y306000D02*
X199890Y306110D01*
X205000Y306000D02*
X204890Y306110D01*
X230185Y308000D02*
Y304300D01*
X216960*
X212500Y308760*
Y310630*
X217500D02*
Y315500D01*
X212000Y321000*
X266000Y298000D02*
Y308000D01*
X265815*
X266000*
Y318000*
X265815Y308000D02*
X273000D01*
X211250Y321000D02*
X212000D01*
X212875Y320125*
X197000Y321000D02*
X202750D01*
X202000*
Y326000*
G54D42*
X134000Y108000D03*
X152700Y110700D03*
X140000Y115000D03*
X146000Y108000D03*
X171100Y110800D03*
X165000Y111300D03*
X158600Y110800D03*
X230000Y113000D03*
X215000D03*
X147000Y133000D03*
X150500Y132600D03*
X147500Y124000D03*
X169000Y130000D03*
X172500Y126000D03*
X155600Y132600D03*
X191000Y125000D03*
X197000D03*
X208500D03*
X215000Y133000D03*
X222000Y123000D03*
X245000Y133000D03*
X251000Y121500D03*
X262500Y124000D03*
X259500Y131000D03*
X374200Y136200D03*
X372000Y134000D03*
X373000Y124500D03*
X393000Y130000D03*
X390500Y133500D03*
X380500Y127000D03*
Y131300D03*
X109000Y141000D03*
X113000Y148500D03*
X147000Y139000D03*
X165400Y154200D03*
X213000Y148500D03*
X235300Y153600D03*
X249800Y156600D03*
X242700Y144400D03*
X273100Y156500D03*
X288000Y145000D03*
X348500Y148000D03*
X370600Y144900D03*
X368000Y142000D03*
X363500Y140500D03*
X403700Y155600D03*
X395500Y138500D03*
X185500Y170000D03*
X203000Y165500D03*
X225500Y157900D03*
X226500Y173500D03*
X227200Y162500D03*
X236500Y169500D03*
X243000Y175100D03*
X235200Y166000D03*
X235400Y175400D03*
X274700Y159300D03*
X273000Y162000D03*
X272900Y165100D03*
X273500Y169000D03*
X256900Y175300D03*
X264600Y171800D03*
X275700Y172400D03*
X288000Y157000D03*
X294500Y164000D03*
X298700Y166400D03*
X312800Y160300D03*
X310800Y173700D03*
X296500Y176000D03*
X329000Y162600D03*
X341500Y173500D03*
X348000Y164000D03*
X366000D03*
X355700Y176400D03*
X368500Y170500D03*
X412100Y169500D03*
X409000D03*
X405600Y160200D03*
X401200Y160900D03*
X205000Y195000D03*
X227200Y182500D03*
X235300Y178600D03*
X235600Y195400D03*
X246200Y185500D03*
X272900Y192500D03*
X273600Y178500D03*
X273000Y182500D03*
X257000Y187100D03*
X264900Y189700D03*
X292100Y191700D03*
X287700Y186500D03*
X286500Y189400D03*
X294500Y184000D03*
X299000Y192000D03*
X301000Y194500D03*
X310600Y194200D03*
X295300Y192000D03*
X328000Y178500D03*
X321500Y182200D03*
X347400Y191300D03*
X348100Y187400D03*
X340000Y195000D03*
X349400Y177300D03*
X365500Y178000D03*
X360600Y189500D03*
X357700Y190600D03*
X373500Y190500D03*
X355500Y186700D03*
X393000Y190500D03*
X232000Y212000D03*
X235500Y198600D03*
X235200Y211000D03*
X250000Y205000D03*
X249600Y199500D03*
X273000Y197800D03*
X272900Y202700D03*
X263800Y198900D03*
X264500Y202000D03*
Y206000D03*
Y209100D03*
X283700Y204900D03*
X277000Y215100D03*
X310200Y215300D03*
X302500Y215000D03*
X300100Y212700D03*
X308000Y212900D03*
X305000Y209400D03*
X300100Y209600D03*
X309500Y210100D03*
X343000Y199500D03*
X348000Y207000D03*
X350000Y209500D03*
X353100Y210100D03*
X348600Y214300D03*
X363500Y205000D03*
X355200Y201900D03*
X384200Y212300D03*
X382500Y205000D03*
X375000Y216500D03*
X394600Y201100D03*
X375100Y201500D03*
X397400Y216200D03*
X213000Y218500D03*
X227100Y232500D03*
X235300Y223600D03*
X244800Y228700D03*
X235300Y236000D03*
X243100Y221200D03*
X274500Y232000D03*
X274400Y228800D03*
X274600Y222300D03*
X274500Y225500D03*
X268900Y218700D03*
X272600Y219700D03*
X275700Y235800D03*
X303300Y236800D03*
X299100Y218100D03*
X302800Y220500D03*
X309700Y219900D03*
X305000Y218200D03*
X350000Y222600D03*
Y219500D03*
X337500Y236000D03*
X347800Y217300D03*
X348600Y233800D03*
X364200Y229800D03*
X388800Y224100D03*
X408200Y229600D03*
X410900Y226200D03*
X408500Y236000D03*
Y218000D03*
X227200Y252500D03*
X222000Y255500D03*
X235100Y248300D03*
X235500Y242000D03*
X242900Y238700D03*
X236400Y245400D03*
X249800Y256900D03*
X264900Y246600D03*
X273100Y241300D03*
X274300Y246000D03*
X273100Y238200D03*
X257200Y245200D03*
X265100Y252500D03*
X280500Y255500D03*
X286000D03*
X292500D03*
X300500Y248000D03*
X306500Y237600D03*
X312900Y254600D03*
X298000Y255500D03*
X348000Y237000D03*
X350000Y239500D03*
X348000Y242000D03*
X348100Y245200D03*
X338000Y251500D03*
X343300Y253800D03*
X353500Y251000D03*
X365100Y244900D03*
X371500Y250500D03*
X390900Y250900D03*
X384000Y244000D03*
X383900Y237900D03*
X397500Y237800D03*
X165500Y275000D03*
X207000Y272500D03*
X235200Y268500D03*
X250100Y268900D03*
X235600Y265400D03*
X249900Y274900D03*
X263600Y269200D03*
X264900Y272300D03*
X273500Y276000D03*
X256900Y275000D03*
X257000Y257100D03*
X292000Y263800D03*
X296400Y268500D03*
Y273400D03*
X350400Y261500D03*
X353500D03*
X356600Y262000D03*
X358600Y268000D03*
X362900Y273100D03*
X365500Y276000D03*
X365000Y265000D03*
X373500Y261500D03*
X413300Y257700D03*
X112400Y287600D03*
X112000Y295500D03*
X109000Y288000D03*
X119500Y287500D03*
X115500D03*
X118900Y295600D03*
X193000Y282000D03*
X188000Y289000D03*
X213000Y284000D03*
X208000D03*
X203000D03*
X198000Y289000D03*
X218000Y284000D03*
X235500Y278500D03*
X264800Y278600D03*
X285800Y282800D03*
X294000Y279000D03*
X369000Y278000D03*
X371500Y280500D03*
X374000Y282500D03*
X408200Y295800D03*
X410500Y293500D03*
X125900Y299400D03*
X200000Y306000D03*
X205000D03*
X246000Y308000D03*
X266000Y298000D03*
X273000Y308000D03*
X375500Y298400D03*
X400500Y301500D03*
X403100Y299700D03*
X405500Y297500D03*
X202000Y326000D03*
X197000Y321000D03*
X266000Y318000D03*
G54D52*
X161588Y138588D02*
X155177Y145000D01*
X130739*
X117000Y158739*
Y271261*
X161250Y138000D02*
Y138588D01*
X161588*
X117000Y271261D02*
X131739Y286000D01*
X162700*
X171700Y295000*
X174000*
X145000Y301063D02*
X163463D01*
X174000Y311600*
Y321000*
X145000Y316811D02*
X145011D01*
X149200Y321000*
X174000*
G54D93*
X115000Y115000D03*
Y315000D03*
X390000D03*
Y115000D03*
G54D94*
G54D95*
X396622Y256217D03*
X394654D03*
X392685D03*
X390717D03*
X388748D03*
X386780D03*
X384811D03*
X382843D03*
X380874D03*
X378906D03*
X376937D03*
X374969D03*
X373000D03*
X371031D03*
X369063D03*
X367094D03*
X365126D03*
X363157D03*
X361189D03*
X359220D03*
X357252D03*
X355283D03*
X353315D03*
X351346D03*
X349378D03*
Y195783D03*
X351346D03*
X353315D03*
X355283D03*
X357252D03*
X359220D03*
X361189D03*
X363157D03*
X365126D03*
X367094D03*
X369063D03*
X371031D03*
X373000D03*
X374969D03*
X376937D03*
X378906D03*
X380874D03*
X382843D03*
X384811D03*
X386780D03*
X388748D03*
X390717D03*
X392685D03*
X394654D03*
X396622D03*
G54D96*
X342783Y249622D03*
Y247654D03*
Y245685D03*
Y243717D03*
Y241748D03*
Y239780D03*
Y237811D03*
Y235843D03*
Y233874D03*
Y231906D03*
Y229937D03*
Y227969D03*
Y226000D03*
Y224031D03*
Y222063D03*
Y220094D03*
Y218126D03*
Y216157D03*
Y214189D03*
Y212220D03*
Y210252D03*
Y208283D03*
Y206315D03*
Y204346D03*
Y202378D03*
X403217D03*
Y204346D03*
Y206315D03*
Y208283D03*
Y210252D03*
Y212220D03*
Y214189D03*
Y216157D03*
Y218126D03*
Y220094D03*
Y222063D03*
Y224031D03*
Y226000D03*
Y227969D03*
Y229937D03*
Y231906D03*
Y233874D03*
Y235843D03*
Y237811D03*
Y239780D03*
Y241748D03*
Y243717D03*
Y245685D03*
Y247654D03*
Y249622D03*
G54D97*
X325161Y157992D03*
X327720D03*
X330280D03*
X332839D03*
Y182008D03*
X330280D03*
X327720D03*
X325161D03*
G54D98*
X348043Y159681D03*
X350602D03*
X353161D03*
X355720D03*
X358280D03*
X360839D03*
X363398D03*
X365957D03*
Y182319D03*
X363398D03*
X360839D03*
X358280D03*
X355720D03*
X353161D03*
X350602D03*
X348043D03*
G54D99*
X269000Y151250D03*
Y153750D03*
Y156250D03*
Y158750D03*
Y161250D03*
Y163750D03*
Y166250D03*
Y168750D03*
Y171250D03*
Y173750D03*
Y176250D03*
Y178750D03*
Y181250D03*
Y183750D03*
Y186250D03*
Y188750D03*
Y191250D03*
Y193750D03*
Y196250D03*
Y198750D03*
Y201250D03*
Y203750D03*
Y206250D03*
Y208750D03*
X231000D03*
Y206250D03*
Y203750D03*
Y201250D03*
Y198750D03*
Y196250D03*
Y193750D03*
Y191250D03*
Y188750D03*
Y186250D03*
Y183750D03*
Y181250D03*
Y178750D03*
Y176250D03*
Y173750D03*
Y171250D03*
Y168750D03*
Y166250D03*
Y163750D03*
Y161250D03*
Y158750D03*
Y156250D03*
Y153750D03*
Y151250D03*
X269000Y221250D03*
Y223750D03*
Y226250D03*
Y228750D03*
Y231250D03*
Y233750D03*
Y236250D03*
Y238750D03*
Y241250D03*
Y243750D03*
Y246250D03*
Y248750D03*
Y251250D03*
Y253750D03*
Y256250D03*
Y258750D03*
Y261250D03*
Y263750D03*
Y266250D03*
Y268750D03*
Y271250D03*
Y273750D03*
Y276250D03*
Y278750D03*
X231000D03*
Y276250D03*
Y273750D03*
Y271250D03*
Y268750D03*
Y266250D03*
Y263750D03*
Y261250D03*
Y258750D03*
Y256250D03*
Y253750D03*
Y251250D03*
Y248750D03*
Y246250D03*
Y243750D03*
Y241250D03*
Y238750D03*
Y236250D03*
Y233750D03*
Y231250D03*
Y228750D03*
Y226250D03*
Y223750D03*
Y221250D03*
G54D100*
X242929Y120850D03*
Y127150D03*
X259071D03*
Y120850D03*
G54D101*
X174000Y295000D03*
Y321000D03*
G54D102*
X112900Y283000D03*
X119100D03*
X112900Y299000D03*
X119100D03*
X112900Y291000D03*
X119100D03*
G54D103*
X140000Y120087D03*
X193000Y301087D03*
G54D104*
X140000Y108276D03*
X193000Y289276D03*
X0Y0D02*
M02*
