%
T1C.015F095S3
X0109Y0141
X0113Y01485
X01195Y02875
X01155Y02875
X01124Y02876
X0109Y0288
X0112Y02955
X01189Y02956
X01259Y02994
X0147Y0139
X0147Y0133
X01556Y01326
X01505Y01326
X01475Y0124
X014Y0115
X01586Y01108
X01527Y01107
X0146Y0108
X0134Y0108
X01711Y01108
X0165Y01113
X0191Y0125
X0197Y0125
X02085Y0125
X01725Y0126
X0169Y013
X01654Y01542
X0203Y01655
X01855Y017
X0205Y0195
X0207Y02725
X01655Y0275
X0193Y0282
X0208Y0284
X0203Y0284
X0188Y0289
X0198Y0289
X02Y0306
X0205Y0306
X0197Y0321
X0202Y0326
X0213Y0284
X0218Y0284
X0222Y02555
X02272Y02525
X02271Y02325
X0213Y02185
X0232Y0212
X02272Y01825
X02265Y01735
X02272Y01625
X02255Y01579
X0213Y01485
X0215Y0133
X0222Y0123
X023Y0113
X0215Y0113
X0251Y01215
X0245Y0133
X02427Y01444
X02353Y01536
X02498Y01566
X02352Y0166
X02365Y01695
X0243Y01751
X02569Y01753
X02354Y01754
X02353Y01786
X02462Y01855
X0257Y01871
X02356Y01954
X02355Y01986
X02496Y01995
X025Y0205
X02352Y0211
X02431Y02212
X02353Y02236
X02448Y02287
X02353Y0236
X02429Y02387
X02355Y0242
X02572Y02452
X02364Y02454
X02351Y02483
X02498Y02569
X0257Y02571
X02356Y02654
X02352Y02685
X02501Y02689
X02499Y02749
X02569Y0275
X02355Y02785
X0246Y0308
X0266Y0318
X0273Y0308
X0266Y0298
X02648Y02786
X02735Y0276
X02649Y02723
X02636Y02692
X02805Y02555
X02651Y02525
X02649Y02466
X02743Y0246
X02731Y02413
X02731Y02382
X02757Y02358
X02745Y0232
X02744Y02288
X02745Y02255
X02746Y02223
X02726Y02197
X02689Y02187
X0277Y02151
X02645Y02091
X02645Y0206
X02837Y02049
X02729Y02027
X02645Y0202
X02638Y01989
X0273Y01978
X02729Y01925
X02649Y01897
X0273Y01825
X02736Y01785
X02757Y01724
X02646Y01718
X02735Y0169
X02729Y01651
X0273Y0162
X02747Y01593
X02731Y01565
X02595Y0131
X02625Y0124
X0288Y0145
X0288Y0157
X02945Y0164
X02987Y01664
X02965Y0176
X02945Y0184
X02877Y01865
X02865Y01894
X02921Y01917
X02953Y0192
X0299Y0192
X0301Y01945
X0305Y02094
X03001Y02096
X03001Y02127
X0308Y02129
X03025Y0215
X02991Y02181
X0305Y02182
X03028Y02205
X03033Y02368
X03065Y02376
X03005Y0248
X02925Y02555
X0298Y02555
X0286Y02555
X0292Y02638
X02964Y02685
X02964Y02734
X0294Y0279
X02858Y02828
X03129Y02546
X03097Y02199
X03102Y02153
X03095Y02101
X03106Y01942
X03215Y01822
X0328Y01785
X03108Y01737
X0329Y01626
X03128Y01603
X03485Y0148
X0348Y0164
X03415Y01735
X03557Y01764
X03494Y01773
X03555Y01867
X03481Y01874
X03577Y01906
X03474Y01913
X034Y0195
X0343Y01995
X03552Y02019
X0348Y0207
X035Y02095
X03531Y02101
X03486Y02143
X03478Y02173
X035Y02195
X035Y02226
X03486Y02338
X03375Y0236
X0348Y0237
X035Y02395
X0348Y0242
X03481Y02452
X03535Y0251
X0338Y02515
X03433Y02538
X03504Y02615
X03535Y02615
X03566Y0262
X03586Y0268
X03755Y02984
X0374Y02825
X03715Y02805
X0369Y0278
X03655Y0276
X03629Y02731
X0365Y0265
X03735Y02615
X03715Y02505
X03651Y02449
X03839Y02379
X03642Y02298
X0375Y02165
X03825Y0205
X03635Y0205
X03751Y02015
X03735Y01905
X03606Y01895
X03655Y0178
X03685Y01705
X0366Y0164
X03706Y01449
X0368Y0142
X03635Y01405
X03742Y01362
X0372Y0134
X03805Y01313
X03805Y0127
X0373Y01245
X0393Y013
X03905Y01335
X03955Y01385
X04037Y01556
X04056Y01602
X04012Y01609
X0393Y01905
X03946Y02011
X03842Y02123
X03974Y02162
X04085Y0218
X03888Y02241
X04082Y02296
X04085Y0236
X03975Y02378
X0384Y0244
X03909Y02509
X04082Y02958
X04055Y02975
X04031Y02997
X04005Y03015
X04105Y02935
X04133Y02577
X04109Y02262
X04121Y01695
X0409Y01695
T2C.0315F197S55
X0145Y029319
X0145Y030106
X0145Y030894
X0145Y031681
X0388Y017387
X0388Y0166
X0388Y015813
T3C.037F197S55
X028Y011
X028Y012
X028Y013
X028Y031
X028Y032
X03Y032
X029Y032
X029Y031
X03Y031
X0306Y0162
X0306Y0152
X03Y012
X029Y012
X029Y011
X03Y011
X032Y011
X031Y011
X033Y011
X032Y012
X033Y012
X031Y012
X033Y013
X032Y03
X033Y031
X031Y031
X032Y031
X033Y032
X031Y032
X032Y032
X034Y032
X035Y032
X036Y032
X037Y032
X034Y031
X035Y031
X036Y031
X037Y031
X037Y03
X036Y012
X034Y012
X035Y012
X037Y012
X036Y011
X037Y011
X035Y011
X034Y011
X042Y011
X043Y011
X043Y012
X043Y013
X043Y014
X043Y015
X042Y016
X043Y016
X043Y017
X043Y018
X043Y019
X043Y02
X042Y023
X043Y023
X043Y024
X043Y025
X043Y026
X0389Y027
X0399Y027
X043Y027
X0389Y028
X042Y028
X043Y028
X0399Y028
X0389Y029
X0399Y029
X043Y029
X043Y03
X043Y031
X043Y032
X044Y032
X044Y031
X044Y03
X044Y029
X044Y028
X044Y027
X044Y026
X044Y025
X044Y024
X044Y023
X044Y02
X044Y019
X044Y018
X044Y017
X044Y016
X044Y015
X044Y014
X044Y013
X044Y012
X044Y011
T4C.042F139S55
X013Y01608
X0123Y01608
X01439Y02133
X01369Y02133
X013Y02167
X0123Y02167
X013Y02692
X0123Y02692
X018Y0265
X017Y026
X018Y0255
X017Y025
X018Y0245
X017Y024
X018Y0225
X017Y022
X018Y021
X017Y0205
X018Y019
X017Y0185
X018Y018
X017Y0175
X018Y017
X017Y0165
T5C.062F089S55
X0157Y0154
X0202Y02175
X0157Y0276
T6C.125F035S794
X0115Y0115
X0115Y0315
X039Y0315
X039Y0115
T7C.126F035S794
X0145Y0165
X0145Y0265
M30
