*
*
G04 PADS9.1 Build Number: 384028 generated Gerber (RS-274-X) file*
G04 PC Version=2.1*
*
%IN "medulla.1.pcb"*%
*
%MOIN*%
*
%FSLAX35Y35*%
*
*
*
*
G04 PC Standard Apertures*
*
*
G04 Thermal Relief Aperture macro.*
%AMTER*
1,1,$1,0,0*
1,0,$1-$2,0,0*
21,0,$3,$4,0,0,45*
21,0,$3,$4,0,0,135*
%
*
*
G04 Annular Aperture macro.*
%AMANN*
1,1,$1,0,0*
1,0,$2,0,0*
%
*
*
G04 Odd Aperture macro.*
%AMODD*
1,1,$1,0,0*
1,0,$1-0.005,0,0*
%
*
*
G04 PC Custom Aperture Macros*
*
*
*
*
*
*
G04 PC Aperture Table*
*
%ADD039C,0.01*%
%ADD053R,0.05818X0.05818*%
%ADD054C,0.05818*%
%ADD055R,0.06212X0.05424*%
%ADD056O,0.03062X0.06802*%
%ADD060O,0.047X0.05*%
%ADD061O,0.05X0.047*%
%ADD062R,0.067X0.062*%
%ADD063R,0.062X0.067*%
%ADD064R,0.067X0.067*%
%ADD065C,0.067*%
%ADD066R,0.072X0.072*%
%ADD067C,0.072*%
%ADD068C,0.177*%
%ADD069C,0.069*%
%ADD070C,0.097*%
%ADD072R,0.037X0.045*%
%ADD077C,0.01881*%
%ADD079R,0.09558X0.16448*%
%ADD094C,0.001*%
%ADD108O,0.01881X0.06999*%
%ADD109O,0.06999X0.01881*%
%ADD110O,0.01881X0.0385*%
%ADD111R,0.01881X0.05621*%
%ADD112O,0.052X0.021*%
%ADD113R,0.04243X0.04637*%
%ADD114R,0.133X0.087*%
%ADD115R,0.045X0.037*%
%ADD116O,0.05818X0.06606*%
%ADD117O,0.05818X0.10149*%
%ADD118C,0.257*%
*
*
*
*
G04 PC Circuitry*
G04 Layer Name medulla.1.pcb - circuitry*
%LPD*%
*
G54D94*
G01X342248Y282950D02*
X334007D01*
X332527Y282527*
X331472Y282105*
X330416Y281261*
X329573Y280417*
X328941Y279153*
X328517Y277459*
X328306Y275341*
X328306D02*
X328730Y272373D01*
X329153Y271104*
X329784Y269841*
X330837Y268999*
X331892Y268365*
X333371Y267943*
X335279Y267731*
X342248*
Y282950*
X337667Y279383D02*
Y271298D01*
X337617Y271248*
X336340*
X336333*
X334844Y271461*
X334825Y271468*
X333762Y272106*
X333743Y272127*
X333104Y273403*
X333099Y273420*
X332886Y275335*
Y275340*
Y277043*
X332891Y277065*
X333743Y278767*
X333752Y278780*
X334177Y279206*
X334201Y279219*
X335052Y279431*
X335064Y279433*
X337617*
X337667Y279383*
X342433Y290640D02*
X342271Y290882D01*
X342117Y291036*
X341728*
X341573Y290882*
X341412Y290640*
Y288845*
Y288839*
X341325Y288149*
Y288145*
X341239Y287714*
X341225Y287689*
X340880Y287344*
X340853Y287330*
X340336Y287244*
X340312Y287246*
X340053Y287332*
X340047Y287335*
X339874Y287421*
X339852Y287443*
X339679Y287788*
X339674Y287810*
Y290640*
X339513Y290882*
X339359Y291036*
X338969*
X338815Y290882*
X338653Y290640*
Y288241*
X338650Y288223*
X338477Y287792*
X338471Y287780*
X338212Y287436*
X338188Y287418*
X337671Y287246*
X337637Y287247*
X337206Y287419*
X337179Y287443*
X337007Y287788*
X337002Y287810*
Y290388*
X336836Y290887*
X336686Y291036*
X336210*
X336056Y290882*
X335895Y290640*
Y287561*
X336062Y287144*
X336227Y286897*
X336556Y286650*
X336890Y286566*
X337310Y286482*
X338065Y286650*
X338746Y287161*
X338811Y287156*
X339319Y286649*
X339983Y286482*
X340742Y286651*
X341074Y286817*
X341413Y287156*
X341498Y287121*
Y287044*
X341660Y286640*
X341966Y286487*
X342269Y286639*
X342433Y287129*
Y290640*
X334932Y288759D02*
X334763Y289690D01*
X334342Y290447*
X333671Y290866*
X332739Y291036*
X331893Y290951*
X331219Y290614*
X330891Y290286*
X330810Y289883*
X330884Y289660*
X331103Y289587*
X331335Y289664*
X331672Y290001*
X331685Y290010*
X332374Y290355*
X332397Y290360*
X332741*
X332757Y290358*
X333274Y290185*
X333290Y290177*
X333721Y289832*
X333738Y289805*
X333911Y289116*
X333862Y289053*
X331198*
X330963Y288975*
X330805Y288738*
X330724Y288413*
X330807Y287996*
X330977Y287487*
X331228Y287068*
X331645Y286734*
X332149Y286566*
X332740Y286482*
X333669Y286651*
X334342Y287155*
X334763Y287829*
X334932Y288759*
X333912Y288414D02*
X333911Y288406D01*
X333825Y287888*
X333816Y287867*
X333557Y287522*
X333540Y287507*
X333195Y287335*
X333185Y287331*
X332840Y287245*
X332818Y287244*
X332387Y287330*
X332374Y287335*
X332029Y287507*
X332007Y287529*
X331835Y287874*
X331830Y287888*
X331744Y288406*
X331743Y288414*
X331793Y288464*
X333862*
X333912Y288414*
X325652Y282950D02*
X321071D01*
Y276617*
X321021Y276567*
X320596*
X320577Y276571*
X319513Y276996*
X319497Y277007*
X319071Y277433*
X319065Y277440*
X318639Y278079*
X318637Y278082*
X315886Y282950*
X310891*
X313193Y278556*
X313827Y277499*
X314668Y276658*
X315086Y276449*
X315092Y276446*
X315730Y276020*
X315714Y275930*
X314865Y275718*
X314236Y275508*
X313397Y274879*
X312767Y274039*
X312346Y272986*
X312136Y271935*
X312347Y270460*
X312766Y269411*
X313603Y268575*
X314652Y268155*
X315922Y267943*
X317833Y267731*
X325652*
Y282950*
X321071Y273638D02*
Y270660D01*
X321021Y270610*
X318894*
X318884Y270611*
X317820Y270823*
X317814Y270825*
X317176Y271038*
X317156Y271050*
X316731Y271475*
X316716Y271511*
Y272149*
X316717Y272161*
X316930Y273012*
X316956Y273045*
X317807Y273470*
X317818Y273474*
X318669Y273687*
X318681Y273688*
X321021*
X321071Y273638*
X329932Y288672D02*
X329762Y289606D01*
X329424Y290366*
X328834Y290872*
X328505Y291036*
X328090*
X327585Y290952*
X327081Y290700*
X326656Y290275*
X326571Y290310*
Y290473*
X326410Y290875*
X326020Y291031*
X325702Y290873*
X325550Y290721*
Y285405*
X325713Y284915*
X326021Y284761*
X326257Y284839*
X326407Y284915*
X326571Y285405*
Y287121*
X326651Y287161*
X327332Y286650*
X328086Y286482*
X328841Y286650*
X329426Y287068*
X329762Y287740*
X329932Y288672*
X328912Y288759D02*
X328911Y288748D01*
X328738Y287972*
X328731Y287955*
X328386Y287438*
X328361Y287418*
X327843Y287246*
X327814Y287245*
X327210Y287417*
X327186Y287434*
X326755Y287951*
X326743Y287977*
X326657Y288753*
Y288759*
Y289190*
X326658Y289199*
X326744Y289630*
X326751Y289648*
X326751D02*
X326924Y289907D01*
X326938Y289921*
X327455Y290266*
X327483Y290274*
X328086*
X328114Y290266*
X328373Y290093*
X328380Y290087*
X328553Y289915*
X328562Y289902*
X328734Y289557*
X328738Y289545*
X328911Y288769*
X328912Y288759*
X324243Y289445D02*
X324158Y290043D01*
X324075Y290456*
X323581Y290868*
X322826Y291035*
X322239Y290952*
X321737Y290700*
X321311Y290275*
X321226Y290310*
Y290473*
X321064Y290878*
X320759Y291030*
X320443Y290873*
X320291Y290721*
Y287129*
X320455Y286639*
X320761Y286486*
X321150Y286641*
X321312Y287129*
Y289190*
X321313Y289199*
X321399Y289630*
X321409Y289652*
X321754Y290083*
X321771Y290096*
X322116Y290269*
X322138Y290274*
X322655*
X322691Y290259*
X322863Y290087*
X322870Y290077*
X323129Y289646*
X323136Y289627*
X323222Y288937*
Y288931*
Y286877*
X323378Y286644*
X323774Y286486*
X324086Y286642*
X324243Y286877*
Y289445*
X319071Y290388D02*
X318905Y290887D01*
X318755Y291036*
X318366*
X318050Y290721*
Y285153*
X318205Y284920*
X318601Y284762*
X318907Y284915*
X319071Y285405*
Y290388*
X316743D02*
X316577Y290887D01*
X316428Y291036*
X316038*
X315722Y290721*
Y285153*
X315878Y284920*
X316274Y284762*
X316580Y284915*
X316743Y285405*
Y290388*
X314673Y289792D02*
X314507Y290455D01*
X314007Y290872*
X313678Y291036*
X313264*
X312411Y290866*
X311991Y290698*
X311566Y290358*
X311490Y290374*
X311321Y290712*
X310997Y291036*
X310854*
X310454Y290876*
X310378Y290647*
Y290489*
X310462Y290150*
X310463Y290144*
X310550Y289454*
Y289448*
Y287648*
X310716Y287232*
X310967Y286898*
X311296Y286651*
X311800Y286567*
X312482Y286481*
X313079Y286567*
X313586Y286651*
X314003Y286902*
X314254Y287153*
X314420Y287401*
X314498Y287634*
X314345Y287940*
X314036Y288017*
X313803Y287939*
X313208Y287344*
X313185Y287331*
X312840Y287245*
X312828Y287243*
X312483*
X312473Y287244*
X312042Y287330*
X312036Y287332*
X311777Y287418*
X311746Y287450*
X311659Y287708*
X311658Y287712*
X311572Y288057*
X311609Y288117*
X312298Y288290*
X312299*
X312299D02*
X313075Y288462D01*
X313419Y288549*
X313431Y288550*
X313595*
X314094Y288716*
X314424Y289047*
X314590Y289378*
X314673Y289792*
X313651Y289691D02*
X313565Y289432D01*
X313562Y289426*
X313476Y289254*
X313476D02*
X313453Y289231D01*
X313109Y289059*
X313102Y289056*
X312843Y288970*
X312837Y288968*
X311976Y288796*
X311633Y288710*
X311571Y288759*
Y289448*
X311576Y289471*
X311748Y289815*
X311762Y289832*
X312193Y290177*
X312210Y290186*
X312814Y290358*
X312828Y290360*
X313172*
X313200Y290352*
X313459Y290180*
X313476Y290160*
X313562Y289988*
X313565Y289981*
X313651Y289723*
Y289691*
X309269Y282950D02*
X297241D01*
Y279220*
X304638*
X304688Y279170*
Y267731*
X309269*
Y282950*
X309154Y290483D02*
X309074Y290722D01*
X308993Y290884*
X308841Y291036*
X308366*
X308050Y290721*
Y290245*
X308201Y290094*
X308605Y289933*
X308843Y290012*
X308997Y290089*
X309074Y290243*
X309154Y290483*
X306735Y286945D02*
X306585Y287171D01*
X306347Y287329*
X306115*
X305785Y287164*
X305444Y286908*
X305442Y286907*
X304924Y286562*
X304847Y286603*
Y290721*
X304531Y291036*
X304387*
X304140Y290954*
X303983Y290875*
X303826Y290640*
Y285487*
X303907Y285001*
X304295Y284846*
X304516Y284920*
X304593Y285074*
X304596Y285079*
X304769Y285338*
X304775Y285346*
X305292Y285863*
X305298Y285868*
X305642Y286126*
X305650Y286131*
X306165Y286388*
X306421Y286559*
X306426Y286562*
X306583Y286641*
X306735Y286945*
X297300Y279220D02*
Y282950D01*
X297400Y279220D02*
Y282950D01*
X297500Y279220D02*
Y282950D01*
X297600Y279220D02*
Y282950D01*
X297700Y279220D02*
Y282950D01*
X297800Y279220D02*
Y282950D01*
X297900Y279220D02*
Y282950D01*
X298000Y279220D02*
Y282950D01*
X298100Y279220D02*
Y282950D01*
X298200Y279220D02*
Y282950D01*
X298300Y279220D02*
Y282950D01*
X298400Y279220D02*
Y282950D01*
X298500Y279220D02*
Y282950D01*
X298600Y279220D02*
Y282950D01*
X298700Y279220D02*
Y282950D01*
X298800Y279220D02*
Y282950D01*
X298900Y279220D02*
Y282950D01*
X299000Y279220D02*
Y282950D01*
X299100Y279220D02*
Y282950D01*
X299200Y279220D02*
Y282950D01*
X299300Y279220D02*
Y282950D01*
X299400Y279220D02*
Y282950D01*
X299500Y279220D02*
Y282950D01*
X299600Y279220D02*
Y282950D01*
X299700Y279220D02*
Y282950D01*
X299800Y279220D02*
Y282950D01*
X299900Y279220D02*
Y282950D01*
X300000Y279220D02*
Y282950D01*
X300100Y279220D02*
Y282950D01*
X300200Y279220D02*
Y282950D01*
X300300Y279220D02*
Y282950D01*
X300400Y279220D02*
Y282950D01*
X300500Y279220D02*
Y282950D01*
X300600Y279220D02*
Y282950D01*
X300700Y279220D02*
Y282950D01*
X300800Y279220D02*
Y282950D01*
X300900Y279220D02*
Y282950D01*
X301000Y279220D02*
Y282950D01*
X301100Y279220D02*
Y282950D01*
X301200Y279220D02*
Y282950D01*
X301300Y279220D02*
Y282950D01*
X301400Y279220D02*
Y282950D01*
X301500Y279220D02*
Y282950D01*
X301600Y279220D02*
Y282950D01*
X301700Y279220D02*
Y282950D01*
X301800Y279220D02*
Y282950D01*
X301900Y279220D02*
Y282950D01*
X302000Y279220D02*
Y282950D01*
X302100Y279220D02*
Y282950D01*
X302200Y279220D02*
Y282950D01*
X302300Y279220D02*
Y282950D01*
X302400Y279220D02*
Y282950D01*
X302500Y279220D02*
Y282950D01*
X302600Y279220D02*
Y282950D01*
X302700Y279220D02*
Y282950D01*
X302800Y279220D02*
Y282950D01*
X302900Y279220D02*
Y282950D01*
X303000Y279220D02*
Y282950D01*
X303100Y279220D02*
Y282950D01*
X303200Y279220D02*
Y282950D01*
X303300Y279220D02*
Y282950D01*
X303400Y279220D02*
Y282950D01*
X303500Y279220D02*
Y282950D01*
X303600Y279220D02*
Y282950D01*
X303700Y279220D02*
Y282950D01*
X303800Y279220D02*
Y282950D01*
X303900Y279220D02*
Y282950D01*
Y285042D02*
Y290751D01*
X304000Y279220D02*
Y282950D01*
Y284964D02*
Y290884D01*
X304100Y279220D02*
Y282950D01*
Y284924D02*
Y290934D01*
X304200Y279220D02*
Y282950D01*
Y284884D02*
Y290974D01*
X304300Y279220D02*
Y282950D01*
Y284848D02*
Y291007D01*
X304400Y279220D02*
Y282950D01*
Y284881D02*
Y291036D01*
X304500Y279220D02*
Y282950D01*
Y284915D02*
Y291036D01*
X304600Y279220D02*
Y282950D01*
Y285085D02*
Y290967D01*
X304700Y267731D02*
Y282950D01*
Y285235D02*
Y290867D01*
X304800Y267731D02*
Y282950D01*
Y285371D02*
Y290767D01*
X304900Y267731D02*
Y282950D01*
Y285471D02*
Y286554D01*
X305000Y267731D02*
Y282950D01*
Y285571D02*
Y286612D01*
X305100Y267731D02*
Y282950D01*
Y285671D02*
Y286679D01*
X305200Y267731D02*
Y282950D01*
Y285771D02*
Y286746D01*
X305300Y267731D02*
Y282950D01*
Y285869D02*
Y286812D01*
X305400Y267731D02*
Y282950D01*
Y285944D02*
Y286879D01*
X305500Y267731D02*
Y282950D01*
Y286019D02*
Y286950D01*
X305600Y267731D02*
Y282950D01*
Y286094D02*
Y287025D01*
X305700Y267731D02*
Y282950D01*
Y286156D02*
Y287100D01*
X305800Y267731D02*
Y282950D01*
Y286206D02*
Y287172D01*
X305900Y267731D02*
Y282950D01*
Y286256D02*
Y287222D01*
X306000Y267731D02*
Y282950D01*
Y286306D02*
Y287272D01*
X306100Y267731D02*
Y282950D01*
Y286356D02*
Y287322D01*
X306200Y267731D02*
Y282950D01*
Y286412D02*
Y287329D01*
X306300Y267731D02*
Y282950D01*
Y286478D02*
Y287329D01*
X306400Y267731D02*
Y282950D01*
Y286545D02*
Y287294D01*
X306500Y267731D02*
Y282950D01*
Y286599D02*
Y287227D01*
X306600Y267731D02*
Y282950D01*
Y286674D02*
Y287148D01*
X306700Y267731D02*
Y282950D01*
Y286874D02*
Y286998D01*
X306800Y267731D02*
Y282950D01*
X306900Y267731D02*
Y282950D01*
X307000Y267731D02*
Y282950D01*
X307100Y267731D02*
Y282950D01*
X307200Y267731D02*
Y282950D01*
X307300Y267731D02*
Y282950D01*
X307400Y267731D02*
Y282950D01*
X307500Y267731D02*
Y282950D01*
X307600Y267731D02*
Y282950D01*
X307700Y267731D02*
Y282950D01*
X307800Y267731D02*
Y282950D01*
X307900Y267731D02*
Y282950D01*
X308000Y267731D02*
Y282950D01*
X308100Y267731D02*
Y282950D01*
Y290195D02*
Y290771D01*
X308200Y267731D02*
Y282950D01*
Y290095D02*
Y290871D01*
X308300Y267731D02*
Y282950D01*
Y290055D02*
Y290971D01*
X308400Y267731D02*
Y282950D01*
Y290015D02*
Y291036D01*
X308500Y267731D02*
Y282950D01*
Y289975D02*
Y291036D01*
X308600Y267731D02*
Y282950D01*
Y289935D02*
Y291036D01*
X308700Y267731D02*
Y282950D01*
Y289964D02*
Y291036D01*
X308800Y267731D02*
Y282950D01*
Y289998D02*
Y291036D01*
X308900Y267731D02*
Y282950D01*
Y290040D02*
Y290978D01*
X309000Y267731D02*
Y282950D01*
Y290095D02*
Y290871D01*
X309100Y267731D02*
Y282950D01*
Y290320D02*
Y290645D01*
X309200Y267731D02*
Y282950D01*
X310400Y290399D02*
Y290714D01*
X310500Y289851D02*
Y290894D01*
X310600Y287523D02*
Y290934D01*
X310700Y287273D02*
Y290974D01*
X310800Y287120D02*
Y291014D01*
X310900Y282933D02*
Y282950D01*
Y286987D02*
Y291036D01*
X311000Y282742D02*
Y282950D01*
Y286873D02*
Y291033D01*
X311100Y282551D02*
Y282950D01*
Y286798D02*
Y290933D01*
X311200Y282360D02*
Y282950D01*
Y286723D02*
Y290833D01*
X311300Y282169D02*
Y282950D01*
Y286650D02*
Y290733D01*
X311400Y281979D02*
Y282950D01*
Y286633D02*
Y290554D01*
X311500Y281788D02*
Y282950D01*
Y286617D02*
Y290360D01*
X311600Y281597D02*
Y282950D01*
Y286600D02*
Y287946D01*
Y288114D02*
Y288713D01*
Y289519D02*
Y290385D01*
X311700Y281406D02*
Y282950D01*
Y286583D02*
Y287587D01*
Y288140D02*
Y288727D01*
Y289719D02*
Y290465D01*
X311800Y281215D02*
Y282950D01*
Y286567D02*
Y287411D01*
Y288165D02*
Y288752D01*
Y289863D02*
Y290545D01*
X311900Y281024D02*
Y282950D01*
Y286554D02*
Y287377D01*
Y288190D02*
Y288777D01*
Y289943D02*
Y290625D01*
X312000Y280833D02*
Y282950D01*
Y286542D02*
Y287344D01*
Y288215D02*
Y288801D01*
Y290023D02*
Y290701D01*
X312100Y280642D02*
Y282950D01*
Y286529D02*
Y287319D01*
Y288240D02*
Y288821D01*
Y290103D02*
Y290741D01*
X312200Y271485D02*
Y272256D01*
Y280451D02*
Y282950D01*
Y286517D02*
Y287299D01*
Y288265D02*
Y288841D01*
Y290182D02*
Y290781D01*
X312300Y270785D02*
Y272756D01*
Y280260D02*
Y282950D01*
Y286504D02*
Y287279D01*
Y288290D02*
Y288861D01*
Y290212D02*
Y290821D01*
X312400Y270326D02*
Y273121D01*
Y280069D02*
Y282950D01*
Y286492D02*
Y287259D01*
Y288313D02*
Y288881D01*
Y290240D02*
Y290861D01*
X312500Y270076D02*
Y273371D01*
Y279879D02*
Y282950D01*
Y286484D02*
Y287243D01*
Y288335D02*
Y288901D01*
Y290269D02*
Y290883D01*
X312600Y269826D02*
Y273621D01*
Y279688D02*
Y282950D01*
Y286498D02*
Y287243D01*
Y288357D02*
Y288921D01*
Y290297D02*
Y290903D01*
X312700Y269576D02*
Y273871D01*
Y279497D02*
Y282950D01*
Y286513D02*
Y287243D01*
Y288379D02*
Y288941D01*
Y290326D02*
Y290923D01*
X312800Y269377D02*
Y274083D01*
Y279306D02*
Y282950D01*
Y286527D02*
Y287243D01*
Y288401D02*
Y288961D01*
Y290354D02*
Y290943D01*
X312900Y269277D02*
Y274216D01*
Y279115D02*
Y282950D01*
Y286541D02*
Y287260D01*
Y288424D02*
Y288989D01*
Y290360D02*
Y290963D01*
X313000Y269177D02*
Y274349D01*
Y278924D02*
Y282950D01*
Y286555D02*
Y287285D01*
Y288446D02*
Y289022D01*
Y290360D02*
Y290983D01*
X313100Y269077D02*
Y274483D01*
Y278733D02*
Y282950D01*
Y286570D02*
Y287310D01*
Y288469D02*
Y289055D01*
Y290360D02*
Y291003D01*
X313200Y268977D02*
Y274616D01*
Y278544D02*
Y282950D01*
Y286587D02*
Y287338D01*
Y288494D02*
Y289104D01*
Y290352D02*
Y291023D01*
X313300Y268877D02*
Y274749D01*
Y278377D02*
Y282950D01*
Y286604D02*
Y287436D01*
Y288519D02*
Y289154D01*
Y290285D02*
Y291036D01*
X313400Y268777D02*
Y274881D01*
Y278211D02*
Y282950D01*
Y286620D02*
Y287536D01*
Y288544D02*
Y289204D01*
Y290219D02*
Y291036D01*
X313500Y268677D02*
Y274956D01*
Y278044D02*
Y282950D01*
Y286637D02*
Y287636D01*
Y288550D02*
Y289302D01*
Y290112D02*
Y291036D01*
X313600Y268577D02*
Y275031D01*
Y277877D02*
Y282950D01*
Y286660D02*
Y287736D01*
Y288552D02*
Y289538D01*
Y289875D02*
Y291036D01*
X313700Y268536D02*
Y275106D01*
Y277711D02*
Y282950D01*
Y286720D02*
Y287836D01*
Y288585D02*
Y291025D01*
X313800Y268496D02*
Y275181D01*
Y277544D02*
Y282950D01*
Y286780D02*
Y287936D01*
Y288618D02*
Y290975D01*
X313900Y268456D02*
Y275256D01*
Y277426D02*
Y282950D01*
Y286840D02*
Y287971D01*
Y288652D02*
Y290925D01*
X314000Y268416D02*
Y275331D01*
Y277326D02*
Y282950D01*
Y286900D02*
Y288005D01*
Y288685D02*
Y290875D01*
X314100Y268376D02*
Y275406D01*
Y277226D02*
Y282950D01*
Y286998D02*
Y288001D01*
Y288722D02*
Y290794D01*
X314200Y268336D02*
Y275481D01*
Y277126D02*
Y282950D01*
Y287098D02*
Y287976D01*
Y288822D02*
Y290711D01*
X314300Y268296D02*
Y275530D01*
Y277026D02*
Y282950D01*
Y287221D02*
Y287951D01*
Y288922D02*
Y290627D01*
X314400Y268256D02*
Y275563D01*
Y276926D02*
Y282950D01*
Y287371D02*
Y287830D01*
Y289022D02*
Y290544D01*
X314500Y268216D02*
Y275596D01*
Y276826D02*
Y282950D01*
Y289198D02*
Y290461D01*
X314600Y268176D02*
Y275630D01*
Y276726D02*
Y282950D01*
Y289427D02*
Y290084D01*
X314700Y268147D02*
Y275663D01*
Y276642D02*
Y282950D01*
X314800Y268130D02*
Y275696D01*
Y276592D02*
Y282950D01*
X314900Y268113D02*
Y275727D01*
Y276542D02*
Y282950D01*
X315000Y268097D02*
Y275752D01*
Y276492D02*
Y282950D01*
X315100Y268080D02*
Y275777D01*
Y276440D02*
Y282950D01*
X315200Y268063D02*
Y275802D01*
Y276374D02*
Y282950D01*
X315300Y268047D02*
Y275827D01*
Y276307D02*
Y282950D01*
X315400Y268030D02*
Y275852D01*
Y276240D02*
Y282950D01*
X315500Y268013D02*
Y275877D01*
Y276174D02*
Y282950D01*
X315600Y267997D02*
Y275902D01*
Y276107D02*
Y282950D01*
X315700Y267980D02*
Y275927D01*
Y276040D02*
Y282950D01*
X315800Y267963D02*
Y282950D01*
Y285037D02*
Y290798D01*
X315900Y267947D02*
Y282925D01*
Y284911D02*
Y290898D01*
X316000Y267934D02*
Y282748D01*
Y284871D02*
Y290998D01*
X316100Y267923D02*
Y282571D01*
Y284831D02*
Y291036D01*
X316200Y267912D02*
Y282394D01*
Y284791D02*
Y291036D01*
X316300Y267901D02*
Y282217D01*
Y284775D02*
Y291036D01*
X316400Y267890D02*
Y282040D01*
Y284825D02*
Y291036D01*
X316500Y267879D02*
Y281863D01*
Y284875D02*
Y290964D01*
X316600Y267868D02*
Y281686D01*
Y284975D02*
Y290818D01*
X316700Y267857D02*
Y281509D01*
Y285275D02*
Y290518D01*
X316800Y267846D02*
Y271406D01*
Y272491D02*
Y281332D01*
X316900Y267834D02*
Y271306D01*
Y272891D02*
Y281156D01*
X317000Y267823D02*
Y271206D01*
Y273067D02*
Y280979D01*
X317100Y267812D02*
Y271106D01*
Y273117D02*
Y280802D01*
X317200Y267801D02*
Y271030D01*
Y273167D02*
Y280625D01*
X317300Y267790D02*
Y270996D01*
Y273217D02*
Y280448D01*
X317400Y267779D02*
Y270963D01*
Y273267D02*
Y280271D01*
X317500Y267768D02*
Y270930D01*
Y273317D02*
Y280094D01*
X317600Y267757D02*
Y270896D01*
Y273367D02*
Y279917D01*
X317700Y267746D02*
Y270863D01*
Y273417D02*
Y279740D01*
X317800Y267734D02*
Y270830D01*
Y273467D02*
Y279563D01*
X317900Y267731D02*
Y270807D01*
Y273495D02*
Y279386D01*
X318000Y267731D02*
Y270787D01*
Y273520D02*
Y279209D01*
X318100Y267731D02*
Y270767D01*
Y273545D02*
Y279032D01*
Y285078D02*
Y290771D01*
X318200Y267731D02*
Y270747D01*
Y273570D02*
Y278856D01*
Y284928D02*
Y290871D01*
X318300Y267731D02*
Y270727D01*
Y273595D02*
Y278679D01*
Y284882D02*
Y290971D01*
X318400Y267731D02*
Y270707D01*
Y273620D02*
Y278502D01*
Y284842D02*
Y291036D01*
X318500Y267731D02*
Y270687D01*
Y273645D02*
Y278325D01*
Y284802D02*
Y291036D01*
X318600Y267731D02*
Y270667D01*
Y273670D02*
Y278148D01*
Y284762D02*
Y291036D01*
X318700Y267731D02*
Y270647D01*
Y273688D02*
Y277988D01*
Y284811D02*
Y291036D01*
X318800Y267731D02*
Y270627D01*
Y273688D02*
Y277838D01*
Y284861D02*
Y290991D01*
X318900Y267731D02*
Y270610D01*
Y273688D02*
Y277688D01*
Y284911D02*
Y290891D01*
X319000Y267731D02*
Y270610D01*
Y273688D02*
Y277538D01*
Y285193D02*
Y290601D01*
X319100Y267731D02*
Y270610D01*
Y273688D02*
Y277404D01*
X319200Y267731D02*
Y270610D01*
Y273688D02*
Y277304D01*
X319300Y267731D02*
Y270610D01*
Y273688D02*
Y277204D01*
X319400Y267731D02*
Y270610D01*
Y273688D02*
Y277104D01*
X319500Y267731D02*
Y270610D01*
Y273688D02*
Y277004D01*
X319600Y267731D02*
Y270610D01*
Y273688D02*
Y276961D01*
X319700Y267731D02*
Y270610D01*
Y273688D02*
Y276921D01*
X319800Y267731D02*
Y270610D01*
Y273688D02*
Y276881D01*
X319900Y267731D02*
Y270610D01*
Y273688D02*
Y276841D01*
X320000Y267731D02*
Y270610D01*
Y273688D02*
Y276801D01*
X320100Y267731D02*
Y270610D01*
Y273688D02*
Y276761D01*
X320200Y267731D02*
Y270610D01*
Y273688D02*
Y276721D01*
X320300Y267731D02*
Y270610D01*
Y273688D02*
Y276681D01*
Y287103D02*
Y290729D01*
X320400Y267731D02*
Y270610D01*
Y273688D02*
Y276641D01*
Y286803D02*
Y290829D01*
X320500Y267731D02*
Y270610D01*
Y273688D02*
Y276601D01*
Y286616D02*
Y290901D01*
X320600Y267731D02*
Y270610D01*
Y273688D02*
Y276567D01*
Y286566D02*
Y290951D01*
X320700Y267731D02*
Y270610D01*
Y273688D02*
Y276567D01*
Y286516D02*
Y291001D01*
X320800Y267731D02*
Y270610D01*
Y273688D02*
Y276567D01*
Y286501D02*
Y291010D01*
X320900Y267731D02*
Y270610D01*
Y273688D02*
Y276567D01*
Y286541D02*
Y290960D01*
X321000Y267731D02*
Y270610D01*
Y273688D02*
Y276567D01*
Y286581D02*
Y290910D01*
X321100Y267731D02*
Y282950D01*
Y286621D02*
Y290788D01*
X321200Y267731D02*
Y282950D01*
Y286793D02*
Y290538D01*
X321300Y267731D02*
Y282950D01*
Y287093D02*
Y290267D01*
X321400Y267731D02*
Y282950D01*
Y289634D02*
Y290364D01*
X321500Y267731D02*
Y282950D01*
Y289765D02*
Y290464D01*
X321600Y267731D02*
Y282950D01*
Y289890D02*
Y290564D01*
X321700Y267731D02*
Y282950D01*
Y290015D02*
Y290664D01*
X321800Y267731D02*
Y282950D01*
Y290111D02*
Y290732D01*
X321900Y267731D02*
Y282950D01*
Y290161D02*
Y290782D01*
X322000Y267731D02*
Y282950D01*
Y290211D02*
Y290832D01*
X322100Y267731D02*
Y282950D01*
Y290261D02*
Y290882D01*
X322200Y267731D02*
Y282950D01*
Y290274D02*
Y290932D01*
X322300Y267731D02*
Y282950D01*
Y290274D02*
Y290960D01*
X322400Y267731D02*
Y282950D01*
Y290274D02*
Y290975D01*
X322500Y267731D02*
Y282950D01*
Y290274D02*
Y290989D01*
X322600Y267731D02*
Y282950D01*
Y290274D02*
Y291003D01*
X322700Y267731D02*
Y282950D01*
Y290250D02*
Y291017D01*
X322800Y267731D02*
Y282950D01*
Y290150D02*
Y291032D01*
X322900Y267731D02*
Y282950D01*
Y290028D02*
Y291019D01*
X323000Y267731D02*
Y282950D01*
Y289862D02*
Y290997D01*
X323100Y267731D02*
Y282950D01*
Y289695D02*
Y290974D01*
X323200Y267731D02*
Y282950D01*
Y289113D02*
Y290952D01*
X323300Y267731D02*
Y282950D01*
Y286761D02*
Y290930D01*
X323400Y267731D02*
Y282950D01*
Y286635D02*
Y290908D01*
X323500Y267731D02*
Y282950D01*
Y286595D02*
Y290886D01*
X323600Y267731D02*
Y282950D01*
Y286555D02*
Y290852D01*
X323700Y267731D02*
Y282950D01*
Y286515D02*
Y290768D01*
X323800Y267731D02*
Y282950D01*
Y286499D02*
Y290685D01*
X323900Y267731D02*
Y282950D01*
Y286549D02*
Y290602D01*
X324000Y267731D02*
Y282950D01*
Y286599D02*
Y290518D01*
X324100Y267731D02*
Y282950D01*
Y286663D02*
Y290331D01*
X324200Y267731D02*
Y282950D01*
Y286813D02*
Y289746D01*
X324300Y267731D02*
Y282950D01*
X324400Y267731D02*
Y282950D01*
X324500Y267731D02*
Y282950D01*
X324600Y267731D02*
Y282950D01*
X324700Y267731D02*
Y282950D01*
X324800Y267731D02*
Y282950D01*
X324900Y267731D02*
Y282950D01*
X325000Y267731D02*
Y282950D01*
X325100Y267731D02*
Y282950D01*
X325200Y267731D02*
Y282950D01*
X325300Y267731D02*
Y282950D01*
X325400Y267731D02*
Y282950D01*
X325500Y267731D02*
Y282950D01*
X325600Y267731D02*
Y282950D01*
Y285255D02*
Y290771D01*
X325700Y284955D02*
Y290871D01*
X325800Y284871D02*
Y290922D01*
X325900Y284821D02*
Y290972D01*
X326000Y284771D02*
Y291022D01*
X326100Y284787D02*
Y290999D01*
X326200Y284821D02*
Y290959D01*
X326300Y284861D02*
Y290919D01*
X326400Y284911D02*
Y290879D01*
X326500Y285193D02*
Y290650D01*
X326600Y287166D02*
Y290265D01*
X326700Y287124D02*
Y288368D01*
Y289410D02*
Y290319D01*
X326800Y287049D02*
Y287896D01*
Y289721D02*
Y290419D01*
X326900Y286974D02*
Y287776D01*
Y289871D02*
Y290519D01*
X327000Y286899D02*
Y287656D01*
Y289962D02*
Y290619D01*
X327100Y286824D02*
Y287536D01*
Y290029D02*
Y290710D01*
X327200Y286749D02*
Y287422D01*
Y290096D02*
Y290760D01*
X327300Y286674D02*
Y287392D01*
Y290162D02*
Y290810D01*
X327400Y286635D02*
Y287363D01*
Y290229D02*
Y290860D01*
X327500Y286613D02*
Y287335D01*
Y290274D02*
Y290910D01*
X327600Y286590D02*
Y287306D01*
Y290274D02*
Y290954D01*
X327700Y286568D02*
Y287278D01*
Y290274D02*
Y290971D01*
X327800Y286546D02*
Y287249D01*
Y290274D02*
Y290988D01*
X327900Y286524D02*
Y287265D01*
Y290274D02*
Y291004D01*
X328000Y286501D02*
Y287298D01*
Y290274D02*
Y291021D01*
X328100Y286485D02*
Y287331D01*
Y290272D02*
Y291036D01*
X328200Y286508D02*
Y287365D01*
Y290208D02*
Y291036D01*
X328300Y286530D02*
Y287398D01*
Y290142D02*
Y291036D01*
X328400Y274681D02*
Y276285D01*
Y286552D02*
Y287458D01*
Y290067D02*
Y291036D01*
X328500Y273981D02*
Y277285D01*
Y286574D02*
Y287608D01*
Y289967D02*
Y291036D01*
X328600Y273281D02*
Y277790D01*
Y286596D02*
Y287758D01*
Y289826D02*
Y290989D01*
X328700Y272581D02*
Y278190D01*
Y286619D02*
Y287908D01*
Y289626D02*
Y290939D01*
X328800Y272162D02*
Y278590D01*
Y286641D02*
Y288249D01*
Y289268D02*
Y290889D01*
X328900Y271862D02*
Y278990D01*
Y286692D02*
Y288699D01*
Y288818D02*
Y290815D01*
X329000Y271562D02*
Y279271D01*
Y286763D02*
Y290730D01*
X329100Y271262D02*
Y279471D01*
Y286835D02*
Y290644D01*
X329200Y271010D02*
Y279671D01*
Y286906D02*
Y290558D01*
X329300Y270810D02*
Y279871D01*
Y286978D02*
Y290473D01*
X329400Y270610D02*
Y280071D01*
Y287049D02*
Y290387D01*
X329500Y270410D02*
Y280271D01*
Y287215D02*
Y290196D01*
X329600Y270210D02*
Y280444D01*
Y287415D02*
Y289971D01*
X329700Y270010D02*
Y280544D01*
Y287615D02*
Y289746D01*
X329800Y269828D02*
Y280644D01*
Y287947D02*
Y289398D01*
X329900Y269748D02*
Y280744D01*
Y288497D02*
Y288848D01*
X330000Y269668D02*
Y280844D01*
X330100Y269588D02*
Y280944D01*
X330200Y269508D02*
Y281044D01*
X330300Y269428D02*
Y281144D01*
X330400Y269348D02*
Y281244D01*
X330500Y269268D02*
Y281327D01*
X330600Y269188D02*
Y281407D01*
X330700Y269108D02*
Y281487D01*
X330800Y269028D02*
Y281567D01*
Y288031D02*
Y288718D01*
X330900Y268961D02*
Y281647D01*
Y287717D02*
Y288881D01*
Y289655D02*
Y290295D01*
X331000Y268901D02*
Y281727D01*
Y287448D02*
Y288988D01*
Y289622D02*
Y290395D01*
X331100Y268841D02*
Y281807D01*
Y287281D02*
Y289021D01*
Y289588D02*
Y290495D01*
X331200Y268781D02*
Y281887D01*
Y287114D02*
Y289053D01*
Y289619D02*
Y290595D01*
X331300Y268721D02*
Y281967D01*
Y287010D02*
Y289053D01*
Y289653D02*
Y290654D01*
X331400Y268661D02*
Y282047D01*
Y286930D02*
Y289053D01*
Y289729D02*
Y290704D01*
X331500Y268601D02*
Y282116D01*
Y286850D02*
Y289053D01*
Y289829D02*
Y290754D01*
X331600Y268541D02*
Y282156D01*
Y286770D02*
Y289053D01*
Y289929D02*
Y290804D01*
X331700Y268481D02*
Y282196D01*
Y286716D02*
Y289053D01*
Y290018D02*
Y290854D01*
X331800Y268421D02*
Y282236D01*
Y286683D02*
Y288068D01*
Y288464D02*
Y289053D01*
Y290068D02*
Y290904D01*
X331900Y268363D02*
Y282276D01*
Y286649D02*
Y287743D01*
Y288464D02*
Y289053D01*
Y290118D02*
Y290952D01*
X332000Y268335D02*
Y282316D01*
Y286616D02*
Y287543D01*
Y288464D02*
Y289053D01*
Y290168D02*
Y290962D01*
X332100Y268306D02*
Y282356D01*
Y286583D02*
Y287472D01*
Y288464D02*
Y289053D01*
Y290218D02*
Y290972D01*
X332200Y268278D02*
Y282396D01*
Y286559D02*
Y287422D01*
Y288464D02*
Y289053D01*
Y290268D02*
Y290982D01*
X332300Y268249D02*
Y282436D01*
Y286545D02*
Y287372D01*
Y288464D02*
Y289053D01*
Y290318D02*
Y290992D01*
X332400Y268220D02*
Y282476D01*
Y286530D02*
Y287328D01*
Y288464D02*
Y289053D01*
Y290360D02*
Y291002D01*
X332500Y268192D02*
Y282516D01*
Y286516D02*
Y287308D01*
Y288464D02*
Y289053D01*
Y290360D02*
Y291012D01*
X332600Y268163D02*
Y282548D01*
Y286502D02*
Y287288D01*
Y288464D02*
Y289053D01*
Y290360D02*
Y291022D01*
X332700Y268135D02*
Y282577D01*
Y286487D02*
Y287268D01*
Y288464D02*
Y289053D01*
Y290360D02*
Y291032D01*
X332800Y268106D02*
Y282605D01*
Y286493D02*
Y287248D01*
Y288464D02*
Y289053D01*
Y290344D02*
Y291025D01*
X332900Y268078D02*
Y275213D01*
Y277082D02*
Y282634D01*
Y286511D02*
Y287260D01*
Y288464D02*
Y289053D01*
Y290310D02*
Y291007D01*
X333000Y268049D02*
Y274313D01*
Y277282D02*
Y282662D01*
Y286529D02*
Y287285D01*
Y288464D02*
Y289053D01*
Y290277D02*
Y290988D01*
X333100Y268020D02*
Y273415D01*
Y277482D02*
Y282691D01*
Y286547D02*
Y287310D01*
Y288464D02*
Y289053D01*
Y290244D02*
Y290970D01*
X333200Y267992D02*
Y273212D01*
Y277682D02*
Y282719D01*
Y286565D02*
Y287337D01*
Y288464D02*
Y289053D01*
Y290210D02*
Y290952D01*
X333300Y267963D02*
Y273012D01*
Y277882D02*
Y282748D01*
Y286583D02*
Y287387D01*
Y288464D02*
Y289053D01*
Y290169D02*
Y290934D01*
X333400Y267940D02*
Y272812D01*
Y278082D02*
Y282777D01*
Y286602D02*
Y287437D01*
Y288464D02*
Y289053D01*
Y290089D02*
Y290916D01*
X333500Y267929D02*
Y272612D01*
Y278282D02*
Y282805D01*
Y286620D02*
Y287487D01*
Y288464D02*
Y289053D01*
Y290009D02*
Y290897D01*
X333600Y267917D02*
Y272412D01*
Y278482D02*
Y282834D01*
Y286638D02*
Y287579D01*
Y288464D02*
Y289053D01*
Y289929D02*
Y290879D01*
X333700Y267906D02*
Y272212D01*
Y278682D02*
Y282862D01*
Y286674D02*
Y287712D01*
Y288464D02*
Y289053D01*
Y289849D02*
Y290848D01*
X333800Y267895D02*
Y272083D01*
Y278828D02*
Y282891D01*
Y286749D02*
Y287845D01*
Y288464D02*
Y289053D01*
Y289558D02*
Y290786D01*
X333900Y267884D02*
Y272023D01*
Y278928D02*
Y282919D01*
Y286824D02*
Y288337D01*
Y288446D02*
Y289071D01*
Y289158D02*
Y290723D01*
X334000Y267873D02*
Y271963D01*
Y279028D02*
Y282948D01*
Y286899D02*
Y290661D01*
X334100Y267862D02*
Y271903D01*
Y279128D02*
Y282950D01*
Y286974D02*
Y290598D01*
X334200Y267851D02*
Y271843D01*
Y279219D02*
Y282950D01*
Y287049D02*
Y290536D01*
X334300Y267840D02*
Y271783D01*
Y279244D02*
Y282950D01*
Y287124D02*
Y290473D01*
X334400Y267829D02*
Y271723D01*
Y279269D02*
Y282950D01*
Y287248D02*
Y290343D01*
X334500Y267817D02*
Y271663D01*
Y279294D02*
Y282950D01*
Y287408D02*
Y290163D01*
X334600Y267806D02*
Y271603D01*
Y279319D02*
Y282950D01*
Y287568D02*
Y289983D01*
X334700Y267795D02*
Y271543D01*
Y279344D02*
Y282950D01*
Y287728D02*
Y289803D01*
X334800Y267784D02*
Y271483D01*
Y279369D02*
Y282950D01*
Y288033D02*
Y289484D01*
X334900Y267773D02*
Y271453D01*
Y279394D02*
Y282950D01*
Y288583D02*
Y288934D01*
X335000Y267762D02*
Y271439D01*
Y279419D02*
Y282950D01*
X335100Y267751D02*
Y271425D01*
Y279433D02*
Y282950D01*
X335200Y267740D02*
Y271410D01*
Y279433D02*
Y282950D01*
X335300Y267731D02*
Y271396D01*
Y279433D02*
Y282950D01*
X335400Y267731D02*
Y271382D01*
Y279433D02*
Y282950D01*
X335500Y267731D02*
Y271367D01*
Y279433D02*
Y282950D01*
X335600Y267731D02*
Y271353D01*
Y279433D02*
Y282950D01*
X335700Y267731D02*
Y271339D01*
Y279433D02*
Y282950D01*
X335800Y267731D02*
Y271325D01*
Y279433D02*
Y282950D01*
X335900Y267731D02*
Y271310D01*
Y279433D02*
Y282950D01*
Y287548D02*
Y290648D01*
X336000Y267731D02*
Y271296D01*
Y279433D02*
Y282950D01*
Y287298D02*
Y290798D01*
X336100Y267731D02*
Y271282D01*
Y279433D02*
Y282950D01*
Y287087D02*
Y290926D01*
X336200Y267731D02*
Y271267D01*
Y279433D02*
Y282950D01*
Y286937D02*
Y291026D01*
X336300Y267731D02*
Y271253D01*
Y279433D02*
Y282950D01*
Y286842D02*
Y291036D01*
X336400Y267731D02*
Y271248D01*
Y279433D02*
Y282950D01*
Y286767D02*
Y291036D01*
X336500Y267731D02*
Y271248D01*
Y279433D02*
Y282950D01*
Y286692D02*
Y291036D01*
X336600Y267731D02*
Y271248D01*
Y279433D02*
Y282950D01*
Y286639D02*
Y291036D01*
X336700Y267731D02*
Y271248D01*
Y279433D02*
Y282950D01*
Y286614D02*
Y291022D01*
X336800Y267731D02*
Y271248D01*
Y279433D02*
Y282950D01*
Y286589D02*
Y290922D01*
X336900Y267731D02*
Y271248D01*
Y279433D02*
Y282950D01*
Y286564D02*
Y290694D01*
X337000Y267731D02*
Y271248D01*
Y279433D02*
Y282950D01*
Y286544D02*
Y290394D01*
X337100Y267731D02*
Y271248D01*
Y279433D02*
Y282950D01*
Y286524D02*
Y287602D01*
X337200Y267731D02*
Y271248D01*
Y279433D02*
Y282950D01*
Y286504D02*
Y287422D01*
X337300Y267731D02*
Y271248D01*
Y279433D02*
Y282950D01*
Y286484D02*
Y287381D01*
X337400Y267731D02*
Y271248D01*
Y279433D02*
Y282950D01*
Y286502D02*
Y287341D01*
X337500Y267731D02*
Y271248D01*
Y279433D02*
Y282950D01*
Y286524D02*
Y287301D01*
X337600Y267731D02*
Y271248D01*
Y279433D02*
Y282950D01*
Y286547D02*
Y287261D01*
X337700Y267731D02*
Y282950D01*
Y286569D02*
Y287255D01*
X337800Y267731D02*
Y282950D01*
Y286591D02*
Y287289D01*
X337900Y267731D02*
Y282950D01*
Y286613D02*
Y287322D01*
X338000Y267731D02*
Y282950D01*
Y286636D02*
Y287355D01*
X338100Y267731D02*
Y282950D01*
Y286676D02*
Y287389D01*
X338200Y267731D02*
Y282950D01*
Y286751D02*
Y287424D01*
X338300Y267731D02*
Y282950D01*
Y286826D02*
Y287552D01*
X338400Y267731D02*
Y282950D01*
Y286901D02*
Y287686D01*
X338500Y267731D02*
Y282950D01*
Y286976D02*
Y287848D01*
X338600Y267731D02*
Y282950D01*
Y287051D02*
Y288098D01*
X338700Y267731D02*
Y282950D01*
Y287126D02*
Y290710D01*
X338800Y267731D02*
Y282950D01*
Y287164D02*
Y290860D01*
X338900Y267731D02*
Y282950D01*
Y287067D02*
Y290967D01*
X339000Y267731D02*
Y282950D01*
Y286967D02*
Y291036D01*
X339100Y267731D02*
Y282950D01*
Y286867D02*
Y291036D01*
X339200Y267731D02*
Y282950D01*
Y286767D02*
Y291036D01*
X339300Y267731D02*
Y282950D01*
Y286667D02*
Y291036D01*
X339400Y267731D02*
Y282950D01*
Y286628D02*
Y290995D01*
X339500Y267731D02*
Y282950D01*
Y286603D02*
Y290895D01*
X339600Y267731D02*
Y282950D01*
Y286578D02*
Y290751D01*
X339700Y267731D02*
Y282950D01*
Y286553D02*
Y287747D01*
X339800Y267731D02*
Y282950D01*
Y286528D02*
Y287547D01*
X339900Y267731D02*
Y282950D01*
Y286503D02*
Y287408D01*
X340000Y267731D02*
Y282950D01*
Y286486D02*
Y287358D01*
X340100Y267731D02*
Y282950D01*
Y286508D02*
Y287316D01*
X340200Y267731D02*
Y282950D01*
Y286531D02*
Y287283D01*
X340300Y267731D02*
Y282950D01*
Y286553D02*
Y287250D01*
X340400Y267731D02*
Y282950D01*
Y286575D02*
Y287254D01*
X340500Y267731D02*
Y282950D01*
Y286597D02*
Y287271D01*
X340600Y267731D02*
Y282950D01*
Y286619D02*
Y287288D01*
X340700Y267731D02*
Y282950D01*
Y286642D02*
Y287304D01*
X340800Y267731D02*
Y282950D01*
Y286680D02*
Y287321D01*
X340900Y267731D02*
Y282950D01*
Y286730D02*
Y287364D01*
X341000Y267731D02*
Y282950D01*
Y286780D02*
Y287464D01*
X341100Y267731D02*
Y282950D01*
Y286843D02*
Y287564D01*
X341200Y267731D02*
Y282950D01*
Y286943D02*
Y287664D01*
X341300Y267731D02*
Y282950D01*
Y287043D02*
Y288021D01*
X341400Y267731D02*
Y282950D01*
Y287143D02*
Y288745D01*
X341500Y267731D02*
Y282950D01*
Y287040D02*
Y290772D01*
X341600Y267731D02*
Y282950D01*
Y286790D02*
Y290909D01*
X341700Y267731D02*
Y282950D01*
Y286620D02*
Y291009D01*
X341800Y267731D02*
Y282950D01*
Y286570D02*
Y291036D01*
X341900Y267731D02*
Y282950D01*
Y286520D02*
Y291036D01*
X342000Y267731D02*
Y282950D01*
Y286504D02*
Y291036D01*
X342100Y267731D02*
Y282950D01*
Y286554D02*
Y291036D01*
X342200Y267731D02*
Y282950D01*
Y286604D02*
Y290953D01*
X342300Y286731D02*
Y290839D01*
X342400Y287031D02*
Y290689D01*
*
G04 PC Custom Flashes*
G04 Layer Name medulla.1.pcb - flashes*
%LPD*%
*
*
G04 PC Circuitry*
G04 Layer Name medulla.1.pcb - circuitry*
%LPD*%
*
G54D39*
G54D53*
X145000Y316811D03*
X388000Y173874D03*
G54D54*
X145000Y308937D03*
Y301063D03*
Y293189D03*
X388000Y166000D03*
Y158126D03*
G54D55*
X307331Y187740D03*
X298669D03*
Y180260D03*
X307331D03*
G54D56*
X217500Y310630D03*
X212500D03*
X207500D03*
X202500D03*
Y289370D03*
X207500D03*
X212500D03*
X217500D03*
X165500Y127630D03*
X160500D03*
X155500D03*
X150500D03*
Y106370D03*
X155500D03*
X160500D03*
X165500D03*
G54D60*
X341000Y184350D03*
Y177650D03*
X316000Y163650D03*
Y170350D03*
X345000Y151350D03*
Y144650D03*
X363000Y151350D03*
Y144650D03*
X351000Y151350D03*
Y144650D03*
X213000Y152650D03*
Y159350D03*
Y222650D03*
Y229350D03*
X316000Y176650D03*
Y183350D03*
X310000Y244650D03*
Y251350D03*
X219000Y161650D03*
Y168350D03*
X213000Y178350D03*
Y171650D03*
X219000Y181650D03*
Y188350D03*
X213000Y198350D03*
Y191650D03*
X219000Y231650D03*
Y238350D03*
X213000Y248350D03*
Y241650D03*
X219000Y251650D03*
Y258350D03*
X213000Y268350D03*
Y261650D03*
X298000Y251350D03*
Y244650D03*
X357000Y151350D03*
Y144650D03*
X304000Y244650D03*
Y251350D03*
X286000Y244650D03*
Y251350D03*
X292000Y244650D03*
Y251350D03*
X280000Y244650D03*
Y251350D03*
X316000Y244650D03*
Y251350D03*
X113000Y144350D03*
Y137650D03*
X322000Y244650D03*
Y251350D03*
G54D61*
X285350Y148000D03*
X278650D03*
X305350Y172000D03*
X298650D03*
X278650Y154000D03*
X285350D03*
G54D62*
X211250Y321000D03*
X202750D03*
X161250Y138000D03*
X152750D03*
G54D63*
X230000Y127250D03*
Y118750D03*
G54D64*
X389000Y290000D03*
G54D65*
X280000Y310000D03*
Y320000D03*
X290000Y310000D03*
Y320000D03*
X300000Y310000D03*
Y320000D03*
X310000Y310000D03*
Y320000D03*
X330000Y310000D03*
Y320000D03*
X340000Y310000D03*
Y320000D03*
X350000Y310000D03*
Y320000D03*
X360000Y310000D03*
Y320000D03*
X430000D03*
X440000D03*
X430000Y310000D03*
X440000D03*
X430000Y300000D03*
X440000D03*
X399000Y290000D03*
X389000Y280000D03*
X399000D03*
X389000Y270000D03*
X399000D03*
X430000Y290000D03*
X440000D03*
X430000Y270000D03*
X440000D03*
X430000Y260000D03*
X440000D03*
X430000Y250000D03*
X440000D03*
X430000Y240000D03*
X440000D03*
X430000Y200000D03*
X440000D03*
X430000Y190000D03*
X440000D03*
X430000Y180000D03*
X440000D03*
X430000Y170000D03*
X440000D03*
X430000Y150000D03*
X440000D03*
X430000Y140000D03*
X440000D03*
X430000Y130000D03*
X440000D03*
X430000Y120000D03*
X440000D03*
X370000D03*
Y110000D03*
X360000Y120000D03*
Y110000D03*
X350000Y120000D03*
Y110000D03*
X340000Y120000D03*
Y110000D03*
X320000Y120000D03*
Y110000D03*
X310000Y120000D03*
Y110000D03*
X300000Y120000D03*
Y110000D03*
X290000Y120000D03*
Y110000D03*
X306000Y162000D03*
Y152000D03*
X420000Y160000D03*
X430000D03*
X440000D03*
X420000Y110000D03*
X430000D03*
X440000D03*
X330000Y130000D03*
Y120000D03*
Y110000D03*
X280000Y130000D03*
Y120000D03*
Y110000D03*
X370000Y300000D03*
Y310000D03*
Y320000D03*
X420000Y280000D03*
X430000D03*
X440000D03*
X420000Y230000D03*
X430000D03*
X440000D03*
X320000Y300000D03*
Y310000D03*
Y320000D03*
G54D66*
X170000Y220000D03*
Y165000D03*
G54D67*
X180000Y225000D03*
X170000Y240000D03*
X180000Y245000D03*
X170000Y250000D03*
X180000Y255000D03*
X170000Y260000D03*
X180000Y265000D03*
Y170000D03*
X170000Y175000D03*
X180000Y180000D03*
X170000Y185000D03*
X180000Y190000D03*
X170000Y205000D03*
X180000Y210000D03*
G54D68*
X145000Y265000D03*
Y165000D03*
G54D69*
X130000Y269200D03*
X123000D03*
X130000Y216700D03*
X123000D03*
X143900Y213300D03*
X136900D03*
X130000Y160800D03*
X123000D03*
G54D70*
X157000Y276000D03*
X202000Y217500D03*
X157000Y154000D03*
G54D72*
X106000Y137900D03*
Y144100D03*
G54D77*
X322323Y232323D03*
Y229173D03*
Y226024D03*
Y222874D03*
Y219724D03*
Y216575D03*
Y213425D03*
Y210276D03*
Y207126D03*
Y203976D03*
Y200827D03*
Y197677D03*
X319173Y232323D03*
Y229173D03*
Y226024D03*
Y222874D03*
Y219724D03*
Y216575D03*
Y213425D03*
Y210276D03*
Y207126D03*
Y203976D03*
Y200827D03*
Y197677D03*
X316024Y232323D03*
Y229173D03*
Y226024D03*
Y222874D03*
Y219724D03*
Y216575D03*
Y213425D03*
Y210276D03*
Y207126D03*
Y203976D03*
Y200827D03*
Y197677D03*
X312874Y232323D03*
Y229173D03*
Y226024D03*
Y222874D03*
Y219724D03*
Y216575D03*
Y213425D03*
Y210276D03*
Y207126D03*
Y203976D03*
Y200827D03*
Y197677D03*
X309724Y232323D03*
Y229173D03*
Y226024D03*
Y222874D03*
Y207126D03*
Y203976D03*
Y200827D03*
Y197677D03*
X306575Y232323D03*
Y229173D03*
Y226024D03*
Y222874D03*
Y207126D03*
Y203976D03*
Y200827D03*
Y197677D03*
X303425Y232323D03*
Y229173D03*
Y226024D03*
Y222874D03*
Y207126D03*
Y203976D03*
Y200827D03*
Y197677D03*
X300276Y232323D03*
Y229173D03*
Y226024D03*
Y222874D03*
Y207126D03*
Y203976D03*
Y200827D03*
Y197677D03*
X297126Y232323D03*
Y229173D03*
Y226024D03*
Y222874D03*
Y219724D03*
Y216575D03*
Y213425D03*
Y210276D03*
Y207126D03*
Y203976D03*
Y200827D03*
Y197677D03*
X293976Y232323D03*
Y229173D03*
Y226024D03*
Y222874D03*
Y219724D03*
Y216575D03*
Y213425D03*
Y210276D03*
Y207126D03*
Y203976D03*
Y200827D03*
Y197677D03*
X290827Y232323D03*
Y229173D03*
Y226024D03*
Y222874D03*
Y219724D03*
Y216575D03*
Y213425D03*
Y210276D03*
Y207126D03*
Y203976D03*
Y200827D03*
Y197677D03*
X287677Y232323D03*
Y229173D03*
Y226024D03*
Y222874D03*
Y219724D03*
Y216575D03*
Y213425D03*
Y210276D03*
Y207126D03*
Y203976D03*
Y200827D03*
Y197677D03*
G54D79*
X230185Y308000D03*
X265815D03*
X179185Y123000D03*
X214815D03*
G54D94*
G54D108*
X396622Y256217D03*
X394654D03*
X392685D03*
X390717D03*
X388748D03*
X386780D03*
X384811D03*
X382843D03*
X380874D03*
X378906D03*
X376937D03*
X374969D03*
X373000D03*
X371031D03*
X369063D03*
X367094D03*
X365126D03*
X363157D03*
X361189D03*
X359220D03*
X357252D03*
X355283D03*
X353315D03*
X351346D03*
X349378D03*
Y195783D03*
X351346D03*
X353315D03*
X355283D03*
X357252D03*
X359220D03*
X361189D03*
X363157D03*
X365126D03*
X367094D03*
X369063D03*
X371031D03*
X373000D03*
X374969D03*
X376937D03*
X378906D03*
X380874D03*
X382843D03*
X384811D03*
X386780D03*
X388748D03*
X390717D03*
X392685D03*
X394654D03*
X396622D03*
G54D109*
X342783Y249622D03*
Y247654D03*
Y245685D03*
Y243717D03*
Y241748D03*
Y239780D03*
Y237811D03*
Y235843D03*
Y233874D03*
Y231906D03*
Y229937D03*
Y227969D03*
Y226000D03*
Y224031D03*
Y222063D03*
Y220094D03*
Y218126D03*
Y216157D03*
Y214189D03*
Y212220D03*
Y210252D03*
Y208283D03*
Y206315D03*
Y204346D03*
Y202378D03*
X403217D03*
Y204346D03*
Y206315D03*
Y208283D03*
Y210252D03*
Y212220D03*
Y214189D03*
Y216157D03*
Y218126D03*
Y220094D03*
Y222063D03*
Y224031D03*
Y226000D03*
Y227969D03*
Y229937D03*
Y231906D03*
Y233874D03*
Y235843D03*
Y237811D03*
Y239780D03*
Y241748D03*
Y243717D03*
Y245685D03*
Y247654D03*
Y249622D03*
G54D110*
X325161Y157992D03*
X327720D03*
X330280D03*
X332839D03*
Y182008D03*
X330280D03*
X327720D03*
X325161D03*
G54D111*
X348043Y159681D03*
X350602D03*
X353161D03*
X355720D03*
X358280D03*
X360839D03*
X363398D03*
X365957D03*
Y182319D03*
X363398D03*
X360839D03*
X358280D03*
X355720D03*
X353161D03*
X350602D03*
X348043D03*
G54D112*
X269000Y151250D03*
Y153750D03*
Y156250D03*
Y158750D03*
Y161250D03*
Y163750D03*
Y166250D03*
Y168750D03*
Y171250D03*
Y173750D03*
Y176250D03*
Y178750D03*
Y181250D03*
Y183750D03*
Y186250D03*
Y188750D03*
Y191250D03*
Y193750D03*
Y196250D03*
Y198750D03*
Y201250D03*
Y203750D03*
Y206250D03*
Y208750D03*
X231000D03*
Y206250D03*
Y203750D03*
Y201250D03*
Y198750D03*
Y196250D03*
Y193750D03*
Y191250D03*
Y188750D03*
Y186250D03*
Y183750D03*
Y181250D03*
Y178750D03*
Y176250D03*
Y173750D03*
Y171250D03*
Y168750D03*
Y166250D03*
Y163750D03*
Y161250D03*
Y158750D03*
Y156250D03*
Y153750D03*
Y151250D03*
X269000Y221250D03*
Y223750D03*
Y226250D03*
Y228750D03*
Y231250D03*
Y233750D03*
Y236250D03*
Y238750D03*
Y241250D03*
Y243750D03*
Y246250D03*
Y248750D03*
Y251250D03*
Y253750D03*
Y256250D03*
Y258750D03*
Y261250D03*
Y263750D03*
Y266250D03*
Y268750D03*
Y271250D03*
Y273750D03*
Y276250D03*
Y278750D03*
X231000D03*
Y276250D03*
Y273750D03*
Y271250D03*
Y268750D03*
Y266250D03*
Y263750D03*
Y261250D03*
Y258750D03*
Y256250D03*
Y253750D03*
Y251250D03*
Y248750D03*
Y246250D03*
Y243750D03*
Y241250D03*
Y238750D03*
Y236250D03*
Y233750D03*
Y231250D03*
Y228750D03*
Y226250D03*
Y223750D03*
Y221250D03*
G54D113*
X242929Y120850D03*
Y127150D03*
X259071D03*
Y120850D03*
G54D114*
X174000Y295000D03*
Y321000D03*
G54D115*
X112900Y283000D03*
X119100D03*
X112900Y299000D03*
X119100D03*
X112900Y291000D03*
X119100D03*
G54D116*
X140000Y120087D03*
X193000Y301087D03*
G54D117*
X140000Y108276D03*
X193000Y289276D03*
G54D118*
X115000Y115000D03*
Y315000D03*
X390000D03*
Y115000D03*
X0Y0D02*
M02*
