%
T1C.015F095S3
X01319Y01166
X0109Y0141
X0113Y01485
X01195Y02875
X01124Y02876
X0116Y02876
X0109Y0288
X0112Y02955
X01189Y02956
X01259Y02994
X0165Y0275
X0165Y01495
X01786Y01363
X01453Y01237
X0158Y0113
X0162Y011
X01802Y01072
X01949Y01254
X02009Y01254
X0191Y0133
X0185Y01368
X01905Y01434
X0204Y01621
X02035Y01752
X02071Y01959
X0207Y02725
X0189Y0284
X01977Y03173
X02037Y03186
X02103Y03135
X02233Y02553
X02271Y02525
X02264Y02325
X0213Y02185
X02318Y02116
X02271Y01825
X02265Y01735
X02271Y01625
X02269Y01573
X0213Y01485
X0224Y0143
X02169Y01107
X02552Y01043
X0255Y01174
X02553Y01265
X0236Y01267
X02553Y01334
X02488Y01428
X02407Y01428
X0244Y01428
X02577Y0144
X02544Y0144
X02353Y01536
X02498Y01566
X02353Y01663
X02353Y01698
X02569Y01753
X02354Y01754
X0243Y01755
X02354Y01786
X02463Y0185
X02569Y01934
X02353Y01939
X02355Y01987
X02434Y01991
X02569Y02049
X02352Y0211
X02544Y02139
X02578Y0214
X02431Y02213
X02353Y02236
X02448Y02287
X02353Y0236
X02429Y02387
X02351Y02424
X02572Y02452
X02364Y02454
X02356Y02486
X02498Y02569
X0257Y02571
X02363Y02632
X02359Y02678
X02501Y02689
X02499Y02749
X02569Y0275
X02355Y02785
X02511Y03099
X02702Y03218
X02716Y03161
X02717Y0304
X02707Y02979
X02647Y02786
X02647Y02742
X02735Y02739
X02636Y02692
X02641Y02565
X02805Y02555
X02732Y02472
X02648Y0247
X02733Y02413
X02732Y0238
X02754Y02353
X02745Y0232
X02744Y02288
X02745Y02255
X02745Y02223
X02727Y02196
X02691Y02186
X02772Y0215
X02643Y02092
X02645Y0206
X02836Y02047
X02729Y02025
X02645Y0202
X02638Y01989
X02732Y01982
X0273Y01924
X02649Y01897
X02738Y01833
X02736Y01786
X02646Y01718
X02758Y01715
X02733Y0169
X02735Y01656
X02731Y01618
X02749Y01591
X02733Y01562
X0263Y01355
X0288Y0145
X0288Y0157
X02986Y01644
X03042Y01665
X02915Y01678
X03086Y01758
X02954Y01759
X02945Y0184
X02877Y01859
X0287Y01895
X02921Y01917
X02955Y0192
X0299Y01922
X03014Y01943
X03003Y02098
X03052Y021
X03085Y02103
X03001Y02132
X03032Y02156
X0306Y0218
X02991Y02181
X03036Y02202
X03026Y02364
X03065Y02376
X03005Y0248
X0298Y02555
X0286Y02555
X02925Y02555
X02946Y02607
X02977Y02691
X02942Y02798
X0292Y0293
X03098Y02564
X03103Y02203
X03102Y02131
X03108Y0194
X03215Y0182
X03185Y018
X03277Y0178
X03128Y01603
X0329Y01543
X0348Y0148
X03482Y01641
X0341Y01731
X03557Y01764
X03493Y01774
X0355Y01868
X03481Y01874
X03574Y01907
X03473Y01916
X03406Y01967
X0343Y01995
X03552Y02019
X03481Y0207
X03501Y02096
X03541Y02102
X03486Y0214
X03478Y02172
X03506Y02195
X03503Y02228
X03482Y02322
X0348Y02355
X03555Y02372
X03506Y02396
X0348Y02416
X0348Y02454
X03539Y02509
X03417Y02583
X03563Y02619
X03504Y02622
X03422Y02626
X03533Y02637
X03506Y02668
X03556Y02692
X03506Y02721
X0352Y02776
X0358Y02829
X03528Y02888
X03762Y03016
X03777Y02905
X03745Y02825
X0361Y0281
X03656Y0281
X03722Y02795
X037Y02768
X03676Y02733
X03652Y02701
X0362Y02668
X03743Y02667
X03592Y02644
X03664Y0264
X03712Y02507
X03651Y02449
X03838Y02381
X03642Y02298
X0375Y02165
X03825Y0205
X03635Y0205
X03751Y02015
X03735Y01905
X03606Y01893
X03659Y01778
X03682Y01706
X03659Y01641
X03706Y01449
X0368Y0142
X03631Y01402
X03742Y01369
X0372Y0134
X03805Y01316
X03805Y0127
X0374Y0125
X0393Y013
X03905Y01335
X03955Y01393
X04037Y01556
X04056Y01602
X04012Y01609
X04089Y01695
X0393Y01905
X03946Y02011
X03842Y02123
X03974Y02162
X04085Y0218
X04085Y0226
X0388Y02286
X04085Y02358
X03978Y02378
X0384Y0244
X03897Y02505
X04081Y02963
X04073Y02995
X04038Y03005
X03997Y0301
X04104Y02938
X04134Y0258
X04118Y02283
X04124Y01695
T2C.0315F197S55
X0145Y029319
X0145Y030106
X0145Y030894
X0145Y031681
X0388Y017387
X0388Y0166
X0388Y015813
T3C.037F197S55
X028Y011
X028Y012
X028Y013
X028Y028
X028Y029
X028Y031
X028Y032
X029Y032
X03Y032
X033Y032
X032Y032
X031Y032
X03Y031
X032Y031
X031Y031
X029Y031
X033Y031
X032Y03
X033Y013
X029Y012
X033Y012
X03Y012
X031Y012
X032Y012
X029Y011
X03Y011
X032Y011
X031Y011
X033Y011
X035Y011
X034Y011
X037Y011
X036Y011
X034Y012
X036Y012
X035Y012
X037Y012
X037Y03
X035Y031
X036Y031
X034Y031
X037Y031
X034Y032
X036Y032
X037Y032
X035Y032
X043Y032
X043Y031
X043Y03
X0389Y029
X043Y029
X0399Y029
X0389Y028
X0399Y028
X042Y028
X043Y028
X0399Y027
X0389Y027
X043Y027
X043Y026
X043Y025
X043Y024
X042Y023
X043Y023
X043Y02
X043Y019
X043Y018
X043Y017
X042Y016
X043Y016
X043Y015
X043Y014
X043Y013
X043Y012
X043Y011
X042Y011
X044Y011
X044Y012
X044Y013
X044Y014
X044Y015
X044Y016
X044Y017
X044Y018
X044Y019
X044Y02
X044Y023
X044Y024
X044Y025
X044Y026
X044Y027
X044Y028
X044Y029
X044Y03
X044Y031
X044Y032
T4C.042F139S55
X013Y01608
X0123Y01608
X01439Y02133
X01369Y02133
X013Y02167
X0123Y02167
X013Y02692
X0123Y02692
X018Y0265
X017Y026
X018Y0255
X017Y025
X018Y0245
X017Y024
X018Y0225
X017Y022
X018Y021
X017Y0205
X018Y019
X017Y0185
X018Y018
X017Y0175
X018Y017
X017Y0165
T5C.062F089S55
X0157Y0154
X0202Y02175
X0157Y0276
T6C.125F035S794
X0115Y0115
X0115Y0315
X039Y0315
X039Y0115
T7C.126F035S794
X0145Y0165
X0145Y0265
M30
