*
*
G04 PADS 9.3.1 Build Number: 456998 generated Gerber (RS-274-X) file*
G04 PC Version=2.1*
*
%IN "medulla.1.5.pcb"*%
*
%MOIN*%
*
%FSLAX35Y35*%
*
*
*
*
G04 PC Standard Apertures*
*
*
G04 Thermal Relief Aperture macro.*
%AMTER*
1,1,$1,0,0*
1,0,$1-$2,0,0*
21,0,$3,$4,0,0,45*
21,0,$3,$4,0,0,135*
%
*
*
G04 Annular Aperture macro.*
%AMANN*
1,1,$1,0,0*
1,0,$2,0,0*
%
*
*
G04 Odd Aperture macro.*
%AMODD*
1,1,$1,0,0*
1,0,$1-0.005,0,0*
%
*
*
G04 PC Custom Aperture Macros*
*
*
*
*
*
*
G04 PC Aperture Table*
*
%ADD017O,0.04X0.043*%
%ADD018O,0.043X0.04*%
%ADD040C,0.03*%
%ADD088C,0.00787*%
%ADD094C,0.001*%
%ADD122C,0.00394*%
%ADD129O,0.03543X0.02362*%
%ADD136O,0.024X0.016*%
*
*
*
*
G04 PC Circuitry*
G04 Layer Name medulla.1.5.pcb - circuitry*
%LPD*%
*
*
G04 PC Custom Flashes*
G04 Layer Name medulla.1.5.pcb - flashes*
%LPD*%
*
*
G04 PC Circuitry*
G04 Layer Name medulla.1.5.pcb - circuitry*
%LPD*%
*
G54D17*
G01X371000Y246350D03*
Y239650D03*
X375000Y205650D03*
Y212350D03*
X167000Y116650D03*
Y123350D03*
X161000D03*
Y116650D03*
X309000Y268350D03*
Y261650D03*
X286000Y268350D03*
Y261650D03*
X224000Y120700D03*
Y114000D03*
Y107300D03*
X293000Y205350D03*
Y198650D03*
X305000Y205350D03*
Y198650D03*
X299000Y205350D03*
Y198650D03*
X311000Y205350D03*
Y198650D03*
X207000Y171650D03*
Y178350D03*
Y191350D03*
Y184650D03*
X279000Y187350D03*
Y180650D03*
Y200350D03*
Y193650D03*
X230000Y120700D03*
Y114000D03*
Y107300D03*
X236000Y120700D03*
Y114000D03*
Y107300D03*
X242000Y120700D03*
Y114000D03*
Y107300D03*
X248000Y120700D03*
Y114000D03*
Y107300D03*
X189000Y120700D03*
Y114000D03*
Y107300D03*
X195000Y120700D03*
Y114000D03*
Y107300D03*
X201000Y120700D03*
Y114000D03*
Y107300D03*
X207000Y120700D03*
Y114000D03*
Y107300D03*
X213000Y120700D03*
Y114000D03*
Y107300D03*
X304000Y187350D03*
Y180650D03*
X298000D03*
Y187350D03*
X207000Y248650D03*
Y255350D03*
Y268350D03*
Y261650D03*
X292000Y187350D03*
Y180650D03*
X122000Y292650D03*
Y299350D03*
X213000Y248650D03*
Y255350D03*
X207000Y158650D03*
Y165350D03*
G54D18*
X352650Y247000D03*
X359350D03*
X352650Y234000D03*
X359350D03*
X352650Y214000D03*
X359350D03*
X253650Y208000D03*
X260350D03*
X352650Y205000D03*
X359350D03*
X393350D03*
X386650D03*
X393350Y216000D03*
X386650D03*
X393350Y235000D03*
X386650D03*
Y241000D03*
X393350D03*
X253650Y172000D03*
X260350D03*
X246350Y154000D03*
X239650D03*
X305350Y226000D03*
X298650D03*
X253650Y190000D03*
X260350D03*
X246350Y196000D03*
X239650D03*
X246350Y172000D03*
X239650D03*
X246350Y166000D03*
X239650D03*
Y190000D03*
X246350D03*
Y202000D03*
X239650D03*
Y178000D03*
X246350D03*
X253650Y260000D03*
X260350D03*
X246350Y266000D03*
X239650D03*
X246350Y242000D03*
X239650D03*
X246350Y236000D03*
X239650D03*
Y260000D03*
X246350D03*
X239650Y218000D03*
X246350D03*
Y272000D03*
X239650D03*
Y248000D03*
X246350D03*
X253650Y278000D03*
X260350D03*
X253650Y242000D03*
X260350D03*
X239650Y278000D03*
X246350D03*
X260350Y236000D03*
X253650D03*
X260350Y230000D03*
X253650D03*
X260350Y224000D03*
X253650D03*
X260350Y218000D03*
X253650D03*
X260350Y272000D03*
X253650D03*
X260350Y266000D03*
X253650D03*
X260350Y254000D03*
X253650D03*
X260350Y248000D03*
X253650D03*
X239650Y208000D03*
X246350D03*
X260350Y166000D03*
X253650D03*
X260350Y160000D03*
X253650D03*
X260350Y154000D03*
X253650D03*
X260350Y148000D03*
X253650D03*
X260350Y202000D03*
X253650D03*
X260350Y196000D03*
X253650D03*
X260350Y184000D03*
X253650D03*
X272650Y207000D03*
X279350D03*
X260350Y178000D03*
X253650D03*
X393350Y247000D03*
X386650D03*
X246350Y224000D03*
X239650D03*
Y148000D03*
X246350D03*
X115350Y299000D03*
X108650D03*
X115350Y293000D03*
X108650D03*
X341350Y278000D03*
X334650D03*
X341350Y272000D03*
X334650D03*
X341350Y284000D03*
X334650D03*
G54D40*
X269000Y306250D02*
X268000D01*
Y313750*
X269000*
Y306250*
X268000Y307000D02*
X269000D01*
X268000Y310000D02*
X269000D01*
X268000Y313000D02*
X269000D01*
X268000Y306250D02*
Y313750D01*
X256000Y306250D02*
X255000D01*
Y313750*
X256000*
Y306250*
X255000Y307000D02*
X256000D01*
X255000Y310000D02*
X256000D01*
X255000Y313000D02*
X256000D01*
Y306250D02*
Y313750D01*
G54D88*
X138575Y122693D02*
Y125449D01*
X141724*
Y122693*
X138575*
Y122835D02*
X141724D01*
X138575Y123622D02*
X141724D01*
X138575Y124409D02*
X141724D01*
X138575Y125197D02*
X141724D01*
X138583Y122693D02*
Y125449D01*
X139370Y122693D02*
Y125449D01*
X140157Y122693D02*
Y125449D01*
X140945Y122693D02*
Y125449D01*
X132276Y122693D02*
Y125449D01*
X135425*
Y122693*
X132276*
Y122835D02*
X135425D01*
X132276Y123622D02*
X135425D01*
X132276Y124409D02*
X135425D01*
X132276Y125197D02*
X135425D01*
X132283Y122693D02*
Y125449D01*
X133071Y122693D02*
Y125449D01*
X133858Y122693D02*
Y125449D01*
X134646Y122693D02*
Y125449D01*
X132276Y106551D02*
Y109307D01*
X135425*
Y106551*
X132276*
Y107087D02*
X135425D01*
X132276Y107874D02*
X135425D01*
X132276Y108661D02*
X135425D01*
X132283Y106551D02*
Y109307D01*
X133071Y106551D02*
Y109307D01*
X133858Y106551D02*
Y109307D01*
X134646Y106551D02*
Y109307D01*
X138575Y106551D02*
Y109307D01*
X141724*
Y106551*
X138575*
Y107087D02*
X141724D01*
X138575Y107874D02*
X141724D01*
X138575Y108661D02*
X141724D01*
X138583Y106551D02*
Y109307D01*
X139370Y106551D02*
Y109307D01*
X140157Y106551D02*
Y109307D01*
X140945Y106551D02*
Y109307D01*
G54D94*
G54D122*
X350228Y279260D02*
X348654D01*
Y280835*
X350228*
Y279260*
X348654Y279528D02*
X350228D01*
X348654Y279921D02*
X350228D01*
X348654Y280315D02*
X350228D01*
X348654Y280709D02*
X350228D01*
X348819Y279260D02*
Y280835D01*
X349213Y279260D02*
Y280835D01*
X349606Y279260D02*
Y280835D01*
X350000Y279260D02*
Y280835D01*
X348260Y282409D02*
Y283591D01*
X349835*
Y282409*
X348260*
Y282677D02*
X349835D01*
X348260Y283071D02*
X349835D01*
X348260Y283465D02*
X349835D01*
X348425Y282409D02*
Y283591D01*
X348819Y282409D02*
Y283591D01*
X349213Y282409D02*
Y283591D01*
X349606Y282409D02*
Y283591D01*
X350228Y285165D02*
X348654D01*
Y286740*
X350228*
Y285165*
X348654Y285433D02*
X350228D01*
X348654Y285827D02*
X350228D01*
X348654Y286220D02*
X350228D01*
X348654Y286614D02*
X350228D01*
X348819Y285165D02*
Y286740D01*
X349213Y285165D02*
Y286740D01*
X349606Y285165D02*
Y286740D01*
X350000Y285165D02*
Y286740D01*
X355346Y285165D02*
X353772D01*
Y286740*
X355346*
Y285165*
X353772Y285433D02*
X355346D01*
X353772Y285827D02*
X355346D01*
X353772Y286220D02*
X355346D01*
X353772Y286614D02*
X355346D01*
X353937Y285165D02*
Y286740D01*
X354331Y285165D02*
Y286740D01*
X354724Y285165D02*
Y286740D01*
X355118Y285165D02*
Y286740D01*
X354165Y282409D02*
Y283591D01*
X355740*
Y282409*
X354165*
Y282677D02*
X355740D01*
X354165Y283071D02*
X355740D01*
X354165Y283465D02*
X355740D01*
X354331Y282409D02*
Y283591D01*
X354724Y282409D02*
Y283591D01*
X355118Y282409D02*
Y283591D01*
X355512Y282409D02*
Y283591D01*
X355346Y279260D02*
X353772D01*
Y280835*
X355346*
Y279260*
X353772Y279528D02*
X355346D01*
X353772Y279921D02*
X355346D01*
X353772Y280315D02*
X355346D01*
X353772Y280709D02*
X355346D01*
X353937Y279260D02*
Y280835D01*
X354331Y279260D02*
Y280835D01*
X354724Y279260D02*
Y280835D01*
X355118Y279260D02*
Y280835D01*
G54D129*
X293945Y265260D03*
Y272740D03*
X302055Y269000D03*
G54D136*
X374450Y225050D03*
Y228950D03*
X379550Y227000D03*
X291450Y160050D03*
Y163950D03*
X296550Y162000D03*
X373550Y289950D03*
Y286050D03*
X368450Y288000D03*
X364550Y289950D03*
Y286050D03*
X359450Y288000D03*
X364550Y276950D03*
Y273050D03*
X359450Y275000D03*
X0Y0D02*
M02*
