*
*
G04 PADS 9.3.1 Build Number: 456998 generated Gerber (RS-274-X) file*
G04 PC Version=2.1*
*
%IN "medulla.1.5.pcb"*%
*
%MOIN*%
*
%FSLAX35Y35*%
*
*
*
*
G04 PC Standard Apertures*
*
*
G04 Thermal Relief Aperture macro.*
%AMTER*
1,1,$1,0,0*
1,0,$1-$2,0,0*
21,0,$3,$4,0,0,45*
21,0,$3,$4,0,0,135*
%
*
*
G04 Annular Aperture macro.*
%AMANN*
1,1,$1,0,0*
1,0,$2,0,0*
%
*
*
G04 Odd Aperture macro.*
%AMODD*
1,1,$1,0,0*
1,0,$1-0.005,0,0*
%
*
*
G04 PC Custom Aperture Macros*
*
*
*
*
*
*
G04 PC Aperture Table*
*
%ADD038C,0.006*%
%ADD039C,0.01*%
%ADD040C,0.03*%
%ADD041C,0.02*%
%ADD051C,0.015*%
%ADD088C,0.00787*%
%ADD089C,0.007*%
%ADD090C,0.012*%
%ADD091C,0.005*%
%ADD094C,0.001*%
*
*
*
*
G04 PC Circuitry*
G04 Layer Name medulla.1.5.pcb - circuitry*
%LPD*%
*
G54D94*
G01X117716Y184454D02*
X105050D01*
Y180653*
X117716*
Y184454*
Y199524D02*
X105050D01*
Y195878*
X112120Y191105*
X112092Y191014*
X105050*
Y187390*
X117716*
Y191037*
X110646Y195810*
X110674Y195901*
X117716*
Y199524*
X117893Y231171D02*
X117716Y232760D01*
X117540Y233992*
X117015Y235043*
X116135Y236099*
X115257Y236802*
X114205Y237328*
X112972Y237504*
X111382Y237680*
X109443Y237504*
X107860Y236976*
X106630Y236098*
X105576Y234869*
X105049Y233288*
X104873Y231348*
X105049Y229408*
X105577Y228001*
X106456Y226595*
X107685Y225717*
X109268Y225014*
X111382Y224837*
X112795Y225014*
X114029Y225190*
X115255Y225716*
X116133Y226594*
X116837Y227474*
X117365Y228529*
X117717Y229762*
X117893Y231171*
X114979Y231170D02*
X114978Y231160D01*
X114801Y230274*
X114791Y230252*
X114082Y229366*
X114065Y229352*
X113001Y228821*
X112984Y228816*
X111389Y228638*
X111389D02*
X111377D01*
X109782Y228816*
X109765Y228821*
X108701Y229352*
X108684Y229366*
X107975Y230252*
X107965Y230275*
X107788Y231339*
Y231356*
X107965Y232420*
X107974Y232441*
X108506Y233151*
X108526Y233167*
X109768Y233698*
X109782Y233702*
X111555Y233880*
X111566Y233879*
X112985Y233702*
X113001Y233697*
X114065Y233165*
X114082Y233152*
X114791Y232265*
X114801Y232242*
X114978Y231178*
X114979Y231170*
X117716Y252042D02*
X109086D01*
X108035Y251692*
X106278Y250637*
X105752Y249762*
X105749Y249757*
X105225Y249058*
X105050Y247831*
X104873Y246241*
X105050Y244297*
X105226Y243240*
X105575Y242367*
X106630Y241136*
X107331Y240610*
X108030Y240261*
X110146Y239908*
X117716*
Y243709*
X109965*
X109955Y243710*
X109068Y243887*
X109056Y243891*
X108346Y244246*
X108324Y244268*
X107969Y244978*
X107965Y244992*
X107788Y246056*
X107787Y246064*
X107788Y246074*
X107965Y246960*
X107969Y246973*
X108324Y247682*
X108346Y247704*
X109056Y248059*
X109068Y248063*
X109955Y248241*
X109965*
X117716*
Y252042*
Y265695D02*
X114802D01*
Y261667*
X114752Y261617*
X105050*
Y257816*
X114752*
X114802Y257766*
Y253738*
X117716*
Y265695*
X104900Y231049D02*
Y231646D01*
Y245943D02*
Y246484D01*
X105000Y229949D02*
Y232746D01*
Y244843D02*
Y247384D01*
X105100Y180653D02*
Y184454D01*
Y187390D02*
Y191014D01*
Y195844D02*
Y199524D01*
Y229273D02*
Y233440D01*
Y243995D02*
Y248183D01*
Y257816D02*
Y261617D01*
X105200Y180653D02*
Y184454D01*
Y187390D02*
Y191014D01*
Y195776D02*
Y199524D01*
Y229006D02*
Y233740D01*
Y243395D02*
Y248883D01*
Y257816D02*
Y261617D01*
X105300Y180653D02*
Y184454D01*
Y187390D02*
Y191014D01*
Y195709D02*
Y199524D01*
Y228740D02*
Y234040D01*
Y243055D02*
Y249158D01*
Y257816D02*
Y261617D01*
X105400Y180653D02*
Y184454D01*
Y187390D02*
Y191014D01*
Y195641D02*
Y199524D01*
Y228473D02*
Y234340D01*
Y242805D02*
Y249292D01*
Y257816D02*
Y261617D01*
X105500Y180653D02*
Y184454D01*
Y187390D02*
Y191014D01*
Y195574D02*
Y199524D01*
Y228206D02*
Y234640D01*
Y242555D02*
Y249425D01*
Y257816D02*
Y261617D01*
X105600Y180653D02*
Y184454D01*
Y187390D02*
Y191014D01*
Y195506D02*
Y199524D01*
Y227964D02*
Y234896D01*
Y242338D02*
Y249558D01*
Y257816D02*
Y261617D01*
X105700Y180653D02*
Y184454D01*
Y187390D02*
Y191014D01*
Y195439D02*
Y199524D01*
Y227804D02*
Y235013D01*
Y242221D02*
Y249692D01*
Y257816D02*
Y261617D01*
X105800Y180653D02*
Y184454D01*
Y187390D02*
Y191014D01*
Y195371D02*
Y199524D01*
Y227644D02*
Y235130D01*
Y242104D02*
Y249841D01*
Y257816D02*
Y261617D01*
X105900Y180653D02*
Y184454D01*
Y187390D02*
Y191014D01*
Y195304D02*
Y199524D01*
Y227484D02*
Y235246D01*
Y241988D02*
Y250008D01*
Y257816D02*
Y261617D01*
X106000Y180653D02*
Y184454D01*
Y187390D02*
Y191014D01*
Y195236D02*
Y199524D01*
Y227324D02*
Y235363D01*
Y241871D02*
Y250175D01*
Y257816D02*
Y261617D01*
X106100Y180653D02*
Y184454D01*
Y187390D02*
Y191014D01*
Y195169D02*
Y199524D01*
Y227164D02*
Y235480D01*
Y241754D02*
Y250341D01*
Y257816D02*
Y261617D01*
X106200Y180653D02*
Y184454D01*
Y187390D02*
Y191014D01*
Y195101D02*
Y199524D01*
Y227004D02*
Y235596D01*
Y241638D02*
Y250508D01*
Y257816D02*
Y261617D01*
X106300Y180653D02*
Y184454D01*
Y187390D02*
Y191014D01*
Y195034D02*
Y199524D01*
Y226844D02*
Y235713D01*
Y241521D02*
Y250651D01*
Y257816D02*
Y261617D01*
X106400Y180653D02*
Y184454D01*
Y187390D02*
Y191014D01*
Y194966D02*
Y199524D01*
Y226684D02*
Y235830D01*
Y241404D02*
Y250711D01*
Y257816D02*
Y261617D01*
X106500Y180653D02*
Y184454D01*
Y187390D02*
Y191014D01*
Y194899D02*
Y199524D01*
Y226563D02*
Y235946D01*
Y241288D02*
Y250771D01*
Y257816D02*
Y261617D01*
X106600Y180653D02*
Y184454D01*
Y187390D02*
Y191014D01*
Y194831D02*
Y199524D01*
Y226492D02*
Y236063D01*
Y241171D02*
Y250831D01*
Y257816D02*
Y261617D01*
X106700Y180653D02*
Y184454D01*
Y187390D02*
Y191014D01*
Y194764D02*
Y199524D01*
Y226421D02*
Y236148D01*
Y241084D02*
Y250891D01*
Y257816D02*
Y261617D01*
X106800Y180653D02*
Y184454D01*
Y187390D02*
Y191014D01*
Y194696D02*
Y199524D01*
Y226349D02*
Y236219D01*
Y241009D02*
Y250951D01*
Y257816D02*
Y261617D01*
X106900Y180653D02*
Y184454D01*
Y187390D02*
Y191014D01*
Y194629D02*
Y199524D01*
Y226278D02*
Y236291D01*
Y240934D02*
Y251011D01*
Y257816D02*
Y261617D01*
X107000Y180653D02*
Y184454D01*
Y187390D02*
Y191014D01*
Y194561D02*
Y199524D01*
Y226206D02*
Y236362D01*
Y240859D02*
Y251071D01*
Y257816D02*
Y261617D01*
X107100Y180653D02*
Y184454D01*
Y187390D02*
Y191014D01*
Y194494D02*
Y199524D01*
Y226135D02*
Y236433D01*
Y240784D02*
Y251131D01*
Y257816D02*
Y261617D01*
X107200Y180653D02*
Y184454D01*
Y187390D02*
Y191014D01*
Y194426D02*
Y199524D01*
Y226063D02*
Y236505D01*
Y240709D02*
Y251191D01*
Y257816D02*
Y261617D01*
X107300Y180653D02*
Y184454D01*
Y187390D02*
Y191014D01*
Y194359D02*
Y199524D01*
Y225992D02*
Y236576D01*
Y240634D02*
Y251251D01*
Y257816D02*
Y261617D01*
X107400Y180653D02*
Y184454D01*
Y187390D02*
Y191014D01*
Y194291D02*
Y199524D01*
Y225921D02*
Y236648D01*
Y240576D02*
Y251311D01*
Y257816D02*
Y261617D01*
X107500Y180653D02*
Y184454D01*
Y187390D02*
Y191014D01*
Y194224D02*
Y199524D01*
Y225849D02*
Y236719D01*
Y240526D02*
Y251371D01*
Y257816D02*
Y261617D01*
X107600Y180653D02*
Y184454D01*
Y187390D02*
Y191014D01*
Y194156D02*
Y199524D01*
Y225778D02*
Y236791D01*
Y240476D02*
Y251431D01*
Y257816D02*
Y261617D01*
X107700Y180653D02*
Y184454D01*
Y187390D02*
Y191014D01*
Y194089D02*
Y199524D01*
Y225711D02*
Y236862D01*
Y240426D02*
Y251491D01*
Y257816D02*
Y261617D01*
X107800Y180653D02*
Y184454D01*
Y187390D02*
Y191014D01*
Y194021D02*
Y199524D01*
Y225666D02*
Y231265D01*
Y231430D02*
Y236933D01*
Y240376D02*
Y245981D01*
Y246134D02*
Y251551D01*
Y257816D02*
Y261617D01*
X107900Y180653D02*
Y184454D01*
Y187390D02*
Y191014D01*
Y193954D02*
Y199524D01*
Y225622D02*
Y230665D01*
Y232030D02*
Y236990D01*
Y240326D02*
Y245381D01*
Y246634D02*
Y251611D01*
Y257816D02*
Y261617D01*
X108000Y180653D02*
Y184454D01*
Y187390D02*
Y191014D01*
Y193886D02*
Y199524D01*
Y225577D02*
Y230221D01*
Y232476D02*
Y237023D01*
Y240276D02*
Y244917D01*
Y247034D02*
Y251671D01*
Y257816D02*
Y261617D01*
X108100Y180653D02*
Y184454D01*
Y187390D02*
Y191014D01*
Y193819D02*
Y199524D01*
Y225533D02*
Y230096D01*
Y232609D02*
Y237056D01*
Y240249D02*
Y244717D01*
Y247234D02*
Y251713D01*
Y257816D02*
Y261617D01*
X108200Y180653D02*
Y184454D01*
Y187390D02*
Y191014D01*
Y193751D02*
Y199524D01*
Y225488D02*
Y229971D01*
Y232742D02*
Y237090D01*
Y240232D02*
Y244517D01*
Y247434D02*
Y251747D01*
Y257816D02*
Y261617D01*
X108300Y180653D02*
Y184454D01*
Y187390D02*
Y191014D01*
Y193684D02*
Y199524D01*
Y225444D02*
Y229846D01*
Y232876D02*
Y237123D01*
Y240216D02*
Y244317D01*
Y247634D02*
Y251780D01*
Y257816D02*
Y261617D01*
X108400Y180653D02*
Y184454D01*
Y187390D02*
Y191014D01*
Y193616D02*
Y199524D01*
Y225399D02*
Y229721D01*
Y233009D02*
Y237156D01*
Y240199D02*
Y244219D01*
Y247731D02*
Y251813D01*
Y257816D02*
Y261617D01*
X108500Y180653D02*
Y184454D01*
Y187390D02*
Y191014D01*
Y193549D02*
Y199524D01*
Y225355D02*
Y229596D01*
Y233142D02*
Y237190D01*
Y240182D02*
Y244169D01*
Y247781D02*
Y251847D01*
Y257816D02*
Y261617D01*
X108600Y180653D02*
Y184454D01*
Y187390D02*
Y191014D01*
Y193481D02*
Y199524D01*
Y225311D02*
Y229471D01*
Y233198D02*
Y237223D01*
Y240166D02*
Y244119D01*
Y247831D02*
Y251880D01*
Y257816D02*
Y261617D01*
X108700Y180653D02*
Y184454D01*
Y187390D02*
Y191014D01*
Y193414D02*
Y199524D01*
Y225266D02*
Y229353D01*
Y233241D02*
Y237256D01*
Y240149D02*
Y244069D01*
Y247881D02*
Y251913D01*
Y257816D02*
Y261617D01*
X108800Y180653D02*
Y184454D01*
Y187390D02*
Y191014D01*
Y193346D02*
Y199524D01*
Y225222D02*
Y229303D01*
Y233284D02*
Y237290D01*
Y240132D02*
Y244019D01*
Y247931D02*
Y251947D01*
Y257816D02*
Y261617D01*
X108900Y180653D02*
Y184454D01*
Y187390D02*
Y191014D01*
Y193279D02*
Y199524D01*
Y225177D02*
Y229253D01*
Y233327D02*
Y237323D01*
Y240116D02*
Y243969D01*
Y247981D02*
Y251980D01*
Y257816D02*
Y261617D01*
X109000Y180653D02*
Y184454D01*
Y187390D02*
Y191014D01*
Y193211D02*
Y199524D01*
Y225133D02*
Y229203D01*
Y233369D02*
Y237356D01*
Y240099D02*
Y243919D01*
Y248031D02*
Y252013D01*
Y257816D02*
Y261617D01*
X109100Y180653D02*
Y184454D01*
Y187390D02*
Y191014D01*
Y193144D02*
Y199524D01*
Y225088D02*
Y229153D01*
Y233412D02*
Y237390D01*
Y240082D02*
Y243881D01*
Y248070D02*
Y252042D01*
Y257816D02*
Y261617D01*
X109200Y180653D02*
Y184454D01*
Y187390D02*
Y191014D01*
Y193076D02*
Y199524D01*
Y225044D02*
Y229103D01*
Y233455D02*
Y237423D01*
Y240066D02*
Y243861D01*
Y248090D02*
Y252042D01*
Y257816D02*
Y261617D01*
X109300Y180653D02*
Y184454D01*
Y187390D02*
Y191014D01*
Y193009D02*
Y199524D01*
Y225011D02*
Y229053D01*
Y233498D02*
Y237456D01*
Y240049D02*
Y243841D01*
Y248110D02*
Y252042D01*
Y257816D02*
Y261617D01*
X109400Y180653D02*
Y184454D01*
Y187390D02*
Y191014D01*
Y192941D02*
Y199524D01*
Y225003D02*
Y229003D01*
Y233541D02*
Y237490D01*
Y240032D02*
Y243821D01*
Y248130D02*
Y252042D01*
Y257816D02*
Y261617D01*
X109500Y180653D02*
Y184454D01*
Y187390D02*
Y191014D01*
Y192874D02*
Y199524D01*
Y224994D02*
Y228953D01*
Y233584D02*
Y237509D01*
Y240016D02*
Y243801D01*
Y248150D02*
Y252042D01*
Y257816D02*
Y261617D01*
X109600Y180653D02*
Y184454D01*
Y187390D02*
Y191014D01*
Y192806D02*
Y199524D01*
Y224986D02*
Y228903D01*
Y233627D02*
Y237518D01*
Y239999D02*
Y243781D01*
Y248170D02*
Y252042D01*
Y257816D02*
Y261617D01*
X109700Y180653D02*
Y184454D01*
Y187390D02*
Y191014D01*
Y192739D02*
Y199524D01*
Y224978D02*
Y228853D01*
Y233669D02*
Y237527D01*
Y239982D02*
Y243761D01*
Y248190D02*
Y252042D01*
Y257816D02*
Y261617D01*
X109800Y180653D02*
Y184454D01*
Y187390D02*
Y191014D01*
Y192671D02*
Y199524D01*
Y224969D02*
Y228814D01*
Y233704D02*
Y237536D01*
Y239966D02*
Y243741D01*
Y248210D02*
Y252042D01*
Y257816D02*
Y261617D01*
X109900Y180653D02*
Y184454D01*
Y187390D02*
Y191014D01*
Y192604D02*
Y199524D01*
Y224961D02*
Y228802D01*
Y233714D02*
Y237545D01*
Y239949D02*
Y243721D01*
Y248230D02*
Y252042D01*
Y257816D02*
Y261617D01*
X110000Y180653D02*
Y184454D01*
Y187390D02*
Y191014D01*
Y192536D02*
Y199524D01*
Y224953D02*
Y228791D01*
Y233724D02*
Y237555D01*
Y239932D02*
Y243709D01*
Y248241D02*
Y252042D01*
Y257816D02*
Y261617D01*
X110100Y180653D02*
Y184454D01*
Y187390D02*
Y191014D01*
Y192469D02*
Y199524D01*
Y224944D02*
Y228780D01*
Y233734D02*
Y237564D01*
Y239916D02*
Y243709D01*
Y248241D02*
Y252042D01*
Y257816D02*
Y261617D01*
X110200Y180653D02*
Y184454D01*
Y187390D02*
Y191014D01*
Y192401D02*
Y199524D01*
Y224936D02*
Y228769D01*
Y233744D02*
Y237573D01*
Y239908D02*
Y243709D01*
Y248241D02*
Y252042D01*
Y257816D02*
Y261617D01*
X110300Y180653D02*
Y184454D01*
Y187390D02*
Y191014D01*
Y192334D02*
Y199524D01*
Y224928D02*
Y228758D01*
Y233754D02*
Y237582D01*
Y239908D02*
Y243709D01*
Y248241D02*
Y252042D01*
Y257816D02*
Y261617D01*
X110400Y180653D02*
Y184454D01*
Y187390D02*
Y191014D01*
Y192266D02*
Y199524D01*
Y224919D02*
Y228747D01*
Y233764D02*
Y237591D01*
Y239908D02*
Y243709D01*
Y248241D02*
Y252042D01*
Y257816D02*
Y261617D01*
X110500Y180653D02*
Y184454D01*
Y187390D02*
Y191014D01*
Y192199D02*
Y199524D01*
Y224911D02*
Y228736D01*
Y233774D02*
Y237600D01*
Y239908D02*
Y243709D01*
Y248241D02*
Y252042D01*
Y257816D02*
Y261617D01*
X110600Y180653D02*
Y184454D01*
Y187390D02*
Y191014D01*
Y192131D02*
Y199524D01*
Y224903D02*
Y228725D01*
Y233784D02*
Y237609D01*
Y239908D02*
Y243709D01*
Y248241D02*
Y252042D01*
Y257816D02*
Y261617D01*
X110700Y180653D02*
Y184454D01*
Y187390D02*
Y191014D01*
Y192064D02*
Y195773D01*
Y195901D02*
Y199524D01*
Y224894D02*
Y228714D01*
Y233794D02*
Y237618D01*
Y239908D02*
Y243709D01*
Y248241D02*
Y252042D01*
Y257816D02*
Y261617D01*
X110800Y180653D02*
Y184454D01*
Y187390D02*
Y191014D01*
Y191996D02*
Y195706D01*
Y195901D02*
Y199524D01*
Y224886D02*
Y228702D01*
Y233804D02*
Y237627D01*
Y239908D02*
Y243709D01*
Y248241D02*
Y252042D01*
Y257816D02*
Y261617D01*
X110900Y180653D02*
Y184454D01*
Y187390D02*
Y191014D01*
Y191929D02*
Y195638D01*
Y195901D02*
Y199524D01*
Y224878D02*
Y228691D01*
Y233814D02*
Y237636D01*
Y239908D02*
Y243709D01*
Y248241D02*
Y252042D01*
Y257816D02*
Y261617D01*
X111000Y180653D02*
Y184454D01*
Y187390D02*
Y191014D01*
Y191861D02*
Y195571D01*
Y195901D02*
Y199524D01*
Y224869D02*
Y228680D01*
Y233824D02*
Y237645D01*
Y239908D02*
Y243709D01*
Y248241D02*
Y252042D01*
Y257816D02*
Y261617D01*
X111100Y180653D02*
Y184454D01*
Y187390D02*
Y191014D01*
Y191794D02*
Y195503D01*
Y195901D02*
Y199524D01*
Y224861D02*
Y228669D01*
Y233834D02*
Y237655D01*
Y239908D02*
Y243709D01*
Y248241D02*
Y252042D01*
Y257816D02*
Y261617D01*
X111200Y180653D02*
Y184454D01*
Y187390D02*
Y191014D01*
Y191726D02*
Y195436D01*
Y195901D02*
Y199524D01*
Y224853D02*
Y228658D01*
Y233844D02*
Y237664D01*
Y239908D02*
Y243709D01*
Y248241D02*
Y252042D01*
Y257816D02*
Y261617D01*
X111300Y180653D02*
Y184454D01*
Y187390D02*
Y191014D01*
Y191659D02*
Y195368D01*
Y195901D02*
Y199524D01*
Y224844D02*
Y228647D01*
Y233854D02*
Y237673D01*
Y239908D02*
Y243709D01*
Y248241D02*
Y252042D01*
Y257816D02*
Y261617D01*
X111400Y180653D02*
Y184454D01*
Y187390D02*
Y191014D01*
Y191591D02*
Y195301D01*
Y195901D02*
Y199524D01*
Y224840D02*
Y228640D01*
Y233864D02*
Y237678D01*
Y239908D02*
Y243709D01*
Y248241D02*
Y252042D01*
Y257816D02*
Y261617D01*
X111500Y180653D02*
Y184454D01*
Y187390D02*
Y191014D01*
Y191524D02*
Y195233D01*
Y195901D02*
Y199524D01*
Y224852D02*
Y228651D01*
Y233874D02*
Y237667D01*
Y239908D02*
Y243709D01*
Y248241D02*
Y252042D01*
Y257816D02*
Y261617D01*
X111600Y180653D02*
Y184454D01*
Y187390D02*
Y191014D01*
Y191456D02*
Y195166D01*
Y195901D02*
Y199524D01*
Y224865D02*
Y228662D01*
Y233875D02*
Y237656D01*
Y239908D02*
Y243709D01*
Y248241D02*
Y252042D01*
Y257816D02*
Y261617D01*
X111700Y180653D02*
Y184454D01*
Y187390D02*
Y191014D01*
Y191389D02*
Y195098D01*
Y195901D02*
Y199524D01*
Y224877D02*
Y228673D01*
Y233863D02*
Y237645D01*
Y239908D02*
Y243709D01*
Y248241D02*
Y252042D01*
Y257816D02*
Y261617D01*
X111800Y180653D02*
Y184454D01*
Y187390D02*
Y191014D01*
Y191321D02*
Y195031D01*
Y195901D02*
Y199524D01*
Y224890D02*
Y228684D01*
Y233850D02*
Y237634D01*
Y239908D02*
Y243709D01*
Y248241D02*
Y252042D01*
Y257816D02*
Y261617D01*
X111900Y180653D02*
Y184454D01*
Y187390D02*
Y191014D01*
Y191254D02*
Y194963D01*
Y195901D02*
Y199524D01*
Y224902D02*
Y228695D01*
Y233838D02*
Y237623D01*
Y239908D02*
Y243709D01*
Y248241D02*
Y252042D01*
Y257816D02*
Y261617D01*
X112000Y180653D02*
Y184454D01*
Y187390D02*
Y191014D01*
Y191186D02*
Y194896D01*
Y195901D02*
Y199524D01*
Y224915D02*
Y228706D01*
Y233825D02*
Y237612D01*
Y239908D02*
Y243709D01*
Y248241D02*
Y252042D01*
Y257816D02*
Y261617D01*
X112100Y180653D02*
Y184454D01*
Y187390D02*
Y191014D01*
Y191119D02*
Y194828D01*
Y195901D02*
Y199524D01*
Y224927D02*
Y228717D01*
Y233813D02*
Y237601D01*
Y239908D02*
Y243709D01*
Y248241D02*
Y252042D01*
Y257816D02*
Y261617D01*
X112200Y180653D02*
Y184454D01*
Y187390D02*
Y194761D01*
Y195901D02*
Y199524D01*
Y224940D02*
Y228728D01*
Y233800D02*
Y237589D01*
Y239908D02*
Y243709D01*
Y248241D02*
Y252042D01*
Y257816D02*
Y261617D01*
X112300Y180653D02*
Y184454D01*
Y187390D02*
Y194693D01*
Y195901D02*
Y199524D01*
Y224952D02*
Y228740D01*
Y233788D02*
Y237578D01*
Y239908D02*
Y243709D01*
Y248241D02*
Y252042D01*
Y257816D02*
Y261617D01*
X112400Y180653D02*
Y184454D01*
Y187390D02*
Y194626D01*
Y195901D02*
Y199524D01*
Y224965D02*
Y228751D01*
Y233775D02*
Y237567D01*
Y239908D02*
Y243709D01*
Y248241D02*
Y252042D01*
Y257816D02*
Y261617D01*
X112500Y180653D02*
Y184454D01*
Y187390D02*
Y194558D01*
Y195901D02*
Y199524D01*
Y224977D02*
Y228762D01*
Y233763D02*
Y237556D01*
Y239908D02*
Y243709D01*
Y248241D02*
Y252042D01*
Y257816D02*
Y261617D01*
X112600Y180653D02*
Y184454D01*
Y187390D02*
Y194491D01*
Y195901D02*
Y199524D01*
Y224990D02*
Y228773D01*
Y233750D02*
Y237545D01*
Y239908D02*
Y243709D01*
Y248241D02*
Y252042D01*
Y257816D02*
Y261617D01*
X112700Y180653D02*
Y184454D01*
Y187390D02*
Y194423D01*
Y195901D02*
Y199524D01*
Y225002D02*
Y228784D01*
Y233738D02*
Y237534D01*
Y239908D02*
Y243709D01*
Y248241D02*
Y252042D01*
Y257816D02*
Y261617D01*
X112800Y180653D02*
Y184454D01*
Y187390D02*
Y194356D01*
Y195901D02*
Y199524D01*
Y225015D02*
Y228795D01*
Y233725D02*
Y237523D01*
Y239908D02*
Y243709D01*
Y248241D02*
Y252042D01*
Y257816D02*
Y261617D01*
X112900Y180653D02*
Y184454D01*
Y187390D02*
Y194288D01*
Y195901D02*
Y199524D01*
Y225029D02*
Y228806D01*
Y233713D02*
Y237512D01*
Y239908D02*
Y243709D01*
Y248241D02*
Y252042D01*
Y257816D02*
Y261617D01*
X113000Y180653D02*
Y184454D01*
Y187390D02*
Y194221D01*
Y195901D02*
Y199524D01*
Y225043D02*
Y228820D01*
Y233698D02*
Y237500D01*
Y239908D02*
Y243709D01*
Y248241D02*
Y252042D01*
Y257816D02*
Y261617D01*
X113100Y180653D02*
Y184454D01*
Y187390D02*
Y194153D01*
Y195901D02*
Y199524D01*
Y225058D02*
Y228870D01*
Y233648D02*
Y237485D01*
Y239908D02*
Y243709D01*
Y248241D02*
Y252042D01*
Y257816D02*
Y261617D01*
X113200Y180653D02*
Y184454D01*
Y187390D02*
Y194086D01*
Y195901D02*
Y199524D01*
Y225072D02*
Y228920D01*
Y233598D02*
Y237471D01*
Y239908D02*
Y243709D01*
Y248241D02*
Y252042D01*
Y257816D02*
Y261617D01*
X113300Y180653D02*
Y184454D01*
Y187390D02*
Y194018D01*
Y195901D02*
Y199524D01*
Y225086D02*
Y228970D01*
Y233548D02*
Y237457D01*
Y239908D02*
Y243709D01*
Y248241D02*
Y252042D01*
Y257816D02*
Y261617D01*
X113400Y180653D02*
Y184454D01*
Y187390D02*
Y193951D01*
Y195901D02*
Y199524D01*
Y225101D02*
Y229020D01*
Y233498D02*
Y237443D01*
Y239908D02*
Y243709D01*
Y248241D02*
Y252042D01*
Y257816D02*
Y261617D01*
X113500Y180653D02*
Y184454D01*
Y187390D02*
Y193883D01*
Y195901D02*
Y199524D01*
Y225115D02*
Y229070D01*
Y233448D02*
Y237428D01*
Y239908D02*
Y243709D01*
Y248241D02*
Y252042D01*
Y257816D02*
Y261617D01*
X113600Y180653D02*
Y184454D01*
Y187390D02*
Y193816D01*
Y195901D02*
Y199524D01*
Y225129D02*
Y229120D01*
Y233398D02*
Y237414D01*
Y239908D02*
Y243709D01*
Y248241D02*
Y252042D01*
Y257816D02*
Y261617D01*
X113700Y180653D02*
Y184454D01*
Y187390D02*
Y193748D01*
Y195901D02*
Y199524D01*
Y225143D02*
Y229170D01*
Y233348D02*
Y237400D01*
Y239908D02*
Y243709D01*
Y248241D02*
Y252042D01*
Y257816D02*
Y261617D01*
X113800Y180653D02*
Y184454D01*
Y187390D02*
Y193681D01*
Y195901D02*
Y199524D01*
Y225158D02*
Y229220D01*
Y233298D02*
Y237385D01*
Y239908D02*
Y243709D01*
Y248241D02*
Y252042D01*
Y257816D02*
Y261617D01*
X113900Y180653D02*
Y184454D01*
Y187390D02*
Y193613D01*
Y195901D02*
Y199524D01*
Y225172D02*
Y229270D01*
Y233248D02*
Y237371D01*
Y239908D02*
Y243709D01*
Y248241D02*
Y252042D01*
Y257816D02*
Y261617D01*
X114000Y180653D02*
Y184454D01*
Y187390D02*
Y193546D01*
Y195901D02*
Y199524D01*
Y225186D02*
Y229320D01*
Y233198D02*
Y237357D01*
Y239908D02*
Y243709D01*
Y248241D02*
Y252042D01*
Y257816D02*
Y261617D01*
X114100Y180653D02*
Y184454D01*
Y187390D02*
Y193478D01*
Y195901D02*
Y199524D01*
Y225221D02*
Y229389D01*
Y233129D02*
Y237343D01*
Y239908D02*
Y243709D01*
Y248241D02*
Y252042D01*
Y257816D02*
Y261617D01*
X114200Y180653D02*
Y184454D01*
Y187390D02*
Y193411D01*
Y195901D02*
Y199524D01*
Y225264D02*
Y229514D01*
Y233004D02*
Y237328D01*
Y239908D02*
Y243709D01*
Y248241D02*
Y252042D01*
Y257816D02*
Y261617D01*
X114300Y180653D02*
Y184454D01*
Y187390D02*
Y193343D01*
Y195901D02*
Y199524D01*
Y225307D02*
Y229639D01*
Y232879D02*
Y237280D01*
Y239908D02*
Y243709D01*
Y248241D02*
Y252042D01*
Y257816D02*
Y261617D01*
X114400Y180653D02*
Y184454D01*
Y187390D02*
Y193276D01*
Y195901D02*
Y199524D01*
Y225349D02*
Y229764D01*
Y232754D02*
Y237230D01*
Y239908D02*
Y243709D01*
Y248241D02*
Y252042D01*
Y257816D02*
Y261617D01*
X114500Y180653D02*
Y184454D01*
Y187390D02*
Y193208D01*
Y195901D02*
Y199524D01*
Y225392D02*
Y229889D01*
Y232629D02*
Y237180D01*
Y239908D02*
Y243709D01*
Y248241D02*
Y252042D01*
Y257816D02*
Y261617D01*
X114600Y180653D02*
Y184454D01*
Y187390D02*
Y193141D01*
Y195901D02*
Y199524D01*
Y225435D02*
Y230014D01*
Y232504D02*
Y237130D01*
Y239908D02*
Y243709D01*
Y248241D02*
Y252042D01*
Y257816D02*
Y261617D01*
X114700Y180653D02*
Y184454D01*
Y187390D02*
Y193073D01*
Y195901D02*
Y199524D01*
Y225478D02*
Y230139D01*
Y232379D02*
Y237080D01*
Y239908D02*
Y243709D01*
Y248241D02*
Y252042D01*
Y257816D02*
Y261617D01*
X114800Y180653D02*
Y184454D01*
Y187390D02*
Y193006D01*
Y195901D02*
Y199524D01*
Y225521D02*
Y230270D01*
Y232247D02*
Y237030D01*
Y239908D02*
Y243709D01*
Y248241D02*
Y252042D01*
Y257779D02*
Y261653D01*
X114900Y180653D02*
Y184454D01*
Y187390D02*
Y192938D01*
Y195901D02*
Y199524D01*
Y225564D02*
Y230770D01*
Y231649D02*
Y236980D01*
Y239908D02*
Y243709D01*
Y248241D02*
Y252042D01*
Y253738D02*
Y265695D01*
X115000Y180653D02*
Y184454D01*
Y187390D02*
Y192871D01*
Y195901D02*
Y199524D01*
Y225607D02*
Y236930D01*
Y239908D02*
Y243709D01*
Y248241D02*
Y252042D01*
Y253738D02*
Y265695D01*
X115100Y180653D02*
Y184454D01*
Y187390D02*
Y192803D01*
Y195901D02*
Y199524D01*
Y225649D02*
Y236880D01*
Y239908D02*
Y243709D01*
Y248241D02*
Y252042D01*
Y253738D02*
Y265695D01*
X115200Y180653D02*
Y184454D01*
Y187390D02*
Y192736D01*
Y195901D02*
Y199524D01*
Y225692D02*
Y236830D01*
Y239908D02*
Y243709D01*
Y248241D02*
Y252042D01*
Y253738D02*
Y265695D01*
X115300Y180653D02*
Y184454D01*
Y187390D02*
Y192668D01*
Y195901D02*
Y199524D01*
Y225761D02*
Y236767D01*
Y239908D02*
Y243709D01*
Y248241D02*
Y252042D01*
Y253738D02*
Y265695D01*
X115400Y180653D02*
Y184454D01*
Y187390D02*
Y192601D01*
Y195901D02*
Y199524D01*
Y225861D02*
Y236687D01*
Y239908D02*
Y243709D01*
Y248241D02*
Y252042D01*
Y253738D02*
Y265695D01*
X115500Y180653D02*
Y184454D01*
Y187390D02*
Y192533D01*
Y195901D02*
Y199524D01*
Y225961D02*
Y236607D01*
Y239908D02*
Y243709D01*
Y248241D02*
Y252042D01*
Y253738D02*
Y265695D01*
X115600Y180653D02*
Y184454D01*
Y187390D02*
Y192466D01*
Y195901D02*
Y199524D01*
Y226061D02*
Y236527D01*
Y239908D02*
Y243709D01*
Y248241D02*
Y252042D01*
Y253738D02*
Y265695D01*
X115700Y180653D02*
Y184454D01*
Y187390D02*
Y192398D01*
Y195901D02*
Y199524D01*
Y226161D02*
Y236447D01*
Y239908D02*
Y243709D01*
Y248241D02*
Y252042D01*
Y253738D02*
Y265695D01*
X115800Y180653D02*
Y184454D01*
Y187390D02*
Y192331D01*
Y195901D02*
Y199524D01*
Y226261D02*
Y236367D01*
Y239908D02*
Y243709D01*
Y248241D02*
Y252042D01*
Y253738D02*
Y265695D01*
X115900Y180653D02*
Y184454D01*
Y187390D02*
Y192263D01*
Y195901D02*
Y199524D01*
Y226361D02*
Y236287D01*
Y239908D02*
Y243709D01*
Y248241D02*
Y252042D01*
Y253738D02*
Y265695D01*
X116000Y180653D02*
Y184454D01*
Y187390D02*
Y192196D01*
Y195901D02*
Y199524D01*
Y226461D02*
Y236207D01*
Y239908D02*
Y243709D01*
Y248241D02*
Y252042D01*
Y253738D02*
Y265695D01*
X116100Y180653D02*
Y184454D01*
Y187390D02*
Y192128D01*
Y195901D02*
Y199524D01*
Y226561D02*
Y236127D01*
Y239908D02*
Y243709D01*
Y248241D02*
Y252042D01*
Y253738D02*
Y265695D01*
X116200Y180653D02*
Y184454D01*
Y187390D02*
Y192061D01*
Y195901D02*
Y199524D01*
Y226678D02*
Y236021D01*
Y239908D02*
Y243709D01*
Y248241D02*
Y252042D01*
Y253738D02*
Y265695D01*
X116300Y180653D02*
Y184454D01*
Y187390D02*
Y191993D01*
Y195901D02*
Y199524D01*
Y226803D02*
Y235901D01*
Y239908D02*
Y243709D01*
Y248241D02*
Y252042D01*
Y253738D02*
Y265695D01*
X116400Y180653D02*
Y184454D01*
Y187390D02*
Y191926D01*
Y195901D02*
Y199524D01*
Y226928D02*
Y235781D01*
Y239908D02*
Y243709D01*
Y248241D02*
Y252042D01*
Y253738D02*
Y265695D01*
X116500Y180653D02*
Y184454D01*
Y187390D02*
Y191858D01*
Y195901D02*
Y199524D01*
Y227053D02*
Y235661D01*
Y239908D02*
Y243709D01*
Y248241D02*
Y252042D01*
Y253738D02*
Y265695D01*
X116600Y180653D02*
Y184454D01*
Y187390D02*
Y191791D01*
Y195901D02*
Y199524D01*
Y227178D02*
Y235541D01*
Y239908D02*
Y243709D01*
Y248241D02*
Y252042D01*
Y253738D02*
Y265695D01*
X116700Y180653D02*
Y184454D01*
Y187390D02*
Y191723D01*
Y195901D02*
Y199524D01*
Y227303D02*
Y235421D01*
Y239908D02*
Y243709D01*
Y248241D02*
Y252042D01*
Y253738D02*
Y265695D01*
X116800Y180653D02*
Y184454D01*
Y187390D02*
Y191656D01*
Y195901D02*
Y199524D01*
Y227428D02*
Y235301D01*
Y239908D02*
Y243709D01*
Y248241D02*
Y252042D01*
Y253738D02*
Y265695D01*
X116900Y180653D02*
Y184454D01*
Y187390D02*
Y191588D01*
Y195901D02*
Y199524D01*
Y227600D02*
Y235181D01*
Y239908D02*
Y243709D01*
Y248241D02*
Y252042D01*
Y253738D02*
Y265695D01*
X117000Y180653D02*
Y184454D01*
Y187390D02*
Y191521D01*
Y195901D02*
Y199524D01*
Y227800D02*
Y235061D01*
Y239908D02*
Y243709D01*
Y248241D02*
Y252042D01*
Y253738D02*
Y265695D01*
X117100Y180653D02*
Y184454D01*
Y187390D02*
Y191453D01*
Y195901D02*
Y199524D01*
Y228000D02*
Y234873D01*
Y239908D02*
Y243709D01*
Y248241D02*
Y252042D01*
Y253738D02*
Y265695D01*
X117200Y180653D02*
Y184454D01*
Y187390D02*
Y191386D01*
Y195901D02*
Y199524D01*
Y228200D02*
Y234673D01*
Y239908D02*
Y243709D01*
Y248241D02*
Y252042D01*
Y253738D02*
Y265695D01*
X117300Y180653D02*
Y184454D01*
Y187390D02*
Y191318D01*
Y195901D02*
Y199524D01*
Y228400D02*
Y234473D01*
Y239908D02*
Y243709D01*
Y248241D02*
Y252042D01*
Y253738D02*
Y265695D01*
X117400Y180653D02*
Y184454D01*
Y187390D02*
Y191251D01*
Y195901D02*
Y199524D01*
Y228653D02*
Y234273D01*
Y239908D02*
Y243709D01*
Y248241D02*
Y252042D01*
Y253738D02*
Y265695D01*
X117500Y180653D02*
Y184454D01*
Y187390D02*
Y191183D01*
Y195901D02*
Y199524D01*
Y229003D02*
Y234073D01*
Y239908D02*
Y243709D01*
Y248241D02*
Y252042D01*
Y253738D02*
Y265695D01*
X117600Y180653D02*
Y184454D01*
Y187390D02*
Y191116D01*
Y195901D02*
Y199524D01*
Y229353D02*
Y233574D01*
Y239908D02*
Y243709D01*
Y248241D02*
Y252042D01*
Y253738D02*
Y265695D01*
X117700Y180653D02*
Y184454D01*
Y187390D02*
Y191048D01*
Y195901D02*
Y199524D01*
Y229703D02*
Y232874D01*
Y239908D02*
Y243709D01*
Y248241D02*
Y252042D01*
Y253738D02*
Y265695D01*
X117800Y230427D02*
Y232007D01*
*
G04 PC Custom Flashes*
G04 Layer Name medulla.1.5.pcb - flashes*
%LPD*%
*
*
G04 PC Circuitry*
G04 Layer Name medulla.1.5.pcb - circuitry*
%LPD*%
*
G54D38*
X272000Y304000D02*
X252000D01*
Y316000*
X272000*
Y304000*
X241068Y133844D02*
Y130300D01*
Y133844D02*
X239841D01*
X239432Y133675*
X239295Y133506*
X239159Y133169*
Y132663*
X239159D02*
X239295Y132325D01*
X239432Y132156*
X239841Y131988*
X239841D02*
X241068D01*
X237932Y133844D02*
Y130300D01*
X236023Y133844D02*
Y130300D01*
X237932Y132156D02*
X236023D01*
X234795Y133844D02*
X233705Y132156D01*
Y130300*
X232614Y133844D02*
X233705Y132156D01*
X230568Y133844D02*
X230977Y133675D01*
X231250Y133169*
X231386Y132325*
Y131819*
X231250Y130975*
X230977Y130469*
X230568Y130300*
X230295*
X229886Y130469*
X229614Y130975*
X229477Y131819*
Y132325*
X229614Y133169*
X229886Y133675*
X230295Y133844*
X230568*
X205455D02*
Y130300D01*
Y133844D02*
X204227D01*
X203818Y133675*
X203682Y133506*
X203545Y133169*
Y132663*
X203545D02*
X203682Y132325D01*
X203818Y132156*
X204227Y131988*
X204227D02*
X205455D01*
X202318Y133844D02*
Y130300D01*
X200409Y133844D02*
Y130300D01*
X202318Y132156D02*
X200409D01*
X199182Y133844D02*
X198091Y132156D01*
Y130300*
X197000Y133844D02*
X198091Y132156D01*
X195773Y133169D02*
X195500Y133338D01*
X195500D02*
X195091Y133844D01*
Y130300*
X391500Y144844D02*
Y141300D01*
Y144844D02*
X390273D01*
X389864Y144675*
X389727Y144506*
X389591Y144169*
Y143831*
X389727Y143494*
X389864Y143325*
X390273Y143156*
X391500*
X390545D02*
X389591Y141300D01*
X386455Y144338D02*
X386727Y144675D01*
X387136Y144844*
X387682*
X388091Y144675*
X388364Y144338*
X388364D02*
Y144000D01*
X388227Y143663*
X388227D02*
X388091Y143494D01*
X387818Y143325*
X387000Y142988*
X387000D02*
X386727Y142819D01*
X386591Y142650*
X386455Y142313*
X386455D02*
Y141806D01*
X386727Y141469*
X387136Y141300*
X387682*
X388091Y141469*
X388364Y141806*
X385091Y144000D02*
Y144169D01*
X384955Y144506*
X384818Y144675*
X384545Y144844*
X384000*
X383727Y144675*
X383591Y144506*
X383455Y144169*
Y143831*
X383591Y143494*
X383864Y142988*
X383864D02*
X385227Y141300D01*
X383318*
X381818Y144844D02*
X380318D01*
X381136Y143494*
X380727*
X380455Y143325*
X380318Y143156*
X380182Y142650*
Y142313*
X380182D02*
X380318Y141806D01*
X380591Y141469*
X381000Y141300*
X381409*
X381818Y141469*
X381955Y141638*
X381955D02*
X382091Y141975D01*
X378818Y144000D02*
Y144169D01*
X378682Y144506*
X378545Y144675*
X378273Y144844*
X377727*
X377455Y144675*
X377318Y144506*
X377182Y144169*
Y143831*
X377318Y143494*
X377591Y142988*
X377591D02*
X378955Y141300D01*
X377045*
X375000Y185000D02*
Y179000D01*
X379000*
Y153000*
X375000*
Y147000*
X387000*
X390000Y150000*
X401000*
Y182000*
X390000*
X387000Y185000*
X375000*
X131000Y127000D02*
X156000D01*
Y105000*
X131000*
Y127000*
G54D39*
X378800Y225400D02*
Y223600D01*
X375200*
X378800Y228600D02*
Y230400D01*
X375200*
Y226600D02*
Y227400D01*
X295800Y160400D02*
Y158600D01*
X292200*
X295800Y163600D02*
Y165400D01*
X292200*
Y161600D02*
Y162400D01*
X369200Y289600D02*
Y291400D01*
X372800*
X369200Y286400D02*
Y284600D01*
X372800*
Y288400D02*
Y287600D01*
X360200Y289600D02*
Y291400D01*
X363800*
X360200Y286400D02*
Y284600D01*
X363800*
Y288400D02*
Y287600D01*
X360200Y276600D02*
Y278400D01*
X363800*
X360200Y273400D02*
Y271600D01*
X363800*
Y275400D02*
Y274600D01*
X140150Y112850D02*
Y119150D01*
Y116000D02*
X139362D01*
X133850Y119150D02*
Y112850D01*
Y116000D02*
X135425D01*
X139362D02*
X136213Y118362D01*
X390455Y257906D02*
Y262500D01*
Y257906D02*
X392091D01*
X392636Y258125*
X392818Y258344*
X393000Y258781*
Y259437*
X393000D02*
X392818Y259875D01*
X392636Y260094*
X392091Y260312*
X392091D02*
X390455D01*
X394636Y257906D02*
Y262500D01*
Y257906D02*
X395909D01*
X396455Y258125*
X396818Y258562*
X396818D02*
X397000Y259000D01*
X397182Y259656*
Y260750*
X397000Y261406*
X396818Y261844*
X396455Y262281*
X395909Y262500*
X394636*
X398818Y257906D02*
Y262500D01*
X414906Y256636D02*
X419500D01*
X414906D02*
Y255364D01*
X415125Y254818*
X415562Y254455*
X415562D02*
X416000Y254273D01*
X416656Y254091*
X417750*
X418406Y254273*
X418844Y254455*
X419281Y254818*
X419500Y255364*
Y256636*
X415000Y304000D02*
X414562Y304182D01*
X414562D02*
X414125Y304545D01*
X413906Y304909*
Y305636*
X414125Y306000*
X414562Y306364*
X414562D02*
X415000Y306545D01*
X415656Y306727*
X416750*
X417406Y306545*
X417844Y306364*
X418281Y306000*
X418500Y305636*
Y304909*
X418281Y304545*
X417844Y304182*
X417406Y304000*
X343364Y294906D02*
Y299500D01*
Y294906D02*
X345000D01*
X345545Y295125*
X345727Y295344*
X345909Y295781*
Y296219*
X345727Y296656*
X345545Y296875*
X345000Y297094*
X343364D02*
X345000D01*
X345545Y297312*
X345545D02*
X345727Y297531D01*
X345909Y297969*
Y298625*
X345727Y299062*
X345727D02*
X345545Y299281D01*
X345000Y299500*
X343364*
X294636Y294906D02*
X293182Y299500D01*
X294636Y294906D02*
X296091Y299500D01*
X293727Y297969D02*
X295545D01*
X414906Y136636D02*
X419500D01*
X414906Y134091D02*
X419500D01*
X417094Y136636D02*
Y134091D01*
X414906Y186545D02*
X419500D01*
X414906D02*
Y184182D01*
X417094Y186545D02*
Y185091D01*
X305636Y135094D02*
Y130500D01*
X303091Y135094D02*
X305636Y132031D01*
X304727Y133125D02*
X303091Y130500D01*
X353455Y135094D02*
Y131594D01*
X353636Y130938*
X353636D02*
X353818Y130719D01*
X354182Y130500*
X354545*
X354909Y130719*
X355091Y130938*
X355091D02*
X355273Y131594D01*
Y132031*
X152094Y106182D02*
X147500D01*
X152094D02*
Y107818D01*
X151875Y108364*
X151656Y108545*
X151219Y108727*
X150781*
X150344Y108545*
X150125Y108364*
X149906Y107818*
Y106182*
Y107455D02*
X147500Y108727D01*
X152094Y110364D02*
X147500D01*
X152094D02*
Y112727D01*
X149906Y110364D02*
Y111818D01*
X147500Y110364D02*
Y112727D01*
X151438Y116909D02*
X151875Y116545D01*
X152094Y116000*
Y115273*
X151875Y114727*
X151438Y114364*
X151438D02*
X151000D01*
X150563Y114545*
X150563D02*
X150344Y114727D01*
X150125Y115091*
X149688Y116182*
X149688D02*
X149469Y116545D01*
X149250Y116727*
X148813Y116909*
X148813D02*
X148156D01*
X147719Y116545*
X147500Y116000*
Y115273*
X147719Y114727*
X148156Y114364*
X152094Y118545D02*
X147500D01*
X152094D02*
Y120909D01*
X149906Y118545D02*
Y120000D01*
X147500Y118545D02*
Y120909D01*
X152094Y123818D02*
X147500D01*
X152094Y122545D02*
Y125091D01*
X275000Y325000D02*
X285000D01*
Y315000*
X275000*
Y325000*
Y315000D02*
X285000D01*
Y305000*
X275000*
Y315000*
X285000D02*
X295000D01*
Y305000*
X285000*
Y315000*
Y325000D02*
X295000D01*
Y315000*
X285000*
Y325000*
X305000Y315000D02*
X315000D01*
Y305000*
X305000*
Y315000*
Y325000D02*
X315000D01*
Y315000*
X305000*
Y325000*
X295000D02*
X305000D01*
Y315000*
X295000*
Y325000*
Y315000D02*
X305000D01*
Y305000*
X295000*
Y315000*
X325000D02*
X335000D01*
Y305000*
X325000*
Y315000*
Y325000D02*
X335000D01*
Y315000*
X325000*
Y325000*
X315000D02*
X325000D01*
Y315000*
X315000*
Y325000*
Y315000D02*
X325000D01*
Y305000*
X315000*
Y315000*
X345000D02*
X355000D01*
Y305000*
X345000*
Y315000*
Y325000D02*
X355000D01*
Y315000*
X345000*
Y325000*
X335000D02*
X345000D01*
Y315000*
X335000*
Y325000*
Y315000D02*
X345000D01*
Y305000*
X335000*
Y315000*
X365000D02*
X375000D01*
Y305000*
X365000*
Y315000*
Y325000D02*
X375000D01*
Y315000*
X365000*
Y325000*
X355000D02*
X365000D01*
Y315000*
X355000*
Y325000*
Y315000D02*
X365000D01*
Y305000*
X355000*
Y315000*
X315000Y305000D02*
X325000D01*
Y295000*
X315000*
Y305000*
X365000D02*
X375000D01*
Y295000*
X365000*
Y305000*
X435000Y315000D02*
X445000D01*
Y305000*
X435000*
Y315000*
X425000Y325000D02*
X435000D01*
Y315000*
X425000*
Y325000*
X435000D02*
X445000D01*
Y315000*
X435000*
Y325000*
X425000Y315000D02*
X435000D01*
Y305000*
X425000*
Y315000*
X435000Y295000D02*
X445000D01*
Y285000*
X435000*
Y295000*
X425000Y305000D02*
X435000D01*
Y295000*
X425000*
Y305000*
X435000D02*
X445000D01*
Y295000*
X435000*
Y305000*
X425000Y295000D02*
X435000D01*
Y285000*
X425000*
Y295000*
X435000Y275000D02*
X445000D01*
Y265000*
X435000*
Y275000*
X425000Y285000D02*
X435000D01*
Y275000*
X425000*
Y285000*
X435000D02*
X445000D01*
Y275000*
X435000*
Y285000*
X425000Y275000D02*
X435000D01*
Y265000*
X425000*
Y275000*
X435000Y255000D02*
X445000D01*
Y245000*
X435000*
Y255000*
X425000Y265000D02*
X435000D01*
Y255000*
X425000*
Y265000*
X435000D02*
X445000D01*
Y255000*
X435000*
Y265000*
X425000Y255000D02*
X435000D01*
Y245000*
X425000*
Y255000*
X435000Y235000D02*
X445000D01*
Y225000*
X435000*
Y235000*
X425000Y245000D02*
X435000D01*
Y235000*
X425000*
Y245000*
X435000D02*
X445000D01*
Y235000*
X435000*
Y245000*
X425000Y235000D02*
X435000D01*
Y225000*
X425000*
Y235000*
X415000D02*
X425000D01*
Y225000*
X415000*
Y235000*
Y285000D02*
X425000D01*
Y275000*
X415000*
Y285000*
X435000Y195000D02*
X445000D01*
Y185000*
X435000*
Y195000*
X425000Y205000D02*
X435000D01*
Y195000*
X425000*
Y205000*
X435000D02*
X445000D01*
Y195000*
X435000*
Y205000*
X425000Y195000D02*
X435000D01*
Y185000*
X425000*
Y195000*
X435000Y175000D02*
X445000D01*
Y165000*
X435000*
Y175000*
X425000Y185000D02*
X435000D01*
Y175000*
X425000*
Y185000*
X435000D02*
X445000D01*
Y175000*
X435000*
Y185000*
X425000Y175000D02*
X435000D01*
Y165000*
X425000*
Y175000*
X435000Y155000D02*
X445000D01*
Y145000*
X435000*
Y155000*
X425000Y165000D02*
X435000D01*
Y155000*
X425000*
Y165000*
X435000D02*
X445000D01*
Y155000*
X435000*
Y165000*
X425000Y155000D02*
X435000D01*
Y145000*
X425000*
Y155000*
X435000Y135000D02*
X445000D01*
Y125000*
X435000*
Y135000*
X425000Y145000D02*
X435000D01*
Y135000*
X425000*
Y145000*
X435000D02*
X445000D01*
Y135000*
X435000*
Y145000*
X425000Y135000D02*
X435000D01*
Y125000*
X425000*
Y135000*
X435000Y115000D02*
X445000D01*
Y105000*
X435000*
Y115000*
X425000Y125000D02*
X435000D01*
Y115000*
X425000*
Y125000*
X435000D02*
X445000D01*
Y115000*
X435000*
Y125000*
X425000Y115000D02*
X435000D01*
Y105000*
X425000*
Y115000*
X415000D02*
X425000D01*
Y105000*
X415000*
Y115000*
Y165000D02*
X425000D01*
Y155000*
X415000*
Y165000*
X275000Y125000D02*
X285000D01*
Y115000*
X275000*
Y125000*
Y115000D02*
X285000D01*
Y105000*
X275000*
Y115000*
X285000D02*
X295000D01*
Y105000*
X285000*
Y115000*
Y125000D02*
X295000D01*
Y115000*
X285000*
Y125000*
X305000Y115000D02*
X315000D01*
Y105000*
X305000*
Y115000*
Y125000D02*
X315000D01*
Y115000*
X305000*
Y125000*
X295000D02*
X305000D01*
Y115000*
X295000*
Y125000*
Y115000D02*
X305000D01*
Y105000*
X295000*
Y115000*
X325000D02*
X335000D01*
Y105000*
X325000*
Y115000*
Y125000D02*
X335000D01*
Y115000*
X325000*
Y125000*
X315000D02*
X325000D01*
Y115000*
X315000*
Y125000*
Y115000D02*
X325000D01*
Y105000*
X315000*
Y115000*
X345000D02*
X355000D01*
Y105000*
X345000*
Y115000*
Y125000D02*
X355000D01*
Y115000*
X345000*
Y125000*
X335000D02*
X345000D01*
Y115000*
X335000*
Y125000*
Y115000D02*
X345000D01*
Y105000*
X335000*
Y115000*
X365000D02*
X375000D01*
Y105000*
X365000*
Y115000*
Y125000D02*
X375000D01*
Y115000*
X365000*
Y125000*
X355000D02*
X365000D01*
Y115000*
X355000*
Y125000*
Y115000D02*
X365000D01*
Y105000*
X355000*
Y115000*
X325000Y135000D02*
X335000D01*
Y125000*
X325000*
Y135000*
X275000D02*
X285000D01*
Y125000*
X275000*
Y135000*
Y295000D02*
X285000D01*
Y285000*
X275000*
Y295000*
Y285000D02*
X285000D01*
Y275000*
X275000*
Y285000*
G54D40*
G54D41*
X100000Y100000D02*
X450000D01*
Y330000*
X100000*
Y100000*
G54D51*
X398000Y296000D02*
X405000D01*
Y289000*
G54D88*
X295244Y263094D02*
X300756D01*
Y267031*
X295244Y274906D02*
X300756D01*
Y270969*
G54D89*
X368000Y249500D02*
Y236500D01*
X374000*
Y249500*
X368000*
X349500Y244000D02*
X362500D01*
Y250000*
X349500*
Y244000*
Y231000D02*
X362500D01*
Y237000*
X349500*
Y231000*
Y211000D02*
X362500D01*
Y217000*
X349500*
Y211000*
X250500Y205000D02*
X263500D01*
Y211000*
X250500*
Y205000*
X378000Y202500D02*
Y215500D01*
X372000*
Y202500*
X378000*
X349500Y202000D02*
X362500D01*
Y208000*
X349500*
Y202000*
X396500Y208000D02*
X383500D01*
Y202000*
X396500*
Y208000*
Y219000D02*
X383500D01*
Y213000*
X396500*
Y219000*
Y238000D02*
X383500D01*
Y232000*
X396500*
Y238000*
X170000Y113500D02*
Y126500D01*
X164000*
Y113500*
X170000*
X158000Y126500D02*
Y113500D01*
X164000*
Y126500*
X158000*
X306000Y271500D02*
Y258500D01*
X312000*
Y271500*
X306000*
X383500Y238000D02*
X396500D01*
Y244000*
X383500*
Y238000*
X283000Y271500D02*
Y258500D01*
X289000*
Y271500*
X283000*
X250500Y169000D02*
X263500D01*
Y175000*
X250500*
Y169000*
X221000Y123843D02*
Y104157D01*
X227000*
Y123843*
X221000*
X249500Y157000D02*
X236500D01*
Y151000*
X249500*
Y157000*
X290000Y208500D02*
Y195500D01*
X296000*
Y208500*
X290000*
X308500Y229000D02*
X295500D01*
Y223000*
X308500*
Y229000*
X250500Y187000D02*
X263500D01*
Y193000*
X250500*
Y187000*
X249500Y199000D02*
X236500D01*
Y193000*
X249500*
Y199000*
Y175000D02*
X236500D01*
Y169000*
X249500*
Y175000*
Y169000D02*
X236500D01*
Y163000*
X249500*
Y169000*
X302000Y208500D02*
Y195500D01*
X308000*
Y208500*
X302000*
X296000D02*
Y195500D01*
X302000*
Y208500*
X296000*
X308000D02*
Y195500D01*
X314000*
Y208500*
X308000*
X236500Y187000D02*
X249500D01*
Y193000*
X236500*
Y187000*
X249500Y205000D02*
X236500D01*
Y199000*
X249500*
Y205000*
X236500Y175000D02*
X249500D01*
Y181000*
X236500*
Y175000*
X250500Y257000D02*
X263500D01*
Y263000*
X250500*
Y257000*
X249500Y269000D02*
X236500D01*
Y263000*
X249500*
Y269000*
Y245000D02*
X236500D01*
Y239000*
X249500*
Y245000*
Y239000D02*
X236500D01*
Y233000*
X249500*
Y239000*
X210000Y168500D02*
Y181500D01*
X204000*
Y168500*
X210000*
X204000Y194500D02*
Y181500D01*
X210000*
Y194500*
X204000*
X236500Y257000D02*
X249500D01*
Y263000*
X236500*
Y257000*
Y215000D02*
X249500D01*
Y221000*
X236500*
Y215000*
X249500Y275000D02*
X236500D01*
Y269000*
X249500*
Y275000*
X236500Y245000D02*
X249500D01*
Y251000*
X236500*
Y245000*
X250500Y275000D02*
X263500D01*
Y281000*
X250500*
Y275000*
Y239000D02*
X263500D01*
Y245000*
X250500*
Y239000*
X236500Y275000D02*
X249500D01*
Y281000*
X236500*
Y275000*
X263500Y239000D02*
X250500D01*
Y233000*
X263500*
Y239000*
Y233000D02*
X250500D01*
Y227000*
X263500*
Y233000*
Y227000D02*
X250500D01*
Y221000*
X263500*
Y227000*
Y221000D02*
X250500D01*
Y215000*
X263500*
Y221000*
Y275000D02*
X250500D01*
Y269000*
X263500*
Y275000*
Y269000D02*
X250500D01*
Y263000*
X263500*
Y269000*
Y257000D02*
X250500D01*
Y251000*
X263500*
Y257000*
Y251000D02*
X250500D01*
Y245000*
X263500*
Y251000*
X236500Y205000D02*
X249500D01*
Y211000*
X236500*
Y205000*
X263500Y169000D02*
X250500D01*
Y163000*
X263500*
Y169000*
Y163000D02*
X250500D01*
Y157000*
X263500*
Y163000*
Y157000D02*
X250500D01*
Y151000*
X263500*
Y157000*
Y151000D02*
X250500D01*
Y145000*
X263500*
Y151000*
Y205000D02*
X250500D01*
Y199000*
X263500*
Y205000*
X276000Y190500D02*
Y177500D01*
X282000*
Y190500*
X276000*
X263500Y199000D02*
X250500D01*
Y193000*
X263500*
Y199000*
X276000Y203500D02*
Y190500D01*
X282000*
Y203500*
X276000*
X263500Y187000D02*
X250500D01*
Y181000*
X263500*
Y187000*
X269500Y204000D02*
X282500D01*
Y210000*
X269500*
Y204000*
X263500Y181000D02*
X250500D01*
Y175000*
X263500*
Y181000*
X227000Y123843D02*
Y104157D01*
X233000*
Y123843*
X227000*
X233000D02*
Y104157D01*
X239000*
Y123843*
X233000*
X239000D02*
Y104157D01*
X245000*
Y123843*
X239000*
X245000D02*
Y104157D01*
X251000*
Y123843*
X245000*
X186000D02*
Y104157D01*
X192000*
Y123843*
X186000*
X192000D02*
Y104157D01*
X198000*
Y123843*
X192000*
X198000D02*
Y104157D01*
X204000*
Y123843*
X198000*
X204000D02*
Y104157D01*
X210000*
Y123843*
X204000*
X210000D02*
Y104157D01*
X216000*
Y123843*
X210000*
X301000Y190500D02*
Y177500D01*
X307000*
Y190500*
X301000*
Y177500D02*
Y190500D01*
X295000*
Y177500*
X301000*
X396500Y250000D02*
X383500D01*
Y244000*
X396500*
Y250000*
X210000Y245500D02*
Y258500D01*
X204000*
Y245500*
X210000*
X204000Y271500D02*
Y258500D01*
X210000*
Y271500*
X204000*
X249500Y227000D02*
X236500D01*
Y221000*
X249500*
Y227000*
X289000Y190500D02*
Y177500D01*
X295000*
Y190500*
X289000*
X236500Y145000D02*
X249500D01*
Y151000*
X236500*
Y145000*
X118500Y302000D02*
X105500D01*
Y296000*
X118500*
Y302000*
X125000Y289500D02*
Y302500D01*
X119000*
Y289500*
X125000*
X216000Y245500D02*
Y258500D01*
X210000*
Y245500*
X216000*
X210000Y155500D02*
Y168500D01*
X204000*
Y155500*
X210000*
X118500Y296000D02*
X105500D01*
Y290000*
X118500*
Y296000*
X344500Y281000D02*
X331500D01*
Y275000*
X344500*
Y281000*
Y275000D02*
X331500D01*
Y269000*
X344500*
Y275000*
Y287000D02*
X331500D01*
Y281000*
X344500*
Y287000*
X373650Y167408D02*
Y163930D01*
Y167408D02*
X372423D01*
X372014Y167242*
X371877Y167077*
X371741Y166745*
Y166414*
X371877Y166083*
X372014Y165917*
X372423Y165752*
X373650*
X372695D02*
X371741Y163930D01*
X370514Y167408D02*
X368605Y163930D01*
Y167408D02*
X370514Y163930D01*
X372605Y159580D02*
X372741Y159911D01*
X373014Y160242*
X373286Y160408*
X373832*
X374105Y160242*
X374377Y159911*
X374514Y159580*
X374650Y159083*
Y158255*
X374514Y157758*
X374377Y157427*
X374105Y157095*
X373832Y156930*
X373286*
X373014Y157095*
X372741Y157427*
X372605Y157758*
Y158255*
X373286D02*
X372605D01*
X371377Y160408D02*
Y156930D01*
Y160408D02*
X369468Y156930D01*
Y160408D02*
Y156930D01*
X368241Y160408D02*
Y156930D01*
Y160408D02*
X367286D01*
X366877Y160242*
X366605Y159911*
X366468Y159580*
X366332Y159083*
Y158255*
X366468Y157758*
X366605Y157427*
X366877Y157095*
X367286Y156930*
X368241*
X372695Y175408D02*
Y171930D01*
X373650Y175408D02*
X371741D01*
X370514D02*
X368605Y171930D01*
Y175408D02*
X370514Y171930D01*
G54D90*
X384000Y295000D02*
Y265000D01*
X404000*
Y292000*
X401000Y295000*
X384000*
G54D91*
X353000Y279654D02*
X351000D01*
X353000Y286346D02*
X351000D01*
X348457Y277488D02*
Y278669D01*
X347276*
Y277488*
X348457*
Y277882D02*
X347276D01*
X348457Y278276D02*
X347276D01*
X351606Y282213D02*
Y283787D01*
X352394Y283000*
X351606Y282213*
X352394D02*
Y283787D01*
Y283000D02*
X353181D01*
X351606D02*
X350819D01*
X371045Y254500D02*
X371159Y254781D01*
X371386Y255062*
X371386D02*
X371614Y255203D01*
X372068*
X372295Y255062*
X372295D02*
X372523Y254781D01*
X372636Y254500*
X372750Y254078*
Y253375*
X372636Y252953*
X372523Y252672*
X372295Y252391*
X372068Y252250*
X371614*
X371386Y252391*
X371159Y252672*
X371045Y252953*
X370023Y254641D02*
X369795Y254781D01*
X369455Y255203*
Y252250*
X346045Y249500D02*
X346159Y249781D01*
X346386Y250062*
X346386D02*
X346614Y250203D01*
X347068*
X347295Y250062*
X347295D02*
X347523Y249781D01*
X347636Y249500*
X347750Y249078*
Y248375*
X347636Y247953*
X347523Y247672*
X347295Y247391*
X347068Y247250*
X346614*
X346386Y247391*
X346159Y247672*
X346045Y247953*
X344909Y249500D02*
Y249641D01*
X344795Y249922*
X344682Y250062*
X344682D02*
X344455Y250203D01*
X344000*
X343773Y250062*
X343773D02*
X343659Y249922D01*
X343545Y249641*
Y249359*
X343659Y249078*
X343886Y248656*
X345023Y247250*
X343432*
X346045Y231500D02*
X346159Y231781D01*
X346386Y232063*
X346386D02*
X346614Y232203D01*
X347068*
X347295Y232063*
X347295D02*
X347523Y231781D01*
X347636Y231500*
X347750Y231078*
Y230375*
X347636Y229953*
X347523Y229672*
X347295Y229391*
X347068Y229250*
X346614*
X346386Y229391*
X346159Y229672*
X346045Y229953*
X344795Y232203D02*
X343545D01*
X344227Y231078*
X343886*
X343659Y230938*
X343659D02*
X343545Y230797D01*
X343432Y230375*
Y230094*
X343545Y229672*
X343773Y229391*
X344114Y229250*
X344455*
X344795Y229391*
X344909Y229531*
X345023Y229813*
X357045Y221500D02*
X357159Y221781D01*
X357386Y222062*
X357614Y222203*
X358068*
X358295Y222062*
X358523Y221781*
X358636Y221500*
X358750Y221078*
Y220375*
X358636Y219953*
X358523Y219672*
X358295Y219391*
X358068Y219250*
X357614*
X357386Y219391*
X357159Y219672*
X357045Y219953*
X354886Y222203D02*
X356023Y220234D01*
X354318*
X354886Y222203D02*
Y219250D01*
X267500Y206955D02*
X267781Y206841D01*
X268062Y206614*
X268062D02*
X268203Y206386D01*
Y205932*
X268062Y205705*
X268062D02*
X267781Y205477D01*
X267500Y205364*
X267078Y205250*
X266375*
X265953Y205364*
X265672Y205477*
X265391Y205705*
X265250Y205932*
Y206386*
X265391Y206614*
X265672Y206841*
X265953Y206955*
X267500Y208091D02*
X267641D01*
X267922Y208205*
X268062Y208318*
X268062D02*
X268203Y208545D01*
Y209000*
X268062Y209227*
X268062D02*
X267922Y209341D01*
X267641Y209455*
X267359*
X267078Y209341*
X266656Y209114*
X265250Y207977*
Y209568*
X267781Y211955D02*
X268062Y211841D01*
X268062D02*
X268203Y211500D01*
Y211273*
X268062Y210932*
X268062D02*
X267641Y210705D01*
X266937Y210591*
X266937D02*
X266234D01*
X265672Y210705*
X265391Y210932*
X265250Y211273*
Y211386*
X265391Y211727*
X265672Y211955*
X266094Y212068*
X266234*
X266656Y211955*
X266937Y211727*
X266937D02*
X267078Y211386D01*
Y211273*
X266937Y210932*
X266937D02*
X266656Y210705D01*
X266234Y210591*
X371045Y200500D02*
X371159Y200781D01*
X371386Y201062*
X371386D02*
X371614Y201203D01*
X372068*
X372295Y201062*
X372295D02*
X372523Y200781D01*
X372636Y200500*
X372750Y200078*
Y199375*
X372636Y198953*
X372523Y198672*
X372295Y198391*
X372068Y198250*
X371614*
X371386Y198391*
X371159Y198672*
X371045Y198953*
X368659Y200781D02*
X368773Y201062D01*
X368773D02*
X369114Y201203D01*
X369341*
X369682Y201062*
X369682D02*
X369909Y200641D01*
X370023Y199937*
X370023D02*
Y199234D01*
X369909Y198672*
X369682Y198391*
X369341Y198250*
X369227*
X368886Y198391*
X368659Y198672*
X368545Y199094*
Y199234*
X368659Y199656*
X368886Y199937*
X368886D02*
X369227Y200078D01*
X369341*
X369682Y199937*
X369682D02*
X369909Y199656D01*
X370023Y199234*
X357045Y199500D02*
X357159Y199781D01*
X357386Y200062*
X357386D02*
X357614Y200203D01*
X358068*
X358295Y200062*
X358295D02*
X358523Y199781D01*
X358636Y199500*
X358750Y199078*
Y198375*
X358636Y197953*
X358523Y197672*
X358295Y197391*
X358068Y197250*
X357614*
X357386Y197391*
X357159Y197672*
X357045Y197953*
X354545Y200203D02*
X355682D01*
X355795Y198937*
X355795D02*
X355682Y199078D01*
X355341Y199219*
X355000*
X354659Y199078*
X354432Y198797*
X354318Y198375*
X354432Y198094*
X354545Y197672*
X354773Y197391*
X355114Y197250*
X355455*
X355795Y197391*
X355909Y197531*
X356023Y197812*
X390045Y199500D02*
X390159Y199781D01*
X390386Y200062*
X390386D02*
X390614Y200203D01*
X391068*
X391295Y200062*
X391295D02*
X391523Y199781D01*
X391636Y199500*
X391750Y199078*
Y198375*
X391636Y197953*
X391523Y197672*
X391295Y197391*
X391068Y197250*
X390614*
X390386Y197391*
X390159Y197672*
X390045Y197953*
X387432Y200203D02*
X388568Y197250D01*
X389023Y200203D02*
X387432D01*
X393045Y223500D02*
X393159Y223781D01*
X393386Y224062*
X393386D02*
X393614Y224203D01*
X394068*
X394295Y224062*
X394295D02*
X394523Y223781D01*
X394636Y223500*
X394750Y223078*
Y222375*
X394636Y221953*
X394523Y221672*
X394295Y221391*
X394068Y221250*
X393614*
X393386Y221391*
X393159Y221672*
X393045Y221953*
X391455Y224203D02*
X391795Y224062D01*
X391795D02*
X391909Y223781D01*
Y223500*
X391795Y223219*
X391568Y223078*
X391114Y222937*
X391114D02*
X390773Y222797D01*
X390545Y222516*
X390432Y222234*
Y221812*
X390432D02*
X390545Y221531D01*
X390659Y221391*
X391000Y221250*
X391455*
X391795Y221391*
X391909Y221531*
X392023Y221812*
X392023D02*
Y222234D01*
X391909Y222516*
X391682Y222797*
X391341Y222937*
X391341D02*
X390886Y223078D01*
X390659Y223219*
X390545Y223500*
Y223781*
X390659Y224062*
X390659D02*
X391000Y224203D01*
X391455*
X402045Y235500D02*
X402159Y235781D01*
X402386Y236062*
X402386D02*
X402614Y236203D01*
X403068*
X403295Y236062*
X403295D02*
X403523Y235781D01*
X403636Y235500*
X403750Y235078*
Y234375*
X403636Y233953*
X403523Y233672*
X403295Y233391*
X403068Y233250*
X402614*
X402386Y233391*
X402159Y233672*
X402045Y233953*
X401023Y235641D02*
X400795Y235781D01*
X400455Y236203*
Y233250*
X398750Y236203D02*
X399091Y236062D01*
X399091D02*
X399318Y235641D01*
X399432Y234937*
X399432D02*
Y234516D01*
X399318Y233812*
X399318D02*
X399091Y233391D01*
X398750Y233250*
X398523*
X398182Y233391*
X397955Y233812*
X397955D02*
X397841Y234516D01*
Y234937*
X397841D02*
X397955Y235641D01*
X398182Y236062*
X398182D02*
X398523Y236203D01*
X398750*
X168195Y128250D02*
X165242D01*
X168195D02*
Y129273D01*
X168055Y129614*
X167914Y129727*
X167633Y129841*
X167352*
X167070Y129727*
X166930Y129614*
X166789Y129273*
Y128250*
Y129045D02*
X165242Y129841D01*
X167633Y130864D02*
X167773Y131091D01*
X168195Y131432*
X165242*
X161492Y129955D02*
X161773Y129841D01*
X162055Y129614*
X162195Y129386*
Y128932*
X162055Y128705*
X161773Y128477*
X161492Y128364*
X161070Y128250*
X160367*
X159945Y128364*
X159664Y128477*
X159383Y128705*
X159242Y128932*
Y129386*
X159383Y129614*
X159664Y129841*
X159945Y129955*
X161633Y130977D02*
X161773Y131205D01*
X162195Y131545*
X159242*
X161492Y132682D02*
X161633D01*
X161914Y132795*
X162055Y132909*
X162195Y133136*
Y133591*
X162055Y133818*
X161914Y133932*
X161633Y134045*
X161352*
X161070Y133932*
X160648Y133705*
X159242Y132568*
Y134159*
X316492Y263955D02*
X316773Y263841D01*
X317055Y263614*
X317195Y263386*
Y262932*
X317055Y262705*
X316773Y262477*
X316492Y262364*
X316070Y262250*
X315367*
X314945Y262364*
X314664Y262477*
X314383Y262705*
X314242Y262932*
Y263386*
X314383Y263614*
X314664Y263841*
X314945Y263955*
X316633Y264977D02*
X316773Y265205D01*
X317195Y265545*
X314242*
X317195Y267705D02*
X315227Y266568D01*
Y268273*
X317195Y267705D02*
X314242D01*
X403750Y242203D02*
Y239250D01*
X402386*
X401136Y242203D02*
X399886D01*
X400568Y241078*
X400227*
X400000Y240937*
X400000D02*
X399886Y240797D01*
X399773Y240375*
Y240094*
X399886Y239672*
X400114Y239391*
X400455Y239250*
X400795*
X401136Y239391*
X401250Y239531*
X401364Y239812*
X280492Y263955D02*
X280773Y263841D01*
X281055Y263614*
X281195Y263386*
Y262932*
X281055Y262705*
X280773Y262477*
X280492Y262364*
X280070Y262250*
X279367*
X278945Y262364*
X278664Y262477*
X278383Y262705*
X278242Y262932*
Y263386*
X278383Y263614*
X278664Y263841*
X278945Y263955*
X280633Y264977D02*
X280773Y265205D01*
X281195Y265545*
X278242*
X281195Y266795D02*
Y268045D01*
X280070Y267364*
Y267705*
X279930Y267932*
X279789Y268045*
X279367Y268159*
X279086*
X278664Y268045*
X278383Y267818*
X278242Y267477*
Y267136*
X278383Y266795*
X278523Y266682*
X278805Y266568*
X270045Y172500D02*
X270159Y172781D01*
X270386Y173062*
X270386D02*
X270614Y173203D01*
X271068*
X271295Y173062*
X271295D02*
X271523Y172781D01*
X271636Y172500*
X271750Y172078*
Y171375*
X271636Y170953*
X271523Y170672*
X271295Y170391*
X271068Y170250*
X270614*
X270386Y170391*
X270159Y170672*
X270045Y170953*
X268909Y172500D02*
Y172641D01*
X268795Y172922*
X268682Y173062*
X268682D02*
X268455Y173203D01*
X268000*
X267773Y173062*
X267773D02*
X267659Y172922D01*
X267545Y172641*
Y172359*
X267659Y172078*
X267886Y171656*
X269023Y170250*
X267432*
X264818Y173203D02*
X265955Y170250D01*
X266409Y173203D02*
X264818D01*
X393614Y300203D02*
Y297953D01*
X393727Y297531*
X393841Y297391*
X394068Y297250*
X394295*
X394523Y297391*
X394636Y297531*
X394750Y297953*
Y298234*
X391455Y300203D02*
X392591Y298234D01*
X390886*
X391455Y300203D02*
Y297250D01*
X371068Y228203D02*
X371295Y228063D01*
X371295D02*
X371523Y227781D01*
X371636Y227500*
X371750Y227078*
Y226375*
X371636Y225953*
X371523Y225672*
X371295Y225391*
X371068Y225250*
X370614*
X370386Y225391*
X370159Y225672*
X370045Y225953*
X369932Y226375*
Y227078*
X370045Y227500*
X370159Y227781*
X370386Y228063*
X370386D02*
X370614Y228203D01*
X371068*
X370727Y225813D02*
X370045Y224969D01*
X368909Y227641D02*
X368682Y227781D01*
X368341Y228203*
Y225250*
X295068Y157203D02*
X295295Y157062D01*
X295295D02*
X295523Y156781D01*
X295636Y156500*
X295750Y156078*
Y155375*
X295636Y154953*
X295523Y154672*
X295295Y154391*
X295068Y154250*
X294614*
X294386Y154391*
X294159Y154672*
X294045Y154953*
X293932Y155375*
Y156078*
X294045Y156500*
X294159Y156781*
X294386Y157062*
X294386D02*
X294614Y157203D01*
X295068*
X294727Y154812D02*
X294045Y153969D01*
X292795Y156500D02*
Y156641D01*
X292682Y156922*
X292568Y157062*
X292568D02*
X292341Y157203D01*
X291886*
X291659Y157062*
X291659D02*
X291545Y156922D01*
X291432Y156641*
Y156359*
X291545Y156078*
X291773Y155656*
X292909Y154250*
X291318*
X232045Y154500D02*
X232159Y154781D01*
X232386Y155062*
X232386D02*
X232614Y155203D01*
X233068*
X233295Y155062*
X233295D02*
X233523Y154781D01*
X233636Y154500*
X233750Y154078*
Y153375*
X233636Y152953*
X233523Y152672*
X233295Y152391*
X233068Y152250*
X232614*
X232386Y152391*
X232159Y152672*
X232045Y152953*
X230795Y155203D02*
X229545D01*
X230227Y154078*
X229886*
X229659Y153937*
X229659D02*
X229545Y153797D01*
X229432Y153375*
Y153094*
X229545Y152672*
X229773Y152391*
X230114Y152250*
X230455*
X230795Y152391*
X230909Y152531*
X231023Y152812*
X228295Y154500D02*
Y154641D01*
X228182Y154922*
X228068Y155062*
X228068D02*
X227841Y155203D01*
X227386*
X227159Y155062*
X227159D02*
X227045Y154922D01*
X226932Y154641*
Y154359*
X227045Y154078*
X227273Y153656*
X228409Y152250*
X226818*
X292492Y211955D02*
X292773Y211841D01*
X293055Y211614*
X293195Y211386*
Y210932*
X293055Y210705*
X292773Y210477*
X292492Y210364*
X292070Y210250*
X291367*
X290945Y210364*
X290664Y210477*
X290383Y210705*
X290242Y210932*
Y211386*
X290383Y211614*
X290664Y211841*
X290945Y211955*
X293195Y213205D02*
Y214455D01*
X292070Y213773*
Y214114*
X291930Y214341*
X291789Y214455*
X291367Y214568*
X291086*
X290664Y214455*
X290383Y214227*
X290242Y213886*
Y213545*
X290383Y213205*
X290523Y213091*
X290805Y212977*
X293195Y217182D02*
X290242Y216045D01*
X293195Y215591D02*
Y217182D01*
X303045Y233500D02*
X303159Y233781D01*
X303386Y234062*
X303386D02*
X303614Y234203D01*
X304068*
X304295Y234062*
X304295D02*
X304523Y233781D01*
X304636Y233500*
X304750Y233078*
Y232375*
X304636Y231953*
X304523Y231672*
X304295Y231391*
X304068Y231250*
X303614*
X303386Y231391*
X303159Y231672*
X303045Y231953*
X301795Y234203D02*
X300545D01*
X301227Y233078*
X300886*
X300659Y232937*
X300659D02*
X300545Y232797D01*
X300432Y232375*
Y232094*
X300545Y231672*
X300773Y231391*
X301114Y231250*
X301455*
X301795Y231391*
X301909Y231531*
X302023Y231812*
X297932Y234203D02*
X299068D01*
X299182Y232937*
X299182D02*
X299068Y233078D01*
X298727Y233219*
X298386*
X298045Y233078*
X297818Y232797*
X297705Y232375*
X297818Y232094*
X297932Y231672*
X298159Y231391*
X298500Y231250*
X298841*
X299182Y231391*
X299295Y231531*
X299409Y231812*
X270045Y190500D02*
X270159Y190781D01*
X270386Y191062*
X270386D02*
X270614Y191203D01*
X271068*
X271295Y191062*
X271295D02*
X271523Y190781D01*
X271636Y190500*
X271750Y190078*
Y189375*
X271636Y188953*
X271523Y188672*
X271295Y188391*
X271068Y188250*
X270614*
X270386Y188391*
X270159Y188672*
X270045Y188953*
X268909Y190500D02*
Y190641D01*
X268795Y190922*
X268682Y191062*
X268682D02*
X268455Y191203D01*
X268000*
X267773Y191062*
X267773D02*
X267659Y190922D01*
X267545Y190641*
Y190359*
X267659Y190078*
X267886Y189656*
X269023Y188250*
X267432*
X265841Y191203D02*
X266182Y191062D01*
X266182D02*
X266295Y190781D01*
Y190500*
X266182Y190219*
X265955Y190078*
X265500Y189937*
X265500D02*
X265159Y189797D01*
X264932Y189516*
X264818Y189234*
Y188812*
X264818D02*
X264932Y188531D01*
X265045Y188391*
X265386Y188250*
X265841*
X266182Y188391*
X266295Y188531*
X266409Y188812*
X266409D02*
Y189234D01*
X266295Y189516*
X266068Y189797*
X265727Y189937*
X265727D02*
X265273Y190078D01*
X265045Y190219*
X264932Y190500*
Y190781*
X265045Y191062*
X265045D02*
X265386Y191203D01*
X265841*
X233045Y196500D02*
X233159Y196781D01*
X233386Y197062*
X233386D02*
X233614Y197203D01*
X234068*
X234295Y197062*
X234295D02*
X234523Y196781D01*
X234636Y196500*
X234750Y196078*
Y195375*
X234636Y194953*
X234523Y194672*
X234295Y194391*
X234068Y194250*
X233614*
X233386Y194391*
X233159Y194672*
X233045Y194953*
X231909Y196500D02*
Y196641D01*
X231795Y196922*
X231682Y197062*
X231682D02*
X231455Y197203D01*
X231000*
X230773Y197062*
X230773D02*
X230659Y196922D01*
X230545Y196641*
Y196359*
X230659Y196078*
X230886Y195656*
X232023Y194250*
X230432*
X227932Y196219D02*
X228045Y195797D01*
X228273Y195516*
X228614Y195375*
X228727*
X229068Y195516*
X229295Y195797*
X229409Y196219*
Y196359*
X229295Y196781*
X229068Y197062*
X229068D02*
X228727Y197203D01*
X228614*
X228273Y197062*
X228273D02*
X228045Y196781D01*
X227932Y196219*
Y195516*
X228045Y194812*
X228045D02*
X228273Y194391D01*
X228614Y194250*
X228841*
X229182Y194391*
X229295Y194672*
X233045Y172500D02*
X233159Y172781D01*
X233386Y173062*
X233386D02*
X233614Y173203D01*
X234068*
X234295Y173062*
X234295D02*
X234523Y172781D01*
X234636Y172500*
X234750Y172078*
Y171375*
X234636Y170953*
X234523Y170672*
X234295Y170391*
X234068Y170250*
X233614*
X233386Y170391*
X233159Y170672*
X233045Y170953*
X231795Y173203D02*
X230545D01*
X231227Y172078*
X230886*
X230659Y171937*
X230659D02*
X230545Y171797D01*
X230432Y171375*
Y171094*
X230545Y170672*
X230773Y170391*
X231114Y170250*
X231455*
X231795Y170391*
X231909Y170531*
X232023Y170812*
X228727Y173203D02*
X229068Y173062D01*
X229068D02*
X229295Y172641D01*
X229409Y171937*
X229409D02*
Y171516D01*
X229295Y170812*
X229295D02*
X229068Y170391D01*
X228727Y170250*
X228500*
X228159Y170391*
X227932Y170812*
X227932D02*
X227818Y171516D01*
Y171937*
X227818D02*
X227932Y172641D01*
X228159Y173062*
X228159D02*
X228500Y173203D01*
X228727*
X232045Y166500D02*
X232159Y166781D01*
X232386Y167062*
X232386D02*
X232614Y167203D01*
X233068*
X233295Y167062*
X233295D02*
X233523Y166781D01*
X233636Y166500*
X233750Y166078*
Y165375*
X233636Y164953*
X233523Y164672*
X233295Y164391*
X233068Y164250*
X232614*
X232386Y164391*
X232159Y164672*
X232045Y164953*
X230795Y167203D02*
X229545D01*
X230227Y166078*
X229886*
X229659Y165937*
X229659D02*
X229545Y165797D01*
X229432Y165375*
Y165094*
X229545Y164672*
X229773Y164391*
X230114Y164250*
X230455*
X230795Y164391*
X230909Y164531*
X231023Y164812*
X228409Y166641D02*
X228182Y166781D01*
X227841Y167203*
Y164250*
X306492Y211955D02*
X306773Y211841D01*
X307055Y211614*
X307195Y211386*
Y210932*
X307055Y210705*
X306773Y210477*
X306492Y210364*
X306070Y210250*
X305367*
X304945Y210364*
X304664Y210477*
X304383Y210705*
X304242Y210932*
Y211386*
X304383Y211614*
X304664Y211841*
X304945Y211955*
X307195Y213205D02*
Y214455D01*
X306070Y213773*
Y214114*
X305930Y214341*
X305789Y214455*
X305367Y214568*
X305086*
X304664Y214455*
X304383Y214227*
X304242Y213886*
Y213545*
X304383Y213205*
X304523Y213091*
X304805Y212977*
X306773Y216955D02*
X307055Y216841D01*
X307195Y216500*
Y216273*
X307055Y215932*
X306633Y215705*
X305930Y215591*
X305227*
X304664Y215705*
X304383Y215932*
X304242Y216273*
Y216386*
X304383Y216727*
X304664Y216955*
X305086Y217068*
X305227*
X305648Y216955*
X305930Y216727*
X306070Y216386*
Y216273*
X305930Y215932*
X305648Y215705*
X305227Y215591*
X297492Y211955D02*
X297773Y211841D01*
X298055Y211614*
X298195Y211386*
Y210932*
X298055Y210705*
X297773Y210477*
X297492Y210364*
X297070Y210250*
X296367*
X295945Y210364*
X295664Y210477*
X295383Y210705*
X295242Y210932*
Y211386*
X295383Y211614*
X295664Y211841*
X295945Y211955*
X298195Y213205D02*
Y214455D01*
X297070Y213773*
Y214114*
X296930Y214341*
X296789Y214455*
X296367Y214568*
X296086*
X295664Y214455*
X295383Y214227*
X295242Y213886*
Y213545*
X295383Y213205*
X295523Y213091*
X295805Y212977*
X298195Y216159D02*
X298055Y215818D01*
X297773Y215705*
X297492*
X297211Y215818*
X297070Y216045*
X296930Y216500*
X296789Y216841*
X296508Y217068*
X296227Y217182*
X295805*
X295523Y217068*
X295383Y216955*
X295242Y216614*
Y216159*
X295383Y215818*
X295523Y215705*
X295805Y215591*
X296227*
X296508Y215705*
X296789Y215932*
X296930Y216273*
X297070Y216727*
X297211Y216955*
X297492Y217068*
X297773*
X298055Y216955*
X298195Y216614*
Y216159*
X314500Y211955D02*
X314781Y211841D01*
X315062Y211614*
X315062D02*
X315203Y211386D01*
Y210932*
X315062Y210705*
X315062D02*
X314781Y210477D01*
X314500Y210364*
X314078Y210250*
X313375*
X312953Y210364*
X312672Y210477*
X312391Y210705*
X312250Y210932*
Y211386*
X312391Y211614*
X312672Y211841*
X312953Y211955*
X315203Y213205D02*
Y214455D01*
X314078Y213773*
Y214114*
X313937Y214341*
X313937D02*
X313797Y214455D01*
X313375Y214568*
X313094*
X312672Y214455*
X312391Y214227*
X312250Y213886*
Y213545*
X312391Y213205*
X312531Y213091*
X312812Y212977*
X314219Y217068D02*
X313797Y216955D01*
X313516Y216727*
X313375Y216386*
Y216273*
X313516Y215932*
X313797Y215705*
X314219Y215591*
X314359*
X314781Y215705*
X315062Y215932*
X315062D02*
X315203Y216273D01*
Y216386*
X315062Y216727*
X315062D02*
X314781Y216955D01*
X314219Y217068*
X313516*
X312812Y216955*
X312812D02*
X312391Y216727D01*
X312250Y216386*
Y216159*
X312391Y215818*
X312672Y215705*
X234750Y191203D02*
Y188250D01*
X233386*
X231227Y191203D02*
X232364Y189234D01*
X230659*
X231227Y191203D02*
Y188250D01*
X234750Y203203D02*
Y200250D01*
Y203203D02*
X233727D01*
X233386Y203062*
X233386D02*
X233273Y202922D01*
X233159Y202641*
Y202359*
X233273Y202078*
X233386Y201937*
X233386D02*
X233727Y201797D01*
X234750*
X233955D02*
X233159Y200250D01*
X231568Y203203D02*
X231909Y203062D01*
X231909D02*
X232023Y202781D01*
Y202500*
X231909Y202219*
X231682Y202078*
X231227Y201937*
X231227D02*
X230886Y201797D01*
X230659Y201516*
X230545Y201234*
Y200812*
X230545D02*
X230659Y200531D01*
X230773Y200391*
X231114Y200250*
X231568*
X231909Y200391*
X232023Y200531*
X232136Y200812*
X232136D02*
Y201234D01*
X232023Y201516*
X231795Y201797*
X231455Y201937*
X231455D02*
X231000Y202078D01*
X230773Y202219*
X230659Y202500*
Y202781*
X230773Y203062*
X230773D02*
X231114Y203203D01*
X231568*
X233750Y179203D02*
Y176250D01*
Y179203D02*
X232727D01*
X232386Y179063*
X232386D02*
X232273Y178922D01*
X232159Y178641*
Y178359*
X232273Y178078*
X232386Y177938*
X232386D02*
X232727Y177797D01*
X233750*
X232955D02*
X232159Y176250D01*
X229659Y178219D02*
X229773Y177797D01*
X230000Y177516*
X230341Y177375*
X230455*
X230795Y177516*
X231023Y177797*
X231136Y178219*
Y178359*
X231023Y178781*
X230795Y179063*
X230795D02*
X230455Y179203D01*
X230341*
X230000Y179063*
X230000D02*
X229773Y178781D01*
X229659Y178219*
Y177516*
X229773Y176813*
X229773D02*
X230000Y176391D01*
X230341Y176250*
X230568*
X230909Y176391*
X231023Y176672*
X270045Y260500D02*
X270159Y260781D01*
X270386Y261062*
X270386D02*
X270614Y261203D01*
X271068*
X271295Y261062*
X271295D02*
X271523Y260781D01*
X271636Y260500*
X271750Y260078*
Y259375*
X271636Y258953*
X271523Y258672*
X271295Y258391*
X271068Y258250*
X270614*
X270386Y258391*
X270159Y258672*
X270045Y258953*
X267886Y261203D02*
X269023Y259234D01*
X267318*
X267886Y261203D02*
Y258250D01*
X266182Y260500D02*
Y260641D01*
X266068Y260922*
X265955Y261062*
X265955D02*
X265727Y261203D01*
X265273*
X265045Y261062*
X265045D02*
X264932Y260922D01*
X264818Y260641*
Y260359*
X264932Y260078*
X265159Y259656*
X266295Y258250*
X264705*
X232045Y266500D02*
X232159Y266781D01*
X232386Y267062*
X232386D02*
X232614Y267203D01*
X233068*
X233295Y267062*
X233295D02*
X233523Y266781D01*
X233636Y266500*
X233750Y266078*
Y265375*
X233636Y264953*
X233523Y264672*
X233295Y264391*
X233068Y264250*
X232614*
X232386Y264391*
X232159Y264672*
X232045Y264953*
X229886Y267203D02*
X231023Y265234D01*
X229318*
X229886Y267203D02*
Y264250D01*
X228068Y267203D02*
X226818D01*
X227500Y266078*
X227159*
X226932Y265937*
X226932D02*
X226818Y265797D01*
X226705Y265375*
Y265094*
X226818Y264672*
X227045Y264391*
X227386Y264250*
X227727*
X228068Y264391*
X228182Y264531*
X228295Y264812*
X232045Y242500D02*
X232159Y242781D01*
X232386Y243062*
X232386D02*
X232614Y243203D01*
X233068*
X233295Y243062*
X233295D02*
X233523Y242781D01*
X233636Y242500*
X233750Y242078*
Y241375*
X233636Y240953*
X233523Y240672*
X233295Y240391*
X233068Y240250*
X232614*
X232386Y240391*
X232159Y240672*
X232045Y240953*
X229886Y243203D02*
X231023Y241234D01*
X229318*
X229886Y243203D02*
Y240250D01*
X227159Y243203D02*
X228295Y241234D01*
X226591*
X227159Y243203D02*
Y240250D01*
X232045Y236500D02*
X232159Y236781D01*
X232386Y237062*
X232386D02*
X232614Y237203D01*
X233068*
X233295Y237062*
X233295D02*
X233523Y236781D01*
X233636Y236500*
X233750Y236078*
Y235375*
X233636Y234953*
X233523Y234672*
X233295Y234391*
X233068Y234250*
X232614*
X232386Y234391*
X232159Y234672*
X232045Y234953*
X229886Y237203D02*
X231023Y235234D01*
X229318*
X229886Y237203D02*
Y234250D01*
X226818Y237203D02*
X227955D01*
X228068Y235937*
X228068D02*
X227955Y236078D01*
X227614Y236219*
X227273*
X226932Y236078*
X226705Y235797*
X226591Y235375*
X226705Y235094*
X226818Y234672*
X227045Y234391*
X227386Y234250*
X227727*
X228068Y234391*
X228182Y234531*
X228295Y234812*
X214500Y172955D02*
X214781Y172841D01*
X215062Y172614*
X215062D02*
X215203Y172386D01*
Y171932*
X215062Y171705*
X215062D02*
X214781Y171477D01*
X214500Y171364*
X214078Y171250*
X213375*
X212953Y171364*
X212672Y171477*
X212391Y171705*
X212250Y171932*
Y172386*
X212391Y172614*
X212672Y172841*
X212953Y172955*
X215203Y175455D02*
Y174318D01*
X213937Y174205*
X213937D02*
X214078Y174318D01*
X214219Y174659*
Y175000*
X214078Y175341*
X213797Y175568*
X213375Y175682*
X213094Y175568*
X212672Y175455*
X212391Y175227*
X212250Y174886*
Y174545*
X212391Y174205*
X212531Y174091*
X212812Y173977*
X215203Y177386D02*
X215062Y177045D01*
X215062D02*
X214641Y176818D01*
X213937Y176705*
X213937D02*
X213516D01*
X212812Y176818*
X212812D02*
X212391Y177045D01*
X212250Y177386*
Y177614*
X212391Y177955*
X212812Y178182*
X212812D02*
X213516Y178295D01*
X213937*
X213937D02*
X214641Y178182D01*
X215062Y177955*
X215062D02*
X215203Y177614D01*
Y177386*
X214500Y185955D02*
X214781Y185841D01*
X215062Y185614*
X215203Y185386*
Y184932*
X215062Y184705*
X214781Y184477*
X214500Y184364*
X214078Y184250*
X213375*
X212953Y184364*
X212672Y184477*
X212391Y184705*
X212250Y184932*
Y185386*
X212391Y185614*
X212672Y185841*
X212953Y185955*
X215203Y188114D02*
X213234Y186977D01*
Y188682*
X215203Y188114D02*
X212250D01*
X214219Y191182D02*
X213797Y191068D01*
X213516Y190841*
X213375Y190500*
Y190386*
X213516Y190045*
X213797Y189818*
X214219Y189705*
X214359*
X214781Y189818*
X215062Y190045*
X215203Y190386*
Y190500*
X215062Y190841*
X214781Y191068*
X214219Y191182*
X213516*
X212812Y191068*
X212391Y190841*
X212250Y190500*
Y190273*
X212391Y189932*
X212672Y189818*
X233750Y261203D02*
Y258250D01*
X232386*
X230000Y260781D02*
X230114Y261063D01*
X230114D02*
X230455Y261203D01*
X230682*
X231023Y261063*
X231023D02*
X231250Y260641D01*
X231364Y259938*
X231364D02*
Y259234D01*
X231250Y258672*
X231023Y258391*
X230682Y258250*
X230568*
X230227Y258391*
X230000Y258672*
X229886Y259094*
Y259234*
X230000Y259656*
X230227Y259938*
X230227D02*
X230568Y260078D01*
X230682*
X231023Y259938*
X231023D02*
X231250Y259656D01*
X231364Y259234*
X233750Y220203D02*
Y217250D01*
X232386*
X229773Y220203D02*
X230909Y217250D01*
X231364Y220203D02*
X229773D01*
X233750Y273203D02*
Y270250D01*
Y273203D02*
X232727D01*
X232386Y273062*
X232386D02*
X232273Y272922D01*
X232159Y272641*
Y272359*
X232273Y272078*
X232386Y271937*
X232386D02*
X232727Y271797D01*
X233750*
X232955D02*
X232159Y270250D01*
X231136Y272641D02*
X230909Y272781D01*
X230568Y273203*
Y270250*
X228864Y273203D02*
X229205Y273062D01*
X229205D02*
X229432Y272641D01*
X229545Y271937*
X229545D02*
Y271516D01*
X229432Y270812*
X229432D02*
X229205Y270391D01*
X228864Y270250*
X228636*
X228295Y270391*
X228068Y270812*
X228068D02*
X227955Y271516D01*
Y271937*
X227955D02*
X228068Y272641D01*
X228295Y273062*
X228295D02*
X228636Y273203D01*
X228864*
X233750Y249203D02*
Y246250D01*
Y249203D02*
X232727D01*
X232386Y249063*
X232386D02*
X232273Y248922D01*
X232159Y248641*
Y248359*
X232273Y248078*
X232386Y247938*
X232386D02*
X232727Y247797D01*
X233750*
X232955D02*
X232159Y246250D01*
X231136Y248641D02*
X230909Y248781D01*
X230568Y249203*
Y246250*
X229545Y248641D02*
X229318Y248781D01*
X228977Y249203*
Y246250*
X270045Y278500D02*
X270159Y278781D01*
X270386Y279062*
X270386D02*
X270614Y279203D01*
X271068*
X271295Y279062*
X271295D02*
X271523Y278781D01*
X271636Y278500*
X271750Y278078*
Y277375*
X271636Y276953*
X271523Y276672*
X271295Y276391*
X271068Y276250*
X270614*
X270386Y276391*
X270159Y276672*
X270045Y276953*
X267886Y279203D02*
X269023Y277234D01*
X267318*
X267886Y279203D02*
Y276250D01*
X265614Y279203D02*
X265955Y279062D01*
X265955D02*
X266182Y278641D01*
X266295Y277937*
X266295D02*
Y277516D01*
X266182Y276812*
X266182D02*
X265955Y276391D01*
X265614Y276250*
X265386*
X265045Y276391*
X264818Y276812*
X264818D02*
X264705Y277516D01*
Y277937*
X264705D02*
X264818Y278641D01*
X265045Y279062*
X265045D02*
X265386Y279203D01*
X265614*
X270045Y242500D02*
X270159Y242781D01*
X270386Y243062*
X270386D02*
X270614Y243203D01*
X271068*
X271295Y243062*
X271295D02*
X271523Y242781D01*
X271636Y242500*
X271750Y242078*
Y241375*
X271636Y240953*
X271523Y240672*
X271295Y240391*
X271068Y240250*
X270614*
X270386Y240391*
X270159Y240672*
X270045Y240953*
X267886Y243203D02*
X269023Y241234D01*
X267318*
X267886Y243203D02*
Y240250D01*
X266295Y242641D02*
X266068Y242781D01*
X265727Y243203*
Y240250*
X233750Y279203D02*
Y276250D01*
Y279203D02*
X232727D01*
X232386Y279063*
X232386D02*
X232273Y278922D01*
X232159Y278641*
Y278359*
X232273Y278078*
X232386Y277938*
X232386D02*
X232727Y277797D01*
X233750*
X232955D02*
X232159Y276250D01*
X231023Y278500D02*
Y278641D01*
X230909Y278922*
X230795Y279063*
X230795D02*
X230568Y279203D01*
X230114*
X229886Y279063*
X229886D02*
X229773Y278922D01*
X229659Y278641*
Y278359*
X229773Y278078*
X230000Y277656*
X231136Y276250*
X229545*
X228409Y278500D02*
Y278641D01*
X228295Y278922*
X228182Y279063*
X228182D02*
X227955Y279203D01*
X227500*
X227273Y279063*
X227273D02*
X227159Y278922D01*
X227045Y278641*
Y278359*
X227159Y278078*
X227386Y277656*
X228523Y276250*
X226932*
X271750Y237203D02*
Y234250D01*
Y237203D02*
X270727D01*
X270386Y237062*
X270386D02*
X270273Y236922D01*
X270159Y236641*
Y236359*
X270273Y236078*
X270386Y235937*
X270386D02*
X270727Y235797D01*
X271750*
X270955D02*
X270159Y234250D01*
X269023Y236500D02*
Y236641D01*
X268909Y236922*
X268795Y237062*
X268795D02*
X268568Y237203D01*
X268114*
X267886Y237062*
X267886D02*
X267773Y236922D01*
X267659Y236641*
Y236359*
X267773Y236078*
X268000Y235656*
X269136Y234250*
X267545*
X266295Y237203D02*
X265045D01*
X265727Y236078*
X265386*
X265159Y235937*
X265159D02*
X265045Y235797D01*
X264932Y235375*
Y235094*
X265045Y234672*
X265273Y234391*
X265614Y234250*
X265955*
X266295Y234391*
X266409Y234531*
X266523Y234812*
X271750Y231203D02*
Y228250D01*
Y231203D02*
X270727D01*
X270386Y231062*
X270386D02*
X270273Y230922D01*
X270159Y230641*
Y230359*
X270273Y230078*
X270386Y229937*
X270386D02*
X270727Y229797D01*
X271750*
X270955D02*
X270159Y228250D01*
X269023Y230500D02*
Y230641D01*
X268909Y230922*
X268795Y231062*
X268795D02*
X268568Y231203D01*
X268114*
X267886Y231062*
X267886D02*
X267773Y230922D01*
X267659Y230641*
Y230359*
X267773Y230078*
X268000Y229656*
X269136Y228250*
X267545*
X265386Y231203D02*
X266523Y229234D01*
X264818*
X265386Y231203D02*
Y228250D01*
X271750Y225203D02*
Y222250D01*
Y225203D02*
X270727D01*
X270386Y225062*
X270386D02*
X270273Y224922D01*
X270159Y224641*
Y224359*
X270273Y224078*
X270386Y223937*
X270386D02*
X270727Y223797D01*
X271750*
X270955D02*
X270159Y222250D01*
X269023Y224500D02*
Y224641D01*
X268909Y224922*
X268795Y225062*
X268795D02*
X268568Y225203D01*
X268114*
X267886Y225062*
X267886D02*
X267773Y224922D01*
X267659Y224641*
Y224359*
X267773Y224078*
X268000Y223656*
X269136Y222250*
X267545*
X265045Y225203D02*
X266182D01*
X266295Y223937*
X266295D02*
X266182Y224078D01*
X265841Y224219*
X265500*
X265159Y224078*
X264932Y223797*
X264818Y223375*
X264932Y223094*
X265045Y222672*
X265273Y222391*
X265614Y222250*
X265955*
X266295Y222391*
X266409Y222531*
X266523Y222812*
X271750Y218203D02*
Y215250D01*
Y218203D02*
X270727D01*
X270386Y218062*
X270386D02*
X270273Y217922D01*
X270159Y217641*
Y217359*
X270273Y217078*
X270386Y216937*
X270386D02*
X270727Y216797D01*
X271750*
X270955D02*
X270159Y215250D01*
X269023Y217500D02*
Y217641D01*
X268909Y217922*
X268795Y218062*
X268795D02*
X268568Y218203D01*
X268114*
X267886Y218062*
X267886D02*
X267773Y217922D01*
X267659Y217641*
Y217359*
X267773Y217078*
X268000Y216656*
X269136Y215250*
X267545*
X265159Y217781D02*
X265273Y218062D01*
X265273D02*
X265614Y218203D01*
X265841*
X266182Y218062*
X266182D02*
X266409Y217641D01*
X266523Y216937*
X266523D02*
Y216234D01*
X266409Y215672*
X266182Y215391*
X265841Y215250*
X265727*
X265386Y215391*
X265159Y215672*
X265045Y216094*
Y216234*
X265159Y216656*
X265386Y216937*
X265386D02*
X265727Y217078D01*
X265841*
X266182Y216937*
X266182D02*
X266409Y216656D01*
X266523Y216234*
X271750Y273203D02*
Y270250D01*
Y273203D02*
X270727D01*
X270386Y273062*
X270386D02*
X270273Y272922D01*
X270159Y272641*
Y272359*
X270273Y272078*
X270386Y271937*
X270386D02*
X270727Y271797D01*
X271750*
X270955D02*
X270159Y270250D01*
X269023Y272500D02*
Y272641D01*
X268909Y272922*
X268795Y273062*
X268795D02*
X268568Y273203D01*
X268114*
X267886Y273062*
X267886D02*
X267773Y272922D01*
X267659Y272641*
Y272359*
X267773Y272078*
X268000Y271656*
X269136Y270250*
X267545*
X264932Y273203D02*
X266068Y270250D01*
X266523Y273203D02*
X264932D01*
X271750Y267203D02*
Y264250D01*
Y267203D02*
X270727D01*
X270386Y267062*
X270386D02*
X270273Y266922D01*
X270159Y266641*
Y266359*
X270273Y266078*
X270386Y265937*
X270386D02*
X270727Y265797D01*
X271750*
X270955D02*
X270159Y264250D01*
X269023Y266500D02*
Y266641D01*
X268909Y266922*
X268795Y267062*
X268795D02*
X268568Y267203D01*
X268114*
X267886Y267062*
X267886D02*
X267773Y266922D01*
X267659Y266641*
Y266359*
X267773Y266078*
X268000Y265656*
X269136Y264250*
X267545*
X265955Y267203D02*
X266295Y267062D01*
X266295D02*
X266409Y266781D01*
Y266500*
X266295Y266219*
X266068Y266078*
X265614Y265937*
X265614D02*
X265273Y265797D01*
X265045Y265516*
X264932Y265234*
Y264812*
X264932D02*
X265045Y264531D01*
X265159Y264391*
X265500Y264250*
X265955*
X266295Y264391*
X266409Y264531*
X266523Y264812*
X266523D02*
Y265234D01*
X266409Y265516*
X266182Y265797*
X265841Y265937*
X265841D02*
X265386Y266078D01*
X265159Y266219*
X265045Y266500*
Y266781*
X265159Y267062*
X265159D02*
X265500Y267203D01*
X265955*
X271750Y255203D02*
Y252250D01*
Y255203D02*
X270727D01*
X270386Y255062*
X270386D02*
X270273Y254922D01*
X270159Y254641*
Y254359*
X270273Y254078*
X270386Y253937*
X270386D02*
X270727Y253797D01*
X271750*
X270955D02*
X270159Y252250D01*
X269023Y254500D02*
Y254641D01*
X268909Y254922*
X268795Y255062*
X268795D02*
X268568Y255203D01*
X268114*
X267886Y255062*
X267886D02*
X267773Y254922D01*
X267659Y254641*
Y254359*
X267773Y254078*
X268000Y253656*
X269136Y252250*
X267545*
X265045Y254219D02*
X265159Y253797D01*
X265386Y253516*
X265727Y253375*
X265841*
X266182Y253516*
X266409Y253797*
X266523Y254219*
Y254359*
X266409Y254781*
X266182Y255062*
X266182D02*
X265841Y255203D01*
X265727*
X265386Y255062*
X265386D02*
X265159Y254781D01*
X265045Y254219*
Y253516*
X265159Y252812*
X265159D02*
X265386Y252391D01*
X265727Y252250*
X265955*
X266295Y252391*
X266409Y252672*
X271750Y249203D02*
Y246250D01*
Y249203D02*
X270727D01*
X270386Y249062*
X270386D02*
X270273Y248922D01*
X270159Y248641*
Y248359*
X270273Y248078*
X270386Y247937*
X270386D02*
X270727Y247797D01*
X271750*
X270955D02*
X270159Y246250D01*
X268909Y249203D02*
X267659D01*
X268341Y248078*
X268000*
X267773Y247937*
X267773D02*
X267659Y247797D01*
X267545Y247375*
Y247094*
X267659Y246672*
X267886Y246391*
X268227Y246250*
X268568*
X268909Y246391*
X269023Y246531*
X269136Y246812*
X265841Y249203D02*
X266182Y249062D01*
X266182D02*
X266409Y248641D01*
X266523Y247937*
X266523D02*
Y247516D01*
X266409Y246812*
X266409D02*
X266182Y246391D01*
X265841Y246250*
X265614*
X265273Y246391*
X265045Y246812*
X265045D02*
X264932Y247516D01*
Y247937*
X264932D02*
X265045Y248641D01*
X265273Y249062*
X265273D02*
X265614Y249203D01*
X265841*
X234750Y209203D02*
Y206250D01*
Y209203D02*
X233727D01*
X233386Y209063*
X233386D02*
X233273Y208922D01*
X233159Y208641*
Y208359*
X233273Y208078*
X233386Y207938*
X233386D02*
X233727Y207797D01*
X234750*
X233955D02*
X233159Y206250D01*
X231909Y209203D02*
X230659D01*
X231341Y208078*
X231000*
X230773Y207938*
X230773D02*
X230659Y207797D01*
X230545Y207375*
Y207094*
X230659Y206672*
X230886Y206391*
X231227Y206250*
X231568*
X231909Y206391*
X232023Y206531*
X232136Y206813*
X229523Y208641D02*
X229295Y208781D01*
X228955Y209203*
Y206250*
X271750Y167203D02*
Y164250D01*
Y167203D02*
X270727D01*
X270386Y167062*
X270386D02*
X270273Y166922D01*
X270159Y166641*
Y166359*
X270273Y166078*
X270386Y165937*
X270386D02*
X270727Y165797D01*
X271750*
X270955D02*
X270159Y164250D01*
X268909Y167203D02*
X267659D01*
X268341Y166078*
X268000*
X267773Y165937*
X267773D02*
X267659Y165797D01*
X267545Y165375*
Y165094*
X267659Y164672*
X267886Y164391*
X268227Y164250*
X268568*
X268909Y164391*
X269023Y164531*
X269136Y164812*
X266409Y166500D02*
Y166641D01*
X266295Y166922*
X266182Y167062*
X266182D02*
X265955Y167203D01*
X265500*
X265273Y167062*
X265273D02*
X265159Y166922D01*
X265045Y166641*
Y166359*
X265159Y166078*
X265386Y165656*
X266523Y164250*
X264932*
X271750Y161203D02*
Y158250D01*
Y161203D02*
X270727D01*
X270386Y161062*
X270386D02*
X270273Y160922D01*
X270159Y160641*
Y160359*
X270273Y160078*
X270386Y159937*
X270386D02*
X270727Y159797D01*
X271750*
X270955D02*
X270159Y158250D01*
X268909Y161203D02*
X267659D01*
X268341Y160078*
X268000*
X267773Y159937*
X267773D02*
X267659Y159797D01*
X267545Y159375*
Y159094*
X267659Y158672*
X267886Y158391*
X268227Y158250*
X268568*
X268909Y158391*
X269023Y158531*
X269136Y158812*
X266295Y161203D02*
X265045D01*
X265727Y160078*
X265386*
X265159Y159937*
X265159D02*
X265045Y159797D01*
X264932Y159375*
Y159094*
X265045Y158672*
X265273Y158391*
X265614Y158250*
X265955*
X266295Y158391*
X266409Y158531*
X266523Y158812*
X271750Y155203D02*
Y152250D01*
Y155203D02*
X270727D01*
X270386Y155062*
X270386D02*
X270273Y154922D01*
X270159Y154641*
Y154359*
X270273Y154078*
X270386Y153937*
X270386D02*
X270727Y153797D01*
X271750*
X270955D02*
X270159Y152250D01*
X268909Y155203D02*
X267659D01*
X268341Y154078*
X268000*
X267773Y153937*
X267773D02*
X267659Y153797D01*
X267545Y153375*
Y153094*
X267659Y152672*
X267886Y152391*
X268227Y152250*
X268568*
X268909Y152391*
X269023Y152531*
X269136Y152812*
X265386Y155203D02*
X266523Y153234D01*
X264818*
X265386Y155203D02*
Y152250D01*
X271750Y149203D02*
Y146250D01*
Y149203D02*
X270727D01*
X270386Y149062*
X270386D02*
X270273Y148922D01*
X270159Y148641*
Y148359*
X270273Y148078*
X270386Y147937*
X270386D02*
X270727Y147797D01*
X271750*
X270955D02*
X270159Y146250D01*
X268909Y149203D02*
X267659D01*
X268341Y148078*
X268000*
X267773Y147937*
X267773D02*
X267659Y147797D01*
X267545Y147375*
Y147094*
X267659Y146672*
X267886Y146391*
X268227Y146250*
X268568*
X268909Y146391*
X269023Y146531*
X269136Y146812*
X265045Y149203D02*
X266182D01*
X266295Y147937*
X266295D02*
X266182Y148078D01*
X265841Y148219*
X265500*
X265159Y148078*
X264932Y147797*
X264818Y147375*
X264932Y147094*
X265045Y146672*
X265273Y146391*
X265614Y146250*
X265955*
X266295Y146391*
X266409Y146531*
X266523Y146812*
X271750Y202203D02*
Y199250D01*
Y202203D02*
X270727D01*
X270386Y202062*
X270386D02*
X270273Y201922D01*
X270159Y201641*
Y201359*
X270273Y201078*
X270386Y200937*
X270386D02*
X270727Y200797D01*
X271750*
X270955D02*
X270159Y199250D01*
X268909Y202203D02*
X267659D01*
X268341Y201078*
X268000*
X267773Y200937*
X267773D02*
X267659Y200797D01*
X267545Y200375*
Y200094*
X267659Y199672*
X267886Y199391*
X268227Y199250*
X268568*
X268909Y199391*
X269023Y199531*
X269136Y199812*
X265159Y201781D02*
X265273Y202062D01*
X265273D02*
X265614Y202203D01*
X265841*
X266182Y202062*
X266182D02*
X266409Y201641D01*
X266523Y200937*
X266523D02*
Y200234D01*
X266409Y199672*
X266182Y199391*
X265841Y199250*
X265727*
X265386Y199391*
X265159Y199672*
X265045Y200094*
Y200234*
X265159Y200656*
X265386Y200937*
X265386D02*
X265727Y201078D01*
X265841*
X266182Y200937*
X266182D02*
X266409Y200656D01*
X266523Y200234*
X286203Y178250D02*
X283250D01*
X286203D02*
Y179273D01*
X286062Y179614*
X285922Y179727*
X285641Y179841*
X285359*
X285078Y179727*
X284937Y179614*
X284797Y179273*
Y178250*
Y179045D02*
X283250Y179841D01*
X286203Y182000D02*
X284234Y180864D01*
Y182568*
X286203Y182000D02*
X283250D01*
X286203Y185182D02*
X283250Y184045D01*
X286203Y183591D02*
Y185182D01*
X271750Y197203D02*
Y194250D01*
Y197203D02*
X270727D01*
X270386Y197062*
X270386D02*
X270273Y196922D01*
X270159Y196641*
Y196359*
X270273Y196078*
X270386Y195937*
X270386D02*
X270727Y195797D01*
X271750*
X270955D02*
X270159Y194250D01*
X268909Y197203D02*
X267659D01*
X268341Y196078*
X268000*
X267773Y195937*
X267773D02*
X267659Y195797D01*
X267545Y195375*
Y195094*
X267659Y194672*
X267886Y194391*
X268227Y194250*
X268568*
X268909Y194391*
X269023Y194531*
X269136Y194812*
X264932Y197203D02*
X266068Y194250D01*
X266523Y197203D02*
X264932D01*
X286203Y193250D02*
X283250D01*
X286203D02*
Y194273D01*
X286062Y194614*
X285922Y194727*
X285641Y194841*
X285359*
X285078Y194727*
X284937Y194614*
X284797Y194273*
Y193250*
Y194045D02*
X283250Y194841D01*
X286203Y197000D02*
X284234Y195864D01*
Y197568*
X286203Y197000D02*
X283250D01*
X286203Y199159D02*
X286062Y198818D01*
X285781Y198705*
X285500*
X285219Y198818*
X285078Y199045*
X284937Y199500*
X284797Y199841*
X284516Y200068*
X284234Y200182*
X283812*
X283531Y200068*
X283391Y199955*
X283250Y199614*
Y199159*
X283391Y198818*
X283531Y198705*
X283812Y198591*
X284234*
X284516Y198705*
X284797Y198932*
X284937Y199273*
X285078Y199727*
X285219Y199955*
X285500Y200068*
X285781*
X286062Y199955*
X286203Y199614*
Y199159*
X271750Y185203D02*
Y182250D01*
Y185203D02*
X270727D01*
X270386Y185062*
X270386D02*
X270273Y184922D01*
X270159Y184641*
Y184359*
X270273Y184078*
X270386Y183937*
X270386D02*
X270727Y183797D01*
X271750*
X270955D02*
X270159Y182250D01*
X268909Y185203D02*
X267659D01*
X268341Y184078*
X268000*
X267773Y183937*
X267773D02*
X267659Y183797D01*
X267545Y183375*
Y183094*
X267659Y182672*
X267886Y182391*
X268227Y182250*
X268568*
X268909Y182391*
X269023Y182531*
X269136Y182812*
X265955Y185203D02*
X266295Y185062D01*
X266295D02*
X266409Y184781D01*
Y184500*
X266295Y184219*
X266068Y184078*
X265614Y183937*
X265614D02*
X265273Y183797D01*
X265045Y183516*
X264932Y183234*
Y182812*
X264932D02*
X265045Y182531D01*
X265159Y182391*
X265500Y182250*
X265955*
X266295Y182391*
X266409Y182531*
X266523Y182812*
X266523D02*
Y183234D01*
X266409Y183516*
X266182Y183797*
X265841Y183937*
X265841D02*
X265386Y184078D01*
X265159Y184219*
X265045Y184500*
Y184781*
X265159Y185062*
X265159D02*
X265500Y185203D01*
X265955*
X284750Y214203D02*
Y211250D01*
Y214203D02*
X283727D01*
X283386Y214062*
X283273Y213922*
X283159Y213641*
Y213359*
X283273Y213078*
X283386Y212937*
X283727Y212797*
X284750*
X283955D02*
X283159Y211250D01*
X281000Y214203D02*
X282136Y212234D01*
X280432*
X281000Y214203D02*
Y211250D01*
X277932Y213219D02*
X278045Y212797D01*
X278273Y212516*
X278614Y212375*
X278727*
X279068Y212516*
X279295Y212797*
X279409Y213219*
Y213359*
X279295Y213781*
X279068Y214062*
X278727Y214203*
X278614*
X278273Y214062*
X278045Y213781*
X277932Y213219*
Y212516*
X278045Y211812*
X278273Y211391*
X278614Y211250*
X278841*
X279182Y211391*
X279295Y211672*
X271750Y179203D02*
Y176250D01*
Y179203D02*
X270727D01*
X270386Y179062*
X270386D02*
X270273Y178922D01*
X270159Y178641*
Y178359*
X270273Y178078*
X270386Y177937*
X270386D02*
X270727Y177797D01*
X271750*
X270955D02*
X270159Y176250D01*
X268909Y179203D02*
X267659D01*
X268341Y178078*
X268000*
X267773Y177937*
X267773D02*
X267659Y177797D01*
X267545Y177375*
Y177094*
X267659Y176672*
X267886Y176391*
X268227Y176250*
X268568*
X268909Y176391*
X269023Y176531*
X269136Y176812*
X265045Y178219D02*
X265159Y177797D01*
X265386Y177516*
X265727Y177375*
X265841*
X266182Y177516*
X266409Y177797*
X266523Y178219*
Y178359*
X266409Y178781*
X266182Y179062*
X266182D02*
X265841Y179203D01*
X265727*
X265386Y179062*
X265386D02*
X265159Y178781D01*
X265045Y178219*
Y177516*
X265159Y176812*
X265159D02*
X265386Y176391D01*
X265727Y176250*
X265955*
X266295Y176391*
X266409Y176672*
X312203Y180250D02*
X309250D01*
X312203D02*
Y181273D01*
X312062Y181614*
X311922Y181727*
X311641Y181841*
X311359*
X311078Y181727*
X310937Y181614*
X310797Y181273*
Y180250*
Y181045D02*
X309250Y181841D01*
X312203Y184341D02*
Y183205D01*
X310937Y183091*
X311078Y183205*
X311219Y183545*
Y183886*
X311078Y184227*
X310797Y184455*
X310375Y184568*
X310094Y184455*
X309672Y184341*
X309391Y184114*
X309250Y183773*
Y183432*
X309391Y183091*
X309531Y182977*
X309812Y182864*
X312203Y186273D02*
X312062Y185932D01*
X311641Y185705*
X310937Y185591*
X310516*
X309812Y185705*
X309391Y185932*
X309250Y186273*
Y186500*
X309391Y186841*
X309812Y187068*
X310516Y187182*
X310937*
X311641Y187068*
X312062Y186841*
X312203Y186500*
Y186273*
X301203Y170250D02*
X298250D01*
X301203D02*
Y171273D01*
X301062Y171614*
X301062D02*
X300922Y171727D01*
X300641Y171841*
X300359*
X300078Y171727*
X299937Y171614*
X299937D02*
X299797Y171273D01*
Y170250*
Y171045D02*
X298250Y171841D01*
X301203Y174341D02*
Y173205D01*
X299937Y173091*
X299937D02*
X300078Y173205D01*
X300219Y173545*
Y173886*
X300078Y174227*
X299797Y174455*
X299375Y174568*
X299094Y174455*
X298672Y174341*
X298391Y174114*
X298250Y173773*
Y173432*
X298391Y173091*
X298531Y172977*
X298812Y172864*
X300641Y175591D02*
X300781Y175818D01*
X301203Y176159*
X298250*
X402045Y247500D02*
X402159Y247781D01*
X402386Y248062*
X402386D02*
X402614Y248203D01*
X403068*
X403295Y248062*
X403295D02*
X403523Y247781D01*
X403636Y247500*
X403750Y247078*
Y246375*
X403636Y245953*
X403523Y245672*
X403295Y245391*
X403068Y245250*
X402614*
X402386Y245391*
X402159Y245672*
X402045Y245953*
X399545Y247219D02*
X399659Y246797D01*
X399886Y246516*
X400227Y246375*
X400341*
X400682Y246516*
X400909Y246797*
X401023Y247219*
Y247359*
X400909Y247781*
X400682Y248062*
X400682D02*
X400341Y248203D01*
X400227*
X399886Y248062*
X399886D02*
X399659Y247781D01*
X399545Y247219*
Y246516*
X399659Y245812*
X399659D02*
X399886Y245391D01*
X400227Y245250*
X400455*
X400795Y245391*
X400909Y245672*
X201500Y247955D02*
X201781Y247841D01*
X202062Y247614*
X202062D02*
X202203Y247386D01*
Y246932*
X202062Y246705*
X202062D02*
X201781Y246477D01*
X201500Y246364*
X201078Y246250*
X200375*
X199953Y246364*
X199672Y246477*
X199391Y246705*
X199250Y246932*
Y247386*
X199391Y247614*
X199672Y247841*
X199953Y247955*
X202203Y250114D02*
X200234Y248977D01*
Y250682*
X202203Y250114D02*
X199250D01*
X202203Y252273D02*
X202062Y251932D01*
X202062D02*
X201781Y251818D01*
X201500*
X201219Y251932*
X201078Y252159*
X200937Y252614*
X200937D02*
X200797Y252955D01*
X200516Y253182*
X200234Y253295*
X199812*
X199812D02*
X199531Y253182D01*
X199391Y253068*
X199250Y252727*
Y252273*
X199391Y251932*
X199531Y251818*
X199812Y251705*
X199812D02*
X200234D01*
X200516Y251818*
X200797Y252045*
X200937Y252386*
X200937D02*
X201078Y252841D01*
X201219Y253068*
X201500Y253182*
X201781*
X202062Y253068*
X202062D02*
X202203Y252727D01*
Y252273*
X214500Y265955D02*
X214781Y265841D01*
X215062Y265614*
X215062D02*
X215203Y265386D01*
Y264932*
X215062Y264705*
X215062D02*
X214781Y264477D01*
X214500Y264364*
X214078Y264250*
X213375*
X212953Y264364*
X212672Y264477*
X212391Y264705*
X212250Y264932*
Y265386*
X212391Y265614*
X212672Y265841*
X212953Y265955*
X215203Y268114D02*
X213234Y266977D01*
Y268682*
X215203Y268114D02*
X212250D01*
X215203Y271295D02*
X212250Y270159D01*
X215203Y269705D02*
Y271295D01*
X232045Y224500D02*
X232159Y224781D01*
X232386Y225062*
X232386D02*
X232614Y225203D01*
X233068*
X233295Y225062*
X233295D02*
X233523Y224781D01*
X233636Y224500*
X233750Y224078*
Y223375*
X233636Y222953*
X233523Y222672*
X233295Y222391*
X233068Y222250*
X232614*
X232386Y222391*
X232159Y222672*
X232045Y222953*
X229886Y225203D02*
X231023Y223234D01*
X229318*
X229886Y225203D02*
Y222250D01*
X226932Y224781D02*
X227045Y225062D01*
X227045D02*
X227386Y225203D01*
X227614*
X227955Y225062*
X227955D02*
X228182Y224641D01*
X228295Y223937*
X228295D02*
Y223234D01*
X228182Y222672*
X227955Y222391*
X227614Y222250*
X227500*
X227159Y222391*
X226932Y222672*
X226818Y223094*
Y223234*
X226932Y223656*
X227159Y223937*
X227159D02*
X227500Y224078D01*
X227614*
X227955Y223937*
X227955D02*
X228182Y223656D01*
X228295Y223234*
X293750Y176203D02*
Y173250D01*
Y176203D02*
X292727D01*
X292386Y176062*
X292386D02*
X292273Y175922D01*
X292159Y175641*
Y175359*
X292273Y175078*
X292386Y174937*
X292386D02*
X292727Y174797D01*
X293750*
X292955D02*
X292159Y173250D01*
X290000Y176203D02*
X291136Y174234D01*
X289432*
X290000Y176203D02*
Y173250D01*
X287727Y176203D02*
X288068Y176062D01*
X288068D02*
X288295Y175641D01*
X288409Y174937*
X288409D02*
Y174516D01*
X288295Y173812*
X288295D02*
X288068Y173391D01*
X287727Y173250*
X287500*
X287159Y173391*
X286932Y173812*
X286932D02*
X286818Y174516D01*
Y174937*
X286818D02*
X286932Y175641D01*
X287159Y176062*
X287159D02*
X287500Y176203D01*
X287727*
X233750Y149203D02*
Y146250D01*
X232386*
X229886Y149203D02*
X231023D01*
X231136Y147938*
X231136D02*
X231023Y148078D01*
X230682Y148219*
X230341*
X230000Y148078*
X229773Y147797*
X229659Y147375*
X229773Y147094*
X229886Y146672*
X230114Y146391*
X230455Y146250*
X230795*
X231136Y146391*
X231250Y146531*
X231364Y146813*
X105750Y306203D02*
Y303250D01*
Y306203D02*
X104727D01*
X104386Y306062*
X104386D02*
X104273Y305922D01*
X104159Y305641*
Y305359*
X104273Y305078*
X104386Y304937*
X104386D02*
X104727Y304797D01*
X105750*
X104955D02*
X104159Y303250D01*
X102909Y306203D02*
X101659D01*
X102341Y305078*
X102000*
X101773Y304937*
X101773D02*
X101659Y304797D01*
X101545Y304375*
Y304094*
X101659Y303672*
X101886Y303391*
X102227Y303250*
X102568*
X102909Y303391*
X103023Y303531*
X103136Y303812*
X130203Y290250D02*
X127250D01*
X130203D02*
Y291273D01*
X130062Y291614*
X129922Y291727*
X129641Y291841*
X129359*
X129078Y291727*
X128937Y291614*
X128797Y291273*
Y290250*
Y291045D02*
X127250Y291841D01*
X129500Y292977D02*
X129641D01*
X129922Y293091*
X130062Y293205*
X130203Y293432*
Y293886*
X130062Y294114*
X129922Y294227*
X129641Y294341*
X129359*
X129078Y294227*
X128656Y294000*
X127250Y292864*
Y294455*
X221203Y246250D02*
X218250D01*
X221203D02*
Y247273D01*
X221062Y247614*
X220922Y247727*
X220641Y247841*
X220359*
X220078Y247727*
X219937Y247614*
X219797Y247273*
Y246250*
Y247045D02*
X218250Y247841D01*
X220500Y248977D02*
X220641D01*
X220922Y249091*
X221062Y249205*
X221203Y249432*
Y249886*
X221062Y250114*
X220922Y250227*
X220641Y250341*
X220359*
X220078Y250227*
X219656Y250000*
X218250Y248864*
Y250455*
X221203Y252159D02*
X221062Y251818D01*
X220641Y251591*
X219937Y251477*
X219516*
X218812Y251591*
X218391Y251818*
X218250Y252159*
Y252386*
X218391Y252727*
X218812Y252955*
X219516Y253068*
X219937*
X220641Y252955*
X221062Y252727*
X221203Y252386*
Y252159*
X215203Y159250D02*
X212250D01*
X215203D02*
Y160273D01*
X215062Y160614*
X215062D02*
X214922Y160727D01*
X214641Y160841*
X214359*
X214078Y160727*
X213937Y160614*
X213937D02*
X213797Y160273D01*
Y159250*
Y160045D02*
X212250Y160841D01*
X214500Y161977D02*
X214641D01*
X214922Y162091*
X215062Y162205*
X215062D02*
X215203Y162432D01*
Y162886*
X215062Y163114*
X215062D02*
X214922Y163227D01*
X214641Y163341*
X214359*
X214078Y163227*
X213656Y163000*
X212250Y161864*
Y163455*
X214641Y164477D02*
X214781Y164705D01*
X215203Y165045*
X212250*
X109750Y286203D02*
Y283250D01*
Y286203D02*
X108727D01*
X108386Y286062*
X108386D02*
X108273Y285922D01*
X108159Y285641*
Y285359*
X108273Y285078*
X108386Y284937*
X108386D02*
X108727Y284797D01*
X109750*
X108955D02*
X108159Y283250D01*
X106000Y286203D02*
X107136Y284234D01*
X105432*
X106000Y286203D02*
Y283250D01*
X346250Y287805D02*
Y290758D01*
Y287805D02*
X347045D01*
X347386Y287945*
X347614Y288227*
X347727Y288508*
X347841Y288930*
Y289633*
X347727Y290055*
X347614Y290336*
X347386Y290617*
X347045Y290758*
X346250*
X350341Y288789D02*
X350227Y289211D01*
X350000Y289492*
X349659Y289633*
X349545*
X349205Y289492*
X348977Y289211*
X348864Y288789*
Y288648*
X348977Y288227*
X349205Y287945*
X349545Y287805*
X349659*
X350000Y287945*
X350227Y288227*
X350341Y288789*
Y289492*
X350227Y290195*
X350000Y290617*
X349659Y290758*
X349432*
X349091Y290617*
X348977Y290336*
X379068Y288195D02*
X379295Y288055D01*
X379523Y287773*
X379636Y287492*
X379750Y287070*
Y286367*
X379636Y285945*
X379523Y285664*
X379295Y285383*
X379068Y285242*
X378614*
X378386Y285383*
X378159Y285664*
X378045Y285945*
X377932Y286367*
Y287070*
X378045Y287492*
X378159Y287773*
X378386Y288055*
X378614Y288195*
X379068*
X378727Y285805D02*
X378045Y284961D01*
X376682Y288195D02*
X375432D01*
X376114Y287070*
X375773*
X375545Y286930*
X375432Y286789*
X375318Y286367*
Y286086*
X375432Y285664*
X375659Y285383*
X376000Y285242*
X376341*
X376682Y285383*
X376795Y285523*
X376909Y285805*
X358068Y292195D02*
X358295Y292055D01*
X358523Y291773*
X358636Y291492*
X358750Y291070*
Y290367*
X358636Y289945*
X358523Y289664*
X358295Y289383*
X358068Y289242*
X357614*
X357386Y289383*
X357159Y289664*
X357045Y289945*
X356932Y290367*
Y291070*
X357045Y291492*
X357159Y291773*
X357386Y292055*
X357614Y292195*
X358068*
X357727Y289805D02*
X357045Y288961D01*
X354773Y292195D02*
X355909Y290227D01*
X354205*
X354773Y292195D02*
Y289242D01*
X370068Y271195D02*
X370295Y271055D01*
X370523Y270773*
X370636Y270492*
X370750Y270070*
Y269367*
X370636Y268945*
X370523Y268664*
X370295Y268383*
X370068Y268242*
X369614*
X369386Y268383*
X369159Y268664*
X369045Y268945*
X368932Y269367*
Y270070*
X369045Y270492*
X369159Y270773*
X369386Y271055*
X369614Y271195*
X370068*
X369727Y268805D02*
X369045Y267961D01*
X366432Y271195D02*
X367568D01*
X367682Y269930*
X367568Y270070*
X367227Y270211*
X366886*
X366545Y270070*
X366318Y269789*
X366205Y269367*
X366318Y269086*
X366432Y268664*
X366659Y268383*
X367000Y268242*
X367341*
X367682Y268383*
X367795Y268523*
X367909Y268805*
X329750Y279195D02*
Y276242D01*
Y279195D02*
X328727D01*
X328386Y279055*
X328273Y278914*
X328159Y278633*
Y278352*
X328273Y278070*
X328386Y277930*
X328727Y277789*
X329750*
X328955D02*
X328159Y276242D01*
X325659Y279195D02*
X326795D01*
X326909Y277930*
X326795Y278070*
X326455Y278211*
X326114*
X325773Y278070*
X325545Y277789*
X325432Y277367*
X325545Y277086*
X325659Y276664*
X325886Y276383*
X326227Y276242*
X326568*
X326909Y276383*
X327023Y276523*
X327136Y276805*
X323273Y279195D02*
X324409Y277227D01*
X322705*
X323273Y279195D02*
Y276242D01*
X329750Y273195D02*
Y270242D01*
Y273195D02*
X328727D01*
X328386Y273055*
X328273Y272914*
X328159Y272633*
Y272352*
X328273Y272070*
X328386Y271930*
X328727Y271789*
X329750*
X328955D02*
X328159Y270242D01*
X325659Y273195D02*
X326795D01*
X326909Y271930*
X326795Y272070*
X326455Y272211*
X326114*
X325773Y272070*
X325545Y271789*
X325432Y271367*
X325545Y271086*
X325659Y270664*
X325886Y270383*
X326227Y270242*
X326568*
X326909Y270383*
X327023Y270523*
X327136Y270805*
X322932Y273195D02*
X324068D01*
X324182Y271930*
X324068Y272070*
X323727Y272211*
X323386*
X323045Y272070*
X322818Y271789*
X322705Y271367*
X322818Y271086*
X322932Y270664*
X323159Y270383*
X323500Y270242*
X323841*
X324182Y270383*
X324295Y270523*
X324409Y270805*
X329750Y285195D02*
Y282242D01*
Y285195D02*
X328727D01*
X328386Y285055*
X328273Y284914*
X328159Y284633*
Y284352*
X328273Y284070*
X328386Y283930*
X328727Y283789*
X329750*
X328955D02*
X328159Y282242D01*
X325659Y285195D02*
X326795D01*
X326909Y283930*
X326795Y284070*
X326455Y284211*
X326114*
X325773Y284070*
X325545Y283789*
X325432Y283367*
X325545Y283086*
X325659Y282664*
X325886Y282383*
X326227Y282242*
X326568*
X326909Y282383*
X327023Y282523*
X327136Y282805*
X323045Y284773D02*
X323159Y285055D01*
X323500Y285195*
X323727*
X324068Y285055*
X324295Y284633*
X324409Y283930*
Y283227*
X324295Y282664*
X324068Y282383*
X323727Y282242*
X323614*
X323273Y282383*
X323045Y282664*
X322932Y283086*
Y283227*
X323045Y283648*
X323273Y283930*
X323614Y284070*
X323727*
X324068Y283930*
X324295Y283648*
X324409Y283227*
X135773Y130841D02*
X136055Y130614D01*
X136195Y130273*
Y129818*
X136055Y129477*
X135773Y129250*
X135492*
X135211Y129364*
X135070Y129477*
X134930Y129705*
X134648Y130386*
X134508Y130614*
X134367Y130727*
X134086Y130841*
X133664*
X133383Y130614*
X133242Y130273*
Y129818*
X133383Y129477*
X133664Y129250*
X135492Y131977D02*
X135633D01*
X135914Y132091*
X136055Y132205*
X136195Y132432*
Y132886*
X136055Y133114*
X135914Y133227*
X135633Y133341*
X135352*
X135070Y133227*
X134648Y133000*
X133242Y131864*
Y133455*
X306750Y278195D02*
Y276086D01*
X306636Y275664*
X306409Y275383*
X306068Y275242*
X305841*
X305500Y275383*
X305273Y275664*
X305159Y276086*
Y278195*
X302659D02*
X303795D01*
X303909Y276930*
X303795Y277070*
X303455Y277211*
X303114*
X302773Y277070*
X302545Y276789*
X302432Y276367*
X302545Y276086*
X302659Y275664*
X302886Y275383*
X303227Y275242*
X303568*
X303909Y275383*
X304023Y275523*
X304136Y275805*
X263045Y301492D02*
X263159Y301773D01*
X263386Y302055*
X263614Y302195*
X264068*
X264295Y302055*
X264523Y301773*
X264636Y301492*
X264750Y301070*
Y300367*
X264636Y299945*
X264523Y299664*
X264295Y299383*
X264068Y299242*
X263614*
X263386Y299383*
X263159Y299664*
X263045Y299945*
X262023Y301633D02*
X261795Y301773D01*
X261455Y302195*
Y299242*
X258955Y302195D02*
X260091D01*
X260205Y300930*
X260091Y301070*
X259750Y301211*
X259409*
X259068Y301070*
X258841Y300789*
X258727Y300367*
X258841Y300086*
X258955Y299664*
X259182Y299383*
X259523Y299242*
X259864*
X260205Y299383*
X260318Y299523*
X260432Y299805*
X191841Y128203D02*
X192750Y125250D01*
X191841Y128203D02*
X190932Y125250D01*
X192409Y126234D02*
X191273D01*
X189909Y128203D02*
Y125250D01*
Y128203D02*
X189114D01*
X188773Y128063*
X188773D02*
X188545Y127781D01*
X188432Y127500*
X188318Y127078*
Y126375*
X188432Y125953*
X188545Y125672*
X188773Y125391*
X189114Y125250*
X189909*
X186614Y128203D02*
X186955Y128063D01*
X186955D02*
X187182Y127641D01*
X187295Y126938*
X187295D02*
Y126516D01*
X187182Y125813*
X187182D02*
X186955Y125391D01*
X186614Y125250*
X186386*
X186045Y125391*
X185818Y125813*
X185818D02*
X185705Y126516D01*
Y126938*
X185705D02*
X185818Y127641D01*
X186045Y128063*
X186045D02*
X186386Y128203D01*
X186614*
X184341Y109203D02*
X184682Y109063D01*
X184682D02*
X184909Y108641D01*
X185023Y107938*
X185023D02*
Y107516D01*
X184909Y106813*
X184909D02*
X184682Y106391D01*
X184341Y106250*
X184114*
X183773Y106391*
X183545Y106813*
X183545D02*
X183432Y107516D01*
Y107938*
X183432D02*
X183545Y108641D01*
X183773Y109063*
X183773D02*
X184114Y109203D01*
X184341*
X226841Y128203D02*
X227750Y125250D01*
X226841Y128203D02*
X225932Y125250D01*
X227409Y126234D02*
X226273D01*
X224909Y128203D02*
Y125250D01*
Y128203D02*
X224114D01*
X223773Y128063*
X223773D02*
X223545Y127781D01*
X223432Y127500*
X223318Y127078*
Y126375*
X223432Y125953*
X223545Y125672*
X223773Y125391*
X224114Y125250*
X224909*
X221614Y128203D02*
X221955Y128063D01*
X221955D02*
X222182Y127641D01*
X222295Y126938*
X222295D02*
Y126516D01*
X222182Y125813*
X222182D02*
X221955Y125391D01*
X221614Y125250*
X221386*
X221045Y125391*
X220818Y125813*
X220818D02*
X220705Y126516D01*
Y126938*
X220705D02*
X220818Y127641D01*
X221045Y128063*
X221045D02*
X221386Y128203D01*
X221614*
X184511Y121641D02*
X184284Y121781D01*
X183943Y122203*
Y119250*
X219511Y121641D02*
X219284Y121781D01*
X218943Y122203*
Y119250*
X219341Y109203D02*
X219682Y109063D01*
X219682D02*
X219909Y108641D01*
X220023Y107938*
X220023D02*
Y107516D01*
X219909Y106813*
X219909D02*
X219682Y106391D01*
X219341Y106250*
X219114*
X218773Y106391*
X218545Y106813*
X218545D02*
X218432Y107516D01*
Y107938*
X218432D02*
X218545Y108641D01*
X218773Y109063*
X218773D02*
X219114Y109203D01*
X219341*
X420219Y239602D02*
X419937Y239716D01*
X419937D02*
X419797Y240057D01*
Y240284*
X419937Y240625*
X419937D02*
X420359Y240852D01*
X421062Y240966*
X421062D02*
X421766D01*
X422328Y240852*
X422609Y240625*
X422750Y240284*
Y240170*
X422609Y239830*
X422328Y239602*
X421906Y239489*
X421766*
X421344Y239602*
X421062Y239830*
X421062D02*
X420922Y240170D01*
Y240284*
X421062Y240625*
X421062D02*
X421344Y240852D01*
X421766Y240966*
X419797Y270341D02*
X419937Y270682D01*
X419937D02*
X420359Y270909D01*
X421062Y271023*
X421062D02*
X421484D01*
X422187Y270909*
X422187D02*
X422609Y270682D01*
X422750Y270341*
Y270114*
X422609Y269773*
X422187Y269545*
X422187D02*
X421484Y269432D01*
X421062*
X421062D02*
X420359Y269545D01*
X419937Y269773*
X419937D02*
X419797Y270114D01*
Y270341*
X420219Y289602D02*
X419937Y289716D01*
X419937D02*
X419797Y290057D01*
Y290284*
X419937Y290625*
X419937D02*
X420359Y290852D01*
X421062Y290966*
X421062D02*
X421766D01*
X422328Y290852*
X422609Y290625*
X422750Y290284*
Y290170*
X422609Y289830*
X422328Y289602*
X421906Y289489*
X421766*
X421344Y289602*
X421062Y289830*
X421062D02*
X420922Y290170D01*
Y290284*
X421062Y290625*
X421062D02*
X421344Y290852D01*
X421766Y290966*
X419797Y320341D02*
X419937Y320682D01*
X419937D02*
X420359Y320909D01*
X421062Y321023*
X421062D02*
X421484D01*
X422187Y320909*
X422187D02*
X422609Y320682D01*
X422750Y320341*
Y320114*
X422609Y319773*
X422187Y319545*
X422187D02*
X421484Y319432D01*
X421062*
X421062D02*
X420359Y319545D01*
X419937Y319773*
X419937D02*
X419797Y320114D01*
Y320341*
X420500Y260909D02*
X420359D01*
X420078Y260795*
X419937Y260682*
X419937D02*
X419797Y260455D01*
Y260000*
X419937Y259773*
X419937D02*
X420078Y259659D01*
X420359Y259545*
X420641*
X420922Y259659*
X421344Y259886*
X422750Y261023*
Y259432*
X419797Y249943D02*
X421766Y251080D01*
Y249375*
X419797Y249943D02*
X422750D01*
X419500Y310909D02*
X419359D01*
X419078Y310795*
X418937Y310682*
X418937D02*
X418797Y310455D01*
Y310000*
X418937Y309773*
X418937D02*
X419078Y309659D01*
X419359Y309545*
X419641*
X419922Y309659*
X420344Y309886*
X421750Y311023*
Y309432*
X418797Y299943D02*
X420766Y301080D01*
Y299375*
X418797Y299943D02*
X421750D01*
X428805Y223523D02*
Y222273D01*
X429930Y222955*
Y222614*
X430070Y222386*
X430211Y222273*
X430633Y222159*
X430914*
X431336Y222273*
X431617Y222500*
X431758Y222841*
Y223182*
X431617Y223523*
X431477Y223636*
X431195Y223750*
X431477Y221023D02*
X431617Y221136D01*
X431758Y221023*
X431617Y220909*
X431477Y221023*
X428805Y219659D02*
Y218409D01*
X429930Y219091*
Y218750*
X430070Y218523*
X430211Y218409*
X430633Y218295*
X430914*
X431336Y218409*
X431617Y218636*
X431758Y218977*
Y219318*
X431617Y219659*
X431477Y219773*
X431195Y219886*
X429789Y217273D02*
X431758Y216591D01*
X429789Y215909D02*
X431758Y216591D01*
X439508Y221045D02*
X439227Y221159D01*
X438945Y221386*
X438805Y221614*
Y222068*
X438945Y222295*
X439227Y222523*
X439508Y222636*
X439930Y222750*
X440633*
X441055Y222636*
X441336Y222523*
X441617Y222295*
X441758Y222068*
Y221614*
X441617Y221386*
X441336Y221159*
X441055Y221045*
X440633*
Y221614D02*
Y221045D01*
X438805Y220023D02*
X441758D01*
X438805D02*
X441758Y218432D01*
X438805D02*
X441758D01*
X438805Y217409D02*
X441758D01*
X438805D02*
Y216614D01*
X438945Y216273*
X439227Y216045*
X439508Y215932*
X439930Y215818*
X440633*
X441055Y215932*
X441336Y216045*
X441617Y216273*
X441758Y216614*
Y217409*
X418805Y218273D02*
Y219409D01*
X420070Y219523*
X419930Y219409*
X419789Y219068*
Y218727*
X419930Y218386*
X420211Y218159*
X420633Y218045*
X420914Y218159*
X421336Y218273*
X421617Y218500*
X421758Y218841*
Y219182*
X421617Y219523*
X421477Y219636*
X421195Y219750*
X419789Y217023D02*
X421758Y216341D01*
X419789Y215659D02*
X421758Y216341D01*
X360398Y300219D02*
X360284Y299937D01*
X360284D02*
X359943Y299797D01*
X359716*
X359375Y299937*
X359375D02*
X359148Y300359D01*
X359034Y301062*
X359034D02*
Y301766D01*
X359148Y302328*
X359375Y302609*
X359716Y302750*
X359830*
X360170Y302609*
X360398Y302328*
X360511Y301906*
Y301766*
X360398Y301344*
X360170Y301062*
X360170D02*
X359830Y300922D01*
X359716*
X359375Y301062*
X359375D02*
X359148Y301344D01*
X359034Y301766*
X329659Y299797D02*
X329318Y299937D01*
X329318D02*
X329091Y300359D01*
X328977Y301062*
X328977D02*
Y301484D01*
X329091Y302187*
X329091D02*
X329318Y302609D01*
X329659Y302750*
X329886*
X330227Y302609*
X330455Y302187*
X330455D02*
X330568Y301484D01*
Y301062*
X330568D02*
X330455Y300359D01*
X330227Y299937*
X330227D02*
X329886Y299797D01*
X329659*
X310398Y300219D02*
X310284Y299937D01*
X310284D02*
X309943Y299797D01*
X309716*
X309375Y299937*
X309375D02*
X309148Y300359D01*
X309034Y301062*
X309034D02*
Y301766D01*
X309148Y302328*
X309375Y302609*
X309716Y302750*
X309830*
X310170Y302609*
X310398Y302328*
X310511Y301906*
Y301766*
X310398Y301344*
X310170Y301062*
X310170D02*
X309830Y300922D01*
X309716*
X309375Y301062*
X309375D02*
X309148Y301344D01*
X309034Y301766*
X279659Y299797D02*
X279318Y299937D01*
X279318D02*
X279091Y300359D01*
X278977Y301062*
X278977D02*
Y301484D01*
X279091Y302187*
X279091D02*
X279318Y302609D01*
X279659Y302750*
X279886*
X280227Y302609*
X280455Y302187*
X280455D02*
X280568Y301484D01*
Y301062*
X280568D02*
X280455Y300359D01*
X280227Y299937*
X280227D02*
X279886Y299797D01*
X279659*
X339091Y300500D02*
Y300359D01*
X339205Y300078*
X339318Y299937*
X339318D02*
X339545Y299797D01*
X340000*
X340227Y299937*
X340227D02*
X340341Y300078D01*
X340455Y300359*
Y300641*
X340341Y300922*
X340114Y301344*
X338977Y302750*
X340568*
X350057Y299797D02*
X348920Y301766D01*
X350625*
X350057Y299797D02*
Y302750D01*
X300057Y299797D02*
X298920Y301766D01*
X300625*
X300057Y299797D02*
Y302750D01*
X289091Y300500D02*
Y300359D01*
X289205Y300078*
X289318Y299937*
X289318D02*
X289545Y299797D01*
X290000*
X290227Y299937*
X290227D02*
X290341Y300078D01*
X290455Y300359*
Y300641*
X290341Y300922*
X290114Y301344*
X288977Y302750*
X290568*
X419797Y150341D02*
X419937Y150682D01*
X419937D02*
X420359Y150909D01*
X421062Y151023*
X421062D02*
X421484D01*
X422187Y150909*
X422187D02*
X422609Y150682D01*
X422750Y150341*
Y150114*
X422609Y149773*
X422187Y149545*
X422187D02*
X421484Y149432D01*
X421062*
X421062D02*
X420359Y149545D01*
X419937Y149773*
X419937D02*
X419797Y150114D01*
Y150341*
X420219Y119602D02*
X419937Y119716D01*
X419937D02*
X419797Y120057D01*
Y120284*
X419937Y120625*
X419937D02*
X420359Y120852D01*
X421062Y120966*
X421062D02*
X421766D01*
X422328Y120852*
X422609Y120625*
X422750Y120284*
Y120170*
X422609Y119830*
X422328Y119602*
X421906Y119489*
X421766*
X421344Y119602*
X421062Y119830*
X421062D02*
X420922Y120170D01*
Y120284*
X421062Y120625*
X421062D02*
X421344Y120852D01*
X421766Y120966*
X419797Y169432D02*
X422750Y170568D01*
X419797Y171023D02*
Y169432D01*
Y200341D02*
X419937Y200682D01*
X419937D02*
X420359Y200909D01*
X421062Y201023*
X421062D02*
X421484D01*
X422187Y200909*
X422187D02*
X422609Y200682D01*
X422750Y200341*
Y200114*
X422609Y199773*
X422187Y199545*
X422187D02*
X421484Y199432D01*
X421062*
X421062D02*
X420359Y199545D01*
X419937Y199773*
X419937D02*
X419797Y200114D01*
Y200341*
X420500Y140909D02*
X420359D01*
X420078Y140795*
X419937Y140682*
X419937D02*
X419797Y140455D01*
Y140000*
X419937Y139773*
X419937D02*
X420078Y139659D01*
X420359Y139545*
X420641*
X420922Y139659*
X421344Y139886*
X422750Y141023*
Y139432*
X419797Y129943D02*
X421766Y131080D01*
Y129375*
X419797Y129943D02*
X422750D01*
X420500Y190909D02*
X420359D01*
X420078Y190795*
X419937Y190682*
X419937D02*
X419797Y190455D01*
Y190000*
X419937Y189773*
X419937D02*
X420078Y189659D01*
X420359Y189545*
X420641*
X420922Y189659*
X421344Y189886*
X422750Y191023*
Y189432*
X419797Y179943D02*
X421766Y181080D01*
Y179375*
X419797Y179943D02*
X422750D01*
X319341Y130203D02*
X319682Y130063D01*
X319682D02*
X319909Y129641D01*
X320023Y128938*
X320023D02*
Y128516D01*
X319909Y127813*
X319909D02*
X319682Y127391D01*
X319341Y127250*
X319114*
X318773Y127391*
X318545Y127813*
X318545D02*
X318432Y128516D01*
Y128938*
X318432D02*
X318545Y129641D01*
X318773Y130063*
X318773D02*
X319114Y130203D01*
X319341*
X288602Y129781D02*
X288716Y130063D01*
X288716D02*
X289057Y130203D01*
X289284*
X289625Y130063*
X289625D02*
X289852Y129641D01*
X289966Y128938*
X289966D02*
Y128234D01*
X289852Y127672*
X289625Y127391*
X289284Y127250*
X289170*
X288830Y127391*
X288602Y127672*
X288489Y128094*
Y128234*
X288602Y128656*
X288830Y128938*
X288830D02*
X289170Y129078D01*
X289284*
X289625Y128938*
X289625D02*
X289852Y128656D01*
X289966Y128234*
X369341Y130203D02*
X369682Y130063D01*
X369682D02*
X369909Y129641D01*
X370023Y128938*
X370023D02*
Y128516D01*
X369909Y127813*
X369909D02*
X369682Y127391D01*
X369341Y127250*
X369114*
X368773Y127391*
X368545Y127813*
X368545D02*
X368432Y128516D01*
Y128938*
X368432D02*
X368545Y129641D01*
X368773Y130063*
X368773D02*
X369114Y130203D01*
X369341*
X338602Y129781D02*
X338716Y130063D01*
X338716D02*
X339057Y130203D01*
X339284*
X339625Y130063*
X339625D02*
X339852Y129641D01*
X339966Y128938*
X339966D02*
Y128234D01*
X339852Y127672*
X339625Y127391*
X339284Y127250*
X339170*
X338830Y127391*
X338602Y127672*
X338489Y128094*
Y128234*
X338602Y128656*
X338830Y128938*
X338830D02*
X339170Y129078D01*
X339284*
X339625Y128938*
X339625D02*
X339852Y128656D01*
X339966Y128234*
X309909Y129500D02*
Y129641D01*
X309795Y129922*
X309682Y130063*
X309682D02*
X309455Y130203D01*
X309000*
X308773Y130063*
X308773D02*
X308659Y129922D01*
X308545Y129641*
Y129359*
X308659Y129078*
X308886Y128656*
X310023Y127250*
X308432*
X298943Y130203D02*
X300080Y128234D01*
X298375*
X298943Y130203D02*
Y127250D01*
X359909Y129500D02*
Y129641D01*
X359795Y129922*
X359682Y130063*
X359682D02*
X359455Y130203D01*
X359000*
X358773Y130063*
X358773D02*
X358659Y129922D01*
X358545Y129641*
Y129359*
X358659Y129078*
X358886Y128656*
X360023Y127250*
X358432*
X348943Y130203D02*
X350080Y128234D01*
X348375*
X348943Y130203D02*
Y127250D01*
X289492Y289295D02*
X289773Y289182D01*
X290055Y288955*
X290195Y288727*
Y288273*
X290055Y288045*
X289773Y287818*
X289492Y287705*
X289070Y287591*
X288367*
X287945Y287705*
X287664Y287818*
X287383Y288045*
X287242Y288273*
Y288727*
X287383Y288955*
X287664Y289182*
X287945Y289295*
X288367*
Y288727D02*
Y289295D01*
X289211Y290318D02*
X287242D01*
X288648D02*
X289070Y290659D01*
X289211Y290886*
Y291227*
X289070Y291455*
X288648Y291568*
X287242*
X290195Y293955D02*
X287242D01*
X288789D02*
X289070Y293727D01*
X289211Y293500*
Y293159*
X289070Y292932*
X288789Y292705*
X288367Y292591*
X288086*
X287664Y292705*
X287383Y292932*
X287242Y293159*
Y293500*
X287383Y293727*
X287664Y293955*
X290195Y278102D02*
X287242Y279011D01*
X290195Y279920D02*
X287242Y279011D01*
X290195Y280943D02*
X290055Y281057D01*
X290195Y281170*
X290336Y281057*
X290195Y280943*
X289211Y281057D02*
X287242D01*
X289211Y282193D02*
X287242D01*
X288648D02*
X289070Y282534D01*
X289211Y282761*
Y283102*
X289070Y283330*
X288648Y283443*
X287242*
X182000Y104000D02*
X217000D01*
Y135000*
X182000*
Y104000*
X217000D02*
X252000D01*
Y135000*
X217000*
Y104000*
G54D94*
X0Y0D02*
M02*
